<?xml version="1.0" encoding="utf-8" standalone="no"?>
<!DOCTYPE svg PUBLIC "-//W3C//DTD SVG 1.1//EN"
  "http://www.w3.org/Graphics/SVG/1.1/DTD/svg11.dtd">
<!-- Created with matplotlib (https://matplotlib.org/) -->
<svg height="297.634062pt" version="1.1" viewBox="0 0 446.784375 297.634062" width="446.784375pt" xmlns="http://www.w3.org/2000/svg" xmlns:xlink="http://www.w3.org/1999/xlink">
 <defs>
  <style type="text/css">
*{stroke-linecap:butt;stroke-linejoin:round;}
  </style>
 </defs>
 <g id="figure_1">
  <g id="patch_1">
   <path d="M 0 297.634062 
L 446.784375 297.634062 
L 446.784375 0 
L 0 0 
z
" style="fill:#ffffff;"/>
  </g>
  <g id="axes_1">
   <g id="patch_2">
    <path d="M 101.284375 228.14 
L 436.084375 228.14 
L 436.084375 10.7 
L 101.284375 10.7 
z
" style="fill:#ffffff;"/>
   </g>
   <g id="matplotlib.axis_1">
    <g id="xtick_1">
     <g id="line2d_1">
      <defs>
       <path d="M 0 0 
L 0 3.5 
" id="m902d576149" style="stroke:#000000;stroke-width:0.8;"/>
      </defs>
      <g>
       <use style="stroke:#000000;stroke-width:0.8;" x="101.284375" xlink:href="#m902d576149" y="228.14"/>
      </g>
     </g>
     <g id="text_1">
      <!-- $\mathdefault{10^{0}}$ -->
      <defs>
       <path d="M 12.40625 8.296875 
L 28.515625 8.296875 
L 28.515625 63.921875 
L 10.984375 60.40625 
L 10.984375 69.390625 
L 28.421875 72.90625 
L 38.28125 72.90625 
L 38.28125 8.296875 
L 54.390625 8.296875 
L 54.390625 0 
L 12.40625 0 
z
" id="DejaVuSans-49"/>
       <path d="M 31.78125 66.40625 
Q 24.171875 66.40625 20.328125 58.90625 
Q 16.5 51.421875 16.5 36.375 
Q 16.5 21.390625 20.328125 13.890625 
Q 24.171875 6.390625 31.78125 6.390625 
Q 39.453125 6.390625 43.28125 13.890625 
Q 47.125 21.390625 47.125 36.375 
Q 47.125 51.421875 43.28125 58.90625 
Q 39.453125 66.40625 31.78125 66.40625 
z
M 31.78125 74.21875 
Q 44.046875 74.21875 50.515625 64.515625 
Q 56.984375 54.828125 56.984375 36.375 
Q 56.984375 17.96875 50.515625 8.265625 
Q 44.046875 -1.421875 31.78125 -1.421875 
Q 19.53125 -1.421875 13.0625 8.265625 
Q 6.59375 17.96875 6.59375 36.375 
Q 6.59375 54.828125 13.0625 64.515625 
Q 19.53125 74.21875 31.78125 74.21875 
z
" id="DejaVuSans-48"/>
      </defs>
      <g transform="translate(81.044375 252.616406)scale(0.23 -0.23)">
       <use transform="translate(0 0.765625)" xlink:href="#DejaVuSans-49"/>
       <use transform="translate(63.623047 0.765625)" xlink:href="#DejaVuSans-48"/>
       <use transform="translate(128.203125 39.046875)scale(0.7)" xlink:href="#DejaVuSans-48"/>
      </g>
     </g>
    </g>
    <g id="xtick_2">
     <g id="line2d_2">
      <g>
       <use style="stroke:#000000;stroke-width:0.8;" x="235.204375" xlink:href="#m902d576149" y="228.14"/>
      </g>
     </g>
     <g id="text_2">
      <!-- $\mathdefault{10^{2}}$ -->
      <defs>
       <path d="M 19.1875 8.296875 
L 53.609375 8.296875 
L 53.609375 0 
L 7.328125 0 
L 7.328125 8.296875 
Q 12.9375 14.109375 22.625 23.890625 
Q 32.328125 33.6875 34.8125 36.53125 
Q 39.546875 41.84375 41.421875 45.53125 
Q 43.3125 49.21875 43.3125 52.78125 
Q 43.3125 58.59375 39.234375 62.25 
Q 35.15625 65.921875 28.609375 65.921875 
Q 23.96875 65.921875 18.8125 64.3125 
Q 13.671875 62.703125 7.8125 59.421875 
L 7.8125 69.390625 
Q 13.765625 71.78125 18.9375 73 
Q 24.125 74.21875 28.421875 74.21875 
Q 39.75 74.21875 46.484375 68.546875 
Q 53.21875 62.890625 53.21875 53.421875 
Q 53.21875 48.921875 51.53125 44.890625 
Q 49.859375 40.875 45.40625 35.40625 
Q 44.1875 33.984375 37.640625 27.21875 
Q 31.109375 20.453125 19.1875 8.296875 
z
" id="DejaVuSans-50"/>
      </defs>
      <g transform="translate(214.964375 252.616406)scale(0.23 -0.23)">
       <use transform="translate(0 0.765625)" xlink:href="#DejaVuSans-49"/>
       <use transform="translate(63.623047 0.765625)" xlink:href="#DejaVuSans-48"/>
       <use transform="translate(128.203125 39.046875)scale(0.7)" xlink:href="#DejaVuSans-50"/>
      </g>
     </g>
    </g>
    <g id="xtick_3">
     <g id="line2d_3">
      <g>
       <use style="stroke:#000000;stroke-width:0.8;" x="369.124375" xlink:href="#m902d576149" y="228.14"/>
      </g>
     </g>
     <g id="text_3">
      <!-- $\mathdefault{10^{4}}$ -->
      <defs>
       <path d="M 37.796875 64.3125 
L 12.890625 25.390625 
L 37.796875 25.390625 
z
M 35.203125 72.90625 
L 47.609375 72.90625 
L 47.609375 25.390625 
L 58.015625 25.390625 
L 58.015625 17.1875 
L 47.609375 17.1875 
L 47.609375 0 
L 37.796875 0 
L 37.796875 17.1875 
L 4.890625 17.1875 
L 4.890625 26.703125 
z
" id="DejaVuSans-52"/>
      </defs>
      <g transform="translate(348.884375 252.616406)scale(0.23 -0.23)">
       <use transform="translate(0 0.684375)" xlink:href="#DejaVuSans-49"/>
       <use transform="translate(63.623047 0.684375)" xlink:href="#DejaVuSans-48"/>
       <use transform="translate(128.203125 38.965625)scale(0.7)" xlink:href="#DejaVuSans-52"/>
      </g>
     </g>
    </g>
    <g id="text_4">
     <!-- #pixels -->
     <defs>
      <path d="M 51.125 44 
L 36.921875 44 
L 32.8125 27.6875 
L 47.125 27.6875 
z
M 43.796875 71.78125 
L 38.71875 51.515625 
L 52.984375 51.515625 
L 58.109375 71.78125 
L 65.921875 71.78125 
L 60.890625 51.515625 
L 76.125 51.515625 
L 76.125 44 
L 58.984375 44 
L 54.984375 27.6875 
L 70.515625 27.6875 
L 70.515625 20.21875 
L 53.078125 20.21875 
L 48 0 
L 40.1875 0 
L 45.21875 20.21875 
L 30.90625 20.21875 
L 25.875 0 
L 18.015625 0 
L 23.09375 20.21875 
L 7.71875 20.21875 
L 7.71875 27.6875 
L 24.90625 27.6875 
L 29 44 
L 13.28125 44 
L 13.28125 51.515625 
L 30.90625 51.515625 
L 35.890625 71.78125 
z
" id="DejaVuSans-35"/>
      <path d="M 18.109375 8.203125 
L 18.109375 -20.796875 
L 9.078125 -20.796875 
L 9.078125 54.6875 
L 18.109375 54.6875 
L 18.109375 46.390625 
Q 20.953125 51.265625 25.265625 53.625 
Q 29.59375 56 35.59375 56 
Q 45.5625 56 51.78125 48.09375 
Q 58.015625 40.1875 58.015625 27.296875 
Q 58.015625 14.40625 51.78125 6.484375 
Q 45.5625 -1.421875 35.59375 -1.421875 
Q 29.59375 -1.421875 25.265625 0.953125 
Q 20.953125 3.328125 18.109375 8.203125 
z
M 48.6875 27.296875 
Q 48.6875 37.203125 44.609375 42.84375 
Q 40.53125 48.484375 33.40625 48.484375 
Q 26.265625 48.484375 22.1875 42.84375 
Q 18.109375 37.203125 18.109375 27.296875 
Q 18.109375 17.390625 22.1875 11.75 
Q 26.265625 6.109375 33.40625 6.109375 
Q 40.53125 6.109375 44.609375 11.75 
Q 48.6875 17.390625 48.6875 27.296875 
z
" id="DejaVuSans-112"/>
      <path d="M 9.421875 54.6875 
L 18.40625 54.6875 
L 18.40625 0 
L 9.421875 0 
z
M 9.421875 75.984375 
L 18.40625 75.984375 
L 18.40625 64.59375 
L 9.421875 64.59375 
z
" id="DejaVuSans-105"/>
      <path d="M 54.890625 54.6875 
L 35.109375 28.078125 
L 55.90625 0 
L 45.3125 0 
L 29.390625 21.484375 
L 13.484375 0 
L 2.875 0 
L 24.125 28.609375 
L 4.6875 54.6875 
L 15.28125 54.6875 
L 29.78125 35.203125 
L 44.28125 54.6875 
z
" id="DejaVuSans-120"/>
      <path d="M 56.203125 29.59375 
L 56.203125 25.203125 
L 14.890625 25.203125 
Q 15.484375 15.921875 20.484375 11.0625 
Q 25.484375 6.203125 34.421875 6.203125 
Q 39.59375 6.203125 44.453125 7.46875 
Q 49.3125 8.734375 54.109375 11.28125 
L 54.109375 2.78125 
Q 49.265625 0.734375 44.1875 -0.34375 
Q 39.109375 -1.421875 33.890625 -1.421875 
Q 20.796875 -1.421875 13.15625 6.1875 
Q 5.515625 13.8125 5.515625 26.8125 
Q 5.515625 40.234375 12.765625 48.109375 
Q 20.015625 56 32.328125 56 
Q 43.359375 56 49.78125 48.890625 
Q 56.203125 41.796875 56.203125 29.59375 
z
M 47.21875 32.234375 
Q 47.125 39.59375 43.09375 43.984375 
Q 39.0625 48.390625 32.421875 48.390625 
Q 24.90625 48.390625 20.390625 44.140625 
Q 15.875 39.890625 15.1875 32.171875 
z
" id="DejaVuSans-101"/>
      <path d="M 9.421875 75.984375 
L 18.40625 75.984375 
L 18.40625 0 
L 9.421875 0 
z
" id="DejaVuSans-108"/>
      <path d="M 44.28125 53.078125 
L 44.28125 44.578125 
Q 40.484375 46.53125 36.375 47.5 
Q 32.28125 48.484375 27.875 48.484375 
Q 21.1875 48.484375 17.84375 46.4375 
Q 14.5 44.390625 14.5 40.28125 
Q 14.5 37.15625 16.890625 35.375 
Q 19.28125 33.59375 26.515625 31.984375 
L 29.59375 31.296875 
Q 39.15625 29.25 43.1875 25.515625 
Q 47.21875 21.78125 47.21875 15.09375 
Q 47.21875 7.46875 41.1875 3.015625 
Q 35.15625 -1.421875 24.609375 -1.421875 
Q 20.21875 -1.421875 15.453125 -0.5625 
Q 10.6875 0.296875 5.421875 2 
L 5.421875 11.28125 
Q 10.40625 8.6875 15.234375 7.390625 
Q 20.0625 6.109375 24.8125 6.109375 
Q 31.15625 6.109375 34.5625 8.28125 
Q 37.984375 10.453125 37.984375 14.40625 
Q 37.984375 18.0625 35.515625 20.015625 
Q 33.0625 21.96875 24.703125 23.78125 
L 21.578125 24.515625 
Q 13.234375 26.265625 9.515625 29.90625 
Q 5.8125 33.546875 5.8125 39.890625 
Q 5.8125 47.609375 11.28125 51.796875 
Q 16.75 56 26.8125 56 
Q 31.78125 56 36.171875 55.265625 
Q 40.578125 54.546875 44.28125 53.078125 
z
" id="DejaVuSans-115"/>
     </defs>
     <g transform="translate(212.342969 284.195)scale(0.3 -0.3)">
      <use xlink:href="#DejaVuSans-35"/>
      <use x="83.789062" xlink:href="#DejaVuSans-112"/>
      <use x="147.265625" xlink:href="#DejaVuSans-105"/>
      <use x="175.048828" xlink:href="#DejaVuSans-120"/>
      <use x="234.181641" xlink:href="#DejaVuSans-101"/>
      <use x="295.705078" xlink:href="#DejaVuSans-108"/>
      <use x="323.488281" xlink:href="#DejaVuSans-115"/>
     </g>
    </g>
   </g>
   <g id="matplotlib.axis_2">
    <g id="ytick_1">
     <g id="line2d_4">
      <defs>
       <path d="M 0 0 
L -3.5 0 
" id="macaefe2e04" style="stroke:#000000;stroke-width:0.8;"/>
      </defs>
      <g>
       <use style="stroke:#000000;stroke-width:0.8;" x="101.284375" xlink:href="#macaefe2e04" y="201.948829"/>
      </g>
     </g>
     <g id="text_5">
      <!-- $\mathdefault{10^{-3}}$ -->
      <defs>
       <path d="M 10.59375 35.5 
L 73.1875 35.5 
L 73.1875 27.203125 
L 10.59375 27.203125 
z
" id="DejaVuSans-8722"/>
       <path d="M 40.578125 39.3125 
Q 47.65625 37.796875 51.625 33 
Q 55.609375 28.21875 55.609375 21.1875 
Q 55.609375 10.40625 48.1875 4.484375 
Q 40.765625 -1.421875 27.09375 -1.421875 
Q 22.515625 -1.421875 17.65625 -0.515625 
Q 12.796875 0.390625 7.625 2.203125 
L 7.625 11.71875 
Q 11.71875 9.328125 16.59375 8.109375 
Q 21.484375 6.890625 26.8125 6.890625 
Q 36.078125 6.890625 40.9375 10.546875 
Q 45.796875 14.203125 45.796875 21.1875 
Q 45.796875 27.640625 41.28125 31.265625 
Q 36.765625 34.90625 28.71875 34.90625 
L 20.21875 34.90625 
L 20.21875 43.015625 
L 29.109375 43.015625 
Q 36.375 43.015625 40.234375 45.921875 
Q 44.09375 48.828125 44.09375 54.296875 
Q 44.09375 59.90625 40.109375 62.90625 
Q 36.140625 65.921875 28.71875 65.921875 
Q 24.65625 65.921875 20.015625 65.03125 
Q 15.375 64.15625 9.8125 62.3125 
L 9.8125 71.09375 
Q 15.4375 72.65625 20.34375 73.4375 
Q 25.25 74.21875 29.59375 74.21875 
Q 40.828125 74.21875 47.359375 69.109375 
Q 53.90625 64.015625 53.90625 55.328125 
Q 53.90625 49.265625 50.4375 45.09375 
Q 46.96875 40.921875 40.578125 39.3125 
z
" id="DejaVuSans-51"/>
      </defs>
      <g transform="translate(40.234375 210.687032)scale(0.23 -0.23)">
       <use transform="translate(0 0.765625)" xlink:href="#DejaVuSans-49"/>
       <use transform="translate(63.623047 0.765625)" xlink:href="#DejaVuSans-48"/>
       <use transform="translate(128.203125 39.046875)scale(0.7)" xlink:href="#DejaVuSans-8722"/>
       <use transform="translate(186.855469 39.046875)scale(0.7)" xlink:href="#DejaVuSans-51"/>
      </g>
     </g>
    </g>
    <g id="ytick_2">
     <g id="line2d_5">
      <g>
       <use style="stroke:#000000;stroke-width:0.8;" x="101.284375" xlink:href="#macaefe2e04" y="141.493765"/>
      </g>
     </g>
     <g id="text_6">
      <!-- $\mathdefault{10^{-2}}$ -->
      <g transform="translate(40.234375 150.231968)scale(0.23 -0.23)">
       <use transform="translate(0 0.765625)" xlink:href="#DejaVuSans-49"/>
       <use transform="translate(63.623047 0.765625)" xlink:href="#DejaVuSans-48"/>
       <use transform="translate(128.203125 39.046875)scale(0.7)" xlink:href="#DejaVuSans-8722"/>
       <use transform="translate(186.855469 39.046875)scale(0.7)" xlink:href="#DejaVuSans-50"/>
      </g>
     </g>
    </g>
    <g id="ytick_3">
     <g id="line2d_6">
      <g>
       <use style="stroke:#000000;stroke-width:0.8;" x="101.284375" xlink:href="#macaefe2e04" y="81.038701"/>
      </g>
     </g>
     <g id="text_7">
      <!-- $\mathdefault{10^{-1}}$ -->
      <g transform="translate(40.234375 89.776904)scale(0.23 -0.23)">
       <use transform="translate(0 0.684375)" xlink:href="#DejaVuSans-49"/>
       <use transform="translate(63.623047 0.684375)" xlink:href="#DejaVuSans-48"/>
       <use transform="translate(128.203125 38.965625)scale(0.7)" xlink:href="#DejaVuSans-8722"/>
       <use transform="translate(186.855469 38.965625)scale(0.7)" xlink:href="#DejaVuSans-49"/>
      </g>
     </g>
    </g>
    <g id="ytick_4">
     <g id="line2d_7">
      <g>
       <use style="stroke:#000000;stroke-width:0.8;" x="101.284375" xlink:href="#macaefe2e04" y="20.583636"/>
      </g>
     </g>
     <g id="text_8">
      <!-- $\mathdefault{10^{0}}$ -->
      <g transform="translate(53.804375 29.321839)scale(0.23 -0.23)">
       <use transform="translate(0 0.765625)" xlink:href="#DejaVuSans-49"/>
       <use transform="translate(63.623047 0.765625)" xlink:href="#DejaVuSans-48"/>
       <use transform="translate(128.203125 39.046875)scale(0.7)" xlink:href="#DejaVuSans-48"/>
      </g>
     </g>
    </g>
    <g id="ytick_5">
     <g id="line2d_8">
      <defs>
       <path d="M 0 0 
L -2 0 
" id="m8bcaeff743" style="stroke:#000000;stroke-width:0.6;"/>
      </defs>
      <g>
       <use style="stroke:#000000;stroke-width:0.6;" x="101.284375" xlink:href="#m8bcaeff743" y="226.006318"/>
      </g>
     </g>
    </g>
    <g id="ytick_6">
     <g id="line2d_9">
      <g>
       <use style="stroke:#000000;stroke-width:0.6;" x="101.284375" xlink:href="#m8bcaeff743" y="220.147617"/>
      </g>
     </g>
    </g>
    <g id="ytick_7">
     <g id="line2d_10">
      <g>
       <use style="stroke:#000000;stroke-width:0.6;" x="101.284375" xlink:href="#m8bcaeff743" y="215.36071"/>
      </g>
     </g>
    </g>
    <g id="ytick_8">
     <g id="line2d_11">
      <g>
       <use style="stroke:#000000;stroke-width:0.6;" x="101.284375" xlink:href="#m8bcaeff743" y="211.313437"/>
      </g>
     </g>
    </g>
    <g id="ytick_9">
     <g id="line2d_12">
      <g>
       <use style="stroke:#000000;stroke-width:0.6;" x="101.284375" xlink:href="#m8bcaeff743" y="207.80753"/>
      </g>
     </g>
    </g>
    <g id="ytick_10">
     <g id="line2d_13">
      <g>
       <use style="stroke:#000000;stroke-width:0.6;" x="101.284375" xlink:href="#m8bcaeff743" y="204.715101"/>
      </g>
     </g>
    </g>
    <g id="ytick_11">
     <g id="line2d_14">
      <g>
       <use style="stroke:#000000;stroke-width:0.6;" x="101.284375" xlink:href="#m8bcaeff743" y="183.750042"/>
      </g>
     </g>
    </g>
    <g id="ytick_12">
     <g id="line2d_15">
      <g>
       <use style="stroke:#000000;stroke-width:0.6;" x="101.284375" xlink:href="#m8bcaeff743" y="173.104433"/>
      </g>
     </g>
    </g>
    <g id="ytick_13">
     <g id="line2d_16">
      <g>
       <use style="stroke:#000000;stroke-width:0.6;" x="101.284375" xlink:href="#m8bcaeff743" y="165.551254"/>
      </g>
     </g>
    </g>
    <g id="ytick_14">
     <g id="line2d_17">
      <g>
       <use style="stroke:#000000;stroke-width:0.6;" x="101.284375" xlink:href="#m8bcaeff743" y="159.692553"/>
      </g>
     </g>
    </g>
    <g id="ytick_15">
     <g id="line2d_18">
      <g>
       <use style="stroke:#000000;stroke-width:0.6;" x="101.284375" xlink:href="#m8bcaeff743" y="154.905645"/>
      </g>
     </g>
    </g>
    <g id="ytick_16">
     <g id="line2d_19">
      <g>
       <use style="stroke:#000000;stroke-width:0.6;" x="101.284375" xlink:href="#m8bcaeff743" y="150.858373"/>
      </g>
     </g>
    </g>
    <g id="ytick_17">
     <g id="line2d_20">
      <g>
       <use style="stroke:#000000;stroke-width:0.6;" x="101.284375" xlink:href="#m8bcaeff743" y="147.352466"/>
      </g>
     </g>
    </g>
    <g id="ytick_18">
     <g id="line2d_21">
      <g>
       <use style="stroke:#000000;stroke-width:0.6;" x="101.284375" xlink:href="#m8bcaeff743" y="144.260037"/>
      </g>
     </g>
    </g>
    <g id="ytick_19">
     <g id="line2d_22">
      <g>
       <use style="stroke:#000000;stroke-width:0.6;" x="101.284375" xlink:href="#m8bcaeff743" y="123.294977"/>
      </g>
     </g>
    </g>
    <g id="ytick_20">
     <g id="line2d_23">
      <g>
       <use style="stroke:#000000;stroke-width:0.6;" x="101.284375" xlink:href="#m8bcaeff743" y="112.649369"/>
      </g>
     </g>
    </g>
    <g id="ytick_21">
     <g id="line2d_24">
      <g>
       <use style="stroke:#000000;stroke-width:0.6;" x="101.284375" xlink:href="#m8bcaeff743" y="105.096189"/>
      </g>
     </g>
    </g>
    <g id="ytick_22">
     <g id="line2d_25">
      <g>
       <use style="stroke:#000000;stroke-width:0.6;" x="101.284375" xlink:href="#m8bcaeff743" y="99.237488"/>
      </g>
     </g>
    </g>
    <g id="ytick_23">
     <g id="line2d_26">
      <g>
       <use style="stroke:#000000;stroke-width:0.6;" x="101.284375" xlink:href="#m8bcaeff743" y="94.450581"/>
      </g>
     </g>
    </g>
    <g id="ytick_24">
     <g id="line2d_27">
      <g>
       <use style="stroke:#000000;stroke-width:0.6;" x="101.284375" xlink:href="#m8bcaeff743" y="90.403309"/>
      </g>
     </g>
    </g>
    <g id="ytick_25">
     <g id="line2d_28">
      <g>
       <use style="stroke:#000000;stroke-width:0.6;" x="101.284375" xlink:href="#m8bcaeff743" y="86.897402"/>
      </g>
     </g>
    </g>
    <g id="ytick_26">
     <g id="line2d_29">
      <g>
       <use style="stroke:#000000;stroke-width:0.6;" x="101.284375" xlink:href="#m8bcaeff743" y="83.804973"/>
      </g>
     </g>
    </g>
    <g id="ytick_27">
     <g id="line2d_30">
      <g>
       <use style="stroke:#000000;stroke-width:0.6;" x="101.284375" xlink:href="#m8bcaeff743" y="62.839913"/>
      </g>
     </g>
    </g>
    <g id="ytick_28">
     <g id="line2d_31">
      <g>
       <use style="stroke:#000000;stroke-width:0.6;" x="101.284375" xlink:href="#m8bcaeff743" y="52.194305"/>
      </g>
     </g>
    </g>
    <g id="ytick_29">
     <g id="line2d_32">
      <g>
       <use style="stroke:#000000;stroke-width:0.6;" x="101.284375" xlink:href="#m8bcaeff743" y="44.641125"/>
      </g>
     </g>
    </g>
    <g id="ytick_30">
     <g id="line2d_33">
      <g>
       <use style="stroke:#000000;stroke-width:0.6;" x="101.284375" xlink:href="#m8bcaeff743" y="38.782424"/>
      </g>
     </g>
    </g>
    <g id="ytick_31">
     <g id="line2d_34">
      <g>
       <use style="stroke:#000000;stroke-width:0.6;" x="101.284375" xlink:href="#m8bcaeff743" y="33.995517"/>
      </g>
     </g>
    </g>
    <g id="ytick_32">
     <g id="line2d_35">
      <g>
       <use style="stroke:#000000;stroke-width:0.6;" x="101.284375" xlink:href="#m8bcaeff743" y="29.948244"/>
      </g>
     </g>
    </g>
    <g id="ytick_33">
     <g id="line2d_36">
      <g>
       <use style="stroke:#000000;stroke-width:0.6;" x="101.284375" xlink:href="#m8bcaeff743" y="26.442337"/>
      </g>
     </g>
    </g>
    <g id="ytick_34">
     <g id="line2d_37">
      <g>
       <use style="stroke:#000000;stroke-width:0.6;" x="101.284375" xlink:href="#m8bcaeff743" y="23.349908"/>
      </g>
     </g>
    </g>
    <g id="text_9">
     <!-- ICDF -->
     <defs>
      <path d="M 9.8125 72.90625 
L 19.671875 72.90625 
L 19.671875 0 
L 9.8125 0 
z
" id="DejaVuSans-73"/>
      <path d="M 64.40625 67.28125 
L 64.40625 56.890625 
Q 59.421875 61.53125 53.78125 63.8125 
Q 48.140625 66.109375 41.796875 66.109375 
Q 29.296875 66.109375 22.65625 58.46875 
Q 16.015625 50.828125 16.015625 36.375 
Q 16.015625 21.96875 22.65625 14.328125 
Q 29.296875 6.6875 41.796875 6.6875 
Q 48.140625 6.6875 53.78125 8.984375 
Q 59.421875 11.28125 64.40625 15.921875 
L 64.40625 5.609375 
Q 59.234375 2.09375 53.4375 0.328125 
Q 47.65625 -1.421875 41.21875 -1.421875 
Q 24.65625 -1.421875 15.125 8.703125 
Q 5.609375 18.84375 5.609375 36.375 
Q 5.609375 53.953125 15.125 64.078125 
Q 24.65625 74.21875 41.21875 74.21875 
Q 47.75 74.21875 53.53125 72.484375 
Q 59.328125 70.75 64.40625 67.28125 
z
" id="DejaVuSans-67"/>
      <path d="M 19.671875 64.796875 
L 19.671875 8.109375 
L 31.59375 8.109375 
Q 46.6875 8.109375 53.6875 14.9375 
Q 60.6875 21.78125 60.6875 36.53125 
Q 60.6875 51.171875 53.6875 57.984375 
Q 46.6875 64.796875 31.59375 64.796875 
z
M 9.8125 72.90625 
L 30.078125 72.90625 
Q 51.265625 72.90625 61.171875 64.09375 
Q 71.09375 55.28125 71.09375 36.53125 
Q 71.09375 17.671875 61.125 8.828125 
Q 51.171875 0 30.078125 0 
L 9.8125 0 
z
" id="DejaVuSans-68"/>
      <path d="M 9.8125 72.90625 
L 51.703125 72.90625 
L 51.703125 64.59375 
L 19.671875 64.59375 
L 19.671875 43.109375 
L 48.578125 43.109375 
L 48.578125 34.8125 
L 19.671875 34.8125 
L 19.671875 0 
L 9.8125 0 
z
" id="DejaVuSans-70"/>
     </defs>
     <g transform="translate(29.995313 154.496562)rotate(-90)scale(0.3 -0.3)">
      <use xlink:href="#DejaVuSans-73"/>
      <use x="29.492188" xlink:href="#DejaVuSans-67"/>
      <use x="99.316406" xlink:href="#DejaVuSans-68"/>
      <use x="176.318359" xlink:href="#DejaVuSans-70"/>
     </g>
    </g>
   </g>
   <g id="line2d_38">
    <path clip-path="url(#pa78b27cf8c)" d="M -1 20.583636 
L 185.337422 20.68258 
L 204.675171 20.910146 
L 207.066685 21.053383 
L 209.276382 21.154116 
L 214.459905 21.371283 
L 217.819061 21.693079 
L 219.363513 21.899931 
L 220.349383 21.989083 
L 221.768218 22.318589 
L 224.83214 23.021216 
L 225.244634 23.521332 
L 226.052474 23.790945 
L 227.97903 24.03116 
L 229.433351 24.273593 
L 232.140453 24.600359 
L 232.779608 24.947897 
L 234.017257 25.081512 
L 235.493734 25.657087 
L 236.62321 26.15819 
L 237.171913 26.333226 
L 237.710453 26.456449 
L 238.500014 26.669044 
L 239.268702 27.027239 
L 240.506351 27.335595 
L 240.987029 27.518687 
L 242.834022 27.87012 
L 243.715312 28.132113 
L 247.380622 29.167884 
L 248.135998 29.443223 
L 248.689926 29.542263 
L 249.053436 29.621764 
L 250.291085 30.103895 
L 250.97536 30.471393 
L 253.250962 31.137701 
L 255.215577 31.734923 
L 255.506383 31.864686 
L 255.937211 31.929809 
L 256.220924 32.082393 
L 256.501896 32.257868 
L 256.780179 32.412376 
L 257.055824 32.634692 
L 257.599398 32.79144 
L 259.927069 34.033166 
L 260.419968 34.412653 
L 261.966527 35.090246 
L 262.766431 35.635187 
L 263.102623 35.735494 
L 263.654449 35.987951 
L 265.965296 37.181579 
L 266.166545 37.368071 
L 266.366411 37.555897 
L 266.663657 37.58284 
L 267.055318 37.853795 
L 267.441773 38.07259 
L 268.386024 38.432068 
L 268.846895 38.627691 
L 269.029218 38.655757 
L 269.300576 38.824783 
L 269.569426 38.966474 
L 269.835812 39.194782 
L 270.187241 39.252171 
L 272.292382 40.517377 
L 272.45439 40.607965 
L 272.775724 41.004164 
L 273.251162 41.096449 
L 274.255365 42.133598 
L 274.7074 42.391321 
L 275.663352 42.914482 
L 276.588876 43.617343 
L 276.937147 43.855874 
L 277.144126 44.200437 
L 277.957616 44.725911 
L 278.223799 44.974778 
L 278.618561 45.298256 
L 278.813951 45.334445 
L 279.008036 45.479703 
L 279.708802 45.772653 
L 279.897025 45.846404 
L 280.208048 46.068907 
L 280.454493 46.143496 
L 281.121642 46.671638 
L 281.360496 46.939747 
L 281.479192 46.978273 
L 281.656331 47.249548 
L 281.890852 47.327572 
L 282.697092 47.960261 
L 282.866987 48.161144 
L 283.091981 48.201506 
L 283.646967 48.282416 
L 283.756704 48.444988 
L 283.974944 48.731934 
L 284.245461 48.814498 
L 285.146839 49.399831 
L 285.303045 49.484526 
L 285.561539 49.697465 
L 285.71554 49.783127 
L 285.868729 49.869069 
L 286.223063 49.955294 
L 286.423618 50.085164 
L 286.919036 50.390715 
L 287.114865 50.478673 
L 287.309383 50.611164 
L 287.35781 50.611164 
L 287.550715 50.967778 
L 287.742349 51.012697 
L 287.932728 51.193147 
L 287.980129 51.193147 
L 288.12187 51.329302 
L 288.262923 51.374845 
L 288.449935 51.557809 
L 288.774341 51.649772 
L 288.912272 51.834669 
L 289.095168 52.11448 
L 289.231589 52.255511 
L 290.561715 53.510599 
L 290.691442 53.609676 
L 291.077185 53.909169 
L 291.204638 54.009764 
L 291.415825 54.262951 
L 291.833653 54.364914 
L 292.081499 54.724933 
L 292.32725 54.880752 
L 292.570942 54.985147 
L 292.852691 55.19519 
L 293.012474 55.300846 
L 293.564899 55.889674 
L 293.875922 55.998167 
L 294.976288 57.39357 
L 295.050663 57.450959 
L 295.198843 57.566114 
L 295.309485 57.623881 
L 295.529514 57.79795 
L 295.711608 57.85623 
L 295.928627 58.031852 
L 296.144038 58.090654 
L 296.357865 58.267856 
L 296.605359 58.32719 
L 297.024794 58.867318 
L 297.094116 58.928024 
L 297.335448 59.172261 
L 297.438266 59.233677 
L 297.744557 59.605221 
L 297.913335 59.667659 
L 298.047656 59.982098 
L 298.41387 60.493166 
L 298.446935 60.493166 
L 298.578819 60.687411 
L 298.710107 60.75248 
L 298.938445 61.01438 
L 299.068124 61.080265 
L 299.229413 61.212534 
L 299.389813 61.278919 
L 299.517498 61.345473 
L 299.676321 61.412195 
L 299.802757 61.479088 
L 299.960034 61.546151 
L 300.4885 62.433931 
L 300.58077 62.503482 
L 300.855835 62.854025 
L 300.916609 62.854025 
L 301.128324 63.352784 
L 301.457935 63.861201 
L 301.606532 63.934642 
L 301.783852 64.082145 
L 301.872108 64.156207 
L 302.309414 64.984995 
L 302.768739 65.061652 
L 303.108533 65.683109 
L 303.304927 65.683109 
L 303.444402 65.840799 
L 303.555502 65.92 
L 303.693782 65.999441 
L 303.803935 66.079124 
L 304.050265 66.481204 
L 304.267486 66.562364 
L 304.456232 66.807361 
L 304.509936 66.889537 
L 304.723763 67.220838 
L 304.936029 67.304321 
L 305.1205 67.556374 
L 305.225388 67.640932 
L 305.382015 67.81087 
L 305.589548 67.896253 
L 305.718508 67.981915 
L 306.025697 68.067857 
L 306.152741 68.24059 
L 306.253979 68.327384 
L 306.405177 68.501839 
L 306.50554 68.589503 
L 306.65544 68.765713 
L 306.903567 68.854264 
L 307.051434 69.032267 
L 307.296219 69.121723 
L 307.466351 69.391934 
L 307.563125 69.482626 
L 307.707683 69.664955 
L 308.065967 69.756597 
L 308.231668 70.033457 
L 308.466757 70.126396 
L 308.583593 70.219666 
L 308.838991 70.313267 
L 308.954343 70.407204 
L 309.06924 70.501478 
L 309.183685 70.596092 
L 309.433889 70.691048 
L 309.704406 71.365533 
L 309.861053 71.463319 
L 310.105521 72.057804 
L 310.718683 72.057804 
L 310.84841 72.360171 
L 310.891524 72.461739 
L 311.063344 72.768822 
L 311.572794 72.871987 
L 311.698774 73.07954 
L 311.76156 73.183934 
L 311.886726 73.393978 
L 312.052782 73.499633 
L 312.27957 74.142652 
L 312.463818 74.25137 
L 312.667178 74.801816 
L 312.70768 74.801816 
L 312.848994 75.025267 
L 313.169442 75.025267 
L 313.308535 75.250635 
L 313.545444 75.250635 
L 313.663178 75.364049 
L 313.702317 75.364049 
L 313.897227 75.938587 
L 313.955446 75.938587 
L 314.110129 76.289442 
L 314.225604 76.289442 
L 314.397961 76.764664 
L 314.569302 76.764664 
L 314.682971 76.884826 
L 315.448042 76.884826 
L 315.631631 77.371049 
L 315.759457 77.371049 
L 315.922983 77.741718 
L 316.049538 77.741718 
L 316.22938 78.244227 
L 316.283116 78.244227 
L 316.42593 78.499135 
L 316.550319 78.499135 
L 316.69183 78.756542 
L 316.85021 78.756542 
L 316.990272 79.016498 
L 317.14704 79.016498 
L 317.268389 79.147447 
L 317.337505 79.147447 
L 317.458063 79.279053 
L 317.697691 79.279053 
L 317.884594 79.947163 
L 317.93536 79.947163 
L 318.05347 80.08285 
L 318.204624 80.08285 
L 318.338327 80.356345 
L 318.471418 80.356345 
L 318.587376 80.494168 
L 319.095414 80.494168 
L 319.208914 80.632719 
L 319.289716 80.632719 
L 319.434594 81.052813 
L 319.498754 81.052813 
L 319.642598 81.336656 
L 319.7381 81.336656 
L 319.896576 81.76826 
L 319.928168 81.76826 
L 320.054194 81.913719 
L 320.28903 81.913719 
L 320.413505 82.059989 
L 320.44454 82.059989 
L 320.568352 82.207078 
L 320.645468 82.207078 
L 320.76843 82.354995 
L 321.300356 82.354995 
L 321.435579 82.653354 
L 321.540319 82.653354 
L 321.674433 82.955143 
L 321.837515 82.955143 
L 321.970269 83.26044 
L 322.073104 83.26044 
L 322.219384 83.725148 
L 322.451912 83.725148 
L 322.596303 84.198229 
L 322.653859 84.198229 
L 322.768631 84.357836 
L 322.782946 84.357836 
L 322.897211 84.51842 
L 323.039414 84.51842 
L 323.166804 85.006148 
L 323.195037 85.006148 
L 323.307697 85.170759 
L 323.391907 85.170759 
L 323.517766 85.503109 
L 323.545661 85.503109 
L 323.684735 85.83972 
L 323.754023 85.83972 
L 323.878328 86.009658 
L 324.015824 86.009658 
L 324.166323 86.526172 
L 324.234475 86.526172 
L 324.383849 87.053052 
L 324.492005 87.053052 
L 324.626636 87.410273 
L 324.666904 87.410273 
L 324.814079 87.955385 
L 324.947231 87.955385 
L 325.092998 88.512055 
L 325.106213 88.512055 
L 325.224882 88.700266 
L 325.251187 88.700266 
L 325.369266 88.889836 
L 325.473825 88.889836 
L 325.591006 89.080784 
L 325.668865 89.080784 
L 325.785264 89.273132 
L 326.093404 89.273132 
L 326.220837 89.662106 
L 326.322384 89.662106 
L 326.436202 89.858776 
L 326.849762 89.858776 
L 326.973931 90.256591 
L 327.18381 90.256591 
L 327.318811 90.660527 
L 327.453188 90.660527 
L 327.599076 91.278327 
L 327.659647 91.278327 
L 327.792462 91.698421 
L 328.032401 91.698421 
L 328.151631 91.911016 
L 328.211064 91.911016 
L 328.353209 92.559328 
L 328.376832 92.559328 
L 328.494662 93.000604 
L 328.822068 93.000604 
L 328.938111 93.224054 
L 328.984399 93.224054 
L 329.099797 93.449423 
L 329.386305 93.449423 
L 329.51148 93.906049 
L 329.726431 93.906049 
L 329.838927 94.137374 
L 330.339845 94.137374 
L 330.460991 94.370756 
L 330.504919 94.370756 
L 330.62538 94.606231 
L 330.875652 94.606231 
L 331.005379 95.083614 
L 331.026944 95.083614 
L 331.145266 95.3256 
L 331.316516 95.3256 
L 331.444295 95.816367 
L 331.813809 95.816367 
L 331.928979 96.065235 
L 331.981179 96.065235 
L 332.106077 96.57016 
L 332.15796 96.57016 
L 332.282102 97.084986 
L 332.67176 97.084986 
L 332.783588 97.346235 
L 333.146593 97.346235 
L 333.276573 97.876663 
L 333.286547 97.876663 
L 333.415904 98.418029 
L 333.956904 98.418029 
L 334.083319 98.970792 
L 334.688282 98.970792 
L 334.802099 99.2516 
L 334.915473 99.2516 
L 335.028407 99.535444 
L 335.206326 99.535444 
L 335.327436 100.112507 
L 335.392441 100.112507 
L 335.51278 100.405865 
L 335.742811 100.405865 
L 335.861712 100.702539 
L 336.910493 100.702539 
L 337.024723 101.002602 
L 337.103544 101.002602 
L 337.22573 101.613218 
L 337.390738 101.613218 
L 337.511726 102.238374 
L 337.615032 102.238374 
L 337.726533 102.556624 
L 337.914259 102.556624 
L 338.041562 103.204936 
L 338.092328 103.204936 
L 338.218857 103.869663 
L 338.470273 103.869663 
L 338.611784 105.25184 
L 339.55943 105.25184 
L 339.67174 105.60906 
L 340.336644 105.60906 
L 340.461587 106.338421 
L 340.469378 106.338421 
L 340.601509 107.471919 
L 341.336596 107.471919 
L 341.449794 107.860894 
L 341.659924 107.860894 
L 341.771872 108.255718 
L 342.288673 108.255718 
L 342.40552 108.65657 
L 342.529158 108.65657 
L 342.652273 109.477115 
L 342.91844 109.477115 
L 343.032789 109.897209 
L 343.182193 109.897209 
L 343.295512 110.324134 
L 343.541867 110.324134 
L 343.653796 110.758115 
L 343.938661 110.758115 
L 344.055963 111.199391 
L 344.083494 111.199391 
L 344.200214 111.648211 
L 345.650357 111.648211 
L 345.773951 112.569544 
L 345.897022 112.569544 
L 346.02601 114.015155 
L 346.396873 114.015155 
L 346.511013 114.515271 
L 346.693969 114.515271 
L 346.806951 115.025099 
L 347.15567 115.025099 
L 347.266876 115.545023 
L 347.798458 115.545023 
L 347.919299 116.616817 
L 348.96159 116.616817 
L 349.077702 117.16958 
L 349.371708 117.16958 
L 349.486198 117.734232 
L 349.548975 117.734232 
L 349.662771 118.311295 
L 349.787433 118.311295 
L 349.900301 118.901326 
L 350.678343 118.901326 
L 350.793275 119.504923 
L 354.654559 119.504923 
L 354.769124 120.122723 
L 355.711289 120.122723 
L 355.826367 120.755412 
L 357.085065 120.755412 
L 357.199226 121.403724 
L 357.4436 121.403724 
L 357.556365 122.06845 
L 358.304193 122.06845 
L 358.417879 122.750445 
L 358.459872 122.750445 
L 358.572952 123.450628 
L 358.68143 123.450628 
L 358.801949 125.670707 
L 359.575398 125.670707 
L 359.692275 127.262425 
L 360.139306 127.262425 
L 360.253943 128.095997 
L 360.766231 128.095997 
L 360.878428 128.956903 
L 362.562489 128.956903 
L 362.678868 130.768332 
L 362.700638 130.768332 
L 362.812854 131.723175 
L 363.988264 131.723175 
L 364.102543 132.714059 
L 364.819433 132.714059 
L 364.933856 133.743811 
L 364.967425 133.743811 
L 365.081269 134.815604 
L 366.973315 134.815604 
L 367.085824 135.93302 
L 367.278574 135.93302 
L 367.38991 137.100114 
L 368.382158 137.100114 
L 368.4953 138.321511 
L 369.797016 138.321511 
L 369.910456 139.602512 
L 370.653782 139.602512 
L 370.766684 140.949232 
L 370.824342 140.949232 
L 370.936585 142.368784 
L 373.412893 142.368784 
L 373.525593 143.869495 
L 373.652794 143.869495 
L 373.76457 145.461213 
L 375.101833 145.461213 
L 375.215263 147.155691 
L 375.236481 147.155691 
L 375.351735 150.912847 
L 375.43144 150.912847 
L 375.543593 153.014392 
L 375.872869 153.014392 
L 375.985633 155.298902 
L 377.578833 155.298902 
L 377.691682 157.801299 
L 379.105773 157.801299 
L 379.216971 160.567571 
L 380.119481 160.567571 
L 380.230847 163.66 
L 380.50741 163.66 
L 380.619262 167.165907 
L 381.659983 167.165907 
L 381.771262 171.21318 
L 386.766351 171.21318 
L 386.878694 176.000087 
L 387.725362 176.000087 
L 387.837124 181.858788 
L 387.844764 181.858788 
L 387.956069 189.411967 
L 391.75806 189.411967 
L 391.87001 200.057576 
L 404.615393 200.057576 
L 404.72674 218.256364 
L 432.524466 218.256364 
L 432.524466 218.256364 
" style="fill:none;stroke:#ff0000;stroke-linecap:square;stroke-width:4;"/>
   </g>
   <g id="patch_3">
    <path d="M 101.284375 228.14 
L 101.284375 10.7 
" style="fill:none;stroke:#000000;stroke-linecap:square;stroke-linejoin:miter;stroke-width:0.8;"/>
   </g>
   <g id="patch_4">
    <path d="M 436.084375 228.14 
L 436.084375 10.7 
" style="fill:none;stroke:#000000;stroke-linecap:square;stroke-linejoin:miter;stroke-width:0.8;"/>
   </g>
   <g id="patch_5">
    <path d="M 101.284375 228.14 
L 436.084375 228.14 
" style="fill:none;stroke:#000000;stroke-linecap:square;stroke-linejoin:miter;stroke-width:0.8;"/>
   </g>
   <g id="patch_6">
    <path d="M 101.284375 10.7 
L 436.084375 10.7 
" style="fill:none;stroke:#000000;stroke-linecap:square;stroke-linejoin:miter;stroke-width:0.8;"/>
   </g>
  </g>
 </g>
 <defs>
  <clipPath id="pa78b27cf8c">
   <rect height="217.44" width="334.8" x="101.284375" y="10.7"/>
  </clipPath>
 </defs>
</svg>
