<?xml version="1.0" encoding="utf-8" standalone="no"?>
<!DOCTYPE svg PUBLIC "-//W3C//DTD SVG 1.1//EN"
  "http://www.w3.org/Graphics/SVG/1.1/DTD/svg11.dtd">
<!-- Created with matplotlib (https://matplotlib.org/) -->
<svg height="297.634062pt" version="1.1" viewBox="0 0 463.524375 297.634062" width="463.524375pt" xmlns="http://www.w3.org/2000/svg" xmlns:xlink="http://www.w3.org/1999/xlink">
 <defs>
  <style type="text/css">
*{stroke-linecap:butt;stroke-linejoin:round;}
  </style>
 </defs>
 <g id="figure_1">
  <g id="patch_1">
   <path d="M 0 297.634062 
L 463.524375 297.634062 
L 463.524375 0 
L 0 0 
z
" style="fill:#ffffff;"/>
  </g>
  <g id="axes_1">
   <g id="patch_2">
    <path d="M 101.284375 228.14 
L 436.084375 228.14 
L 436.084375 10.7 
L 101.284375 10.7 
z
" style="fill:#ffffff;"/>
   </g>
   <g id="matplotlib.axis_1">
    <g id="xtick_1">
     <g id="line2d_1">
      <defs>
       <path d="M 0 0 
L 0 3.5 
" id="m4dcd20b507" style="stroke:#000000;stroke-width:0.8;"/>
      </defs>
      <g>
       <use style="stroke:#000000;stroke-width:0.8;" x="101.284375" xlink:href="#m4dcd20b507" y="228.14"/>
      </g>
     </g>
     <g id="text_1">
      <!-- $\mathdefault{10^{0}}$ -->
      <defs>
       <path d="M 12.40625 8.296875 
L 28.515625 8.296875 
L 28.515625 63.921875 
L 10.984375 60.40625 
L 10.984375 69.390625 
L 28.421875 72.90625 
L 38.28125 72.90625 
L 38.28125 8.296875 
L 54.390625 8.296875 
L 54.390625 0 
L 12.40625 0 
z
" id="DejaVuSans-49"/>
       <path d="M 31.78125 66.40625 
Q 24.171875 66.40625 20.328125 58.90625 
Q 16.5 51.421875 16.5 36.375 
Q 16.5 21.390625 20.328125 13.890625 
Q 24.171875 6.390625 31.78125 6.390625 
Q 39.453125 6.390625 43.28125 13.890625 
Q 47.125 21.390625 47.125 36.375 
Q 47.125 51.421875 43.28125 58.90625 
Q 39.453125 66.40625 31.78125 66.40625 
z
M 31.78125 74.21875 
Q 44.046875 74.21875 50.515625 64.515625 
Q 56.984375 54.828125 56.984375 36.375 
Q 56.984375 17.96875 50.515625 8.265625 
Q 44.046875 -1.421875 31.78125 -1.421875 
Q 19.53125 -1.421875 13.0625 8.265625 
Q 6.59375 17.96875 6.59375 36.375 
Q 6.59375 54.828125 13.0625 64.515625 
Q 19.53125 74.21875 31.78125 74.21875 
z
" id="DejaVuSans-48"/>
      </defs>
      <g transform="translate(81.044375 252.616406)scale(0.23 -0.23)">
       <use transform="translate(0 0.765625)" xlink:href="#DejaVuSans-49"/>
       <use transform="translate(63.623047 0.765625)" xlink:href="#DejaVuSans-48"/>
       <use transform="translate(128.203125 39.046875)scale(0.7)" xlink:href="#DejaVuSans-48"/>
      </g>
     </g>
    </g>
    <g id="xtick_2">
     <g id="line2d_2">
      <g>
       <use style="stroke:#000000;stroke-width:0.8;" x="212.884375" xlink:href="#m4dcd20b507" y="228.14"/>
      </g>
     </g>
     <g id="text_2">
      <!-- $\mathdefault{10^{2}}$ -->
      <defs>
       <path d="M 19.1875 8.296875 
L 53.609375 8.296875 
L 53.609375 0 
L 7.328125 0 
L 7.328125 8.296875 
Q 12.9375 14.109375 22.625 23.890625 
Q 32.328125 33.6875 34.8125 36.53125 
Q 39.546875 41.84375 41.421875 45.53125 
Q 43.3125 49.21875 43.3125 52.78125 
Q 43.3125 58.59375 39.234375 62.25 
Q 35.15625 65.921875 28.609375 65.921875 
Q 23.96875 65.921875 18.8125 64.3125 
Q 13.671875 62.703125 7.8125 59.421875 
L 7.8125 69.390625 
Q 13.765625 71.78125 18.9375 73 
Q 24.125 74.21875 28.421875 74.21875 
Q 39.75 74.21875 46.484375 68.546875 
Q 53.21875 62.890625 53.21875 53.421875 
Q 53.21875 48.921875 51.53125 44.890625 
Q 49.859375 40.875 45.40625 35.40625 
Q 44.1875 33.984375 37.640625 27.21875 
Q 31.109375 20.453125 19.1875 8.296875 
z
" id="DejaVuSans-50"/>
      </defs>
      <g transform="translate(192.644375 252.616406)scale(0.23 -0.23)">
       <use transform="translate(0 0.765625)" xlink:href="#DejaVuSans-49"/>
       <use transform="translate(63.623047 0.765625)" xlink:href="#DejaVuSans-48"/>
       <use transform="translate(128.203125 39.046875)scale(0.7)" xlink:href="#DejaVuSans-50"/>
      </g>
     </g>
    </g>
    <g id="xtick_3">
     <g id="line2d_3">
      <g>
       <use style="stroke:#000000;stroke-width:0.8;" x="324.484375" xlink:href="#m4dcd20b507" y="228.14"/>
      </g>
     </g>
     <g id="text_3">
      <!-- $\mathdefault{10^{4}}$ -->
      <defs>
       <path d="M 37.796875 64.3125 
L 12.890625 25.390625 
L 37.796875 25.390625 
z
M 35.203125 72.90625 
L 47.609375 72.90625 
L 47.609375 25.390625 
L 58.015625 25.390625 
L 58.015625 17.1875 
L 47.609375 17.1875 
L 47.609375 0 
L 37.796875 0 
L 37.796875 17.1875 
L 4.890625 17.1875 
L 4.890625 26.703125 
z
" id="DejaVuSans-52"/>
      </defs>
      <g transform="translate(304.244375 252.616406)scale(0.23 -0.23)">
       <use transform="translate(0 0.684375)" xlink:href="#DejaVuSans-49"/>
       <use transform="translate(63.623047 0.684375)" xlink:href="#DejaVuSans-48"/>
       <use transform="translate(128.203125 38.965625)scale(0.7)" xlink:href="#DejaVuSans-52"/>
      </g>
     </g>
    </g>
    <g id="xtick_4">
     <g id="line2d_4">
      <g>
       <use style="stroke:#000000;stroke-width:0.8;" x="436.084375" xlink:href="#m4dcd20b507" y="228.14"/>
      </g>
     </g>
     <g id="text_4">
      <!-- $\mathdefault{10^{6}}$ -->
      <defs>
       <path d="M 33.015625 40.375 
Q 26.375 40.375 22.484375 35.828125 
Q 18.609375 31.296875 18.609375 23.390625 
Q 18.609375 15.53125 22.484375 10.953125 
Q 26.375 6.390625 33.015625 6.390625 
Q 39.65625 6.390625 43.53125 10.953125 
Q 47.40625 15.53125 47.40625 23.390625 
Q 47.40625 31.296875 43.53125 35.828125 
Q 39.65625 40.375 33.015625 40.375 
z
M 52.59375 71.296875 
L 52.59375 62.3125 
Q 48.875 64.0625 45.09375 64.984375 
Q 41.3125 65.921875 37.59375 65.921875 
Q 27.828125 65.921875 22.671875 59.328125 
Q 17.53125 52.734375 16.796875 39.40625 
Q 19.671875 43.65625 24.015625 45.921875 
Q 28.375 48.1875 33.59375 48.1875 
Q 44.578125 48.1875 50.953125 41.515625 
Q 57.328125 34.859375 57.328125 23.390625 
Q 57.328125 12.15625 50.6875 5.359375 
Q 44.046875 -1.421875 33.015625 -1.421875 
Q 20.359375 -1.421875 13.671875 8.265625 
Q 6.984375 17.96875 6.984375 36.375 
Q 6.984375 53.65625 15.1875 63.9375 
Q 23.390625 74.21875 37.203125 74.21875 
Q 40.921875 74.21875 44.703125 73.484375 
Q 48.484375 72.75 52.59375 71.296875 
z
" id="DejaVuSans-54"/>
      </defs>
      <g transform="translate(415.844375 252.616406)scale(0.23 -0.23)">
       <use transform="translate(0 0.765625)" xlink:href="#DejaVuSans-49"/>
       <use transform="translate(63.623047 0.765625)" xlink:href="#DejaVuSans-48"/>
       <use transform="translate(128.203125 39.046875)scale(0.7)" xlink:href="#DejaVuSans-54"/>
      </g>
     </g>
    </g>
    <g id="text_5">
     <!-- #users -->
     <defs>
      <path d="M 51.125 44 
L 36.921875 44 
L 32.8125 27.6875 
L 47.125 27.6875 
z
M 43.796875 71.78125 
L 38.71875 51.515625 
L 52.984375 51.515625 
L 58.109375 71.78125 
L 65.921875 71.78125 
L 60.890625 51.515625 
L 76.125 51.515625 
L 76.125 44 
L 58.984375 44 
L 54.984375 27.6875 
L 70.515625 27.6875 
L 70.515625 20.21875 
L 53.078125 20.21875 
L 48 0 
L 40.1875 0 
L 45.21875 20.21875 
L 30.90625 20.21875 
L 25.875 0 
L 18.015625 0 
L 23.09375 20.21875 
L 7.71875 20.21875 
L 7.71875 27.6875 
L 24.90625 27.6875 
L 29 44 
L 13.28125 44 
L 13.28125 51.515625 
L 30.90625 51.515625 
L 35.890625 71.78125 
z
" id="DejaVuSans-35"/>
      <path d="M 8.5 21.578125 
L 8.5 54.6875 
L 17.484375 54.6875 
L 17.484375 21.921875 
Q 17.484375 14.15625 20.5 10.265625 
Q 23.53125 6.390625 29.59375 6.390625 
Q 36.859375 6.390625 41.078125 11.03125 
Q 45.3125 15.671875 45.3125 23.6875 
L 45.3125 54.6875 
L 54.296875 54.6875 
L 54.296875 0 
L 45.3125 0 
L 45.3125 8.40625 
Q 42.046875 3.421875 37.71875 1 
Q 33.40625 -1.421875 27.6875 -1.421875 
Q 18.265625 -1.421875 13.375 4.4375 
Q 8.5 10.296875 8.5 21.578125 
z
M 31.109375 56 
z
" id="DejaVuSans-117"/>
      <path d="M 44.28125 53.078125 
L 44.28125 44.578125 
Q 40.484375 46.53125 36.375 47.5 
Q 32.28125 48.484375 27.875 48.484375 
Q 21.1875 48.484375 17.84375 46.4375 
Q 14.5 44.390625 14.5 40.28125 
Q 14.5 37.15625 16.890625 35.375 
Q 19.28125 33.59375 26.515625 31.984375 
L 29.59375 31.296875 
Q 39.15625 29.25 43.1875 25.515625 
Q 47.21875 21.78125 47.21875 15.09375 
Q 47.21875 7.46875 41.1875 3.015625 
Q 35.15625 -1.421875 24.609375 -1.421875 
Q 20.21875 -1.421875 15.453125 -0.5625 
Q 10.6875 0.296875 5.421875 2 
L 5.421875 11.28125 
Q 10.40625 8.6875 15.234375 7.390625 
Q 20.0625 6.109375 24.8125 6.109375 
Q 31.15625 6.109375 34.5625 8.28125 
Q 37.984375 10.453125 37.984375 14.40625 
Q 37.984375 18.0625 35.515625 20.015625 
Q 33.0625 21.96875 24.703125 23.78125 
L 21.578125 24.515625 
Q 13.234375 26.265625 9.515625 29.90625 
Q 5.8125 33.546875 5.8125 39.890625 
Q 5.8125 47.609375 11.28125 51.796875 
Q 16.75 56 26.8125 56 
Q 31.78125 56 36.171875 55.265625 
Q 40.578125 54.546875 44.28125 53.078125 
z
" id="DejaVuSans-115"/>
      <path d="M 56.203125 29.59375 
L 56.203125 25.203125 
L 14.890625 25.203125 
Q 15.484375 15.921875 20.484375 11.0625 
Q 25.484375 6.203125 34.421875 6.203125 
Q 39.59375 6.203125 44.453125 7.46875 
Q 49.3125 8.734375 54.109375 11.28125 
L 54.109375 2.78125 
Q 49.265625 0.734375 44.1875 -0.34375 
Q 39.109375 -1.421875 33.890625 -1.421875 
Q 20.796875 -1.421875 13.15625 6.1875 
Q 5.515625 13.8125 5.515625 26.8125 
Q 5.515625 40.234375 12.765625 48.109375 
Q 20.015625 56 32.328125 56 
Q 43.359375 56 49.78125 48.890625 
Q 56.203125 41.796875 56.203125 29.59375 
z
M 47.21875 32.234375 
Q 47.125 39.59375 43.09375 43.984375 
Q 39.0625 48.390625 32.421875 48.390625 
Q 24.90625 48.390625 20.390625 44.140625 
Q 15.875 39.890625 15.1875 32.171875 
z
" id="DejaVuSans-101"/>
      <path d="M 41.109375 46.296875 
Q 39.59375 47.171875 37.8125 47.578125 
Q 36.03125 48 33.890625 48 
Q 26.265625 48 22.1875 43.046875 
Q 18.109375 38.09375 18.109375 28.8125 
L 18.109375 0 
L 9.078125 0 
L 9.078125 54.6875 
L 18.109375 54.6875 
L 18.109375 46.1875 
Q 20.953125 51.171875 25.484375 53.578125 
Q 30.03125 56 36.53125 56 
Q 37.453125 56 38.578125 55.875 
Q 39.703125 55.765625 41.0625 55.515625 
z
" id="DejaVuSans-114"/>
     </defs>
     <g transform="translate(215.584375 284.195)scale(0.3 -0.3)">
      <use xlink:href="#DejaVuSans-35"/>
      <use x="83.789062" xlink:href="#DejaVuSans-117"/>
      <use x="147.167969" xlink:href="#DejaVuSans-115"/>
      <use x="199.267578" xlink:href="#DejaVuSans-101"/>
      <use x="260.791016" xlink:href="#DejaVuSans-114"/>
      <use x="301.904297" xlink:href="#DejaVuSans-115"/>
     </g>
    </g>
   </g>
   <g id="matplotlib.axis_2">
    <g id="ytick_1">
     <g id="line2d_5">
      <defs>
       <path d="M 0 0 
L -3.5 0 
" id="mbcfcdd143c" style="stroke:#000000;stroke-width:0.8;"/>
      </defs>
      <g>
       <use style="stroke:#000000;stroke-width:0.8;" x="101.284375" xlink:href="#mbcfcdd143c" y="202.039656"/>
      </g>
     </g>
     <g id="text_6">
      <!-- $\mathdefault{10^{-3}}$ -->
      <defs>
       <path d="M 10.59375 35.5 
L 73.1875 35.5 
L 73.1875 27.203125 
L 10.59375 27.203125 
z
" id="DejaVuSans-8722"/>
       <path d="M 40.578125 39.3125 
Q 47.65625 37.796875 51.625 33 
Q 55.609375 28.21875 55.609375 21.1875 
Q 55.609375 10.40625 48.1875 4.484375 
Q 40.765625 -1.421875 27.09375 -1.421875 
Q 22.515625 -1.421875 17.65625 -0.515625 
Q 12.796875 0.390625 7.625 2.203125 
L 7.625 11.71875 
Q 11.71875 9.328125 16.59375 8.109375 
Q 21.484375 6.890625 26.8125 6.890625 
Q 36.078125 6.890625 40.9375 10.546875 
Q 45.796875 14.203125 45.796875 21.1875 
Q 45.796875 27.640625 41.28125 31.265625 
Q 36.765625 34.90625 28.71875 34.90625 
L 20.21875 34.90625 
L 20.21875 43.015625 
L 29.109375 43.015625 
Q 36.375 43.015625 40.234375 45.921875 
Q 44.09375 48.828125 44.09375 54.296875 
Q 44.09375 59.90625 40.109375 62.90625 
Q 36.140625 65.921875 28.71875 65.921875 
Q 24.65625 65.921875 20.015625 65.03125 
Q 15.375 64.15625 9.8125 62.3125 
L 9.8125 71.09375 
Q 15.4375 72.65625 20.34375 73.4375 
Q 25.25 74.21875 29.59375 74.21875 
Q 40.828125 74.21875 47.359375 69.109375 
Q 53.90625 64.015625 53.90625 55.328125 
Q 53.90625 49.265625 50.4375 45.09375 
Q 46.96875 40.921875 40.578125 39.3125 
z
" id="DejaVuSans-51"/>
      </defs>
      <g transform="translate(40.234375 210.777859)scale(0.23 -0.23)">
       <use transform="translate(0 0.765625)" xlink:href="#DejaVuSans-49"/>
       <use transform="translate(63.623047 0.765625)" xlink:href="#DejaVuSans-48"/>
       <use transform="translate(128.203125 39.046875)scale(0.7)" xlink:href="#DejaVuSans-8722"/>
       <use transform="translate(186.855469 39.046875)scale(0.7)" xlink:href="#DejaVuSans-51"/>
      </g>
     </g>
    </g>
    <g id="ytick_2">
     <g id="line2d_6">
      <g>
       <use style="stroke:#000000;stroke-width:0.8;" x="101.284375" xlink:href="#mbcfcdd143c" y="141.554316"/>
      </g>
     </g>
     <g id="text_7">
      <!-- $\mathdefault{10^{-2}}$ -->
      <g transform="translate(40.234375 150.292519)scale(0.23 -0.23)">
       <use transform="translate(0 0.765625)" xlink:href="#DejaVuSans-49"/>
       <use transform="translate(63.623047 0.765625)" xlink:href="#DejaVuSans-48"/>
       <use transform="translate(128.203125 39.046875)scale(0.7)" xlink:href="#DejaVuSans-8722"/>
       <use transform="translate(186.855469 39.046875)scale(0.7)" xlink:href="#DejaVuSans-50"/>
      </g>
     </g>
    </g>
    <g id="ytick_3">
     <g id="line2d_7">
      <g>
       <use style="stroke:#000000;stroke-width:0.8;" x="101.284375" xlink:href="#mbcfcdd143c" y="81.068976"/>
      </g>
     </g>
     <g id="text_8">
      <!-- $\mathdefault{10^{-1}}$ -->
      <g transform="translate(40.234375 89.807179)scale(0.23 -0.23)">
       <use transform="translate(0 0.684375)" xlink:href="#DejaVuSans-49"/>
       <use transform="translate(63.623047 0.684375)" xlink:href="#DejaVuSans-48"/>
       <use transform="translate(128.203125 38.965625)scale(0.7)" xlink:href="#DejaVuSans-8722"/>
       <use transform="translate(186.855469 38.965625)scale(0.7)" xlink:href="#DejaVuSans-49"/>
      </g>
     </g>
    </g>
    <g id="ytick_4">
     <g id="line2d_8">
      <g>
       <use style="stroke:#000000;stroke-width:0.8;" x="101.284375" xlink:href="#mbcfcdd143c" y="20.583636"/>
      </g>
     </g>
     <g id="text_9">
      <!-- $\mathdefault{10^{0}}$ -->
      <g transform="translate(53.804375 29.321839)scale(0.23 -0.23)">
       <use transform="translate(0 0.765625)" xlink:href="#DejaVuSans-49"/>
       <use transform="translate(63.623047 0.765625)" xlink:href="#DejaVuSans-48"/>
       <use transform="translate(128.203125 39.046875)scale(0.7)" xlink:href="#DejaVuSans-48"/>
      </g>
     </g>
    </g>
    <g id="ytick_5">
     <g id="line2d_9">
      <defs>
       <path d="M 0 0 
L -2 0 
" id="m242de502e8" style="stroke:#000000;stroke-width:0.6;"/>
      </defs>
      <g>
       <use style="stroke:#000000;stroke-width:0.6;" x="101.284375" xlink:href="#m242de502e8" y="226.109192"/>
      </g>
     </g>
    </g>
    <g id="ytick_6">
     <g id="line2d_10">
      <g>
       <use style="stroke:#000000;stroke-width:0.6;" x="101.284375" xlink:href="#m242de502e8" y="220.247557"/>
      </g>
     </g>
    </g>
    <g id="ytick_7">
     <g id="line2d_11">
      <g>
       <use style="stroke:#000000;stroke-width:0.6;" x="101.284375" xlink:href="#m242de502e8" y="215.458253"/>
      </g>
     </g>
    </g>
    <g id="ytick_8">
     <g id="line2d_12">
      <g>
       <use style="stroke:#000000;stroke-width:0.6;" x="101.284375" xlink:href="#m242de502e8" y="211.408953"/>
      </g>
     </g>
    </g>
    <g id="ytick_9">
     <g id="line2d_13">
      <g>
       <use style="stroke:#000000;stroke-width:0.6;" x="101.284375" xlink:href="#m242de502e8" y="207.901291"/>
      </g>
     </g>
    </g>
    <g id="ytick_10">
     <g id="line2d_14">
      <g>
       <use style="stroke:#000000;stroke-width:0.6;" x="101.284375" xlink:href="#m242de502e8" y="204.807313"/>
      </g>
     </g>
    </g>
    <g id="ytick_11">
     <g id="line2d_15">
      <g>
       <use style="stroke:#000000;stroke-width:0.6;" x="101.284375" xlink:href="#m242de502e8" y="183.831754"/>
      </g>
     </g>
    </g>
    <g id="ytick_12">
     <g id="line2d_16">
      <g>
       <use style="stroke:#000000;stroke-width:0.6;" x="101.284375" xlink:href="#m242de502e8" y="173.180814"/>
      </g>
     </g>
    </g>
    <g id="ytick_13">
     <g id="line2d_17">
      <g>
       <use style="stroke:#000000;stroke-width:0.6;" x="101.284375" xlink:href="#m242de502e8" y="165.623852"/>
      </g>
     </g>
    </g>
    <g id="ytick_14">
     <g id="line2d_18">
      <g>
       <use style="stroke:#000000;stroke-width:0.6;" x="101.284375" xlink:href="#m242de502e8" y="159.762217"/>
      </g>
     </g>
    </g>
    <g id="ytick_15">
     <g id="line2d_19">
      <g>
       <use style="stroke:#000000;stroke-width:0.6;" x="101.284375" xlink:href="#m242de502e8" y="154.972913"/>
      </g>
     </g>
    </g>
    <g id="ytick_16">
     <g id="line2d_20">
      <g>
       <use style="stroke:#000000;stroke-width:0.6;" x="101.284375" xlink:href="#m242de502e8" y="150.923613"/>
      </g>
     </g>
    </g>
    <g id="ytick_17">
     <g id="line2d_21">
      <g>
       <use style="stroke:#000000;stroke-width:0.6;" x="101.284375" xlink:href="#m242de502e8" y="147.415951"/>
      </g>
     </g>
    </g>
    <g id="ytick_18">
     <g id="line2d_22">
      <g>
       <use style="stroke:#000000;stroke-width:0.6;" x="101.284375" xlink:href="#m242de502e8" y="144.321973"/>
      </g>
     </g>
    </g>
    <g id="ytick_19">
     <g id="line2d_23">
      <g>
       <use style="stroke:#000000;stroke-width:0.6;" x="101.284375" xlink:href="#m242de502e8" y="123.346414"/>
      </g>
     </g>
    </g>
    <g id="ytick_20">
     <g id="line2d_24">
      <g>
       <use style="stroke:#000000;stroke-width:0.6;" x="101.284375" xlink:href="#m242de502e8" y="112.695475"/>
      </g>
     </g>
    </g>
    <g id="ytick_21">
     <g id="line2d_25">
      <g>
       <use style="stroke:#000000;stroke-width:0.6;" x="101.284375" xlink:href="#m242de502e8" y="105.138513"/>
      </g>
     </g>
    </g>
    <g id="ytick_22">
     <g id="line2d_26">
      <g>
       <use style="stroke:#000000;stroke-width:0.6;" x="101.284375" xlink:href="#m242de502e8" y="99.276878"/>
      </g>
     </g>
    </g>
    <g id="ytick_23">
     <g id="line2d_27">
      <g>
       <use style="stroke:#000000;stroke-width:0.6;" x="101.284375" xlink:href="#m242de502e8" y="94.487573"/>
      </g>
     </g>
    </g>
    <g id="ytick_24">
     <g id="line2d_28">
      <g>
       <use style="stroke:#000000;stroke-width:0.6;" x="101.284375" xlink:href="#m242de502e8" y="90.438274"/>
      </g>
     </g>
    </g>
    <g id="ytick_25">
     <g id="line2d_29">
      <g>
       <use style="stroke:#000000;stroke-width:0.6;" x="101.284375" xlink:href="#m242de502e8" y="86.930611"/>
      </g>
     </g>
    </g>
    <g id="ytick_26">
     <g id="line2d_30">
      <g>
       <use style="stroke:#000000;stroke-width:0.6;" x="101.284375" xlink:href="#m242de502e8" y="83.836633"/>
      </g>
     </g>
    </g>
    <g id="ytick_27">
     <g id="line2d_31">
      <g>
       <use style="stroke:#000000;stroke-width:0.6;" x="101.284375" xlink:href="#m242de502e8" y="62.861075"/>
      </g>
     </g>
    </g>
    <g id="ytick_28">
     <g id="line2d_32">
      <g>
       <use style="stroke:#000000;stroke-width:0.6;" x="101.284375" xlink:href="#m242de502e8" y="52.210135"/>
      </g>
     </g>
    </g>
    <g id="ytick_29">
     <g id="line2d_33">
      <g>
       <use style="stroke:#000000;stroke-width:0.6;" x="101.284375" xlink:href="#m242de502e8" y="44.653173"/>
      </g>
     </g>
    </g>
    <g id="ytick_30">
     <g id="line2d_34">
      <g>
       <use style="stroke:#000000;stroke-width:0.6;" x="101.284375" xlink:href="#m242de502e8" y="38.791538"/>
      </g>
     </g>
    </g>
    <g id="ytick_31">
     <g id="line2d_35">
      <g>
       <use style="stroke:#000000;stroke-width:0.6;" x="101.284375" xlink:href="#m242de502e8" y="34.002233"/>
      </g>
     </g>
    </g>
    <g id="ytick_32">
     <g id="line2d_36">
      <g>
       <use style="stroke:#000000;stroke-width:0.6;" x="101.284375" xlink:href="#m242de502e8" y="29.952934"/>
      </g>
     </g>
    </g>
    <g id="ytick_33">
     <g id="line2d_37">
      <g>
       <use style="stroke:#000000;stroke-width:0.6;" x="101.284375" xlink:href="#m242de502e8" y="26.445271"/>
      </g>
     </g>
    </g>
    <g id="ytick_34">
     <g id="line2d_38">
      <g>
       <use style="stroke:#000000;stroke-width:0.6;" x="101.284375" xlink:href="#m242de502e8" y="23.351294"/>
      </g>
     </g>
    </g>
    <g id="text_10">
     <!-- ICDF -->
     <defs>
      <path d="M 9.8125 72.90625 
L 19.671875 72.90625 
L 19.671875 0 
L 9.8125 0 
z
" id="DejaVuSans-73"/>
      <path d="M 64.40625 67.28125 
L 64.40625 56.890625 
Q 59.421875 61.53125 53.78125 63.8125 
Q 48.140625 66.109375 41.796875 66.109375 
Q 29.296875 66.109375 22.65625 58.46875 
Q 16.015625 50.828125 16.015625 36.375 
Q 16.015625 21.96875 22.65625 14.328125 
Q 29.296875 6.6875 41.796875 6.6875 
Q 48.140625 6.6875 53.78125 8.984375 
Q 59.421875 11.28125 64.40625 15.921875 
L 64.40625 5.609375 
Q 59.234375 2.09375 53.4375 0.328125 
Q 47.65625 -1.421875 41.21875 -1.421875 
Q 24.65625 -1.421875 15.125 8.703125 
Q 5.609375 18.84375 5.609375 36.375 
Q 5.609375 53.953125 15.125 64.078125 
Q 24.65625 74.21875 41.21875 74.21875 
Q 47.75 74.21875 53.53125 72.484375 
Q 59.328125 70.75 64.40625 67.28125 
z
" id="DejaVuSans-67"/>
      <path d="M 19.671875 64.796875 
L 19.671875 8.109375 
L 31.59375 8.109375 
Q 46.6875 8.109375 53.6875 14.9375 
Q 60.6875 21.78125 60.6875 36.53125 
Q 60.6875 51.171875 53.6875 57.984375 
Q 46.6875 64.796875 31.59375 64.796875 
z
M 9.8125 72.90625 
L 30.078125 72.90625 
Q 51.265625 72.90625 61.171875 64.09375 
Q 71.09375 55.28125 71.09375 36.53125 
Q 71.09375 17.671875 61.125 8.828125 
Q 51.171875 0 30.078125 0 
L 9.8125 0 
z
" id="DejaVuSans-68"/>
      <path d="M 9.8125 72.90625 
L 51.703125 72.90625 
L 51.703125 64.59375 
L 19.671875 64.59375 
L 19.671875 43.109375 
L 48.578125 43.109375 
L 48.578125 34.8125 
L 19.671875 34.8125 
L 19.671875 0 
L 9.8125 0 
z
" id="DejaVuSans-70"/>
     </defs>
     <g transform="translate(29.995313 154.496562)rotate(-90)scale(0.3 -0.3)">
      <use xlink:href="#DejaVuSans-73"/>
      <use x="29.492188" xlink:href="#DejaVuSans-67"/>
      <use x="99.316406" xlink:href="#DejaVuSans-68"/>
      <use x="176.318359" xlink:href="#DejaVuSans-70"/>
     </g>
    </g>
   </g>
   <g id="line2d_39">
    <path clip-path="url(#p3696792f73)" d="M -1 20.583636 
L 165.238319 20.683004 
L 175.064212 20.868546 
L 181.154473 21.084275 
L 184.502358 21.24361 
L 191.277714 21.697916 
L 192.989034 21.861028 
L 196.086901 22.100106 
L 198.396613 22.326234 
L 199.683657 22.508549 
L 200.097917 22.554326 
L 200.505215 22.738237 
L 202.44494 22.923444 
L 204.240846 23.188077 
L 206.550557 23.471212 
L 207.777839 23.693558 
L 209.229389 23.917803 
L 209.786508 24.062977 
L 210.331107 24.127758 
L 210.863736 24.2741 
L 211.384909 24.339404 
L 211.89511 24.454078 
L 213.364265 24.751273 
L 214.52399 25.051869 
L 216.059666 25.441038 
L 216.481131 25.45809 
L 216.895391 25.732437 
L 217.703254 25.90537 
L 218.485051 26.237113 
L 219.428113 26.395728 
L 221.038319 26.805485 
L 222.055264 27.276518 
L 222.548169 27.386428 
L 223.031247 27.55216 
L 223.504884 27.756152 
L 224.27427 28.093412 
L 224.872662 28.244707 
L 225.311954 28.473295 
L 226.993574 28.975501 
L 227.396358 29.171243 
L 227.792557 29.24995 
L 228.053137 29.467619 
L 228.438826 29.627063 
L 228.818473 29.787482 
L 229.068306 29.948886 
L 232.210871 31.065102 
L 232.750618 31.277116 
L 233.278605 31.469403 
L 234.401205 32.032939 
L 234.894779 32.142712 
L 235.282525 32.341465 
L 236.501495 33.015052 
L 237.044061 33.289398 
L 237.487102 33.381488 
L 237.662075 33.450767 
L 237.922188 33.613133 
L 238.179538 33.683027 
L 238.434185 33.84684 
L 239.018156 34.106342 
L 239.345643 34.201345 
L 239.748874 34.296694 
L 240.145505 34.512502 
L 240.458201 34.730097 
L 244.458683 36.074937 
L 244.979857 36.357534 
L 245.426867 36.643205 
L 245.678647 36.721657 
L 245.927838 36.800344 
L 246.539831 37.197356 
L 247.077714 37.546355 
L 247.312994 37.627555 
L 248.512076 38.28636 
L 249.387426 39.019218 
L 250.180309 39.509692 
L 250.33582 39.65571 
L 251.838385 40.398225 
L 252.031869 40.488754 
L 252.650228 40.976916 
L 252.837362 41.100387 
L 253.253201 41.193373 
L 253.707028 41.380338 
L 253.930794 41.411628 
L 254.152512 41.631712 
L 254.415923 41.726601 
L 254.589954 41.981328 
L 254.762743 42.109623 
L 255.231659 42.335659 
L 255.441839 42.4006 
L 255.60868 42.498313 
L 255.774381 42.563657 
L 255.979926 42.727733 
L 256.345571 42.826673 
L 256.546347 42.859735 
L 256.86417 42.959174 
L 257.640956 43.495969 
L 257.717282 43.59785 
L 258.057807 44.009375 
L 258.356531 44.113271 
L 258.54138 44.252442 
L 258.797823 44.322305 
L 259.087616 44.639008 
L 259.231223 44.74543 
L 259.657008 45.031348 
L 260.006201 45.139375 
L 260.281978 45.284105 
L 260.384591 45.35677 
L 260.554652 45.466146 
L 260.689847 45.502706 
L 260.857787 45.686274 
L 260.924638 45.797034 
L 261.157177 46.057304 
L 261.354735 46.132143 
L 261.420231 46.207195 
L 261.777331 46.471582 
L 261.905891 46.547612 
L 262.033773 46.623863 
L 262.350557 46.662072 
L 262.569868 46.9311 
L 262.787211 47.047246 
L 262.971967 47.124964 
L 263.155324 47.320269 
L 263.276796 47.359505 
L 263.427785 47.477566 
L 263.904723 47.955187 
L 264.256366 48.035642 
L 264.487992 48.197294 
L 264.574284 48.237863 
L 264.745951 48.441654 
L 265.029389 48.523615 
L 265.225841 48.647037 
L 265.448424 48.729643 
L 265.614031 48.937299 
L 265.668982 49.020824 
L 265.914734 49.230805 
L 266.265366 49.315269 
L 266.398885 49.357604 
L 266.478644 49.400006 
L 266.637381 49.570305 
L 266.847424 49.65587 
L 266.977783 49.698757 
L 267.055663 49.741715 
L 267.184909 49.87101 
L 267.593925 49.957562 
L 267.745544 50.000945 
L 267.946238 50.087926 
L 268.268861 50.438762 
L 268.440819 50.527208 
L 268.611565 50.794348 
L 268.781116 50.884001 
L 268.925508 51.109483 
L 268.973448 51.154812 
L 269.116701 51.291272 
L 269.471173 51.382641 
L 269.658126 51.520292 
L 270.004822 51.612462 
L 270.414414 52.219582 
L 270.526972 52.314243 
L 270.683679 52.409247 
L 270.772774 52.504595 
L 271.016107 52.792735 
L 271.147812 52.889488 
L 271.300569 52.986599 
L 271.344037 53.035289 
L 271.495565 53.280104 
L 271.902144 53.378672 
L 272.17645 53.776687 
L 272.385362 53.87714 
L 272.571855 54.079206 
L 272.592488 54.079206 
L 272.715919 54.38525 
L 273.021775 54.488062 
L 273.143044 54.591278 
L 273.303799 54.694901 
L 273.423668 54.746866 
L 273.483382 54.851106 
L 273.661644 55.008246 
L 273.819006 55.113531 
L 274.053149 55.43194 
L 274.304277 55.53894 
L 274.457534 55.646377 
L 274.742303 55.754256 
L 274.892823 55.971352 
L 275.116865 56.080577 
L 275.320432 56.355641 
L 275.558828 56.466479 
L 275.704375 56.801825 
L 275.921071 56.858135 
L 276.046588 56.914566 
L 276.189244 56.971118 
L 276.348734 57.141508 
L 276.577272 57.198552 
L 276.716847 57.313011 
L 276.803675 57.370429 
L 276.924714 57.427972 
L 276.959186 57.485641 
L 277.096584 57.659413 
L 277.267244 57.892912 
L 277.453593 57.951613 
L 277.605001 58.128505 
L 277.621766 58.128505 
L 277.755469 58.306597 
L 277.822045 58.36623 
L 277.971175 58.666445 
L 278.217705 58.726901 
L 278.413138 59.03129 
L 278.574804 59.03129 
L 278.703365 59.215631 
L 278.735399 59.215631 
L 278.863113 59.339247 
L 279.05343 59.650858 
L 279.085005 59.713626 
L 279.242265 59.902835 
L 279.382931 59.966209 
L 279.569225 60.285392 
L 279.861293 60.349697 
L 280.028789 60.608501 
L 280.449993 60.673603 
L 280.613483 60.935634 
L 280.716951 61.001553 
L 280.849335 61.200306 
L 280.878656 61.200306 
L 281.010163 61.467672 
L 281.039289 61.467672 
L 281.169929 61.737787 
L 281.400453 61.805752 
L 281.543425 62.010708 
L 281.713885 62.079384 
L 281.869093 62.286495 
L 281.981351 62.355896 
L 282.107023 62.425482 
L 282.411504 62.495252 
L 282.534971 62.776201 
L 282.657811 62.84691 
L 282.807109 63.060187 
L 282.928581 63.131665 
L 283.076225 63.347276 
L 283.395268 63.419542 
L 283.553228 63.710608 
L 283.657965 63.783881 
L 283.788254 63.931044 
L 283.853137 64.004935 
L 283.99527 64.227866 
L 284.136574 64.302598 
L 284.302515 64.679483 
L 284.492584 64.755514 
L 284.681173 65.216375 
L 284.718716 65.293978 
L 284.880731 65.606701 
L 284.992264 65.685467 
L 285.164746 66.082879 
L 285.336009 66.163089 
L 285.469729 66.324245 
L 285.493963 66.324245 
L 285.614769 66.486397 
L 285.746963 66.567849 
L 285.890358 66.813734 
L 286.032909 66.813734 
L 286.186399 67.480905 
L 286.233432 67.565505 
L 286.420656 68.165463 
L 286.490493 68.252301 
L 286.618008 68.514551 
L 286.744856 68.69085 
L 286.790818 68.779445 
L 286.928185 69.047038 
L 287.144101 69.136844 
L 287.268232 69.317384 
L 287.380529 69.408122 
L 287.503457 69.499173 
L 287.879523 69.590542 
L 288.010871 69.774238 
L 288.119786 69.774238 
L 288.249842 70.14553 
L 288.432901 70.239179 
L 288.57196 70.522145 
L 288.763195 70.617149 
L 288.900377 70.904238 
L 288.994896 71.000636 
L 289.141197 71.389806 
L 289.317669 71.488006 
L 289.441468 71.884518 
L 289.595333 71.984588 
L 289.717725 72.18588 
L 289.76854 72.287108 
L 289.890063 72.388726 
L 290.131296 72.388726 
L 290.251017 72.695963 
L 290.439375 72.799179 
L 290.557588 72.902803 
L 290.976512 73.006836 
L 291.111358 73.321432 
L 291.274096 73.42714 
L 291.407301 73.746841 
L 291.652755 73.854279 
L 291.765208 73.962158 
L 292.016336 74.070481 
L 292.136327 74.179254 
L 292.191508 74.288478 
L 292.338046 74.729975 
L 292.429185 74.729975 
L 292.547154 74.841518 
L 292.583337 74.841518 
L 292.700561 74.953538 
L 292.888732 74.953538 
L 293.004491 75.066036 
L 293.146208 75.066036 
L 293.27832 75.406453 
L 293.444634 75.406453 
L 293.557774 75.520913 
L 293.722188 75.520913 
L 293.834042 75.635873 
L 294.005124 75.635873 
L 294.132647 75.867315 
L 294.410859 75.867315 
L 294.527929 75.983805 
L 294.602892 75.983805 
L 294.735588 76.336407 
L 294.760388 76.336407 
L 294.884008 76.574132 
L 295.007001 76.574132 
L 295.145643 77.056135 
L 295.2025 77.056135 
L 295.323891 77.300495 
L 295.548874 77.300495 
L 295.668546 77.547149 
L 295.700359 77.547149 
L 295.827196 77.796141 
L 295.866696 77.796141 
L 295.984813 77.921527 
L 296.234889 77.921527 
L 296.351229 78.047515 
L 296.420766 78.047515 
L 296.551572 78.429146 
L 296.582247 78.429146 
L 296.696936 78.557598 
L 296.704562 78.557598 
L 296.818675 78.686682 
L 296.894452 78.686682 
L 297.015205 78.946768 
L 297.33678 78.946768 
L 297.470135 79.341789 
L 297.632135 79.341789 
L 297.76388 79.742842 
L 297.996339 79.742842 
L 298.118931 80.013653 
L 298.219426 80.013653 
L 298.33377 80.150113 
L 298.52551 80.150113 
L 298.652498 80.563798 
L 298.701704 80.563798 
L 298.813799 80.703154 
L 299.119415 80.703154 
L 299.23647 80.843252 
L 299.257068 80.843252 
L 299.373461 80.984102 
L 299.414407 80.984102 
L 299.550399 81.555178 
L 299.577506 81.555178 
L 299.699113 81.84544 
L 299.77313 81.84544 
L 299.887076 81.991783 
L 300.186137 81.991783 
L 300.304736 82.286937 
L 300.317878 82.286937 
L 300.429297 82.435767 
L 300.46197 82.435767 
L 300.57923 82.585445 
L 300.71532 82.585445 
L 300.831363 82.735981 
L 300.908417 82.735981 
L 301.029922 83.039666 
L 301.099989 83.039666 
L 301.214209 83.192835 
L 301.397105 83.192835 
L 301.509936 83.346903 
L 301.516189 83.346903 
L 301.634691 83.814603 
L 301.888449 83.814603 
L 302.011276 84.131094 
L 302.345874 84.131094 
L 302.460397 84.290781 
L 302.782959 84.290781 
L 302.901345 84.613097 
L 303.007401 84.613097 
L 303.124698 84.939418 
L 303.565322 84.939418 
L 303.679956 85.104111 
L 303.697105 85.104111 
L 303.811119 85.269843 
L 303.822491 85.269843 
L 303.947231 85.773407 
L 304.00372 85.773407 
L 304.116304 85.94343 
L 304.300931 85.94343 
L 304.428784 86.460203 
L 304.578017 86.460203 
L 304.70442 86.987346 
L 304.731812 86.987346 
L 304.846521 87.165438 
L 304.879195 87.165438 
L 304.993211 87.344746 
L 305.009455 87.344746 
L 305.12286 87.525286 
L 305.321388 87.525286 
L 305.438665 87.890131 
L 305.881301 87.890131 
L 306.001102 88.260115 
L 306.24923 88.260115 
L 306.362112 88.44708 
L 306.397919 88.44708 
L 306.515199 88.82505 
L 306.55078 88.82505 
L 306.66227 89.016094 
L 307.516669 89.016094 
L 307.628671 89.208538 
L 307.633529 89.208538 
L 307.749827 89.597707 
L 308.109703 89.597707 
L 308.223744 89.794476 
L 308.252171 89.794476 
L 308.370257 90.19249 
L 308.576702 90.19249 
L 308.688571 90.393782 
L 308.716458 90.393782 
L 308.832309 90.801053 
L 309.03487 90.801053 
L 309.149213 91.007081 
L 309.565406 91.007081 
L 309.677278 91.214738 
L 309.819724 91.214738 
L 309.934849 91.424049 
L 310.009828 91.424049 
L 310.132819 92.06218 
L 310.14596 92.06218 
L 310.263907 92.49638 
L 310.303095 92.49638 
L 310.415951 92.716201 
L 310.567047 92.716201 
L 310.678684 92.937877 
L 311.145382 92.937877 
L 311.262757 93.386921 
L 311.279478 93.386921 
L 311.392048 93.614355 
L 311.396207 93.614355 
L 311.516515 94.308715 
L 311.718446 94.308715 
L 311.833084 94.544308 
L 312.125401 94.544308 
L 312.238135 94.782034 
L 313.778778 94.782034 
L 313.89535 95.264037 
L 314.056122 95.264037 
L 314.167661 95.508396 
L 314.768496 95.508396 
L 314.887616 96.255417 
L 315.11698 96.255417 
L 315.230854 96.50922 
L 315.26633 96.50922 
L 315.379505 96.7655 
L 315.418287 96.7655 
L 315.537769 97.549691 
L 315.565797 97.549691 
L 315.677585 97.816378 
L 315.944482 97.816378 
L 316.071693 99.192004 
L 316.313946 99.192004 
L 316.425724 99.47599 
L 316.65444 99.47599 
L 316.767993 99.763079 
L 316.811271 99.763079 
L 316.924093 100.053342 
L 317.016613 100.053342 
L 317.128486 100.346847 
L 317.144895 100.346847 
L 317.259444 100.943883 
L 318.122216 100.943883 
L 318.23852 101.554804 
L 318.70131 101.554804 
L 318.817936 102.180273 
L 318.970542 102.180273 
L 319.082854 102.498683 
L 319.326925 102.498683 
L 319.440586 102.820999 
L 319.592297 102.820999 
L 319.707675 103.477744 
L 320.676744 103.477744 
L 320.792729 104.151331 
L 320.902543 104.151331 
L 321.014658 104.494715 
L 321.877195 104.494715 
L 321.990273 104.842646 
L 322.70226 104.842646 
L 322.814158 105.195248 
L 323.585816 105.195248 
L 323.698723 105.552647 
L 323.796153 105.552647 
L 323.910568 106.282373 
L 325.179508 106.282373 
L 325.292277 106.654982 
L 325.388187 106.654982 
L 325.499992 107.032952 
L 325.564974 107.032952 
L 325.678275 107.416439 
L 326.037773 107.416439 
L 326.155677 108.601683 
L 326.185063 108.601683 
L 326.297757 109.008954 
L 326.523812 109.008954 
L 326.634945 109.422639 
L 327.174419 109.422639 
L 327.286932 109.842943 
L 327.54033 109.842943 
L 327.653288 110.270082 
L 327.721234 110.270082 
L 327.833354 110.704281 
L 328.181201 110.704281 
L 328.293288 111.145778 
L 328.43576 111.145778 
L 328.548728 112.051676 
L 329.089775 112.051676 
L 329.201737 112.516617 
L 329.348897 112.516617 
L 329.461644 112.989935 
L 330.025356 112.989935 
L 330.136925 113.471939 
L 330.213571 113.471939 
L 330.326184 113.962952 
L 330.377545 113.962952 
L 330.4894 114.463318 
L 330.519644 114.463318 
L 330.632727 115.493586 
L 330.875945 115.493586 
L 330.987381 116.02428 
L 331.131487 116.02428 
L 331.24359 116.565916 
L 331.357003 116.565916 
L 331.469887 117.118957 
L 332.008793 117.118957 
L 332.120457 117.683891 
L 332.20519 117.683891 
L 332.317709 118.261243 
L 332.638319 118.261243 
L 332.750572 118.85157 
L 333.315953 118.85157 
L 333.428468 119.455469 
L 333.719912 119.455469 
L 333.833867 120.706584 
L 334.117247 120.706584 
L 334.229354 121.355221 
L 334.429526 121.355221 
L 334.541801 122.02028 
L 335.349112 122.02028 
L 335.461838 123.40315 
L 335.697936 123.40315 
L 335.812092 124.862883 
L 335.81361 124.862883 
L 335.925712 125.624341 
L 336.146874 125.624341 
L 336.258939 126.408532 
L 336.852385 126.408532 
L 336.964138 127.216856 
L 337.346276 127.216856 
L 337.458617 128.050845 
L 337.465709 128.050845 
L 337.577499 128.912183 
L 338.284288 128.912183 
L 338.396469 129.802724 
L 338.429204 129.802724 
L 338.540717 130.724518 
L 339.183379 130.724518 
L 339.295429 131.67984 
L 340.158423 131.67984 
L 340.269854 132.67122 
L 340.829328 132.67122 
L 340.941409 133.701487 
L 343.624584 133.701487 
L 343.736528 134.773818 
L 343.963216 134.773818 
L 344.07469 135.891793 
L 344.169525 135.891793 
L 344.281127 137.059472 
L 345.591879 137.059472 
L 345.703191 138.28148 
L 346.130504 138.28148 
L 346.242338 139.563122 
L 346.992864 139.563122 
L 347.104608 140.910518 
L 347.183568 140.910518 
L 347.295384 142.33078 
L 348.508655 142.33078 
L 348.6208 145.424757 
L 348.702117 145.424757 
L 348.813372 147.120084 
L 349.575598 147.120084 
L 349.687207 148.93242 
L 349.826424 148.93242 
L 349.937734 150.879122 
L 350.220077 150.879122 
L 350.331266 152.981719 
L 350.859289 152.981719 
L 350.970839 155.267373 
L 351.392024 155.267373 
L 351.503538 157.771024 
L 352.501512 157.771024 
L 352.613361 160.538681 
L 354.401783 160.538681 
L 354.512937 163.632659 
L 356.715469 163.632659 
L 356.826732 167.140322 
L 358.082352 167.140322 
L 358.193557 171.189621 
L 358.721414 171.189621 
L 358.832668 175.978925 
L 362.359414 175.978925 
L 362.470863 181.840561 
L 365.674255 181.840561 
L 365.785595 189.397522 
L 366.521057 189.397522 
L 366.632413 200.048462 
L 375.157187 200.048462 
L 375.268322 218.256364 
L 386.581754 218.256364 
L 386.581754 218.256364 
" style="fill:none;stroke:#ff0000;stroke-linecap:square;stroke-width:4;"/>
   </g>
   <g id="patch_3">
    <path d="M 101.284375 228.14 
L 101.284375 10.7 
" style="fill:none;stroke:#000000;stroke-linecap:square;stroke-linejoin:miter;stroke-width:0.8;"/>
   </g>
   <g id="patch_4">
    <path d="M 436.084375 228.14 
L 436.084375 10.7 
" style="fill:none;stroke:#000000;stroke-linecap:square;stroke-linejoin:miter;stroke-width:0.8;"/>
   </g>
   <g id="patch_5">
    <path d="M 101.284375 228.14 
L 436.084375 228.14 
" style="fill:none;stroke:#000000;stroke-linecap:square;stroke-linejoin:miter;stroke-width:0.8;"/>
   </g>
   <g id="patch_6">
    <path d="M 101.284375 10.7 
L 436.084375 10.7 
" style="fill:none;stroke:#000000;stroke-linecap:square;stroke-linejoin:miter;stroke-width:0.8;"/>
   </g>
  </g>
 </g>
 <defs>
  <clipPath id="p3696792f73">
   <rect height="217.44" width="334.8" x="101.284375" y="10.7"/>
  </clipPath>
 </defs>
</svg>
