<?xml version="1.0" encoding="utf-8" standalone="no"?>
<!DOCTYPE svg PUBLIC "-//W3C//DTD SVG 1.1//EN"
  "http://www.w3.org/Graphics/SVG/1.1/DTD/svg11.dtd">
<!-- Created with matplotlib (https://matplotlib.org/) -->
<svg height="297.634062pt" version="1.1" viewBox="0 0 446.784375 297.634062" width="446.784375pt" xmlns="http://www.w3.org/2000/svg" xmlns:xlink="http://www.w3.org/1999/xlink">
 <defs>
  <style type="text/css">
*{stroke-linecap:butt;stroke-linejoin:round;}
  </style>
 </defs>
 <g id="figure_1">
  <g id="patch_1">
   <path d="M 0 297.634062 
L 446.784375 297.634062 
L 446.784375 0 
L 0 0 
z
" style="fill:#ffffff;"/>
  </g>
  <g id="axes_1">
   <g id="patch_2">
    <path d="M 101.284375 228.14 
L 436.084375 228.14 
L 436.084375 10.7 
L 101.284375 10.7 
z
" style="fill:#ffffff;"/>
   </g>
   <g id="matplotlib.axis_1">
    <g id="xtick_1">
     <g id="line2d_1">
      <defs>
       <path d="M 0 0 
L 0 3.5 
" id="m3de5eaa408" style="stroke:#000000;stroke-width:0.8;"/>
      </defs>
      <g>
       <use style="stroke:#000000;stroke-width:0.8;" x="101.284375" xlink:href="#m3de5eaa408" y="228.14"/>
      </g>
     </g>
     <g id="text_1">
      <!-- $\mathdefault{10^{0}}$ -->
      <defs>
       <path d="M 12.40625 8.296875 
L 28.515625 8.296875 
L 28.515625 63.921875 
L 10.984375 60.40625 
L 10.984375 69.390625 
L 28.421875 72.90625 
L 38.28125 72.90625 
L 38.28125 8.296875 
L 54.390625 8.296875 
L 54.390625 0 
L 12.40625 0 
z
" id="DejaVuSans-49"/>
       <path d="M 31.78125 66.40625 
Q 24.171875 66.40625 20.328125 58.90625 
Q 16.5 51.421875 16.5 36.375 
Q 16.5 21.390625 20.328125 13.890625 
Q 24.171875 6.390625 31.78125 6.390625 
Q 39.453125 6.390625 43.28125 13.890625 
Q 47.125 21.390625 47.125 36.375 
Q 47.125 51.421875 43.28125 58.90625 
Q 39.453125 66.40625 31.78125 66.40625 
z
M 31.78125 74.21875 
Q 44.046875 74.21875 50.515625 64.515625 
Q 56.984375 54.828125 56.984375 36.375 
Q 56.984375 17.96875 50.515625 8.265625 
Q 44.046875 -1.421875 31.78125 -1.421875 
Q 19.53125 -1.421875 13.0625 8.265625 
Q 6.59375 17.96875 6.59375 36.375 
Q 6.59375 54.828125 13.0625 64.515625 
Q 19.53125 74.21875 31.78125 74.21875 
z
" id="DejaVuSans-48"/>
      </defs>
      <g transform="translate(81.044375 252.616406)scale(0.23 -0.23)">
       <use transform="translate(0 0.765625)" xlink:href="#DejaVuSans-49"/>
       <use transform="translate(63.623047 0.765625)" xlink:href="#DejaVuSans-48"/>
       <use transform="translate(128.203125 39.046875)scale(0.7)" xlink:href="#DejaVuSans-48"/>
      </g>
     </g>
    </g>
    <g id="xtick_2">
     <g id="line2d_2">
      <g>
       <use style="stroke:#000000;stroke-width:0.8;" x="196.941518" xlink:href="#m3de5eaa408" y="228.14"/>
      </g>
     </g>
     <g id="text_2">
      <!-- $\mathdefault{10^{2}}$ -->
      <defs>
       <path d="M 19.1875 8.296875 
L 53.609375 8.296875 
L 53.609375 0 
L 7.328125 0 
L 7.328125 8.296875 
Q 12.9375 14.109375 22.625 23.890625 
Q 32.328125 33.6875 34.8125 36.53125 
Q 39.546875 41.84375 41.421875 45.53125 
Q 43.3125 49.21875 43.3125 52.78125 
Q 43.3125 58.59375 39.234375 62.25 
Q 35.15625 65.921875 28.609375 65.921875 
Q 23.96875 65.921875 18.8125 64.3125 
Q 13.671875 62.703125 7.8125 59.421875 
L 7.8125 69.390625 
Q 13.765625 71.78125 18.9375 73 
Q 24.125 74.21875 28.421875 74.21875 
Q 39.75 74.21875 46.484375 68.546875 
Q 53.21875 62.890625 53.21875 53.421875 
Q 53.21875 48.921875 51.53125 44.890625 
Q 49.859375 40.875 45.40625 35.40625 
Q 44.1875 33.984375 37.640625 27.21875 
Q 31.109375 20.453125 19.1875 8.296875 
z
" id="DejaVuSans-50"/>
      </defs>
      <g transform="translate(176.701518 252.616406)scale(0.23 -0.23)">
       <use transform="translate(0 0.765625)" xlink:href="#DejaVuSans-49"/>
       <use transform="translate(63.623047 0.765625)" xlink:href="#DejaVuSans-48"/>
       <use transform="translate(128.203125 39.046875)scale(0.7)" xlink:href="#DejaVuSans-50"/>
      </g>
     </g>
    </g>
    <g id="xtick_3">
     <g id="line2d_3">
      <g>
       <use style="stroke:#000000;stroke-width:0.8;" x="292.598661" xlink:href="#m3de5eaa408" y="228.14"/>
      </g>
     </g>
     <g id="text_3">
      <!-- $\mathdefault{10^{4}}$ -->
      <defs>
       <path d="M 37.796875 64.3125 
L 12.890625 25.390625 
L 37.796875 25.390625 
z
M 35.203125 72.90625 
L 47.609375 72.90625 
L 47.609375 25.390625 
L 58.015625 25.390625 
L 58.015625 17.1875 
L 47.609375 17.1875 
L 47.609375 0 
L 37.796875 0 
L 37.796875 17.1875 
L 4.890625 17.1875 
L 4.890625 26.703125 
z
" id="DejaVuSans-52"/>
      </defs>
      <g transform="translate(272.358661 252.616406)scale(0.23 -0.23)">
       <use transform="translate(0 0.684375)" xlink:href="#DejaVuSans-49"/>
       <use transform="translate(63.623047 0.684375)" xlink:href="#DejaVuSans-48"/>
       <use transform="translate(128.203125 38.965625)scale(0.7)" xlink:href="#DejaVuSans-52"/>
      </g>
     </g>
    </g>
    <g id="xtick_4">
     <g id="line2d_4">
      <g>
       <use style="stroke:#000000;stroke-width:0.8;" x="388.255804" xlink:href="#m3de5eaa408" y="228.14"/>
      </g>
     </g>
     <g id="text_4">
      <!-- $\mathdefault{10^{6}}$ -->
      <defs>
       <path d="M 33.015625 40.375 
Q 26.375 40.375 22.484375 35.828125 
Q 18.609375 31.296875 18.609375 23.390625 
Q 18.609375 15.53125 22.484375 10.953125 
Q 26.375 6.390625 33.015625 6.390625 
Q 39.65625 6.390625 43.53125 10.953125 
Q 47.40625 15.53125 47.40625 23.390625 
Q 47.40625 31.296875 43.53125 35.828125 
Q 39.65625 40.375 33.015625 40.375 
z
M 52.59375 71.296875 
L 52.59375 62.3125 
Q 48.875 64.0625 45.09375 64.984375 
Q 41.3125 65.921875 37.59375 65.921875 
Q 27.828125 65.921875 22.671875 59.328125 
Q 17.53125 52.734375 16.796875 39.40625 
Q 19.671875 43.65625 24.015625 45.921875 
Q 28.375 48.1875 33.59375 48.1875 
Q 44.578125 48.1875 50.953125 41.515625 
Q 57.328125 34.859375 57.328125 23.390625 
Q 57.328125 12.15625 50.6875 5.359375 
Q 44.046875 -1.421875 33.015625 -1.421875 
Q 20.359375 -1.421875 13.671875 8.265625 
Q 6.984375 17.96875 6.984375 36.375 
Q 6.984375 53.65625 15.1875 63.9375 
Q 23.390625 74.21875 37.203125 74.21875 
Q 40.921875 74.21875 44.703125 73.484375 
Q 48.484375 72.75 52.59375 71.296875 
z
" id="DejaVuSans-54"/>
      </defs>
      <g transform="translate(368.015804 252.616406)scale(0.23 -0.23)">
       <use transform="translate(0 0.765625)" xlink:href="#DejaVuSans-49"/>
       <use transform="translate(63.623047 0.765625)" xlink:href="#DejaVuSans-48"/>
       <use transform="translate(128.203125 39.046875)scale(0.7)" xlink:href="#DejaVuSans-54"/>
      </g>
     </g>
    </g>
    <g id="text_5">
     <!-- #updates -->
     <defs>
      <path d="M 51.125 44 
L 36.921875 44 
L 32.8125 27.6875 
L 47.125 27.6875 
z
M 43.796875 71.78125 
L 38.71875 51.515625 
L 52.984375 51.515625 
L 58.109375 71.78125 
L 65.921875 71.78125 
L 60.890625 51.515625 
L 76.125 51.515625 
L 76.125 44 
L 58.984375 44 
L 54.984375 27.6875 
L 70.515625 27.6875 
L 70.515625 20.21875 
L 53.078125 20.21875 
L 48 0 
L 40.1875 0 
L 45.21875 20.21875 
L 30.90625 20.21875 
L 25.875 0 
L 18.015625 0 
L 23.09375 20.21875 
L 7.71875 20.21875 
L 7.71875 27.6875 
L 24.90625 27.6875 
L 29 44 
L 13.28125 44 
L 13.28125 51.515625 
L 30.90625 51.515625 
L 35.890625 71.78125 
z
" id="DejaVuSans-35"/>
      <path d="M 8.5 21.578125 
L 8.5 54.6875 
L 17.484375 54.6875 
L 17.484375 21.921875 
Q 17.484375 14.15625 20.5 10.265625 
Q 23.53125 6.390625 29.59375 6.390625 
Q 36.859375 6.390625 41.078125 11.03125 
Q 45.3125 15.671875 45.3125 23.6875 
L 45.3125 54.6875 
L 54.296875 54.6875 
L 54.296875 0 
L 45.3125 0 
L 45.3125 8.40625 
Q 42.046875 3.421875 37.71875 1 
Q 33.40625 -1.421875 27.6875 -1.421875 
Q 18.265625 -1.421875 13.375 4.4375 
Q 8.5 10.296875 8.5 21.578125 
z
M 31.109375 56 
z
" id="DejaVuSans-117"/>
      <path d="M 18.109375 8.203125 
L 18.109375 -20.796875 
L 9.078125 -20.796875 
L 9.078125 54.6875 
L 18.109375 54.6875 
L 18.109375 46.390625 
Q 20.953125 51.265625 25.265625 53.625 
Q 29.59375 56 35.59375 56 
Q 45.5625 56 51.78125 48.09375 
Q 58.015625 40.1875 58.015625 27.296875 
Q 58.015625 14.40625 51.78125 6.484375 
Q 45.5625 -1.421875 35.59375 -1.421875 
Q 29.59375 -1.421875 25.265625 0.953125 
Q 20.953125 3.328125 18.109375 8.203125 
z
M 48.6875 27.296875 
Q 48.6875 37.203125 44.609375 42.84375 
Q 40.53125 48.484375 33.40625 48.484375 
Q 26.265625 48.484375 22.1875 42.84375 
Q 18.109375 37.203125 18.109375 27.296875 
Q 18.109375 17.390625 22.1875 11.75 
Q 26.265625 6.109375 33.40625 6.109375 
Q 40.53125 6.109375 44.609375 11.75 
Q 48.6875 17.390625 48.6875 27.296875 
z
" id="DejaVuSans-112"/>
      <path d="M 45.40625 46.390625 
L 45.40625 75.984375 
L 54.390625 75.984375 
L 54.390625 0 
L 45.40625 0 
L 45.40625 8.203125 
Q 42.578125 3.328125 38.25 0.953125 
Q 33.9375 -1.421875 27.875 -1.421875 
Q 17.96875 -1.421875 11.734375 6.484375 
Q 5.515625 14.40625 5.515625 27.296875 
Q 5.515625 40.1875 11.734375 48.09375 
Q 17.96875 56 27.875 56 
Q 33.9375 56 38.25 53.625 
Q 42.578125 51.265625 45.40625 46.390625 
z
M 14.796875 27.296875 
Q 14.796875 17.390625 18.875 11.75 
Q 22.953125 6.109375 30.078125 6.109375 
Q 37.203125 6.109375 41.296875 11.75 
Q 45.40625 17.390625 45.40625 27.296875 
Q 45.40625 37.203125 41.296875 42.84375 
Q 37.203125 48.484375 30.078125 48.484375 
Q 22.953125 48.484375 18.875 42.84375 
Q 14.796875 37.203125 14.796875 27.296875 
z
" id="DejaVuSans-100"/>
      <path d="M 34.28125 27.484375 
Q 23.390625 27.484375 19.1875 25 
Q 14.984375 22.515625 14.984375 16.5 
Q 14.984375 11.71875 18.140625 8.90625 
Q 21.296875 6.109375 26.703125 6.109375 
Q 34.1875 6.109375 38.703125 11.40625 
Q 43.21875 16.703125 43.21875 25.484375 
L 43.21875 27.484375 
z
M 52.203125 31.203125 
L 52.203125 0 
L 43.21875 0 
L 43.21875 8.296875 
Q 40.140625 3.328125 35.546875 0.953125 
Q 30.953125 -1.421875 24.3125 -1.421875 
Q 15.921875 -1.421875 10.953125 3.296875 
Q 6 8.015625 6 15.921875 
Q 6 25.140625 12.171875 29.828125 
Q 18.359375 34.515625 30.609375 34.515625 
L 43.21875 34.515625 
L 43.21875 35.40625 
Q 43.21875 41.609375 39.140625 45 
Q 35.0625 48.390625 27.6875 48.390625 
Q 23 48.390625 18.546875 47.265625 
Q 14.109375 46.140625 10.015625 43.890625 
L 10.015625 52.203125 
Q 14.9375 54.109375 19.578125 55.046875 
Q 24.21875 56 28.609375 56 
Q 40.484375 56 46.34375 49.84375 
Q 52.203125 43.703125 52.203125 31.203125 
z
" id="DejaVuSans-97"/>
      <path d="M 18.3125 70.21875 
L 18.3125 54.6875 
L 36.8125 54.6875 
L 36.8125 47.703125 
L 18.3125 47.703125 
L 18.3125 18.015625 
Q 18.3125 11.328125 20.140625 9.421875 
Q 21.96875 7.515625 27.59375 7.515625 
L 36.8125 7.515625 
L 36.8125 0 
L 27.59375 0 
Q 17.1875 0 13.234375 3.875 
Q 9.28125 7.765625 9.28125 18.015625 
L 9.28125 47.703125 
L 2.6875 47.703125 
L 2.6875 54.6875 
L 9.28125 54.6875 
L 9.28125 70.21875 
z
" id="DejaVuSans-116"/>
      <path d="M 56.203125 29.59375 
L 56.203125 25.203125 
L 14.890625 25.203125 
Q 15.484375 15.921875 20.484375 11.0625 
Q 25.484375 6.203125 34.421875 6.203125 
Q 39.59375 6.203125 44.453125 7.46875 
Q 49.3125 8.734375 54.109375 11.28125 
L 54.109375 2.78125 
Q 49.265625 0.734375 44.1875 -0.34375 
Q 39.109375 -1.421875 33.890625 -1.421875 
Q 20.796875 -1.421875 13.15625 6.1875 
Q 5.515625 13.8125 5.515625 26.8125 
Q 5.515625 40.234375 12.765625 48.109375 
Q 20.015625 56 32.328125 56 
Q 43.359375 56 49.78125 48.890625 
Q 56.203125 41.796875 56.203125 29.59375 
z
M 47.21875 32.234375 
Q 47.125 39.59375 43.09375 43.984375 
Q 39.0625 48.390625 32.421875 48.390625 
Q 24.90625 48.390625 20.390625 44.140625 
Q 15.875 39.890625 15.1875 32.171875 
z
" id="DejaVuSans-101"/>
      <path d="M 44.28125 53.078125 
L 44.28125 44.578125 
Q 40.484375 46.53125 36.375 47.5 
Q 32.28125 48.484375 27.875 48.484375 
Q 21.1875 48.484375 17.84375 46.4375 
Q 14.5 44.390625 14.5 40.28125 
Q 14.5 37.15625 16.890625 35.375 
Q 19.28125 33.59375 26.515625 31.984375 
L 29.59375 31.296875 
Q 39.15625 29.25 43.1875 25.515625 
Q 47.21875 21.78125 47.21875 15.09375 
Q 47.21875 7.46875 41.1875 3.015625 
Q 35.15625 -1.421875 24.609375 -1.421875 
Q 20.21875 -1.421875 15.453125 -0.5625 
Q 10.6875 0.296875 5.421875 2 
L 5.421875 11.28125 
Q 10.40625 8.6875 15.234375 7.390625 
Q 20.0625 6.109375 24.8125 6.109375 
Q 31.15625 6.109375 34.5625 8.28125 
Q 37.984375 10.453125 37.984375 14.40625 
Q 37.984375 18.0625 35.515625 20.015625 
Q 33.0625 21.96875 24.703125 23.78125 
L 21.578125 24.515625 
Q 13.234375 26.265625 9.515625 29.90625 
Q 5.8125 33.546875 5.8125 39.890625 
Q 5.8125 47.609375 11.28125 51.796875 
Q 16.75 56 26.8125 56 
Q 31.78125 56 36.171875 55.265625 
Q 40.578125 54.546875 44.28125 53.078125 
z
" id="DejaVuSans-115"/>
     </defs>
     <g transform="translate(195.446875 284.195)scale(0.3 -0.3)">
      <use xlink:href="#DejaVuSans-35"/>
      <use x="83.789062" xlink:href="#DejaVuSans-117"/>
      <use x="147.167969" xlink:href="#DejaVuSans-112"/>
      <use x="210.644531" xlink:href="#DejaVuSans-100"/>
      <use x="274.121094" xlink:href="#DejaVuSans-97"/>
      <use x="335.400391" xlink:href="#DejaVuSans-116"/>
      <use x="374.609375" xlink:href="#DejaVuSans-101"/>
      <use x="436.132812" xlink:href="#DejaVuSans-115"/>
     </g>
    </g>
   </g>
   <g id="matplotlib.axis_2">
    <g id="ytick_1">
     <g id="line2d_5">
      <defs>
       <path d="M 0 0 
L -3.5 0 
" id="m71505eeb2b" style="stroke:#000000;stroke-width:0.8;"/>
      </defs>
      <g>
       <use style="stroke:#000000;stroke-width:0.8;" x="101.284375" xlink:href="#m71505eeb2b" y="209.093663"/>
      </g>
     </g>
     <g id="text_6">
      <!-- $\mathdefault{10^{-3}}$ -->
      <defs>
       <path d="M 10.59375 35.5 
L 73.1875 35.5 
L 73.1875 27.203125 
L 10.59375 27.203125 
z
" id="DejaVuSans-8722"/>
       <path d="M 40.578125 39.3125 
Q 47.65625 37.796875 51.625 33 
Q 55.609375 28.21875 55.609375 21.1875 
Q 55.609375 10.40625 48.1875 4.484375 
Q 40.765625 -1.421875 27.09375 -1.421875 
Q 22.515625 -1.421875 17.65625 -0.515625 
Q 12.796875 0.390625 7.625 2.203125 
L 7.625 11.71875 
Q 11.71875 9.328125 16.59375 8.109375 
Q 21.484375 6.890625 26.8125 6.890625 
Q 36.078125 6.890625 40.9375 10.546875 
Q 45.796875 14.203125 45.796875 21.1875 
Q 45.796875 27.640625 41.28125 31.265625 
Q 36.765625 34.90625 28.71875 34.90625 
L 20.21875 34.90625 
L 20.21875 43.015625 
L 29.109375 43.015625 
Q 36.375 43.015625 40.234375 45.921875 
Q 44.09375 48.828125 44.09375 54.296875 
Q 44.09375 59.90625 40.109375 62.90625 
Q 36.140625 65.921875 28.71875 65.921875 
Q 24.65625 65.921875 20.015625 65.03125 
Q 15.375 64.15625 9.8125 62.3125 
L 9.8125 71.09375 
Q 15.4375 72.65625 20.34375 73.4375 
Q 25.25 74.21875 29.59375 74.21875 
Q 40.828125 74.21875 47.359375 69.109375 
Q 53.90625 64.015625 53.90625 55.328125 
Q 53.90625 49.265625 50.4375 45.09375 
Q 46.96875 40.921875 40.578125 39.3125 
z
" id="DejaVuSans-51"/>
      </defs>
      <g transform="translate(40.234375 217.831866)scale(0.23 -0.23)">
       <use transform="translate(0 0.765625)" xlink:href="#DejaVuSans-49"/>
       <use transform="translate(63.623047 0.765625)" xlink:href="#DejaVuSans-48"/>
       <use transform="translate(128.203125 39.046875)scale(0.7)" xlink:href="#DejaVuSans-8722"/>
       <use transform="translate(186.855469 39.046875)scale(0.7)" xlink:href="#DejaVuSans-51"/>
      </g>
     </g>
    </g>
    <g id="ytick_2">
     <g id="line2d_6">
      <g>
       <use style="stroke:#000000;stroke-width:0.8;" x="101.284375" xlink:href="#m71505eeb2b" y="146.256988"/>
      </g>
     </g>
     <g id="text_7">
      <!-- $\mathdefault{10^{-2}}$ -->
      <g transform="translate(40.234375 154.995191)scale(0.23 -0.23)">
       <use transform="translate(0 0.765625)" xlink:href="#DejaVuSans-49"/>
       <use transform="translate(63.623047 0.765625)" xlink:href="#DejaVuSans-48"/>
       <use transform="translate(128.203125 39.046875)scale(0.7)" xlink:href="#DejaVuSans-8722"/>
       <use transform="translate(186.855469 39.046875)scale(0.7)" xlink:href="#DejaVuSans-50"/>
      </g>
     </g>
    </g>
    <g id="ytick_3">
     <g id="line2d_7">
      <g>
       <use style="stroke:#000000;stroke-width:0.8;" x="101.284375" xlink:href="#m71505eeb2b" y="83.420312"/>
      </g>
     </g>
     <g id="text_8">
      <!-- $\mathdefault{10^{-1}}$ -->
      <g transform="translate(40.234375 92.158515)scale(0.23 -0.23)">
       <use transform="translate(0 0.684375)" xlink:href="#DejaVuSans-49"/>
       <use transform="translate(63.623047 0.684375)" xlink:href="#DejaVuSans-48"/>
       <use transform="translate(128.203125 38.965625)scale(0.7)" xlink:href="#DejaVuSans-8722"/>
       <use transform="translate(186.855469 38.965625)scale(0.7)" xlink:href="#DejaVuSans-49"/>
      </g>
     </g>
    </g>
    <g id="ytick_4">
     <g id="line2d_8">
      <g>
       <use style="stroke:#000000;stroke-width:0.8;" x="101.284375" xlink:href="#m71505eeb2b" y="20.583636"/>
      </g>
     </g>
     <g id="text_9">
      <!-- $\mathdefault{10^{0}}$ -->
      <g transform="translate(53.804375 29.321839)scale(0.23 -0.23)">
       <use transform="translate(0 0.765625)" xlink:href="#DejaVuSans-49"/>
       <use transform="translate(63.623047 0.765625)" xlink:href="#DejaVuSans-48"/>
       <use transform="translate(128.203125 39.046875)scale(0.7)" xlink:href="#DejaVuSans-48"/>
      </g>
     </g>
    </g>
    <g id="ytick_5">
     <g id="line2d_9">
      <defs>
       <path d="M 0 0 
L -2 0 
" id="mb1d9b4d6b6" style="stroke:#000000;stroke-width:0.6;"/>
      </defs>
      <g>
       <use style="stroke:#000000;stroke-width:0.6;" x="101.284375" xlink:href="#mb1d9b4d6b6" y="228.009387"/>
      </g>
     </g>
    </g>
    <g id="ytick_6">
     <g id="line2d_10">
      <g>
       <use style="stroke:#000000;stroke-width:0.6;" x="101.284375" xlink:href="#mb1d9b4d6b6" y="223.033901"/>
      </g>
     </g>
    </g>
    <g id="ytick_7">
     <g id="line2d_11">
      <g>
       <use style="stroke:#000000;stroke-width:0.6;" x="101.284375" xlink:href="#mb1d9b4d6b6" y="218.827187"/>
      </g>
     </g>
    </g>
    <g id="ytick_8">
     <g id="line2d_12">
      <g>
       <use style="stroke:#000000;stroke-width:0.6;" x="101.284375" xlink:href="#mb1d9b4d6b6" y="215.183166"/>
      </g>
     </g>
    </g>
    <g id="ytick_9">
     <g id="line2d_13">
      <g>
       <use style="stroke:#000000;stroke-width:0.6;" x="101.284375" xlink:href="#mb1d9b4d6b6" y="211.968912"/>
      </g>
     </g>
    </g>
    <g id="ytick_10">
     <g id="line2d_14">
      <g>
       <use style="stroke:#000000;stroke-width:0.6;" x="101.284375" xlink:href="#mb1d9b4d6b6" y="190.177939"/>
      </g>
     </g>
    </g>
    <g id="ytick_11">
     <g id="line2d_15">
      <g>
       <use style="stroke:#000000;stroke-width:0.6;" x="101.284375" xlink:href="#mb1d9b4d6b6" y="179.11295"/>
      </g>
     </g>
    </g>
    <g id="ytick_12">
     <g id="line2d_16">
      <g>
       <use style="stroke:#000000;stroke-width:0.6;" x="101.284375" xlink:href="#mb1d9b4d6b6" y="171.262215"/>
      </g>
     </g>
    </g>
    <g id="ytick_13">
     <g id="line2d_17">
      <g>
       <use style="stroke:#000000;stroke-width:0.6;" x="101.284375" xlink:href="#mb1d9b4d6b6" y="165.172712"/>
      </g>
     </g>
    </g>
    <g id="ytick_14">
     <g id="line2d_18">
      <g>
       <use style="stroke:#000000;stroke-width:0.6;" x="101.284375" xlink:href="#mb1d9b4d6b6" y="160.197226"/>
      </g>
     </g>
    </g>
    <g id="ytick_15">
     <g id="line2d_19">
      <g>
       <use style="stroke:#000000;stroke-width:0.6;" x="101.284375" xlink:href="#mb1d9b4d6b6" y="155.990512"/>
      </g>
     </g>
    </g>
    <g id="ytick_16">
     <g id="line2d_20">
      <g>
       <use style="stroke:#000000;stroke-width:0.6;" x="101.284375" xlink:href="#mb1d9b4d6b6" y="152.346491"/>
      </g>
     </g>
    </g>
    <g id="ytick_17">
     <g id="line2d_21">
      <g>
       <use style="stroke:#000000;stroke-width:0.6;" x="101.284375" xlink:href="#mb1d9b4d6b6" y="149.132236"/>
      </g>
     </g>
    </g>
    <g id="ytick_18">
     <g id="line2d_22">
      <g>
       <use style="stroke:#000000;stroke-width:0.6;" x="101.284375" xlink:href="#mb1d9b4d6b6" y="127.341263"/>
      </g>
     </g>
    </g>
    <g id="ytick_19">
     <g id="line2d_23">
      <g>
       <use style="stroke:#000000;stroke-width:0.6;" x="101.284375" xlink:href="#mb1d9b4d6b6" y="116.276274"/>
      </g>
     </g>
    </g>
    <g id="ytick_20">
     <g id="line2d_24">
      <g>
       <use style="stroke:#000000;stroke-width:0.6;" x="101.284375" xlink:href="#mb1d9b4d6b6" y="108.425539"/>
      </g>
     </g>
    </g>
    <g id="ytick_21">
     <g id="line2d_25">
      <g>
       <use style="stroke:#000000;stroke-width:0.6;" x="101.284375" xlink:href="#mb1d9b4d6b6" y="102.336036"/>
      </g>
     </g>
    </g>
    <g id="ytick_22">
     <g id="line2d_26">
      <g>
       <use style="stroke:#000000;stroke-width:0.6;" x="101.284375" xlink:href="#mb1d9b4d6b6" y="97.36055"/>
      </g>
     </g>
    </g>
    <g id="ytick_23">
     <g id="line2d_27">
      <g>
       <use style="stroke:#000000;stroke-width:0.6;" x="101.284375" xlink:href="#mb1d9b4d6b6" y="93.153836"/>
      </g>
     </g>
    </g>
    <g id="ytick_24">
     <g id="line2d_28">
      <g>
       <use style="stroke:#000000;stroke-width:0.6;" x="101.284375" xlink:href="#mb1d9b4d6b6" y="89.509815"/>
      </g>
     </g>
    </g>
    <g id="ytick_25">
     <g id="line2d_29">
      <g>
       <use style="stroke:#000000;stroke-width:0.6;" x="101.284375" xlink:href="#mb1d9b4d6b6" y="86.295561"/>
      </g>
     </g>
    </g>
    <g id="ytick_26">
     <g id="line2d_30">
      <g>
       <use style="stroke:#000000;stroke-width:0.6;" x="101.284375" xlink:href="#mb1d9b4d6b6" y="64.504588"/>
      </g>
     </g>
    </g>
    <g id="ytick_27">
     <g id="line2d_31">
      <g>
       <use style="stroke:#000000;stroke-width:0.6;" x="101.284375" xlink:href="#mb1d9b4d6b6" y="53.439598"/>
      </g>
     </g>
    </g>
    <g id="ytick_28">
     <g id="line2d_32">
      <g>
       <use style="stroke:#000000;stroke-width:0.6;" x="101.284375" xlink:href="#mb1d9b4d6b6" y="45.588864"/>
      </g>
     </g>
    </g>
    <g id="ytick_29">
     <g id="line2d_33">
      <g>
       <use style="stroke:#000000;stroke-width:0.6;" x="101.284375" xlink:href="#mb1d9b4d6b6" y="39.499361"/>
      </g>
     </g>
    </g>
    <g id="ytick_30">
     <g id="line2d_34">
      <g>
       <use style="stroke:#000000;stroke-width:0.6;" x="101.284375" xlink:href="#mb1d9b4d6b6" y="34.523874"/>
      </g>
     </g>
    </g>
    <g id="ytick_31">
     <g id="line2d_35">
      <g>
       <use style="stroke:#000000;stroke-width:0.6;" x="101.284375" xlink:href="#mb1d9b4d6b6" y="30.317161"/>
      </g>
     </g>
    </g>
    <g id="ytick_32">
     <g id="line2d_36">
      <g>
       <use style="stroke:#000000;stroke-width:0.6;" x="101.284375" xlink:href="#mb1d9b4d6b6" y="26.673139"/>
      </g>
     </g>
    </g>
    <g id="ytick_33">
     <g id="line2d_37">
      <g>
       <use style="stroke:#000000;stroke-width:0.6;" x="101.284375" xlink:href="#mb1d9b4d6b6" y="23.458885"/>
      </g>
     </g>
    </g>
    <g id="text_10">
     <!-- ICDF -->
     <defs>
      <path d="M 9.8125 72.90625 
L 19.671875 72.90625 
L 19.671875 0 
L 9.8125 0 
z
" id="DejaVuSans-73"/>
      <path d="M 64.40625 67.28125 
L 64.40625 56.890625 
Q 59.421875 61.53125 53.78125 63.8125 
Q 48.140625 66.109375 41.796875 66.109375 
Q 29.296875 66.109375 22.65625 58.46875 
Q 16.015625 50.828125 16.015625 36.375 
Q 16.015625 21.96875 22.65625 14.328125 
Q 29.296875 6.6875 41.796875 6.6875 
Q 48.140625 6.6875 53.78125 8.984375 
Q 59.421875 11.28125 64.40625 15.921875 
L 64.40625 5.609375 
Q 59.234375 2.09375 53.4375 0.328125 
Q 47.65625 -1.421875 41.21875 -1.421875 
Q 24.65625 -1.421875 15.125 8.703125 
Q 5.609375 18.84375 5.609375 36.375 
Q 5.609375 53.953125 15.125 64.078125 
Q 24.65625 74.21875 41.21875 74.21875 
Q 47.75 74.21875 53.53125 72.484375 
Q 59.328125 70.75 64.40625 67.28125 
z
" id="DejaVuSans-67"/>
      <path d="M 19.671875 64.796875 
L 19.671875 8.109375 
L 31.59375 8.109375 
Q 46.6875 8.109375 53.6875 14.9375 
Q 60.6875 21.78125 60.6875 36.53125 
Q 60.6875 51.171875 53.6875 57.984375 
Q 46.6875 64.796875 31.59375 64.796875 
z
M 9.8125 72.90625 
L 30.078125 72.90625 
Q 51.265625 72.90625 61.171875 64.09375 
Q 71.09375 55.28125 71.09375 36.53125 
Q 71.09375 17.671875 61.125 8.828125 
Q 51.171875 0 30.078125 0 
L 9.8125 0 
z
" id="DejaVuSans-68"/>
      <path d="M 9.8125 72.90625 
L 51.703125 72.90625 
L 51.703125 64.59375 
L 19.671875 64.59375 
L 19.671875 43.109375 
L 48.578125 43.109375 
L 48.578125 34.8125 
L 19.671875 34.8125 
L 19.671875 0 
L 9.8125 0 
z
" id="DejaVuSans-70"/>
     </defs>
     <g transform="translate(29.995313 154.496562)rotate(-90)scale(0.3 -0.3)">
      <use xlink:href="#DejaVuSans-73"/>
      <use x="29.492188" xlink:href="#DejaVuSans-67"/>
      <use x="99.316406" xlink:href="#DejaVuSans-68"/>
      <use x="176.318359" xlink:href="#DejaVuSans-70"/>
     </g>
    </g>
   </g>
   <g id="line2d_38">
    <path clip-path="url(#pa296c0ee62)" d="M -1 20.583636 
L 202.069218 20.681344 
L 203.020759 20.700927 
L 210.599316 20.799056 
L 211.442952 20.858103 
L 215.639386 20.9568 
L 216.222196 20.996379 
L 218.913604 21.095578 
L 219.622604 21.195139 
L 220.642696 21.27505 
L 220.971889 21.355196 
L 222.115574 21.45571 
L 222.543871 21.49602 
L 223.606291 21.576818 
L 223.835182 21.617307 
L 225.211294 21.718793 
L 225.423251 21.779867 
L 226.601739 21.881961 
L 226.898483 21.902425 
L 228.229847 22.004979 
L 228.909461 22.190554 
L 229.567542 22.294198 
L 229.867654 22.335767 
L 230.372255 22.419094 
L 230.57894 22.481757 
L 231.699842 22.586515 
L 232.009296 22.628532 
L 232.465 22.712759 
L 232.651965 22.7761 
L 233.057459 22.881997 
L 233.34747 22.988307 
L 233.668964 23.052292 
L 234.193971 23.13784 
L 234.366066 23.202177 
L 235.007322 23.309743 
L 235.172834 23.396103 
L 235.790021 23.504438 
L 236.107637 23.591417 
L 236.389398 23.700532 
L 236.667387 23.766211 
L 237.301917 23.876029 
L 237.538634 23.92008 
L 237.888727 24.030519 
L 238.090256 24.052661 
L 238.374804 24.16364 
L 238.711195 24.297413 
L 239.232917 24.38696 
L 239.502333 24.476803 
L 239.847429 24.566942 
L 240.16097 24.702712 
L 240.799364 24.793601 
L 240.974653 24.816371 
L 241.46748 24.907641 
L 241.733632 25.022159 
L 242.114775 25.091101 
L 242.27935 25.206393 
L 242.719592 25.298979 
L 242.947604 25.39188 
L 243.329571 25.485098 
L 243.506919 25.531827 
L 243.770133 25.625526 
L 243.943774 25.672496 
L 244.456154 25.743103 
L 244.749307 26.146697 
L 244.956198 26.218544 
L 245.099805 26.314634 
L 245.604733 26.386924 
L 245.724111 26.507836 
L 245.921562 26.604952 
L 246.078182 26.775741 
L 246.349458 26.873817 
L 246.598223 27.021595 
L 246.825239 27.120561 
L 246.993887 27.170178 
L 247.327129 27.269685 
L 247.491767 27.419628 
L 247.853023 27.49491 
L 247.995784 27.5704 
L 248.190492 27.671379 
L 248.348453 27.798131 
L 248.539898 27.899958 
L 248.798149 28.104759 
L 248.917576 28.207739 
L 249.137563 28.362941 
L 249.554177 28.466901 
L 249.767559 28.597412 
L 249.962599 28.676018 
L 250.107687 28.807535 
L 250.315486 28.913206 
L 250.489706 28.992729 
L 250.88031 29.099122 
L 251.080557 29.232698 
L 251.505413 29.340032 
L 251.684867 29.44779 
L 251.951174 29.555975 
L 252.126835 29.66459 
L 252.286562 29.77364 
L 252.43071 29.910568 
L 252.573865 30.020607 
L 252.744358 30.131091 
L 252.871316 30.242025 
L 253.095121 30.465254 
L 253.261406 30.549438 
L 253.398968 30.690324 
L 253.779362 30.775206 
L 253.913547 30.803559 
L 254.113212 30.888795 
L 254.284716 31.002858 
L 254.480862 31.08872 
L 254.610605 31.117401 
L 254.688063 31.174852 
L 254.816521 31.261258 
L 255.007732 31.434893 
L 255.33505 31.522127 
L 255.471993 31.580438 
L 255.730949 31.668139 
L 255.95037 31.932946 
L 255.998817 31.992143 
L 256.131467 32.110923 
L 256.299078 32.170507 
L 256.42983 32.260128 
L 256.583302 32.350045 
L 256.712282 32.440258 
L 256.910054 32.651924 
L 257.048532 32.743143 
L 257.208932 32.865244 
L 257.379426 32.95718 
L 257.503571 32.987895 
L 257.716271 33.080245 
L 257.838425 33.17291 
L 258.0587 33.26589 
L 258.189752 33.328053 
L 258.287501 33.421564 
L 258.481631 33.672505 
L 258.620715 33.767206 
L 258.811769 33.989461 
L 258.980132 34.08527 
L 259.11593 34.14933 
L 259.292182 34.245703 
L 259.4157 34.342418 
L 259.569073 34.471906 
L 260.032476 34.569427 
L 260.151683 34.602012 
L 260.427199 34.7 
L 260.563599 34.798341 
L 260.824154 34.897038 
L 260.977028 35.029191 
L 261.20425 35.128728 
L 261.363708 35.295434 
L 261.660584 35.395948 
L 261.81659 35.564299 
L 262.179107 35.66581 
L 262.313436 35.767701 
L 262.605938 35.869973 
L 262.772498 36.075675 
L 263.187427 36.17911 
L 263.306903 36.213676 
L 263.484838 36.317636 
L 263.627772 36.456869 
L 263.761406 36.561762 
L 263.877635 36.596816 
L 264.22247 36.70225 
L 264.34425 36.843464 
L 264.561673 36.949857 
L 264.71332 37.128104 
L 265.130579 37.235614 
L 265.270404 37.379623 
L 265.77519 37.488131 
L 265.910756 37.597072 
L 266.171851 37.706449 
L 266.304861 37.816267 
L 266.756595 37.926528 
L 266.885925 38.037236 
L 267.113874 38.111292 
L 267.255083 38.26001 
L 267.479039 38.334674 
L 267.617794 38.484617 
L 267.741887 38.559899 
L 267.878904 38.711088 
L 268.103024 38.786998 
L 268.217544 38.825033 
L 268.284614 38.901261 
L 268.398139 38.939455 
L 268.689119 39.016004 
L 268.820047 39.131231 
L 268.963122 39.20832 
L 269.105217 39.402002 
L 269.182316 39.479861 
L 269.316554 39.636249 
L 269.645267 39.71478 
L 269.782787 39.872524 
L 269.882232 39.912103 
L 270.005874 40.070995 
L 270.505246 40.150789 
L 270.619261 40.190774 
L 270.726701 40.230818 
L 270.845431 40.351302 
L 271.174308 40.431921 
L 271.296307 40.512779 
L 271.463612 40.593878 
L 271.595351 40.756801 
L 271.811192 40.838629 
L 271.929517 40.920703 
L 272.214104 41.003025 
L 272.341182 41.126975 
L 272.793409 41.209922 
L 272.911644 41.293123 
L 273.10368 41.376577 
L 273.225446 41.460288 
L 273.398917 41.544256 
L 273.534578 41.755314 
L 273.741572 41.840196 
L 273.864785 41.968016 
L 273.931222 42.053564 
L 274.053319 42.13938 
L 274.310416 42.225467 
L 274.430311 42.311827 
L 274.658192 42.398461 
L 274.776102 42.485371 
L 274.956578 42.572558 
L 275.10659 42.92412 
L 275.289009 43.012723 
L 275.412906 43.146169 
L 275.705403 43.235496 
L 275.82219 43.325117 
L 276.044597 43.415034 
L 276.168662 43.550467 
L 276.351111 43.64113 
L 276.46885 43.732095 
L 276.729116 43.823365 
L 276.862468 44.052884 
L 277.32257 44.145235 
L 277.447871 44.330879 
L 277.62801 44.424177 
L 277.747241 44.517795 
L 277.882672 44.611735 
L 278.000455 44.706 
L 278.155078 44.800591 
L 278.27547 44.943096 
L 278.391052 45.038515 
L 278.510088 45.134268 
L 278.632514 45.230358 
L 278.746132 45.278531 
L 278.818845 45.375131 
L 278.935461 45.472075 
L 279.111155 45.569364 
L 279.234053 45.715951 
L 279.489406 45.814116 
L 279.617855 46.061082 
L 279.726222 46.110745 
L 279.841706 46.310304 
L 280.331099 46.410634 
L 280.454462 46.612406 
L 280.591913 46.713855 
L 280.71006 46.815682 
L 280.977094 46.917891 
L 281.089462 46.969139 
L 281.212009 47.071925 
L 281.333838 47.226833 
L 281.497535 47.330596 
L 281.610656 47.539313 
L 281.970635 47.644273 
L 282.088107 47.749639 
L 282.184352 47.855412 
L 282.300624 47.961598 
L 282.480584 48.068198 
L 282.605299 48.282656 
L 282.685796 48.39052 
L 282.799303 48.444613 
L 283.021179 48.55312 
L 283.136149 48.662061 
L 283.38039 48.771438 
L 283.503052 48.991517 
L 283.605787 49.102226 
L 283.723944 49.269135 
L 283.838266 49.324999 
L 283.955112 49.437072 
L 284.065041 49.493281 
L 284.183736 49.662607 
L 284.261457 49.719284 
L 284.375953 49.83299 
L 284.508228 49.890022 
L 284.624425 50.004444 
L 284.761191 50.061836 
L 284.872973 50.176982 
L 285.011111 50.234738 
L 285.133464 50.466991 
L 285.201787 50.525365 
L 285.328922 50.878253 
L 285.411291 50.937514 
L 285.534236 51.175852 
L 285.580881 51.235764 
L 285.697038 51.476733 
L 285.90163 51.53731 
L 286.016011 51.658867 
L 286.084339 51.71985 
L 286.203375 52.088634 
L 286.534204 52.150585 
L 286.647931 52.212678 
L 286.736262 52.274912 
L 286.85163 52.399807 
L 286.963637 52.46247 
L 287.077752 52.588229 
L 287.126467 52.651326 
L 287.239694 52.71457 
L 287.554544 52.777961 
L 287.673368 52.969021 
L 287.76794 53.033006 
L 287.88034 53.097141 
L 288.041341 53.161428 
L 288.154848 53.225866 
L 288.428315 53.290457 
L 288.544783 53.485152 
L 288.683186 53.55036 
L 288.798237 53.681246 
L 288.833126 53.681246 
L 288.949828 54.011233 
L 289.014106 54.077712 
L 289.127344 54.144353 
L 289.274124 54.211158 
L 289.388381 54.345259 
L 289.494779 54.412558 
L 289.607832 54.480023 
L 289.746502 54.547656 
L 289.862937 54.751564 
L 290.121968 54.819874 
L 290.233995 54.888354 
L 290.310665 54.957008 
L 290.426295 55.094834 
L 290.486169 55.164009 
L 290.600828 55.302888 
L 290.835051 55.372594 
L 290.954552 55.653209 
L 291.253655 55.723816 
L 291.368575 55.865581 
L 291.397206 55.93674 
L 291.509147 56.008086 
L 291.867232 56.079618 
L 291.983096 56.295348 
L 292.094061 56.367638 
L 292.215018 56.731991 
L 292.391996 56.805449 
L 292.504977 56.879105 
L 292.714658 56.952961 
L 292.827956 57.101274 
L 292.864902 57.175734 
L 292.981465 57.400341 
L 293.202561 57.475623 
L 293.315243 57.551113 
L 293.427317 57.626813 
L 293.544745 57.931728 
L 293.685181 58.008492 
L 293.799204 58.162671 
L 294.042834 58.240088 
L 294.156842 58.395585 
L 294.28747 58.473667 
L 294.400147 58.551973 
L 294.521686 58.630504 
L 294.63687 58.867464 
L 294.678255 58.946909 
L 294.792576 59.106498 
L 295.01565 59.186644 
L 295.13365 59.509602 
L 295.303933 59.590942 
L 295.418498 59.754354 
L 295.67443 59.836428 
L 295.786976 59.918749 
L 295.971441 60.00132 
L 296.085905 60.167215 
L 296.092928 60.250542 
L 296.208473 60.502061 
L 296.580471 60.586419 
L 296.700164 61.012162 
L 296.746147 61.098114 
L 296.864891 61.53198 
L 296.94761 61.619588 
L 297.063536 61.88411 
L 297.165485 61.972856 
L 297.280205 62.240842 
L 297.460147 62.330758 
L 297.57489 62.602299 
L 297.633655 62.693416 
L 297.745825 62.784839 
L 297.926618 62.876569 
L 298.046811 63.433519 
L 298.171078 63.527459 
L 298.288289 63.906488 
L 298.473836 64.002073 
L 298.586242 64.097995 
L 298.889191 64.194255 
L 299.005482 64.582726 
L 299.080115 64.680714 
L 299.196857 65.076222 
L 299.587756 65.176002 
L 299.701687 65.376662 
L 299.710539 65.477547 
L 299.825267 65.782463 
L 299.991816 65.884863 
L 300.105005 66.090823 
L 300.326687 66.194389 
L 300.439495 66.402708 
L 300.771488 66.507467 
L 300.883307 66.612629 
L 301.069265 66.718198 
L 301.180871 66.824178 
L 301.466101 66.93057 
L 301.580993 67.252259 
L 301.659026 67.360337 
L 301.770187 67.468844 
L 301.99999 67.577785 
L 302.111974 67.687163 
L 302.168396 67.79698 
L 302.282084 68.01795 
L 302.297717 68.01795 
L 302.413292 68.465331 
L 302.468902 68.465331 
L 302.582247 68.691802 
L 302.866734 68.691802 
L 302.977935 68.805746 
L 303.264549 68.805746 
L 303.378591 69.150462 
L 303.432912 69.150462 
L 303.546036 69.382715 
L 303.657327 69.382715 
L 303.771665 69.734844 
L 303.789852 69.734844 
L 303.901054 69.853238 
L 303.980463 69.853238 
L 304.093041 70.091577 
L 304.146719 70.091577 
L 304.259586 70.332015 
L 304.28327 70.332015 
L 304.3954 70.453034 
L 304.594554 70.453034 
L 304.70618 70.574591 
L 304.831047 70.574591 
L 304.943705 70.819343 
L 305.070575 70.819343 
L 305.183079 71.066309 
L 305.296104 71.066309 
L 305.409638 71.441001 
L 305.596013 71.441001 
L 305.710134 71.820909 
L 305.72891 71.820909 
L 305.842305 72.206181 
L 305.929954 72.206181 
L 306.041173 72.335823 
L 306.24677 72.335823 
L 306.359523 72.59697 
L 306.380931 72.59697 
L 306.495087 72.993436 
L 306.588505 72.993436 
L 306.700477 73.126882 
L 306.705744 73.126882 
L 306.817086 73.260984 
L 306.825465 73.260984 
L 306.939295 73.667288 
L 307.057682 73.667288 
L 307.171279 74.079734 
L 307.313941 74.079734 
L 307.426149 74.358202 
L 307.483041 74.358202 
L 307.595351 74.63954 
L 307.620562 74.63954 
L 307.733135 74.92381 
L 307.789194 74.92381 
L 307.901854 75.211072 
L 308.234255 75.211072 
L 308.346479 75.50139 
L 308.378571 75.50139 
L 308.493886 76.240991 
L 308.71879 76.240991 
L 308.831286 76.542537 
L 309.059169 76.542537 
L 309.171713 76.847452 
L 309.207225 76.847452 
L 309.319899 77.155813 
L 309.43289 77.155813 
L 309.54435 77.311309 
L 309.639676 77.311309 
L 309.756402 78.425326 
L 309.884228 78.425326 
L 309.999591 79.249849 
L 310.08659 79.249849 
L 310.199948 79.756791 
L 310.386926 79.756791 
L 310.498661 79.927887 
L 310.748973 79.927887 
L 310.862232 80.447705 
L 310.92164 80.447705 
L 311.034818 80.977617 
L 311.193258 80.977617 
L 311.306658 81.518023 
L 311.388362 81.518023 
L 311.499869 81.700563 
L 311.831666 81.700563 
L 311.94328 81.884332 
L 312.176059 81.884332 
L 312.289063 82.443184 
L 312.385437 82.443184 
L 312.497311 82.63204 
L 312.502092 82.63204 
L 312.614925 83.206579 
L 312.621264 83.206579 
L 312.732666 83.400812 
L 312.899829 83.400812 
L 313.011306 83.596438 
L 313.060229 83.596438 
L 313.171622 83.991946 
L 313.503021 83.991946 
L 313.614337 84.191871 
L 313.64377 84.191871 
L 313.755086 84.393272 
L 313.926158 84.393272 
L 314.038195 84.800587 
L 314.042634 84.800587 
L 314.154782 85.214074 
L 314.563533 85.214074 
L 314.675782 85.633923 
L 314.902025 85.633923 
L 315.01317 85.846294 
L 315.136361 85.846294 
L 315.248357 86.276061 
L 315.287413 86.276061 
L 315.399293 86.712704 
L 315.548452 86.712704 
L 315.660307 87.156448 
L 315.726586 87.156448 
L 315.838167 87.381055 
L 316.048802 87.381055 
L 316.160006 87.607526 
L 316.342268 87.607526 
L 316.454551 88.066186 
L 316.509152 88.066186 
L 316.620539 88.29844 
L 317.065966 88.29844 
L 317.177596 88.532687 
L 317.185228 88.532687 
L 317.298118 89.247739 
L 317.402847 89.247739 
L 317.514564 89.490315 
L 317.838143 89.490315 
L 317.949388 89.735067 
L 318.482513 89.735067 
L 318.593934 89.982034 
L 318.815 89.982034 
L 318.926996 90.482775 
L 319.185033 90.482775 
L 319.296205 90.736633 
L 319.525306 90.736633 
L 319.636938 90.992876 
L 319.717033 90.992876 
L 319.828762 91.512694 
L 319.83492 91.512694 
L 319.946575 91.776364 
L 319.980511 91.776364 
L 320.092494 92.311472 
L 320.234649 92.311472 
L 320.34582 92.583012 
L 320.450423 92.583012 
L 320.56315 93.414233 
L 320.975746 93.414233 
L 321.087774 93.982787 
L 321.247371 93.982787 
L 321.360549 95.156715 
L 321.580439 95.156715 
L 321.691821 95.458261 
L 321.765915 95.458261 
L 321.877325 95.763176 
L 321.996213 95.763176 
L 322.107902 96.383422 
L 322.374126 96.383422 
L 322.485778 97.018092 
L 322.490705 97.018092 
L 322.602714 97.667876 
L 322.620344 97.667876 
L 322.731658 97.998663 
L 322.844316 97.998663 
L 322.955884 98.33351 
L 323.333444 98.33351 
L 323.444775 98.672515 
L 323.565338 98.672515 
L 323.677297 99.363429 
L 324.128758 99.363429 
L 324.240447 100.07229 
L 324.375844 100.07229 
L 324.48711 100.433747 
L 324.571953 100.433747 
L 324.683949 101.17135 
L 324.729994 101.17135 
L 324.841143 101.547764 
L 325.014178 101.547764 
L 325.125991 102.316537 
L 325.20265 102.316537 
L 325.313885 102.7092 
L 325.325062 102.7092 
L 325.436501 103.107596 
L 325.754648 103.107596 
L 325.866324 103.922272 
L 326.351343 103.922272 
L 326.46312 104.762019 
L 326.810896 104.762019 
L 326.922224 105.191785 
L 327.209541 105.191785 
L 327.32071 105.628428 
L 327.888704 105.628428 
L 328.000085 106.072172 
L 328.015192 106.072172 
L 328.12665 106.52325 
L 328.878955 106.52325 
L 328.990568 107.448411 
L 329.144896 107.448411 
L 329.256515 108.40604 
L 329.611607 108.40604 
L 329.72284 108.897758 
L 329.957293 108.897758 
L 330.068747 109.398499 
L 330.503653 109.398499 
L 330.615219 110.428418 
L 331.043517 110.428418 
L 331.154825 110.95833 
L 331.913337 110.95833 
L 332.025074 112.050061 
L 332.094993 112.050061 
L 332.206685 113.187293 
L 332.370808 113.187293 
L 332.482249 114.373985 
L 332.608233 114.373985 
L 332.719614 114.987261 
L 332.76412 114.987261 
L 332.875269 115.614636 
L 332.87736 115.614636 
L 332.9885 116.256775 
L 333.248375 116.256775 
L 333.359596 116.914388 
L 333.738228 116.914388 
L 333.84943 117.58824 
L 333.858266 117.58824 
L 333.969396 118.279153 
L 334.24087 118.279153 
L 334.352203 118.988014 
L 334.537546 118.988014 
L 334.648951 120.463488 
L 334.731636 120.463488 
L 334.843094 122.02332 
L 335.043247 122.02332 
L 335.154389 122.837996 
L 335.267869 122.837996 
L 335.379408 124.544153 
L 335.48877 124.544153 
L 335.599919 125.438975 
L 335.832371 125.438975 
L 335.944278 128.314223 
L 337.162333 128.314223 
L 337.273605 129.344142 
L 337.709035 129.344142 
L 337.82025 130.414461 
L 338.155695 130.414461 
L 338.266855 131.528478 
L 338.376047 131.528478 
L 338.487405 133.902985 
L 338.8592 133.902985 
L 338.970678 136.503964 
L 339.126723 136.503964 
L 339.237878 137.903738 
L 339.462555 137.903738 
L 339.574097 140.939044 
L 341.281022 140.939044 
L 341.392162 142.593467 
L 341.877218 142.593467 
L 341.988497 144.354699 
L 342.863072 144.354699 
L 342.974352 146.237488 
L 346.189704 146.237488 
L 346.300842 148.259867 
L 348.089864 148.259867 
L 348.201027 150.444202 
L 349.026612 150.444202 
L 349.137939 155.419688 
L 349.97035 155.419688 
L 350.081574 158.294937 
L 351.335821 158.294937 
L 351.446953 161.509191 
L 353.863436 161.509191 
L 353.974637 165.153212 
L 354.566098 165.153212 
L 354.677271 169.359926 
L 355.778691 169.359926 
L 355.889892 174.335412 
L 357.509997 174.335412 
L 357.621134 180.424915 
L 358.554645 180.424915 
L 358.665784 188.27565 
L 364.949215 188.27565 
L 365.060362 199.340639 
L 367.032713 199.340639 
L 367.143841 218.256364 
L 375.629417 218.256364 
L 375.629417 218.256364 
" style="fill:none;stroke:#ff0000;stroke-linecap:square;stroke-width:4;"/>
   </g>
   <g id="patch_3">
    <path d="M 101.284375 228.14 
L 101.284375 10.7 
" style="fill:none;stroke:#000000;stroke-linecap:square;stroke-linejoin:miter;stroke-width:0.8;"/>
   </g>
   <g id="patch_4">
    <path d="M 436.084375 228.14 
L 436.084375 10.7 
" style="fill:none;stroke:#000000;stroke-linecap:square;stroke-linejoin:miter;stroke-width:0.8;"/>
   </g>
   <g id="patch_5">
    <path d="M 101.284375 228.14 
L 436.084375 228.14 
" style="fill:none;stroke:#000000;stroke-linecap:square;stroke-linejoin:miter;stroke-width:0.8;"/>
   </g>
   <g id="patch_6">
    <path d="M 101.284375 10.7 
L 436.084375 10.7 
" style="fill:none;stroke:#000000;stroke-linecap:square;stroke-linejoin:miter;stroke-width:0.8;"/>
   </g>
  </g>
 </g>
 <defs>
  <clipPath id="pa296c0ee62">
   <rect height="217.44" width="334.8" x="101.284375" y="10.7"/>
  </clipPath>
 </defs>
</svg>
