<?xml version="1.0" encoding="utf-8" standalone="no"?>
<!DOCTYPE svg PUBLIC "-//W3C//DTD SVG 1.1//EN"
  "http://www.w3.org/Graphics/SVG/1.1/DTD/svg11.dtd">
<!-- Created with matplotlib (https://matplotlib.org/) -->
<svg height="297.634062pt" version="1.1" viewBox="0 0 458.733906 297.634062" width="458.733906pt" xmlns="http://www.w3.org/2000/svg" xmlns:xlink="http://www.w3.org/1999/xlink">
 <defs>
  <style type="text/css">
*{stroke-linecap:butt;stroke-linejoin:round;}
  </style>
 </defs>
 <g id="figure_1">
  <g id="patch_1">
   <path d="M 0 297.634062 
L 458.733906 297.634062 
L 458.733906 0 
L 0 0 
z
" style="fill:#ffffff;"/>
  </g>
  <g id="axes_1">
   <g id="patch_2">
    <path d="M 83.811563 228.14 
L 418.611562 228.14 
L 418.611562 10.7 
L 83.811563 10.7 
z
" style="fill:#ffffff;"/>
   </g>
   <g id="matplotlib.axis_1">
    <g id="xtick_1">
     <g id="line2d_1">
      <defs>
       <path d="M 0 0 
L 0 3.5 
" id="m8e5dc3dabc" style="stroke:#000000;stroke-width:0.8;"/>
      </defs>
      <g>
       <use style="stroke:#000000;stroke-width:0.8;" x="98.768198" xlink:href="#m8e5dc3dabc" y="228.14"/>
      </g>
     </g>
     <g id="text_1">
      <!-- 0.693 -->
      <defs>
       <path d="M 31.78125 66.40625 
Q 24.171875 66.40625 20.328125 58.90625 
Q 16.5 51.421875 16.5 36.375 
Q 16.5 21.390625 20.328125 13.890625 
Q 24.171875 6.390625 31.78125 6.390625 
Q 39.453125 6.390625 43.28125 13.890625 
Q 47.125 21.390625 47.125 36.375 
Q 47.125 51.421875 43.28125 58.90625 
Q 39.453125 66.40625 31.78125 66.40625 
z
M 31.78125 74.21875 
Q 44.046875 74.21875 50.515625 64.515625 
Q 56.984375 54.828125 56.984375 36.375 
Q 56.984375 17.96875 50.515625 8.265625 
Q 44.046875 -1.421875 31.78125 -1.421875 
Q 19.53125 -1.421875 13.0625 8.265625 
Q 6.59375 17.96875 6.59375 36.375 
Q 6.59375 54.828125 13.0625 64.515625 
Q 19.53125 74.21875 31.78125 74.21875 
z
" id="DejaVuSans-48"/>
       <path d="M 10.6875 12.40625 
L 21 12.40625 
L 21 0 
L 10.6875 0 
z
" id="DejaVuSans-46"/>
       <path d="M 33.015625 40.375 
Q 26.375 40.375 22.484375 35.828125 
Q 18.609375 31.296875 18.609375 23.390625 
Q 18.609375 15.53125 22.484375 10.953125 
Q 26.375 6.390625 33.015625 6.390625 
Q 39.65625 6.390625 43.53125 10.953125 
Q 47.40625 15.53125 47.40625 23.390625 
Q 47.40625 31.296875 43.53125 35.828125 
Q 39.65625 40.375 33.015625 40.375 
z
M 52.59375 71.296875 
L 52.59375 62.3125 
Q 48.875 64.0625 45.09375 64.984375 
Q 41.3125 65.921875 37.59375 65.921875 
Q 27.828125 65.921875 22.671875 59.328125 
Q 17.53125 52.734375 16.796875 39.40625 
Q 19.671875 43.65625 24.015625 45.921875 
Q 28.375 48.1875 33.59375 48.1875 
Q 44.578125 48.1875 50.953125 41.515625 
Q 57.328125 34.859375 57.328125 23.390625 
Q 57.328125 12.15625 50.6875 5.359375 
Q 44.046875 -1.421875 33.015625 -1.421875 
Q 20.359375 -1.421875 13.671875 8.265625 
Q 6.984375 17.96875 6.984375 36.375 
Q 6.984375 53.65625 15.1875 63.9375 
Q 23.390625 74.21875 37.203125 74.21875 
Q 40.921875 74.21875 44.703125 73.484375 
Q 48.484375 72.75 52.59375 71.296875 
z
" id="DejaVuSans-54"/>
       <path d="M 10.984375 1.515625 
L 10.984375 10.5 
Q 14.703125 8.734375 18.5 7.8125 
Q 22.3125 6.890625 25.984375 6.890625 
Q 35.75 6.890625 40.890625 13.453125 
Q 46.046875 20.015625 46.78125 33.40625 
Q 43.953125 29.203125 39.59375 26.953125 
Q 35.25 24.703125 29.984375 24.703125 
Q 19.046875 24.703125 12.671875 31.3125 
Q 6.296875 37.9375 6.296875 49.421875 
Q 6.296875 60.640625 12.9375 67.421875 
Q 19.578125 74.21875 30.609375 74.21875 
Q 43.265625 74.21875 49.921875 64.515625 
Q 56.59375 54.828125 56.59375 36.375 
Q 56.59375 19.140625 48.40625 8.859375 
Q 40.234375 -1.421875 26.421875 -1.421875 
Q 22.703125 -1.421875 18.890625 -0.6875 
Q 15.09375 0.046875 10.984375 1.515625 
z
M 30.609375 32.421875 
Q 37.25 32.421875 41.125 36.953125 
Q 45.015625 41.5 45.015625 49.421875 
Q 45.015625 57.28125 41.125 61.84375 
Q 37.25 66.40625 30.609375 66.40625 
Q 23.96875 66.40625 20.09375 61.84375 
Q 16.21875 57.28125 16.21875 49.421875 
Q 16.21875 41.5 20.09375 36.953125 
Q 23.96875 32.421875 30.609375 32.421875 
z
" id="DejaVuSans-57"/>
       <path d="M 40.578125 39.3125 
Q 47.65625 37.796875 51.625 33 
Q 55.609375 28.21875 55.609375 21.1875 
Q 55.609375 10.40625 48.1875 4.484375 
Q 40.765625 -1.421875 27.09375 -1.421875 
Q 22.515625 -1.421875 17.65625 -0.515625 
Q 12.796875 0.390625 7.625 2.203125 
L 7.625 11.71875 
Q 11.71875 9.328125 16.59375 8.109375 
Q 21.484375 6.890625 26.8125 6.890625 
Q 36.078125 6.890625 40.9375 10.546875 
Q 45.796875 14.203125 45.796875 21.1875 
Q 45.796875 27.640625 41.28125 31.265625 
Q 36.765625 34.90625 28.71875 34.90625 
L 20.21875 34.90625 
L 20.21875 43.015625 
L 29.109375 43.015625 
Q 36.375 43.015625 40.234375 45.921875 
Q 44.09375 48.828125 44.09375 54.296875 
Q 44.09375 59.90625 40.109375 62.90625 
Q 36.140625 65.921875 28.71875 65.921875 
Q 24.65625 65.921875 20.015625 65.03125 
Q 15.375 64.15625 9.8125 62.3125 
L 9.8125 71.09375 
Q 15.4375 72.65625 20.34375 73.4375 
Q 25.25 74.21875 29.59375 74.21875 
Q 40.828125 74.21875 47.359375 69.109375 
Q 53.90625 64.015625 53.90625 55.328125 
Q 53.90625 49.265625 50.4375 45.09375 
Q 46.96875 40.921875 40.578125 39.3125 
z
" id="DejaVuSans-51"/>
      </defs>
      <g transform="translate(65.845855 252.616406)scale(0.23 -0.23)">
       <use xlink:href="#DejaVuSans-48"/>
       <use x="63.623047" xlink:href="#DejaVuSans-46"/>
       <use x="95.410156" xlink:href="#DejaVuSans-54"/>
       <use x="159.033203" xlink:href="#DejaVuSans-57"/>
       <use x="222.65625" xlink:href="#DejaVuSans-51"/>
      </g>
     </g>
    </g>
    <g id="xtick_2">
     <g id="line2d_2">
      <g>
       <use style="stroke:#000000;stroke-width:0.8;" x="205.382653" xlink:href="#m8e5dc3dabc" y="228.14"/>
      </g>
     </g>
     <g id="text_2">
      <!-- 1.383 -->
      <defs>
       <path d="M 12.40625 8.296875 
L 28.515625 8.296875 
L 28.515625 63.921875 
L 10.984375 60.40625 
L 10.984375 69.390625 
L 28.421875 72.90625 
L 38.28125 72.90625 
L 38.28125 8.296875 
L 54.390625 8.296875 
L 54.390625 0 
L 12.40625 0 
z
" id="DejaVuSans-49"/>
       <path d="M 31.78125 34.625 
Q 24.75 34.625 20.71875 30.859375 
Q 16.703125 27.09375 16.703125 20.515625 
Q 16.703125 13.921875 20.71875 10.15625 
Q 24.75 6.390625 31.78125 6.390625 
Q 38.8125 6.390625 42.859375 10.171875 
Q 46.921875 13.96875 46.921875 20.515625 
Q 46.921875 27.09375 42.890625 30.859375 
Q 38.875 34.625 31.78125 34.625 
z
M 21.921875 38.8125 
Q 15.578125 40.375 12.03125 44.71875 
Q 8.5 49.078125 8.5 55.328125 
Q 8.5 64.0625 14.71875 69.140625 
Q 20.953125 74.21875 31.78125 74.21875 
Q 42.671875 74.21875 48.875 69.140625 
Q 55.078125 64.0625 55.078125 55.328125 
Q 55.078125 49.078125 51.53125 44.71875 
Q 48 40.375 41.703125 38.8125 
Q 48.828125 37.15625 52.796875 32.3125 
Q 56.78125 27.484375 56.78125 20.515625 
Q 56.78125 9.90625 50.3125 4.234375 
Q 43.84375 -1.421875 31.78125 -1.421875 
Q 19.734375 -1.421875 13.25 4.234375 
Q 6.78125 9.90625 6.78125 20.515625 
Q 6.78125 27.484375 10.78125 32.3125 
Q 14.796875 37.15625 21.921875 38.8125 
z
M 18.3125 54.390625 
Q 18.3125 48.734375 21.84375 45.5625 
Q 25.390625 42.390625 31.78125 42.390625 
Q 38.140625 42.390625 41.71875 45.5625 
Q 45.3125 48.734375 45.3125 54.390625 
Q 45.3125 60.0625 41.71875 63.234375 
Q 38.140625 66.40625 31.78125 66.40625 
Q 25.390625 66.40625 21.84375 63.234375 
Q 18.3125 60.0625 18.3125 54.390625 
z
" id="DejaVuSans-56"/>
      </defs>
      <g transform="translate(172.460309 252.616406)scale(0.23 -0.23)">
       <use xlink:href="#DejaVuSans-49"/>
       <use x="63.623047" xlink:href="#DejaVuSans-46"/>
       <use x="95.410156" xlink:href="#DejaVuSans-51"/>
       <use x="159.033203" xlink:href="#DejaVuSans-56"/>
       <use x="222.65625" xlink:href="#DejaVuSans-51"/>
      </g>
     </g>
    </g>
    <g id="xtick_3">
     <g id="line2d_3">
      <g>
       <use style="stroke:#000000;stroke-width:0.8;" x="311.997108" xlink:href="#m8e5dc3dabc" y="228.14"/>
      </g>
     </g>
     <g id="text_3">
      <!-- 2.073 -->
      <defs>
       <path d="M 19.1875 8.296875 
L 53.609375 8.296875 
L 53.609375 0 
L 7.328125 0 
L 7.328125 8.296875 
Q 12.9375 14.109375 22.625 23.890625 
Q 32.328125 33.6875 34.8125 36.53125 
Q 39.546875 41.84375 41.421875 45.53125 
Q 43.3125 49.21875 43.3125 52.78125 
Q 43.3125 58.59375 39.234375 62.25 
Q 35.15625 65.921875 28.609375 65.921875 
Q 23.96875 65.921875 18.8125 64.3125 
Q 13.671875 62.703125 7.8125 59.421875 
L 7.8125 69.390625 
Q 13.765625 71.78125 18.9375 73 
Q 24.125 74.21875 28.421875 74.21875 
Q 39.75 74.21875 46.484375 68.546875 
Q 53.21875 62.890625 53.21875 53.421875 
Q 53.21875 48.921875 51.53125 44.890625 
Q 49.859375 40.875 45.40625 35.40625 
Q 44.1875 33.984375 37.640625 27.21875 
Q 31.109375 20.453125 19.1875 8.296875 
z
" id="DejaVuSans-50"/>
       <path d="M 8.203125 72.90625 
L 55.078125 72.90625 
L 55.078125 68.703125 
L 28.609375 0 
L 18.3125 0 
L 43.21875 64.59375 
L 8.203125 64.59375 
z
" id="DejaVuSans-55"/>
      </defs>
      <g transform="translate(279.074764 252.616406)scale(0.23 -0.23)">
       <use xlink:href="#DejaVuSans-50"/>
       <use x="63.623047" xlink:href="#DejaVuSans-46"/>
       <use x="95.410156" xlink:href="#DejaVuSans-48"/>
       <use x="159.033203" xlink:href="#DejaVuSans-55"/>
       <use x="222.65625" xlink:href="#DejaVuSans-51"/>
      </g>
     </g>
    </g>
    <g id="xtick_4">
     <g id="line2d_4">
      <g>
       <use style="stroke:#000000;stroke-width:0.8;" x="418.611562" xlink:href="#m8e5dc3dabc" y="228.14"/>
      </g>
     </g>
     <g id="text_4">
      <!-- 2.763 -->
      <g transform="translate(385.689219 252.616406)scale(0.23 -0.23)">
       <use xlink:href="#DejaVuSans-50"/>
       <use x="63.623047" xlink:href="#DejaVuSans-46"/>
       <use x="95.410156" xlink:href="#DejaVuSans-55"/>
       <use x="159.033203" xlink:href="#DejaVuSans-54"/>
       <use x="222.65625" xlink:href="#DejaVuSans-51"/>
      </g>
     </g>
    </g>
    <g id="text_5">
     <!-- entropy -->
     <defs>
      <path d="M 56.203125 29.59375 
L 56.203125 25.203125 
L 14.890625 25.203125 
Q 15.484375 15.921875 20.484375 11.0625 
Q 25.484375 6.203125 34.421875 6.203125 
Q 39.59375 6.203125 44.453125 7.46875 
Q 49.3125 8.734375 54.109375 11.28125 
L 54.109375 2.78125 
Q 49.265625 0.734375 44.1875 -0.34375 
Q 39.109375 -1.421875 33.890625 -1.421875 
Q 20.796875 -1.421875 13.15625 6.1875 
Q 5.515625 13.8125 5.515625 26.8125 
Q 5.515625 40.234375 12.765625 48.109375 
Q 20.015625 56 32.328125 56 
Q 43.359375 56 49.78125 48.890625 
Q 56.203125 41.796875 56.203125 29.59375 
z
M 47.21875 32.234375 
Q 47.125 39.59375 43.09375 43.984375 
Q 39.0625 48.390625 32.421875 48.390625 
Q 24.90625 48.390625 20.390625 44.140625 
Q 15.875 39.890625 15.1875 32.171875 
z
" id="DejaVuSans-101"/>
      <path d="M 54.890625 33.015625 
L 54.890625 0 
L 45.90625 0 
L 45.90625 32.71875 
Q 45.90625 40.484375 42.875 44.328125 
Q 39.84375 48.1875 33.796875 48.1875 
Q 26.515625 48.1875 22.3125 43.546875 
Q 18.109375 38.921875 18.109375 30.90625 
L 18.109375 0 
L 9.078125 0 
L 9.078125 54.6875 
L 18.109375 54.6875 
L 18.109375 46.1875 
Q 21.34375 51.125 25.703125 53.5625 
Q 30.078125 56 35.796875 56 
Q 45.21875 56 50.046875 50.171875 
Q 54.890625 44.34375 54.890625 33.015625 
z
" id="DejaVuSans-110"/>
      <path d="M 18.3125 70.21875 
L 18.3125 54.6875 
L 36.8125 54.6875 
L 36.8125 47.703125 
L 18.3125 47.703125 
L 18.3125 18.015625 
Q 18.3125 11.328125 20.140625 9.421875 
Q 21.96875 7.515625 27.59375 7.515625 
L 36.8125 7.515625 
L 36.8125 0 
L 27.59375 0 
Q 17.1875 0 13.234375 3.875 
Q 9.28125 7.765625 9.28125 18.015625 
L 9.28125 47.703125 
L 2.6875 47.703125 
L 2.6875 54.6875 
L 9.28125 54.6875 
L 9.28125 70.21875 
z
" id="DejaVuSans-116"/>
      <path d="M 41.109375 46.296875 
Q 39.59375 47.171875 37.8125 47.578125 
Q 36.03125 48 33.890625 48 
Q 26.265625 48 22.1875 43.046875 
Q 18.109375 38.09375 18.109375 28.8125 
L 18.109375 0 
L 9.078125 0 
L 9.078125 54.6875 
L 18.109375 54.6875 
L 18.109375 46.1875 
Q 20.953125 51.171875 25.484375 53.578125 
Q 30.03125 56 36.53125 56 
Q 37.453125 56 38.578125 55.875 
Q 39.703125 55.765625 41.0625 55.515625 
z
" id="DejaVuSans-114"/>
      <path d="M 30.609375 48.390625 
Q 23.390625 48.390625 19.1875 42.75 
Q 14.984375 37.109375 14.984375 27.296875 
Q 14.984375 17.484375 19.15625 11.84375 
Q 23.34375 6.203125 30.609375 6.203125 
Q 37.796875 6.203125 41.984375 11.859375 
Q 46.1875 17.53125 46.1875 27.296875 
Q 46.1875 37.015625 41.984375 42.703125 
Q 37.796875 48.390625 30.609375 48.390625 
z
M 30.609375 56 
Q 42.328125 56 49.015625 48.375 
Q 55.71875 40.765625 55.71875 27.296875 
Q 55.71875 13.875 49.015625 6.21875 
Q 42.328125 -1.421875 30.609375 -1.421875 
Q 18.84375 -1.421875 12.171875 6.21875 
Q 5.515625 13.875 5.515625 27.296875 
Q 5.515625 40.765625 12.171875 48.375 
Q 18.84375 56 30.609375 56 
z
" id="DejaVuSans-111"/>
      <path d="M 18.109375 8.203125 
L 18.109375 -20.796875 
L 9.078125 -20.796875 
L 9.078125 54.6875 
L 18.109375 54.6875 
L 18.109375 46.390625 
Q 20.953125 51.265625 25.265625 53.625 
Q 29.59375 56 35.59375 56 
Q 45.5625 56 51.78125 48.09375 
Q 58.015625 40.1875 58.015625 27.296875 
Q 58.015625 14.40625 51.78125 6.484375 
Q 45.5625 -1.421875 35.59375 -1.421875 
Q 29.59375 -1.421875 25.265625 0.953125 
Q 20.953125 3.328125 18.109375 8.203125 
z
M 48.6875 27.296875 
Q 48.6875 37.203125 44.609375 42.84375 
Q 40.53125 48.484375 33.40625 48.484375 
Q 26.265625 48.484375 22.1875 42.84375 
Q 18.109375 37.203125 18.109375 27.296875 
Q 18.109375 17.390625 22.1875 11.75 
Q 26.265625 6.109375 33.40625 6.109375 
Q 40.53125 6.109375 44.609375 11.75 
Q 48.6875 17.390625 48.6875 27.296875 
z
" id="DejaVuSans-112"/>
      <path d="M 32.171875 -5.078125 
Q 28.375 -14.84375 24.75 -17.8125 
Q 21.140625 -20.796875 15.09375 -20.796875 
L 7.90625 -20.796875 
L 7.90625 -13.28125 
L 13.1875 -13.28125 
Q 16.890625 -13.28125 18.9375 -11.515625 
Q 21 -9.765625 23.484375 -3.21875 
L 25.09375 0.875 
L 2.984375 54.6875 
L 12.5 54.6875 
L 29.59375 11.921875 
L 46.6875 54.6875 
L 56.203125 54.6875 
z
" id="DejaVuSans-121"/>
     </defs>
     <g transform="translate(192.854531 284.195)scale(0.3 -0.3)">
      <use xlink:href="#DejaVuSans-101"/>
      <use x="61.523438" xlink:href="#DejaVuSans-110"/>
      <use x="124.902344" xlink:href="#DejaVuSans-116"/>
      <use x="164.111328" xlink:href="#DejaVuSans-114"/>
      <use x="205.193359" xlink:href="#DejaVuSans-111"/>
      <use x="266.375" xlink:href="#DejaVuSans-112"/>
      <use x="329.851562" xlink:href="#DejaVuSans-121"/>
     </g>
    </g>
   </g>
   <g id="matplotlib.axis_2">
    <g id="ytick_1">
     <g id="line2d_5">
      <defs>
       <path d="M 0 0 
L -3.5 0 
" id="me6cd4c4d77" style="stroke:#000000;stroke-width:0.8;"/>
      </defs>
      <g>
       <use style="stroke:#000000;stroke-width:0.8;" x="83.811563" xlink:href="#me6cd4c4d77" y="218.360566"/>
      </g>
     </g>
     <g id="text_6">
      <!-- 0.0 -->
      <g transform="translate(40.234375 227.09877)scale(0.23 -0.23)">
       <use xlink:href="#DejaVuSans-48"/>
       <use x="63.623047" xlink:href="#DejaVuSans-46"/>
       <use x="95.410156" xlink:href="#DejaVuSans-48"/>
      </g>
     </g>
    </g>
    <g id="ytick_2">
     <g id="line2d_6">
      <g>
       <use style="stroke:#000000;stroke-width:0.8;" x="83.811563" xlink:href="#me6cd4c4d77" y="178.80518"/>
      </g>
     </g>
     <g id="text_7">
      <!-- 0.2 -->
      <g transform="translate(40.234375 187.543384)scale(0.23 -0.23)">
       <use xlink:href="#DejaVuSans-48"/>
       <use x="63.623047" xlink:href="#DejaVuSans-46"/>
       <use x="95.410156" xlink:href="#DejaVuSans-50"/>
      </g>
     </g>
    </g>
    <g id="ytick_3">
     <g id="line2d_7">
      <g>
       <use style="stroke:#000000;stroke-width:0.8;" x="83.811563" xlink:href="#me6cd4c4d77" y="139.249794"/>
      </g>
     </g>
     <g id="text_8">
      <!-- 0.4 -->
      <defs>
       <path d="M 37.796875 64.3125 
L 12.890625 25.390625 
L 37.796875 25.390625 
z
M 35.203125 72.90625 
L 47.609375 72.90625 
L 47.609375 25.390625 
L 58.015625 25.390625 
L 58.015625 17.1875 
L 47.609375 17.1875 
L 47.609375 0 
L 37.796875 0 
L 37.796875 17.1875 
L 4.890625 17.1875 
L 4.890625 26.703125 
z
" id="DejaVuSans-52"/>
      </defs>
      <g transform="translate(40.234375 147.987998)scale(0.23 -0.23)">
       <use xlink:href="#DejaVuSans-48"/>
       <use x="63.623047" xlink:href="#DejaVuSans-46"/>
       <use x="95.410156" xlink:href="#DejaVuSans-52"/>
      </g>
     </g>
    </g>
    <g id="ytick_4">
     <g id="line2d_8">
      <g>
       <use style="stroke:#000000;stroke-width:0.8;" x="83.811563" xlink:href="#me6cd4c4d77" y="99.694408"/>
      </g>
     </g>
     <g id="text_9">
      <!-- 0.6 -->
      <g transform="translate(40.234375 108.432612)scale(0.23 -0.23)">
       <use xlink:href="#DejaVuSans-48"/>
       <use x="63.623047" xlink:href="#DejaVuSans-46"/>
       <use x="95.410156" xlink:href="#DejaVuSans-54"/>
      </g>
     </g>
    </g>
    <g id="ytick_5">
     <g id="line2d_9">
      <g>
       <use style="stroke:#000000;stroke-width:0.8;" x="83.811563" xlink:href="#me6cd4c4d77" y="60.139022"/>
      </g>
     </g>
     <g id="text_10">
      <!-- 0.8 -->
      <g transform="translate(40.234375 68.877226)scale(0.23 -0.23)">
       <use xlink:href="#DejaVuSans-48"/>
       <use x="63.623047" xlink:href="#DejaVuSans-46"/>
       <use x="95.410156" xlink:href="#DejaVuSans-56"/>
      </g>
     </g>
    </g>
    <g id="ytick_6">
     <g id="line2d_10">
      <g>
       <use style="stroke:#000000;stroke-width:0.8;" x="83.811563" xlink:href="#me6cd4c4d77" y="20.583636"/>
      </g>
     </g>
     <g id="text_11">
      <!-- 1.0 -->
      <g transform="translate(40.234375 29.321839)scale(0.23 -0.23)">
       <use xlink:href="#DejaVuSans-49"/>
       <use x="63.623047" xlink:href="#DejaVuSans-46"/>
       <use x="95.410156" xlink:href="#DejaVuSans-48"/>
      </g>
     </g>
    </g>
    <g id="text_12">
     <!-- ICDF -->
     <defs>
      <path d="M 9.8125 72.90625 
L 19.671875 72.90625 
L 19.671875 0 
L 9.8125 0 
z
" id="DejaVuSans-73"/>
      <path d="M 64.40625 67.28125 
L 64.40625 56.890625 
Q 59.421875 61.53125 53.78125 63.8125 
Q 48.140625 66.109375 41.796875 66.109375 
Q 29.296875 66.109375 22.65625 58.46875 
Q 16.015625 50.828125 16.015625 36.375 
Q 16.015625 21.96875 22.65625 14.328125 
Q 29.296875 6.6875 41.796875 6.6875 
Q 48.140625 6.6875 53.78125 8.984375 
Q 59.421875 11.28125 64.40625 15.921875 
L 64.40625 5.609375 
Q 59.234375 2.09375 53.4375 0.328125 
Q 47.65625 -1.421875 41.21875 -1.421875 
Q 24.65625 -1.421875 15.125 8.703125 
Q 5.609375 18.84375 5.609375 36.375 
Q 5.609375 53.953125 15.125 64.078125 
Q 24.65625 74.21875 41.21875 74.21875 
Q 47.75 74.21875 53.53125 72.484375 
Q 59.328125 70.75 64.40625 67.28125 
z
" id="DejaVuSans-67"/>
      <path d="M 19.671875 64.796875 
L 19.671875 8.109375 
L 31.59375 8.109375 
Q 46.6875 8.109375 53.6875 14.9375 
Q 60.6875 21.78125 60.6875 36.53125 
Q 60.6875 51.171875 53.6875 57.984375 
Q 46.6875 64.796875 31.59375 64.796875 
z
M 9.8125 72.90625 
L 30.078125 72.90625 
Q 51.265625 72.90625 61.171875 64.09375 
Q 71.09375 55.28125 71.09375 36.53125 
Q 71.09375 17.671875 61.125 8.828125 
Q 51.171875 0 30.078125 0 
L 9.8125 0 
z
" id="DejaVuSans-68"/>
      <path d="M 9.8125 72.90625 
L 51.703125 72.90625 
L 51.703125 64.59375 
L 19.671875 64.59375 
L 19.671875 43.109375 
L 48.578125 43.109375 
L 48.578125 34.8125 
L 19.671875 34.8125 
L 19.671875 0 
L 9.8125 0 
z
" id="DejaVuSans-70"/>
     </defs>
     <g transform="translate(29.995313 154.496562)rotate(-90)scale(0.3 -0.3)">
      <use xlink:href="#DejaVuSans-73"/>
      <use x="29.492188" xlink:href="#DejaVuSans-67"/>
      <use x="99.316406" xlink:href="#DejaVuSans-68"/>
      <use x="176.318359" xlink:href="#DejaVuSans-70"/>
     </g>
    </g>
   </g>
   <g id="line2d_11">
    <path clip-path="url(#p0d8f9a093c)" d="M 98.768198 20.583636 
L 108.298014 20.687839 
L 144.661665 20.896245 
L 148.923615 21.10465 
L 149.050602 21.208853 
L 161.466169 21.83407 
L 161.514392 21.938273 
L 165.267665 22.250881 
L 170.643403 22.459287 
L 173.41906 22.876098 
L 178.937779 23.188707 
L 180.763564 23.397112 
L 180.909008 23.501315 
L 183.879852 23.813923 
L 184.273539 23.918126 
L 190.429191 24.126532 
L 190.690095 24.334937 
L 193.553932 24.647546 
L 193.816541 24.751749 
L 197.996198 25.064357 
L 201.232693 25.376966 
L 201.301417 25.481168 
L 202.880356 25.793777 
L 203.785433 26.002182 
L 203.836178 26.106385 
L 204.668553 26.418994 
L 205.187121 26.731602 
L 207.685327 26.940008 
L 207.852965 27.04421 
L 209.600265 27.356819 
L 209.6355 27.461022 
L 211.190917 28.190441 
L 212.382908 28.398847 
L 212.382908 28.50305 
L 212.79588 28.711455 
L 213.950719 28.919861 
L 213.998287 29.128267 
L 214.434314 29.336672 
L 215.800232 29.649281 
L 216.219354 29.857686 
L 217.672144 30.482903 
L 218.191994 30.899714 
L 218.842043 31.10812 
L 220.261755 31.733337 
L 220.441092 31.83754 
L 221.736745 32.150148 
L 221.935533 32.358554 
L 222.029119 32.462757 
L 222.285473 32.566959 
L 223.076687 32.775365 
L 223.683009 32.983771 
L 223.827608 33.087973 
L 224.510189 33.296379 
L 224.635591 33.400582 
L 225.1966 33.608987 
L 225.453864 33.921596 
L 225.454155 34.025799 
L 227.325017 34.44261 
L 227.346112 34.546813 
L 227.854944 34.755218 
L 228.211581 34.963624 
L 228.422716 35.17203 
L 229.228306 35.380435 
L 229.784956 35.797246 
L 230.413279 36.422463 
L 232.368511 36.943477 
L 232.368511 37.04768 
L 233.003617 37.256086 
L 233.522296 37.985505 
L 234.408919 38.193911 
L 234.802954 38.402317 
L 235.17013 39.027533 
L 235.27353 39.131736 
L 237.800714 39.756953 
L 237.876093 39.965359 
L 237.984096 40.173764 
L 237.998345 40.38217 
L 238.30524 40.694778 
L 239.000223 40.903184 
L 239.355934 41.11159 
L 239.477267 41.319995 
L 239.702653 41.528401 
L 240.135849 41.736806 
L 240.218464 41.841009 
L 240.505526 42.049415 
L 240.537272 42.153618 
L 241.091322 42.466226 
L 241.705734 42.674632 
L 241.757385 42.883037 
L 243.028629 43.612457 
L 243.08128 43.71666 
L 243.316834 43.925065 
L 243.330091 44.029268 
L 244.008278 44.446079 
L 244.814525 44.654485 
L 244.975244 45.071296 
L 245.857292 45.800716 
L 245.901071 46.009122 
L 247.174902 46.425933 
L 247.396227 46.842744 
L 248.25909 47.467961 
L 248.327381 47.572164 
L 248.631526 47.780569 
L 248.70798 47.884772 
L 249.080054 48.093178 
L 249.119121 48.301583 
L 249.680729 48.509989 
L 250.23851 49.239409 
L 250.342843 49.447814 
L 250.877169 49.65622 
L 251.60701 50.38564 
L 252.769407 51.010856 
L 252.937714 51.427668 
L 253.165491 51.636073 
L 254.039078 52.365493 
L 254.435817 52.573899 
L 254.535688 52.886507 
L 254.956198 53.199115 
L 255.144572 53.511724 
L 255.144572 53.720129 
L 255.586198 54.241143 
L 255.83865 54.762157 
L 256.145013 54.970563 
L 256.288466 55.283172 
L 257.255947 56.637808 
L 258.242262 57.054619 
L 258.41116 57.263025 
L 258.821967 57.679836 
L 259.429151 57.992445 
L 259.836541 58.409256 
L 260.521623 58.721864 
L 260.533978 58.826067 
L 261.21429 59.034473 
L 261.351654 59.555487 
L 261.86671 60.180704 
L 262.251029 60.389109 
L 263.254085 61.014326 
L 263.271502 61.118529 
L 263.606517 61.326934 
L 263.683934 61.53534 
L 264.123561 61.743746 
L 264.768833 62.368962 
L 264.820022 62.577368 
L 265.337372 62.785774 
L 265.691494 63.723599 
L 266.255104 64.244613 
L 266.471679 64.661424 
L 266.934725 64.86983 
L 268.816382 67.370697 
L 269.362555 67.787509 
L 269.488956 68.20432 
L 269.858153 68.725334 
L 270.13733 69.246348 
L 270.266446 69.558956 
L 270.597442 69.975767 
L 271.048016 70.184173 
L 271.936413 71.330404 
L 272.204792 71.53881 
L 273.963129 74.352285 
L 274.094325 74.560691 
L 274.13007 74.769097 
L 274.319903 75.185908 
L 274.362597 75.706922 
L 274.481296 75.915328 
L 274.71961 76.644747 
L 274.908163 76.957356 
L 275.098434 77.47837 
L 275.459045 77.790978 
L 275.721028 78.520398 
L 275.868795 79.041412 
L 276.148871 79.666629 
L 276.317352 80.187643 
L 276.355263 80.291845 
L 276.881726 80.604454 
L 277.11859 80.81286 
L 277.149352 80.917062 
L 277.355924 81.125468 
L 277.378201 81.229671 
L 277.789848 81.438076 
L 277.990462 81.95909 
L 278.256854 82.167496 
L 278.307114 82.375902 
L 278.577668 82.584307 
L 278.883795 83.209524 
L 279.171132 83.730538 
L 279.184018 83.938944 
L 279.527372 84.251552 
L 279.613418 84.564161 
L 280.620584 85.918797 
L 280.691476 86.335608 
L 280.89378 86.544014 
L 280.951613 86.648217 
L 281.157529 86.856622 
L 281.487847 87.273434 
L 281.487847 87.377636 
L 281.752136 87.690245 
L 281.824597 88.002853 
L 281.949605 88.211259 
L 281.951022 88.62807 
L 282.136237 88.940679 
L 282.445909 89.774301 
L 282.711082 90.503721 
L 282.787962 90.920532 
L 282.931758 91.23314 
L 283.099453 91.754154 
L 283.536737 92.066763 
L 283.568006 92.275168 
L 283.810136 92.483574 
L 283.918258 92.796182 
L 284.035475 93.108791 
L 284.50192 94.150819 
L 284.727755 94.463427 
L 284.790985 94.671833 
L 284.98568 95.088644 
L 285.236402 95.401253 
L 285.536294 95.609658 
L 285.568465 95.713861 
L 285.745367 95.922267 
L 285.91329 96.130672 
L 286.206502 96.339078 
L 286.390524 96.860092 
L 286.588198 97.1727 
L 286.724334 97.589512 
L 286.87972 97.90212 
L 286.907246 98.110526 
L 287.19754 98.423134 
L 287.456656 98.944148 
L 287.771099 99.360959 
L 288.156031 100.402987 
L 288.31392 100.715596 
L 288.681076 100.924002 
L 288.705051 101.132407 
L 288.995024 101.340813 
L 289.129528 101.861827 
L 289.223255 102.174435 
L 289.634542 103.112261 
L 289.683041 103.320666 
L 289.997466 103.84168 
L 290.089622 104.154289 
L 290.364863 104.466897 
L 290.737366 105.092114 
L 291.301699 106.342548 
L 291.611959 106.759359 
L 292.724671 108.530807 
L 292.833703 108.947618 
L 293.103846 109.260226 
L 293.255141 109.78124 
L 293.511725 110.093849 
L 293.770947 110.302254 
L 293.855265 110.51066 
L 294.308343 110.927471 
L 294.788568 111.656891 
L 294.84423 111.969499 
L 295.078935 112.177905 
L 296.361952 114.678772 
L 296.571328 114.887178 
L 296.943027 115.7208 
L 297.18113 116.137612 
L 297.194634 116.241814 
L 297.469082 116.554423 
L 297.72459 116.867031 
L 297.839919 117.075437 
L 298.123058 117.492248 
L 298.569066 117.700654 
L 298.745735 118.117465 
L 299.123742 118.846885 
L 299.227151 119.367899 
L 299.571059 120.201521 
L 299.893223 121.451955 
L 300.579295 122.910794 
L 301.167519 124.265431 
L 301.34689 124.473836 
L 301.875035 125.307459 
L 301.90458 125.515864 
L 302.057178 125.72427 
L 302.612575 126.662095 
L 302.752204 126.870501 
L 303.032511 127.59992 
L 303.179679 127.808326 
L 303.486118 128.954557 
L 303.675097 129.162963 
L 303.805119 129.475571 
L 304.010389 129.892382 
L 304.145192 130.204991 
L 304.55696 130.517599 
L 304.770275 130.93441 
L 304.949626 131.142816 
L 305.590671 132.39325 
L 305.875242 132.601655 
L 305.966773 133.226872 
L 306.289906 133.956292 
L 306.715832 134.164697 
L 306.842832 134.581509 
L 306.940605 134.99832 
L 307.150162 135.623537 
L 307.429328 135.831942 
L 307.535597 136.248754 
L 309.032393 139.062229 
L 309.126456 139.374838 
L 309.302149 140.312663 
L 309.381607 140.521069 
L 309.652729 140.729474 
L 309.667976 140.93788 
L 309.807579 141.146286 
L 309.839971 141.354691 
L 310.053572 141.563097 
L 311.709578 145.001789 
L 311.845239 145.210195 
L 311.853706 145.314398 
L 312.204924 145.522803 
L 312.220476 145.731209 
L 312.456076 145.939615 
L 312.735141 146.252223 
L 313.094457 146.87744 
L 313.420803 147.711062 
L 313.595293 147.919468 
L 313.705677 148.232076 
L 313.988203 148.961496 
L 314.392328 149.274105 
L 314.532633 149.586713 
L 314.809812 149.795119 
L 314.918392 150.003524 
L 315.115013 150.628741 
L 315.848605 152.400189 
L 316.374453 153.025406 
L 316.412585 153.338014 
L 317.174195 153.859028 
L 317.514678 154.901056 
L 317.798976 155.213665 
L 317.962248 155.943084 
L 318.412455 156.359896 
L 318.841495 157.506126 
L 318.891457 157.818735 
L 319.094866 158.02714 
L 319.816192 159.173371 
L 320.002892 159.902791 
L 320.619452 160.736413 
L 320.634315 160.840616 
L 320.892698 161.153225 
L 320.973123 161.36163 
L 321.368084 161.674239 
L 321.488003 162.403658 
L 321.841494 163.028875 
L 322.296664 163.549889 
L 322.40314 163.862498 
L 322.602922 164.070903 
L 322.717207 164.279309 
L 322.727785 164.383512 
L 322.90152 164.591917 
L 323.019264 165.008729 
L 323.193982 165.217134 
L 323.697883 165.946554 
L 324.321899 166.15496 
L 324.402102 166.571771 
L 324.754561 167.092785 
L 325.082426 167.509596 
L 325.187325 167.822204 
L 325.40175 168.343218 
L 325.40175 168.447421 
L 325.544572 168.655827 
L 325.64164 169.072638 
L 326.160608 169.906261 
L 326.41947 170.114666 
L 326.686166 171.156694 
L 327.311757 171.781911 
L 327.649047 171.990317 
L 328.031963 172.719736 
L 328.114978 173.032345 
L 328.610333 173.24075 
L 328.700877 173.449156 
L 329.483962 173.761765 
L 329.557521 174.178576 
L 330.176337 174.803793 
L 330.790296 175.741618 
L 330.991676 175.950023 
L 331.089412 176.158429 
L 331.537082 177.096254 
L 331.677575 177.30466 
L 331.776037 177.721471 
L 332.42218 178.763499 
L 332.436727 178.867702 
L 332.737565 179.180311 
L 332.737565 179.284513 
L 333.125807 179.492919 
L 333.241326 179.805527 
L 333.493502 180.118136 
L 333.646593 180.534947 
L 334.382145 181.36857 
L 334.513341 181.681178 
L 334.659373 181.993786 
L 334.873234 182.306395 
L 335.032998 182.619003 
L 335.276271 182.931612 
L 335.646503 183.765234 
L 335.914731 183.97364 
L 336.080775 184.182045 
L 336.241035 184.390451 
L 336.544815 184.703059 
L 336.782425 184.911465 
L 336.87877 185.328276 
L 336.949251 185.432479 
L 337.16302 185.640885 
L 337.233662 185.953493 
L 337.480593 186.161899 
L 337.600615 186.370304 
L 337.705394 186.474507 
L 338.318886 186.682913 
L 338.583425 187.203927 
L 339.407673 187.620738 
L 339.633142 187.933346 
L 339.724936 188.662766 
L 339.91703 188.975375 
L 340.007964 189.287983 
L 340.109164 189.600591 
L 340.288568 189.808997 
L 340.363026 190.017403 
L 340.464875 190.225808 
L 340.544371 190.746822 
L 340.721633 190.955228 
L 340.855603 191.163633 
L 340.962194 191.684648 
L 341.132061 191.893053 
L 341.305977 192.309864 
L 341.704378 192.622473 
L 341.827097 192.830878 
L 341.930314 193.24769 
L 342.487338 193.456095 
L 342.91208 193.664501 
L 343.358206 194.602326 
L 343.468331 195.12334 
L 343.958276 195.331746 
L 344.298517 196.269571 
L 344.601952 196.477977 
L 344.653536 196.686382 
L 344.959797 196.998991 
L 345.011916 197.207396 
L 345.138964 197.415802 
L 345.216831 197.624208 
L 345.407699 198.041019 
L 346.522544 198.45783 
L 346.633556 198.770438 
L 346.775247 199.083047 
L 347.181316 199.395655 
L 347.555759 199.604061 
L 347.663524 200.020872 
L 347.904943 200.333481 
L 347.923787 200.437683 
L 348.237921 200.646089 
L 348.609169 200.958697 
L 348.963968 201.479712 
L 349.25673 201.688117 
L 349.369331 201.79232 
L 349.927434 202.000726 
L 349.927434 202.104928 
L 350.283738 202.313334 
L 350.540054 202.625942 
L 350.973882 202.834348 
L 350.982994 202.938551 
L 352.064383 203.459565 
L 352.146744 203.772173 
L 352.522345 203.980579 
L 352.610337 204.188985 
L 352.715282 204.39739 
L 353.162555 204.814201 
L 353.172891 204.918404 
L 353.756545 205.12681 
L 353.951855 205.335215 
L 354.218145 205.543621 
L 354.50667 205.960432 
L 354.757067 206.168838 
L 354.813831 206.481446 
L 354.942954 206.585649 
L 355.675003 206.898258 
L 355.753672 207.210866 
L 356.22226 207.419272 
L 356.529195 207.836083 
L 357.357284 208.148691 
L 357.567273 208.4613 
L 358.369418 209.399125 
L 358.498363 209.607531 
L 359.094864 209.920139 
L 359.706871 210.128545 
L 360.077011 210.441153 
L 360.207417 210.649559 
L 360.935029 210.857964 
L 361.36423 211.170573 
L 361.450108 211.274775 
L 362.335629 211.587384 
L 362.923881 212.212601 
L 362.95633 212.316804 
L 363.452008 212.525209 
L 364.557432 212.94202 
L 364.631981 213.150426 
L 364.797846 213.358832 
L 365.907818 213.567237 
L 366.653046 213.984048 
L 366.981774 214.505063 
L 367.12579 214.609265 
L 367.958833 214.817671 
L 368.658191 215.234482 
L 369.005349 215.442888 
L 369.227642 215.547091 
L 369.982912 215.755496 
L 372.547134 215.963902 
L 373.306079 216.172307 
L 376.225605 216.380713 
L 376.380189 216.484916 
L 378.216733 216.797524 
L 378.245025 216.901727 
L 380.993119 217.110133 
L 381.261335 217.318538 
L 385.594098 217.631147 
L 390.279407 217.943755 
L 397.53695 218.152161 
L 397.900918 218.256364 
L 397.900918 218.256364 
" style="fill:none;stroke:#ff0000;stroke-linecap:square;stroke-width:1.5;"/>
   </g>
   <g id="patch_3">
    <path d="M 83.811563 228.14 
L 83.811563 10.7 
" style="fill:none;stroke:#000000;stroke-linecap:square;stroke-linejoin:miter;stroke-width:0.8;"/>
   </g>
   <g id="patch_4">
    <path d="M 418.611562 228.14 
L 418.611562 10.7 
" style="fill:none;stroke:#000000;stroke-linecap:square;stroke-linejoin:miter;stroke-width:0.8;"/>
   </g>
   <g id="patch_5">
    <path d="M 83.811563 228.14 
L 418.611562 228.14 
" style="fill:none;stroke:#000000;stroke-linecap:square;stroke-linejoin:miter;stroke-width:0.8;"/>
   </g>
   <g id="patch_6">
    <path d="M 83.811563 10.7 
L 418.611562 10.7 
" style="fill:none;stroke:#000000;stroke-linecap:square;stroke-linejoin:miter;stroke-width:0.8;"/>
   </g>
  </g>
 </g>
 <defs>
  <clipPath id="p0d8f9a093c">
   <rect height="217.44" width="334.8" x="83.811563" y="10.7"/>
  </clipPath>
 </defs>
</svg>
