<?xml version="1.0" encoding="utf-8" standalone="no"?>
<!DOCTYPE svg PUBLIC "-//W3C//DTD SVG 1.1//EN"
  "http://www.w3.org/Graphics/SVG/1.1/DTD/svg11.dtd">
<!-- Created with matplotlib (https://matplotlib.org/) -->
<svg height="297.634062pt" version="1.1" viewBox="0 0 466.050781 297.634062" width="466.050781pt" xmlns="http://www.w3.org/2000/svg" xmlns:xlink="http://www.w3.org/1999/xlink">
 <defs>
  <style type="text/css">
*{stroke-linecap:butt;stroke-linejoin:round;}
  </style>
 </defs>
 <g id="figure_1">
  <g id="patch_1">
   <path d="M 0 297.634062 
L 466.050781 297.634062 
L 466.050781 0 
L 0 0 
z
" style="fill:#ffffff;"/>
  </g>
  <g id="axes_1">
   <g id="patch_2">
    <path d="M 98.445312 228.14 
L 433.245313 228.14 
L 433.245313 10.7 
L 98.445312 10.7 
z
" style="fill:#ffffff;"/>
   </g>
   <g id="matplotlib.axis_1">
    <g id="xtick_1">
     <g id="line2d_1">
      <defs>
       <path d="M 0 0 
L 0 3.5 
" id="m802626fa78" style="stroke:#000000;stroke-width:0.8;"/>
      </defs>
      <g>
       <use style="stroke:#000000;stroke-width:0.8;" x="113.345131" xlink:href="#m802626fa78" y="228.14"/>
      </g>
     </g>
     <g id="text_1">
      <!-- 0.00 -->
      <defs>
       <path d="M 31.78125 66.40625 
Q 24.171875 66.40625 20.328125 58.90625 
Q 16.5 51.421875 16.5 36.375 
Q 16.5 21.390625 20.328125 13.890625 
Q 24.171875 6.390625 31.78125 6.390625 
Q 39.453125 6.390625 43.28125 13.890625 
Q 47.125 21.390625 47.125 36.375 
Q 47.125 51.421875 43.28125 58.90625 
Q 39.453125 66.40625 31.78125 66.40625 
z
M 31.78125 74.21875 
Q 44.046875 74.21875 50.515625 64.515625 
Q 56.984375 54.828125 56.984375 36.375 
Q 56.984375 17.96875 50.515625 8.265625 
Q 44.046875 -1.421875 31.78125 -1.421875 
Q 19.53125 -1.421875 13.0625 8.265625 
Q 6.59375 17.96875 6.59375 36.375 
Q 6.59375 54.828125 13.0625 64.515625 
Q 19.53125 74.21875 31.78125 74.21875 
z
" id="DejaVuSans-48"/>
       <path d="M 10.6875 12.40625 
L 21 12.40625 
L 21 0 
L 10.6875 0 
z
" id="DejaVuSans-46"/>
      </defs>
      <g transform="translate(87.739662 252.616406)scale(0.23 -0.23)">
       <use xlink:href="#DejaVuSans-48"/>
       <use x="63.623047" xlink:href="#DejaVuSans-46"/>
       <use x="95.410156" xlink:href="#DejaVuSans-48"/>
       <use x="159.033203" xlink:href="#DejaVuSans-48"/>
      </g>
     </g>
    </g>
    <g id="xtick_2">
     <g id="line2d_2">
      <g>
       <use style="stroke:#000000;stroke-width:0.8;" x="193.320176" xlink:href="#m802626fa78" y="228.14"/>
      </g>
     </g>
     <g id="text_2">
      <!-- 0.69 -->
      <defs>
       <path d="M 33.015625 40.375 
Q 26.375 40.375 22.484375 35.828125 
Q 18.609375 31.296875 18.609375 23.390625 
Q 18.609375 15.53125 22.484375 10.953125 
Q 26.375 6.390625 33.015625 6.390625 
Q 39.65625 6.390625 43.53125 10.953125 
Q 47.40625 15.53125 47.40625 23.390625 
Q 47.40625 31.296875 43.53125 35.828125 
Q 39.65625 40.375 33.015625 40.375 
z
M 52.59375 71.296875 
L 52.59375 62.3125 
Q 48.875 64.0625 45.09375 64.984375 
Q 41.3125 65.921875 37.59375 65.921875 
Q 27.828125 65.921875 22.671875 59.328125 
Q 17.53125 52.734375 16.796875 39.40625 
Q 19.671875 43.65625 24.015625 45.921875 
Q 28.375 48.1875 33.59375 48.1875 
Q 44.578125 48.1875 50.953125 41.515625 
Q 57.328125 34.859375 57.328125 23.390625 
Q 57.328125 12.15625 50.6875 5.359375 
Q 44.046875 -1.421875 33.015625 -1.421875 
Q 20.359375 -1.421875 13.671875 8.265625 
Q 6.984375 17.96875 6.984375 36.375 
Q 6.984375 53.65625 15.1875 63.9375 
Q 23.390625 74.21875 37.203125 74.21875 
Q 40.921875 74.21875 44.703125 73.484375 
Q 48.484375 72.75 52.59375 71.296875 
z
" id="DejaVuSans-54"/>
       <path d="M 10.984375 1.515625 
L 10.984375 10.5 
Q 14.703125 8.734375 18.5 7.8125 
Q 22.3125 6.890625 25.984375 6.890625 
Q 35.75 6.890625 40.890625 13.453125 
Q 46.046875 20.015625 46.78125 33.40625 
Q 43.953125 29.203125 39.59375 26.953125 
Q 35.25 24.703125 29.984375 24.703125 
Q 19.046875 24.703125 12.671875 31.3125 
Q 6.296875 37.9375 6.296875 49.421875 
Q 6.296875 60.640625 12.9375 67.421875 
Q 19.578125 74.21875 30.609375 74.21875 
Q 43.265625 74.21875 49.921875 64.515625 
Q 56.59375 54.828125 56.59375 36.375 
Q 56.59375 19.140625 48.40625 8.859375 
Q 40.234375 -1.421875 26.421875 -1.421875 
Q 22.703125 -1.421875 18.890625 -0.6875 
Q 15.09375 0.046875 10.984375 1.515625 
z
M 30.609375 32.421875 
Q 37.25 32.421875 41.125 36.953125 
Q 45.015625 41.5 45.015625 49.421875 
Q 45.015625 57.28125 41.125 61.84375 
Q 37.25 66.40625 30.609375 66.40625 
Q 23.96875 66.40625 20.09375 61.84375 
Q 16.21875 57.28125 16.21875 49.421875 
Q 16.21875 41.5 20.09375 36.953125 
Q 23.96875 32.421875 30.609375 32.421875 
z
" id="DejaVuSans-57"/>
      </defs>
      <g transform="translate(167.714707 252.616406)scale(0.23 -0.23)">
       <use xlink:href="#DejaVuSans-48"/>
       <use x="63.623047" xlink:href="#DejaVuSans-46"/>
       <use x="95.410156" xlink:href="#DejaVuSans-54"/>
       <use x="159.033203" xlink:href="#DejaVuSans-57"/>
      </g>
     </g>
    </g>
    <g id="xtick_3">
     <g id="line2d_3">
      <g>
       <use style="stroke:#000000;stroke-width:0.8;" x="273.295222" xlink:href="#m802626fa78" y="228.14"/>
      </g>
     </g>
     <g id="text_3">
      <!-- 1.38 -->
      <defs>
       <path d="M 12.40625 8.296875 
L 28.515625 8.296875 
L 28.515625 63.921875 
L 10.984375 60.40625 
L 10.984375 69.390625 
L 28.421875 72.90625 
L 38.28125 72.90625 
L 38.28125 8.296875 
L 54.390625 8.296875 
L 54.390625 0 
L 12.40625 0 
z
" id="DejaVuSans-49"/>
       <path d="M 40.578125 39.3125 
Q 47.65625 37.796875 51.625 33 
Q 55.609375 28.21875 55.609375 21.1875 
Q 55.609375 10.40625 48.1875 4.484375 
Q 40.765625 -1.421875 27.09375 -1.421875 
Q 22.515625 -1.421875 17.65625 -0.515625 
Q 12.796875 0.390625 7.625 2.203125 
L 7.625 11.71875 
Q 11.71875 9.328125 16.59375 8.109375 
Q 21.484375 6.890625 26.8125 6.890625 
Q 36.078125 6.890625 40.9375 10.546875 
Q 45.796875 14.203125 45.796875 21.1875 
Q 45.796875 27.640625 41.28125 31.265625 
Q 36.765625 34.90625 28.71875 34.90625 
L 20.21875 34.90625 
L 20.21875 43.015625 
L 29.109375 43.015625 
Q 36.375 43.015625 40.234375 45.921875 
Q 44.09375 48.828125 44.09375 54.296875 
Q 44.09375 59.90625 40.109375 62.90625 
Q 36.140625 65.921875 28.71875 65.921875 
Q 24.65625 65.921875 20.015625 65.03125 
Q 15.375 64.15625 9.8125 62.3125 
L 9.8125 71.09375 
Q 15.4375 72.65625 20.34375 73.4375 
Q 25.25 74.21875 29.59375 74.21875 
Q 40.828125 74.21875 47.359375 69.109375 
Q 53.90625 64.015625 53.90625 55.328125 
Q 53.90625 49.265625 50.4375 45.09375 
Q 46.96875 40.921875 40.578125 39.3125 
z
" id="DejaVuSans-51"/>
       <path d="M 31.78125 34.625 
Q 24.75 34.625 20.71875 30.859375 
Q 16.703125 27.09375 16.703125 20.515625 
Q 16.703125 13.921875 20.71875 10.15625 
Q 24.75 6.390625 31.78125 6.390625 
Q 38.8125 6.390625 42.859375 10.171875 
Q 46.921875 13.96875 46.921875 20.515625 
Q 46.921875 27.09375 42.890625 30.859375 
Q 38.875 34.625 31.78125 34.625 
z
M 21.921875 38.8125 
Q 15.578125 40.375 12.03125 44.71875 
Q 8.5 49.078125 8.5 55.328125 
Q 8.5 64.0625 14.71875 69.140625 
Q 20.953125 74.21875 31.78125 74.21875 
Q 42.671875 74.21875 48.875 69.140625 
Q 55.078125 64.0625 55.078125 55.328125 
Q 55.078125 49.078125 51.53125 44.71875 
Q 48 40.375 41.703125 38.8125 
Q 48.828125 37.15625 52.796875 32.3125 
Q 56.78125 27.484375 56.78125 20.515625 
Q 56.78125 9.90625 50.3125 4.234375 
Q 43.84375 -1.421875 31.78125 -1.421875 
Q 19.734375 -1.421875 13.25 4.234375 
Q 6.78125 9.90625 6.78125 20.515625 
Q 6.78125 27.484375 10.78125 32.3125 
Q 14.796875 37.15625 21.921875 38.8125 
z
M 18.3125 54.390625 
Q 18.3125 48.734375 21.84375 45.5625 
Q 25.390625 42.390625 31.78125 42.390625 
Q 38.140625 42.390625 41.71875 45.5625 
Q 45.3125 48.734375 45.3125 54.390625 
Q 45.3125 60.0625 41.71875 63.234375 
Q 38.140625 66.40625 31.78125 66.40625 
Q 25.390625 66.40625 21.84375 63.234375 
Q 18.3125 60.0625 18.3125 54.390625 
z
" id="DejaVuSans-56"/>
      </defs>
      <g transform="translate(247.689753 252.616406)scale(0.23 -0.23)">
       <use xlink:href="#DejaVuSans-49"/>
       <use x="63.623047" xlink:href="#DejaVuSans-46"/>
       <use x="95.410156" xlink:href="#DejaVuSans-51"/>
       <use x="159.033203" xlink:href="#DejaVuSans-56"/>
      </g>
     </g>
    </g>
    <g id="xtick_4">
     <g id="line2d_4">
      <g>
       <use style="stroke:#000000;stroke-width:0.8;" x="353.270267" xlink:href="#m802626fa78" y="228.14"/>
      </g>
     </g>
     <g id="text_4">
      <!-- 2.07 -->
      <defs>
       <path d="M 19.1875 8.296875 
L 53.609375 8.296875 
L 53.609375 0 
L 7.328125 0 
L 7.328125 8.296875 
Q 12.9375 14.109375 22.625 23.890625 
Q 32.328125 33.6875 34.8125 36.53125 
Q 39.546875 41.84375 41.421875 45.53125 
Q 43.3125 49.21875 43.3125 52.78125 
Q 43.3125 58.59375 39.234375 62.25 
Q 35.15625 65.921875 28.609375 65.921875 
Q 23.96875 65.921875 18.8125 64.3125 
Q 13.671875 62.703125 7.8125 59.421875 
L 7.8125 69.390625 
Q 13.765625 71.78125 18.9375 73 
Q 24.125 74.21875 28.421875 74.21875 
Q 39.75 74.21875 46.484375 68.546875 
Q 53.21875 62.890625 53.21875 53.421875 
Q 53.21875 48.921875 51.53125 44.890625 
Q 49.859375 40.875 45.40625 35.40625 
Q 44.1875 33.984375 37.640625 27.21875 
Q 31.109375 20.453125 19.1875 8.296875 
z
" id="DejaVuSans-50"/>
       <path d="M 8.203125 72.90625 
L 55.078125 72.90625 
L 55.078125 68.703125 
L 28.609375 0 
L 18.3125 0 
L 43.21875 64.59375 
L 8.203125 64.59375 
z
" id="DejaVuSans-55"/>
      </defs>
      <g transform="translate(327.664798 252.616406)scale(0.23 -0.23)">
       <use xlink:href="#DejaVuSans-50"/>
       <use x="63.623047" xlink:href="#DejaVuSans-46"/>
       <use x="95.410156" xlink:href="#DejaVuSans-48"/>
       <use x="159.033203" xlink:href="#DejaVuSans-55"/>
      </g>
     </g>
    </g>
    <g id="xtick_5">
     <g id="line2d_5">
      <g>
       <use style="stroke:#000000;stroke-width:0.8;" x="433.245312" xlink:href="#m802626fa78" y="228.14"/>
      </g>
     </g>
     <g id="text_5">
      <!-- 2.76 -->
      <g transform="translate(407.639844 252.616406)scale(0.23 -0.23)">
       <use xlink:href="#DejaVuSans-50"/>
       <use x="63.623047" xlink:href="#DejaVuSans-46"/>
       <use x="95.410156" xlink:href="#DejaVuSans-55"/>
       <use x="159.033203" xlink:href="#DejaVuSans-54"/>
      </g>
     </g>
    </g>
    <g id="text_6">
     <!-- entropy -->
     <defs>
      <path d="M 56.203125 29.59375 
L 56.203125 25.203125 
L 14.890625 25.203125 
Q 15.484375 15.921875 20.484375 11.0625 
Q 25.484375 6.203125 34.421875 6.203125 
Q 39.59375 6.203125 44.453125 7.46875 
Q 49.3125 8.734375 54.109375 11.28125 
L 54.109375 2.78125 
Q 49.265625 0.734375 44.1875 -0.34375 
Q 39.109375 -1.421875 33.890625 -1.421875 
Q 20.796875 -1.421875 13.15625 6.1875 
Q 5.515625 13.8125 5.515625 26.8125 
Q 5.515625 40.234375 12.765625 48.109375 
Q 20.015625 56 32.328125 56 
Q 43.359375 56 49.78125 48.890625 
Q 56.203125 41.796875 56.203125 29.59375 
z
M 47.21875 32.234375 
Q 47.125 39.59375 43.09375 43.984375 
Q 39.0625 48.390625 32.421875 48.390625 
Q 24.90625 48.390625 20.390625 44.140625 
Q 15.875 39.890625 15.1875 32.171875 
z
" id="DejaVuSans-101"/>
      <path d="M 54.890625 33.015625 
L 54.890625 0 
L 45.90625 0 
L 45.90625 32.71875 
Q 45.90625 40.484375 42.875 44.328125 
Q 39.84375 48.1875 33.796875 48.1875 
Q 26.515625 48.1875 22.3125 43.546875 
Q 18.109375 38.921875 18.109375 30.90625 
L 18.109375 0 
L 9.078125 0 
L 9.078125 54.6875 
L 18.109375 54.6875 
L 18.109375 46.1875 
Q 21.34375 51.125 25.703125 53.5625 
Q 30.078125 56 35.796875 56 
Q 45.21875 56 50.046875 50.171875 
Q 54.890625 44.34375 54.890625 33.015625 
z
" id="DejaVuSans-110"/>
      <path d="M 18.3125 70.21875 
L 18.3125 54.6875 
L 36.8125 54.6875 
L 36.8125 47.703125 
L 18.3125 47.703125 
L 18.3125 18.015625 
Q 18.3125 11.328125 20.140625 9.421875 
Q 21.96875 7.515625 27.59375 7.515625 
L 36.8125 7.515625 
L 36.8125 0 
L 27.59375 0 
Q 17.1875 0 13.234375 3.875 
Q 9.28125 7.765625 9.28125 18.015625 
L 9.28125 47.703125 
L 2.6875 47.703125 
L 2.6875 54.6875 
L 9.28125 54.6875 
L 9.28125 70.21875 
z
" id="DejaVuSans-116"/>
      <path d="M 41.109375 46.296875 
Q 39.59375 47.171875 37.8125 47.578125 
Q 36.03125 48 33.890625 48 
Q 26.265625 48 22.1875 43.046875 
Q 18.109375 38.09375 18.109375 28.8125 
L 18.109375 0 
L 9.078125 0 
L 9.078125 54.6875 
L 18.109375 54.6875 
L 18.109375 46.1875 
Q 20.953125 51.171875 25.484375 53.578125 
Q 30.03125 56 36.53125 56 
Q 37.453125 56 38.578125 55.875 
Q 39.703125 55.765625 41.0625 55.515625 
z
" id="DejaVuSans-114"/>
      <path d="M 30.609375 48.390625 
Q 23.390625 48.390625 19.1875 42.75 
Q 14.984375 37.109375 14.984375 27.296875 
Q 14.984375 17.484375 19.15625 11.84375 
Q 23.34375 6.203125 30.609375 6.203125 
Q 37.796875 6.203125 41.984375 11.859375 
Q 46.1875 17.53125 46.1875 27.296875 
Q 46.1875 37.015625 41.984375 42.703125 
Q 37.796875 48.390625 30.609375 48.390625 
z
M 30.609375 56 
Q 42.328125 56 49.015625 48.375 
Q 55.71875 40.765625 55.71875 27.296875 
Q 55.71875 13.875 49.015625 6.21875 
Q 42.328125 -1.421875 30.609375 -1.421875 
Q 18.84375 -1.421875 12.171875 6.21875 
Q 5.515625 13.875 5.515625 27.296875 
Q 5.515625 40.765625 12.171875 48.375 
Q 18.84375 56 30.609375 56 
z
" id="DejaVuSans-111"/>
      <path d="M 18.109375 8.203125 
L 18.109375 -20.796875 
L 9.078125 -20.796875 
L 9.078125 54.6875 
L 18.109375 54.6875 
L 18.109375 46.390625 
Q 20.953125 51.265625 25.265625 53.625 
Q 29.59375 56 35.59375 56 
Q 45.5625 56 51.78125 48.09375 
Q 58.015625 40.1875 58.015625 27.296875 
Q 58.015625 14.40625 51.78125 6.484375 
Q 45.5625 -1.421875 35.59375 -1.421875 
Q 29.59375 -1.421875 25.265625 0.953125 
Q 20.953125 3.328125 18.109375 8.203125 
z
M 48.6875 27.296875 
Q 48.6875 37.203125 44.609375 42.84375 
Q 40.53125 48.484375 33.40625 48.484375 
Q 26.265625 48.484375 22.1875 42.84375 
Q 18.109375 37.203125 18.109375 27.296875 
Q 18.109375 17.390625 22.1875 11.75 
Q 26.265625 6.109375 33.40625 6.109375 
Q 40.53125 6.109375 44.609375 11.75 
Q 48.6875 17.390625 48.6875 27.296875 
z
" id="DejaVuSans-112"/>
      <path d="M 32.171875 -5.078125 
Q 28.375 -14.84375 24.75 -17.8125 
Q 21.140625 -20.796875 15.09375 -20.796875 
L 7.90625 -20.796875 
L 7.90625 -13.28125 
L 13.1875 -13.28125 
Q 16.890625 -13.28125 18.9375 -11.515625 
Q 21 -9.765625 23.484375 -3.21875 
L 25.09375 0.875 
L 2.984375 54.6875 
L 12.5 54.6875 
L 29.59375 11.921875 
L 46.6875 54.6875 
L 56.203125 54.6875 
z
" id="DejaVuSans-121"/>
     </defs>
     <g transform="translate(207.488281 284.195)scale(0.3 -0.3)">
      <use xlink:href="#DejaVuSans-101"/>
      <use x="61.523438" xlink:href="#DejaVuSans-110"/>
      <use x="124.902344" xlink:href="#DejaVuSans-116"/>
      <use x="164.111328" xlink:href="#DejaVuSans-114"/>
      <use x="205.193359" xlink:href="#DejaVuSans-111"/>
      <use x="266.375" xlink:href="#DejaVuSans-112"/>
      <use x="329.851562" xlink:href="#DejaVuSans-121"/>
     </g>
    </g>
   </g>
   <g id="matplotlib.axis_2">
    <g id="ytick_1">
     <g id="line2d_6">
      <defs>
       <path d="M 0 0 
L -3.5 0 
" id="ma9d61f4aed" style="stroke:#000000;stroke-width:0.8;"/>
      </defs>
      <g>
       <use style="stroke:#000000;stroke-width:0.8;" x="98.445312" xlink:href="#ma9d61f4aed" y="218.363041"/>
      </g>
     </g>
     <g id="text_7">
      <!-- 0.00 -->
      <g transform="translate(40.234375 227.101244)scale(0.23 -0.23)">
       <use xlink:href="#DejaVuSans-48"/>
       <use x="63.623047" xlink:href="#DejaVuSans-46"/>
       <use x="95.410156" xlink:href="#DejaVuSans-48"/>
       <use x="159.033203" xlink:href="#DejaVuSans-48"/>
      </g>
     </g>
    </g>
    <g id="ytick_2">
     <g id="line2d_7">
      <g>
       <use style="stroke:#000000;stroke-width:0.8;" x="98.445312" xlink:href="#ma9d61f4aed" y="168.91819"/>
      </g>
     </g>
     <g id="text_8">
      <!-- 0.25 -->
      <defs>
       <path d="M 10.796875 72.90625 
L 49.515625 72.90625 
L 49.515625 64.59375 
L 19.828125 64.59375 
L 19.828125 46.734375 
Q 21.96875 47.46875 24.109375 47.828125 
Q 26.265625 48.1875 28.421875 48.1875 
Q 40.625 48.1875 47.75 41.5 
Q 54.890625 34.8125 54.890625 23.390625 
Q 54.890625 11.625 47.5625 5.09375 
Q 40.234375 -1.421875 26.90625 -1.421875 
Q 22.3125 -1.421875 17.546875 -0.640625 
Q 12.796875 0.140625 7.71875 1.703125 
L 7.71875 11.625 
Q 12.109375 9.234375 16.796875 8.0625 
Q 21.484375 6.890625 26.703125 6.890625 
Q 35.15625 6.890625 40.078125 11.328125 
Q 45.015625 15.765625 45.015625 23.390625 
Q 45.015625 31 40.078125 35.4375 
Q 35.15625 39.890625 26.703125 39.890625 
Q 22.75 39.890625 18.8125 39.015625 
Q 14.890625 38.140625 10.796875 36.28125 
z
" id="DejaVuSans-53"/>
      </defs>
      <g transform="translate(40.234375 177.656393)scale(0.23 -0.23)">
       <use xlink:href="#DejaVuSans-48"/>
       <use x="63.623047" xlink:href="#DejaVuSans-46"/>
       <use x="95.410156" xlink:href="#DejaVuSans-50"/>
       <use x="159.033203" xlink:href="#DejaVuSans-53"/>
      </g>
     </g>
    </g>
    <g id="ytick_3">
     <g id="line2d_8">
      <g>
       <use style="stroke:#000000;stroke-width:0.8;" x="98.445312" xlink:href="#ma9d61f4aed" y="119.473339"/>
      </g>
     </g>
     <g id="text_9">
      <!-- 0.50 -->
      <g transform="translate(40.234375 128.211542)scale(0.23 -0.23)">
       <use xlink:href="#DejaVuSans-48"/>
       <use x="63.623047" xlink:href="#DejaVuSans-46"/>
       <use x="95.410156" xlink:href="#DejaVuSans-53"/>
       <use x="159.033203" xlink:href="#DejaVuSans-48"/>
      </g>
     </g>
    </g>
    <g id="ytick_4">
     <g id="line2d_9">
      <g>
       <use style="stroke:#000000;stroke-width:0.8;" x="98.445312" xlink:href="#ma9d61f4aed" y="70.028487"/>
      </g>
     </g>
     <g id="text_10">
      <!-- 0.75 -->
      <g transform="translate(40.234375 78.766691)scale(0.23 -0.23)">
       <use xlink:href="#DejaVuSans-48"/>
       <use x="63.623047" xlink:href="#DejaVuSans-46"/>
       <use x="95.410156" xlink:href="#DejaVuSans-55"/>
       <use x="159.033203" xlink:href="#DejaVuSans-53"/>
      </g>
     </g>
    </g>
    <g id="ytick_5">
     <g id="line2d_10">
      <g>
       <use style="stroke:#000000;stroke-width:0.8;" x="98.445312" xlink:href="#ma9d61f4aed" y="20.583636"/>
      </g>
     </g>
     <g id="text_11">
      <!-- 1.00 -->
      <g transform="translate(40.234375 29.321839)scale(0.23 -0.23)">
       <use xlink:href="#DejaVuSans-49"/>
       <use x="63.623047" xlink:href="#DejaVuSans-46"/>
       <use x="95.410156" xlink:href="#DejaVuSans-48"/>
       <use x="159.033203" xlink:href="#DejaVuSans-48"/>
      </g>
     </g>
    </g>
    <g id="text_12">
     <!-- ICDF -->
     <defs>
      <path d="M 9.8125 72.90625 
L 19.671875 72.90625 
L 19.671875 0 
L 9.8125 0 
z
" id="DejaVuSans-73"/>
      <path d="M 64.40625 67.28125 
L 64.40625 56.890625 
Q 59.421875 61.53125 53.78125 63.8125 
Q 48.140625 66.109375 41.796875 66.109375 
Q 29.296875 66.109375 22.65625 58.46875 
Q 16.015625 50.828125 16.015625 36.375 
Q 16.015625 21.96875 22.65625 14.328125 
Q 29.296875 6.6875 41.796875 6.6875 
Q 48.140625 6.6875 53.78125 8.984375 
Q 59.421875 11.28125 64.40625 15.921875 
L 64.40625 5.609375 
Q 59.234375 2.09375 53.4375 0.328125 
Q 47.65625 -1.421875 41.21875 -1.421875 
Q 24.65625 -1.421875 15.125 8.703125 
Q 5.609375 18.84375 5.609375 36.375 
Q 5.609375 53.953125 15.125 64.078125 
Q 24.65625 74.21875 41.21875 74.21875 
Q 47.75 74.21875 53.53125 72.484375 
Q 59.328125 70.75 64.40625 67.28125 
z
" id="DejaVuSans-67"/>
      <path d="M 19.671875 64.796875 
L 19.671875 8.109375 
L 31.59375 8.109375 
Q 46.6875 8.109375 53.6875 14.9375 
Q 60.6875 21.78125 60.6875 36.53125 
Q 60.6875 51.171875 53.6875 57.984375 
Q 46.6875 64.796875 31.59375 64.796875 
z
M 9.8125 72.90625 
L 30.078125 72.90625 
Q 51.265625 72.90625 61.171875 64.09375 
Q 71.09375 55.28125 71.09375 36.53125 
Q 71.09375 17.671875 61.125 8.828125 
Q 51.171875 0 30.078125 0 
L 9.8125 0 
z
" id="DejaVuSans-68"/>
      <path d="M 9.8125 72.90625 
L 51.703125 72.90625 
L 51.703125 64.59375 
L 19.671875 64.59375 
L 19.671875 43.109375 
L 48.578125 43.109375 
L 48.578125 34.8125 
L 19.671875 34.8125 
L 19.671875 0 
L 9.8125 0 
z
" id="DejaVuSans-70"/>
     </defs>
     <g transform="translate(29.995312 154.496562)rotate(-90)scale(0.3 -0.3)">
      <use xlink:href="#DejaVuSans-73"/>
      <use x="29.492188" xlink:href="#DejaVuSans-67"/>
      <use x="99.316406" xlink:href="#DejaVuSans-68"/>
      <use x="176.318359" xlink:href="#DejaVuSans-70"/>
     </g>
    </g>
   </g>
   <g id="line2d_11">
    <path clip-path="url(#p2cfc8e1780)" d="M 113.345131 20.583636 
L 150.106311 20.796991 
L 151.676602 20.903668 
L 160.880017 21.117022 
L 160.880017 21.223699 
L 161.975413 21.437053 
L 163.01323 21.650408 
L 163.160332 21.757085 
L 167.73052 21.970439 
L 168.308633 22.077116 
L 172.968635 22.503825 
L 172.968635 22.717179 
L 174.702173 23.03721 
L 174.835668 23.143888 
L 175.782604 23.357242 
L 176.626174 23.570596 
L 177.652924 23.78395 
L 177.679398 23.890627 
L 178.808298 24.424013 
L 182.688084 24.957399 
L 182.902759 25.170753 
L 183.397477 25.384107 
L 184.528776 26.02417 
L 184.536615 26.130847 
L 185.939112 26.557556 
L 186.195811 27.090941 
L 187.120855 27.410973 
L 187.120855 27.624327 
L 188.040536 28.26439 
L 188.320076 28.691098 
L 188.596822 28.904453 
L 188.864663 29.224484 
L 189.286305 29.437838 
L 189.780506 30.077901 
L 190.588273 30.291255 
L 190.725816 30.50461 
L 191.517842 30.717964 
L 191.71562 30.931318 
L 191.763144 31.25135 
L 192.92917 32.638152 
L 193.665794 34.985049 
L 193.684953 35.305081 
L 194.405138 35.731789 
L 194.467674 35.945144 
L 195.083277 36.158498 
L 196.197936 37.225269 
L 198.090814 37.651978 
L 198.098914 37.758655 
L 198.458403 37.972009 
L 198.489717 38.078686 
L 199.57893 38.825426 
L 199.583611 38.932103 
L 200.635849 39.145457 
L 200.814524 39.358812 
L 201.433179 39.572166 
L 201.653395 39.892197 
L 201.73091 39.998875 
L 202.128304 40.212229 
L 202.623063 40.53226 
L 202.662484 40.638937 
L 202.866301 40.852292 
L 203.089007 41.279 
L 203.840327 41.705709 
L 204.007926 41.812386 
L 204.911329 42.132417 
L 205.347092 42.345771 
L 205.371233 42.452449 
L 205.674249 42.665803 
L 206.339626 42.879157 
L 206.839041 43.412543 
L 207.43704 43.625897 
L 207.551238 43.839251 
L 207.613686 44.052606 
L 207.666266 44.159283 
L 208.477852 44.372637 
L 209.44702 45.652763 
L 210.055252 45.866117 
L 210.424755 46.079471 
L 210.512187 46.292825 
L 211.631053 47.146242 
L 212.376836 48.106337 
L 212.784323 48.426368 
L 212.917371 48.853077 
L 213.437915 49.066431 
L 214.031844 49.706494 
L 214.128913 50.026525 
L 214.3938 50.239879 
L 214.741823 50.666588 
L 214.753866 50.773265 
L 215.492193 50.986619 
L 216.329384 51.413328 
L 216.528241 51.733359 
L 216.698751 51.946713 
L 216.808578 52.266745 
L 217.66981 52.586776 
L 217.712405 52.693453 
L 218.45023 52.906808 
L 218.779018 53.120162 
L 218.937405 53.760225 
L 219.551502 54.080256 
L 219.664666 54.29361 
L 219.97563 54.506965 
L 220.262451 55.04035 
L 220.781557 55.78709 
L 221.090094 56.000444 
L 221.165432 56.213799 
L 221.376087 56.427153 
L 221.384582 56.53383 
L 222.076496 56.747184 
L 222.220738 57.067216 
L 222.383902 57.28057 
L 222.492958 57.600601 
L 223.026986 57.920633 
L 225.304739 59.947498 
L 225.804455 60.160853 
L 225.949951 60.587561 
L 226.157799 60.907593 
L 226.296671 61.334301 
L 226.330253 61.547655 
L 227.135132 62.081041 
L 227.799849 63.25449 
L 227.900604 63.574521 
L 228.307501 64.107907 
L 228.382886 64.534615 
L 228.794623 64.961324 
L 229.23987 65.708064 
L 229.619405 66.134772 
L 230.056166 66.774835 
L 230.255752 67.201543 
L 230.811046 67.521575 
L 230.825663 67.628252 
L 231.49361 68.054961 
L 231.892132 68.588346 
L 232.104989 68.8017 
L 232.104989 68.908378 
L 232.400771 69.121732 
L 232.965766 70.081826 
L 233.159839 70.29518 
L 233.5224 70.828566 
L 234.044247 71.148597 
L 234.127387 71.361952 
L 234.570959 71.78866 
L 234.752929 72.108692 
L 234.94342 72.322046 
L 235.014639 72.5354 
L 235.28056 72.962109 
L 235.579054 73.708849 
L 235.822801 73.922203 
L 235.870068 74.135557 
L 236.097957 74.348911 
L 236.475121 75.095651 
L 236.636699 75.52236 
L 236.698282 75.629037 
L 237.027569 75.842391 
L 237.039144 75.949068 
L 237.224972 76.162423 
L 237.490955 76.909163 
L 237.61904 77.122517 
L 237.665888 77.335871 
L 237.975542 77.549225 
L 238.145331 77.869257 
L 238.468938 78.50932 
L 238.545705 78.829351 
L 238.842961 79.149382 
L 238.842961 79.256059 
L 239.04111 79.576091 
L 239.190871 79.896122 
L 239.239499 80.216154 
L 239.377256 80.536185 
L 240.287313 81.816311 
L 240.308221 81.922988 
L 240.520168 82.136342 
L 240.835608 83.416468 
L 241.04329 83.843176 
L 241.303938 84.05653 
L 241.382656 84.163208 
L 241.708882 84.376562 
L 242.127818 84.80327 
L 242.245707 85.656687 
L 242.368417 85.976719 
L 242.560817 86.190073 
L 242.923578 86.403427 
L 243.373196 86.830136 
L 243.373196 86.936813 
L 243.570216 87.150167 
L 243.786554 87.683553 
L 243.914738 88.216939 
L 244.016341 88.430293 
L 244.325231 88.643647 
L 244.626372 89.177033 
L 245.10296 89.497064 
L 245.329709 89.817096 
L 245.643785 90.03045 
L 245.851697 90.350481 
L 246.142432 91.097221 
L 246.72529 91.417253 
L 246.884874 91.843961 
L 246.968424 92.163993 
L 247.121614 92.377347 
L 247.666896 93.444118 
L 247.667597 93.550795 
L 248.042046 93.76415 
L 248.372757 94.830921 
L 248.410863 95.257629 
L 248.911514 95.684338 
L 249.023487 95.791015 
L 249.365262 96.004369 
L 249.471086 96.324401 
L 249.57469 96.644432 
L 249.870296 96.964464 
L 249.876539 97.071141 
L 250.171365 97.284495 
L 250.973365 98.777975 
L 251.888478 99.31136 
L 252.073131 99.738069 
L 252.240279 99.951423 
L 252.555561 100.271455 
L 252.628913 100.591486 
L 252.98578 100.911517 
L 253.519614 101.124872 
L 253.632888 101.444903 
L 253.943174 101.871612 
L 254.051552 102.191643 
L 254.306846 102.725029 
L 254.611195 103.04506 
L 254.920863 103.578446 
L 255.000339 103.898477 
L 255.058149 104.111831 
L 255.365645 104.325186 
L 255.865017 105.711988 
L 256.074219 105.925343 
L 256.147365 106.138697 
L 256.354095 106.352051 
L 256.93191 106.565405 
L 258.280974 108.485594 
L 258.334619 108.592271 
L 258.568626 108.805625 
L 258.703527 109.01898 
L 259.015607 109.232334 
L 259.278443 109.979074 
L 259.791473 110.405782 
L 260.063686 110.939168 
L 260.341463 111.259199 
L 260.481846 111.472554 
L 260.664325 111.899262 
L 260.740123 112.219294 
L 261.412448 112.859356 
L 261.682258 113.179388 
L 261.725451 113.392742 
L 261.966464 113.606096 
L 262.129204 113.819451 
L 262.222486 114.139482 
L 262.400333 114.459513 
L 262.593264 115.099576 
L 262.961848 115.31293 
L 263.20816 115.632962 
L 263.507926 116.486379 
L 263.924667 117.019765 
L 264.054337 117.979859 
L 264.251251 118.193213 
L 264.302609 118.406567 
L 264.556435 118.619922 
L 264.585444 118.939953 
L 265.243099 119.580016 
L 265.336757 119.79337 
L 265.555377 120.006724 
L 265.678576 120.54011 
L 265.87692 120.753464 
L 265.924716 120.860141 
L 266.1331 121.073496 
L 266.342227 121.500204 
L 266.612101 121.820235 
L 266.723889 122.140267 
L 266.745053 122.246944 
L 266.973916 122.460298 
L 267.128605 122.887007 
L 267.532584 123.420392 
L 270.077322 127.474124 
L 270.503702 128.967603 
L 270.970314 129.607666 
L 271.103083 130.461083 
L 271.265344 130.674438 
L 271.399897 131.3145 
L 271.548338 131.527855 
L 271.654329 131.741209 
L 271.919063 132.381272 
L 272.946306 133.55472 
L 273.383602 133.768074 
L 273.73934 134.408137 
L 274.322088 134.941523 
L 274.826145 136.648357 
L 275.168464 136.968388 
L 275.262694 137.395097 
L 275.398214 137.608451 
L 275.747175 138.461868 
L 275.792091 138.675222 
L 275.929068 138.995254 
L 275.939845 139.101931 
L 276.202475 139.315285 
L 276.229971 139.635317 
L 276.717115 139.955348 
L 276.771294 140.062025 
L 277.039541 140.275379 
L 277.073854 140.488734 
L 277.373689 140.702088 
L 277.626475 141.235474 
L 277.850613 141.448828 
L 277.94986 141.768859 
L 278.020762 142.088891 
L 278.246835 142.302245 
L 278.32514 142.515599 
L 278.533343 142.728954 
L 278.557097 142.835631 
L 278.87391 143.048985 
L 278.916492 143.262339 
L 279.178002 143.475693 
L 279.227409 143.582371 
L 279.508126 143.795725 
L 279.609792 144.115756 
L 280.094177 144.862496 
L 280.55364 145.715913 
L 280.771872 145.929268 
L 280.879779 146.142622 
L 281.021491 146.462653 
L 281.209451 147.102716 
L 281.358884 147.422747 
L 281.450504 147.849456 
L 281.581718 148.06281 
L 281.583443 148.169487 
L 282.314892 148.702873 
L 282.572697 149.022904 
L 282.755644 149.342936 
L 283.13663 149.662967 
L 283.21711 149.982999 
L 283.367263 150.196353 
L 283.522315 150.623061 
L 284.007906 150.943093 
L 284.07802 151.156447 
L 284.796205 151.79651 
L 284.824286 151.903187 
L 285.415238 152.223218 
L 285.664905 152.756604 
L 286.799485 154.03673 
L 286.92527 154.570115 
L 287.305541 155.316855 
L 287.524587 155.530209 
L 288.868037 157.877106 
L 289.370457 158.090461 
L 289.5013 158.410492 
L 289.596148 158.623846 
L 290.24546 158.943878 
L 290.446685 159.263909 
L 290.838471 160.117326 
L 291.134946 160.437358 
L 291.224719 160.864066 
L 291.757619 162.037515 
L 291.889279 162.5709 
L 292.710459 164.06438 
L 292.843494 164.384412 
L 292.991639 164.81112 
L 293.378289 165.237829 
L 293.40305 165.451183 
L 293.814012 165.771214 
L 293.89332 165.984569 
L 294.597148 167.264694 
L 294.751844 167.478048 
L 295.140064 168.118111 
L 295.495922 168.54482 
L 295.561378 168.651497 
L 295.815857 168.864851 
L 295.950462 169.184883 
L 296.237049 169.398237 
L 296.388566 169.611591 
L 296.489037 169.931622 
L 296.954411 170.144977 
L 297.015298 170.358331 
L 297.53416 170.998394 
L 297.624332 171.425102 
L 297.881735 171.745134 
L 297.973139 172.065165 
L 299.084756 173.131936 
L 299.35018 173.665322 
L 299.603929 173.878676 
L 299.649134 174.198708 
L 299.989657 174.412062 
L 300.080887 174.732093 
L 300.130866 174.945448 
L 300.470087 175.265479 
L 300.569433 175.478833 
L 300.601723 175.692188 
L 301.020455 176.118896 
L 301.168716 176.438928 
L 301.617293 176.758959 
L 301.712481 177.07899 
L 301.80625 177.292345 
L 302.564679 177.82573 
L 302.69807 178.359116 
L 303.228499 178.57247 
L 303.318245 178.785824 
L 303.445877 178.999179 
L 303.517406 179.31921 
L 303.9923 179.745919 
L 304.299308 179.959273 
L 304.467525 180.172627 
L 304.601101 180.385981 
L 304.831977 180.599336 
L 304.886939 180.706013 
L 305.164209 180.919367 
L 305.252769 181.132721 
L 305.305276 181.239399 
L 306.136708 181.772784 
L 306.388118 181.986138 
L 306.622936 182.30617 
L 307.373588 183.266264 
L 307.796294 183.479618 
L 307.951658 183.692973 
L 307.958443 183.79965 
L 308.625525 184.333035 
L 308.900561 184.973098 
L 309.65952 185.613161 
L 309.768385 185.933192 
L 309.902509 186.253224 
L 310.219058 186.466578 
L 310.466842 186.786609 
L 310.585964 187.106641 
L 310.650406 187.319995 
L 311.495098 187.640026 
L 311.969413 188.066735 
L 312.877659 188.280089 
L 312.915274 188.386766 
L 313.376639 188.706798 
L 314.0056 188.920152 
L 314.606056 189.453538 
L 316.000503 189.666892 
L 316.123205 189.986923 
L 316.711306 190.306955 
L 317.029526 190.520309 
L 317.415499 190.84034 
L 317.785672 191.053695 
L 317.894186 191.267049 
L 317.916965 191.373726 
L 318.344762 191.58708 
L 318.458196 191.800435 
L 319.179509 192.120466 
L 319.312713 192.33382 
L 319.715132 192.547175 
L 319.880679 192.973883 
L 320.477187 193.187237 
L 320.617758 193.507269 
L 320.867941 193.720623 
L 320.930695 193.8273 
L 321.636377 194.147332 
L 321.64265 194.254009 
L 321.869845 194.57404 
L 321.918895 194.680717 
L 322.668713 194.894072 
L 323.079657 195.107426 
L 323.262746 195.32078 
L 323.526663 195.534134 
L 323.797436 195.747489 
L 324.437418 195.960843 
L 324.537943 196.174197 
L 324.764306 196.494229 
L 325.056473 196.707583 
L 325.576472 197.134291 
L 326.098354 197.347646 
L 326.871992 197.987708 
L 327.547214 198.30774 
L 327.856861 198.627771 
L 327.940491 198.841125 
L 328.315378 199.05448 
L 328.8047 199.374511 
L 328.806698 199.481188 
L 329.058368 199.694543 
L 329.061546 199.80122 
L 329.722246 200.121251 
L 329.78994 200.227928 
L 330.25001 200.441282 
L 331.536627 200.654637 
L 331.6853 201.188022 
L 332.409254 201.401377 
L 332.608576 201.614731 
L 333.289682 201.934762 
L 333.356135 202.041439 
L 333.916222 202.254794 
L 334.243284 202.574825 
L 336.050724 203.108211 
L 336.394364 203.534919 
L 336.612986 203.641596 
L 337.275052 203.854951 
L 337.306409 203.961628 
L 337.923942 204.174982 
L 338.297171 204.601691 
L 338.749527 204.815045 
L 338.796663 204.921722 
L 339.618077 205.241753 
L 339.84124 205.561785 
L 340.66318 205.881816 
L 341.715782 206.308525 
L 342.491095 207.055265 
L 342.967794 207.268619 
L 344.280639 208.015359 
L 345.25831 208.228713 
L 345.348717 208.442067 
L 346.26762 208.762099 
L 347.790645 208.975453 
L 349.172692 209.188807 
L 349.229443 209.402162 
L 349.98239 209.615516 
L 353.644948 210.148902 
L 354.02824 210.362256 
L 355.317294 210.895641 
L 355.807079 211.215673 
L 356.706234 211.429027 
L 359.902366 212.175767 
L 359.91549 212.282444 
L 361.339849 213.135861 
L 362.496501 213.455893 
L 362.779641 213.669247 
L 366.115899 213.882601 
L 368.670787 214.415987 
L 368.720724 214.522664 
L 369.181099 214.736018 
L 369.236268 214.842695 
L 370.031408 215.05605 
L 370.078596 215.162727 
L 370.399835 215.269404 
L 371.740431 215.482758 
L 371.761879 215.589435 
L 372.388266 215.909467 
L 372.869609 216.122821 
L 372.943166 216.229498 
L 373.730278 216.336175 
L 377.291057 216.656207 
L 378.448981 216.869561 
L 383.028879 217.189592 
L 383.345117 217.296269 
L 384.341636 217.402947 
L 391.016336 217.616301 
L 392.546628 217.829655 
L 410.813254 218.043009 
L 410.826761 218.149687 
L 411.341495 218.256364 
L 411.341495 218.256364 
" style="fill:none;stroke:#ff0000;stroke-linecap:square;stroke-width:4;"/>
   </g>
   <g id="patch_3">
    <path d="M 98.445312 228.14 
L 98.445312 10.7 
" style="fill:none;stroke:#000000;stroke-linecap:square;stroke-linejoin:miter;stroke-width:0.8;"/>
   </g>
   <g id="patch_4">
    <path d="M 433.245313 228.14 
L 433.245313 10.7 
" style="fill:none;stroke:#000000;stroke-linecap:square;stroke-linejoin:miter;stroke-width:0.8;"/>
   </g>
   <g id="patch_5">
    <path d="M 98.445312 228.14 
L 433.245312 228.14 
" style="fill:none;stroke:#000000;stroke-linecap:square;stroke-linejoin:miter;stroke-width:0.8;"/>
   </g>
   <g id="patch_6">
    <path d="M 98.445312 10.7 
L 433.245312 10.7 
" style="fill:none;stroke:#000000;stroke-linecap:square;stroke-linejoin:miter;stroke-width:0.8;"/>
   </g>
  </g>
 </g>
 <defs>
  <clipPath id="p2cfc8e1780">
   <rect height="217.44" width="334.8" x="98.445312" y="10.7"/>
  </clipPath>
 </defs>
</svg>
