<?xml version="1.0" encoding="utf-8" standalone="no"?>
<!DOCTYPE svg PUBLIC "-//W3C//DTD SVG 1.1//EN"
  "http://www.w3.org/Graphics/SVG/1.1/DTD/svg11.dtd">
<!-- Created with matplotlib (https://matplotlib.org/) -->
<svg height="297.634062pt" version="1.1" viewBox="0 0 458.981875 297.634062" width="458.981875pt" xmlns="http://www.w3.org/2000/svg" xmlns:xlink="http://www.w3.org/1999/xlink">
 <defs>
  <style type="text/css">
*{stroke-linecap:butt;stroke-linejoin:round;}
  </style>
 </defs>
 <g id="figure_1">
  <g id="patch_1">
   <path d="M 0 297.634062 
L 458.981875 297.634062 
L 458.981875 0 
L 0 0 
z
" style="fill:#ffffff;"/>
  </g>
  <g id="axes_1">
   <g id="patch_2">
    <path d="M 87.714375 228.14 
L 422.514375 228.14 
L 422.514375 10.7 
L 87.714375 10.7 
z
" style="fill:#ffffff;"/>
   </g>
   <g id="matplotlib.axis_1">
    <g id="xtick_1">
     <g id="line2d_1">
      <defs>
       <path d="M 0 0 
L 0 3.5 
" id="m5d0ff67a84" style="stroke:#000000;stroke-width:0.8;"/>
      </defs>
      <g>
       <use style="stroke:#000000;stroke-width:0.8;" x="102.850461" xlink:href="#m5d0ff67a84" y="228.14"/>
      </g>
     </g>
     <g id="text_1">
      <!-- 0 -->
      <defs>
       <path d="M 31.78125 66.40625 
Q 24.171875 66.40625 20.328125 58.90625 
Q 16.5 51.421875 16.5 36.375 
Q 16.5 21.390625 20.328125 13.890625 
Q 24.171875 6.390625 31.78125 6.390625 
Q 39.453125 6.390625 43.28125 13.890625 
Q 47.125 21.390625 47.125 36.375 
Q 47.125 51.421875 43.28125 58.90625 
Q 39.453125 66.40625 31.78125 66.40625 
z
M 31.78125 74.21875 
Q 44.046875 74.21875 50.515625 64.515625 
Q 56.984375 54.828125 56.984375 36.375 
Q 56.984375 17.96875 50.515625 8.265625 
Q 44.046875 -1.421875 31.78125 -1.421875 
Q 19.53125 -1.421875 13.0625 8.265625 
Q 6.59375 17.96875 6.59375 36.375 
Q 6.59375 54.828125 13.0625 64.515625 
Q 19.53125 74.21875 31.78125 74.21875 
z
" id="DejaVuSans-48"/>
      </defs>
      <g transform="translate(95.533586 252.616406)scale(0.23 -0.23)">
       <use xlink:href="#DejaVuSans-48"/>
      </g>
     </g>
    </g>
    <g id="xtick_2">
     <g id="line2d_2">
      <g>
       <use style="stroke:#000000;stroke-width:0.8;" x="166.783244" xlink:href="#m5d0ff67a84" y="228.14"/>
      </g>
     </g>
     <g id="text_2">
      <!-- 400 -->
      <defs>
       <path d="M 37.796875 64.3125 
L 12.890625 25.390625 
L 37.796875 25.390625 
z
M 35.203125 72.90625 
L 47.609375 72.90625 
L 47.609375 25.390625 
L 58.015625 25.390625 
L 58.015625 17.1875 
L 47.609375 17.1875 
L 47.609375 0 
L 37.796875 0 
L 37.796875 17.1875 
L 4.890625 17.1875 
L 4.890625 26.703125 
z
" id="DejaVuSans-52"/>
      </defs>
      <g transform="translate(144.832619 252.616406)scale(0.23 -0.23)">
       <use xlink:href="#DejaVuSans-52"/>
       <use x="63.623047" xlink:href="#DejaVuSans-48"/>
       <use x="127.246094" xlink:href="#DejaVuSans-48"/>
      </g>
     </g>
    </g>
    <g id="xtick_3">
     <g id="line2d_3">
      <g>
       <use style="stroke:#000000;stroke-width:0.8;" x="230.716027" xlink:href="#m5d0ff67a84" y="228.14"/>
      </g>
     </g>
     <g id="text_3">
      <!-- 800 -->
      <defs>
       <path d="M 31.78125 34.625 
Q 24.75 34.625 20.71875 30.859375 
Q 16.703125 27.09375 16.703125 20.515625 
Q 16.703125 13.921875 20.71875 10.15625 
Q 24.75 6.390625 31.78125 6.390625 
Q 38.8125 6.390625 42.859375 10.171875 
Q 46.921875 13.96875 46.921875 20.515625 
Q 46.921875 27.09375 42.890625 30.859375 
Q 38.875 34.625 31.78125 34.625 
z
M 21.921875 38.8125 
Q 15.578125 40.375 12.03125 44.71875 
Q 8.5 49.078125 8.5 55.328125 
Q 8.5 64.0625 14.71875 69.140625 
Q 20.953125 74.21875 31.78125 74.21875 
Q 42.671875 74.21875 48.875 69.140625 
Q 55.078125 64.0625 55.078125 55.328125 
Q 55.078125 49.078125 51.53125 44.71875 
Q 48 40.375 41.703125 38.8125 
Q 48.828125 37.15625 52.796875 32.3125 
Q 56.78125 27.484375 56.78125 20.515625 
Q 56.78125 9.90625 50.3125 4.234375 
Q 43.84375 -1.421875 31.78125 -1.421875 
Q 19.734375 -1.421875 13.25 4.234375 
Q 6.78125 9.90625 6.78125 20.515625 
Q 6.78125 27.484375 10.78125 32.3125 
Q 14.796875 37.15625 21.921875 38.8125 
z
M 18.3125 54.390625 
Q 18.3125 48.734375 21.84375 45.5625 
Q 25.390625 42.390625 31.78125 42.390625 
Q 38.140625 42.390625 41.71875 45.5625 
Q 45.3125 48.734375 45.3125 54.390625 
Q 45.3125 60.0625 41.71875 63.234375 
Q 38.140625 66.40625 31.78125 66.40625 
Q 25.390625 66.40625 21.84375 63.234375 
Q 18.3125 60.0625 18.3125 54.390625 
z
" id="DejaVuSans-56"/>
      </defs>
      <g transform="translate(208.765402 252.616406)scale(0.23 -0.23)">
       <use xlink:href="#DejaVuSans-56"/>
       <use x="63.623047" xlink:href="#DejaVuSans-48"/>
       <use x="127.246094" xlink:href="#DejaVuSans-48"/>
      </g>
     </g>
    </g>
    <g id="xtick_4">
     <g id="line2d_4">
      <g>
       <use style="stroke:#000000;stroke-width:0.8;" x="294.64881" xlink:href="#m5d0ff67a84" y="228.14"/>
      </g>
     </g>
     <g id="text_4">
      <!-- 1200 -->
      <defs>
       <path d="M 12.40625 8.296875 
L 28.515625 8.296875 
L 28.515625 63.921875 
L 10.984375 60.40625 
L 10.984375 69.390625 
L 28.421875 72.90625 
L 38.28125 72.90625 
L 38.28125 8.296875 
L 54.390625 8.296875 
L 54.390625 0 
L 12.40625 0 
z
" id="DejaVuSans-49"/>
       <path d="M 19.1875 8.296875 
L 53.609375 8.296875 
L 53.609375 0 
L 7.328125 0 
L 7.328125 8.296875 
Q 12.9375 14.109375 22.625 23.890625 
Q 32.328125 33.6875 34.8125 36.53125 
Q 39.546875 41.84375 41.421875 45.53125 
Q 43.3125 49.21875 43.3125 52.78125 
Q 43.3125 58.59375 39.234375 62.25 
Q 35.15625 65.921875 28.609375 65.921875 
Q 23.96875 65.921875 18.8125 64.3125 
Q 13.671875 62.703125 7.8125 59.421875 
L 7.8125 69.390625 
Q 13.765625 71.78125 18.9375 73 
Q 24.125 74.21875 28.421875 74.21875 
Q 39.75 74.21875 46.484375 68.546875 
Q 53.21875 62.890625 53.21875 53.421875 
Q 53.21875 48.921875 51.53125 44.890625 
Q 49.859375 40.875 45.40625 35.40625 
Q 44.1875 33.984375 37.640625 27.21875 
Q 31.109375 20.453125 19.1875 8.296875 
z
" id="DejaVuSans-50"/>
      </defs>
      <g transform="translate(265.38131 252.616406)scale(0.23 -0.23)">
       <use xlink:href="#DejaVuSans-49"/>
       <use x="63.623047" xlink:href="#DejaVuSans-50"/>
       <use x="127.246094" xlink:href="#DejaVuSans-48"/>
       <use x="190.869141" xlink:href="#DejaVuSans-48"/>
      </g>
     </g>
    </g>
    <g id="xtick_5">
     <g id="line2d_5">
      <g>
       <use style="stroke:#000000;stroke-width:0.8;" x="358.581592" xlink:href="#m5d0ff67a84" y="228.14"/>
      </g>
     </g>
     <g id="text_5">
      <!-- 1600 -->
      <defs>
       <path d="M 33.015625 40.375 
Q 26.375 40.375 22.484375 35.828125 
Q 18.609375 31.296875 18.609375 23.390625 
Q 18.609375 15.53125 22.484375 10.953125 
Q 26.375 6.390625 33.015625 6.390625 
Q 39.65625 6.390625 43.53125 10.953125 
Q 47.40625 15.53125 47.40625 23.390625 
Q 47.40625 31.296875 43.53125 35.828125 
Q 39.65625 40.375 33.015625 40.375 
z
M 52.59375 71.296875 
L 52.59375 62.3125 
Q 48.875 64.0625 45.09375 64.984375 
Q 41.3125 65.921875 37.59375 65.921875 
Q 27.828125 65.921875 22.671875 59.328125 
Q 17.53125 52.734375 16.796875 39.40625 
Q 19.671875 43.65625 24.015625 45.921875 
Q 28.375 48.1875 33.59375 48.1875 
Q 44.578125 48.1875 50.953125 41.515625 
Q 57.328125 34.859375 57.328125 23.390625 
Q 57.328125 12.15625 50.6875 5.359375 
Q 44.046875 -1.421875 33.015625 -1.421875 
Q 20.359375 -1.421875 13.671875 8.265625 
Q 6.984375 17.96875 6.984375 36.375 
Q 6.984375 53.65625 15.1875 63.9375 
Q 23.390625 74.21875 37.203125 74.21875 
Q 40.921875 74.21875 44.703125 73.484375 
Q 48.484375 72.75 52.59375 71.296875 
z
" id="DejaVuSans-54"/>
      </defs>
      <g transform="translate(329.314092 252.616406)scale(0.23 -0.23)">
       <use xlink:href="#DejaVuSans-49"/>
       <use x="63.623047" xlink:href="#DejaVuSans-54"/>
       <use x="127.246094" xlink:href="#DejaVuSans-48"/>
       <use x="190.869141" xlink:href="#DejaVuSans-48"/>
      </g>
     </g>
    </g>
    <g id="xtick_6">
     <g id="line2d_6">
      <g>
       <use style="stroke:#000000;stroke-width:0.8;" x="422.514375" xlink:href="#m5d0ff67a84" y="228.14"/>
      </g>
     </g>
     <g id="text_6">
      <!-- 2000 -->
      <g transform="translate(393.246875 252.616406)scale(0.23 -0.23)">
       <use xlink:href="#DejaVuSans-50"/>
       <use x="63.623047" xlink:href="#DejaVuSans-48"/>
       <use x="127.246094" xlink:href="#DejaVuSans-48"/>
       <use x="190.869141" xlink:href="#DejaVuSans-48"/>
      </g>
     </g>
    </g>
    <g id="text_7">
     <!-- rank -->
     <defs>
      <path d="M 41.109375 46.296875 
Q 39.59375 47.171875 37.8125 47.578125 
Q 36.03125 48 33.890625 48 
Q 26.265625 48 22.1875 43.046875 
Q 18.109375 38.09375 18.109375 28.8125 
L 18.109375 0 
L 9.078125 0 
L 9.078125 54.6875 
L 18.109375 54.6875 
L 18.109375 46.1875 
Q 20.953125 51.171875 25.484375 53.578125 
Q 30.03125 56 36.53125 56 
Q 37.453125 56 38.578125 55.875 
Q 39.703125 55.765625 41.0625 55.515625 
z
" id="DejaVuSans-114"/>
      <path d="M 34.28125 27.484375 
Q 23.390625 27.484375 19.1875 25 
Q 14.984375 22.515625 14.984375 16.5 
Q 14.984375 11.71875 18.140625 8.90625 
Q 21.296875 6.109375 26.703125 6.109375 
Q 34.1875 6.109375 38.703125 11.40625 
Q 43.21875 16.703125 43.21875 25.484375 
L 43.21875 27.484375 
z
M 52.203125 31.203125 
L 52.203125 0 
L 43.21875 0 
L 43.21875 8.296875 
Q 40.140625 3.328125 35.546875 0.953125 
Q 30.953125 -1.421875 24.3125 -1.421875 
Q 15.921875 -1.421875 10.953125 3.296875 
Q 6 8.015625 6 15.921875 
Q 6 25.140625 12.171875 29.828125 
Q 18.359375 34.515625 30.609375 34.515625 
L 43.21875 34.515625 
L 43.21875 35.40625 
Q 43.21875 41.609375 39.140625 45 
Q 35.0625 48.390625 27.6875 48.390625 
Q 23 48.390625 18.546875 47.265625 
Q 14.109375 46.140625 10.015625 43.890625 
L 10.015625 52.203125 
Q 14.9375 54.109375 19.578125 55.046875 
Q 24.21875 56 28.609375 56 
Q 40.484375 56 46.34375 49.84375 
Q 52.203125 43.703125 52.203125 31.203125 
z
" id="DejaVuSans-97"/>
      <path d="M 54.890625 33.015625 
L 54.890625 0 
L 45.90625 0 
L 45.90625 32.71875 
Q 45.90625 40.484375 42.875 44.328125 
Q 39.84375 48.1875 33.796875 48.1875 
Q 26.515625 48.1875 22.3125 43.546875 
Q 18.109375 38.921875 18.109375 30.90625 
L 18.109375 0 
L 9.078125 0 
L 9.078125 54.6875 
L 18.109375 54.6875 
L 18.109375 46.1875 
Q 21.34375 51.125 25.703125 53.5625 
Q 30.078125 56 35.796875 56 
Q 45.21875 56 50.046875 50.171875 
Q 54.890625 44.34375 54.890625 33.015625 
z
" id="DejaVuSans-110"/>
      <path d="M 9.078125 75.984375 
L 18.109375 75.984375 
L 18.109375 31.109375 
L 44.921875 54.6875 
L 56.390625 54.6875 
L 27.390625 29.109375 
L 57.625 0 
L 45.90625 0 
L 18.109375 26.703125 
L 18.109375 0 
L 9.078125 0 
z
" id="DejaVuSans-107"/>
     </defs>
     <g transform="translate(221.563594 284.195)scale(0.3 -0.3)">
      <use xlink:href="#DejaVuSans-114"/>
      <use x="41.113281" xlink:href="#DejaVuSans-97"/>
      <use x="102.392578" xlink:href="#DejaVuSans-110"/>
      <use x="165.771484" xlink:href="#DejaVuSans-107"/>
     </g>
    </g>
   </g>
   <g id="matplotlib.axis_2">
    <g id="ytick_1">
     <g id="line2d_7">
      <defs>
       <path d="M 0 0 
L -3.5 0 
" id="m1d08c1dd2a" style="stroke:#000000;stroke-width:0.8;"/>
      </defs>
      <g>
       <use style="stroke:#000000;stroke-width:0.8;" x="87.714375" xlink:href="#m1d08c1dd2a" y="228.14"/>
      </g>
     </g>
     <g id="text_8">
      <!-- $\mathdefault{10^{0}}$ -->
      <g transform="translate(40.234375 236.878203)scale(0.23 -0.23)">
       <use transform="translate(0 0.765625)" xlink:href="#DejaVuSans-49"/>
       <use transform="translate(63.623047 0.765625)" xlink:href="#DejaVuSans-48"/>
       <use transform="translate(128.203125 39.046875)scale(0.7)" xlink:href="#DejaVuSans-48"/>
      </g>
     </g>
    </g>
    <g id="ytick_2">
     <g id="line2d_8">
      <g>
       <use style="stroke:#000000;stroke-width:0.8;" x="87.714375" xlink:href="#m1d08c1dd2a" y="144.313041"/>
      </g>
     </g>
     <g id="text_9">
      <!-- $\mathdefault{10^{2}}$ -->
      <g transform="translate(40.234375 153.051244)scale(0.23 -0.23)">
       <use transform="translate(0 0.765625)" xlink:href="#DejaVuSans-49"/>
       <use transform="translate(63.623047 0.765625)" xlink:href="#DejaVuSans-48"/>
       <use transform="translate(128.203125 39.046875)scale(0.7)" xlink:href="#DejaVuSans-50"/>
      </g>
     </g>
    </g>
    <g id="ytick_3">
     <g id="line2d_9">
      <g>
       <use style="stroke:#000000;stroke-width:0.8;" x="87.714375" xlink:href="#m1d08c1dd2a" y="60.486082"/>
      </g>
     </g>
     <g id="text_10">
      <!-- $\mathdefault{10^{4}}$ -->
      <g transform="translate(40.234375 69.224285)scale(0.23 -0.23)">
       <use transform="translate(0 0.684375)" xlink:href="#DejaVuSans-49"/>
       <use transform="translate(63.623047 0.684375)" xlink:href="#DejaVuSans-48"/>
       <use transform="translate(128.203125 38.965625)scale(0.7)" xlink:href="#DejaVuSans-52"/>
      </g>
     </g>
    </g>
    <g id="text_11">
     <!-- #pixels -->
     <defs>
      <path d="M 51.125 44 
L 36.921875 44 
L 32.8125 27.6875 
L 47.125 27.6875 
z
M 43.796875 71.78125 
L 38.71875 51.515625 
L 52.984375 51.515625 
L 58.109375 71.78125 
L 65.921875 71.78125 
L 60.890625 51.515625 
L 76.125 51.515625 
L 76.125 44 
L 58.984375 44 
L 54.984375 27.6875 
L 70.515625 27.6875 
L 70.515625 20.21875 
L 53.078125 20.21875 
L 48 0 
L 40.1875 0 
L 45.21875 20.21875 
L 30.90625 20.21875 
L 25.875 0 
L 18.015625 0 
L 23.09375 20.21875 
L 7.71875 20.21875 
L 7.71875 27.6875 
L 24.90625 27.6875 
L 29 44 
L 13.28125 44 
L 13.28125 51.515625 
L 30.90625 51.515625 
L 35.890625 71.78125 
z
" id="DejaVuSans-35"/>
      <path d="M 18.109375 8.203125 
L 18.109375 -20.796875 
L 9.078125 -20.796875 
L 9.078125 54.6875 
L 18.109375 54.6875 
L 18.109375 46.390625 
Q 20.953125 51.265625 25.265625 53.625 
Q 29.59375 56 35.59375 56 
Q 45.5625 56 51.78125 48.09375 
Q 58.015625 40.1875 58.015625 27.296875 
Q 58.015625 14.40625 51.78125 6.484375 
Q 45.5625 -1.421875 35.59375 -1.421875 
Q 29.59375 -1.421875 25.265625 0.953125 
Q 20.953125 3.328125 18.109375 8.203125 
z
M 48.6875 27.296875 
Q 48.6875 37.203125 44.609375 42.84375 
Q 40.53125 48.484375 33.40625 48.484375 
Q 26.265625 48.484375 22.1875 42.84375 
Q 18.109375 37.203125 18.109375 27.296875 
Q 18.109375 17.390625 22.1875 11.75 
Q 26.265625 6.109375 33.40625 6.109375 
Q 40.53125 6.109375 44.609375 11.75 
Q 48.6875 17.390625 48.6875 27.296875 
z
" id="DejaVuSans-112"/>
      <path d="M 9.421875 54.6875 
L 18.40625 54.6875 
L 18.40625 0 
L 9.421875 0 
z
M 9.421875 75.984375 
L 18.40625 75.984375 
L 18.40625 64.59375 
L 9.421875 64.59375 
z
" id="DejaVuSans-105"/>
      <path d="M 54.890625 54.6875 
L 35.109375 28.078125 
L 55.90625 0 
L 45.3125 0 
L 29.390625 21.484375 
L 13.484375 0 
L 2.875 0 
L 24.125 28.609375 
L 4.6875 54.6875 
L 15.28125 54.6875 
L 29.78125 35.203125 
L 44.28125 54.6875 
z
" id="DejaVuSans-120"/>
      <path d="M 56.203125 29.59375 
L 56.203125 25.203125 
L 14.890625 25.203125 
Q 15.484375 15.921875 20.484375 11.0625 
Q 25.484375 6.203125 34.421875 6.203125 
Q 39.59375 6.203125 44.453125 7.46875 
Q 49.3125 8.734375 54.109375 11.28125 
L 54.109375 2.78125 
Q 49.265625 0.734375 44.1875 -0.34375 
Q 39.109375 -1.421875 33.890625 -1.421875 
Q 20.796875 -1.421875 13.15625 6.1875 
Q 5.515625 13.8125 5.515625 26.8125 
Q 5.515625 40.234375 12.765625 48.109375 
Q 20.015625 56 32.328125 56 
Q 43.359375 56 49.78125 48.890625 
Q 56.203125 41.796875 56.203125 29.59375 
z
M 47.21875 32.234375 
Q 47.125 39.59375 43.09375 43.984375 
Q 39.0625 48.390625 32.421875 48.390625 
Q 24.90625 48.390625 20.390625 44.140625 
Q 15.875 39.890625 15.1875 32.171875 
z
" id="DejaVuSans-101"/>
      <path d="M 9.421875 75.984375 
L 18.40625 75.984375 
L 18.40625 0 
L 9.421875 0 
z
" id="DejaVuSans-108"/>
      <path d="M 44.28125 53.078125 
L 44.28125 44.578125 
Q 40.484375 46.53125 36.375 47.5 
Q 32.28125 48.484375 27.875 48.484375 
Q 21.1875 48.484375 17.84375 46.4375 
Q 14.5 44.390625 14.5 40.28125 
Q 14.5 37.15625 16.890625 35.375 
Q 19.28125 33.59375 26.515625 31.984375 
L 29.59375 31.296875 
Q 39.15625 29.25 43.1875 25.515625 
Q 47.21875 21.78125 47.21875 15.09375 
Q 47.21875 7.46875 41.1875 3.015625 
Q 35.15625 -1.421875 24.609375 -1.421875 
Q 20.21875 -1.421875 15.453125 -0.5625 
Q 10.6875 0.296875 5.421875 2 
L 5.421875 11.28125 
Q 10.40625 8.6875 15.234375 7.390625 
Q 20.0625 6.109375 24.8125 6.109375 
Q 31.15625 6.109375 34.5625 8.28125 
Q 37.984375 10.453125 37.984375 14.40625 
Q 37.984375 18.0625 35.515625 20.015625 
Q 33.0625 21.96875 24.703125 23.78125 
L 21.578125 24.515625 
Q 13.234375 26.265625 9.515625 29.90625 
Q 5.8125 33.546875 5.8125 39.890625 
Q 5.8125 47.609375 11.28125 51.796875 
Q 16.75 56 26.8125 56 
Q 31.78125 56 36.171875 55.265625 
Q 40.578125 54.546875 44.28125 53.078125 
z
" id="DejaVuSans-115"/>
     </defs>
     <g transform="translate(29.995312 175.761406)rotate(-90)scale(0.3 -0.3)">
      <use xlink:href="#DejaVuSans-35"/>
      <use x="83.789062" xlink:href="#DejaVuSans-112"/>
      <use x="147.265625" xlink:href="#DejaVuSans-105"/>
      <use x="175.048828" xlink:href="#DejaVuSans-120"/>
      <use x="234.181641" xlink:href="#DejaVuSans-101"/>
      <use x="295.705078" xlink:href="#DejaVuSans-108"/>
      <use x="323.488281" xlink:href="#DejaVuSans-115"/>
     </g>
    </g>
   </g>
   <g id="line2d_10">
    <path clip-path="url(#p8ed0f59d12)" d="M 102.850461 21.054286 
L 103.170125 45.383469 
L 103.329957 46.632188 
L 103.489789 46.63644 
L 103.649621 49.122455 
L 103.969285 50.085462 
L 104.288949 53.999609 
L 104.448781 54.176362 
L 104.768445 55.81564 
L 105.088109 56.992205 
L 105.407773 57.179459 
L 105.887268 58.221152 
L 106.366764 60.018857 
L 106.526596 60.043712 
L 106.686428 60.397106 
L 106.84626 61.331836 
L 107.325756 61.938684 
L 107.485588 63.433676 
L 107.805252 63.690164 
L 108.124916 64.938896 
L 108.284748 64.992444 
L 108.604412 66.597715 
L 109.403572 67.185161 
L 109.723235 67.303901 
L 109.883067 67.683753 
L 110.042899 67.724345 
L 110.202731 68.383629 
L 110.362563 68.518966 
L 110.682227 70.062725 
L 111.001891 73.297276 
L 111.161723 73.404297 
L 111.321555 73.914759 
L 111.481387 73.994872 
L 111.641219 74.276136 
L 111.960883 74.447788 
L 112.120715 75.240907 
L 112.440379 75.314752 
L 112.600211 75.75159 
L 113.079707 76.001731 
L 113.239539 76.194855 
L 113.559202 76.885153 
L 114.99769 78.388519 
L 115.157522 78.491015 
L 115.317354 78.831911 
L 115.79685 79.088045 
L 115.956682 79.179312 
L 116.276346 79.89995 
L 116.755842 80.328019 
L 116.915674 80.328019 
L 117.235337 80.666838 
L 117.714833 80.866505 
L 117.874665 81.204229 
L 118.034497 81.204229 
L 118.194329 81.358273 
L 118.354161 81.804883 
L 118.513993 81.893175 
L 118.673825 82.566316 
L 118.833657 82.627646 
L 119.472985 83.297149 
L 119.952481 83.515149 
L 120.112313 83.952533 
L 120.591809 84.078505 
L 120.911472 84.652986 
L 121.071304 84.673597 
L 121.390968 84.908832 
L 122.030296 85.17539 
L 122.190128 85.196602 
L 122.34996 85.793468 
L 122.829456 86.103122 
L 122.989288 86.59298 
L 123.628616 86.669527 
L 124.108112 86.823593 
L 124.427775 87.269974 
L 124.587607 87.293773 
L 124.907271 87.493324 
L 125.386767 87.606035 
L 125.866263 88.222024 
L 126.825255 88.72169 
L 126.985087 89.050926 
L 127.784247 89.182545 
L 128.10391 89.45761 
L 129.862062 89.937732 
L 130.181726 90.215219 
L 130.980886 90.47808 
L 131.620214 90.812085 
L 131.939877 90.821719 
L 132.898869 91.679988 
L 133.538197 91.862728 
L 133.698029 91.913817 
L 134.017693 92.171432 
L 134.657021 92.527745 
L 134.976685 93.053842 
L 135.296349 93.372523 
L 135.616012 93.528389 
L 135.775844 93.539573 
L 136.25534 93.935425 
L 136.894668 94.027127 
L 138.65282 94.587257 
L 138.972484 94.982595 
L 139.611811 95.2633 
L 139.771643 95.275604 
L 139.931475 95.436309 
L 140.251139 95.486043 
L 140.570803 95.762038 
L 140.730635 96.016627 
L 141.369963 96.119468 
L 141.689627 96.379141 
L 142.488787 96.695719 
L 142.808451 96.869526 
L 143.128114 97.045009 
L 143.60761 97.153845 
L 144.087106 97.373489 
L 144.40677 97.442675 
L 145.20593 97.609802 
L 145.525594 97.764362 
L 146.00509 97.906018 
L 146.164922 97.920245 
L 146.804249 98.337725 
L 146.964081 98.337725 
L 147.283745 98.55748 
L 148.562401 98.869663 
L 149.041897 98.974925 
L 149.681225 99.248428 
L 150.000889 99.572797 
L 150.480384 99.934819 
L 150.800048 100.014481 
L 152.078704 100.352922 
L 152.238536 100.730962 
L 152.5582 100.797517 
L 153.197528 100.847594 
L 153.517192 100.981809 
L 153.677024 100.998655 
L 154.156519 101.304592 
L 154.476183 101.390495 
L 155.115511 101.598331 
L 155.435175 102.039098 
L 155.914671 102.182428 
L 157.033495 102.582505 
L 157.832654 102.674672 
L 158.152318 102.879095 
L 158.31215 102.916511 
L 158.631814 103.199608 
L 159.11131 103.23769 
L 159.91047 103.506512 
L 160.389966 103.584053 
L 161.348958 103.661926 
L 161.828453 103.740134 
L 164.865261 104.196468 
L 165.504588 104.337653 
L 165.824252 104.439175 
L 166.46358 104.623353 
L 167.26274 104.830206 
L 167.422572 104.87186 
L 167.742236 105.060491 
L 168.221732 105.144959 
L 168.541396 105.293728 
L 169.979883 105.57328 
L 170.299547 105.725605 
L 171.098707 105.923344 
L 171.418371 106.056374 
L 174.135514 106.713422 
L 174.934674 106.922252 
L 175.41417 107.15713 
L 176.532993 107.395078 
L 176.852657 107.491136 
L 177.172321 107.563513 
L 177.491985 107.831385 
L 178.450977 108.003924 
L 179.090305 108.429886 
L 182.606608 108.892041 
L 183.245936 108.996356 
L 183.5656 109.153957 
L 183.885263 109.286341 
L 184.364759 109.419696 
L 185.483583 109.527087 
L 186.282743 109.825723 
L 186.602407 110.046031 
L 187.561398 110.241013 
L 187.881062 110.353377 
L 189.31955 110.666001 
L 189.639214 110.781027 
L 190.758038 110.867776 
L 191.237533 110.925839 
L 191.557197 111.130531 
L 192.036693 111.307832 
L 192.676021 111.367319 
L 193.155517 111.456914 
L 193.635013 111.546953 
L 195.87266 112.28376 
L 199.708627 112.953877 
L 199.868459 113.215792 
L 201.466779 113.281864 
L 201.786443 113.448101 
L 203.065098 113.785199 
L 203.704426 114.09402 
L 204.02409 114.267878 
L 205.142914 114.871733 
L 207.060897 114.980407 
L 208.339553 115.458971 
L 208.978881 115.533726 
L 211.536192 116.181852 
L 211.855856 116.337765 
L 212.97468 116.574168 
L 213.294343 116.853909 
L 214.253335 117.015713 
L 214.413167 117.015713 
L 214.892663 117.302377 
L 216.331151 117.3437 
L 216.650815 117.551734 
L 216.970478 117.593628 
L 217.290142 117.677706 
L 217.609806 117.762174 
L 218.72863 117.975074 
L 219.367958 118.060937 
L 223.523589 119.078612 
L 224.962076 119.169854 
L 225.28174 119.353722 
L 226.0809 119.446357 
L 226.400564 119.539467 
L 227.199724 119.5862 
L 227.67922 119.774345 
L 228.638211 119.869151 
L 229.277539 119.964454 
L 230.076699 120.012293 
L 230.716027 120.301999 
L 231.195523 120.350734 
L 231.515187 120.497729 
L 232.474178 120.59639 
L 232.793842 120.74539 
L 233.273338 120.845406 
L 233.912666 120.945974 
L 235.191322 121.047101 
L 237.269137 121.61357 
L 238.068297 121.718486 
L 239.98628 122.25233 
L 240.945272 122.361004 
L 241.424768 122.415585 
L 242.064096 122.525241 
L 242.38376 122.746554 
L 243.182919 122.802305 
L 243.502583 122.914323 
L 244.461575 122.970591 
L 245.580399 123.254572 
L 246.539391 123.311904 
L 247.178718 123.427112 
L 247.658214 123.427112 
L 247.818046 123.601302 
L 248.13771 123.601302 
L 248.617206 123.83618 
L 249.256534 123.954766 
L 250.055694 124.014349 
L 251.174517 124.315229 
L 251.973677 124.376006 
L 252.932669 124.682975 
L 253.252333 124.744994 
L 253.731829 124.869672 
L 253.891661 124.869672 
L 254.211324 124.995209 
L 254.530988 125.058303 
L 255.010484 125.121617 
L 255.649812 125.312892 
L 255.969476 125.312892 
L 256.28914 125.441534 
L 256.608804 125.506198 
L 257.0883 125.571092 
L 257.407964 125.636218 
L 258.366955 125.701578 
L 258.686619 125.899079 
L 259.166115 125.965392 
L 261.403763 126.780578 
L 262.04309 126.850187 
L 262.362754 126.920064 
L 262.84225 126.99021 
L 263.161914 127.060627 
L 263.64141 127.131317 
L 263.961074 127.202283 
L 265.399561 127.273527 
L 266.038889 127.488947 
L 267.317545 127.561324 
L 267.797041 127.706948 
L 268.116705 127.706948 
L 268.436369 127.853745 
L 268.756033 127.92759 
L 269.39536 128.15094 
L 269.874856 128.226003 
L 270.354352 128.377065 
L 271.952672 128.453068 
L 272.591999 128.683001 
L 273.071495 128.760296 
L 273.550991 128.915876 
L 273.870655 128.915876 
L 274.190319 129.151769 
L 274.509983 129.231084 
L 274.829647 129.310746 
L 275.149311 129.390758 
L 275.628807 129.551846 
L 276.427966 129.632928 
L 276.587798 129.796183 
L 277.706622 129.878362 
L 278.026286 129.960915 
L 278.34595 129.960915 
L 278.665614 130.29492 
L 279.784438 130.379388 
L 280.423765 130.635169 
L 281.063093 130.721235 
L 281.382757 130.807709 
L 282.981077 130.894596 
L 283.300741 130.9819 
L 284.0999 131.069624 
L 284.419564 131.157774 
L 285.058892 131.246352 
L 285.378556 131.335363 
L 286.177716 131.424812 
L 286.817044 131.695826 
L 287.616203 131.787069 
L 288.095699 131.970937 
L 289.694019 132.063572 
L 290.013683 132.156681 
L 290.972675 132.156681 
L 291.132506 132.34434 
L 291.931666 132.438901 
L 292.570994 132.725565 
L 293.05049 132.822131 
L 293.370154 132.919213 
L 294.64881 133.016816 
L 295.288137 133.312802 
L 296.087297 133.412544 
L 296.406961 133.512835 
L 297.365953 133.613682 
L 297.845449 133.817067 
L 298.324945 133.919618 
L 298.644608 134.022751 
L 299.124104 134.126471 
L 299.763432 134.441224 
L 300.242928 134.547363 
L 300.562592 134.654125 
L 301.681416 134.654125 
L 301.841248 134.869545 
L 303.439567 134.978219 
L 303.759231 135.087545 
L 304.718223 135.197532 
L 305.037887 135.308188 
L 305.197719 135.308188 
L 305.517383 135.41952 
L 305.677215 135.41952 
L 305.996878 135.531538 
L 306.316542 135.531538 
L 306.796038 135.757662 
L 307.435366 135.757662 
L 307.75503 135.871787 
L 308.074694 135.871787 
L 308.394358 136.218517 
L 309.033686 136.218517 
L 309.992677 136.811494 
L 310.472173 136.811494 
L 310.791837 136.932443 
L 311.111501 136.932443 
L 312.070493 137.549546 
L 312.230325 137.549546 
L 312.549989 137.675518 
L 314.148308 137.675518 
L 314.787636 138.058749 
L 315.1073 138.058749 
L 315.426964 138.188306 
L 315.746628 138.188306 
L 316.226124 138.450222 
L 316.865452 138.450222 
L 317.185115 138.582606 
L 317.344947 138.582606 
L 317.824443 138.850299 
L 318.303939 138.850299 
L 318.623603 138.985636 
L 318.783435 138.985636 
L 319.262931 139.259368 
L 319.742427 139.259368 
L 320.062091 139.677841 
L 320.221923 139.677841 
L 320.541587 139.819498 
L 320.86125 139.819498 
L 321.340746 140.106162 
L 323.25873 140.106162 
L 323.578394 140.251205 
L 324.05789 140.251205 
L 324.537385 140.544805 
L 324.857049 140.544805 
L 325.016881 140.843218 
L 325.656209 140.843218 
L 325.975873 140.994279 
L 327.574193 140.994279 
L 327.734025 141.146605 
L 328.053689 141.611382 
L 328.21352 141.611382 
L 328.373352 141.927961 
L 329.01268 141.927961 
L 329.172512 142.088339 
L 329.332344 142.088339 
L 329.492176 142.250142 
L 330.611 142.250142 
L 330.770832 142.413397 
L 330.930664 142.413397 
L 331.090496 142.578129 
L 331.569992 142.578129 
L 331.729824 142.744366 
L 332.049487 142.744366 
L 332.209319 142.912135 
L 333.328143 142.912135 
L 333.487975 143.424924 
L 333.807639 143.424924 
L 333.967471 143.599114 
L 335.725622 143.599114 
L 335.885454 143.774988 
L 336.045286 143.774988 
L 336.205118 143.952578 
L 337.004278 143.952578 
L 337.323942 144.313041 
L 337.803438 144.313041 
L 337.96327 144.495985 
L 338.442766 144.495985 
L 338.602598 144.680787 
L 339.082094 144.680787 
L 339.241925 144.867483 
L 339.561589 144.867483 
L 339.721421 145.056115 
L 340.840245 145.056115 
L 341.000077 145.246722 
L 341.479573 145.246722 
L 341.639405 145.439346 
L 342.598397 145.439346 
L 342.91806 145.830819 
L 343.237724 145.830819 
L 343.397556 146.029759 
L 344.356548 146.029759 
L 344.51638 146.230896 
L 346.594195 146.230896 
L 346.754027 146.434282 
L 347.073691 146.434282 
L 347.233523 146.639965 
L 348.192515 146.639965 
L 348.352347 146.847999 
L 350.909658 146.847999 
L 351.06949 147.058439 
L 351.708818 147.058439 
L 351.86865 147.271339 
L 352.66781 147.271339 
L 352.827642 147.486759 
L 353.46697 147.486759 
L 353.626802 147.70476 
L 354.745625 147.70476 
L 354.905457 147.925402 
L 355.065289 147.925402 
L 355.225121 148.148752 
L 355.864449 148.148752 
L 356.024281 148.374877 
L 357.622601 148.374877 
L 357.782432 148.603846 
L 357.942264 148.603846 
L 358.102096 148.835732 
L 358.261928 148.835732 
L 358.42176 149.07061 
L 359.380752 149.07061 
L 359.540584 149.549658 
L 359.860248 149.549658 
L 360.02008 149.793994 
L 360.499576 149.793994 
L 360.659408 150.292732 
L 362.897055 150.292732 
L 363.056887 150.547321 
L 363.216719 150.547321 
L 363.376551 150.805521 
L 364.175711 150.805521 
L 364.335543 151.067436 
L 364.495375 151.067436 
L 364.655207 151.333175 
L 364.974871 151.333175 
L 365.294534 151.876582 
L 366.413358 151.876582 
L 366.57319 152.154493 
L 366.892854 152.154493 
L 367.052686 152.436713 
L 367.692014 152.436713 
L 367.851846 152.723377 
L 368.491174 152.723377 
L 368.651006 153.310614 
L 369.130501 153.310614 
L 369.290333 153.611494 
L 370.568989 153.611494 
L 370.728821 153.91743 
L 371.687813 153.91743 
L 371.847645 154.228597 
L 372.646804 154.228597 
L 372.806636 154.545175 
L 379.359747 154.545175 
L 379.519579 154.867357 
L 380.47857 154.867357 
L 380.638402 155.195344 
L 381.757226 155.195344 
L 381.917058 155.52935 
L 383.355546 155.52935 
L 383.515378 155.869599 
L 383.675209 155.869599 
L 383.835041 156.216329 
L 384.154705 156.216329 
L 384.314537 156.569792 
L 386.072689 156.569792 
L 386.232521 156.930255 
L 387.351344 156.930255 
L 387.511176 157.298001 
L 388.63 157.298001 
L 388.789832 157.67333 
L 389.908656 157.67333 
L 390.068488 158.056561 
L 390.547984 158.056561 
L 390.867648 158.848111 
L 391.347143 158.848111 
L 391.506975 159.25718 
L 391.986471 159.25718 
L 392.146303 159.675653 
L 392.465967 159.675653 
L 392.625799 160.103974 
L 393.265127 160.103974 
L 393.424959 160.992091 
L 394.224119 160.992091 
L 394.383951 161.452946 
L 394.543783 161.452946 
L 394.703615 161.925772 
L 394.863446 161.925772 
L 395.023278 162.411209 
L 395.18311 162.411209 
L 395.342942 162.909947 
L 396.621598 162.909947 
L 396.941262 163.95039 
L 397.101094 163.95039 
L 397.420758 165.053927 
L 397.58059 166.228708 
L 398.539581 166.228708 
L 398.859245 167.484571 
L 399.178909 167.484571 
L 399.498573 168.833543 
L 399.818237 168.833543 
L 399.978069 169.54747 
L 400.297733 169.54747 
L 400.457565 170.290544 
L 401.256725 170.290544 
L 401.416557 171.065248 
L 401.576389 171.065248 
L 401.736221 171.874394 
L 401.896053 171.874394 
L 402.055885 172.721189 
L 402.215716 172.721189 
L 402.53538 174.542987 
L 402.695212 174.542987 
L 402.855044 175.527161 
L 403.014876 175.527161 
L 403.494372 178.845923 
L 403.814036 182.907759 
L 404.1337 186.22652 
L 404.453364 186.22652 
L 404.613196 188.144376 
L 404.773028 188.144376 
L 404.93286 190.288356 
L 405.572188 228.14 
L 405.572188 228.14 
" style="fill:none;stroke:#0000ff;stroke-linecap:square;stroke-width:4;"/>
   </g>
   <g id="patch_3">
    <path d="M 87.714375 228.14 
L 87.714375 10.7 
" style="fill:none;stroke:#000000;stroke-linecap:square;stroke-linejoin:miter;stroke-width:0.8;"/>
   </g>
   <g id="patch_4">
    <path d="M 422.514375 228.14 
L 422.514375 10.7 
" style="fill:none;stroke:#000000;stroke-linecap:square;stroke-linejoin:miter;stroke-width:0.8;"/>
   </g>
   <g id="patch_5">
    <path d="M 87.714375 228.14 
L 422.514375 228.14 
" style="fill:none;stroke:#000000;stroke-linecap:square;stroke-linejoin:miter;stroke-width:0.8;"/>
   </g>
   <g id="patch_6">
    <path d="M 87.714375 10.7 
L 422.514375 10.7 
" style="fill:none;stroke:#000000;stroke-linecap:square;stroke-linejoin:miter;stroke-width:0.8;"/>
   </g>
  </g>
 </g>
 <defs>
  <clipPath id="p8ed0f59d12">
   <rect height="217.44" width="334.8" x="87.714375" y="10.7"/>
  </clipPath>
 </defs>
</svg>
