<?xml version="1.0" encoding="utf-8" standalone="no"?>
<!DOCTYPE svg PUBLIC "-//W3C//DTD SVG 1.1//EN"
  "http://www.w3.org/Graphics/SVG/1.1/DTD/svg11.dtd">
<!-- Created with matplotlib (https://matplotlib.org/) -->
<svg height="297.634062pt" version="1.1" viewBox="0 0 466.050781 297.634062" width="466.050781pt" xmlns="http://www.w3.org/2000/svg" xmlns:xlink="http://www.w3.org/1999/xlink">
 <defs>
  <style type="text/css">
*{stroke-linecap:butt;stroke-linejoin:round;}
  </style>
 </defs>
 <g id="figure_1">
  <g id="patch_1">
   <path d="M 0 297.634062 
L 466.050781 297.634062 
L 466.050781 0 
L 0 0 
z
" style="fill:#ffffff;"/>
  </g>
  <g id="axes_1">
   <g id="patch_2">
    <path d="M 98.445312 228.14 
L 433.245313 228.14 
L 433.245313 10.7 
L 98.445312 10.7 
z
" style="fill:#ffffff;"/>
   </g>
   <g id="matplotlib.axis_1">
    <g id="xtick_1">
     <g id="line2d_1">
      <defs>
       <path d="M 0 0 
L 0 3.5 
" id="ma3e5565960" style="stroke:#000000;stroke-width:0.8;"/>
      </defs>
      <g>
       <use style="stroke:#000000;stroke-width:0.8;" x="113.345131" xlink:href="#ma3e5565960" y="228.14"/>
      </g>
     </g>
     <g id="text_1">
      <!-- 0.00 -->
      <defs>
       <path d="M 31.78125 66.40625 
Q 24.171875 66.40625 20.328125 58.90625 
Q 16.5 51.421875 16.5 36.375 
Q 16.5 21.390625 20.328125 13.890625 
Q 24.171875 6.390625 31.78125 6.390625 
Q 39.453125 6.390625 43.28125 13.890625 
Q 47.125 21.390625 47.125 36.375 
Q 47.125 51.421875 43.28125 58.90625 
Q 39.453125 66.40625 31.78125 66.40625 
z
M 31.78125 74.21875 
Q 44.046875 74.21875 50.515625 64.515625 
Q 56.984375 54.828125 56.984375 36.375 
Q 56.984375 17.96875 50.515625 8.265625 
Q 44.046875 -1.421875 31.78125 -1.421875 
Q 19.53125 -1.421875 13.0625 8.265625 
Q 6.59375 17.96875 6.59375 36.375 
Q 6.59375 54.828125 13.0625 64.515625 
Q 19.53125 74.21875 31.78125 74.21875 
z
" id="DejaVuSans-48"/>
       <path d="M 10.6875 12.40625 
L 21 12.40625 
L 21 0 
L 10.6875 0 
z
" id="DejaVuSans-46"/>
      </defs>
      <g transform="translate(87.739662 252.616406)scale(0.23 -0.23)">
       <use xlink:href="#DejaVuSans-48"/>
       <use x="63.623047" xlink:href="#DejaVuSans-46"/>
       <use x="95.410156" xlink:href="#DejaVuSans-48"/>
       <use x="159.033203" xlink:href="#DejaVuSans-48"/>
      </g>
     </g>
    </g>
    <g id="xtick_2">
     <g id="line2d_2">
      <g>
       <use style="stroke:#000000;stroke-width:0.8;" x="193.320176" xlink:href="#ma3e5565960" y="228.14"/>
      </g>
     </g>
     <g id="text_2">
      <!-- 0.69 -->
      <defs>
       <path d="M 33.015625 40.375 
Q 26.375 40.375 22.484375 35.828125 
Q 18.609375 31.296875 18.609375 23.390625 
Q 18.609375 15.53125 22.484375 10.953125 
Q 26.375 6.390625 33.015625 6.390625 
Q 39.65625 6.390625 43.53125 10.953125 
Q 47.40625 15.53125 47.40625 23.390625 
Q 47.40625 31.296875 43.53125 35.828125 
Q 39.65625 40.375 33.015625 40.375 
z
M 52.59375 71.296875 
L 52.59375 62.3125 
Q 48.875 64.0625 45.09375 64.984375 
Q 41.3125 65.921875 37.59375 65.921875 
Q 27.828125 65.921875 22.671875 59.328125 
Q 17.53125 52.734375 16.796875 39.40625 
Q 19.671875 43.65625 24.015625 45.921875 
Q 28.375 48.1875 33.59375 48.1875 
Q 44.578125 48.1875 50.953125 41.515625 
Q 57.328125 34.859375 57.328125 23.390625 
Q 57.328125 12.15625 50.6875 5.359375 
Q 44.046875 -1.421875 33.015625 -1.421875 
Q 20.359375 -1.421875 13.671875 8.265625 
Q 6.984375 17.96875 6.984375 36.375 
Q 6.984375 53.65625 15.1875 63.9375 
Q 23.390625 74.21875 37.203125 74.21875 
Q 40.921875 74.21875 44.703125 73.484375 
Q 48.484375 72.75 52.59375 71.296875 
z
" id="DejaVuSans-54"/>
       <path d="M 10.984375 1.515625 
L 10.984375 10.5 
Q 14.703125 8.734375 18.5 7.8125 
Q 22.3125 6.890625 25.984375 6.890625 
Q 35.75 6.890625 40.890625 13.453125 
Q 46.046875 20.015625 46.78125 33.40625 
Q 43.953125 29.203125 39.59375 26.953125 
Q 35.25 24.703125 29.984375 24.703125 
Q 19.046875 24.703125 12.671875 31.3125 
Q 6.296875 37.9375 6.296875 49.421875 
Q 6.296875 60.640625 12.9375 67.421875 
Q 19.578125 74.21875 30.609375 74.21875 
Q 43.265625 74.21875 49.921875 64.515625 
Q 56.59375 54.828125 56.59375 36.375 
Q 56.59375 19.140625 48.40625 8.859375 
Q 40.234375 -1.421875 26.421875 -1.421875 
Q 22.703125 -1.421875 18.890625 -0.6875 
Q 15.09375 0.046875 10.984375 1.515625 
z
M 30.609375 32.421875 
Q 37.25 32.421875 41.125 36.953125 
Q 45.015625 41.5 45.015625 49.421875 
Q 45.015625 57.28125 41.125 61.84375 
Q 37.25 66.40625 30.609375 66.40625 
Q 23.96875 66.40625 20.09375 61.84375 
Q 16.21875 57.28125 16.21875 49.421875 
Q 16.21875 41.5 20.09375 36.953125 
Q 23.96875 32.421875 30.609375 32.421875 
z
" id="DejaVuSans-57"/>
      </defs>
      <g transform="translate(167.714707 252.616406)scale(0.23 -0.23)">
       <use xlink:href="#DejaVuSans-48"/>
       <use x="63.623047" xlink:href="#DejaVuSans-46"/>
       <use x="95.410156" xlink:href="#DejaVuSans-54"/>
       <use x="159.033203" xlink:href="#DejaVuSans-57"/>
      </g>
     </g>
    </g>
    <g id="xtick_3">
     <g id="line2d_3">
      <g>
       <use style="stroke:#000000;stroke-width:0.8;" x="273.295222" xlink:href="#ma3e5565960" y="228.14"/>
      </g>
     </g>
     <g id="text_3">
      <!-- 1.38 -->
      <defs>
       <path d="M 12.40625 8.296875 
L 28.515625 8.296875 
L 28.515625 63.921875 
L 10.984375 60.40625 
L 10.984375 69.390625 
L 28.421875 72.90625 
L 38.28125 72.90625 
L 38.28125 8.296875 
L 54.390625 8.296875 
L 54.390625 0 
L 12.40625 0 
z
" id="DejaVuSans-49"/>
       <path d="M 40.578125 39.3125 
Q 47.65625 37.796875 51.625 33 
Q 55.609375 28.21875 55.609375 21.1875 
Q 55.609375 10.40625 48.1875 4.484375 
Q 40.765625 -1.421875 27.09375 -1.421875 
Q 22.515625 -1.421875 17.65625 -0.515625 
Q 12.796875 0.390625 7.625 2.203125 
L 7.625 11.71875 
Q 11.71875 9.328125 16.59375 8.109375 
Q 21.484375 6.890625 26.8125 6.890625 
Q 36.078125 6.890625 40.9375 10.546875 
Q 45.796875 14.203125 45.796875 21.1875 
Q 45.796875 27.640625 41.28125 31.265625 
Q 36.765625 34.90625 28.71875 34.90625 
L 20.21875 34.90625 
L 20.21875 43.015625 
L 29.109375 43.015625 
Q 36.375 43.015625 40.234375 45.921875 
Q 44.09375 48.828125 44.09375 54.296875 
Q 44.09375 59.90625 40.109375 62.90625 
Q 36.140625 65.921875 28.71875 65.921875 
Q 24.65625 65.921875 20.015625 65.03125 
Q 15.375 64.15625 9.8125 62.3125 
L 9.8125 71.09375 
Q 15.4375 72.65625 20.34375 73.4375 
Q 25.25 74.21875 29.59375 74.21875 
Q 40.828125 74.21875 47.359375 69.109375 
Q 53.90625 64.015625 53.90625 55.328125 
Q 53.90625 49.265625 50.4375 45.09375 
Q 46.96875 40.921875 40.578125 39.3125 
z
" id="DejaVuSans-51"/>
       <path d="M 31.78125 34.625 
Q 24.75 34.625 20.71875 30.859375 
Q 16.703125 27.09375 16.703125 20.515625 
Q 16.703125 13.921875 20.71875 10.15625 
Q 24.75 6.390625 31.78125 6.390625 
Q 38.8125 6.390625 42.859375 10.171875 
Q 46.921875 13.96875 46.921875 20.515625 
Q 46.921875 27.09375 42.890625 30.859375 
Q 38.875 34.625 31.78125 34.625 
z
M 21.921875 38.8125 
Q 15.578125 40.375 12.03125 44.71875 
Q 8.5 49.078125 8.5 55.328125 
Q 8.5 64.0625 14.71875 69.140625 
Q 20.953125 74.21875 31.78125 74.21875 
Q 42.671875 74.21875 48.875 69.140625 
Q 55.078125 64.0625 55.078125 55.328125 
Q 55.078125 49.078125 51.53125 44.71875 
Q 48 40.375 41.703125 38.8125 
Q 48.828125 37.15625 52.796875 32.3125 
Q 56.78125 27.484375 56.78125 20.515625 
Q 56.78125 9.90625 50.3125 4.234375 
Q 43.84375 -1.421875 31.78125 -1.421875 
Q 19.734375 -1.421875 13.25 4.234375 
Q 6.78125 9.90625 6.78125 20.515625 
Q 6.78125 27.484375 10.78125 32.3125 
Q 14.796875 37.15625 21.921875 38.8125 
z
M 18.3125 54.390625 
Q 18.3125 48.734375 21.84375 45.5625 
Q 25.390625 42.390625 31.78125 42.390625 
Q 38.140625 42.390625 41.71875 45.5625 
Q 45.3125 48.734375 45.3125 54.390625 
Q 45.3125 60.0625 41.71875 63.234375 
Q 38.140625 66.40625 31.78125 66.40625 
Q 25.390625 66.40625 21.84375 63.234375 
Q 18.3125 60.0625 18.3125 54.390625 
z
" id="DejaVuSans-56"/>
      </defs>
      <g transform="translate(247.689753 252.616406)scale(0.23 -0.23)">
       <use xlink:href="#DejaVuSans-49"/>
       <use x="63.623047" xlink:href="#DejaVuSans-46"/>
       <use x="95.410156" xlink:href="#DejaVuSans-51"/>
       <use x="159.033203" xlink:href="#DejaVuSans-56"/>
      </g>
     </g>
    </g>
    <g id="xtick_4">
     <g id="line2d_4">
      <g>
       <use style="stroke:#000000;stroke-width:0.8;" x="353.270267" xlink:href="#ma3e5565960" y="228.14"/>
      </g>
     </g>
     <g id="text_4">
      <!-- 2.07 -->
      <defs>
       <path d="M 19.1875 8.296875 
L 53.609375 8.296875 
L 53.609375 0 
L 7.328125 0 
L 7.328125 8.296875 
Q 12.9375 14.109375 22.625 23.890625 
Q 32.328125 33.6875 34.8125 36.53125 
Q 39.546875 41.84375 41.421875 45.53125 
Q 43.3125 49.21875 43.3125 52.78125 
Q 43.3125 58.59375 39.234375 62.25 
Q 35.15625 65.921875 28.609375 65.921875 
Q 23.96875 65.921875 18.8125 64.3125 
Q 13.671875 62.703125 7.8125 59.421875 
L 7.8125 69.390625 
Q 13.765625 71.78125 18.9375 73 
Q 24.125 74.21875 28.421875 74.21875 
Q 39.75 74.21875 46.484375 68.546875 
Q 53.21875 62.890625 53.21875 53.421875 
Q 53.21875 48.921875 51.53125 44.890625 
Q 49.859375 40.875 45.40625 35.40625 
Q 44.1875 33.984375 37.640625 27.21875 
Q 31.109375 20.453125 19.1875 8.296875 
z
" id="DejaVuSans-50"/>
       <path d="M 8.203125 72.90625 
L 55.078125 72.90625 
L 55.078125 68.703125 
L 28.609375 0 
L 18.3125 0 
L 43.21875 64.59375 
L 8.203125 64.59375 
z
" id="DejaVuSans-55"/>
      </defs>
      <g transform="translate(327.664798 252.616406)scale(0.23 -0.23)">
       <use xlink:href="#DejaVuSans-50"/>
       <use x="63.623047" xlink:href="#DejaVuSans-46"/>
       <use x="95.410156" xlink:href="#DejaVuSans-48"/>
       <use x="159.033203" xlink:href="#DejaVuSans-55"/>
      </g>
     </g>
    </g>
    <g id="xtick_5">
     <g id="line2d_5">
      <g>
       <use style="stroke:#000000;stroke-width:0.8;" x="433.245312" xlink:href="#ma3e5565960" y="228.14"/>
      </g>
     </g>
     <g id="text_5">
      <!-- 2.76 -->
      <g transform="translate(407.639844 252.616406)scale(0.23 -0.23)">
       <use xlink:href="#DejaVuSans-50"/>
       <use x="63.623047" xlink:href="#DejaVuSans-46"/>
       <use x="95.410156" xlink:href="#DejaVuSans-55"/>
       <use x="159.033203" xlink:href="#DejaVuSans-54"/>
      </g>
     </g>
    </g>
    <g id="text_6">
     <!-- entropy -->
     <defs>
      <path d="M 56.203125 29.59375 
L 56.203125 25.203125 
L 14.890625 25.203125 
Q 15.484375 15.921875 20.484375 11.0625 
Q 25.484375 6.203125 34.421875 6.203125 
Q 39.59375 6.203125 44.453125 7.46875 
Q 49.3125 8.734375 54.109375 11.28125 
L 54.109375 2.78125 
Q 49.265625 0.734375 44.1875 -0.34375 
Q 39.109375 -1.421875 33.890625 -1.421875 
Q 20.796875 -1.421875 13.15625 6.1875 
Q 5.515625 13.8125 5.515625 26.8125 
Q 5.515625 40.234375 12.765625 48.109375 
Q 20.015625 56 32.328125 56 
Q 43.359375 56 49.78125 48.890625 
Q 56.203125 41.796875 56.203125 29.59375 
z
M 47.21875 32.234375 
Q 47.125 39.59375 43.09375 43.984375 
Q 39.0625 48.390625 32.421875 48.390625 
Q 24.90625 48.390625 20.390625 44.140625 
Q 15.875 39.890625 15.1875 32.171875 
z
" id="DejaVuSans-101"/>
      <path d="M 54.890625 33.015625 
L 54.890625 0 
L 45.90625 0 
L 45.90625 32.71875 
Q 45.90625 40.484375 42.875 44.328125 
Q 39.84375 48.1875 33.796875 48.1875 
Q 26.515625 48.1875 22.3125 43.546875 
Q 18.109375 38.921875 18.109375 30.90625 
L 18.109375 0 
L 9.078125 0 
L 9.078125 54.6875 
L 18.109375 54.6875 
L 18.109375 46.1875 
Q 21.34375 51.125 25.703125 53.5625 
Q 30.078125 56 35.796875 56 
Q 45.21875 56 50.046875 50.171875 
Q 54.890625 44.34375 54.890625 33.015625 
z
" id="DejaVuSans-110"/>
      <path d="M 18.3125 70.21875 
L 18.3125 54.6875 
L 36.8125 54.6875 
L 36.8125 47.703125 
L 18.3125 47.703125 
L 18.3125 18.015625 
Q 18.3125 11.328125 20.140625 9.421875 
Q 21.96875 7.515625 27.59375 7.515625 
L 36.8125 7.515625 
L 36.8125 0 
L 27.59375 0 
Q 17.1875 0 13.234375 3.875 
Q 9.28125 7.765625 9.28125 18.015625 
L 9.28125 47.703125 
L 2.6875 47.703125 
L 2.6875 54.6875 
L 9.28125 54.6875 
L 9.28125 70.21875 
z
" id="DejaVuSans-116"/>
      <path d="M 41.109375 46.296875 
Q 39.59375 47.171875 37.8125 47.578125 
Q 36.03125 48 33.890625 48 
Q 26.265625 48 22.1875 43.046875 
Q 18.109375 38.09375 18.109375 28.8125 
L 18.109375 0 
L 9.078125 0 
L 9.078125 54.6875 
L 18.109375 54.6875 
L 18.109375 46.1875 
Q 20.953125 51.171875 25.484375 53.578125 
Q 30.03125 56 36.53125 56 
Q 37.453125 56 38.578125 55.875 
Q 39.703125 55.765625 41.0625 55.515625 
z
" id="DejaVuSans-114"/>
      <path d="M 30.609375 48.390625 
Q 23.390625 48.390625 19.1875 42.75 
Q 14.984375 37.109375 14.984375 27.296875 
Q 14.984375 17.484375 19.15625 11.84375 
Q 23.34375 6.203125 30.609375 6.203125 
Q 37.796875 6.203125 41.984375 11.859375 
Q 46.1875 17.53125 46.1875 27.296875 
Q 46.1875 37.015625 41.984375 42.703125 
Q 37.796875 48.390625 30.609375 48.390625 
z
M 30.609375 56 
Q 42.328125 56 49.015625 48.375 
Q 55.71875 40.765625 55.71875 27.296875 
Q 55.71875 13.875 49.015625 6.21875 
Q 42.328125 -1.421875 30.609375 -1.421875 
Q 18.84375 -1.421875 12.171875 6.21875 
Q 5.515625 13.875 5.515625 27.296875 
Q 5.515625 40.765625 12.171875 48.375 
Q 18.84375 56 30.609375 56 
z
" id="DejaVuSans-111"/>
      <path d="M 18.109375 8.203125 
L 18.109375 -20.796875 
L 9.078125 -20.796875 
L 9.078125 54.6875 
L 18.109375 54.6875 
L 18.109375 46.390625 
Q 20.953125 51.265625 25.265625 53.625 
Q 29.59375 56 35.59375 56 
Q 45.5625 56 51.78125 48.09375 
Q 58.015625 40.1875 58.015625 27.296875 
Q 58.015625 14.40625 51.78125 6.484375 
Q 45.5625 -1.421875 35.59375 -1.421875 
Q 29.59375 -1.421875 25.265625 0.953125 
Q 20.953125 3.328125 18.109375 8.203125 
z
M 48.6875 27.296875 
Q 48.6875 37.203125 44.609375 42.84375 
Q 40.53125 48.484375 33.40625 48.484375 
Q 26.265625 48.484375 22.1875 42.84375 
Q 18.109375 37.203125 18.109375 27.296875 
Q 18.109375 17.390625 22.1875 11.75 
Q 26.265625 6.109375 33.40625 6.109375 
Q 40.53125 6.109375 44.609375 11.75 
Q 48.6875 17.390625 48.6875 27.296875 
z
" id="DejaVuSans-112"/>
      <path d="M 32.171875 -5.078125 
Q 28.375 -14.84375 24.75 -17.8125 
Q 21.140625 -20.796875 15.09375 -20.796875 
L 7.90625 -20.796875 
L 7.90625 -13.28125 
L 13.1875 -13.28125 
Q 16.890625 -13.28125 18.9375 -11.515625 
Q 21 -9.765625 23.484375 -3.21875 
L 25.09375 0.875 
L 2.984375 54.6875 
L 12.5 54.6875 
L 29.59375 11.921875 
L 46.6875 54.6875 
L 56.203125 54.6875 
z
" id="DejaVuSans-121"/>
     </defs>
     <g transform="translate(207.488281 284.195)scale(0.3 -0.3)">
      <use xlink:href="#DejaVuSans-101"/>
      <use x="61.523438" xlink:href="#DejaVuSans-110"/>
      <use x="124.902344" xlink:href="#DejaVuSans-116"/>
      <use x="164.111328" xlink:href="#DejaVuSans-114"/>
      <use x="205.193359" xlink:href="#DejaVuSans-111"/>
      <use x="266.375" xlink:href="#DejaVuSans-112"/>
      <use x="329.851562" xlink:href="#DejaVuSans-121"/>
     </g>
    </g>
   </g>
   <g id="matplotlib.axis_2">
    <g id="ytick_1">
     <g id="line2d_6">
      <defs>
       <path d="M 0 0 
L -3.5 0 
" id="m8469203610" style="stroke:#000000;stroke-width:0.8;"/>
      </defs>
      <g>
       <use style="stroke:#000000;stroke-width:0.8;" x="98.445312" xlink:href="#m8469203610" y="218.39776"/>
      </g>
     </g>
     <g id="text_7">
      <!-- 0.00 -->
      <g transform="translate(40.234375 227.135964)scale(0.23 -0.23)">
       <use xlink:href="#DejaVuSans-48"/>
       <use x="63.623047" xlink:href="#DejaVuSans-46"/>
       <use x="95.410156" xlink:href="#DejaVuSans-48"/>
       <use x="159.033203" xlink:href="#DejaVuSans-48"/>
      </g>
     </g>
    </g>
    <g id="ytick_2">
     <g id="line2d_7">
      <g>
       <use style="stroke:#000000;stroke-width:0.8;" x="98.445312" xlink:href="#m8469203610" y="168.944229"/>
      </g>
     </g>
     <g id="text_8">
      <!-- 0.25 -->
      <defs>
       <path d="M 10.796875 72.90625 
L 49.515625 72.90625 
L 49.515625 64.59375 
L 19.828125 64.59375 
L 19.828125 46.734375 
Q 21.96875 47.46875 24.109375 47.828125 
Q 26.265625 48.1875 28.421875 48.1875 
Q 40.625 48.1875 47.75 41.5 
Q 54.890625 34.8125 54.890625 23.390625 
Q 54.890625 11.625 47.5625 5.09375 
Q 40.234375 -1.421875 26.90625 -1.421875 
Q 22.3125 -1.421875 17.546875 -0.640625 
Q 12.796875 0.140625 7.71875 1.703125 
L 7.71875 11.625 
Q 12.109375 9.234375 16.796875 8.0625 
Q 21.484375 6.890625 26.703125 6.890625 
Q 35.15625 6.890625 40.078125 11.328125 
Q 45.015625 15.765625 45.015625 23.390625 
Q 45.015625 31 40.078125 35.4375 
Q 35.15625 39.890625 26.703125 39.890625 
Q 22.75 39.890625 18.8125 39.015625 
Q 14.890625 38.140625 10.796875 36.28125 
z
" id="DejaVuSans-53"/>
      </defs>
      <g transform="translate(40.234375 177.682433)scale(0.23 -0.23)">
       <use xlink:href="#DejaVuSans-48"/>
       <use x="63.623047" xlink:href="#DejaVuSans-46"/>
       <use x="95.410156" xlink:href="#DejaVuSans-50"/>
       <use x="159.033203" xlink:href="#DejaVuSans-53"/>
      </g>
     </g>
    </g>
    <g id="ytick_3">
     <g id="line2d_8">
      <g>
       <use style="stroke:#000000;stroke-width:0.8;" x="98.445312" xlink:href="#m8469203610" y="119.490698"/>
      </g>
     </g>
     <g id="text_9">
      <!-- 0.50 -->
      <g transform="translate(40.234375 128.228902)scale(0.23 -0.23)">
       <use xlink:href="#DejaVuSans-48"/>
       <use x="63.623047" xlink:href="#DejaVuSans-46"/>
       <use x="95.410156" xlink:href="#DejaVuSans-53"/>
       <use x="159.033203" xlink:href="#DejaVuSans-48"/>
      </g>
     </g>
    </g>
    <g id="ytick_4">
     <g id="line2d_9">
      <g>
       <use style="stroke:#000000;stroke-width:0.8;" x="98.445312" xlink:href="#m8469203610" y="70.037167"/>
      </g>
     </g>
     <g id="text_10">
      <!-- 0.75 -->
      <g transform="translate(40.234375 78.775371)scale(0.23 -0.23)">
       <use xlink:href="#DejaVuSans-48"/>
       <use x="63.623047" xlink:href="#DejaVuSans-46"/>
       <use x="95.410156" xlink:href="#DejaVuSans-55"/>
       <use x="159.033203" xlink:href="#DejaVuSans-53"/>
      </g>
     </g>
    </g>
    <g id="ytick_5">
     <g id="line2d_10">
      <g>
       <use style="stroke:#000000;stroke-width:0.8;" x="98.445312" xlink:href="#m8469203610" y="20.583636"/>
      </g>
     </g>
     <g id="text_11">
      <!-- 1.00 -->
      <g transform="translate(40.234375 29.321839)scale(0.23 -0.23)">
       <use xlink:href="#DejaVuSans-49"/>
       <use x="63.623047" xlink:href="#DejaVuSans-46"/>
       <use x="95.410156" xlink:href="#DejaVuSans-48"/>
       <use x="159.033203" xlink:href="#DejaVuSans-48"/>
      </g>
     </g>
    </g>
    <g id="text_12">
     <!-- ICDF -->
     <defs>
      <path d="M 9.8125 72.90625 
L 19.671875 72.90625 
L 19.671875 0 
L 9.8125 0 
z
" id="DejaVuSans-73"/>
      <path d="M 64.40625 67.28125 
L 64.40625 56.890625 
Q 59.421875 61.53125 53.78125 63.8125 
Q 48.140625 66.109375 41.796875 66.109375 
Q 29.296875 66.109375 22.65625 58.46875 
Q 16.015625 50.828125 16.015625 36.375 
Q 16.015625 21.96875 22.65625 14.328125 
Q 29.296875 6.6875 41.796875 6.6875 
Q 48.140625 6.6875 53.78125 8.984375 
Q 59.421875 11.28125 64.40625 15.921875 
L 64.40625 5.609375 
Q 59.234375 2.09375 53.4375 0.328125 
Q 47.65625 -1.421875 41.21875 -1.421875 
Q 24.65625 -1.421875 15.125 8.703125 
Q 5.609375 18.84375 5.609375 36.375 
Q 5.609375 53.953125 15.125 64.078125 
Q 24.65625 74.21875 41.21875 74.21875 
Q 47.75 74.21875 53.53125 72.484375 
Q 59.328125 70.75 64.40625 67.28125 
z
" id="DejaVuSans-67"/>
      <path d="M 19.671875 64.796875 
L 19.671875 8.109375 
L 31.59375 8.109375 
Q 46.6875 8.109375 53.6875 14.9375 
Q 60.6875 21.78125 60.6875 36.53125 
Q 60.6875 51.171875 53.6875 57.984375 
Q 46.6875 64.796875 31.59375 64.796875 
z
M 9.8125 72.90625 
L 30.078125 72.90625 
Q 51.265625 72.90625 61.171875 64.09375 
Q 71.09375 55.28125 71.09375 36.53125 
Q 71.09375 17.671875 61.125 8.828125 
Q 51.171875 0 30.078125 0 
L 9.8125 0 
z
" id="DejaVuSans-68"/>
      <path d="M 9.8125 72.90625 
L 51.703125 72.90625 
L 51.703125 64.59375 
L 19.671875 64.59375 
L 19.671875 43.109375 
L 48.578125 43.109375 
L 48.578125 34.8125 
L 19.671875 34.8125 
L 19.671875 0 
L 9.8125 0 
z
" id="DejaVuSans-70"/>
     </defs>
     <g transform="translate(29.995312 154.496562)rotate(-90)scale(0.3 -0.3)">
      <use xlink:href="#DejaVuSans-73"/>
      <use x="29.492188" xlink:href="#DejaVuSans-67"/>
      <use x="99.316406" xlink:href="#DejaVuSans-68"/>
      <use x="176.318359" xlink:href="#DejaVuSans-70"/>
     </g>
    </g>
   </g>
   <g id="line2d_11">
    <path clip-path="url(#p87ca41594a)" d="M 113.345131 20.583636 
L 123.27384 21.007827 
L 149.08838 21.29062 
L 160.880017 21.573414 
L 160.880017 21.714811 
L 161.90057 21.856208 
L 161.974118 21.997604 
L 163.081231 22.280398 
L 163.382231 22.421795 
L 167.73052 22.563192 
L 168.308633 22.704588 
L 169.790197 22.845985 
L 174.065775 23.128779 
L 175.624804 23.552969 
L 175.782604 23.694366 
L 177.915525 23.97716 
L 178.808298 24.542747 
L 182.688084 25.249731 
L 184.153117 26.098112 
L 184.528776 26.522302 
L 184.536615 26.663699 
L 184.918077 26.805096 
L 185.87895 26.946492 
L 186.195811 27.51208 
L 187.120855 27.93627 
L 187.120855 28.077667 
L 187.677569 28.501857 
L 187.817476 28.784651 
L 188.124533 29.491635 
L 188.319312 29.774428 
L 188.947419 29.915825 
L 189.050107 30.198619 
L 189.363943 30.481412 
L 189.439582 30.764206 
L 189.780506 30.905603 
L 190.570709 31.047 
L 190.64725 31.188396 
L 191.718712 31.47119 
L 191.892759 31.753984 
L 191.953576 32.178174 
L 192.222245 32.319571 
L 192.234079 32.460968 
L 192.795239 33.026555 
L 192.92917 33.309348 
L 193.684953 36.420078 
L 194.20006 36.702872 
L 194.463887 36.985665 
L 194.54942 37.268459 
L 195.033518 37.409856 
L 195.205816 37.834046 
L 195.604442 37.975443 
L 195.648013 38.11684 
L 196.130906 38.54103 
L 196.197936 38.682427 
L 196.723571 38.823824 
L 196.730274 38.96522 
L 198.090814 39.389411 
L 198.098914 39.530808 
L 198.612873 39.813601 
L 199.925657 40.520585 
L 200.79326 40.803379 
L 202.593823 41.934553 
L 202.694644 42.217347 
L 202.93057 42.50014 
L 203.56853 43.348521 
L 206.339626 44.903886 
L 206.839041 45.61087 
L 207.469871 45.752267 
L 207.666266 46.459251 
L 208.681781 46.742044 
L 208.691733 46.883441 
L 208.868092 47.166235 
L 209.287298 47.307632 
L 209.44702 47.590425 
L 210.055252 47.731822 
L 210.087081 47.873219 
L 210.35649 48.156012 
L 210.438719 48.297409 
L 210.895615 48.580203 
L 211.631053 48.862996 
L 211.711719 49.14579 
L 211.928225 49.428584 
L 212.614634 50.418361 
L 212.848865 50.701155 
L 212.917371 50.842552 
L 213.553034 51.125345 
L 213.573578 51.266742 
L 213.758619 51.408139 
L 213.758619 51.549536 
L 214.04701 51.832329 
L 214.048698 51.973726 
L 214.481185 52.25652 
L 214.504326 52.397917 
L 214.719606 52.68071 
L 214.783914 52.822107 
L 215.400422 52.963504 
L 215.76923 53.387694 
L 216.676337 54.094678 
L 216.698751 54.236075 
L 217.185962 54.518869 
L 217.854158 54.943059 
L 218.731022 55.225853 
L 218.732961 55.367249 
L 218.930598 55.650043 
L 218.95504 55.932837 
L 219.512115 56.21563 
L 219.563044 56.357027 
L 220.010288 56.639821 
L 220.558199 57.488201 
L 220.563884 57.629598 
L 221.092655 57.912392 
L 221.118803 58.053789 
L 221.785921 58.477979 
L 222.104583 58.760773 
L 222.51074 59.32636 
L 222.57108 59.609153 
L 224.457531 61.305915 
L 224.885531 62.012899 
L 225.190501 62.295693 
L 225.304739 62.437089 
L 225.818993 62.578486 
L 225.939248 63.144073 
L 226.637748 64.275248 
L 227.135132 64.416645 
L 227.411323 64.982232 
L 227.676112 65.123629 
L 227.81065 65.547819 
L 227.996403 65.830613 
L 228.114555 66.537597 
L 228.382886 66.82039 
L 228.747304 67.244581 
L 228.794623 67.527374 
L 229.23987 68.092961 
L 229.375759 68.375755 
L 229.830093 68.941342 
L 229.983489 69.365533 
L 230.082819 69.648326 
L 230.719843 69.93112 
L 230.811046 70.072517 
L 231.140409 70.35531 
L 231.260365 70.496707 
L 231.777921 70.779501 
L 231.810549 70.920897 
L 232.336233 71.345088 
L 232.704733 71.910675 
L 232.919617 72.193469 
L 232.965766 72.334865 
L 233.212133 72.617659 
L 233.221522 72.759056 
L 233.494059 73.041849 
L 233.5224 73.183246 
L 234.0393 73.607437 
L 234.127387 73.89023 
L 234.540233 74.455817 
L 234.843282 74.880008 
L 234.938735 75.021405 
L 235.235635 75.304198 
L 235.4602 75.728389 
L 235.57373 76.011182 
L 235.579054 76.152579 
L 235.822801 76.576769 
L 235.952039 77.00096 
L 236.145731 77.42515 
L 236.315171 77.849341 
L 237.027569 79.263309 
L 237.224972 79.546102 
L 237.352869 80.111689 
L 237.665888 80.53588 
L 237.682104 80.677277 
L 237.93859 80.96007 
L 237.995121 81.384261 
L 239.163871 83.646609 
L 239.463756 84.49499 
L 239.767908 85.060577 
L 239.808153 85.201974 
L 240.277727 85.484768 
L 240.308221 85.767561 
L 240.520168 86.050355 
L 240.899266 87.60572 
L 241.289316 88.02991 
L 241.382656 88.312704 
L 241.694437 88.595497 
L 242.150083 89.019688 
L 242.332874 89.726672 
L 242.438237 89.868069 
L 242.924821 90.150862 
L 242.981469 90.292259 
L 243.633818 90.716449 
L 243.698875 91.14064 
L 243.864739 91.423433 
L 244.003194 91.706227 
L 244.31682 92.130417 
L 244.377866 92.554608 
L 244.471642 92.696005 
L 244.989669 93.120195 
L 245.263274 93.402989 
L 245.279016 93.544385 
L 245.774288 93.685782 
L 245.789524 93.827179 
L 246.053535 94.251369 
L 246.257397 94.534163 
L 246.683794 94.958353 
L 246.803228 95.241147 
L 246.846975 95.523941 
L 247.342876 95.806734 
L 247.468206 96.372321 
L 247.666896 96.655115 
L 247.699651 96.796512 
L 248.087144 97.079306 
L 248.23099 97.503496 
L 248.347063 97.78629 
L 248.551475 98.351877 
L 248.799324 98.63467 
L 249.453997 99.624448 
L 249.596705 100.190035 
L 250.054932 100.331432 
L 250.623923 101.604003 
L 250.888533 102.028194 
L 251.312252 102.735178 
L 251.712441 103.017971 
L 252.115536 103.442162 
L 252.38109 104.007749 
L 252.645964 104.290542 
L 252.76116 104.431939 
L 253.4758 104.573336 
L 253.522032 104.714733 
L 253.776654 104.997526 
L 253.836043 105.138923 
L 254.089138 105.421717 
L 254.135333 105.563114 
L 254.697232 106.128701 
L 254.81677 106.411494 
L 255.028006 106.694288 
L 255.058149 106.977082 
L 255.365645 107.259875 
L 255.39861 107.542669 
L 255.716105 107.825462 
L 255.742392 108.108256 
L 256.93191 108.956637 
L 257.21188 109.098034 
L 257.325099 109.380827 
L 257.345084 109.522224 
L 257.700394 109.805018 
L 257.700394 109.946414 
L 258.053238 110.370605 
L 258.242601 110.653398 
L 258.65441 111.218986 
L 258.703527 111.360382 
L 259.015607 111.643176 
L 259.177824 112.35016 
L 259.791473 112.77435 
L 260.02625 113.198541 
L 260.122065 113.481334 
L 260.477898 113.622731 
L 260.579051 114.188318 
L 260.729143 114.612509 
L 261.123848 114.895302 
L 261.682258 115.602286 
L 262.102909 115.743683 
L 262.141359 115.88508 
L 262.325726 116.167874 
L 262.493658 116.733461 
L 262.683754 117.016254 
L 262.684542 117.157651 
L 263.090428 117.581842 
L 263.608805 118.99581 
L 263.938424 119.278603 
L 264.380765 120.268381 
L 264.556435 120.551174 
L 264.569995 120.692571 
L 264.809082 120.975365 
L 264.911612 121.258158 
L 265.171826 121.540952 
L 265.336757 121.965142 
L 265.555377 122.247936 
L 265.640454 122.672126 
L 265.868637 122.813523 
L 265.924716 123.237714 
L 266.179489 123.520507 
L 266.558142 124.086094 
L 266.694253 124.510285 
L 266.990009 124.651682 
L 267.087106 124.934475 
L 267.527113 125.358666 
L 267.640833 125.641459 
L 267.988554 126.207046 
L 268.318289 126.772634 
L 268.751746 127.338221 
L 268.762894 127.479618 
L 269.117614 127.762411 
L 269.204458 128.186602 
L 269.668782 128.610792 
L 269.798907 129.034982 
L 270.01239 129.317776 
L 270.127815 129.60057 
L 270.230831 130.02476 
L 270.353365 130.44895 
L 270.838708 130.590347 
L 270.980697 130.873141 
L 271.065162 131.155934 
L 271.103083 131.297331 
L 271.286874 131.580125 
L 271.366518 132.145712 
L 271.767162 132.428506 
L 271.794899 132.569902 
L 272.03757 132.852696 
L 272.296298 133.276886 
L 272.735285 133.701077 
L 272.795966 133.842474 
L 273.467756 134.408061 
L 273.73934 134.832251 
L 274.117024 135.256442 
L 274.350181 135.539235 
L 274.589455 135.963426 
L 274.795099 136.67041 
L 274.995731 137.0946 
L 275.179115 137.377394 
L 275.255756 137.801584 
L 275.451427 138.084378 
L 275.747175 138.932758 
L 275.790297 139.356949 
L 276.80347 140.62952 
L 277.039541 140.912314 
L 277.049064 141.05371 
L 277.355809 141.336504 
L 277.456373 141.760694 
L 277.835815 142.326282 
L 277.94986 143.033266 
L 278.533343 143.598853 
L 278.563438 143.74025 
L 278.945524 144.023043 
L 279.15507 144.305837 
L 279.375882 144.588631 
L 279.581347 144.871424 
L 279.609792 145.012821 
L 280.343443 145.719805 
L 280.594066 146.709583 
L 280.771872 146.992376 
L 280.777253 147.133773 
L 281.116072 147.416567 
L 281.450504 148.689138 
L 282.150723 149.537519 
L 282.574566 149.820312 
L 282.755644 150.385899 
L 283.107946 150.527296 
L 283.367263 151.517074 
L 283.741243 151.941264 
L 284.211344 152.224058 
L 284.386091 152.648248 
L 284.762801 152.789645 
L 284.796205 152.931042 
L 285.447912 153.496629 
L 285.872071 154.062216 
L 285.975114 154.34501 
L 286.328418 154.7692 
L 286.799485 155.051994 
L 286.869253 155.476184 
L 287.107939 156.183168 
L 287.264736 156.465962 
L 287.305541 156.748755 
L 287.59093 157.031549 
L 288.72647 158.869707 
L 289.190308 159.011104 
L 289.418048 159.576691 
L 290.24546 159.718088 
L 290.4909 160.000882 
L 290.622102 160.283675 
L 291.318963 161.697643 
L 291.443088 162.121834 
L 291.711941 162.546024 
L 292.016896 163.677199 
L 292.316459 163.959992 
L 292.991639 165.656754 
L 293.378289 165.798151 
L 293.393319 166.080944 
L 293.609887 166.363738 
L 293.624302 166.505135 
L 293.89332 166.787928 
L 294.313993 167.494912 
L 295.140064 169.191674 
L 296.195377 169.757261 
L 296.489037 170.464245 
L 296.876203 170.747039 
L 297.289367 171.454023 
L 297.540342 171.595419 
L 297.624332 172.161007 
L 297.774716 172.4438 
L 298.230124 172.585197 
L 298.343967 173.009387 
L 298.40132 173.150784 
L 298.929863 173.433578 
L 299.474074 174.847546 
L 299.628151 175.130339 
L 299.641397 175.271736 
L 300.352485 175.97872 
L 300.691513 176.544307 
L 300.966016 176.827101 
L 301.130801 177.251291 
L 301.634053 177.675482 
L 301.80625 177.958275 
L 302.200864 178.523863 
L 302.669097 178.665259 
L 302.725333 179.08945 
L 303.228499 179.230847 
L 303.447842 179.655037 
L 303.485981 179.937831 
L 303.757436 180.220624 
L 303.83617 180.503418 
L 304.601101 180.927608 
L 304.64744 181.210402 
L 305.080822 181.634592 
L 305.164209 181.775989 
L 305.710032 182.058783 
L 305.741668 182.200179 
L 306.166666 182.482973 
L 306.217219 182.62437 
L 306.441686 182.907163 
L 306.46396 183.04856 
L 307.016173 183.331354 
L 307.031214 183.472751 
L 307.60347 183.896941 
L 308.659091 184.745322 
L 308.782509 185.169512 
L 309.155032 185.310909 
L 309.235305 185.593703 
L 309.81761 186.15929 
L 309.955638 186.442083 
L 310.559244 186.724877 
L 310.667516 187.149067 
L 311.611981 187.573258 
L 311.955638 187.997448 
L 312.741838 188.138845 
L 313.045333 188.704432 
L 313.440324 189.128623 
L 313.857004 189.411416 
L 314.0056 189.69421 
L 314.371137 189.977004 
L 315.329452 190.1184 
L 315.422819 190.259797 
L 316.102238 190.401194 
L 316.123205 190.542591 
L 316.743307 190.966781 
L 316.982429 191.249575 
L 317.415499 191.390972 
L 317.443537 191.532368 
L 318.359131 192.097956 
L 318.389333 192.239352 
L 318.932509 192.380749 
L 318.989395 192.522146 
L 319.600944 192.946336 
L 319.834321 193.22913 
L 319.880679 193.370527 
L 320.477187 193.65332 
L 320.585405 193.936114 
L 321.628256 194.501701 
L 321.64265 194.784495 
L 321.772569 194.925892 
L 322.078086 195.067288 
L 322.668713 195.208685 
L 322.761783 195.350082 
L 323.262746 195.632876 
L 324.296115 196.057066 
L 324.576406 196.481256 
L 324.673073 196.76405 
L 325.325406 197.046844 
L 325.532622 197.471034 
L 326.21162 197.753828 
L 327.74764 199.167796 
L 328.083195 199.450589 
L 328.496962 199.733383 
L 328.965282 200.016176 
L 329.058368 200.29897 
L 329.78994 200.581764 
L 331.613563 201.147351 
L 331.707114 201.430144 
L 333.120098 202.137128 
L 333.916222 202.419922 
L 333.939184 202.561319 
L 334.666822 202.844112 
L 336.050724 202.985509 
L 336.496521 203.692493 
L 337.329852 203.975287 
L 337.365086 204.116684 
L 338.188042 204.399477 
L 338.208438 204.682271 
L 338.731097 204.823668 
L 338.796663 205.106461 
L 339.754354 205.389255 
L 339.999442 205.672048 
L 340.067489 205.813445 
L 341.423613 206.096239 
L 341.902077 206.661826 
L 342.524628 206.94462 
L 342.658033 207.227413 
L 343.150842 207.510207 
L 344.832487 207.793 
L 345.255483 207.934397 
L 345.348717 208.358588 
L 346.05407 208.499984 
L 347.445096 208.641381 
L 347.590284 208.782778 
L 349.033428 209.065572 
L 349.98239 209.348365 
L 353.792529 210.055349 
L 354.02824 210.196746 
L 355.322392 210.620936 
L 355.416257 210.762333 
L 356.706234 211.32792 
L 358.831789 212.034904 
L 359.137781 212.176301 
L 359.902366 212.317698 
L 360.039863 212.600492 
L 360.783022 212.883285 
L 360.804145 213.024682 
L 362.728517 213.731666 
L 362.827936 213.873063 
L 366.115899 214.155856 
L 368.670787 214.86284 
L 368.79245 215.145634 
L 369.179004 215.287031 
L 369.236268 215.428428 
L 371.423672 215.852618 
L 371.798589 216.276808 
L 372.828008 216.418205 
L 372.94143 216.559602 
L 373.817533 216.842396 
L 383.331266 217.407983 
L 383.345117 217.54938 
L 390.930278 217.832173 
L 392.33084 217.97357 
L 392.538731 218.114967 
L 411.341495 218.256364 
L 411.341495 218.256364 
" style="fill:none;stroke:#ff0000;stroke-linecap:square;stroke-width:4;"/>
   </g>
   <g id="patch_3">
    <path d="M 98.445312 228.14 
L 98.445312 10.7 
" style="fill:none;stroke:#000000;stroke-linecap:square;stroke-linejoin:miter;stroke-width:0.8;"/>
   </g>
   <g id="patch_4">
    <path d="M 433.245313 228.14 
L 433.245313 10.7 
" style="fill:none;stroke:#000000;stroke-linecap:square;stroke-linejoin:miter;stroke-width:0.8;"/>
   </g>
   <g id="patch_5">
    <path d="M 98.445312 228.14 
L 433.245312 228.14 
" style="fill:none;stroke:#000000;stroke-linecap:square;stroke-linejoin:miter;stroke-width:0.8;"/>
   </g>
   <g id="patch_6">
    <path d="M 98.445312 10.7 
L 433.245312 10.7 
" style="fill:none;stroke:#000000;stroke-linecap:square;stroke-linejoin:miter;stroke-width:0.8;"/>
   </g>
  </g>
 </g>
 <defs>
  <clipPath id="p87ca41594a">
   <rect height="217.44" width="334.8" x="98.445312" y="10.7"/>
  </clipPath>
 </defs>
</svg>
