<?xml version="1.0" encoding="utf-8" standalone="no"?>
<!DOCTYPE svg PUBLIC "-//W3C//DTD SVG 1.1//EN"
  "http://www.w3.org/Graphics/SVG/1.1/DTD/svg11.dtd">
<!-- Created with matplotlib (https://matplotlib.org/) -->
<svg height="297.634062pt" version="1.1" viewBox="0 0 466.050781 297.634062" width="466.050781pt" xmlns="http://www.w3.org/2000/svg" xmlns:xlink="http://www.w3.org/1999/xlink">
 <defs>
  <style type="text/css">
*{stroke-linecap:butt;stroke-linejoin:round;}
  </style>
 </defs>
 <g id="figure_1">
  <g id="patch_1">
   <path d="M 0 297.634062 
L 466.050781 297.634062 
L 466.050781 0 
L 0 0 
z
" style="fill:#ffffff;"/>
  </g>
  <g id="axes_1">
   <g id="patch_2">
    <path d="M 98.445312 228.14 
L 433.245313 228.14 
L 433.245313 10.7 
L 98.445312 10.7 
z
" style="fill:#ffffff;"/>
   </g>
   <g id="matplotlib.axis_1">
    <g id="xtick_1">
     <g id="line2d_1">
      <defs>
       <path d="M 0 0 
L 0 3.5 
" id="md5f64d3f2b" style="stroke:#000000;stroke-width:0.8;"/>
      </defs>
      <g>
       <use style="stroke:#000000;stroke-width:0.8;" x="112.98275" xlink:href="#md5f64d3f2b" y="228.14"/>
      </g>
     </g>
     <g id="text_1">
      <!-- 0.69 -->
      <defs>
       <path d="M 31.78125 66.40625 
Q 24.171875 66.40625 20.328125 58.90625 
Q 16.5 51.421875 16.5 36.375 
Q 16.5 21.390625 20.328125 13.890625 
Q 24.171875 6.390625 31.78125 6.390625 
Q 39.453125 6.390625 43.28125 13.890625 
Q 47.125 21.390625 47.125 36.375 
Q 47.125 51.421875 43.28125 58.90625 
Q 39.453125 66.40625 31.78125 66.40625 
z
M 31.78125 74.21875 
Q 44.046875 74.21875 50.515625 64.515625 
Q 56.984375 54.828125 56.984375 36.375 
Q 56.984375 17.96875 50.515625 8.265625 
Q 44.046875 -1.421875 31.78125 -1.421875 
Q 19.53125 -1.421875 13.0625 8.265625 
Q 6.59375 17.96875 6.59375 36.375 
Q 6.59375 54.828125 13.0625 64.515625 
Q 19.53125 74.21875 31.78125 74.21875 
z
" id="DejaVuSans-48"/>
       <path d="M 10.6875 12.40625 
L 21 12.40625 
L 21 0 
L 10.6875 0 
z
" id="DejaVuSans-46"/>
       <path d="M 33.015625 40.375 
Q 26.375 40.375 22.484375 35.828125 
Q 18.609375 31.296875 18.609375 23.390625 
Q 18.609375 15.53125 22.484375 10.953125 
Q 26.375 6.390625 33.015625 6.390625 
Q 39.65625 6.390625 43.53125 10.953125 
Q 47.40625 15.53125 47.40625 23.390625 
Q 47.40625 31.296875 43.53125 35.828125 
Q 39.65625 40.375 33.015625 40.375 
z
M 52.59375 71.296875 
L 52.59375 62.3125 
Q 48.875 64.0625 45.09375 64.984375 
Q 41.3125 65.921875 37.59375 65.921875 
Q 27.828125 65.921875 22.671875 59.328125 
Q 17.53125 52.734375 16.796875 39.40625 
Q 19.671875 43.65625 24.015625 45.921875 
Q 28.375 48.1875 33.59375 48.1875 
Q 44.578125 48.1875 50.953125 41.515625 
Q 57.328125 34.859375 57.328125 23.390625 
Q 57.328125 12.15625 50.6875 5.359375 
Q 44.046875 -1.421875 33.015625 -1.421875 
Q 20.359375 -1.421875 13.671875 8.265625 
Q 6.984375 17.96875 6.984375 36.375 
Q 6.984375 53.65625 15.1875 63.9375 
Q 23.390625 74.21875 37.203125 74.21875 
Q 40.921875 74.21875 44.703125 73.484375 
Q 48.484375 72.75 52.59375 71.296875 
z
" id="DejaVuSans-54"/>
       <path d="M 10.984375 1.515625 
L 10.984375 10.5 
Q 14.703125 8.734375 18.5 7.8125 
Q 22.3125 6.890625 25.984375 6.890625 
Q 35.75 6.890625 40.890625 13.453125 
Q 46.046875 20.015625 46.78125 33.40625 
Q 43.953125 29.203125 39.59375 26.953125 
Q 35.25 24.703125 29.984375 24.703125 
Q 19.046875 24.703125 12.671875 31.3125 
Q 6.296875 37.9375 6.296875 49.421875 
Q 6.296875 60.640625 12.9375 67.421875 
Q 19.578125 74.21875 30.609375 74.21875 
Q 43.265625 74.21875 49.921875 64.515625 
Q 56.59375 54.828125 56.59375 36.375 
Q 56.59375 19.140625 48.40625 8.859375 
Q 40.234375 -1.421875 26.421875 -1.421875 
Q 22.703125 -1.421875 18.890625 -0.6875 
Q 15.09375 0.046875 10.984375 1.515625 
z
M 30.609375 32.421875 
Q 37.25 32.421875 41.125 36.953125 
Q 45.015625 41.5 45.015625 49.421875 
Q 45.015625 57.28125 41.125 61.84375 
Q 37.25 66.40625 30.609375 66.40625 
Q 23.96875 66.40625 20.09375 61.84375 
Q 16.21875 57.28125 16.21875 49.421875 
Q 16.21875 41.5 20.09375 36.953125 
Q 23.96875 32.421875 30.609375 32.421875 
z
" id="DejaVuSans-57"/>
      </defs>
      <g transform="translate(87.377281 252.616406)scale(0.23 -0.23)">
       <use xlink:href="#DejaVuSans-48"/>
       <use x="63.623047" xlink:href="#DejaVuSans-46"/>
       <use x="95.410156" xlink:href="#DejaVuSans-54"/>
       <use x="159.033203" xlink:href="#DejaVuSans-57"/>
      </g>
     </g>
    </g>
    <g id="xtick_2">
     <g id="line2d_2">
      <g>
       <use style="stroke:#000000;stroke-width:0.8;" x="219.736937" xlink:href="#md5f64d3f2b" y="228.14"/>
      </g>
     </g>
     <g id="text_2">
      <!-- 1.38 -->
      <defs>
       <path d="M 12.40625 8.296875 
L 28.515625 8.296875 
L 28.515625 63.921875 
L 10.984375 60.40625 
L 10.984375 69.390625 
L 28.421875 72.90625 
L 38.28125 72.90625 
L 38.28125 8.296875 
L 54.390625 8.296875 
L 54.390625 0 
L 12.40625 0 
z
" id="DejaVuSans-49"/>
       <path d="M 40.578125 39.3125 
Q 47.65625 37.796875 51.625 33 
Q 55.609375 28.21875 55.609375 21.1875 
Q 55.609375 10.40625 48.1875 4.484375 
Q 40.765625 -1.421875 27.09375 -1.421875 
Q 22.515625 -1.421875 17.65625 -0.515625 
Q 12.796875 0.390625 7.625 2.203125 
L 7.625 11.71875 
Q 11.71875 9.328125 16.59375 8.109375 
Q 21.484375 6.890625 26.8125 6.890625 
Q 36.078125 6.890625 40.9375 10.546875 
Q 45.796875 14.203125 45.796875 21.1875 
Q 45.796875 27.640625 41.28125 31.265625 
Q 36.765625 34.90625 28.71875 34.90625 
L 20.21875 34.90625 
L 20.21875 43.015625 
L 29.109375 43.015625 
Q 36.375 43.015625 40.234375 45.921875 
Q 44.09375 48.828125 44.09375 54.296875 
Q 44.09375 59.90625 40.109375 62.90625 
Q 36.140625 65.921875 28.71875 65.921875 
Q 24.65625 65.921875 20.015625 65.03125 
Q 15.375 64.15625 9.8125 62.3125 
L 9.8125 71.09375 
Q 15.4375 72.65625 20.34375 73.4375 
Q 25.25 74.21875 29.59375 74.21875 
Q 40.828125 74.21875 47.359375 69.109375 
Q 53.90625 64.015625 53.90625 55.328125 
Q 53.90625 49.265625 50.4375 45.09375 
Q 46.96875 40.921875 40.578125 39.3125 
z
" id="DejaVuSans-51"/>
       <path d="M 31.78125 34.625 
Q 24.75 34.625 20.71875 30.859375 
Q 16.703125 27.09375 16.703125 20.515625 
Q 16.703125 13.921875 20.71875 10.15625 
Q 24.75 6.390625 31.78125 6.390625 
Q 38.8125 6.390625 42.859375 10.171875 
Q 46.921875 13.96875 46.921875 20.515625 
Q 46.921875 27.09375 42.890625 30.859375 
Q 38.875 34.625 31.78125 34.625 
z
M 21.921875 38.8125 
Q 15.578125 40.375 12.03125 44.71875 
Q 8.5 49.078125 8.5 55.328125 
Q 8.5 64.0625 14.71875 69.140625 
Q 20.953125 74.21875 31.78125 74.21875 
Q 42.671875 74.21875 48.875 69.140625 
Q 55.078125 64.0625 55.078125 55.328125 
Q 55.078125 49.078125 51.53125 44.71875 
Q 48 40.375 41.703125 38.8125 
Q 48.828125 37.15625 52.796875 32.3125 
Q 56.78125 27.484375 56.78125 20.515625 
Q 56.78125 9.90625 50.3125 4.234375 
Q 43.84375 -1.421875 31.78125 -1.421875 
Q 19.734375 -1.421875 13.25 4.234375 
Q 6.78125 9.90625 6.78125 20.515625 
Q 6.78125 27.484375 10.78125 32.3125 
Q 14.796875 37.15625 21.921875 38.8125 
z
M 18.3125 54.390625 
Q 18.3125 48.734375 21.84375 45.5625 
Q 25.390625 42.390625 31.78125 42.390625 
Q 38.140625 42.390625 41.71875 45.5625 
Q 45.3125 48.734375 45.3125 54.390625 
Q 45.3125 60.0625 41.71875 63.234375 
Q 38.140625 66.40625 31.78125 66.40625 
Q 25.390625 66.40625 21.84375 63.234375 
Q 18.3125 60.0625 18.3125 54.390625 
z
" id="DejaVuSans-56"/>
      </defs>
      <g transform="translate(194.131469 252.616406)scale(0.23 -0.23)">
       <use xlink:href="#DejaVuSans-49"/>
       <use x="63.623047" xlink:href="#DejaVuSans-46"/>
       <use x="95.410156" xlink:href="#DejaVuSans-51"/>
       <use x="159.033203" xlink:href="#DejaVuSans-56"/>
      </g>
     </g>
    </g>
    <g id="xtick_3">
     <g id="line2d_3">
      <g>
       <use style="stroke:#000000;stroke-width:0.8;" x="326.491125" xlink:href="#md5f64d3f2b" y="228.14"/>
      </g>
     </g>
     <g id="text_3">
      <!-- 2.07 -->
      <defs>
       <path d="M 19.1875 8.296875 
L 53.609375 8.296875 
L 53.609375 0 
L 7.328125 0 
L 7.328125 8.296875 
Q 12.9375 14.109375 22.625 23.890625 
Q 32.328125 33.6875 34.8125 36.53125 
Q 39.546875 41.84375 41.421875 45.53125 
Q 43.3125 49.21875 43.3125 52.78125 
Q 43.3125 58.59375 39.234375 62.25 
Q 35.15625 65.921875 28.609375 65.921875 
Q 23.96875 65.921875 18.8125 64.3125 
Q 13.671875 62.703125 7.8125 59.421875 
L 7.8125 69.390625 
Q 13.765625 71.78125 18.9375 73 
Q 24.125 74.21875 28.421875 74.21875 
Q 39.75 74.21875 46.484375 68.546875 
Q 53.21875 62.890625 53.21875 53.421875 
Q 53.21875 48.921875 51.53125 44.890625 
Q 49.859375 40.875 45.40625 35.40625 
Q 44.1875 33.984375 37.640625 27.21875 
Q 31.109375 20.453125 19.1875 8.296875 
z
" id="DejaVuSans-50"/>
       <path d="M 8.203125 72.90625 
L 55.078125 72.90625 
L 55.078125 68.703125 
L 28.609375 0 
L 18.3125 0 
L 43.21875 64.59375 
L 8.203125 64.59375 
z
" id="DejaVuSans-55"/>
      </defs>
      <g transform="translate(300.885656 252.616406)scale(0.23 -0.23)">
       <use xlink:href="#DejaVuSans-50"/>
       <use x="63.623047" xlink:href="#DejaVuSans-46"/>
       <use x="95.410156" xlink:href="#DejaVuSans-48"/>
       <use x="159.033203" xlink:href="#DejaVuSans-55"/>
      </g>
     </g>
    </g>
    <g id="xtick_4">
     <g id="line2d_4">
      <g>
       <use style="stroke:#000000;stroke-width:0.8;" x="433.245313" xlink:href="#md5f64d3f2b" y="228.14"/>
      </g>
     </g>
     <g id="text_4">
      <!-- 2.76 -->
      <g transform="translate(407.639844 252.616406)scale(0.23 -0.23)">
       <use xlink:href="#DejaVuSans-50"/>
       <use x="63.623047" xlink:href="#DejaVuSans-46"/>
       <use x="95.410156" xlink:href="#DejaVuSans-55"/>
       <use x="159.033203" xlink:href="#DejaVuSans-54"/>
      </g>
     </g>
    </g>
    <g id="text_5">
     <!-- entropy -->
     <defs>
      <path d="M 56.203125 29.59375 
L 56.203125 25.203125 
L 14.890625 25.203125 
Q 15.484375 15.921875 20.484375 11.0625 
Q 25.484375 6.203125 34.421875 6.203125 
Q 39.59375 6.203125 44.453125 7.46875 
Q 49.3125 8.734375 54.109375 11.28125 
L 54.109375 2.78125 
Q 49.265625 0.734375 44.1875 -0.34375 
Q 39.109375 -1.421875 33.890625 -1.421875 
Q 20.796875 -1.421875 13.15625 6.1875 
Q 5.515625 13.8125 5.515625 26.8125 
Q 5.515625 40.234375 12.765625 48.109375 
Q 20.015625 56 32.328125 56 
Q 43.359375 56 49.78125 48.890625 
Q 56.203125 41.796875 56.203125 29.59375 
z
M 47.21875 32.234375 
Q 47.125 39.59375 43.09375 43.984375 
Q 39.0625 48.390625 32.421875 48.390625 
Q 24.90625 48.390625 20.390625 44.140625 
Q 15.875 39.890625 15.1875 32.171875 
z
" id="DejaVuSans-101"/>
      <path d="M 54.890625 33.015625 
L 54.890625 0 
L 45.90625 0 
L 45.90625 32.71875 
Q 45.90625 40.484375 42.875 44.328125 
Q 39.84375 48.1875 33.796875 48.1875 
Q 26.515625 48.1875 22.3125 43.546875 
Q 18.109375 38.921875 18.109375 30.90625 
L 18.109375 0 
L 9.078125 0 
L 9.078125 54.6875 
L 18.109375 54.6875 
L 18.109375 46.1875 
Q 21.34375 51.125 25.703125 53.5625 
Q 30.078125 56 35.796875 56 
Q 45.21875 56 50.046875 50.171875 
Q 54.890625 44.34375 54.890625 33.015625 
z
" id="DejaVuSans-110"/>
      <path d="M 18.3125 70.21875 
L 18.3125 54.6875 
L 36.8125 54.6875 
L 36.8125 47.703125 
L 18.3125 47.703125 
L 18.3125 18.015625 
Q 18.3125 11.328125 20.140625 9.421875 
Q 21.96875 7.515625 27.59375 7.515625 
L 36.8125 7.515625 
L 36.8125 0 
L 27.59375 0 
Q 17.1875 0 13.234375 3.875 
Q 9.28125 7.765625 9.28125 18.015625 
L 9.28125 47.703125 
L 2.6875 47.703125 
L 2.6875 54.6875 
L 9.28125 54.6875 
L 9.28125 70.21875 
z
" id="DejaVuSans-116"/>
      <path d="M 41.109375 46.296875 
Q 39.59375 47.171875 37.8125 47.578125 
Q 36.03125 48 33.890625 48 
Q 26.265625 48 22.1875 43.046875 
Q 18.109375 38.09375 18.109375 28.8125 
L 18.109375 0 
L 9.078125 0 
L 9.078125 54.6875 
L 18.109375 54.6875 
L 18.109375 46.1875 
Q 20.953125 51.171875 25.484375 53.578125 
Q 30.03125 56 36.53125 56 
Q 37.453125 56 38.578125 55.875 
Q 39.703125 55.765625 41.0625 55.515625 
z
" id="DejaVuSans-114"/>
      <path d="M 30.609375 48.390625 
Q 23.390625 48.390625 19.1875 42.75 
Q 14.984375 37.109375 14.984375 27.296875 
Q 14.984375 17.484375 19.15625 11.84375 
Q 23.34375 6.203125 30.609375 6.203125 
Q 37.796875 6.203125 41.984375 11.859375 
Q 46.1875 17.53125 46.1875 27.296875 
Q 46.1875 37.015625 41.984375 42.703125 
Q 37.796875 48.390625 30.609375 48.390625 
z
M 30.609375 56 
Q 42.328125 56 49.015625 48.375 
Q 55.71875 40.765625 55.71875 27.296875 
Q 55.71875 13.875 49.015625 6.21875 
Q 42.328125 -1.421875 30.609375 -1.421875 
Q 18.84375 -1.421875 12.171875 6.21875 
Q 5.515625 13.875 5.515625 27.296875 
Q 5.515625 40.765625 12.171875 48.375 
Q 18.84375 56 30.609375 56 
z
" id="DejaVuSans-111"/>
      <path d="M 18.109375 8.203125 
L 18.109375 -20.796875 
L 9.078125 -20.796875 
L 9.078125 54.6875 
L 18.109375 54.6875 
L 18.109375 46.390625 
Q 20.953125 51.265625 25.265625 53.625 
Q 29.59375 56 35.59375 56 
Q 45.5625 56 51.78125 48.09375 
Q 58.015625 40.1875 58.015625 27.296875 
Q 58.015625 14.40625 51.78125 6.484375 
Q 45.5625 -1.421875 35.59375 -1.421875 
Q 29.59375 -1.421875 25.265625 0.953125 
Q 20.953125 3.328125 18.109375 8.203125 
z
M 48.6875 27.296875 
Q 48.6875 37.203125 44.609375 42.84375 
Q 40.53125 48.484375 33.40625 48.484375 
Q 26.265625 48.484375 22.1875 42.84375 
Q 18.109375 37.203125 18.109375 27.296875 
Q 18.109375 17.390625 22.1875 11.75 
Q 26.265625 6.109375 33.40625 6.109375 
Q 40.53125 6.109375 44.609375 11.75 
Q 48.6875 17.390625 48.6875 27.296875 
z
" id="DejaVuSans-112"/>
      <path d="M 32.171875 -5.078125 
Q 28.375 -14.84375 24.75 -17.8125 
Q 21.140625 -20.796875 15.09375 -20.796875 
L 7.90625 -20.796875 
L 7.90625 -13.28125 
L 13.1875 -13.28125 
Q 16.890625 -13.28125 18.9375 -11.515625 
Q 21 -9.765625 23.484375 -3.21875 
L 25.09375 0.875 
L 2.984375 54.6875 
L 12.5 54.6875 
L 29.59375 11.921875 
L 46.6875 54.6875 
L 56.203125 54.6875 
z
" id="DejaVuSans-121"/>
     </defs>
     <g transform="translate(207.488281 284.195)scale(0.3 -0.3)">
      <use xlink:href="#DejaVuSans-101"/>
      <use x="61.523438" xlink:href="#DejaVuSans-110"/>
      <use x="124.902344" xlink:href="#DejaVuSans-116"/>
      <use x="164.111328" xlink:href="#DejaVuSans-114"/>
      <use x="205.193359" xlink:href="#DejaVuSans-111"/>
      <use x="266.375" xlink:href="#DejaVuSans-112"/>
      <use x="329.851562" xlink:href="#DejaVuSans-121"/>
     </g>
    </g>
   </g>
   <g id="matplotlib.axis_2">
    <g id="ytick_1">
     <g id="line2d_5">
      <defs>
       <path d="M 0 0 
L -3.5 0 
" id="m612ac532c5" style="stroke:#000000;stroke-width:0.8;"/>
      </defs>
      <g>
       <use style="stroke:#000000;stroke-width:0.8;" x="98.445312" xlink:href="#m612ac532c5" y="218.360731"/>
      </g>
     </g>
     <g id="text_6">
      <!-- 0.00 -->
      <g transform="translate(40.234375 227.098935)scale(0.23 -0.23)">
       <use xlink:href="#DejaVuSans-48"/>
       <use x="63.623047" xlink:href="#DejaVuSans-46"/>
       <use x="95.410156" xlink:href="#DejaVuSans-48"/>
       <use x="159.033203" xlink:href="#DejaVuSans-48"/>
      </g>
     </g>
    </g>
    <g id="ytick_2">
     <g id="line2d_6">
      <g>
       <use style="stroke:#000000;stroke-width:0.8;" x="98.445312" xlink:href="#m612ac532c5" y="168.916458"/>
      </g>
     </g>
     <g id="text_7">
      <!-- 0.25 -->
      <defs>
       <path d="M 10.796875 72.90625 
L 49.515625 72.90625 
L 49.515625 64.59375 
L 19.828125 64.59375 
L 19.828125 46.734375 
Q 21.96875 47.46875 24.109375 47.828125 
Q 26.265625 48.1875 28.421875 48.1875 
Q 40.625 48.1875 47.75 41.5 
Q 54.890625 34.8125 54.890625 23.390625 
Q 54.890625 11.625 47.5625 5.09375 
Q 40.234375 -1.421875 26.90625 -1.421875 
Q 22.3125 -1.421875 17.546875 -0.640625 
Q 12.796875 0.140625 7.71875 1.703125 
L 7.71875 11.625 
Q 12.109375 9.234375 16.796875 8.0625 
Q 21.484375 6.890625 26.703125 6.890625 
Q 35.15625 6.890625 40.078125 11.328125 
Q 45.015625 15.765625 45.015625 23.390625 
Q 45.015625 31 40.078125 35.4375 
Q 35.15625 39.890625 26.703125 39.890625 
Q 22.75 39.890625 18.8125 39.015625 
Q 14.890625 38.140625 10.796875 36.28125 
z
" id="DejaVuSans-53"/>
      </defs>
      <g transform="translate(40.234375 177.654661)scale(0.23 -0.23)">
       <use xlink:href="#DejaVuSans-48"/>
       <use x="63.623047" xlink:href="#DejaVuSans-46"/>
       <use x="95.410156" xlink:href="#DejaVuSans-50"/>
       <use x="159.033203" xlink:href="#DejaVuSans-53"/>
      </g>
     </g>
    </g>
    <g id="ytick_3">
     <g id="line2d_7">
      <g>
       <use style="stroke:#000000;stroke-width:0.8;" x="98.445312" xlink:href="#m612ac532c5" y="119.472184"/>
      </g>
     </g>
     <g id="text_8">
      <!-- 0.50 -->
      <g transform="translate(40.234375 128.210387)scale(0.23 -0.23)">
       <use xlink:href="#DejaVuSans-48"/>
       <use x="63.623047" xlink:href="#DejaVuSans-46"/>
       <use x="95.410156" xlink:href="#DejaVuSans-53"/>
       <use x="159.033203" xlink:href="#DejaVuSans-48"/>
      </g>
     </g>
    </g>
    <g id="ytick_4">
     <g id="line2d_8">
      <g>
       <use style="stroke:#000000;stroke-width:0.8;" x="98.445312" xlink:href="#m612ac532c5" y="70.02791"/>
      </g>
     </g>
     <g id="text_9">
      <!-- 0.75 -->
      <g transform="translate(40.234375 78.766113)scale(0.23 -0.23)">
       <use xlink:href="#DejaVuSans-48"/>
       <use x="63.623047" xlink:href="#DejaVuSans-46"/>
       <use x="95.410156" xlink:href="#DejaVuSans-55"/>
       <use x="159.033203" xlink:href="#DejaVuSans-53"/>
      </g>
     </g>
    </g>
    <g id="ytick_5">
     <g id="line2d_9">
      <g>
       <use style="stroke:#000000;stroke-width:0.8;" x="98.445312" xlink:href="#m612ac532c5" y="20.583636"/>
      </g>
     </g>
     <g id="text_10">
      <!-- 1.00 -->
      <g transform="translate(40.234375 29.321839)scale(0.23 -0.23)">
       <use xlink:href="#DejaVuSans-49"/>
       <use x="63.623047" xlink:href="#DejaVuSans-46"/>
       <use x="95.410156" xlink:href="#DejaVuSans-48"/>
       <use x="159.033203" xlink:href="#DejaVuSans-48"/>
      </g>
     </g>
    </g>
    <g id="text_11">
     <!-- ICDF -->
     <defs>
      <path d="M 9.8125 72.90625 
L 19.671875 72.90625 
L 19.671875 0 
L 9.8125 0 
z
" id="DejaVuSans-73"/>
      <path d="M 64.40625 67.28125 
L 64.40625 56.890625 
Q 59.421875 61.53125 53.78125 63.8125 
Q 48.140625 66.109375 41.796875 66.109375 
Q 29.296875 66.109375 22.65625 58.46875 
Q 16.015625 50.828125 16.015625 36.375 
Q 16.015625 21.96875 22.65625 14.328125 
Q 29.296875 6.6875 41.796875 6.6875 
Q 48.140625 6.6875 53.78125 8.984375 
Q 59.421875 11.28125 64.40625 15.921875 
L 64.40625 5.609375 
Q 59.234375 2.09375 53.4375 0.328125 
Q 47.65625 -1.421875 41.21875 -1.421875 
Q 24.65625 -1.421875 15.125 8.703125 
Q 5.609375 18.84375 5.609375 36.375 
Q 5.609375 53.953125 15.125 64.078125 
Q 24.65625 74.21875 41.21875 74.21875 
Q 47.75 74.21875 53.53125 72.484375 
Q 59.328125 70.75 64.40625 67.28125 
z
" id="DejaVuSans-67"/>
      <path d="M 19.671875 64.796875 
L 19.671875 8.109375 
L 31.59375 8.109375 
Q 46.6875 8.109375 53.6875 14.9375 
Q 60.6875 21.78125 60.6875 36.53125 
Q 60.6875 51.171875 53.6875 57.984375 
Q 46.6875 64.796875 31.59375 64.796875 
z
M 9.8125 72.90625 
L 30.078125 72.90625 
Q 51.265625 72.90625 61.171875 64.09375 
Q 71.09375 55.28125 71.09375 36.53125 
Q 71.09375 17.671875 61.125 8.828125 
Q 51.171875 0 30.078125 0 
L 9.8125 0 
z
" id="DejaVuSans-68"/>
      <path d="M 9.8125 72.90625 
L 51.703125 72.90625 
L 51.703125 64.59375 
L 19.671875 64.59375 
L 19.671875 43.109375 
L 48.578125 43.109375 
L 48.578125 34.8125 
L 19.671875 34.8125 
L 19.671875 0 
L 9.8125 0 
z
" id="DejaVuSans-70"/>
     </defs>
     <g transform="translate(29.995312 154.496562)rotate(-90)scale(0.3 -0.3)">
      <use xlink:href="#DejaVuSans-73"/>
      <use x="29.492188" xlink:href="#DejaVuSans-67"/>
      <use x="99.316406" xlink:href="#DejaVuSans-68"/>
      <use x="176.318359" xlink:href="#DejaVuSans-70"/>
     </g>
    </g>
   </g>
   <g id="line2d_10">
    <path clip-path="url(#pc6d2965541)" d="M 113.421551 20.583636 
L 122.963857 20.688004 
L 159.375167 20.89674 
L 163.642703 21.105476 
L 163.769856 21.209844 
L 176.201696 21.836051 
L 176.249982 21.940419 
L 180.008175 22.253522 
L 185.390958 22.462258 
L 188.170252 22.879729 
L 193.696205 23.192833 
L 195.524383 23.401569 
L 195.670017 23.505936 
L 198.644755 23.81904 
L 199.038958 23.923408 
L 205.202679 24.132144 
L 205.463924 24.340879 
L 208.331515 24.653983 
L 208.594468 24.758351 
L 212.779603 25.071454 
L 216.02034 25.384558 
L 216.089154 25.488926 
L 217.670162 25.802029 
L 218.576426 26.010765 
L 218.627237 26.115133 
L 219.460702 26.428237 
L 219.97995 26.74134 
L 222.48143 26.950076 
L 222.649289 27.054444 
L 224.398878 27.367547 
L 224.434159 27.471915 
L 225.991615 28.20249 
L 227.185168 28.411226 
L 227.185168 28.515594 
L 227.598681 28.724329 
L 228.755034 28.933065 
L 228.802665 29.141801 
L 229.239264 29.350537 
L 230.606972 29.66364 
L 231.026642 29.872376 
L 232.481337 30.498583 
L 233.001868 30.916055 
L 233.652769 31.12479 
L 235.074342 31.750997 
L 235.253913 31.855365 
L 236.551265 32.168469 
L 236.750314 32.377205 
L 236.844022 32.481572 
L 237.100712 32.58594 
L 237.892963 32.794676 
L 238.50008 33.003412 
L 238.644868 33.10778 
L 239.328344 33.316515 
L 239.45391 33.420883 
L 240.015655 33.629619 
L 240.273256 33.942722 
L 240.273547 34.04709 
L 242.146861 34.464562 
L 242.167984 34.56893 
L 242.677483 34.777665 
L 243.034587 34.986401 
L 243.245999 35.195137 
L 244.052644 35.403873 
L 244.610024 35.821344 
L 245.239171 36.447551 
L 247.196965 36.96939 
L 247.196965 37.073758 
L 247.832904 37.282494 
L 248.352263 38.013069 
L 249.240048 38.221805 
L 249.634599 38.43054 
L 250.002256 39.056748 
L 250.105792 39.161115 
L 252.636288 39.787323 
L 252.711766 39.996058 
L 252.81991 40.204794 
L 252.834178 40.41353 
L 253.141476 40.726633 
L 254.083477 40.935369 
L 255.057207 41.770312 
L 255.344645 41.979048 
L 255.376433 42.083416 
L 255.931209 42.396519 
L 256.546426 42.605255 
L 256.598145 42.813991 
L 257.871055 43.544566 
L 257.923775 43.648933 
L 258.159637 43.857669 
L 258.172912 43.962037 
L 258.851988 44.379508 
L 259.659292 44.588244 
L 259.820221 45.005716 
L 260.703425 45.736291 
L 260.747262 45.945026 
L 262.022762 46.362498 
L 262.244377 46.779969 
L 263.108371 47.406176 
L 263.176752 47.510544 
L 263.481295 47.71928 
L 263.55785 47.823648 
L 263.930411 48.032384 
L 263.969529 48.241119 
L 264.531873 48.449855 
L 265.090386 49.18043 
L 265.194855 49.389166 
L 265.729881 49.597902 
L 266.460679 50.328477 
L 267.6246 50.954684 
L 267.793127 51.372155 
L 268.021202 51.580891 
L 268.895935 52.311466 
L 269.293194 52.520202 
L 269.393196 52.833305 
L 269.814256 53.146409 
L 270.002877 53.459512 
L 270.002877 53.668248 
L 270.445082 54.190087 
L 270.697865 54.711927 
L 271.00463 54.920662 
L 271.078775 55.129398 
L 271.678263 56.068709 
L 271.949093 56.277445 
L 272.11702 56.590548 
L 273.104627 57.00802 
L 273.273747 57.216755 
L 273.685092 57.634227 
L 274.293072 57.94733 
L 274.700996 58.364802 
L 275.386976 58.677905 
L 275.399348 58.782273 
L 276.080551 58.991009 
L 276.218095 59.512848 
L 276.733826 60.139055 
L 277.118648 60.347791 
L 278.123019 60.973998 
L 278.140459 61.078366 
L 278.475913 61.287102 
L 278.553432 61.495838 
L 278.993634 61.704573 
L 279.639752 62.33078 
L 279.691009 62.539516 
L 280.209036 62.748252 
L 280.563623 63.687563 
L 281.127971 64.209402 
L 281.34483 64.626873 
L 281.808484 64.835609 
L 283.692606 67.340438 
L 284.239495 67.757909 
L 284.366062 68.175381 
L 284.735742 68.69722 
L 285.015286 69.219059 
L 285.144571 69.532163 
L 285.476001 69.949634 
L 285.927166 70.15837 
L 286.816727 71.306416 
L 287.085458 71.515152 
L 288.846099 74.333084 
L 288.977467 74.54182 
L 289.013259 74.750556 
L 289.20334 75.168027 
L 289.246091 75.689867 
L 289.364945 75.898602 
L 289.603572 76.629177 
L 289.792371 76.942281 
L 289.982892 77.46412 
L 290.343975 77.777224 
L 290.606302 78.507799 
L 290.754262 79.029638 
L 291.034705 79.655845 
L 291.203407 80.177685 
L 291.241368 80.282052 
L 291.768522 80.595156 
L 292.005695 80.803892 
L 292.036498 80.90826 
L 292.243341 81.116995 
L 292.265646 81.221363 
L 292.677834 81.430099 
L 292.87871 81.951938 
L 293.145451 82.160674 
L 293.195778 82.36941 
L 293.466686 82.578145 
L 293.773214 83.204353 
L 294.060927 83.726192 
L 294.07383 83.934928 
L 294.417635 84.248031 
L 294.503793 84.561135 
L 295.512279 85.917917 
L 295.583264 86.335388 
L 295.785833 86.544124 
L 295.843742 86.648492 
L 296.049928 86.857228 
L 296.380679 87.274699 
L 296.380679 87.379067 
L 296.645314 87.69217 
L 296.71787 88.005274 
L 296.843043 88.21401 
L 296.844461 88.631481 
L 297.029918 88.944585 
L 297.339997 89.779528 
L 297.605518 90.510103 
L 297.682498 90.927574 
L 297.826482 91.240678 
L 297.994397 91.762517 
L 298.432255 92.075621 
L 298.463564 92.284356 
L 298.706011 92.493092 
L 298.814275 92.806196 
L 298.931646 93.119299 
L 299.398702 94.162978 
L 299.624833 94.476081 
L 299.688146 94.684817 
L 299.883097 95.102289 
L 300.134147 95.415392 
L 300.434432 95.624128 
L 300.466645 95.728496 
L 300.643779 95.937231 
L 300.811923 96.145967 
L 301.105519 96.354703 
L 301.289781 96.876542 
L 301.487715 97.189646 
L 301.624029 97.607117 
L 301.779619 97.920221 
L 301.807181 98.128957 
L 302.097855 98.44206 
L 302.357311 98.963899 
L 302.672167 99.381371 
L 303.057603 100.425049 
L 303.215698 100.738153 
L 303.583335 100.946889 
L 303.607342 101.155624 
L 303.897695 101.36436 
L 304.032375 101.886199 
L 304.126225 102.199303 
L 304.538052 103.138614 
L 304.586614 103.34735 
L 304.901451 103.869189 
L 304.993727 104.182292 
L 305.26933 104.495396 
L 305.486108 105.017235 
L 305.684821 105.225971 
L 305.739704 105.539075 
L 305.893414 105.852178 
L 306.79022 107.313328 
L 307.282264 107.7308 
L 307.367902 108.043903 
L 307.504763 108.252639 
L 307.856948 109.087582 
L 308.011903 109.296318 
L 308.163395 109.818157 
L 308.420316 110.13126 
L 308.679878 110.339996 
L 308.764307 110.548732 
L 309.217978 110.966203 
L 309.698832 111.696778 
L 309.754567 112.009882 
L 309.98958 112.218618 
L 311.274279 114.723446 
L 311.483929 114.932182 
L 311.856115 115.767125 
L 312.094531 116.184596 
L 312.108052 116.288964 
L 312.38286 116.602068 
L 312.638702 116.915171 
L 312.754182 117.123907 
L 313.037693 117.541379 
L 313.484285 117.750114 
L 313.661186 118.167586 
L 314.039688 118.898161 
L 314.143233 119.42 
L 314.487591 120.254943 
L 314.810178 121.507357 
L 315.497149 122.968507 
L 316.086144 124.325289 
L 316.26575 124.534025 
L 316.794587 125.368968 
L 316.82417 125.577704 
L 316.976969 125.786439 
L 317.533094 126.72575 
L 317.672906 126.934486 
L 317.95358 127.665061 
L 318.100941 127.873797 
L 318.407782 129.021843 
L 318.597008 129.230579 
L 318.727201 129.543682 
L 318.93274 129.961154 
L 319.067719 130.274257 
L 319.480027 130.587361 
L 319.693622 131.004832 
L 319.873208 131.213568 
L 320.515093 132.465983 
L 320.800037 132.674718 
L 320.891688 133.300925 
L 321.215245 134.0315 
L 321.641729 134.240236 
L 321.768895 134.657708 
L 321.866796 135.075179 
L 322.076628 135.701386 
L 322.35616 135.910122 
L 322.462568 136.327593 
L 323.961326 139.145526 
L 324.055513 139.458629 
L 324.231435 140.39794 
L 324.310998 140.606676 
L 324.582475 140.815411 
L 324.597742 141.024147 
L 324.737528 141.232883 
L 324.769962 141.441619 
L 324.983843 141.650354 
L 326.64202 145.094494 
L 326.777859 145.303229 
L 326.786336 145.407597 
L 327.138015 145.616333 
L 327.153588 145.825069 
L 327.389496 146.033804 
L 327.668927 146.346908 
L 328.028714 146.973115 
L 328.355487 147.808058 
L 328.530207 148.016794 
L 328.640735 148.329897 
L 328.923631 149.060472 
L 329.328286 149.373576 
L 329.468775 149.686679 
L 329.746317 149.895415 
L 329.855039 150.104151 
L 330.051918 150.730358 
L 330.786472 152.504612 
L 331.313008 153.130819 
L 331.35119 153.443922 
L 332.113799 153.965762 
L 332.454728 155.00944 
L 332.739399 155.322544 
L 332.902885 156.053119 
L 333.353682 156.47059 
L 333.783284 157.618637 
L 333.833311 157.93174 
L 334.036988 158.140476 
L 334.759259 159.288523 
L 334.946203 160.019098 
L 335.563572 160.854041 
L 335.578454 160.958408 
L 335.837176 161.271512 
L 335.917706 161.480248 
L 336.313185 161.793351 
L 336.43326 162.523926 
L 336.787215 163.150133 
L 337.242981 163.671973 
L 337.349597 163.985076 
L 337.549641 164.193812 
L 337.664075 164.402548 
L 337.674667 164.506916 
L 337.848631 164.715651 
L 337.966528 165.133123 
L 338.141476 165.341859 
L 338.646037 166.072434 
L 339.270871 166.281169 
L 339.351179 166.698641 
L 339.7041 167.22048 
L 340.032395 167.637951 
L 340.137431 167.951055 
L 340.352137 168.472894 
L 340.352137 168.577262 
L 340.495146 168.785998 
L 340.592341 169.203469 
L 341.11199 170.038412 
L 341.371192 170.247148 
L 341.638237 171.290827 
L 342.264648 171.917034 
L 342.602379 172.125769 
L 342.985798 172.856344 
L 343.068921 173.169448 
L 343.564926 173.378184 
L 343.655588 173.586919 
L 344.4397 173.900023 
L 344.513355 174.317494 
L 345.132982 174.943702 
L 345.747746 175.883012 
L 345.94939 176.091748 
L 346.047254 176.300484 
L 346.495511 177.239795 
L 346.636188 177.44853 
L 346.734778 177.866002 
L 347.381768 178.90968 
L 347.396335 179.014048 
L 347.697567 179.327152 
L 347.697567 179.43152 
L 348.086318 179.640255 
L 348.201988 179.953359 
L 348.454494 180.266463 
L 348.607786 180.683934 
L 349.333126 181.414509 
L 349.475671 181.83198 
L 349.621894 182.145084 
L 349.836035 182.458188 
L 349.996008 182.771291 
L 350.2396 183.084395 
L 350.610317 183.919338 
L 350.878897 184.128073 
L 351.045159 184.336809 
L 351.205628 184.545545 
L 351.509807 184.858648 
L 351.747729 185.067384 
L 351.8442 185.484856 
L 351.914773 185.589223 
L 352.128822 185.797959 
L 352.199557 186.111063 
L 352.446812 186.319798 
L 352.566991 186.528534 
L 352.671906 186.632902 
L 353.286203 186.841638 
L 353.551089 187.363477 
L 354.376417 187.780948 
L 354.602181 188.094052 
L 354.694096 188.824627 
L 354.886442 189.137731 
L 354.977495 189.450834 
L 355.078828 189.763938 
L 355.258466 189.972674 
L 355.333022 190.181409 
L 355.435005 190.390145 
L 355.514605 190.911984 
L 355.692099 191.12072 
L 355.826245 191.329456 
L 355.932975 191.851295 
L 356.103065 192.060031 
L 356.277209 192.477502 
L 356.676132 192.790606 
L 356.799012 192.999341 
L 356.902364 193.416813 
L 357.460119 193.625549 
L 357.885417 193.834284 
L 358.332128 194.773595 
L 358.442397 195.295434 
L 358.932984 195.50417 
L 359.273671 196.443481 
L 359.577504 196.652217 
L 359.629156 196.860952 
L 359.935818 197.174056 
L 359.988005 197.382792 
L 360.11522 197.591527 
L 360.193189 197.800263 
L 360.384306 198.217734 
L 361.500613 198.635206 
L 361.611771 198.948309 
L 361.753647 199.261413 
L 362.160248 199.574517 
L 362.535182 199.783252 
L 362.643088 200.200724 
L 362.884824 200.513827 
L 362.903692 200.618195 
L 363.218238 200.826931 
L 363.589972 201.140035 
L 363.945237 201.661874 
L 364.238382 201.87061 
L 364.351131 201.974977 
L 364.909965 202.183713 
L 364.909965 202.288081 
L 365.266736 202.496817 
L 365.523389 202.80992 
L 365.957785 203.018656 
L 365.966909 203.123024 
L 367.049715 203.644863 
L 367.132185 203.957967 
L 367.508278 204.166703 
L 367.596385 204.375438 
L 367.701468 204.584174 
L 368.149327 205.001645 
L 368.159676 205.106013 
L 368.744095 205.314749 
L 368.939661 205.523485 
L 369.2063 205.73222 
L 369.495203 206.149692 
L 369.745928 206.358428 
L 369.802767 206.671531 
L 369.93206 206.775899 
L 370.665068 207.089003 
L 370.74384 207.402106 
L 371.213042 207.610842 
L 371.520379 208.028313 
L 372.349554 208.341417 
L 372.559817 208.65452 
L 372.730307 208.863256 
L 373.142943 209.071992 
L 373.155208 209.17636 
L 373.363014 209.385096 
L 373.492128 209.593831 
L 374.089411 209.906935 
L 374.70222 210.115671 
L 375.072845 210.428774 
L 375.203422 210.63751 
L 375.931988 210.846246 
L 376.361751 211.159349 
L 376.447741 211.263717 
L 377.334423 211.576821 
L 377.923447 212.203028 
L 377.955938 212.307396 
L 378.452265 212.516131 
L 379.559138 212.933603 
L 379.633785 213.142338 
L 379.799868 213.351074 
L 380.911294 213.55981 
L 381.657499 213.977281 
L 381.986657 214.499121 
L 382.130862 214.603489 
L 382.964998 214.812224 
L 383.665272 215.229696 
L 384.012884 215.438431 
L 384.235469 215.542799 
L 384.991729 215.751535 
L 387.559312 215.960271 
L 388.319252 216.169006 
L 391.242604 216.377742 
L 391.397391 216.48211 
L 393.236342 216.795214 
L 393.264671 216.899581 
L 396.016366 217.108317 
L 396.284934 217.317053 
L 400.623375 217.630156 
L 405.314826 217.94326 
L 412.581881 218.151996 
L 412.946325 218.256364 
L 412.946325 218.256364 
" style="fill:none;stroke:#ff0000;stroke-linecap:square;stroke-width:4;"/>
   </g>
   <g id="patch_3">
    <path d="M 98.445312 228.14 
L 98.445312 10.7 
" style="fill:none;stroke:#000000;stroke-linecap:square;stroke-linejoin:miter;stroke-width:0.8;"/>
   </g>
   <g id="patch_4">
    <path d="M 433.245313 228.14 
L 433.245313 10.7 
" style="fill:none;stroke:#000000;stroke-linecap:square;stroke-linejoin:miter;stroke-width:0.8;"/>
   </g>
   <g id="patch_5">
    <path d="M 98.445312 228.14 
L 433.245313 228.14 
" style="fill:none;stroke:#000000;stroke-linecap:square;stroke-linejoin:miter;stroke-width:0.8;"/>
   </g>
   <g id="patch_6">
    <path d="M 98.445312 10.7 
L 433.245313 10.7 
" style="fill:none;stroke:#000000;stroke-linecap:square;stroke-linejoin:miter;stroke-width:0.8;"/>
   </g>
  </g>
 </g>
 <defs>
  <clipPath id="pc6d2965541">
   <rect height="217.44" width="334.8" x="98.445312" y="10.7"/>
  </clipPath>
 </defs>
</svg>
