<?xml version="1.0" encoding="utf-8" standalone="no"?>
<!DOCTYPE svg PUBLIC "-//W3C//DTD SVG 1.1//EN"
  "http://www.w3.org/Graphics/SVG/1.1/DTD/svg11.dtd">
<!-- Created with matplotlib (https://matplotlib.org/) -->
<svg height="297.634062pt" version="1.1" viewBox="0 0 458.981875 297.634062" width="458.981875pt" xmlns="http://www.w3.org/2000/svg" xmlns:xlink="http://www.w3.org/1999/xlink">
 <defs>
  <style type="text/css">
*{stroke-linecap:butt;stroke-linejoin:round;}
  </style>
 </defs>
 <g id="figure_1">
  <g id="patch_1">
   <path d="M 0 297.634062 
L 458.981875 297.634062 
L 458.981875 0 
L 0 0 
z
" style="fill:#ffffff;"/>
  </g>
  <g id="axes_1">
   <g id="patch_2">
    <path d="M 87.714375 228.14 
L 422.514375 228.14 
L 422.514375 10.7 
L 87.714375 10.7 
z
" style="fill:#ffffff;"/>
   </g>
   <g id="matplotlib.axis_1">
    <g id="xtick_1">
     <g id="line2d_1">
      <defs>
       <path d="M 0 0 
L 0 3.5 
" id="m2ff75be8d4" style="stroke:#000000;stroke-width:0.8;"/>
      </defs>
      <g>
       <use style="stroke:#000000;stroke-width:0.8;" x="102.743601" xlink:href="#m2ff75be8d4" y="228.14"/>
      </g>
     </g>
     <g id="text_1">
      <!-- 0 -->
      <defs>
       <path d="M 31.78125 66.40625 
Q 24.171875 66.40625 20.328125 58.90625 
Q 16.5 51.421875 16.5 36.375 
Q 16.5 21.390625 20.328125 13.890625 
Q 24.171875 6.390625 31.78125 6.390625 
Q 39.453125 6.390625 43.28125 13.890625 
Q 47.125 21.390625 47.125 36.375 
Q 47.125 51.421875 43.28125 58.90625 
Q 39.453125 66.40625 31.78125 66.40625 
z
M 31.78125 74.21875 
Q 44.046875 74.21875 50.515625 64.515625 
Q 56.984375 54.828125 56.984375 36.375 
Q 56.984375 17.96875 50.515625 8.265625 
Q 44.046875 -1.421875 31.78125 -1.421875 
Q 19.53125 -1.421875 13.0625 8.265625 
Q 6.59375 17.96875 6.59375 36.375 
Q 6.59375 54.828125 13.0625 64.515625 
Q 19.53125 74.21875 31.78125 74.21875 
z
" id="DejaVuSans-48"/>
      </defs>
      <g transform="translate(95.426726 252.616406)scale(0.23 -0.23)">
       <use xlink:href="#DejaVuSans-48"/>
      </g>
     </g>
    </g>
    <g id="xtick_2">
     <g id="line2d_2">
      <g>
       <use style="stroke:#000000;stroke-width:0.8;" x="166.697756" xlink:href="#m2ff75be8d4" y="228.14"/>
      </g>
     </g>
     <g id="text_2">
      <!-- 400 -->
      <defs>
       <path d="M 37.796875 64.3125 
L 12.890625 25.390625 
L 37.796875 25.390625 
z
M 35.203125 72.90625 
L 47.609375 72.90625 
L 47.609375 25.390625 
L 58.015625 25.390625 
L 58.015625 17.1875 
L 47.609375 17.1875 
L 47.609375 0 
L 37.796875 0 
L 37.796875 17.1875 
L 4.890625 17.1875 
L 4.890625 26.703125 
z
" id="DejaVuSans-52"/>
      </defs>
      <g transform="translate(144.747131 252.616406)scale(0.23 -0.23)">
       <use xlink:href="#DejaVuSans-52"/>
       <use x="63.623047" xlink:href="#DejaVuSans-48"/>
       <use x="127.246094" xlink:href="#DejaVuSans-48"/>
      </g>
     </g>
    </g>
    <g id="xtick_3">
     <g id="line2d_3">
      <g>
       <use style="stroke:#000000;stroke-width:0.8;" x="230.651911" xlink:href="#m2ff75be8d4" y="228.14"/>
      </g>
     </g>
     <g id="text_3">
      <!-- 800 -->
      <defs>
       <path d="M 31.78125 34.625 
Q 24.75 34.625 20.71875 30.859375 
Q 16.703125 27.09375 16.703125 20.515625 
Q 16.703125 13.921875 20.71875 10.15625 
Q 24.75 6.390625 31.78125 6.390625 
Q 38.8125 6.390625 42.859375 10.171875 
Q 46.921875 13.96875 46.921875 20.515625 
Q 46.921875 27.09375 42.890625 30.859375 
Q 38.875 34.625 31.78125 34.625 
z
M 21.921875 38.8125 
Q 15.578125 40.375 12.03125 44.71875 
Q 8.5 49.078125 8.5 55.328125 
Q 8.5 64.0625 14.71875 69.140625 
Q 20.953125 74.21875 31.78125 74.21875 
Q 42.671875 74.21875 48.875 69.140625 
Q 55.078125 64.0625 55.078125 55.328125 
Q 55.078125 49.078125 51.53125 44.71875 
Q 48 40.375 41.703125 38.8125 
Q 48.828125 37.15625 52.796875 32.3125 
Q 56.78125 27.484375 56.78125 20.515625 
Q 56.78125 9.90625 50.3125 4.234375 
Q 43.84375 -1.421875 31.78125 -1.421875 
Q 19.734375 -1.421875 13.25 4.234375 
Q 6.78125 9.90625 6.78125 20.515625 
Q 6.78125 27.484375 10.78125 32.3125 
Q 14.796875 37.15625 21.921875 38.8125 
z
M 18.3125 54.390625 
Q 18.3125 48.734375 21.84375 45.5625 
Q 25.390625 42.390625 31.78125 42.390625 
Q 38.140625 42.390625 41.71875 45.5625 
Q 45.3125 48.734375 45.3125 54.390625 
Q 45.3125 60.0625 41.71875 63.234375 
Q 38.140625 66.40625 31.78125 66.40625 
Q 25.390625 66.40625 21.84375 63.234375 
Q 18.3125 60.0625 18.3125 54.390625 
z
" id="DejaVuSans-56"/>
      </defs>
      <g transform="translate(208.701286 252.616406)scale(0.23 -0.23)">
       <use xlink:href="#DejaVuSans-56"/>
       <use x="63.623047" xlink:href="#DejaVuSans-48"/>
       <use x="127.246094" xlink:href="#DejaVuSans-48"/>
      </g>
     </g>
    </g>
    <g id="xtick_4">
     <g id="line2d_4">
      <g>
       <use style="stroke:#000000;stroke-width:0.8;" x="294.606066" xlink:href="#m2ff75be8d4" y="228.14"/>
      </g>
     </g>
     <g id="text_4">
      <!-- 1200 -->
      <defs>
       <path d="M 12.40625 8.296875 
L 28.515625 8.296875 
L 28.515625 63.921875 
L 10.984375 60.40625 
L 10.984375 69.390625 
L 28.421875 72.90625 
L 38.28125 72.90625 
L 38.28125 8.296875 
L 54.390625 8.296875 
L 54.390625 0 
L 12.40625 0 
z
" id="DejaVuSans-49"/>
       <path d="M 19.1875 8.296875 
L 53.609375 8.296875 
L 53.609375 0 
L 7.328125 0 
L 7.328125 8.296875 
Q 12.9375 14.109375 22.625 23.890625 
Q 32.328125 33.6875 34.8125 36.53125 
Q 39.546875 41.84375 41.421875 45.53125 
Q 43.3125 49.21875 43.3125 52.78125 
Q 43.3125 58.59375 39.234375 62.25 
Q 35.15625 65.921875 28.609375 65.921875 
Q 23.96875 65.921875 18.8125 64.3125 
Q 13.671875 62.703125 7.8125 59.421875 
L 7.8125 69.390625 
Q 13.765625 71.78125 18.9375 73 
Q 24.125 74.21875 28.421875 74.21875 
Q 39.75 74.21875 46.484375 68.546875 
Q 53.21875 62.890625 53.21875 53.421875 
Q 53.21875 48.921875 51.53125 44.890625 
Q 49.859375 40.875 45.40625 35.40625 
Q 44.1875 33.984375 37.640625 27.21875 
Q 31.109375 20.453125 19.1875 8.296875 
z
" id="DejaVuSans-50"/>
      </defs>
      <g transform="translate(265.338566 252.616406)scale(0.23 -0.23)">
       <use xlink:href="#DejaVuSans-49"/>
       <use x="63.623047" xlink:href="#DejaVuSans-50"/>
       <use x="127.246094" xlink:href="#DejaVuSans-48"/>
       <use x="190.869141" xlink:href="#DejaVuSans-48"/>
      </g>
     </g>
    </g>
    <g id="xtick_5">
     <g id="line2d_5">
      <g>
       <use style="stroke:#000000;stroke-width:0.8;" x="358.56022" xlink:href="#m2ff75be8d4" y="228.14"/>
      </g>
     </g>
     <g id="text_5">
      <!-- 1600 -->
      <defs>
       <path d="M 33.015625 40.375 
Q 26.375 40.375 22.484375 35.828125 
Q 18.609375 31.296875 18.609375 23.390625 
Q 18.609375 15.53125 22.484375 10.953125 
Q 26.375 6.390625 33.015625 6.390625 
Q 39.65625 6.390625 43.53125 10.953125 
Q 47.40625 15.53125 47.40625 23.390625 
Q 47.40625 31.296875 43.53125 35.828125 
Q 39.65625 40.375 33.015625 40.375 
z
M 52.59375 71.296875 
L 52.59375 62.3125 
Q 48.875 64.0625 45.09375 64.984375 
Q 41.3125 65.921875 37.59375 65.921875 
Q 27.828125 65.921875 22.671875 59.328125 
Q 17.53125 52.734375 16.796875 39.40625 
Q 19.671875 43.65625 24.015625 45.921875 
Q 28.375 48.1875 33.59375 48.1875 
Q 44.578125 48.1875 50.953125 41.515625 
Q 57.328125 34.859375 57.328125 23.390625 
Q 57.328125 12.15625 50.6875 5.359375 
Q 44.046875 -1.421875 33.015625 -1.421875 
Q 20.359375 -1.421875 13.671875 8.265625 
Q 6.984375 17.96875 6.984375 36.375 
Q 6.984375 53.65625 15.1875 63.9375 
Q 23.390625 74.21875 37.203125 74.21875 
Q 40.921875 74.21875 44.703125 73.484375 
Q 48.484375 72.75 52.59375 71.296875 
z
" id="DejaVuSans-54"/>
      </defs>
      <g transform="translate(329.29272 252.616406)scale(0.23 -0.23)">
       <use xlink:href="#DejaVuSans-49"/>
       <use x="63.623047" xlink:href="#DejaVuSans-54"/>
       <use x="127.246094" xlink:href="#DejaVuSans-48"/>
       <use x="190.869141" xlink:href="#DejaVuSans-48"/>
      </g>
     </g>
    </g>
    <g id="xtick_6">
     <g id="line2d_6">
      <g>
       <use style="stroke:#000000;stroke-width:0.8;" x="422.514375" xlink:href="#m2ff75be8d4" y="228.14"/>
      </g>
     </g>
     <g id="text_6">
      <!-- 2000 -->
      <g transform="translate(393.246875 252.616406)scale(0.23 -0.23)">
       <use xlink:href="#DejaVuSans-50"/>
       <use x="63.623047" xlink:href="#DejaVuSans-48"/>
       <use x="127.246094" xlink:href="#DejaVuSans-48"/>
       <use x="190.869141" xlink:href="#DejaVuSans-48"/>
      </g>
     </g>
    </g>
    <g id="text_7">
     <!-- rank -->
     <defs>
      <path d="M 41.109375 46.296875 
Q 39.59375 47.171875 37.8125 47.578125 
Q 36.03125 48 33.890625 48 
Q 26.265625 48 22.1875 43.046875 
Q 18.109375 38.09375 18.109375 28.8125 
L 18.109375 0 
L 9.078125 0 
L 9.078125 54.6875 
L 18.109375 54.6875 
L 18.109375 46.1875 
Q 20.953125 51.171875 25.484375 53.578125 
Q 30.03125 56 36.53125 56 
Q 37.453125 56 38.578125 55.875 
Q 39.703125 55.765625 41.0625 55.515625 
z
" id="DejaVuSans-114"/>
      <path d="M 34.28125 27.484375 
Q 23.390625 27.484375 19.1875 25 
Q 14.984375 22.515625 14.984375 16.5 
Q 14.984375 11.71875 18.140625 8.90625 
Q 21.296875 6.109375 26.703125 6.109375 
Q 34.1875 6.109375 38.703125 11.40625 
Q 43.21875 16.703125 43.21875 25.484375 
L 43.21875 27.484375 
z
M 52.203125 31.203125 
L 52.203125 0 
L 43.21875 0 
L 43.21875 8.296875 
Q 40.140625 3.328125 35.546875 0.953125 
Q 30.953125 -1.421875 24.3125 -1.421875 
Q 15.921875 -1.421875 10.953125 3.296875 
Q 6 8.015625 6 15.921875 
Q 6 25.140625 12.171875 29.828125 
Q 18.359375 34.515625 30.609375 34.515625 
L 43.21875 34.515625 
L 43.21875 35.40625 
Q 43.21875 41.609375 39.140625 45 
Q 35.0625 48.390625 27.6875 48.390625 
Q 23 48.390625 18.546875 47.265625 
Q 14.109375 46.140625 10.015625 43.890625 
L 10.015625 52.203125 
Q 14.9375 54.109375 19.578125 55.046875 
Q 24.21875 56 28.609375 56 
Q 40.484375 56 46.34375 49.84375 
Q 52.203125 43.703125 52.203125 31.203125 
z
" id="DejaVuSans-97"/>
      <path d="M 54.890625 33.015625 
L 54.890625 0 
L 45.90625 0 
L 45.90625 32.71875 
Q 45.90625 40.484375 42.875 44.328125 
Q 39.84375 48.1875 33.796875 48.1875 
Q 26.515625 48.1875 22.3125 43.546875 
Q 18.109375 38.921875 18.109375 30.90625 
L 18.109375 0 
L 9.078125 0 
L 9.078125 54.6875 
L 18.109375 54.6875 
L 18.109375 46.1875 
Q 21.34375 51.125 25.703125 53.5625 
Q 30.078125 56 35.796875 56 
Q 45.21875 56 50.046875 50.171875 
Q 54.890625 44.34375 54.890625 33.015625 
z
" id="DejaVuSans-110"/>
      <path d="M 9.078125 75.984375 
L 18.109375 75.984375 
L 18.109375 31.109375 
L 44.921875 54.6875 
L 56.390625 54.6875 
L 27.390625 29.109375 
L 57.625 0 
L 45.90625 0 
L 18.109375 26.703125 
L 18.109375 0 
L 9.078125 0 
z
" id="DejaVuSans-107"/>
     </defs>
     <g transform="translate(221.563594 284.195)scale(0.3 -0.3)">
      <use xlink:href="#DejaVuSans-114"/>
      <use x="41.113281" xlink:href="#DejaVuSans-97"/>
      <use x="102.392578" xlink:href="#DejaVuSans-110"/>
      <use x="165.771484" xlink:href="#DejaVuSans-107"/>
     </g>
    </g>
   </g>
   <g id="matplotlib.axis_2">
    <g id="ytick_1">
     <g id="line2d_7">
      <defs>
       <path d="M 0 0 
L -3.5 0 
" id="m2578534fb9" style="stroke:#000000;stroke-width:0.8;"/>
      </defs>
      <g>
       <use style="stroke:#000000;stroke-width:0.8;" x="87.714375" xlink:href="#m2578534fb9" y="228.14"/>
      </g>
     </g>
     <g id="text_8">
      <!-- $\mathdefault{10^{0}}$ -->
      <g transform="translate(40.234375 236.878203)scale(0.23 -0.23)">
       <use transform="translate(0 0.765625)" xlink:href="#DejaVuSans-49"/>
       <use transform="translate(63.623047 0.765625)" xlink:href="#DejaVuSans-48"/>
       <use transform="translate(128.203125 39.046875)scale(0.7)" xlink:href="#DejaVuSans-48"/>
      </g>
     </g>
    </g>
    <g id="ytick_2">
     <g id="line2d_8">
      <g>
       <use style="stroke:#000000;stroke-width:0.8;" x="87.714375" xlink:href="#m2578534fb9" y="143.567453"/>
      </g>
     </g>
     <g id="text_9">
      <!-- $\mathdefault{10^{2}}$ -->
      <g transform="translate(40.234375 152.305656)scale(0.23 -0.23)">
       <use transform="translate(0 0.765625)" xlink:href="#DejaVuSans-49"/>
       <use transform="translate(63.623047 0.765625)" xlink:href="#DejaVuSans-48"/>
       <use transform="translate(128.203125 39.046875)scale(0.7)" xlink:href="#DejaVuSans-50"/>
      </g>
     </g>
    </g>
    <g id="ytick_3">
     <g id="line2d_9">
      <g>
       <use style="stroke:#000000;stroke-width:0.8;" x="87.714375" xlink:href="#m2578534fb9" y="58.994905"/>
      </g>
     </g>
     <g id="text_10">
      <!-- $\mathdefault{10^{4}}$ -->
      <g transform="translate(40.234375 67.733109)scale(0.23 -0.23)">
       <use transform="translate(0 0.684375)" xlink:href="#DejaVuSans-49"/>
       <use transform="translate(63.623047 0.684375)" xlink:href="#DejaVuSans-48"/>
       <use transform="translate(128.203125 38.965625)scale(0.7)" xlink:href="#DejaVuSans-52"/>
      </g>
     </g>
    </g>
    <g id="text_11">
     <!-- #pixels -->
     <defs>
      <path d="M 51.125 44 
L 36.921875 44 
L 32.8125 27.6875 
L 47.125 27.6875 
z
M 43.796875 71.78125 
L 38.71875 51.515625 
L 52.984375 51.515625 
L 58.109375 71.78125 
L 65.921875 71.78125 
L 60.890625 51.515625 
L 76.125 51.515625 
L 76.125 44 
L 58.984375 44 
L 54.984375 27.6875 
L 70.515625 27.6875 
L 70.515625 20.21875 
L 53.078125 20.21875 
L 48 0 
L 40.1875 0 
L 45.21875 20.21875 
L 30.90625 20.21875 
L 25.875 0 
L 18.015625 0 
L 23.09375 20.21875 
L 7.71875 20.21875 
L 7.71875 27.6875 
L 24.90625 27.6875 
L 29 44 
L 13.28125 44 
L 13.28125 51.515625 
L 30.90625 51.515625 
L 35.890625 71.78125 
z
" id="DejaVuSans-35"/>
      <path d="M 18.109375 8.203125 
L 18.109375 -20.796875 
L 9.078125 -20.796875 
L 9.078125 54.6875 
L 18.109375 54.6875 
L 18.109375 46.390625 
Q 20.953125 51.265625 25.265625 53.625 
Q 29.59375 56 35.59375 56 
Q 45.5625 56 51.78125 48.09375 
Q 58.015625 40.1875 58.015625 27.296875 
Q 58.015625 14.40625 51.78125 6.484375 
Q 45.5625 -1.421875 35.59375 -1.421875 
Q 29.59375 -1.421875 25.265625 0.953125 
Q 20.953125 3.328125 18.109375 8.203125 
z
M 48.6875 27.296875 
Q 48.6875 37.203125 44.609375 42.84375 
Q 40.53125 48.484375 33.40625 48.484375 
Q 26.265625 48.484375 22.1875 42.84375 
Q 18.109375 37.203125 18.109375 27.296875 
Q 18.109375 17.390625 22.1875 11.75 
Q 26.265625 6.109375 33.40625 6.109375 
Q 40.53125 6.109375 44.609375 11.75 
Q 48.6875 17.390625 48.6875 27.296875 
z
" id="DejaVuSans-112"/>
      <path d="M 9.421875 54.6875 
L 18.40625 54.6875 
L 18.40625 0 
L 9.421875 0 
z
M 9.421875 75.984375 
L 18.40625 75.984375 
L 18.40625 64.59375 
L 9.421875 64.59375 
z
" id="DejaVuSans-105"/>
      <path d="M 54.890625 54.6875 
L 35.109375 28.078125 
L 55.90625 0 
L 45.3125 0 
L 29.390625 21.484375 
L 13.484375 0 
L 2.875 0 
L 24.125 28.609375 
L 4.6875 54.6875 
L 15.28125 54.6875 
L 29.78125 35.203125 
L 44.28125 54.6875 
z
" id="DejaVuSans-120"/>
      <path d="M 56.203125 29.59375 
L 56.203125 25.203125 
L 14.890625 25.203125 
Q 15.484375 15.921875 20.484375 11.0625 
Q 25.484375 6.203125 34.421875 6.203125 
Q 39.59375 6.203125 44.453125 7.46875 
Q 49.3125 8.734375 54.109375 11.28125 
L 54.109375 2.78125 
Q 49.265625 0.734375 44.1875 -0.34375 
Q 39.109375 -1.421875 33.890625 -1.421875 
Q 20.796875 -1.421875 13.15625 6.1875 
Q 5.515625 13.8125 5.515625 26.8125 
Q 5.515625 40.234375 12.765625 48.109375 
Q 20.015625 56 32.328125 56 
Q 43.359375 56 49.78125 48.890625 
Q 56.203125 41.796875 56.203125 29.59375 
z
M 47.21875 32.234375 
Q 47.125 39.59375 43.09375 43.984375 
Q 39.0625 48.390625 32.421875 48.390625 
Q 24.90625 48.390625 20.390625 44.140625 
Q 15.875 39.890625 15.1875 32.171875 
z
" id="DejaVuSans-101"/>
      <path d="M 9.421875 75.984375 
L 18.40625 75.984375 
L 18.40625 0 
L 9.421875 0 
z
" id="DejaVuSans-108"/>
      <path d="M 44.28125 53.078125 
L 44.28125 44.578125 
Q 40.484375 46.53125 36.375 47.5 
Q 32.28125 48.484375 27.875 48.484375 
Q 21.1875 48.484375 17.84375 46.4375 
Q 14.5 44.390625 14.5 40.28125 
Q 14.5 37.15625 16.890625 35.375 
Q 19.28125 33.59375 26.515625 31.984375 
L 29.59375 31.296875 
Q 39.15625 29.25 43.1875 25.515625 
Q 47.21875 21.78125 47.21875 15.09375 
Q 47.21875 7.46875 41.1875 3.015625 
Q 35.15625 -1.421875 24.609375 -1.421875 
Q 20.21875 -1.421875 15.453125 -0.5625 
Q 10.6875 0.296875 5.421875 2 
L 5.421875 11.28125 
Q 10.40625 8.6875 15.234375 7.390625 
Q 20.0625 6.109375 24.8125 6.109375 
Q 31.15625 6.109375 34.5625 8.28125 
Q 37.984375 10.453125 37.984375 14.40625 
Q 37.984375 18.0625 35.515625 20.015625 
Q 33.0625 21.96875 24.703125 23.78125 
L 21.578125 24.515625 
Q 13.234375 26.265625 9.515625 29.90625 
Q 5.8125 33.546875 5.8125 39.890625 
Q 5.8125 47.609375 11.28125 51.796875 
Q 16.75 56 26.8125 56 
Q 31.78125 56 36.171875 55.265625 
Q 40.578125 54.546875 44.28125 53.078125 
z
" id="DejaVuSans-115"/>
     </defs>
     <g transform="translate(29.995312 175.761406)rotate(-90)scale(0.3 -0.3)">
      <use xlink:href="#DejaVuSans-35"/>
      <use x="83.789062" xlink:href="#DejaVuSans-112"/>
      <use x="147.265625" xlink:href="#DejaVuSans-105"/>
      <use x="175.048828" xlink:href="#DejaVuSans-120"/>
      <use x="234.181641" xlink:href="#DejaVuSans-101"/>
      <use x="295.705078" xlink:href="#DejaVuSans-108"/>
      <use x="323.488281" xlink:href="#DejaVuSans-115"/>
     </g>
    </g>
   </g>
   <g id="line2d_10">
    <path clip-path="url(#p95fd0f5577)" d="M 102.743601 19.132792 
L 103.063372 44.952703 
L 103.223258 47.521355 
L 103.543028 48.481047 
L 103.862799 52.43403 
L 104.022684 52.573314 
L 104.342455 54.202111 
L 104.662226 55.445717 
L 104.981997 55.608406 
L 105.141882 55.917969 
L 105.461653 56.703346 
L 105.621538 58.354264 
L 105.781424 58.505634 
L 105.941309 58.936232 
L 106.26108 60.21543 
L 106.420965 60.404819 
L 106.580851 62.014117 
L 106.740736 62.271336 
L 107.060507 63.461543 
L 107.220392 63.536645 
L 107.380278 63.768573 
L 107.859934 65.503204 
L 108.979131 66.327639 
L 109.618673 68.659836 
L 109.778558 71.170809 
L 109.938444 71.73169 
L 110.098329 71.879257 
L 110.258215 72.508492 
L 110.4181 72.585316 
L 110.577985 72.829433 
L 110.737871 72.833334 
L 110.897756 73.064981 
L 111.057641 73.786206 
L 111.377412 73.843827 
L 111.537298 74.311424 
L 112.016954 74.579775 
L 112.336725 75.163938 
L 112.656495 76.020795 
L 112.816381 76.044015 
L 114.095464 77.736825 
L 114.57512 77.81342 
L 114.894891 78.506903 
L 115.214662 78.812318 
L 116.333859 79.5566 
L 116.65363 79.862969 
L 116.973401 79.989266 
L 117.453057 81.130002 
L 117.772828 81.30863 
L 118.252484 81.899873 
L 118.572255 82.183305 
L 118.73214 82.26789 
L 119.051911 82.710116 
L 119.211796 82.730168 
L 120.330994 83.719381 
L 120.970535 83.953782 
L 121.130421 84.645772 
L 121.290306 84.660624 
L 122.089733 85.349428 
L 122.569389 85.465489 
L 122.729275 85.913335 
L 123.208931 86.017023 
L 123.688587 86.266668 
L 124.008358 86.291008 
L 125.127556 87.334975 
L 125.607212 87.447034 
L 125.926982 87.760968 
L 126.566524 87.982179 
L 126.886295 88.143117 
L 127.365951 88.287366 
L 128.165378 88.57931 
L 128.645034 88.680747 
L 128.964805 88.922759 
L 131.2032 89.854884 
L 131.363086 90.273641 
L 131.842742 90.476456 
L 132.322398 90.764213 
L 132.642169 90.774574 
L 133.121825 91.098696 
L 133.601481 91.47165 
L 133.761366 92.017934 
L 133.921252 92.040127 
L 134.081137 92.229858 
L 134.400908 92.252309 
L 134.720679 92.45561 
L 134.880564 92.466971 
L 135.200335 92.718703 
L 135.999762 92.822687 
L 136.319533 92.997313 
L 136.639303 93.067631 
L 137.278845 93.363556 
L 137.43873 93.375492 
L 137.758501 93.810466 
L 138.078272 93.871702 
L 138.238157 93.871702 
L 138.717813 94.255993 
L 138.877699 94.268524 
L 139.19747 94.39431 
L 139.357355 94.470197 
L 139.677126 94.85441 
L 140.156782 95.062658 
L 142.075407 95.920101 
L 143.834146 96.364318 
L 143.994031 96.590522 
L 144.153917 96.604752 
L 144.473687 96.733327 
L 144.953343 96.848376 
L 145.433 97.124543 
L 145.912656 97.153856 
L 146.232427 97.390061 
L 147.51151 97.704763 
L 148.790593 98.366487 
L 149.270249 98.82662 
L 150.069676 98.955609 
L 150.709217 99.381191 
L 151.028988 99.648076 
L 152.467957 99.901853 
L 152.787727 100.004354 
L 153.107498 100.245771 
L 153.427269 100.385163 
L 154.226696 100.971603 
L 154.866237 101.281179 
L 155.665664 101.391699 
L 156.624977 101.57739 
L 157.104633 101.954502 
L 157.90406 102.146002 
L 158.543601 102.320076 
L 159.343028 102.515447 
L 163.659934 103.134653 
L 164.299475 103.277411 
L 164.779131 103.380064 
L 165.258788 103.504011 
L 165.738444 103.670585 
L 166.377985 104.008336 
L 167.976839 104.352416 
L 168.616381 104.439452 
L 175.811223 106.393764 
L 176.290879 106.810882 
L 177.090306 106.91042 
L 177.569962 107.08592 
L 177.889733 107.33958 
L 178.209504 107.416367 
L 181.087441 107.77901 
L 181.726982 107.831406 
L 182.526409 108.256042 
L 183.006066 108.336766 
L 183.965378 108.39078 
L 184.445034 108.526514 
L 185.084576 108.745796 
L 187.802627 109.592245 
L 192.279418 110.479601 
L 192.759074 110.662336 
L 193.398616 110.846907 
L 193.558501 111.033353 
L 194.198043 111.095924 
L 194.517813 111.22171 
L 201.712656 112.733791 
L 202.032427 112.940525 
L 202.671968 113.184694 
L 203.151624 113.610973 
L 204.750478 113.864283 
L 205.549905 113.937304 
L 206.669103 114.344192 
L 207.148759 114.381632 
L 207.628415 114.532164 
L 208.267957 114.56999 
L 209.227269 114.91398 
L 209.866811 115.146939 
L 210.186581 115.303903 
L 212.105206 115.823505 
L 212.424977 115.986385 
L 213.544174 116.027332 
L 213.863945 116.150724 
L 214.343601 116.233448 
L 216.422111 116.695213 
L 216.901768 116.780432 
L 221.218673 117.835154 
L 222.0181 117.925844 
L 223.137298 118.154548 
L 223.776839 118.246833 
L 224.576266 118.386137 
L 225.375693 118.479596 
L 226.494891 118.715346 
L 227.454203 118.8105 
L 228.573401 119.050565 
L 229.692598 119.147476 
L 230.33214 119.342847 
L 230.492025 119.540319 
L 231.291452 119.590021 
L 231.611223 119.739937 
L 232.250765 119.840566 
L 233.050192 119.992551 
L 234.329275 120.094577 
L 234.649045 120.197173 
L 236.56767 120.718933 
L 237.047326 120.825087 
L 238.64618 121.25595 
L 239.925263 121.365264 
L 240.404919 121.420166 
L 240.72469 121.530465 
L 241.044461 121.697165 
L 241.843888 121.697165 
L 242.323544 121.921813 
L 243.122971 121.978407 
L 243.762513 122.09212 
L 244.242169 122.149242 
L 244.561939 122.264022 
L 245.361366 122.437548 
L 246.160793 122.495756 
L 247.599762 122.908463 
L 247.919533 122.968186 
L 248.239303 123.028104 
L 248.559074 123.088217 
L 248.878845 123.148528 
L 249.518386 123.209038 
L 249.838157 123.269748 
L 250.157928 123.330659 
L 250.637584 123.453091 
L 250.957355 123.514614 
L 251.596896 123.70043 
L 252.396323 123.762789 
L 252.716094 123.825361 
L 252.87598 123.825361 
L 253.355636 124.0778 
L 253.675407 124.141456 
L 254.314948 124.205334 
L 254.634719 124.269434 
L 254.95449 124.333758 
L 255.434146 124.593334 
L 256.393458 124.658806 
L 257.832427 125.191153 
L 258.471968 125.191153 
L 258.791739 125.531881 
L 259.43128 125.600792 
L 259.751051 125.739394 
L 260.230707 125.809089 
L 260.550478 125.87905 
L 261.349905 125.949278 
L 262.149332 126.232908 
L 263.748186 126.304506 
L 264.067957 126.376383 
L 264.707498 126.448543 
L 265.027269 126.520988 
L 265.666811 126.59372 
L 266.306352 126.813659 
L 267.105779 126.887561 
L 267.745321 127.111069 
L 268.224977 127.18618 
L 268.704633 127.337331 
L 269.50406 127.413376 
L 269.823831 127.489736 
L 270.943028 127.566416 
L 271.262799 127.643416 
L 271.58257 127.720742 
L 272.381997 128.03334 
L 272.861653 128.112328 
L 273.181424 128.351351 
L 273.820965 128.431722 
L 274.140736 128.512446 
L 274.620392 128.593526 
L 274.940163 128.674966 
L 275.579705 128.756769 
L 275.73959 128.921476 
L 276.539017 129.004387 
L 276.858788 129.087674 
L 277.498329 129.17134 
L 277.658215 129.339824 
L 278.617527 129.42465 
L 279.257068 129.681503 
L 279.736725 129.767925 
L 280.056495 129.854756 
L 280.855922 129.941999 
L 281.175693 130.029659 
L 281.97512 130.117739 
L 282.614662 130.384544 
L 284.05363 130.474347 
L 284.373401 130.564591 
L 285.012942 130.655281 
L 285.492598 130.838016 
L 286.292025 130.93007 
L 286.611796 131.022587 
L 287.091452 131.115573 
L 287.411223 131.209032 
L 288.370535 131.30297 
L 288.690306 131.39739 
L 289.649619 131.492298 
L 289.969389 131.587699 
L 290.449045 131.683599 
L 290.928702 131.876913 
L 291.408358 131.974339 
L 291.728129 132.072284 
L 292.847326 132.170755 
L 293.167097 132.269756 
L 293.646753 132.369294 
L 293.966524 132.469374 
L 294.765951 132.570003 
L 295.085722 132.671186 
L 295.565378 132.77293 
L 295.885149 132.87524 
L 297.004346 132.978124 
L 297.324117 133.081587 
L 297.484003 133.081587 
L 297.803773 133.395521 
L 298.443315 133.50137 
L 299.082856 133.822627 
L 301.001481 133.930973 
L 301.321252 134.039963 
L 302.120679 134.149603 
L 302.280564 134.370867 
L 302.920106 134.370867 
L 303.239876 134.482507 
L 303.399762 134.482507 
L 303.719533 134.59483 
L 304.199189 134.59483 
L 304.51896 134.707843 
L 305.158501 134.707843 
L 305.478272 134.821557 
L 305.638157 134.821557 
L 306.117813 135.051119 
L 306.757355 135.051119 
L 307.077126 135.400933 
L 307.396896 135.400933 
L 308.036438 135.75754 
L 308.196323 135.75754 
L 308.835865 136.12121 
L 308.99575 136.12121 
L 309.475407 136.367719 
L 309.635292 136.367719 
L 309.955063 136.492226 
L 310.434719 136.492226 
L 310.594604 136.743801 
L 310.75449 136.743801 
L 311.07426 136.870893 
L 312.992885 136.870893 
L 313.15277 137.127746 
L 313.472541 137.127746 
L 313.792312 137.257532 
L 314.271968 137.257532 
L 314.591739 137.388243 
L 314.91151 137.388243 
L 315.391166 137.652487 
L 315.870822 137.652487 
L 316.350478 137.92059 
L 316.510364 137.92059 
L 316.830134 138.056123 
L 317.149905 138.056123 
L 317.629561 138.330228 
L 317.789447 138.330228 
L 318.109217 138.46883 
L 318.269103 138.46883 
L 318.588874 138.608487 
L 318.748759 138.608487 
L 319.06853 138.749213 
L 319.228415 138.749213 
L 319.708071 139.033943 
L 320.027842 139.033943 
L 320.347613 139.17798 
L 320.827269 139.17798 
L 321.14704 139.323156 
L 322.266237 139.323156 
L 322.586008 139.469489 
L 322.905779 139.469489 
L 323.385435 139.765701 
L 323.705206 139.765701 
L 324.024977 139.915617 
L 324.184862 139.915617 
L 324.504633 140.066768 
L 325.30406 140.066768 
L 325.623831 140.219173 
L 326.423258 140.219173 
L 327.222684 140.841765 
L 327.38257 140.841765 
L 327.542455 141.000767 
L 328.022111 141.000767 
L 328.181997 141.161159 
L 328.821538 141.161159 
L 328.981424 141.486206 
L 329.780851 141.486206 
L 329.940736 141.650913 
L 330.100621 141.650913 
L 330.260507 141.81711 
L 330.580278 141.81711 
L 330.740163 141.984826 
L 331.059934 141.984826 
L 331.219819 142.154087 
L 332.179131 142.154087 
L 332.339017 142.324922 
L 332.498902 142.671436 
L 333.6181 142.671436 
L 333.777985 142.847176 
L 335.376839 142.847176 
L 335.536725 143.024614 
L 336.016381 143.024614 
L 336.176266 143.203783 
L 336.975693 143.203783 
L 337.295464 143.567453 
L 337.615235 143.567453 
L 337.77512 143.752024 
L 338.414662 143.752024 
L 338.574547 143.938469 
L 339.054203 143.938469 
L 339.214088 144.126827 
L 339.533859 144.126827 
L 339.693745 144.317136 
L 340.013515 144.317136 
L 340.173401 144.509438 
L 340.493172 144.509438 
L 340.653057 144.703776 
L 340.972828 144.703776 
L 341.132713 144.900191 
L 341.772255 144.900191 
L 341.93214 145.098731 
L 342.092025 145.098731 
L 342.251911 145.29944 
L 342.891452 145.29944 
L 343.051338 145.502366 
L 344.810077 145.502366 
L 344.969962 145.707561 
L 345.929275 145.707561 
L 346.08916 145.915074 
L 347.048472 145.915074 
L 347.208358 146.124958 
L 349.286868 146.124958 
L 349.446753 146.337269 
L 349.766524 146.337269 
L 349.926409 146.552063 
L 350.24618 146.552063 
L 350.406066 146.7694 
L 351.365378 146.7694 
L 351.525263 146.989339 
L 352.964232 146.989339 
L 353.124117 147.211944 
L 353.923544 147.211944 
L 354.083429 147.43728 
L 355.202627 147.43728 
L 355.362513 147.665416 
L 356.48171 147.665416 
L 356.641596 147.896422 
L 356.961366 147.896422 
L 357.121252 148.13037 
L 357.281137 148.13037 
L 357.441023 148.367337 
L 357.760793 148.367337 
L 358.080564 148.850646 
L 358.720106 148.850646 
L 358.879991 149.097156 
L 359.199762 149.097156 
L 359.519533 149.60033 
L 361.757928 149.60033 
L 361.917813 149.857183 
L 362.71724 149.857183 
L 362.877126 150.117679 
L 363.196896 150.117679 
L 363.356782 150.381924 
L 363.516667 150.381924 
L 363.676553 150.650027 
L 364.156209 150.650027 
L 364.316094 150.922101 
L 364.635865 150.922101 
L 364.79575 151.198267 
L 365.914948 151.198267 
L 366.074833 151.47865 
L 366.234719 151.47865 
L 366.394604 151.763379 
L 367.194031 151.763379 
L 367.353917 152.052593 
L 367.993458 152.052593 
L 368.153343 152.346435 
L 368.313229 152.346435 
L 368.473114 152.645054 
L 368.792885 152.645054 
L 368.95277 152.94861 
L 370.071968 152.94861 
L 370.231854 153.257267 
L 370.871395 153.257267 
L 371.03128 153.571201 
L 372.150478 153.571201 
L 372.310364 153.890595 
L 378.545894 153.890595 
L 378.705779 154.215643 
L 379.665091 154.215643 
L 379.824977 154.546547 
L 381.263945 154.546547 
L 381.423831 154.883523 
L 382.063372 154.883523 
L 382.223258 155.226799 
L 382.383143 155.226799 
L 382.543028 155.576613 
L 383.18257 155.576613 
L 383.342455 155.93322 
L 384.621538 155.93322 
L 384.781424 156.296889 
L 385.420965 156.296889 
L 385.580851 156.667906 
L 386.859934 156.667906 
L 387.019819 157.046573 
L 387.979131 157.046573 
L 388.139017 157.433212 
L 388.618673 157.433212 
L 388.778558 157.828167 
L 389.258215 157.828167 
L 389.4181 158.231803 
L 390.057641 158.231803 
L 390.217527 158.64451 
L 390.857068 158.64451 
L 391.016954 159.066706 
L 391.176839 159.066706 
L 391.336725 159.498836 
L 392.136152 159.498836 
L 392.296037 160.394853 
L 392.775693 160.394853 
L 392.935578 160.859807 
L 393.255349 160.859807 
L 393.415235 161.336839 
L 393.57512 161.336839 
L 393.735005 161.826593 
L 394.054776 161.826593 
L 394.214662 162.329767 
L 395.493745 162.329767 
L 395.65363 162.847116 
L 395.973401 162.847116 
L 396.293172 164.492816 
L 396.453057 165.075871 
L 396.612942 165.075871 
L 396.772828 165.678046 
L 397.73214 165.678046 
L 397.892025 166.300638 
L 398.051911 166.300638 
L 398.371682 167.61296 
L 398.531567 167.61296 
L 398.691452 168.30605 
L 398.851338 168.30605 
L 399.171109 169.77601 
L 400.130421 169.77601 
L 400.290306 171.373947 
L 400.450192 171.373947 
L 400.610077 172.228273 
L 401.409504 172.228273 
L 401.88916 175.059203 
L 402.049045 175.059203 
L 402.368816 177.222253 
L 402.528702 184.103384 
L 402.688587 184.103384 
L 402.848472 185.853726 
L 403.168243 185.853726 
L 403.328129 187.78864 
L 403.328129 187.78864 
" style="fill:none;stroke:#0000ff;stroke-linecap:square;stroke-width:4;"/>
   </g>
   <g id="patch_3">
    <path d="M 87.714375 228.14 
L 87.714375 10.7 
" style="fill:none;stroke:#000000;stroke-linecap:square;stroke-linejoin:miter;stroke-width:0.8;"/>
   </g>
   <g id="patch_4">
    <path d="M 422.514375 228.14 
L 422.514375 10.7 
" style="fill:none;stroke:#000000;stroke-linecap:square;stroke-linejoin:miter;stroke-width:0.8;"/>
   </g>
   <g id="patch_5">
    <path d="M 87.714375 228.14 
L 422.514375 228.14 
" style="fill:none;stroke:#000000;stroke-linecap:square;stroke-linejoin:miter;stroke-width:0.8;"/>
   </g>
   <g id="patch_6">
    <path d="M 87.714375 10.7 
L 422.514375 10.7 
" style="fill:none;stroke:#000000;stroke-linecap:square;stroke-linejoin:miter;stroke-width:0.8;"/>
   </g>
  </g>
 </g>
 <defs>
  <clipPath id="p95fd0f5577">
   <rect height="217.44" width="334.8" x="87.714375" y="10.7"/>
  </clipPath>
 </defs>
</svg>
