<?xml version="1.0" encoding="utf-8" standalone="no"?>
<!DOCTYPE svg PUBLIC "-//W3C//DTD SVG 1.1//EN"
  "http://www.w3.org/Graphics/SVG/1.1/DTD/svg11.dtd">
<!-- Created with matplotlib (https://matplotlib.org/) -->
<svg height="297.634062pt" version="1.1" viewBox="0 0 446.784375 297.634062" width="446.784375pt" xmlns="http://www.w3.org/2000/svg" xmlns:xlink="http://www.w3.org/1999/xlink">
 <defs>
  <style type="text/css">
*{stroke-linecap:butt;stroke-linejoin:round;}
  </style>
 </defs>
 <g id="figure_1">
  <g id="patch_1">
   <path d="M 0 297.634062 
L 446.784375 297.634062 
L 446.784375 0 
L 0 0 
z
" style="fill:#ffffff;"/>
  </g>
  <g id="axes_1">
   <g id="patch_2">
    <path d="M 101.284375 228.14 
L 436.084375 228.14 
L 436.084375 10.7 
L 101.284375 10.7 
z
" style="fill:#ffffff;"/>
   </g>
   <g id="matplotlib.axis_1">
    <g id="xtick_1">
     <g id="line2d_1">
      <defs>
       <path d="M 0 0 
L 0 3.5 
" id="me10403551e" style="stroke:#000000;stroke-width:0.8;"/>
      </defs>
      <g>
       <use style="stroke:#000000;stroke-width:0.8;" x="101.284375" xlink:href="#me10403551e" y="228.14"/>
      </g>
     </g>
     <g id="text_1">
      <!-- $\mathdefault{10^{0}}$ -->
      <defs>
       <path d="M 12.40625 8.296875 
L 28.515625 8.296875 
L 28.515625 63.921875 
L 10.984375 60.40625 
L 10.984375 69.390625 
L 28.421875 72.90625 
L 38.28125 72.90625 
L 38.28125 8.296875 
L 54.390625 8.296875 
L 54.390625 0 
L 12.40625 0 
z
" id="DejaVuSans-49"/>
       <path d="M 31.78125 66.40625 
Q 24.171875 66.40625 20.328125 58.90625 
Q 16.5 51.421875 16.5 36.375 
Q 16.5 21.390625 20.328125 13.890625 
Q 24.171875 6.390625 31.78125 6.390625 
Q 39.453125 6.390625 43.28125 13.890625 
Q 47.125 21.390625 47.125 36.375 
Q 47.125 51.421875 43.28125 58.90625 
Q 39.453125 66.40625 31.78125 66.40625 
z
M 31.78125 74.21875 
Q 44.046875 74.21875 50.515625 64.515625 
Q 56.984375 54.828125 56.984375 36.375 
Q 56.984375 17.96875 50.515625 8.265625 
Q 44.046875 -1.421875 31.78125 -1.421875 
Q 19.53125 -1.421875 13.0625 8.265625 
Q 6.59375 17.96875 6.59375 36.375 
Q 6.59375 54.828125 13.0625 64.515625 
Q 19.53125 74.21875 31.78125 74.21875 
z
" id="DejaVuSans-48"/>
      </defs>
      <g transform="translate(81.044375 252.616406)scale(0.23 -0.23)">
       <use transform="translate(0 0.765625)" xlink:href="#DejaVuSans-49"/>
       <use transform="translate(63.623047 0.765625)" xlink:href="#DejaVuSans-48"/>
       <use transform="translate(128.203125 39.046875)scale(0.7)" xlink:href="#DejaVuSans-48"/>
      </g>
     </g>
    </g>
    <g id="xtick_2">
     <g id="line2d_2">
      <g>
       <use style="stroke:#000000;stroke-width:0.8;" x="235.204375" xlink:href="#me10403551e" y="228.14"/>
      </g>
     </g>
     <g id="text_2">
      <!-- $\mathdefault{10^{2}}$ -->
      <defs>
       <path d="M 19.1875 8.296875 
L 53.609375 8.296875 
L 53.609375 0 
L 7.328125 0 
L 7.328125 8.296875 
Q 12.9375 14.109375 22.625 23.890625 
Q 32.328125 33.6875 34.8125 36.53125 
Q 39.546875 41.84375 41.421875 45.53125 
Q 43.3125 49.21875 43.3125 52.78125 
Q 43.3125 58.59375 39.234375 62.25 
Q 35.15625 65.921875 28.609375 65.921875 
Q 23.96875 65.921875 18.8125 64.3125 
Q 13.671875 62.703125 7.8125 59.421875 
L 7.8125 69.390625 
Q 13.765625 71.78125 18.9375 73 
Q 24.125 74.21875 28.421875 74.21875 
Q 39.75 74.21875 46.484375 68.546875 
Q 53.21875 62.890625 53.21875 53.421875 
Q 53.21875 48.921875 51.53125 44.890625 
Q 49.859375 40.875 45.40625 35.40625 
Q 44.1875 33.984375 37.640625 27.21875 
Q 31.109375 20.453125 19.1875 8.296875 
z
" id="DejaVuSans-50"/>
      </defs>
      <g transform="translate(214.964375 252.616406)scale(0.23 -0.23)">
       <use transform="translate(0 0.765625)" xlink:href="#DejaVuSans-49"/>
       <use transform="translate(63.623047 0.765625)" xlink:href="#DejaVuSans-48"/>
       <use transform="translate(128.203125 39.046875)scale(0.7)" xlink:href="#DejaVuSans-50"/>
      </g>
     </g>
    </g>
    <g id="xtick_3">
     <g id="line2d_3">
      <g>
       <use style="stroke:#000000;stroke-width:0.8;" x="369.124375" xlink:href="#me10403551e" y="228.14"/>
      </g>
     </g>
     <g id="text_3">
      <!-- $\mathdefault{10^{4}}$ -->
      <defs>
       <path d="M 37.796875 64.3125 
L 12.890625 25.390625 
L 37.796875 25.390625 
z
M 35.203125 72.90625 
L 47.609375 72.90625 
L 47.609375 25.390625 
L 58.015625 25.390625 
L 58.015625 17.1875 
L 47.609375 17.1875 
L 47.609375 0 
L 37.796875 0 
L 37.796875 17.1875 
L 4.890625 17.1875 
L 4.890625 26.703125 
z
" id="DejaVuSans-52"/>
      </defs>
      <g transform="translate(348.884375 252.616406)scale(0.23 -0.23)">
       <use transform="translate(0 0.684375)" xlink:href="#DejaVuSans-49"/>
       <use transform="translate(63.623047 0.684375)" xlink:href="#DejaVuSans-48"/>
       <use transform="translate(128.203125 38.965625)scale(0.7)" xlink:href="#DejaVuSans-52"/>
      </g>
     </g>
    </g>
    <g id="text_4">
     <!-- #pixels -->
     <defs>
      <path d="M 51.125 44 
L 36.921875 44 
L 32.8125 27.6875 
L 47.125 27.6875 
z
M 43.796875 71.78125 
L 38.71875 51.515625 
L 52.984375 51.515625 
L 58.109375 71.78125 
L 65.921875 71.78125 
L 60.890625 51.515625 
L 76.125 51.515625 
L 76.125 44 
L 58.984375 44 
L 54.984375 27.6875 
L 70.515625 27.6875 
L 70.515625 20.21875 
L 53.078125 20.21875 
L 48 0 
L 40.1875 0 
L 45.21875 20.21875 
L 30.90625 20.21875 
L 25.875 0 
L 18.015625 0 
L 23.09375 20.21875 
L 7.71875 20.21875 
L 7.71875 27.6875 
L 24.90625 27.6875 
L 29 44 
L 13.28125 44 
L 13.28125 51.515625 
L 30.90625 51.515625 
L 35.890625 71.78125 
z
" id="DejaVuSans-35"/>
      <path d="M 18.109375 8.203125 
L 18.109375 -20.796875 
L 9.078125 -20.796875 
L 9.078125 54.6875 
L 18.109375 54.6875 
L 18.109375 46.390625 
Q 20.953125 51.265625 25.265625 53.625 
Q 29.59375 56 35.59375 56 
Q 45.5625 56 51.78125 48.09375 
Q 58.015625 40.1875 58.015625 27.296875 
Q 58.015625 14.40625 51.78125 6.484375 
Q 45.5625 -1.421875 35.59375 -1.421875 
Q 29.59375 -1.421875 25.265625 0.953125 
Q 20.953125 3.328125 18.109375 8.203125 
z
M 48.6875 27.296875 
Q 48.6875 37.203125 44.609375 42.84375 
Q 40.53125 48.484375 33.40625 48.484375 
Q 26.265625 48.484375 22.1875 42.84375 
Q 18.109375 37.203125 18.109375 27.296875 
Q 18.109375 17.390625 22.1875 11.75 
Q 26.265625 6.109375 33.40625 6.109375 
Q 40.53125 6.109375 44.609375 11.75 
Q 48.6875 17.390625 48.6875 27.296875 
z
" id="DejaVuSans-112"/>
      <path d="M 9.421875 54.6875 
L 18.40625 54.6875 
L 18.40625 0 
L 9.421875 0 
z
M 9.421875 75.984375 
L 18.40625 75.984375 
L 18.40625 64.59375 
L 9.421875 64.59375 
z
" id="DejaVuSans-105"/>
      <path d="M 54.890625 54.6875 
L 35.109375 28.078125 
L 55.90625 0 
L 45.3125 0 
L 29.390625 21.484375 
L 13.484375 0 
L 2.875 0 
L 24.125 28.609375 
L 4.6875 54.6875 
L 15.28125 54.6875 
L 29.78125 35.203125 
L 44.28125 54.6875 
z
" id="DejaVuSans-120"/>
      <path d="M 56.203125 29.59375 
L 56.203125 25.203125 
L 14.890625 25.203125 
Q 15.484375 15.921875 20.484375 11.0625 
Q 25.484375 6.203125 34.421875 6.203125 
Q 39.59375 6.203125 44.453125 7.46875 
Q 49.3125 8.734375 54.109375 11.28125 
L 54.109375 2.78125 
Q 49.265625 0.734375 44.1875 -0.34375 
Q 39.109375 -1.421875 33.890625 -1.421875 
Q 20.796875 -1.421875 13.15625 6.1875 
Q 5.515625 13.8125 5.515625 26.8125 
Q 5.515625 40.234375 12.765625 48.109375 
Q 20.015625 56 32.328125 56 
Q 43.359375 56 49.78125 48.890625 
Q 56.203125 41.796875 56.203125 29.59375 
z
M 47.21875 32.234375 
Q 47.125 39.59375 43.09375 43.984375 
Q 39.0625 48.390625 32.421875 48.390625 
Q 24.90625 48.390625 20.390625 44.140625 
Q 15.875 39.890625 15.1875 32.171875 
z
" id="DejaVuSans-101"/>
      <path d="M 9.421875 75.984375 
L 18.40625 75.984375 
L 18.40625 0 
L 9.421875 0 
z
" id="DejaVuSans-108"/>
      <path d="M 44.28125 53.078125 
L 44.28125 44.578125 
Q 40.484375 46.53125 36.375 47.5 
Q 32.28125 48.484375 27.875 48.484375 
Q 21.1875 48.484375 17.84375 46.4375 
Q 14.5 44.390625 14.5 40.28125 
Q 14.5 37.15625 16.890625 35.375 
Q 19.28125 33.59375 26.515625 31.984375 
L 29.59375 31.296875 
Q 39.15625 29.25 43.1875 25.515625 
Q 47.21875 21.78125 47.21875 15.09375 
Q 47.21875 7.46875 41.1875 3.015625 
Q 35.15625 -1.421875 24.609375 -1.421875 
Q 20.21875 -1.421875 15.453125 -0.5625 
Q 10.6875 0.296875 5.421875 2 
L 5.421875 11.28125 
Q 10.40625 8.6875 15.234375 7.390625 
Q 20.0625 6.109375 24.8125 6.109375 
Q 31.15625 6.109375 34.5625 8.28125 
Q 37.984375 10.453125 37.984375 14.40625 
Q 37.984375 18.0625 35.515625 20.015625 
Q 33.0625 21.96875 24.703125 23.78125 
L 21.578125 24.515625 
Q 13.234375 26.265625 9.515625 29.90625 
Q 5.8125 33.546875 5.8125 39.890625 
Q 5.8125 47.609375 11.28125 51.796875 
Q 16.75 56 26.8125 56 
Q 31.78125 56 36.171875 55.265625 
Q 40.578125 54.546875 44.28125 53.078125 
z
" id="DejaVuSans-115"/>
     </defs>
     <g transform="translate(212.342969 284.195)scale(0.3 -0.3)">
      <use xlink:href="#DejaVuSans-35"/>
      <use x="83.789062" xlink:href="#DejaVuSans-112"/>
      <use x="147.265625" xlink:href="#DejaVuSans-105"/>
      <use x="175.048828" xlink:href="#DejaVuSans-120"/>
      <use x="234.181641" xlink:href="#DejaVuSans-101"/>
      <use x="295.705078" xlink:href="#DejaVuSans-108"/>
      <use x="323.488281" xlink:href="#DejaVuSans-115"/>
     </g>
    </g>
   </g>
   <g id="matplotlib.axis_2">
    <g id="ytick_1">
     <g id="line2d_4">
      <defs>
       <path d="M 0 0 
L -3.5 0 
" id="m2c42c81532" style="stroke:#000000;stroke-width:0.8;"/>
      </defs>
      <g>
       <use style="stroke:#000000;stroke-width:0.8;" x="101.284375" xlink:href="#m2c42c81532" y="201.513742"/>
      </g>
     </g>
     <g id="text_5">
      <!-- $\mathdefault{10^{-3}}$ -->
      <defs>
       <path d="M 10.59375 35.5 
L 73.1875 35.5 
L 73.1875 27.203125 
L 10.59375 27.203125 
z
" id="DejaVuSans-8722"/>
       <path d="M 40.578125 39.3125 
Q 47.65625 37.796875 51.625 33 
Q 55.609375 28.21875 55.609375 21.1875 
Q 55.609375 10.40625 48.1875 4.484375 
Q 40.765625 -1.421875 27.09375 -1.421875 
Q 22.515625 -1.421875 17.65625 -0.515625 
Q 12.796875 0.390625 7.625 2.203125 
L 7.625 11.71875 
Q 11.71875 9.328125 16.59375 8.109375 
Q 21.484375 6.890625 26.8125 6.890625 
Q 36.078125 6.890625 40.9375 10.546875 
Q 45.796875 14.203125 45.796875 21.1875 
Q 45.796875 27.640625 41.28125 31.265625 
Q 36.765625 34.90625 28.71875 34.90625 
L 20.21875 34.90625 
L 20.21875 43.015625 
L 29.109375 43.015625 
Q 36.375 43.015625 40.234375 45.921875 
Q 44.09375 48.828125 44.09375 54.296875 
Q 44.09375 59.90625 40.109375 62.90625 
Q 36.140625 65.921875 28.71875 65.921875 
Q 24.65625 65.921875 20.015625 65.03125 
Q 15.375 64.15625 9.8125 62.3125 
L 9.8125 71.09375 
Q 15.4375 72.65625 20.34375 73.4375 
Q 25.25 74.21875 29.59375 74.21875 
Q 40.828125 74.21875 47.359375 69.109375 
Q 53.90625 64.015625 53.90625 55.328125 
Q 53.90625 49.265625 50.4375 45.09375 
Q 46.96875 40.921875 40.578125 39.3125 
z
" id="DejaVuSans-51"/>
      </defs>
      <g transform="translate(40.234375 210.251945)scale(0.23 -0.23)">
       <use transform="translate(0 0.765625)" xlink:href="#DejaVuSans-49"/>
       <use transform="translate(63.623047 0.765625)" xlink:href="#DejaVuSans-48"/>
       <use transform="translate(128.203125 39.046875)scale(0.7)" xlink:href="#DejaVuSans-8722"/>
       <use transform="translate(186.855469 39.046875)scale(0.7)" xlink:href="#DejaVuSans-51"/>
      </g>
     </g>
    </g>
    <g id="ytick_2">
     <g id="line2d_5">
      <g>
       <use style="stroke:#000000;stroke-width:0.8;" x="101.284375" xlink:href="#m2c42c81532" y="141.203707"/>
      </g>
     </g>
     <g id="text_6">
      <!-- $\mathdefault{10^{-2}}$ -->
      <g transform="translate(40.234375 149.94191)scale(0.23 -0.23)">
       <use transform="translate(0 0.765625)" xlink:href="#DejaVuSans-49"/>
       <use transform="translate(63.623047 0.765625)" xlink:href="#DejaVuSans-48"/>
       <use transform="translate(128.203125 39.046875)scale(0.7)" xlink:href="#DejaVuSans-8722"/>
       <use transform="translate(186.855469 39.046875)scale(0.7)" xlink:href="#DejaVuSans-50"/>
      </g>
     </g>
    </g>
    <g id="ytick_3">
     <g id="line2d_6">
      <g>
       <use style="stroke:#000000;stroke-width:0.8;" x="101.284375" xlink:href="#m2c42c81532" y="80.893672"/>
      </g>
     </g>
     <g id="text_7">
      <!-- $\mathdefault{10^{-1}}$ -->
      <g transform="translate(40.234375 89.631875)scale(0.23 -0.23)">
       <use transform="translate(0 0.684375)" xlink:href="#DejaVuSans-49"/>
       <use transform="translate(63.623047 0.684375)" xlink:href="#DejaVuSans-48"/>
       <use transform="translate(128.203125 38.965625)scale(0.7)" xlink:href="#DejaVuSans-8722"/>
       <use transform="translate(186.855469 38.965625)scale(0.7)" xlink:href="#DejaVuSans-49"/>
      </g>
     </g>
    </g>
    <g id="ytick_4">
     <g id="line2d_7">
      <g>
       <use style="stroke:#000000;stroke-width:0.8;" x="101.284375" xlink:href="#m2c42c81532" y="20.583636"/>
      </g>
     </g>
     <g id="text_8">
      <!-- $\mathdefault{10^{0}}$ -->
      <g transform="translate(53.804375 29.321839)scale(0.23 -0.23)">
       <use transform="translate(0 0.765625)" xlink:href="#DejaVuSans-49"/>
       <use transform="translate(63.623047 0.765625)" xlink:href="#DejaVuSans-48"/>
       <use transform="translate(128.203125 39.046875)scale(0.7)" xlink:href="#DejaVuSans-48"/>
      </g>
     </g>
    </g>
    <g id="ytick_5">
     <g id="line2d_8">
      <defs>
       <path d="M 0 0 
L -2 0 
" id="m80b8477044" style="stroke:#000000;stroke-width:0.6;"/>
      </defs>
      <g>
       <use style="stroke:#000000;stroke-width:0.6;" x="101.284375" xlink:href="#m80b8477044" y="225.513518"/>
      </g>
     </g>
    </g>
    <g id="ytick_6">
     <g id="line2d_9">
      <g>
       <use style="stroke:#000000;stroke-width:0.6;" x="101.284375" xlink:href="#m80b8477044" y="219.668872"/>
      </g>
     </g>
    </g>
    <g id="ytick_7">
     <g id="line2d_10">
      <g>
       <use style="stroke:#000000;stroke-width:0.6;" x="101.284375" xlink:href="#m80b8477044" y="214.893448"/>
      </g>
     </g>
    </g>
    <g id="ytick_8">
     <g id="line2d_11">
      <g>
       <use style="stroke:#000000;stroke-width:0.6;" x="101.284375" xlink:href="#m80b8477044" y="210.855885"/>
      </g>
     </g>
    </g>
    <g id="ytick_9">
     <g id="line2d_12">
      <g>
       <use style="stroke:#000000;stroke-width:0.6;" x="101.284375" xlink:href="#m80b8477044" y="207.358388"/>
      </g>
     </g>
    </g>
    <g id="ytick_10">
     <g id="line2d_13">
      <g>
       <use style="stroke:#000000;stroke-width:0.6;" x="101.284375" xlink:href="#m80b8477044" y="204.273378"/>
      </g>
     </g>
    </g>
    <g id="ytick_11">
     <g id="line2d_14">
      <g>
       <use style="stroke:#000000;stroke-width:0.6;" x="101.284375" xlink:href="#m80b8477044" y="183.358612"/>
      </g>
     </g>
    </g>
    <g id="ytick_12">
     <g id="line2d_15">
      <g>
       <use style="stroke:#000000;stroke-width:0.6;" x="101.284375" xlink:href="#m80b8477044" y="172.738542"/>
      </g>
     </g>
    </g>
    <g id="ytick_13">
     <g id="line2d_16">
      <g>
       <use style="stroke:#000000;stroke-width:0.6;" x="101.284375" xlink:href="#m80b8477044" y="165.203483"/>
      </g>
     </g>
    </g>
    <g id="ytick_14">
     <g id="line2d_17">
      <g>
       <use style="stroke:#000000;stroke-width:0.6;" x="101.284375" xlink:href="#m80b8477044" y="159.358837"/>
      </g>
     </g>
    </g>
    <g id="ytick_15">
     <g id="line2d_18">
      <g>
       <use style="stroke:#000000;stroke-width:0.6;" x="101.284375" xlink:href="#m80b8477044" y="154.583413"/>
      </g>
     </g>
    </g>
    <g id="ytick_16">
     <g id="line2d_19">
      <g>
       <use style="stroke:#000000;stroke-width:0.6;" x="101.284375" xlink:href="#m80b8477044" y="150.54585"/>
      </g>
     </g>
    </g>
    <g id="ytick_17">
     <g id="line2d_20">
      <g>
       <use style="stroke:#000000;stroke-width:0.6;" x="101.284375" xlink:href="#m80b8477044" y="147.048353"/>
      </g>
     </g>
    </g>
    <g id="ytick_18">
     <g id="line2d_21">
      <g>
       <use style="stroke:#000000;stroke-width:0.6;" x="101.284375" xlink:href="#m80b8477044" y="143.963343"/>
      </g>
     </g>
    </g>
    <g id="ytick_19">
     <g id="line2d_22">
      <g>
       <use style="stroke:#000000;stroke-width:0.6;" x="101.284375" xlink:href="#m80b8477044" y="123.048577"/>
      </g>
     </g>
    </g>
    <g id="ytick_20">
     <g id="line2d_23">
      <g>
       <use style="stroke:#000000;stroke-width:0.6;" x="101.284375" xlink:href="#m80b8477044" y="112.428507"/>
      </g>
     </g>
    </g>
    <g id="ytick_21">
     <g id="line2d_24">
      <g>
       <use style="stroke:#000000;stroke-width:0.6;" x="101.284375" xlink:href="#m80b8477044" y="104.893448"/>
      </g>
     </g>
    </g>
    <g id="ytick_22">
     <g id="line2d_25">
      <g>
       <use style="stroke:#000000;stroke-width:0.6;" x="101.284375" xlink:href="#m80b8477044" y="99.048801"/>
      </g>
     </g>
    </g>
    <g id="ytick_23">
     <g id="line2d_26">
      <g>
       <use style="stroke:#000000;stroke-width:0.6;" x="101.284375" xlink:href="#m80b8477044" y="94.273378"/>
      </g>
     </g>
    </g>
    <g id="ytick_24">
     <g id="line2d_27">
      <g>
       <use style="stroke:#000000;stroke-width:0.6;" x="101.284375" xlink:href="#m80b8477044" y="90.235814"/>
      </g>
     </g>
    </g>
    <g id="ytick_25">
     <g id="line2d_28">
      <g>
       <use style="stroke:#000000;stroke-width:0.6;" x="101.284375" xlink:href="#m80b8477044" y="86.738318"/>
      </g>
     </g>
    </g>
    <g id="ytick_26">
     <g id="line2d_29">
      <g>
       <use style="stroke:#000000;stroke-width:0.6;" x="101.284375" xlink:href="#m80b8477044" y="83.653307"/>
      </g>
     </g>
    </g>
    <g id="ytick_27">
     <g id="line2d_30">
      <g>
       <use style="stroke:#000000;stroke-width:0.6;" x="101.284375" xlink:href="#m80b8477044" y="62.738542"/>
      </g>
     </g>
    </g>
    <g id="ytick_28">
     <g id="line2d_31">
      <g>
       <use style="stroke:#000000;stroke-width:0.6;" x="101.284375" xlink:href="#m80b8477044" y="52.118472"/>
      </g>
     </g>
    </g>
    <g id="ytick_29">
     <g id="line2d_32">
      <g>
       <use style="stroke:#000000;stroke-width:0.6;" x="101.284375" xlink:href="#m80b8477044" y="44.583412"/>
      </g>
     </g>
    </g>
    <g id="ytick_30">
     <g id="line2d_33">
      <g>
       <use style="stroke:#000000;stroke-width:0.6;" x="101.284375" xlink:href="#m80b8477044" y="38.738766"/>
      </g>
     </g>
    </g>
    <g id="ytick_31">
     <g id="line2d_34">
      <g>
       <use style="stroke:#000000;stroke-width:0.6;" x="101.284375" xlink:href="#m80b8477044" y="33.963342"/>
      </g>
     </g>
    </g>
    <g id="ytick_32">
     <g id="line2d_35">
      <g>
       <use style="stroke:#000000;stroke-width:0.6;" x="101.284375" xlink:href="#m80b8477044" y="29.925779"/>
      </g>
     </g>
    </g>
    <g id="ytick_33">
     <g id="line2d_36">
      <g>
       <use style="stroke:#000000;stroke-width:0.6;" x="101.284375" xlink:href="#m80b8477044" y="26.428283"/>
      </g>
     </g>
    </g>
    <g id="ytick_34">
     <g id="line2d_37">
      <g>
       <use style="stroke:#000000;stroke-width:0.6;" x="101.284375" xlink:href="#m80b8477044" y="23.343272"/>
      </g>
     </g>
    </g>
    <g id="text_9">
     <!-- ICDF -->
     <defs>
      <path d="M 9.8125 72.90625 
L 19.671875 72.90625 
L 19.671875 0 
L 9.8125 0 
z
" id="DejaVuSans-73"/>
      <path d="M 64.40625 67.28125 
L 64.40625 56.890625 
Q 59.421875 61.53125 53.78125 63.8125 
Q 48.140625 66.109375 41.796875 66.109375 
Q 29.296875 66.109375 22.65625 58.46875 
Q 16.015625 50.828125 16.015625 36.375 
Q 16.015625 21.96875 22.65625 14.328125 
Q 29.296875 6.6875 41.796875 6.6875 
Q 48.140625 6.6875 53.78125 8.984375 
Q 59.421875 11.28125 64.40625 15.921875 
L 64.40625 5.609375 
Q 59.234375 2.09375 53.4375 0.328125 
Q 47.65625 -1.421875 41.21875 -1.421875 
Q 24.65625 -1.421875 15.125 8.703125 
Q 5.609375 18.84375 5.609375 36.375 
Q 5.609375 53.953125 15.125 64.078125 
Q 24.65625 74.21875 41.21875 74.21875 
Q 47.75 74.21875 53.53125 72.484375 
Q 59.328125 70.75 64.40625 67.28125 
z
" id="DejaVuSans-67"/>
      <path d="M 19.671875 64.796875 
L 19.671875 8.109375 
L 31.59375 8.109375 
Q 46.6875 8.109375 53.6875 14.9375 
Q 60.6875 21.78125 60.6875 36.53125 
Q 60.6875 51.171875 53.6875 57.984375 
Q 46.6875 64.796875 31.59375 64.796875 
z
M 9.8125 72.90625 
L 30.078125 72.90625 
Q 51.265625 72.90625 61.171875 64.09375 
Q 71.09375 55.28125 71.09375 36.53125 
Q 71.09375 17.671875 61.125 8.828125 
Q 51.171875 0 30.078125 0 
L 9.8125 0 
z
" id="DejaVuSans-68"/>
      <path d="M 9.8125 72.90625 
L 51.703125 72.90625 
L 51.703125 64.59375 
L 19.671875 64.59375 
L 19.671875 43.109375 
L 48.578125 43.109375 
L 48.578125 34.8125 
L 19.671875 34.8125 
L 19.671875 0 
L 9.8125 0 
z
" id="DejaVuSans-70"/>
     </defs>
     <g transform="translate(29.995313 154.496562)rotate(-90)scale(0.3 -0.3)">
      <use xlink:href="#DejaVuSans-73"/>
      <use x="29.492188" xlink:href="#DejaVuSans-67"/>
      <use x="99.316406" xlink:href="#DejaVuSans-68"/>
      <use x="176.318359" xlink:href="#DejaVuSans-70"/>
     </g>
    </g>
   </g>
   <g id="line2d_38">
    <path clip-path="url(#pb1f97c83e7)" d="M 101.284375 20.583636 
L 173.546351 20.736119 
L 193.70332 20.959509 
L 193.70332 21.029711 
L 200.192414 21.213122 
L 200.192414 21.284007 
L 205.49439 21.426357 
L 205.49439 21.483515 
L 208.558312 21.641343 
L 208.558312 21.655739 
L 211.329966 21.785654 
L 211.329966 21.829103 
L 213.860288 21.989034 
L 213.860288 22.076683 
L 215.047406 22.208708 
L 215.047406 22.311857 
L 215.623274 22.43024 
L 215.623274 22.489633 
L 217.285461 22.638708 
L 217.285461 22.713564 
L 218.343045 22.848848 
L 218.343045 22.939426 
L 218.857755 23.060687 
L 218.857755 23.582403 
L 219.860626 23.722261 
L 219.860626 23.784661 
L 220.349383 23.909908 
L 220.349383 23.925606 
L 222.226186 24.083107 
L 222.226186 24.146374 
L 223.121037 24.273367 
L 223.121037 24.321149 
L 224.83214 24.481054 
L 224.83214 24.513152 
L 225.651359 24.641941 
L 225.651359 24.787589 
L 227.603794 24.934051 
L 227.603794 25.015775 
L 228.715281 25.163522 
L 228.715281 25.262486 
L 229.785844 25.411636 
L 229.785844 25.511543 
L 230.478266 25.645348 
L 230.478266 25.695702 
L 231.154584 25.830454 
L 231.154584 26.06795 
L 231.81553 26.204636 
L 231.81553 26.238919 
L 232.140453 26.359265 
L 232.140453 26.480166 
L 232.779608 26.619025 
L 232.779608 26.653856 
L 233.712748 26.811167 
L 233.712748 26.863815 
L 234.017257 26.987073 
L 234.017257 27.004729 
L 234.912108 27.164169 
L 234.912108 27.199732 
L 235.780243 27.360367 
L 235.780243 27.396198 
L 236.344927 27.540013 
L 236.344927 27.648395 
L 237.44243 27.830035 
L 237.44243 27.848268 
L 238.500014 28.031304 
L 238.500014 28.160194 
L 240.506351 28.401258 
L 240.506351 28.588213 
L 241.224421 28.738744 
L 241.224421 28.757621 
L 241.925187 28.909132 
L 241.925187 29.138054 
L 243.278005 29.349671 
L 243.278005 29.368994 
L 243.931524 29.524094 
L 243.931524 29.543546 
L 244.570679 29.699685 
L 244.570679 29.738866 
L 245.196087 29.896178 
L 245.196087 29.915908 
L 245.808327 30.07429 
L 245.808327 30.213664 
L 247.188671 30.45433 
L 247.188671 30.514844 
L 248.689926 30.778697 
L 248.689926 30.819527 
L 249.2335 30.983486 
L 249.2335 31.045236 
L 249.7671 31.210618 
L 249.7671 31.272907 
L 250.291085 31.439737 
L 250.291085 31.565561 
L 250.635235 31.691993 
L 250.635235 31.755438 
L 251.643903 31.989394 
L 251.643903 32.010767 
L 252.297422 32.203911 
L 252.297422 32.247026 
L 252.7781 32.420199 
L 252.7781 32.441926 
L 253.406889 32.638288 
L 253.406889 32.726034 
L 254.174225 32.946695 
L 254.174225 32.968864 
L 254.625093 33.146892 
L 254.625093 33.191589 
L 254.773842 33.326139 
L 254.773842 33.393674 
L 255.361344 33.574623 
L 255.361344 33.665569 
L 255.937211 33.802582 
L 255.937211 33.848413 
L 256.361749 34.009456 
L 256.361749 34.032543 
L 256.64137 34.171494 
L 256.64137 34.217976 
L 256.780179 34.334542 
L 256.780179 34.428169 
L 257.464454 34.640063 
L 257.464454 34.663713 
L 257.599398 34.782284 
L 257.599398 34.806063 
L 258.264882 34.973122 
L 258.264882 34.997075 
L 258.656982 35.16536 
L 258.656982 35.213641 
L 259.425671 35.456389 
L 259.425671 35.480788 
L 260.174563 35.726036 
L 260.174563 35.750687 
L 260.66332 35.899086 
L 260.66332 36.098268 
L 261.499363 36.374641 
L 261.499363 36.39991 
L 261.966527 36.552044 
L 261.966527 36.65396 
L 262.426305 36.858989 
L 262.426305 36.884731 
L 262.540123 37.013821 
L 262.540123 37.117553 
L 262.99099 37.326258 
L 262.99099 37.378695 
L 263.324612 37.563056 
L 263.434974 37.642467 
L 264.303109 37.802014 
L 264.409826 37.855414 
L 265.042032 38.124055 
L 265.146077 38.259416 
L 265.762645 38.532255 
L 265.864147 38.587166 
L 266.366411 38.835698 
L 266.465831 38.891249 
L 267.152414 39.198904 
L 267.249188 39.368251 
L 267.633092 39.510215 
L 268.011995 39.738971 
L 268.663422 40.027753 
L 268.755303 40.173347 
L 269.210404 40.407994 
L 269.300576 40.496532 
L 269.390469 40.615049 
L 269.390469 40.67451 
L 269.658493 40.823754 
L 269.747288 40.883691 
L 270.187241 41.034135 
L 270.274438 41.155116 
L 270.448053 41.276659 
L 270.534473 41.368187 
L 271.468521 41.799599 
L 271.551966 41.861814 
L 271.635171 41.986688 
L 271.71814 42.049349 
L 272.535057 42.460342 
L 272.615501 42.588109 
L 273.251162 42.942718 
L 273.329652 43.007712 
L 273.873226 43.203665 
L 273.873226 43.236467 
L 274.026685 43.368087 
L 274.255365 43.566765 
L 274.255365 43.666673 
L 274.7074 43.867638 
L 274.782061 44.070157 
L 275.078802 44.240127 
L 275.152517 44.308425 
L 275.372546 44.445558 
L 275.518312 44.61799 
L 275.590922 44.756757 
L 277.281298 45.677122 
L 277.349642 45.78543 
L 278.355983 46.444852 
L 278.355983 46.593672 
L 278.943485 46.85616 
L 279.008036 46.931642 
L 279.200835 47.007342 
L 279.708802 47.159403 
L 279.708802 47.197556 
L 280.208048 47.427651 
L 280.269855 47.504801 
L 281.06162 47.854815 
L 281.121642 47.972533 
L 282.239124 48.811718 
L 282.239124 49.01555 
L 284.245461 49.594867 
L 284.884616 50.23012 
L 284.884616 50.359041 
L 285.303045 50.488599 
L 287.017115 51.820699 
L 287.212286 51.957712 
L 287.837694 52.373105 
L 287.932728 52.559861 
L 288.635753 52.984993 
L 288.728218 53.176179 
L 289.457544 53.856537 
L 289.770962 54.054216 
L 290.906375 54.80909 
L 291.162216 55.117238 
L 291.79214 55.376827 
L 291.875108 55.903853 
L 292.204634 56.225236 
L 292.611359 56.714826 
L 293.210975 56.880078 
L 293.250513 56.990827 
L 293.914567 57.325915 
L 294.183653 57.551712 
L 294.336306 57.665345 
L 294.488162 57.836724 
L 294.752017 58.066987 
L 295.235771 58.299293 
L 295.346272 58.474885 
L 295.747891 58.948967 
L 296.251148 59.249686 
L 296.357865 59.492772 
L 296.675686 59.676578 
L 296.675686 59.738135 
L 297.094116 59.985818 
L 297.163273 60.17313 
L 297.50661 60.424981 
L 297.574794 60.615471 
L 297.913335 60.807357 
L 297.946974 60.936067 
L 298.31445 61.130324 
L 298.347628 61.195399 
L 298.742837 61.457324 
L 299.068124 61.788457 
L 299.325759 62.191424 
L 299.549332 62.463555 
L 299.86577 63.016447 
L 299.991387 63.156513 
L 300.053993 63.509991 
L 300.241006 63.724391 
L 300.303077 64.158527 
L 300.886238 64.748802 
L 300.977257 64.898472 
L 301.398283 65.049003 
L 301.428124 65.124595 
L 301.783852 65.276435 
L 301.872108 65.737308 
L 301.872108 65.814915 
L 302.882445 66.44419 
L 303.472217 66.6039 
L 303.776436 66.845306 
L 304.429343 67.334896 
L 304.456232 67.417391 
L 304.670453 67.583166 
L 304.83009 68.002252 
L 305.6412 68.171782 
L 305.744231 68.51417 
L 305.974724 68.773931 
L 305.974724 68.861093 
L 306.80457 69.301311 
L 307.198552 69.47949 
L 307.271833 69.569037 
L 307.635494 69.749054 
L 308.065967 70.389037 
L 308.208054 70.574799 
L 308.39643 70.855936 
L 308.653469 71.045051 
L 309.456528 71.717918 
L 310.039051 72.308747 
L 310.193911 72.71017 
L 312.320615 74.815102 
L 312.361603 74.924924 
L 313.209251 75.257177 
L 313.604371 75.820475 
L 313.858349 76.04923 
L 314.187163 76.280001 
L 314.720762 76.512823 
L 314.815026 76.747733 
L 315.263287 77.104097 
L 315.539982 77.709027 
L 315.686483 77.954966 
L 315.686483 78.203236 
L 316.318886 78.58011 
L 316.42593 78.834407 
L 316.70947 79.091196 
L 318.070304 79.612454 
L 319.176531 80.687161 
L 319.578755 81.241516 
L 320.366889 81.523157 
L 320.413505 81.665121 
L 320.660867 81.807859 
L 320.676257 82.095689 
L 320.890874 82.240799 
L 320.890874 82.386718 
L 321.570176 83.128759 
L 321.629797 83.431564 
L 322.321344 84.204255 
L 322.696952 85.162617 
L 322.939945 85.655277 
L 323.279573 85.821578 
L 323.475873 86.326912 
L 323.489844 86.6693 
L 324.015824 86.842187 
L 324.653488 87.545379 
L 324.814079 87.904183 
L 325.000322 88.085446 
L 325.798169 88.451778 
L 326.003866 89.20018 
L 326.297031 89.390671 
L 326.335052 89.582557 
L 326.524419 89.775859 
L 327.048179 89.970598 
L 327.294312 90.563657 
L 327.343289 90.966624 
L 327.416601 91.375887 
L 328.199187 91.582942 
L 328.693883 92.214113 
L 329.647423 92.427929 
L 329.726431 92.860869 
L 329.962173 93.301087 
L 330.51589 94.20436 
L 330.864815 94.43513 
L 331.433669 94.667952 
L 331.454918 94.902863 
L 331.634918 95.3791 
L 332.333672 95.620505 
L 332.364571 95.864156 
L 333.435754 97.117616 
L 333.751526 97.375671 
L 333.849506 97.636293 
L 334.924901 97.899535 
L 335.065954 98.165449 
L 335.779448 98.43409 
L 336.025545 98.705516 
L 336.025545 98.979783 
L 336.565085 99.256953 
L 336.600701 99.537088 
L 336.831147 99.820251 
L 336.884068 100.106508 
L 337.425358 100.688584 
L 337.425358 100.984545 
L 337.726533 101.283889 
L 337.820547 101.586694 
L 338.361593 102.203012 
L 339.260504 102.516696 
L 339.815505 103.810407 
L 340.360112 104.144071 
L 341.078373 105.522933 
L 341.689819 105.879296 
L 342.9256 107.737687 
L 343.380212 108.125728 
L 344.028405 108.519605 
L 344.621972 109.325586 
L 344.736554 110.157158 
L 345.434437 110.583058 
L 345.55241 111.456216 
L 346.819477 111.903959 
L 347.044037 112.359489 
L 347.093705 112.823082 
L 347.543045 113.295028 
L 347.671032 113.775635 
L 348.486535 114.265225 
L 348.657509 114.764141 
L 350.252998 115.272746 
L 353.824952 115.791423 
L 355.241678 116.320578 
L 356.291226 116.860645 
L 356.507437 117.412083 
L 357.560694 117.97538 
L 357.625543 118.551059 
L 358.232385 119.139675 
L 358.422081 120.358142 
L 358.723045 121.636069 
L 359.360572 123.678062 
L 360.50926 124.395705 
L 361.925116 125.133565 
L 362.010663 125.892816 
L 362.75499 126.674734 
L 364.005608 127.480715 
L 364.288581 128.312287 
L 364.415367 129.171129 
L 366.803731 130.059089 
L 367.773218 132.919271 
L 369.266521 133.946552 
L 369.831094 135.015775 
L 369.870802 136.13051 
L 370.158478 137.294804 
L 371.7662 138.513271 
L 372.742774 139.791199 
L 373.183644 141.134689 
L 373.96469 142.550835 
L 374.406958 144.047946 
L 374.612354 145.635845 
L 374.706111 147.326258 
L 375.372855 149.133341 
L 376.585765 151.074401 
L 377.345237 153.170905 
L 379.204637 155.449934 
L 379.487012 157.946328 
L 381.054697 160.705964 
L 385.740163 163.790975 
L 386.338338 167.288471 
L 387.278641 171.326034 
L 391.25024 176.101458 
L 391.257033 181.946104 
L 393.251957 189.481164 
L 403.773485 200.101234 
L 432.119695 218.256364 
L 432.119695 218.256364 
" style="fill:none;stroke:#ff0000;stroke-linecap:square;stroke-width:4;"/>
   </g>
   <g id="patch_3">
    <path d="M 101.284375 228.14 
L 101.284375 10.7 
" style="fill:none;stroke:#000000;stroke-linecap:square;stroke-linejoin:miter;stroke-width:0.8;"/>
   </g>
   <g id="patch_4">
    <path d="M 436.084375 228.14 
L 436.084375 10.7 
" style="fill:none;stroke:#000000;stroke-linecap:square;stroke-linejoin:miter;stroke-width:0.8;"/>
   </g>
   <g id="patch_5">
    <path d="M 101.284375 228.14 
L 436.084375 228.14 
" style="fill:none;stroke:#000000;stroke-linecap:square;stroke-linejoin:miter;stroke-width:0.8;"/>
   </g>
   <g id="patch_6">
    <path d="M 101.284375 10.7 
L 436.084375 10.7 
" style="fill:none;stroke:#000000;stroke-linecap:square;stroke-linejoin:miter;stroke-width:0.8;"/>
   </g>
  </g>
 </g>
 <defs>
  <clipPath id="pb1f97c83e7">
   <rect height="217.44" width="334.8" x="101.284375" y="10.7"/>
  </clipPath>
 </defs>
</svg>
