<?xml version="1.0" encoding="utf-8" standalone="no"?>
<!DOCTYPE svg PUBLIC "-//W3C//DTD SVG 1.1//EN"
  "http://www.w3.org/Graphics/SVG/1.1/DTD/svg11.dtd">
<!-- Created with matplotlib (https://matplotlib.org/) -->
<svg height="297.634062pt" version="1.1" viewBox="0 0 446.784375 297.634062" width="446.784375pt" xmlns="http://www.w3.org/2000/svg" xmlns:xlink="http://www.w3.org/1999/xlink">
 <defs>
  <style type="text/css">
*{stroke-linecap:butt;stroke-linejoin:round;}
  </style>
 </defs>
 <g id="figure_1">
  <g id="patch_1">
   <path d="M 0 297.634062 
L 446.784375 297.634062 
L 446.784375 0 
L 0 0 
z
" style="fill:#ffffff;"/>
  </g>
  <g id="axes_1">
   <g id="patch_2">
    <path d="M 101.284375 228.14 
L 436.084375 228.14 
L 436.084375 10.7 
L 101.284375 10.7 
z
" style="fill:#ffffff;"/>
   </g>
   <g id="matplotlib.axis_1">
    <g id="xtick_1">
     <g id="line2d_1">
      <defs>
       <path d="M 0 0 
L 0 3.5 
" id="m4637638b17" style="stroke:#000000;stroke-width:0.8;"/>
      </defs>
      <g>
       <use style="stroke:#000000;stroke-width:0.8;" x="101.284375" xlink:href="#m4637638b17" y="228.14"/>
      </g>
     </g>
     <g id="text_1">
      <!-- $\mathdefault{10^{0}}$ -->
      <defs>
       <path d="M 12.40625 8.296875 
L 28.515625 8.296875 
L 28.515625 63.921875 
L 10.984375 60.40625 
L 10.984375 69.390625 
L 28.421875 72.90625 
L 38.28125 72.90625 
L 38.28125 8.296875 
L 54.390625 8.296875 
L 54.390625 0 
L 12.40625 0 
z
" id="DejaVuSans-49"/>
       <path d="M 31.78125 66.40625 
Q 24.171875 66.40625 20.328125 58.90625 
Q 16.5 51.421875 16.5 36.375 
Q 16.5 21.390625 20.328125 13.890625 
Q 24.171875 6.390625 31.78125 6.390625 
Q 39.453125 6.390625 43.28125 13.890625 
Q 47.125 21.390625 47.125 36.375 
Q 47.125 51.421875 43.28125 58.90625 
Q 39.453125 66.40625 31.78125 66.40625 
z
M 31.78125 74.21875 
Q 44.046875 74.21875 50.515625 64.515625 
Q 56.984375 54.828125 56.984375 36.375 
Q 56.984375 17.96875 50.515625 8.265625 
Q 44.046875 -1.421875 31.78125 -1.421875 
Q 19.53125 -1.421875 13.0625 8.265625 
Q 6.59375 17.96875 6.59375 36.375 
Q 6.59375 54.828125 13.0625 64.515625 
Q 19.53125 74.21875 31.78125 74.21875 
z
" id="DejaVuSans-48"/>
      </defs>
      <g transform="translate(81.044375 252.616406)scale(0.23 -0.23)">
       <use transform="translate(0 0.765625)" xlink:href="#DejaVuSans-49"/>
       <use transform="translate(63.623047 0.765625)" xlink:href="#DejaVuSans-48"/>
       <use transform="translate(128.203125 39.046875)scale(0.7)" xlink:href="#DejaVuSans-48"/>
      </g>
     </g>
    </g>
    <g id="xtick_2">
     <g id="line2d_2">
      <g>
       <use style="stroke:#000000;stroke-width:0.8;" x="235.204375" xlink:href="#m4637638b17" y="228.14"/>
      </g>
     </g>
     <g id="text_2">
      <!-- $\mathdefault{10^{2}}$ -->
      <defs>
       <path d="M 19.1875 8.296875 
L 53.609375 8.296875 
L 53.609375 0 
L 7.328125 0 
L 7.328125 8.296875 
Q 12.9375 14.109375 22.625 23.890625 
Q 32.328125 33.6875 34.8125 36.53125 
Q 39.546875 41.84375 41.421875 45.53125 
Q 43.3125 49.21875 43.3125 52.78125 
Q 43.3125 58.59375 39.234375 62.25 
Q 35.15625 65.921875 28.609375 65.921875 
Q 23.96875 65.921875 18.8125 64.3125 
Q 13.671875 62.703125 7.8125 59.421875 
L 7.8125 69.390625 
Q 13.765625 71.78125 18.9375 73 
Q 24.125 74.21875 28.421875 74.21875 
Q 39.75 74.21875 46.484375 68.546875 
Q 53.21875 62.890625 53.21875 53.421875 
Q 53.21875 48.921875 51.53125 44.890625 
Q 49.859375 40.875 45.40625 35.40625 
Q 44.1875 33.984375 37.640625 27.21875 
Q 31.109375 20.453125 19.1875 8.296875 
z
" id="DejaVuSans-50"/>
      </defs>
      <g transform="translate(214.964375 252.616406)scale(0.23 -0.23)">
       <use transform="translate(0 0.765625)" xlink:href="#DejaVuSans-49"/>
       <use transform="translate(63.623047 0.765625)" xlink:href="#DejaVuSans-48"/>
       <use transform="translate(128.203125 39.046875)scale(0.7)" xlink:href="#DejaVuSans-50"/>
      </g>
     </g>
    </g>
    <g id="xtick_3">
     <g id="line2d_3">
      <g>
       <use style="stroke:#000000;stroke-width:0.8;" x="369.124375" xlink:href="#m4637638b17" y="228.14"/>
      </g>
     </g>
     <g id="text_3">
      <!-- $\mathdefault{10^{4}}$ -->
      <defs>
       <path d="M 37.796875 64.3125 
L 12.890625 25.390625 
L 37.796875 25.390625 
z
M 35.203125 72.90625 
L 47.609375 72.90625 
L 47.609375 25.390625 
L 58.015625 25.390625 
L 58.015625 17.1875 
L 47.609375 17.1875 
L 47.609375 0 
L 37.796875 0 
L 37.796875 17.1875 
L 4.890625 17.1875 
L 4.890625 26.703125 
z
" id="DejaVuSans-52"/>
      </defs>
      <g transform="translate(348.884375 252.616406)scale(0.23 -0.23)">
       <use transform="translate(0 0.684375)" xlink:href="#DejaVuSans-49"/>
       <use transform="translate(63.623047 0.684375)" xlink:href="#DejaVuSans-48"/>
       <use transform="translate(128.203125 38.965625)scale(0.7)" xlink:href="#DejaVuSans-52"/>
      </g>
     </g>
    </g>
    <g id="text_4">
     <!-- #pixels -->
     <defs>
      <path d="M 51.125 44 
L 36.921875 44 
L 32.8125 27.6875 
L 47.125 27.6875 
z
M 43.796875 71.78125 
L 38.71875 51.515625 
L 52.984375 51.515625 
L 58.109375 71.78125 
L 65.921875 71.78125 
L 60.890625 51.515625 
L 76.125 51.515625 
L 76.125 44 
L 58.984375 44 
L 54.984375 27.6875 
L 70.515625 27.6875 
L 70.515625 20.21875 
L 53.078125 20.21875 
L 48 0 
L 40.1875 0 
L 45.21875 20.21875 
L 30.90625 20.21875 
L 25.875 0 
L 18.015625 0 
L 23.09375 20.21875 
L 7.71875 20.21875 
L 7.71875 27.6875 
L 24.90625 27.6875 
L 29 44 
L 13.28125 44 
L 13.28125 51.515625 
L 30.90625 51.515625 
L 35.890625 71.78125 
z
" id="DejaVuSans-35"/>
      <path d="M 18.109375 8.203125 
L 18.109375 -20.796875 
L 9.078125 -20.796875 
L 9.078125 54.6875 
L 18.109375 54.6875 
L 18.109375 46.390625 
Q 20.953125 51.265625 25.265625 53.625 
Q 29.59375 56 35.59375 56 
Q 45.5625 56 51.78125 48.09375 
Q 58.015625 40.1875 58.015625 27.296875 
Q 58.015625 14.40625 51.78125 6.484375 
Q 45.5625 -1.421875 35.59375 -1.421875 
Q 29.59375 -1.421875 25.265625 0.953125 
Q 20.953125 3.328125 18.109375 8.203125 
z
M 48.6875 27.296875 
Q 48.6875 37.203125 44.609375 42.84375 
Q 40.53125 48.484375 33.40625 48.484375 
Q 26.265625 48.484375 22.1875 42.84375 
Q 18.109375 37.203125 18.109375 27.296875 
Q 18.109375 17.390625 22.1875 11.75 
Q 26.265625 6.109375 33.40625 6.109375 
Q 40.53125 6.109375 44.609375 11.75 
Q 48.6875 17.390625 48.6875 27.296875 
z
" id="DejaVuSans-112"/>
      <path d="M 9.421875 54.6875 
L 18.40625 54.6875 
L 18.40625 0 
L 9.421875 0 
z
M 9.421875 75.984375 
L 18.40625 75.984375 
L 18.40625 64.59375 
L 9.421875 64.59375 
z
" id="DejaVuSans-105"/>
      <path d="M 54.890625 54.6875 
L 35.109375 28.078125 
L 55.90625 0 
L 45.3125 0 
L 29.390625 21.484375 
L 13.484375 0 
L 2.875 0 
L 24.125 28.609375 
L 4.6875 54.6875 
L 15.28125 54.6875 
L 29.78125 35.203125 
L 44.28125 54.6875 
z
" id="DejaVuSans-120"/>
      <path d="M 56.203125 29.59375 
L 56.203125 25.203125 
L 14.890625 25.203125 
Q 15.484375 15.921875 20.484375 11.0625 
Q 25.484375 6.203125 34.421875 6.203125 
Q 39.59375 6.203125 44.453125 7.46875 
Q 49.3125 8.734375 54.109375 11.28125 
L 54.109375 2.78125 
Q 49.265625 0.734375 44.1875 -0.34375 
Q 39.109375 -1.421875 33.890625 -1.421875 
Q 20.796875 -1.421875 13.15625 6.1875 
Q 5.515625 13.8125 5.515625 26.8125 
Q 5.515625 40.234375 12.765625 48.109375 
Q 20.015625 56 32.328125 56 
Q 43.359375 56 49.78125 48.890625 
Q 56.203125 41.796875 56.203125 29.59375 
z
M 47.21875 32.234375 
Q 47.125 39.59375 43.09375 43.984375 
Q 39.0625 48.390625 32.421875 48.390625 
Q 24.90625 48.390625 20.390625 44.140625 
Q 15.875 39.890625 15.1875 32.171875 
z
" id="DejaVuSans-101"/>
      <path d="M 9.421875 75.984375 
L 18.40625 75.984375 
L 18.40625 0 
L 9.421875 0 
z
" id="DejaVuSans-108"/>
      <path d="M 44.28125 53.078125 
L 44.28125 44.578125 
Q 40.484375 46.53125 36.375 47.5 
Q 32.28125 48.484375 27.875 48.484375 
Q 21.1875 48.484375 17.84375 46.4375 
Q 14.5 44.390625 14.5 40.28125 
Q 14.5 37.15625 16.890625 35.375 
Q 19.28125 33.59375 26.515625 31.984375 
L 29.59375 31.296875 
Q 39.15625 29.25 43.1875 25.515625 
Q 47.21875 21.78125 47.21875 15.09375 
Q 47.21875 7.46875 41.1875 3.015625 
Q 35.15625 -1.421875 24.609375 -1.421875 
Q 20.21875 -1.421875 15.453125 -0.5625 
Q 10.6875 0.296875 5.421875 2 
L 5.421875 11.28125 
Q 10.40625 8.6875 15.234375 7.390625 
Q 20.0625 6.109375 24.8125 6.109375 
Q 31.15625 6.109375 34.5625 8.28125 
Q 37.984375 10.453125 37.984375 14.40625 
Q 37.984375 18.0625 35.515625 20.015625 
Q 33.0625 21.96875 24.703125 23.78125 
L 21.578125 24.515625 
Q 13.234375 26.265625 9.515625 29.90625 
Q 5.8125 33.546875 5.8125 39.890625 
Q 5.8125 47.609375 11.28125 51.796875 
Q 16.75 56 26.8125 56 
Q 31.78125 56 36.171875 55.265625 
Q 40.578125 54.546875 44.28125 53.078125 
z
" id="DejaVuSans-115"/>
     </defs>
     <g transform="translate(212.342969 284.195)scale(0.3 -0.3)">
      <use xlink:href="#DejaVuSans-35"/>
      <use x="83.789062" xlink:href="#DejaVuSans-112"/>
      <use x="147.265625" xlink:href="#DejaVuSans-105"/>
      <use x="175.048828" xlink:href="#DejaVuSans-120"/>
      <use x="234.181641" xlink:href="#DejaVuSans-101"/>
      <use x="295.705078" xlink:href="#DejaVuSans-108"/>
      <use x="323.488281" xlink:href="#DejaVuSans-115"/>
     </g>
    </g>
   </g>
   <g id="matplotlib.axis_2">
    <g id="ytick_1">
     <g id="line2d_4">
      <defs>
       <path d="M 0 0 
L -3.5 0 
" id="ma7cd66bee7" style="stroke:#000000;stroke-width:0.8;"/>
      </defs>
      <g>
       <use style="stroke:#000000;stroke-width:0.8;" x="101.284375" xlink:href="#ma7cd66bee7" y="209.093663"/>
      </g>
     </g>
     <g id="text_5">
      <!-- $\mathdefault{10^{-3}}$ -->
      <defs>
       <path d="M 10.59375 35.5 
L 73.1875 35.5 
L 73.1875 27.203125 
L 10.59375 27.203125 
z
" id="DejaVuSans-8722"/>
       <path d="M 40.578125 39.3125 
Q 47.65625 37.796875 51.625 33 
Q 55.609375 28.21875 55.609375 21.1875 
Q 55.609375 10.40625 48.1875 4.484375 
Q 40.765625 -1.421875 27.09375 -1.421875 
Q 22.515625 -1.421875 17.65625 -0.515625 
Q 12.796875 0.390625 7.625 2.203125 
L 7.625 11.71875 
Q 11.71875 9.328125 16.59375 8.109375 
Q 21.484375 6.890625 26.8125 6.890625 
Q 36.078125 6.890625 40.9375 10.546875 
Q 45.796875 14.203125 45.796875 21.1875 
Q 45.796875 27.640625 41.28125 31.265625 
Q 36.765625 34.90625 28.71875 34.90625 
L 20.21875 34.90625 
L 20.21875 43.015625 
L 29.109375 43.015625 
Q 36.375 43.015625 40.234375 45.921875 
Q 44.09375 48.828125 44.09375 54.296875 
Q 44.09375 59.90625 40.109375 62.90625 
Q 36.140625 65.921875 28.71875 65.921875 
Q 24.65625 65.921875 20.015625 65.03125 
Q 15.375 64.15625 9.8125 62.3125 
L 9.8125 71.09375 
Q 15.4375 72.65625 20.34375 73.4375 
Q 25.25 74.21875 29.59375 74.21875 
Q 40.828125 74.21875 47.359375 69.109375 
Q 53.90625 64.015625 53.90625 55.328125 
Q 53.90625 49.265625 50.4375 45.09375 
Q 46.96875 40.921875 40.578125 39.3125 
z
" id="DejaVuSans-51"/>
      </defs>
      <g transform="translate(40.234375 217.831866)scale(0.23 -0.23)">
       <use transform="translate(0 0.765625)" xlink:href="#DejaVuSans-49"/>
       <use transform="translate(63.623047 0.765625)" xlink:href="#DejaVuSans-48"/>
       <use transform="translate(128.203125 39.046875)scale(0.7)" xlink:href="#DejaVuSans-8722"/>
       <use transform="translate(186.855469 39.046875)scale(0.7)" xlink:href="#DejaVuSans-51"/>
      </g>
     </g>
    </g>
    <g id="ytick_2">
     <g id="line2d_5">
      <g>
       <use style="stroke:#000000;stroke-width:0.8;" x="101.284375" xlink:href="#ma7cd66bee7" y="146.256988"/>
      </g>
     </g>
     <g id="text_6">
      <!-- $\mathdefault{10^{-2}}$ -->
      <g transform="translate(40.234375 154.995191)scale(0.23 -0.23)">
       <use transform="translate(0 0.765625)" xlink:href="#DejaVuSans-49"/>
       <use transform="translate(63.623047 0.765625)" xlink:href="#DejaVuSans-48"/>
       <use transform="translate(128.203125 39.046875)scale(0.7)" xlink:href="#DejaVuSans-8722"/>
       <use transform="translate(186.855469 39.046875)scale(0.7)" xlink:href="#DejaVuSans-50"/>
      </g>
     </g>
    </g>
    <g id="ytick_3">
     <g id="line2d_6">
      <g>
       <use style="stroke:#000000;stroke-width:0.8;" x="101.284375" xlink:href="#ma7cd66bee7" y="83.420312"/>
      </g>
     </g>
     <g id="text_7">
      <!-- $\mathdefault{10^{-1}}$ -->
      <g transform="translate(40.234375 92.158515)scale(0.23 -0.23)">
       <use transform="translate(0 0.684375)" xlink:href="#DejaVuSans-49"/>
       <use transform="translate(63.623047 0.684375)" xlink:href="#DejaVuSans-48"/>
       <use transform="translate(128.203125 38.965625)scale(0.7)" xlink:href="#DejaVuSans-8722"/>
       <use transform="translate(186.855469 38.965625)scale(0.7)" xlink:href="#DejaVuSans-49"/>
      </g>
     </g>
    </g>
    <g id="ytick_4">
     <g id="line2d_7">
      <g>
       <use style="stroke:#000000;stroke-width:0.8;" x="101.284375" xlink:href="#ma7cd66bee7" y="20.583636"/>
      </g>
     </g>
     <g id="text_8">
      <!-- $\mathdefault{10^{0}}$ -->
      <g transform="translate(53.804375 29.321839)scale(0.23 -0.23)">
       <use transform="translate(0 0.765625)" xlink:href="#DejaVuSans-49"/>
       <use transform="translate(63.623047 0.765625)" xlink:href="#DejaVuSans-48"/>
       <use transform="translate(128.203125 39.046875)scale(0.7)" xlink:href="#DejaVuSans-48"/>
      </g>
     </g>
    </g>
    <g id="ytick_5">
     <g id="line2d_8">
      <defs>
       <path d="M 0 0 
L -2 0 
" id="m38f588fc3d" style="stroke:#000000;stroke-width:0.6;"/>
      </defs>
      <g>
       <use style="stroke:#000000;stroke-width:0.6;" x="101.284375" xlink:href="#m38f588fc3d" y="228.009387"/>
      </g>
     </g>
    </g>
    <g id="ytick_6">
     <g id="line2d_9">
      <g>
       <use style="stroke:#000000;stroke-width:0.6;" x="101.284375" xlink:href="#m38f588fc3d" y="223.033901"/>
      </g>
     </g>
    </g>
    <g id="ytick_7">
     <g id="line2d_10">
      <g>
       <use style="stroke:#000000;stroke-width:0.6;" x="101.284375" xlink:href="#m38f588fc3d" y="218.827187"/>
      </g>
     </g>
    </g>
    <g id="ytick_8">
     <g id="line2d_11">
      <g>
       <use style="stroke:#000000;stroke-width:0.6;" x="101.284375" xlink:href="#m38f588fc3d" y="215.183166"/>
      </g>
     </g>
    </g>
    <g id="ytick_9">
     <g id="line2d_12">
      <g>
       <use style="stroke:#000000;stroke-width:0.6;" x="101.284375" xlink:href="#m38f588fc3d" y="211.968912"/>
      </g>
     </g>
    </g>
    <g id="ytick_10">
     <g id="line2d_13">
      <g>
       <use style="stroke:#000000;stroke-width:0.6;" x="101.284375" xlink:href="#m38f588fc3d" y="190.177939"/>
      </g>
     </g>
    </g>
    <g id="ytick_11">
     <g id="line2d_14">
      <g>
       <use style="stroke:#000000;stroke-width:0.6;" x="101.284375" xlink:href="#m38f588fc3d" y="179.11295"/>
      </g>
     </g>
    </g>
    <g id="ytick_12">
     <g id="line2d_15">
      <g>
       <use style="stroke:#000000;stroke-width:0.6;" x="101.284375" xlink:href="#m38f588fc3d" y="171.262215"/>
      </g>
     </g>
    </g>
    <g id="ytick_13">
     <g id="line2d_16">
      <g>
       <use style="stroke:#000000;stroke-width:0.6;" x="101.284375" xlink:href="#m38f588fc3d" y="165.172712"/>
      </g>
     </g>
    </g>
    <g id="ytick_14">
     <g id="line2d_17">
      <g>
       <use style="stroke:#000000;stroke-width:0.6;" x="101.284375" xlink:href="#m38f588fc3d" y="160.197226"/>
      </g>
     </g>
    </g>
    <g id="ytick_15">
     <g id="line2d_18">
      <g>
       <use style="stroke:#000000;stroke-width:0.6;" x="101.284375" xlink:href="#m38f588fc3d" y="155.990512"/>
      </g>
     </g>
    </g>
    <g id="ytick_16">
     <g id="line2d_19">
      <g>
       <use style="stroke:#000000;stroke-width:0.6;" x="101.284375" xlink:href="#m38f588fc3d" y="152.346491"/>
      </g>
     </g>
    </g>
    <g id="ytick_17">
     <g id="line2d_20">
      <g>
       <use style="stroke:#000000;stroke-width:0.6;" x="101.284375" xlink:href="#m38f588fc3d" y="149.132236"/>
      </g>
     </g>
    </g>
    <g id="ytick_18">
     <g id="line2d_21">
      <g>
       <use style="stroke:#000000;stroke-width:0.6;" x="101.284375" xlink:href="#m38f588fc3d" y="127.341263"/>
      </g>
     </g>
    </g>
    <g id="ytick_19">
     <g id="line2d_22">
      <g>
       <use style="stroke:#000000;stroke-width:0.6;" x="101.284375" xlink:href="#m38f588fc3d" y="116.276274"/>
      </g>
     </g>
    </g>
    <g id="ytick_20">
     <g id="line2d_23">
      <g>
       <use style="stroke:#000000;stroke-width:0.6;" x="101.284375" xlink:href="#m38f588fc3d" y="108.425539"/>
      </g>
     </g>
    </g>
    <g id="ytick_21">
     <g id="line2d_24">
      <g>
       <use style="stroke:#000000;stroke-width:0.6;" x="101.284375" xlink:href="#m38f588fc3d" y="102.336036"/>
      </g>
     </g>
    </g>
    <g id="ytick_22">
     <g id="line2d_25">
      <g>
       <use style="stroke:#000000;stroke-width:0.6;" x="101.284375" xlink:href="#m38f588fc3d" y="97.36055"/>
      </g>
     </g>
    </g>
    <g id="ytick_23">
     <g id="line2d_26">
      <g>
       <use style="stroke:#000000;stroke-width:0.6;" x="101.284375" xlink:href="#m38f588fc3d" y="93.153836"/>
      </g>
     </g>
    </g>
    <g id="ytick_24">
     <g id="line2d_27">
      <g>
       <use style="stroke:#000000;stroke-width:0.6;" x="101.284375" xlink:href="#m38f588fc3d" y="89.509815"/>
      </g>
     </g>
    </g>
    <g id="ytick_25">
     <g id="line2d_28">
      <g>
       <use style="stroke:#000000;stroke-width:0.6;" x="101.284375" xlink:href="#m38f588fc3d" y="86.295561"/>
      </g>
     </g>
    </g>
    <g id="ytick_26">
     <g id="line2d_29">
      <g>
       <use style="stroke:#000000;stroke-width:0.6;" x="101.284375" xlink:href="#m38f588fc3d" y="64.504588"/>
      </g>
     </g>
    </g>
    <g id="ytick_27">
     <g id="line2d_30">
      <g>
       <use style="stroke:#000000;stroke-width:0.6;" x="101.284375" xlink:href="#m38f588fc3d" y="53.439598"/>
      </g>
     </g>
    </g>
    <g id="ytick_28">
     <g id="line2d_31">
      <g>
       <use style="stroke:#000000;stroke-width:0.6;" x="101.284375" xlink:href="#m38f588fc3d" y="45.588864"/>
      </g>
     </g>
    </g>
    <g id="ytick_29">
     <g id="line2d_32">
      <g>
       <use style="stroke:#000000;stroke-width:0.6;" x="101.284375" xlink:href="#m38f588fc3d" y="39.499361"/>
      </g>
     </g>
    </g>
    <g id="ytick_30">
     <g id="line2d_33">
      <g>
       <use style="stroke:#000000;stroke-width:0.6;" x="101.284375" xlink:href="#m38f588fc3d" y="34.523874"/>
      </g>
     </g>
    </g>
    <g id="ytick_31">
     <g id="line2d_34">
      <g>
       <use style="stroke:#000000;stroke-width:0.6;" x="101.284375" xlink:href="#m38f588fc3d" y="30.317161"/>
      </g>
     </g>
    </g>
    <g id="ytick_32">
     <g id="line2d_35">
      <g>
       <use style="stroke:#000000;stroke-width:0.6;" x="101.284375" xlink:href="#m38f588fc3d" y="26.673139"/>
      </g>
     </g>
    </g>
    <g id="ytick_33">
     <g id="line2d_36">
      <g>
       <use style="stroke:#000000;stroke-width:0.6;" x="101.284375" xlink:href="#m38f588fc3d" y="23.458885"/>
      </g>
     </g>
    </g>
    <g id="text_9">
     <!-- ICDF -->
     <defs>
      <path d="M 9.8125 72.90625 
L 19.671875 72.90625 
L 19.671875 0 
L 9.8125 0 
z
" id="DejaVuSans-73"/>
      <path d="M 64.40625 67.28125 
L 64.40625 56.890625 
Q 59.421875 61.53125 53.78125 63.8125 
Q 48.140625 66.109375 41.796875 66.109375 
Q 29.296875 66.109375 22.65625 58.46875 
Q 16.015625 50.828125 16.015625 36.375 
Q 16.015625 21.96875 22.65625 14.328125 
Q 29.296875 6.6875 41.796875 6.6875 
Q 48.140625 6.6875 53.78125 8.984375 
Q 59.421875 11.28125 64.40625 15.921875 
L 64.40625 5.609375 
Q 59.234375 2.09375 53.4375 0.328125 
Q 47.65625 -1.421875 41.21875 -1.421875 
Q 24.65625 -1.421875 15.125 8.703125 
Q 5.609375 18.84375 5.609375 36.375 
Q 5.609375 53.953125 15.125 64.078125 
Q 24.65625 74.21875 41.21875 74.21875 
Q 47.75 74.21875 53.53125 72.484375 
Q 59.328125 70.75 64.40625 67.28125 
z
" id="DejaVuSans-67"/>
      <path d="M 19.671875 64.796875 
L 19.671875 8.109375 
L 31.59375 8.109375 
Q 46.6875 8.109375 53.6875 14.9375 
Q 60.6875 21.78125 60.6875 36.53125 
Q 60.6875 51.171875 53.6875 57.984375 
Q 46.6875 64.796875 31.59375 64.796875 
z
M 9.8125 72.90625 
L 30.078125 72.90625 
Q 51.265625 72.90625 61.171875 64.09375 
Q 71.09375 55.28125 71.09375 36.53125 
Q 71.09375 17.671875 61.125 8.828125 
Q 51.171875 0 30.078125 0 
L 9.8125 0 
z
" id="DejaVuSans-68"/>
      <path d="M 9.8125 72.90625 
L 51.703125 72.90625 
L 51.703125 64.59375 
L 19.671875 64.59375 
L 19.671875 43.109375 
L 48.578125 43.109375 
L 48.578125 34.8125 
L 19.671875 34.8125 
L 19.671875 0 
L 9.8125 0 
z
" id="DejaVuSans-70"/>
     </defs>
     <g transform="translate(29.995313 154.496562)rotate(-90)scale(0.3 -0.3)">
      <use xlink:href="#DejaVuSans-73"/>
      <use x="29.492188" xlink:href="#DejaVuSans-67"/>
      <use x="99.316406" xlink:href="#DejaVuSans-68"/>
      <use x="176.318359" xlink:href="#DejaVuSans-70"/>
     </g>
    </g>
   </g>
   <g id="line2d_37">
    <path clip-path="url(#p0053ab3576)" d="M -1 20.583636 
L 193.70332 20.681344 
L 204.675171 20.897539 
L 207.066685 21.095578 
L 208.558312 21.175198 
L 211.329966 21.315093 
L 215.047406 21.516197 
L 216.187959 21.657856 
L 217.819061 21.841077 
L 219.860626 22.128555 
L 220.349383 22.190554 
L 221.302923 22.544564 
L 222.226186 22.712759 
L 223.121037 22.945733 
L 223.989172 23.13784 
L 224.41371 23.352889 
L 224.83214 23.417736 
L 225.244634 24.074821 
L 226.838477 24.431845 
L 227.97903 24.544379 
L 229.076532 24.770851 
L 230.818391 25.160218 
L 232.140453 25.252647 
L 232.779608 25.508453 
L 234.017257 25.696011 
L 235.780243 26.459407 
L 236.063956 26.775741 
L 236.62321 26.849265 
L 237.171913 27.071033 
L 237.976029 27.244774 
L 238.239202 27.444699 
L 238.500014 27.469793 
L 239.014724 27.772733 
L 239.7701 28.130468 
L 240.506351 28.28523 
L 241.459891 28.597412 
L 241.925187 28.623589 
L 242.155072 28.833914 
L 242.834022 28.913206 
L 244.780646 29.501829 
L 246.009576 29.910568 
L 246.605099 30.186502 
L 247.188671 30.381329 
L 247.380622 30.409275 
L 247.948986 30.690324 
L 248.135998 30.718589 
L 248.506454 30.917266 
L 249.053436 31.002858 
L 249.942813 31.376892 
L 250.805795 31.844391 
L 251.808665 32.081179 
L 253.250962 32.743143 
L 254.174225 33.018643 
L 254.475579 33.141987 
L 254.773842 33.17291 
L 255.361344 33.641011 
L 256.079414 33.862236 
L 256.501896 34.14933 
L 256.64137 34.181417 
L 256.918328 34.471906 
L 259.551833 35.699732 
L 259.802527 36.006935 
L 260.784236 36.70225 
L 262.540123 37.816267 
L 262.766431 37.926528 
L 263.102623 38.000284 
L 263.434974 38.222755 
L 264.303109 38.522232 
L 264.622092 38.901261 
L 265.042032 38.977702 
L 265.455995 39.402002 
L 265.660787 39.518874 
L 266.166545 40.190774 
L 267.055318 40.634518 
L 267.34564 40.879636 
L 267.53759 40.961833 
L 267.823161 41.168417 
L 268.105954 41.293123 
L 270.877608 42.616256 
L 270.962763 42.703863 
L 271.132328 43.012723 
L 272.45439 43.64113 
L 272.615501 44.006825 
L 273.563857 44.658827 
L 274.331194 45.42356 
L 274.482261 45.472075 
L 274.7074 45.618139 
L 275.226045 45.715951 
L 275.879563 46.210342 
L 276.165368 46.561823 
L 276.658864 46.663084 
L 276.937147 46.969139 
L 277.144126 47.226833 
L 279.264818 48.716695 
L 279.834419 48.826292 
L 280.084037 49.046815 
L 280.454493 49.269135 
L 280.576937 49.269135 
L 280.759641 49.549607 
L 280.941205 49.606048 
L 281.06162 49.719284 
L 281.18154 49.947173 
L 281.300966 50.004444 
L 281.479192 50.119348 
L 281.656331 50.176982 
L 281.949188 50.234738 
L 283.091981 51.235764 
L 283.536814 51.235764 
L 283.811418 51.598021 
L 284.083453 51.780969 
L 284.191559 51.780969 
L 284.406572 52.026823 
L 284.460077 52.026823 
L 284.620006 52.212678 
L 284.989789 52.274912 
L 285.25107 52.651326 
L 285.510024 52.841499 
L 286.122264 52.905185 
L 286.573132 53.355201 
L 286.771295 53.420099 
L 286.919036 53.485152 
L 287.066031 53.55036 
L 287.260875 53.681246 
L 287.406156 53.746925 
L 287.598742 53.878759 
L 287.837694 53.944916 
L 288.12187 54.211158 
L 288.262923 54.278126 
L 288.58941 54.615456 
L 288.682022 54.683425 
L 288.958104 55.233361 
L 289.049551 55.302888 
L 289.815461 56.295348 
L 289.904256 56.367638 
L 290.169026 56.879105 
L 290.387841 56.952961 
L 290.561715 57.175734 
L 290.605022 57.175734 
L 290.820592 57.551113 
L 291.119732 57.551113 
L 291.289297 57.778844 
L 291.37371 57.855179 
L 291.583678 58.008492 
L 291.708934 58.085473 
L 292.122602 58.630504 
L 292.65172 58.709262 
L 292.852691 58.867464 
L 292.97261 58.867464 
L 293.131737 59.186644 
L 293.210975 59.186644 
L 293.329429 59.347645 
L 293.798477 59.428503 
L 293.991703 59.836428 
L 294.526003 60.75592 
L 294.601536 60.841067 
L 294.752017 61.012162 
L 294.93903 61.184337 
L 295.050663 61.270834 
L 295.198843 61.357605 
L 295.272651 61.444654 
L 295.492958 61.707477 
L 295.675281 61.79565 
L 295.856467 61.972856 
L 296.108247 62.061893 
L 296.286764 62.240842 
L 296.570131 62.330758 
L 297.059476 63.339901 
L 297.128715 63.433519 
L 297.2667 63.527459 
L 297.472458 63.527459 
L 297.608826 63.716316 
L 297.812186 63.811236 
L 298.114584 64.387799 
L 298.181359 64.485088 
L 298.380768 64.779055 
L 298.41387 64.779055 
L 298.545904 65.076222 
L 298.742837 65.176002 
L 298.905935 65.578808 
L 299.100453 65.680445 
L 299.293679 65.987649 
L 299.421787 66.090823 
L 299.549332 66.194389 
L 299.897225 66.29835 
L 300.022707 66.507467 
L 300.14765 66.612629 
L 300.303077 67.037379 
L 300.395936 67.144607 
L 300.58077 67.468844 
L 300.916609 67.577785 
L 301.098173 68.129109 
L 301.218589 68.129109 
L 301.338508 68.240724 
L 301.398283 68.240724 
L 301.547184 68.465331 
L 301.695327 68.465331 
L 302.04782 69.382715 
L 302.568676 69.382715 
L 302.711718 69.499588 
L 302.740243 69.499588 
L 302.910802 70.211531 
L 302.939132 70.211531 
L 303.080368 70.332015 
L 303.192864 70.332015 
L 303.332876 70.453034 
L 303.444402 70.453034 
L 303.610893 70.696693 
L 303.666179 70.696693 
L 303.913673 71.315532 
L 303.968386 71.315532 
L 304.104722 71.567051 
L 304.186218 71.567051 
L 304.321538 71.693685 
L 304.40243 71.693685 
L 304.643762 72.335823 
L 304.723763 72.335823 
L 304.883108 72.59697 
L 305.041584 72.59697 
L 305.277691 73.260984 
L 305.563687 73.260984 
L 305.692761 73.395747 
L 305.898096 73.395747 
L 306.076582 73.804079 
L 306.228702 73.804079 
L 306.354865 73.941558 
L 306.380032 73.941558 
L 306.555593 74.358202 
L 306.680348 74.358202 
L 306.80457 74.498508 
L 306.854111 74.498508 
L 307.002228 74.781305 
L 307.125086 74.781305 
L 307.247427 74.92381 
L 307.271833 74.92381 
L 307.466351 75.50139 
L 307.490575 75.50139 
L 307.635494 75.794829 
L 307.68364 75.794829 
L 307.803658 75.942741 
L 308.255263 75.942741 
L 308.372949 76.091458 
L 308.792721 76.091458 
L 308.931309 76.391347 
L 309.023336 76.391347 
L 309.137961 76.542537 
L 309.388557 76.542537 
L 309.637012 77.467697 
L 309.861053 77.467697 
L 310.061225 78.102368 
L 310.697006 78.102368 
L 310.869975 78.58825 
L 310.934574 78.58825 
L 311.063344 78.752152 
L 311.29795 78.752152 
L 311.425124 78.917044 
L 311.656841 78.917044 
L 311.782458 79.249849 
L 311.949108 79.249849 
L 312.094148 79.586762 
L 312.27957 79.586762 
L 312.402532 79.756791 
L 312.484218 79.756791 
L 312.606319 80.100061 
L 312.687436 80.100061 
L 312.808689 80.273329 
L 313.149517 80.273329 
L 313.268862 80.447705 
L 313.545444 80.447705 
L 313.741404 81.336696 
L 313.955446 81.336696 
L 314.071535 81.518023 
L 314.187163 81.518023 
L 314.321484 81.884332 
L 314.550314 81.884332 
L 314.664057 82.069347 
L 315.42962 82.069347 
L 315.595006 82.63204 
L 315.741231 82.63204 
L 315.886724 83.013719 
L 315.941096 83.013719 
L 316.067572 83.206579 
L 316.103607 83.206579 
L 316.247303 83.596438 
L 316.265215 83.596438 
L 316.42593 84.191871 
L 316.532582 84.191871 
L 316.656516 84.393272 
L 316.815089 84.393272 
L 316.95532 84.800587 
L 317.112276 84.800587 
L 317.23377 85.006547 
L 317.320241 85.006547 
L 317.440871 85.214074 
L 317.646508 85.214074 
L 317.782796 85.633923 
L 317.918448 85.633923 
L 318.036626 85.846294 
L 318.05347 85.846294 
L 318.187868 86.276061 
L 318.304959 86.276061 
L 318.421581 86.493509 
L 319.079163 86.493509 
L 319.192727 86.712704 
L 319.289716 86.712704 
L 319.434594 87.381055 
L 319.466692 87.381055 
L 319.594729 87.835892 
L 319.722205 87.835892 
L 319.86495 88.29844 
L 320.257828 88.29844 
L 320.382436 88.532687 
L 320.630061 88.532687 
L 320.753088 88.768962 
L 321.149367 88.768962 
L 321.270221 89.007301 
L 321.405584 89.007301 
L 321.540319 89.490315 
L 321.719001 89.490315 
L 321.852295 89.982034 
L 321.970269 89.982034 
L 322.102419 90.482775 
L 322.248552 90.482775 
L 322.379446 90.992876 
L 322.553061 90.992876 
L 322.682595 91.512694 
L 322.939945 91.512694 
L 323.067771 92.042606 
L 323.138543 92.042606 
L 323.251422 92.311472 
L 323.447912 92.311472 
L 323.559598 92.583012 
L 323.615281 92.583012 
L 323.754023 93.697029 
L 323.988377 93.697029 
L 324.111686 93.982787 
L 324.179966 93.982787 
L 324.316046 94.563439 
L 324.32962 94.563439 
L 324.451493 94.858465 
L 324.492005 94.858465 
L 324.640065 95.763176 
L 324.867413 95.763176 
L 325.000322 96.383422 
L 325.185379 96.383422 
L 325.303726 96.698912 
L 325.447721 96.698912 
L 325.565007 97.018092 
L 325.642935 97.018092 
L 325.759438 97.34105 
L 326.003866 97.34105 
L 326.131692 97.998663 
L 326.23355 97.998663 
L 326.347715 98.33351 
L 326.750044 98.33351 
L 326.874639 99.015786 
L 327.208402 99.015786 
L 327.331052 99.363429 
L 327.440997 99.363429 
L 327.599076 100.800056 
L 327.984571 100.800056 
L 328.103998 101.17135 
L 328.163528 101.17135 
L 328.294066 101.929443 
L 328.329566 101.929443 
L 328.447587 102.316537 
L 329.363488 102.316537 
L 329.488761 103.107596 
L 329.5682 103.107596 
L 329.68131 103.511894 
L 330.339845 103.511894 
L 330.460991 103.922272 
L 330.788845 103.922272 
L 330.908138 104.338915 
L 330.983798 104.338915 
L 331.102295 104.762019 
L 331.263109 104.762019 
L 331.391122 105.628428 
L 331.729762 105.628428 
L 331.845265 106.072172 
L 332.002032 106.072172 
L 332.116461 106.52325 
L 332.137218 106.52325 
L 332.261449 107.448411 
L 332.579944 107.448411 
L 332.692125 107.923025 
L 333.096446 107.923025 
L 333.22665 108.897758 
L 333.236641 108.897758 
L 333.356272 109.398499 
L 333.790758 109.398499 
L 333.917896 110.428418 
L 334.887171 110.428418 
L 335.000214 110.95833 
L 335.3646 110.95833 
L 335.475806 111.498737 
L 335.595801 111.498737 
L 335.715303 112.050061 
L 336.609598 112.050061 
L 336.725014 112.612753 
L 336.928096 112.612753 
L 337.042258 113.187293 
L 337.068539 113.187293 
L 337.182151 113.774189 
L 337.243144 113.774189 
L 337.356077 114.373985 
L 337.459936 114.373985 
L 337.572032 114.987261 
L 337.666547 114.987261 
L 337.777851 115.614636 
L 337.837608 115.614636 
L 337.965247 116.914388 
L 337.973737 116.914388 
L 338.092328 117.58824 
L 338.478617 117.58824 
L 338.595171 118.279153 
L 339.341599 118.279153 
L 339.454752 118.988014 
L 340.313158 118.988014 
L 340.445998 121.232261 
L 340.469378 121.232261 
L 340.593753 122.837996 
L 341.32147 122.837996 
L 341.434726 123.677743 
L 341.570054 123.677743 
L 341.682348 124.544153 
L 342.164006 124.544153 
L 342.281354 125.438975 
L 342.420093 125.438975 
L 342.536415 126.364135 
L 342.868271 126.364135 
L 342.982817 127.321764 
L 343.660777 127.321764 
L 343.77225 128.314223 
L 343.890223 128.314223 
L 344.007719 129.344142 
L 345.55241 129.344142 
L 345.669906 130.414461 
L 345.825834 130.414461 
L 345.948686 132.689913 
L 346.224818 132.689913 
L 346.339634 133.902985 
L 346.542639 133.902985 
L 346.65621 135.172499 
L 347.137095 135.172499 
L 347.248372 136.503964 
L 347.762107 136.503964 
L 347.877062 137.903738 
L 348.58099 137.903738 
L 348.692758 139.379212 
L 349.451898 139.379212 
L 349.566073 140.939044 
L 350.612464 140.939044 
L 350.727655 142.593467 
L 354.462608 142.593467 
L 354.577931 144.354699 
L 355.600383 144.354699 
L 355.715901 146.237488 
L 357.282369 146.237488 
L 357.39576 148.259867 
L 358.299974 148.259867 
L 358.417879 152.818709 
L 358.589668 152.818709 
L 358.714727 161.509191 
L 359.275012 161.509191 
L 359.389036 165.153212 
L 359.534986 165.153212 
L 359.652026 174.335412 
L 360.680826 174.335412 
L 360.793353 180.424915 
L 362.350356 180.424915 
L 362.46393 188.27565 
L 362.657083 188.27565 
L 362.769467 199.340639 
L 363.922264 199.340639 
L 364.036801 218.256364 
L 364.758673 218.256364 
L 364.758673 218.256364 
" style="fill:none;stroke:#ff0000;stroke-linecap:square;stroke-width:4;"/>
   </g>
   <g id="patch_3">
    <path d="M 101.284375 228.14 
L 101.284375 10.7 
" style="fill:none;stroke:#000000;stroke-linecap:square;stroke-linejoin:miter;stroke-width:0.8;"/>
   </g>
   <g id="patch_4">
    <path d="M 436.084375 228.14 
L 436.084375 10.7 
" style="fill:none;stroke:#000000;stroke-linecap:square;stroke-linejoin:miter;stroke-width:0.8;"/>
   </g>
   <g id="patch_5">
    <path d="M 101.284375 228.14 
L 436.084375 228.14 
" style="fill:none;stroke:#000000;stroke-linecap:square;stroke-linejoin:miter;stroke-width:0.8;"/>
   </g>
   <g id="patch_6">
    <path d="M 101.284375 10.7 
L 436.084375 10.7 
" style="fill:none;stroke:#000000;stroke-linecap:square;stroke-linejoin:miter;stroke-width:0.8;"/>
   </g>
  </g>
 </g>
 <defs>
  <clipPath id="p0053ab3576">
   <rect height="217.44" width="334.8" x="101.284375" y="10.7"/>
  </clipPath>
 </defs>
</svg>
