<?xml version="1.0" encoding="utf-8" standalone="no"?>
<!DOCTYPE svg PUBLIC "-//W3C//DTD SVG 1.1//EN"
  "http://www.w3.org/Graphics/SVG/1.1/DTD/svg11.dtd">
<!-- Created with matplotlib (https://matplotlib.org/) -->
<svg height="302.872266pt" version="1.1" viewBox="0 0 469.712812 302.872266" width="469.712812pt" xmlns="http://www.w3.org/2000/svg" xmlns:xlink="http://www.w3.org/1999/xlink">
 <defs>
  <style type="text/css">
*{stroke-linecap:butt;stroke-linejoin:round;}
  </style>
 </defs>
 <g id="figure_1">
  <g id="patch_1">
   <path d="M 0 302.872266 
L 469.712812 302.872266 
L 469.712812 0 
L 0 0 
z
" style="fill:#ffffff;"/>
  </g>
  <g id="axes_1">
   <g id="patch_2">
    <path d="M 98.445312 233.378203 
L 433.245313 233.378203 
L 433.245313 15.938203 
L 98.445312 15.938203 
z
" style="fill:#ffffff;"/>
   </g>
   <g id="matplotlib.axis_1">
    <g id="xtick_1">
     <g id="line2d_1">
      <defs>
       <path d="M 0 0 
L 0 3.5 
" id="ma46c32aa59" style="stroke:#000000;stroke-width:0.8;"/>
      </defs>
      <g>
       <use style="stroke:#000000;stroke-width:0.8;" x="113.581399" xlink:href="#ma46c32aa59" y="233.378203"/>
      </g>
     </g>
     <g id="text_1">
      <!-- 0 -->
      <defs>
       <path d="M 31.78125 66.40625 
Q 24.171875 66.40625 20.328125 58.90625 
Q 16.5 51.421875 16.5 36.375 
Q 16.5 21.390625 20.328125 13.890625 
Q 24.171875 6.390625 31.78125 6.390625 
Q 39.453125 6.390625 43.28125 13.890625 
Q 47.125 21.390625 47.125 36.375 
Q 47.125 51.421875 43.28125 58.90625 
Q 39.453125 66.40625 31.78125 66.40625 
z
M 31.78125 74.21875 
Q 44.046875 74.21875 50.515625 64.515625 
Q 56.984375 54.828125 56.984375 36.375 
Q 56.984375 17.96875 50.515625 8.265625 
Q 44.046875 -1.421875 31.78125 -1.421875 
Q 19.53125 -1.421875 13.0625 8.265625 
Q 6.59375 17.96875 6.59375 36.375 
Q 6.59375 54.828125 13.0625 64.515625 
Q 19.53125 74.21875 31.78125 74.21875 
z
" id="DejaVuSans-48"/>
      </defs>
      <g transform="translate(106.264524 257.854609)scale(0.23 -0.23)">
       <use xlink:href="#DejaVuSans-48"/>
      </g>
     </g>
    </g>
    <g id="xtick_2">
     <g id="line2d_2">
      <g>
       <use style="stroke:#000000;stroke-width:0.8;" x="177.514182" xlink:href="#ma46c32aa59" y="233.378203"/>
      </g>
     </g>
     <g id="text_2">
      <!-- 400 -->
      <defs>
       <path d="M 37.796875 64.3125 
L 12.890625 25.390625 
L 37.796875 25.390625 
z
M 35.203125 72.90625 
L 47.609375 72.90625 
L 47.609375 25.390625 
L 58.015625 25.390625 
L 58.015625 17.1875 
L 47.609375 17.1875 
L 47.609375 0 
L 37.796875 0 
L 37.796875 17.1875 
L 4.890625 17.1875 
L 4.890625 26.703125 
z
" id="DejaVuSans-52"/>
      </defs>
      <g transform="translate(155.563557 257.854609)scale(0.23 -0.23)">
       <use xlink:href="#DejaVuSans-52"/>
       <use x="63.623047" xlink:href="#DejaVuSans-48"/>
       <use x="127.246094" xlink:href="#DejaVuSans-48"/>
      </g>
     </g>
    </g>
    <g id="xtick_3">
     <g id="line2d_3">
      <g>
       <use style="stroke:#000000;stroke-width:0.8;" x="241.446964" xlink:href="#ma46c32aa59" y="233.378203"/>
      </g>
     </g>
     <g id="text_3">
      <!-- 800 -->
      <defs>
       <path d="M 31.78125 34.625 
Q 24.75 34.625 20.71875 30.859375 
Q 16.703125 27.09375 16.703125 20.515625 
Q 16.703125 13.921875 20.71875 10.15625 
Q 24.75 6.390625 31.78125 6.390625 
Q 38.8125 6.390625 42.859375 10.171875 
Q 46.921875 13.96875 46.921875 20.515625 
Q 46.921875 27.09375 42.890625 30.859375 
Q 38.875 34.625 31.78125 34.625 
z
M 21.921875 38.8125 
Q 15.578125 40.375 12.03125 44.71875 
Q 8.5 49.078125 8.5 55.328125 
Q 8.5 64.0625 14.71875 69.140625 
Q 20.953125 74.21875 31.78125 74.21875 
Q 42.671875 74.21875 48.875 69.140625 
Q 55.078125 64.0625 55.078125 55.328125 
Q 55.078125 49.078125 51.53125 44.71875 
Q 48 40.375 41.703125 38.8125 
Q 48.828125 37.15625 52.796875 32.3125 
Q 56.78125 27.484375 56.78125 20.515625 
Q 56.78125 9.90625 50.3125 4.234375 
Q 43.84375 -1.421875 31.78125 -1.421875 
Q 19.734375 -1.421875 13.25 4.234375 
Q 6.78125 9.90625 6.78125 20.515625 
Q 6.78125 27.484375 10.78125 32.3125 
Q 14.796875 37.15625 21.921875 38.8125 
z
M 18.3125 54.390625 
Q 18.3125 48.734375 21.84375 45.5625 
Q 25.390625 42.390625 31.78125 42.390625 
Q 38.140625 42.390625 41.71875 45.5625 
Q 45.3125 48.734375 45.3125 54.390625 
Q 45.3125 60.0625 41.71875 63.234375 
Q 38.140625 66.40625 31.78125 66.40625 
Q 25.390625 66.40625 21.84375 63.234375 
Q 18.3125 60.0625 18.3125 54.390625 
z
" id="DejaVuSans-56"/>
      </defs>
      <g transform="translate(219.496339 257.854609)scale(0.23 -0.23)">
       <use xlink:href="#DejaVuSans-56"/>
       <use x="63.623047" xlink:href="#DejaVuSans-48"/>
       <use x="127.246094" xlink:href="#DejaVuSans-48"/>
      </g>
     </g>
    </g>
    <g id="xtick_4">
     <g id="line2d_4">
      <g>
       <use style="stroke:#000000;stroke-width:0.8;" x="305.379747" xlink:href="#ma46c32aa59" y="233.378203"/>
      </g>
     </g>
     <g id="text_4">
      <!-- 1200 -->
      <defs>
       <path d="M 12.40625 8.296875 
L 28.515625 8.296875 
L 28.515625 63.921875 
L 10.984375 60.40625 
L 10.984375 69.390625 
L 28.421875 72.90625 
L 38.28125 72.90625 
L 38.28125 8.296875 
L 54.390625 8.296875 
L 54.390625 0 
L 12.40625 0 
z
" id="DejaVuSans-49"/>
       <path d="M 19.1875 8.296875 
L 53.609375 8.296875 
L 53.609375 0 
L 7.328125 0 
L 7.328125 8.296875 
Q 12.9375 14.109375 22.625 23.890625 
Q 32.328125 33.6875 34.8125 36.53125 
Q 39.546875 41.84375 41.421875 45.53125 
Q 43.3125 49.21875 43.3125 52.78125 
Q 43.3125 58.59375 39.234375 62.25 
Q 35.15625 65.921875 28.609375 65.921875 
Q 23.96875 65.921875 18.8125 64.3125 
Q 13.671875 62.703125 7.8125 59.421875 
L 7.8125 69.390625 
Q 13.765625 71.78125 18.9375 73 
Q 24.125 74.21875 28.421875 74.21875 
Q 39.75 74.21875 46.484375 68.546875 
Q 53.21875 62.890625 53.21875 53.421875 
Q 53.21875 48.921875 51.53125 44.890625 
Q 49.859375 40.875 45.40625 35.40625 
Q 44.1875 33.984375 37.640625 27.21875 
Q 31.109375 20.453125 19.1875 8.296875 
z
" id="DejaVuSans-50"/>
      </defs>
      <g transform="translate(276.112247 257.854609)scale(0.23 -0.23)">
       <use xlink:href="#DejaVuSans-49"/>
       <use x="63.623047" xlink:href="#DejaVuSans-50"/>
       <use x="127.246094" xlink:href="#DejaVuSans-48"/>
       <use x="190.869141" xlink:href="#DejaVuSans-48"/>
      </g>
     </g>
    </g>
    <g id="xtick_5">
     <g id="line2d_5">
      <g>
       <use style="stroke:#000000;stroke-width:0.8;" x="369.31253" xlink:href="#ma46c32aa59" y="233.378203"/>
      </g>
     </g>
     <g id="text_5">
      <!-- 1600 -->
      <defs>
       <path d="M 33.015625 40.375 
Q 26.375 40.375 22.484375 35.828125 
Q 18.609375 31.296875 18.609375 23.390625 
Q 18.609375 15.53125 22.484375 10.953125 
Q 26.375 6.390625 33.015625 6.390625 
Q 39.65625 6.390625 43.53125 10.953125 
Q 47.40625 15.53125 47.40625 23.390625 
Q 47.40625 31.296875 43.53125 35.828125 
Q 39.65625 40.375 33.015625 40.375 
z
M 52.59375 71.296875 
L 52.59375 62.3125 
Q 48.875 64.0625 45.09375 64.984375 
Q 41.3125 65.921875 37.59375 65.921875 
Q 27.828125 65.921875 22.671875 59.328125 
Q 17.53125 52.734375 16.796875 39.40625 
Q 19.671875 43.65625 24.015625 45.921875 
Q 28.375 48.1875 33.59375 48.1875 
Q 44.578125 48.1875 50.953125 41.515625 
Q 57.328125 34.859375 57.328125 23.390625 
Q 57.328125 12.15625 50.6875 5.359375 
Q 44.046875 -1.421875 33.015625 -1.421875 
Q 20.359375 -1.421875 13.671875 8.265625 
Q 6.984375 17.96875 6.984375 36.375 
Q 6.984375 53.65625 15.1875 63.9375 
Q 23.390625 74.21875 37.203125 74.21875 
Q 40.921875 74.21875 44.703125 73.484375 
Q 48.484375 72.75 52.59375 71.296875 
z
" id="DejaVuSans-54"/>
      </defs>
      <g transform="translate(340.04503 257.854609)scale(0.23 -0.23)">
       <use xlink:href="#DejaVuSans-49"/>
       <use x="63.623047" xlink:href="#DejaVuSans-54"/>
       <use x="127.246094" xlink:href="#DejaVuSans-48"/>
       <use x="190.869141" xlink:href="#DejaVuSans-48"/>
      </g>
     </g>
    </g>
    <g id="xtick_6">
     <g id="line2d_6">
      <g>
       <use style="stroke:#000000;stroke-width:0.8;" x="433.245313" xlink:href="#ma46c32aa59" y="233.378203"/>
      </g>
     </g>
     <g id="text_6">
      <!-- 2000 -->
      <g transform="translate(403.977813 257.854609)scale(0.23 -0.23)">
       <use xlink:href="#DejaVuSans-50"/>
       <use x="63.623047" xlink:href="#DejaVuSans-48"/>
       <use x="127.246094" xlink:href="#DejaVuSans-48"/>
       <use x="190.869141" xlink:href="#DejaVuSans-48"/>
      </g>
     </g>
    </g>
    <g id="text_7">
     <!-- rank -->
     <defs>
      <path d="M 41.109375 46.296875 
Q 39.59375 47.171875 37.8125 47.578125 
Q 36.03125 48 33.890625 48 
Q 26.265625 48 22.1875 43.046875 
Q 18.109375 38.09375 18.109375 28.8125 
L 18.109375 0 
L 9.078125 0 
L 9.078125 54.6875 
L 18.109375 54.6875 
L 18.109375 46.1875 
Q 20.953125 51.171875 25.484375 53.578125 
Q 30.03125 56 36.53125 56 
Q 37.453125 56 38.578125 55.875 
Q 39.703125 55.765625 41.0625 55.515625 
z
" id="DejaVuSans-114"/>
      <path d="M 34.28125 27.484375 
Q 23.390625 27.484375 19.1875 25 
Q 14.984375 22.515625 14.984375 16.5 
Q 14.984375 11.71875 18.140625 8.90625 
Q 21.296875 6.109375 26.703125 6.109375 
Q 34.1875 6.109375 38.703125 11.40625 
Q 43.21875 16.703125 43.21875 25.484375 
L 43.21875 27.484375 
z
M 52.203125 31.203125 
L 52.203125 0 
L 43.21875 0 
L 43.21875 8.296875 
Q 40.140625 3.328125 35.546875 0.953125 
Q 30.953125 -1.421875 24.3125 -1.421875 
Q 15.921875 -1.421875 10.953125 3.296875 
Q 6 8.015625 6 15.921875 
Q 6 25.140625 12.171875 29.828125 
Q 18.359375 34.515625 30.609375 34.515625 
L 43.21875 34.515625 
L 43.21875 35.40625 
Q 43.21875 41.609375 39.140625 45 
Q 35.0625 48.390625 27.6875 48.390625 
Q 23 48.390625 18.546875 47.265625 
Q 14.109375 46.140625 10.015625 43.890625 
L 10.015625 52.203125 
Q 14.9375 54.109375 19.578125 55.046875 
Q 24.21875 56 28.609375 56 
Q 40.484375 56 46.34375 49.84375 
Q 52.203125 43.703125 52.203125 31.203125 
z
" id="DejaVuSans-97"/>
      <path d="M 54.890625 33.015625 
L 54.890625 0 
L 45.90625 0 
L 45.90625 32.71875 
Q 45.90625 40.484375 42.875 44.328125 
Q 39.84375 48.1875 33.796875 48.1875 
Q 26.515625 48.1875 22.3125 43.546875 
Q 18.109375 38.921875 18.109375 30.90625 
L 18.109375 0 
L 9.078125 0 
L 9.078125 54.6875 
L 18.109375 54.6875 
L 18.109375 46.1875 
Q 21.34375 51.125 25.703125 53.5625 
Q 30.078125 56 35.796875 56 
Q 45.21875 56 50.046875 50.171875 
Q 54.890625 44.34375 54.890625 33.015625 
z
" id="DejaVuSans-110"/>
      <path d="M 9.078125 75.984375 
L 18.109375 75.984375 
L 18.109375 31.109375 
L 44.921875 54.6875 
L 56.390625 54.6875 
L 27.390625 29.109375 
L 57.625 0 
L 45.90625 0 
L 18.109375 26.703125 
L 18.109375 0 
L 9.078125 0 
z
" id="DejaVuSans-107"/>
     </defs>
     <g transform="translate(232.294531 289.433203)scale(0.3 -0.3)">
      <use xlink:href="#DejaVuSans-114"/>
      <use x="41.113281" xlink:href="#DejaVuSans-97"/>
      <use x="102.392578" xlink:href="#DejaVuSans-110"/>
      <use x="165.771484" xlink:href="#DejaVuSans-107"/>
     </g>
    </g>
   </g>
   <g id="matplotlib.axis_2">
    <g id="ytick_1">
     <g id="line2d_7">
      <defs>
       <path d="M 0 0 
L -3.5 0 
" id="m0af609e766" style="stroke:#000000;stroke-width:0.8;"/>
      </defs>
      <g>
       <use style="stroke:#000000;stroke-width:0.8;" x="98.445312" xlink:href="#m0af609e766" y="223.936685"/>
      </g>
     </g>
     <g id="text_8">
      <!-- 0.69 -->
      <defs>
       <path d="M 10.6875 12.40625 
L 21 12.40625 
L 21 0 
L 10.6875 0 
z
" id="DejaVuSans-46"/>
       <path d="M 10.984375 1.515625 
L 10.984375 10.5 
Q 14.703125 8.734375 18.5 7.8125 
Q 22.3125 6.890625 25.984375 6.890625 
Q 35.75 6.890625 40.890625 13.453125 
Q 46.046875 20.015625 46.78125 33.40625 
Q 43.953125 29.203125 39.59375 26.953125 
Q 35.25 24.703125 29.984375 24.703125 
Q 19.046875 24.703125 12.671875 31.3125 
Q 6.296875 37.9375 6.296875 49.421875 
Q 6.296875 60.640625 12.9375 67.421875 
Q 19.578125 74.21875 30.609375 74.21875 
Q 43.265625 74.21875 49.921875 64.515625 
Q 56.59375 54.828125 56.59375 36.375 
Q 56.59375 19.140625 48.40625 8.859375 
Q 40.234375 -1.421875 26.421875 -1.421875 
Q 22.703125 -1.421875 18.890625 -0.6875 
Q 15.09375 0.046875 10.984375 1.515625 
z
M 30.609375 32.421875 
Q 37.25 32.421875 41.125 36.953125 
Q 45.015625 41.5 45.015625 49.421875 
Q 45.015625 57.28125 41.125 61.84375 
Q 37.25 66.40625 30.609375 66.40625 
Q 23.96875 66.40625 20.09375 61.84375 
Q 16.21875 57.28125 16.21875 49.421875 
Q 16.21875 41.5 20.09375 36.953125 
Q 23.96875 32.421875 30.609375 32.421875 
z
" id="DejaVuSans-57"/>
      </defs>
      <g transform="translate(40.234375 232.674888)scale(0.23 -0.23)">
       <use xlink:href="#DejaVuSans-48"/>
       <use x="63.623047" xlink:href="#DejaVuSans-46"/>
       <use x="95.410156" xlink:href="#DejaVuSans-54"/>
       <use x="159.033203" xlink:href="#DejaVuSans-57"/>
      </g>
     </g>
    </g>
    <g id="ytick_2">
     <g id="line2d_8">
      <g>
       <use style="stroke:#000000;stroke-width:0.8;" x="98.445312" xlink:href="#m0af609e766" y="154.603858"/>
      </g>
     </g>
     <g id="text_9">
      <!-- 1.38 -->
      <defs>
       <path d="M 40.578125 39.3125 
Q 47.65625 37.796875 51.625 33 
Q 55.609375 28.21875 55.609375 21.1875 
Q 55.609375 10.40625 48.1875 4.484375 
Q 40.765625 -1.421875 27.09375 -1.421875 
Q 22.515625 -1.421875 17.65625 -0.515625 
Q 12.796875 0.390625 7.625 2.203125 
L 7.625 11.71875 
Q 11.71875 9.328125 16.59375 8.109375 
Q 21.484375 6.890625 26.8125 6.890625 
Q 36.078125 6.890625 40.9375 10.546875 
Q 45.796875 14.203125 45.796875 21.1875 
Q 45.796875 27.640625 41.28125 31.265625 
Q 36.765625 34.90625 28.71875 34.90625 
L 20.21875 34.90625 
L 20.21875 43.015625 
L 29.109375 43.015625 
Q 36.375 43.015625 40.234375 45.921875 
Q 44.09375 48.828125 44.09375 54.296875 
Q 44.09375 59.90625 40.109375 62.90625 
Q 36.140625 65.921875 28.71875 65.921875 
Q 24.65625 65.921875 20.015625 65.03125 
Q 15.375 64.15625 9.8125 62.3125 
L 9.8125 71.09375 
Q 15.4375 72.65625 20.34375 73.4375 
Q 25.25 74.21875 29.59375 74.21875 
Q 40.828125 74.21875 47.359375 69.109375 
Q 53.90625 64.015625 53.90625 55.328125 
Q 53.90625 49.265625 50.4375 45.09375 
Q 46.96875 40.921875 40.578125 39.3125 
z
" id="DejaVuSans-51"/>
      </defs>
      <g transform="translate(40.234375 163.342061)scale(0.23 -0.23)">
       <use xlink:href="#DejaVuSans-49"/>
       <use x="63.623047" xlink:href="#DejaVuSans-46"/>
       <use x="95.410156" xlink:href="#DejaVuSans-51"/>
       <use x="159.033203" xlink:href="#DejaVuSans-56"/>
      </g>
     </g>
    </g>
    <g id="ytick_3">
     <g id="line2d_9">
      <g>
       <use style="stroke:#000000;stroke-width:0.8;" x="98.445312" xlink:href="#m0af609e766" y="85.27103"/>
      </g>
     </g>
     <g id="text_10">
      <!-- 2.07 -->
      <defs>
       <path d="M 8.203125 72.90625 
L 55.078125 72.90625 
L 55.078125 68.703125 
L 28.609375 0 
L 18.3125 0 
L 43.21875 64.59375 
L 8.203125 64.59375 
z
" id="DejaVuSans-55"/>
      </defs>
      <g transform="translate(40.234375 94.009233)scale(0.23 -0.23)">
       <use xlink:href="#DejaVuSans-50"/>
       <use x="63.623047" xlink:href="#DejaVuSans-46"/>
       <use x="95.410156" xlink:href="#DejaVuSans-48"/>
       <use x="159.033203" xlink:href="#DejaVuSans-55"/>
      </g>
     </g>
    </g>
    <g id="ytick_4">
     <g id="line2d_10">
      <g>
       <use style="stroke:#000000;stroke-width:0.8;" x="98.445312" xlink:href="#m0af609e766" y="15.938203"/>
      </g>
     </g>
     <g id="text_11">
      <!-- 2.76 -->
      <g transform="translate(40.234375 24.676406)scale(0.23 -0.23)">
       <use xlink:href="#DejaVuSans-50"/>
       <use x="63.623047" xlink:href="#DejaVuSans-46"/>
       <use x="95.410156" xlink:href="#DejaVuSans-55"/>
       <use x="159.033203" xlink:href="#DejaVuSans-54"/>
      </g>
     </g>
    </g>
    <g id="text_12">
     <!-- entropy -->
     <defs>
      <path d="M 56.203125 29.59375 
L 56.203125 25.203125 
L 14.890625 25.203125 
Q 15.484375 15.921875 20.484375 11.0625 
Q 25.484375 6.203125 34.421875 6.203125 
Q 39.59375 6.203125 44.453125 7.46875 
Q 49.3125 8.734375 54.109375 11.28125 
L 54.109375 2.78125 
Q 49.265625 0.734375 44.1875 -0.34375 
Q 39.109375 -1.421875 33.890625 -1.421875 
Q 20.796875 -1.421875 13.15625 6.1875 
Q 5.515625 13.8125 5.515625 26.8125 
Q 5.515625 40.234375 12.765625 48.109375 
Q 20.015625 56 32.328125 56 
Q 43.359375 56 49.78125 48.890625 
Q 56.203125 41.796875 56.203125 29.59375 
z
M 47.21875 32.234375 
Q 47.125 39.59375 43.09375 43.984375 
Q 39.0625 48.390625 32.421875 48.390625 
Q 24.90625 48.390625 20.390625 44.140625 
Q 15.875 39.890625 15.1875 32.171875 
z
" id="DejaVuSans-101"/>
      <path d="M 18.3125 70.21875 
L 18.3125 54.6875 
L 36.8125 54.6875 
L 36.8125 47.703125 
L 18.3125 47.703125 
L 18.3125 18.015625 
Q 18.3125 11.328125 20.140625 9.421875 
Q 21.96875 7.515625 27.59375 7.515625 
L 36.8125 7.515625 
L 36.8125 0 
L 27.59375 0 
Q 17.1875 0 13.234375 3.875 
Q 9.28125 7.765625 9.28125 18.015625 
L 9.28125 47.703125 
L 2.6875 47.703125 
L 2.6875 54.6875 
L 9.28125 54.6875 
L 9.28125 70.21875 
z
" id="DejaVuSans-116"/>
      <path d="M 30.609375 48.390625 
Q 23.390625 48.390625 19.1875 42.75 
Q 14.984375 37.109375 14.984375 27.296875 
Q 14.984375 17.484375 19.15625 11.84375 
Q 23.34375 6.203125 30.609375 6.203125 
Q 37.796875 6.203125 41.984375 11.859375 
Q 46.1875 17.53125 46.1875 27.296875 
Q 46.1875 37.015625 41.984375 42.703125 
Q 37.796875 48.390625 30.609375 48.390625 
z
M 30.609375 56 
Q 42.328125 56 49.015625 48.375 
Q 55.71875 40.765625 55.71875 27.296875 
Q 55.71875 13.875 49.015625 6.21875 
Q 42.328125 -1.421875 30.609375 -1.421875 
Q 18.84375 -1.421875 12.171875 6.21875 
Q 5.515625 13.875 5.515625 27.296875 
Q 5.515625 40.765625 12.171875 48.375 
Q 18.84375 56 30.609375 56 
z
" id="DejaVuSans-111"/>
      <path d="M 18.109375 8.203125 
L 18.109375 -20.796875 
L 9.078125 -20.796875 
L 9.078125 54.6875 
L 18.109375 54.6875 
L 18.109375 46.390625 
Q 20.953125 51.265625 25.265625 53.625 
Q 29.59375 56 35.59375 56 
Q 45.5625 56 51.78125 48.09375 
Q 58.015625 40.1875 58.015625 27.296875 
Q 58.015625 14.40625 51.78125 6.484375 
Q 45.5625 -1.421875 35.59375 -1.421875 
Q 29.59375 -1.421875 25.265625 0.953125 
Q 20.953125 3.328125 18.109375 8.203125 
z
M 48.6875 27.296875 
Q 48.6875 37.203125 44.609375 42.84375 
Q 40.53125 48.484375 33.40625 48.484375 
Q 26.265625 48.484375 22.1875 42.84375 
Q 18.109375 37.203125 18.109375 27.296875 
Q 18.109375 17.390625 22.1875 11.75 
Q 26.265625 6.109375 33.40625 6.109375 
Q 40.53125 6.109375 44.609375 11.75 
Q 48.6875 17.390625 48.6875 27.296875 
z
" id="DejaVuSans-112"/>
      <path d="M 32.171875 -5.078125 
Q 28.375 -14.84375 24.75 -17.8125 
Q 21.140625 -20.796875 15.09375 -20.796875 
L 7.90625 -20.796875 
L 7.90625 -13.28125 
L 13.1875 -13.28125 
Q 16.890625 -13.28125 18.9375 -11.515625 
Q 21 -9.765625 23.484375 -3.21875 
L 25.09375 0.875 
L 2.984375 54.6875 
L 12.5 54.6875 
L 29.59375 11.921875 
L 46.6875 54.6875 
L 56.203125 54.6875 
z
" id="DejaVuSans-121"/>
     </defs>
     <g transform="translate(29.995312 183.015234)rotate(-90)scale(0.3 -0.3)">
      <use xlink:href="#DejaVuSans-101"/>
      <use x="61.523438" xlink:href="#DejaVuSans-110"/>
      <use x="124.902344" xlink:href="#DejaVuSans-116"/>
      <use x="164.111328" xlink:href="#DejaVuSans-114"/>
      <use x="205.193359" xlink:href="#DejaVuSans-111"/>
      <use x="266.375" xlink:href="#DejaVuSans-112"/>
      <use x="329.851562" xlink:href="#DejaVuSans-121"/>
     </g>
    </g>
   </g>
   <g id="line2d_11">
    <path clip-path="url(#pd69401ff33)" d="M 113.581399 29.121632 
L 113.741231 29.358324 
L 113.901063 30.004324 
L 114.220727 35.81662 
L 114.380559 35.948501 
L 115.019886 39.942578 
L 115.33955 40.117003 
L 115.819046 41.922524 
L 115.978878 41.980571 
L 116.298542 43.116854 
L 116.458374 43.217381 
L 116.93787 45.296187 
L 117.097702 45.609541 
L 117.257534 45.674335 
L 117.417366 47.277089 
L 117.577198 47.372543 
L 117.896862 47.912812 
L 118.056694 47.932641 
L 118.376358 48.236701 
L 118.536189 48.303634 
L 118.855853 48.593375 
L 119.015685 48.674932 
L 119.175517 49.135115 
L 119.814845 49.396091 
L 120.294341 49.483635 
L 120.933669 49.934702 
L 121.093501 50.649008 
L 121.732829 50.805353 
L 122.212324 51.285855 
L 122.69182 51.846571 
L 123.49098 52.047628 
L 125.0893 53.25608 
L 125.249132 53.634227 
L 125.888459 53.828275 
L 127.167115 54.829503 
L 127.326947 54.832511 
L 127.646611 54.97243 
L 127.806443 55.04291 
L 128.126107 55.285564 
L 129.085099 55.767476 
L 129.244931 56.026224 
L 129.404763 56.032019 
L 129.724426 56.179226 
L 130.04409 56.325011 
L 130.203922 56.530557 
L 130.683418 56.581717 
L 131.003082 56.850172 
L 131.322746 57.141749 
L 132.601402 57.494158 
L 133.080898 57.702304 
L 134.679217 58.555117 
L 135.318545 58.687678 
L 135.478377 58.876192 
L 135.957873 58.929752 
L 136.916865 59.63892 
L 137.076696 59.696432 
L 137.39636 59.995014 
L 138.355352 60.419114 
L 138.675016 60.755607 
L 138.834848 60.761281 
L 139.154512 61.031173 
L 139.79384 61.176725 
L 140.273336 61.418152 
L 140.433168 61.432571 
L 140.593 61.622438 
L 141.072495 61.723104 
L 141.551991 61.857221 
L 142.031487 61.866335 
L 142.191319 62.105277 
L 142.351151 62.127465 
L 142.670815 62.36935 
L 143.310143 62.484084 
L 143.789639 62.573683 
L 143.949471 63.021684 
L 144.109303 63.04632 
L 144.269135 63.258685 
L 146.027286 63.566704 
L 146.506782 63.780478 
L 146.826446 63.840952 
L 147.14611 64.012074 
L 147.625606 64.12985 
L 148.584597 64.331783 
L 148.904261 64.551458 
L 150.662413 64.792622 
L 151.141909 64.9825 
L 151.781236 65.553281 
L 152.580396 65.667004 
L 152.90006 65.790803 
L 153.219724 65.9636 
L 155.29754 66.311337 
L 155.617203 66.430576 
L 157.055691 66.589977 
L 157.375355 66.734659 
L 159.772834 67.013957 
L 160.412162 67.178382 
L 160.731826 67.516377 
L 161.05149 67.761948 
L 161.690818 67.868635 
L 161.85065 67.992388 
L 162.170314 68.335737 
L 163.129305 68.614894 
L 163.448969 68.624562 
L 163.768633 68.805162 
L 164.567793 68.879156 
L 165.047289 69.179544 
L 166.006281 69.441245 
L 166.166113 69.606523 
L 166.645608 69.695156 
L 166.965272 69.768488 
L 167.924264 70.005493 
L 168.40376 70.10939 
L 169.043088 70.280403 
L 169.842248 70.428751 
L 170.481575 70.526857 
L 171.120903 70.907091 
L 172.079895 71.099267 
L 172.559391 71.235699 
L 172.879055 71.316844 
L 173.038887 71.498244 
L 173.518383 71.606441 
L 173.838047 71.703344 
L 174.637206 71.836903 
L 175.436366 72.123539 
L 176.395358 72.278935 
L 177.833845 72.570061 
L 179.112501 72.949688 
L 179.751829 73.125572 
L 180.391157 73.384424 
L 180.870653 73.56627 
L 181.50998 73.614106 
L 182.30914 74.182239 
L 182.468972 74.235886 
L 182.628804 74.504376 
L 184.386956 74.839534 
L 184.866452 75.295785 
L 186.784435 75.583385 
L 187.263931 75.640409 
L 187.583595 75.850415 
L 188.222923 75.942663 
L 188.702419 76.112821 
L 190.46057 76.363688 
L 193.017881 76.971066 
L 193.337545 76.987618 
L 193.497377 77.376872 
L 193.817041 77.400783 
L 194.296537 77.598488 
L 195.575193 77.894758 
L 196.214521 78.017595 
L 197.01368 78.264146 
L 197.653008 78.441128 
L 198.612 78.763966 
L 200.529983 79.148821 
L 203.886454 79.901189 
L 204.525782 80.006583 
L 204.845446 80.135343 
L 205.484774 80.322175 
L 206.443766 80.535047 
L 207.242926 80.661448 
L 208.042085 80.782775 
L 208.361749 80.821405 
L 208.521581 81.005514 
L 209.640405 81.16214 
L 211.238724 81.48752 
L 211.878052 81.599269 
L 212.357548 81.752053 
L 212.996876 82.115824 
L 213.636204 82.254623 
L 214.595196 82.536226 
L 218.431163 83.179432 
L 218.750826 83.365694 
L 220.349146 83.843424 
L 221.308138 83.981548 
L 221.787634 84.12986 
L 223.705617 84.506092 
L 227.22192 85.573324 
L 228.500576 85.7361 
L 229.299736 85.96372 
L 230.098895 86.092386 
L 232.336543 86.548171 
L 232.656207 86.717031 
L 235.37335 87.163981 
L 235.852846 87.27124 
L 237.451165 87.488961 
L 237.770829 87.665741 
L 241.606796 88.337941 
L 242.246124 88.42053 
L 242.405956 88.484696 
L 242.565788 88.697516 
L 243.205116 88.824296 
L 245.442763 89.306801 
L 246.082091 89.446044 
L 246.721419 89.536421 
L 248.000075 89.902215 
L 249.918058 90.397962 
L 254.073689 91.154648 
L 254.393353 91.30989 
L 257.270328 91.91657 
L 257.589992 92.035379 
L 258.389152 92.174778 
L 258.708816 92.261464 
L 267.659405 93.803588 
L 267.819237 94.008528 
L 268.138901 94.07673 
L 268.458565 94.192657 
L 268.778229 94.267658 
L 269.097893 94.400078 
L 270.696212 94.834388 
L 271.495372 94.987063 
L 271.974868 95.056521 
L 272.454364 95.247534 
L 275.970667 95.988162 
L 276.130499 95.99284 
L 276.450163 96.142747 
L 277.249323 96.271919 
L 277.728818 96.433821 
L 280.445962 97.27259 
L 280.765626 97.373227 
L 281.245122 97.500893 
L 282.204113 97.60201 
L 282.523777 97.695211 
L 287.478568 99.020291 
L 288.117896 99.14606 
L 288.597392 99.282368 
L 289.396551 99.442785 
L 289.876047 99.528725 
L 290.835039 99.624713 
L 291.154703 99.760358 
L 292.113695 99.883118 
L 292.753022 99.961331 
L 292.912854 100.133186 
L 293.39235 100.194735 
L 293.712014 100.463817 
L 295.150502 100.606014 
L 296.269325 100.945034 
L 297.228317 101.150993 
L 297.867645 101.320224 
L 301.064284 102.070657 
L 301.863444 102.455902 
L 302.982268 102.719676 
L 303.461764 102.804179 
L 304.101091 102.935346 
L 307.137899 103.664987 
L 307.457562 103.833039 
L 308.416554 103.928165 
L 309.055882 104.031145 
L 309.855042 104.096656 
L 310.654202 104.275324 
L 314.650001 104.976361 
L 315.768824 105.36356 
L 316.727816 105.487754 
L 317.04748 105.560306 
L 317.367144 105.76116 
L 319.444959 106.325289 
L 320.244119 106.472861 
L 321.362943 106.719161 
L 321.522775 106.721893 
L 321.842439 106.927159 
L 322.162102 106.987918 
L 322.481766 107.165492 
L 323.121094 107.231491 
L 324.080086 107.668019 
L 324.239918 107.687734 
L 324.879246 108.164421 
L 329.034877 108.858943 
L 329.354541 109.006548 
L 330.1537 109.107958 
L 330.95286 109.275714 
L 331.75202 109.384874 
L 332.071684 109.485605 
L 333.350339 109.611494 
L 334.628995 109.873801 
L 335.587987 110.198599 
L 337.346138 110.572536 
L 338.624794 111.038059 
L 339.743618 111.444977 
L 340.223114 111.564618 
L 340.542778 111.644409 
L 340.702609 111.90881 
L 342.940257 112.411567 
L 343.579585 112.64373 
L 344.218913 112.726683 
L 344.378744 112.949069 
L 344.698408 113.067058 
L 347.735216 114.052254 
L 348.214711 114.140998 
L 349.173703 114.629393 
L 350.612191 115.152223 
L 351.411351 115.304395 
L 351.731015 115.329505 
L 352.370342 115.699234 
L 352.690006 115.80977 
L 353.329334 116.118863 
L 353.489166 116.120037 
L 353.648998 116.404758 
L 354.60799 116.728005 
L 355.566981 117.508939 
L 356.525973 117.879082 
L 357.325133 118.003449 
L 357.644797 118.044479 
L 357.804629 118.453217 
L 358.124293 118.514487 
L 358.603789 118.946974 
L 358.763621 118.957375 
L 359.243116 119.349369 
L 359.402948 119.384038 
L 359.722612 119.675086 
L 360.841436 120.21262 
L 361.320932 120.594197 
L 365.636395 121.958021 
L 366.275723 122.020374 
L 367.71421 122.676939 
L 368.033874 122.936236 
L 368.353538 123.091073 
L 370.11169 123.762767 
L 370.431353 124.03636 
L 371.070681 124.460627 
L 371.390345 124.632841 
L 372.029673 124.815733 
L 372.189505 125.080651 
L 373.787825 125.550252 
L 373.947657 125.876454 
L 374.427152 125.923232 
L 374.746816 126.193543 
L 374.906648 126.213089 
L 375.226312 126.435743 
L 377.144296 127.469199 
L 377.46396 127.969195 
L 377.943455 128.021933 
L 378.263119 128.173968 
L 378.422951 128.187434 
L 378.902447 128.571273 
L 379.701607 128.836666 
L 380.021271 129.364541 
L 380.500767 129.641138 
L 380.820431 129.652707 
L 381.140095 129.837183 
L 381.459758 129.949587 
L 381.61959 130.215047 
L 381.779422 130.235602 
L 382.099086 130.523454 
L 382.41875 130.696405 
L 382.738414 130.6991 
L 382.898246 131.09704 
L 383.058078 131.132629 
L 383.377742 131.457347 
L 383.697406 131.493035 
L 384.01707 131.718397 
L 384.176902 131.772095 
L 384.496566 132.066108 
L 385.295725 132.456911 
L 385.455557 132.908867 
L 385.775221 133.008341 
L 386.094885 133.108446 
L 386.894045 133.236967 
L 387.053877 133.336908 
L 388.012869 134.947672 
L 389.131692 135.242225 
L 389.291524 135.442698 
L 389.451356 135.451297 
L 389.611188 136.019281 
L 390.889844 136.478545 
L 391.049676 136.769603 
L 391.36934 136.831642 
L 391.529172 137.121777 
L 391.689004 137.678745 
L 391.848836 137.772246 
L 392.1685 138.104985 
L 392.488164 138.292799 
L 393.287323 138.449724 
L 393.606987 138.811721 
L 393.766819 138.818654 
L 393.926651 139.335607 
L 394.725811 139.764566 
L 394.885643 140.035737 
L 395.045475 140.049456 
L 395.365139 140.786383 
L 395.524971 140.904745 
L 395.684803 141.266102 
L 396.164299 141.362454 
L 396.483962 141.487952 
L 396.803626 141.879976 
L 396.963458 141.947219 
L 397.283122 142.417903 
L 397.442954 142.419245 
L 397.602786 142.812202 
L 397.762618 142.849103 
L 398.082282 143.49345 
L 398.72161 143.772376 
L 399.041274 144.526166 
L 399.840434 145.100193 
L 400.160097 145.566049 
L 400.319929 145.616786 
L 400.639593 146.164896 
L 401.119089 146.32685 
L 401.278921 146.553936 
L 401.438753 146.560546 
L 401.758417 146.967097 
L 402.397745 147.544179 
L 403.037073 148.628284 
L 403.356737 148.736015 
L 403.6764 148.788208 
L 403.836232 149.497951 
L 404.47556 149.920573 
L 404.635392 150.541679 
L 404.795224 150.61257 
L 404.955056 150.821182 
L 405.114888 150.835032 
L 405.434552 151.376757 
L 405.594384 151.382145 
L 406.07388 151.816104 
L 406.393544 152.712395 
L 406.553376 152.821413 
L 406.713208 153.253191 
L 406.87304 154.44603 
L 407.192704 154.700115 
L 407.672199 155.040565 
L 407.832031 155.324566 
L 408.151695 155.399767 
L 408.631191 156.682616 
L 408.791023 156.972956 
L 408.950855 157.017648 
L 409.110687 157.974845 
L 409.270519 158.210682 
L 409.430351 159.122385 
L 409.590183 161.069561 
L 409.750015 161.136871 
L 409.909847 161.840472 
L 410.069679 162.01125 
L 410.389343 162.967646 
L 410.549175 163.873642 
L 410.709007 163.88444 
L 410.868839 164.043312 
L 411.02867 165.045794 
L 411.188502 168.046416 
L 411.348334 168.302436 
L 411.987662 170.329001 
L 412.147494 170.397311 
L 412.307326 171.516333 
L 412.467158 171.730374 
L 412.786822 175.105231 
L 413.42615 176.910278 
L 413.585982 178.198508 
L 413.745814 180.406194 
L 413.905646 180.406194 
L 414.22531 182.846998 
L 414.385142 182.878358 
L 414.864637 185.094645 
L 415.024469 189.131342 
L 415.184301 189.480559 
L 415.344133 190.95237 
L 415.503965 191.034951 
L 415.663797 191.707925 
L 415.983461 196.58225 
L 416.143293 217.454331 
L 416.303125 223.6517 
L 416.303125 223.6517 
" style="fill:none;stroke:#0000ff;stroke-linecap:square;stroke-width:4;"/>
   </g>
   <g id="patch_3">
    <path d="M 98.445312 233.378203 
L 98.445312 15.938203 
" style="fill:none;stroke:#000000;stroke-linecap:square;stroke-linejoin:miter;stroke-width:0.8;"/>
   </g>
   <g id="patch_4">
    <path d="M 433.245313 233.378203 
L 433.245313 15.938203 
" style="fill:none;stroke:#000000;stroke-linecap:square;stroke-linejoin:miter;stroke-width:0.8;"/>
   </g>
   <g id="patch_5">
    <path d="M 98.445312 233.378203 
L 433.245313 233.378203 
" style="fill:none;stroke:#000000;stroke-linecap:square;stroke-linejoin:miter;stroke-width:0.8;"/>
   </g>
   <g id="patch_6">
    <path d="M 98.445312 15.938203 
L 433.245313 15.938203 
" style="fill:none;stroke:#000000;stroke-linecap:square;stroke-linejoin:miter;stroke-width:0.8;"/>
   </g>
  </g>
 </g>
 <defs>
  <clipPath id="pd69401ff33">
   <rect height="217.44" width="334.8" x="98.445312" y="15.938203"/>
  </clipPath>
 </defs>
</svg>
