<?xml version="1.0" encoding="utf-8" standalone="no"?>
<!DOCTYPE svg PUBLIC "-//W3C//DTD SVG 1.1//EN"
  "http://www.w3.org/Graphics/SVG/1.1/DTD/svg11.dtd">
<!-- Created with matplotlib (https://matplotlib.org/) -->
<svg height="302.872266pt" version="1.1" viewBox="0 0 469.712813 302.872266" width="469.712813pt" xmlns="http://www.w3.org/2000/svg" xmlns:xlink="http://www.w3.org/1999/xlink">
 <defs>
  <style type="text/css">
*{stroke-linecap:butt;stroke-linejoin:round;}
  </style>
 </defs>
 <g id="figure_1">
  <g id="patch_1">
   <path d="M 0 302.872266 
L 469.712813 302.872266 
L 469.712813 0 
L 0 0 
z
" style="fill:#ffffff;"/>
  </g>
  <g id="axes_1">
   <g id="patch_2">
    <path d="M 98.445312 233.378203 
L 433.245313 233.378203 
L 433.245313 15.938203 
L 98.445312 15.938203 
z
" style="fill:#ffffff;"/>
   </g>
   <g id="matplotlib.axis_1">
    <g id="xtick_1">
     <g id="line2d_1">
      <defs>
       <path d="M 0 0 
L 0 3.5 
" id="mb9316c3b02" style="stroke:#000000;stroke-width:0.8;"/>
      </defs>
      <g>
       <use style="stroke:#000000;stroke-width:0.8;" x="113.314115" xlink:href="#mb9316c3b02" y="233.378203"/>
      </g>
     </g>
     <g id="text_1">
      <!-- 0 -->
      <defs>
       <path d="M 31.78125 66.40625 
Q 24.171875 66.40625 20.328125 58.90625 
Q 16.5 51.421875 16.5 36.375 
Q 16.5 21.390625 20.328125 13.890625 
Q 24.171875 6.390625 31.78125 6.390625 
Q 39.453125 6.390625 43.28125 13.890625 
Q 47.125 21.390625 47.125 36.375 
Q 47.125 51.421875 43.28125 58.90625 
Q 39.453125 66.40625 31.78125 66.40625 
z
M 31.78125 74.21875 
Q 44.046875 74.21875 50.515625 64.515625 
Q 56.984375 54.828125 56.984375 36.375 
Q 56.984375 17.96875 50.515625 8.265625 
Q 44.046875 -1.421875 31.78125 -1.421875 
Q 19.53125 -1.421875 13.0625 8.265625 
Q 6.59375 17.96875 6.59375 36.375 
Q 6.59375 54.828125 13.0625 64.515625 
Q 19.53125 74.21875 31.78125 74.21875 
z
" id="DejaVuSans-48"/>
      </defs>
      <g transform="translate(105.99724 257.854609)scale(0.23 -0.23)">
       <use xlink:href="#DejaVuSans-48"/>
      </g>
     </g>
    </g>
    <g id="xtick_2">
     <g id="line2d_2">
      <g>
       <use style="stroke:#000000;stroke-width:0.8;" x="177.300354" xlink:href="#mb9316c3b02" y="233.378203"/>
      </g>
     </g>
     <g id="text_2">
      <!-- 400 -->
      <defs>
       <path d="M 37.796875 64.3125 
L 12.890625 25.390625 
L 37.796875 25.390625 
z
M 35.203125 72.90625 
L 47.609375 72.90625 
L 47.609375 25.390625 
L 58.015625 25.390625 
L 58.015625 17.1875 
L 47.609375 17.1875 
L 47.609375 0 
L 37.796875 0 
L 37.796875 17.1875 
L 4.890625 17.1875 
L 4.890625 26.703125 
z
" id="DejaVuSans-52"/>
      </defs>
      <g transform="translate(155.349729 257.854609)scale(0.23 -0.23)">
       <use xlink:href="#DejaVuSans-52"/>
       <use x="63.623047" xlink:href="#DejaVuSans-48"/>
       <use x="127.246094" xlink:href="#DejaVuSans-48"/>
      </g>
     </g>
    </g>
    <g id="xtick_3">
     <g id="line2d_3">
      <g>
       <use style="stroke:#000000;stroke-width:0.8;" x="241.286594" xlink:href="#mb9316c3b02" y="233.378203"/>
      </g>
     </g>
     <g id="text_3">
      <!-- 800 -->
      <defs>
       <path d="M 31.78125 34.625 
Q 24.75 34.625 20.71875 30.859375 
Q 16.703125 27.09375 16.703125 20.515625 
Q 16.703125 13.921875 20.71875 10.15625 
Q 24.75 6.390625 31.78125 6.390625 
Q 38.8125 6.390625 42.859375 10.171875 
Q 46.921875 13.96875 46.921875 20.515625 
Q 46.921875 27.09375 42.890625 30.859375 
Q 38.875 34.625 31.78125 34.625 
z
M 21.921875 38.8125 
Q 15.578125 40.375 12.03125 44.71875 
Q 8.5 49.078125 8.5 55.328125 
Q 8.5 64.0625 14.71875 69.140625 
Q 20.953125 74.21875 31.78125 74.21875 
Q 42.671875 74.21875 48.875 69.140625 
Q 55.078125 64.0625 55.078125 55.328125 
Q 55.078125 49.078125 51.53125 44.71875 
Q 48 40.375 41.703125 38.8125 
Q 48.828125 37.15625 52.796875 32.3125 
Q 56.78125 27.484375 56.78125 20.515625 
Q 56.78125 9.90625 50.3125 4.234375 
Q 43.84375 -1.421875 31.78125 -1.421875 
Q 19.734375 -1.421875 13.25 4.234375 
Q 6.78125 9.90625 6.78125 20.515625 
Q 6.78125 27.484375 10.78125 32.3125 
Q 14.796875 37.15625 21.921875 38.8125 
z
M 18.3125 54.390625 
Q 18.3125 48.734375 21.84375 45.5625 
Q 25.390625 42.390625 31.78125 42.390625 
Q 38.140625 42.390625 41.71875 45.5625 
Q 45.3125 48.734375 45.3125 54.390625 
Q 45.3125 60.0625 41.71875 63.234375 
Q 38.140625 66.40625 31.78125 66.40625 
Q 25.390625 66.40625 21.84375 63.234375 
Q 18.3125 60.0625 18.3125 54.390625 
z
" id="DejaVuSans-56"/>
      </defs>
      <g transform="translate(219.335969 257.854609)scale(0.23 -0.23)">
       <use xlink:href="#DejaVuSans-56"/>
       <use x="63.623047" xlink:href="#DejaVuSans-48"/>
       <use x="127.246094" xlink:href="#DejaVuSans-48"/>
      </g>
     </g>
    </g>
    <g id="xtick_4">
     <g id="line2d_4">
      <g>
       <use style="stroke:#000000;stroke-width:0.8;" x="305.272833" xlink:href="#mb9316c3b02" y="233.378203"/>
      </g>
     </g>
     <g id="text_4">
      <!-- 1200 -->
      <defs>
       <path d="M 12.40625 8.296875 
L 28.515625 8.296875 
L 28.515625 63.921875 
L 10.984375 60.40625 
L 10.984375 69.390625 
L 28.421875 72.90625 
L 38.28125 72.90625 
L 38.28125 8.296875 
L 54.390625 8.296875 
L 54.390625 0 
L 12.40625 0 
z
" id="DejaVuSans-49"/>
       <path d="M 19.1875 8.296875 
L 53.609375 8.296875 
L 53.609375 0 
L 7.328125 0 
L 7.328125 8.296875 
Q 12.9375 14.109375 22.625 23.890625 
Q 32.328125 33.6875 34.8125 36.53125 
Q 39.546875 41.84375 41.421875 45.53125 
Q 43.3125 49.21875 43.3125 52.78125 
Q 43.3125 58.59375 39.234375 62.25 
Q 35.15625 65.921875 28.609375 65.921875 
Q 23.96875 65.921875 18.8125 64.3125 
Q 13.671875 62.703125 7.8125 59.421875 
L 7.8125 69.390625 
Q 13.765625 71.78125 18.9375 73 
Q 24.125 74.21875 28.421875 74.21875 
Q 39.75 74.21875 46.484375 68.546875 
Q 53.21875 62.890625 53.21875 53.421875 
Q 53.21875 48.921875 51.53125 44.890625 
Q 49.859375 40.875 45.40625 35.40625 
Q 44.1875 33.984375 37.640625 27.21875 
Q 31.109375 20.453125 19.1875 8.296875 
z
" id="DejaVuSans-50"/>
      </defs>
      <g transform="translate(276.005333 257.854609)scale(0.23 -0.23)">
       <use xlink:href="#DejaVuSans-49"/>
       <use x="63.623047" xlink:href="#DejaVuSans-50"/>
       <use x="127.246094" xlink:href="#DejaVuSans-48"/>
       <use x="190.869141" xlink:href="#DejaVuSans-48"/>
      </g>
     </g>
    </g>
    <g id="xtick_5">
     <g id="line2d_5">
      <g>
       <use style="stroke:#000000;stroke-width:0.8;" x="369.259073" xlink:href="#mb9316c3b02" y="233.378203"/>
      </g>
     </g>
     <g id="text_5">
      <!-- 1600 -->
      <defs>
       <path d="M 33.015625 40.375 
Q 26.375 40.375 22.484375 35.828125 
Q 18.609375 31.296875 18.609375 23.390625 
Q 18.609375 15.53125 22.484375 10.953125 
Q 26.375 6.390625 33.015625 6.390625 
Q 39.65625 6.390625 43.53125 10.953125 
Q 47.40625 15.53125 47.40625 23.390625 
Q 47.40625 31.296875 43.53125 35.828125 
Q 39.65625 40.375 33.015625 40.375 
z
M 52.59375 71.296875 
L 52.59375 62.3125 
Q 48.875 64.0625 45.09375 64.984375 
Q 41.3125 65.921875 37.59375 65.921875 
Q 27.828125 65.921875 22.671875 59.328125 
Q 17.53125 52.734375 16.796875 39.40625 
Q 19.671875 43.65625 24.015625 45.921875 
Q 28.375 48.1875 33.59375 48.1875 
Q 44.578125 48.1875 50.953125 41.515625 
Q 57.328125 34.859375 57.328125 23.390625 
Q 57.328125 12.15625 50.6875 5.359375 
Q 44.046875 -1.421875 33.015625 -1.421875 
Q 20.359375 -1.421875 13.671875 8.265625 
Q 6.984375 17.96875 6.984375 36.375 
Q 6.984375 53.65625 15.1875 63.9375 
Q 23.390625 74.21875 37.203125 74.21875 
Q 40.921875 74.21875 44.703125 73.484375 
Q 48.484375 72.75 52.59375 71.296875 
z
" id="DejaVuSans-54"/>
      </defs>
      <g transform="translate(339.991573 257.854609)scale(0.23 -0.23)">
       <use xlink:href="#DejaVuSans-49"/>
       <use x="63.623047" xlink:href="#DejaVuSans-54"/>
       <use x="127.246094" xlink:href="#DejaVuSans-48"/>
       <use x="190.869141" xlink:href="#DejaVuSans-48"/>
      </g>
     </g>
    </g>
    <g id="xtick_6">
     <g id="line2d_6">
      <g>
       <use style="stroke:#000000;stroke-width:0.8;" x="433.245313" xlink:href="#mb9316c3b02" y="233.378203"/>
      </g>
     </g>
     <g id="text_6">
      <!-- 2000 -->
      <g transform="translate(403.977813 257.854609)scale(0.23 -0.23)">
       <use xlink:href="#DejaVuSans-50"/>
       <use x="63.623047" xlink:href="#DejaVuSans-48"/>
       <use x="127.246094" xlink:href="#DejaVuSans-48"/>
       <use x="190.869141" xlink:href="#DejaVuSans-48"/>
      </g>
     </g>
    </g>
    <g id="text_7">
     <!-- rank -->
     <defs>
      <path d="M 41.109375 46.296875 
Q 39.59375 47.171875 37.8125 47.578125 
Q 36.03125 48 33.890625 48 
Q 26.265625 48 22.1875 43.046875 
Q 18.109375 38.09375 18.109375 28.8125 
L 18.109375 0 
L 9.078125 0 
L 9.078125 54.6875 
L 18.109375 54.6875 
L 18.109375 46.1875 
Q 20.953125 51.171875 25.484375 53.578125 
Q 30.03125 56 36.53125 56 
Q 37.453125 56 38.578125 55.875 
Q 39.703125 55.765625 41.0625 55.515625 
z
" id="DejaVuSans-114"/>
      <path d="M 34.28125 27.484375 
Q 23.390625 27.484375 19.1875 25 
Q 14.984375 22.515625 14.984375 16.5 
Q 14.984375 11.71875 18.140625 8.90625 
Q 21.296875 6.109375 26.703125 6.109375 
Q 34.1875 6.109375 38.703125 11.40625 
Q 43.21875 16.703125 43.21875 25.484375 
L 43.21875 27.484375 
z
M 52.203125 31.203125 
L 52.203125 0 
L 43.21875 0 
L 43.21875 8.296875 
Q 40.140625 3.328125 35.546875 0.953125 
Q 30.953125 -1.421875 24.3125 -1.421875 
Q 15.921875 -1.421875 10.953125 3.296875 
Q 6 8.015625 6 15.921875 
Q 6 25.140625 12.171875 29.828125 
Q 18.359375 34.515625 30.609375 34.515625 
L 43.21875 34.515625 
L 43.21875 35.40625 
Q 43.21875 41.609375 39.140625 45 
Q 35.0625 48.390625 27.6875 48.390625 
Q 23 48.390625 18.546875 47.265625 
Q 14.109375 46.140625 10.015625 43.890625 
L 10.015625 52.203125 
Q 14.9375 54.109375 19.578125 55.046875 
Q 24.21875 56 28.609375 56 
Q 40.484375 56 46.34375 49.84375 
Q 52.203125 43.703125 52.203125 31.203125 
z
" id="DejaVuSans-97"/>
      <path d="M 54.890625 33.015625 
L 54.890625 0 
L 45.90625 0 
L 45.90625 32.71875 
Q 45.90625 40.484375 42.875 44.328125 
Q 39.84375 48.1875 33.796875 48.1875 
Q 26.515625 48.1875 22.3125 43.546875 
Q 18.109375 38.921875 18.109375 30.90625 
L 18.109375 0 
L 9.078125 0 
L 9.078125 54.6875 
L 18.109375 54.6875 
L 18.109375 46.1875 
Q 21.34375 51.125 25.703125 53.5625 
Q 30.078125 56 35.796875 56 
Q 45.21875 56 50.046875 50.171875 
Q 54.890625 44.34375 54.890625 33.015625 
z
" id="DejaVuSans-110"/>
      <path d="M 9.078125 75.984375 
L 18.109375 75.984375 
L 18.109375 31.109375 
L 44.921875 54.6875 
L 56.390625 54.6875 
L 27.390625 29.109375 
L 57.625 0 
L 45.90625 0 
L 18.109375 26.703125 
L 18.109375 0 
L 9.078125 0 
z
" id="DejaVuSans-107"/>
     </defs>
     <g transform="translate(232.294531 289.433203)scale(0.3 -0.3)">
      <use xlink:href="#DejaVuSans-114"/>
      <use x="41.113281" xlink:href="#DejaVuSans-97"/>
      <use x="102.392578" xlink:href="#DejaVuSans-110"/>
      <use x="165.771484" xlink:href="#DejaVuSans-107"/>
     </g>
    </g>
   </g>
   <g id="matplotlib.axis_2">
    <g id="ytick_1">
     <g id="line2d_7">
      <defs>
       <path d="M 0 0 
L -3.5 0 
" id="m7fb7c3917d" style="stroke:#000000;stroke-width:0.8;"/>
      </defs>
      <g>
       <use style="stroke:#000000;stroke-width:0.8;" x="98.445312" xlink:href="#m7fb7c3917d" y="233.378203"/>
      </g>
     </g>
     <g id="text_8">
      <!-- 0.00 -->
      <defs>
       <path d="M 10.6875 12.40625 
L 21 12.40625 
L 21 0 
L 10.6875 0 
z
" id="DejaVuSans-46"/>
      </defs>
      <g transform="translate(40.234375 242.116406)scale(0.23 -0.23)">
       <use xlink:href="#DejaVuSans-48"/>
       <use x="63.623047" xlink:href="#DejaVuSans-46"/>
       <use x="95.410156" xlink:href="#DejaVuSans-48"/>
       <use x="159.033203" xlink:href="#DejaVuSans-48"/>
      </g>
     </g>
    </g>
    <g id="ytick_2">
     <g id="line2d_8">
      <g>
       <use style="stroke:#000000;stroke-width:0.8;" x="98.445312" xlink:href="#m7fb7c3917d" y="179.018203"/>
      </g>
     </g>
     <g id="text_9">
      <!-- 0.69 -->
      <defs>
       <path d="M 10.984375 1.515625 
L 10.984375 10.5 
Q 14.703125 8.734375 18.5 7.8125 
Q 22.3125 6.890625 25.984375 6.890625 
Q 35.75 6.890625 40.890625 13.453125 
Q 46.046875 20.015625 46.78125 33.40625 
Q 43.953125 29.203125 39.59375 26.953125 
Q 35.25 24.703125 29.984375 24.703125 
Q 19.046875 24.703125 12.671875 31.3125 
Q 6.296875 37.9375 6.296875 49.421875 
Q 6.296875 60.640625 12.9375 67.421875 
Q 19.578125 74.21875 30.609375 74.21875 
Q 43.265625 74.21875 49.921875 64.515625 
Q 56.59375 54.828125 56.59375 36.375 
Q 56.59375 19.140625 48.40625 8.859375 
Q 40.234375 -1.421875 26.421875 -1.421875 
Q 22.703125 -1.421875 18.890625 -0.6875 
Q 15.09375 0.046875 10.984375 1.515625 
z
M 30.609375 32.421875 
Q 37.25 32.421875 41.125 36.953125 
Q 45.015625 41.5 45.015625 49.421875 
Q 45.015625 57.28125 41.125 61.84375 
Q 37.25 66.40625 30.609375 66.40625 
Q 23.96875 66.40625 20.09375 61.84375 
Q 16.21875 57.28125 16.21875 49.421875 
Q 16.21875 41.5 20.09375 36.953125 
Q 23.96875 32.421875 30.609375 32.421875 
z
" id="DejaVuSans-57"/>
      </defs>
      <g transform="translate(40.234375 187.756406)scale(0.23 -0.23)">
       <use xlink:href="#DejaVuSans-48"/>
       <use x="63.623047" xlink:href="#DejaVuSans-46"/>
       <use x="95.410156" xlink:href="#DejaVuSans-54"/>
       <use x="159.033203" xlink:href="#DejaVuSans-57"/>
      </g>
     </g>
    </g>
    <g id="ytick_3">
     <g id="line2d_9">
      <g>
       <use style="stroke:#000000;stroke-width:0.8;" x="98.445312" xlink:href="#m7fb7c3917d" y="124.658203"/>
      </g>
     </g>
     <g id="text_10">
      <!-- 1.38 -->
      <defs>
       <path d="M 40.578125 39.3125 
Q 47.65625 37.796875 51.625 33 
Q 55.609375 28.21875 55.609375 21.1875 
Q 55.609375 10.40625 48.1875 4.484375 
Q 40.765625 -1.421875 27.09375 -1.421875 
Q 22.515625 -1.421875 17.65625 -0.515625 
Q 12.796875 0.390625 7.625 2.203125 
L 7.625 11.71875 
Q 11.71875 9.328125 16.59375 8.109375 
Q 21.484375 6.890625 26.8125 6.890625 
Q 36.078125 6.890625 40.9375 10.546875 
Q 45.796875 14.203125 45.796875 21.1875 
Q 45.796875 27.640625 41.28125 31.265625 
Q 36.765625 34.90625 28.71875 34.90625 
L 20.21875 34.90625 
L 20.21875 43.015625 
L 29.109375 43.015625 
Q 36.375 43.015625 40.234375 45.921875 
Q 44.09375 48.828125 44.09375 54.296875 
Q 44.09375 59.90625 40.109375 62.90625 
Q 36.140625 65.921875 28.71875 65.921875 
Q 24.65625 65.921875 20.015625 65.03125 
Q 15.375 64.15625 9.8125 62.3125 
L 9.8125 71.09375 
Q 15.4375 72.65625 20.34375 73.4375 
Q 25.25 74.21875 29.59375 74.21875 
Q 40.828125 74.21875 47.359375 69.109375 
Q 53.90625 64.015625 53.90625 55.328125 
Q 53.90625 49.265625 50.4375 45.09375 
Q 46.96875 40.921875 40.578125 39.3125 
z
" id="DejaVuSans-51"/>
      </defs>
      <g transform="translate(40.234375 133.396406)scale(0.23 -0.23)">
       <use xlink:href="#DejaVuSans-49"/>
       <use x="63.623047" xlink:href="#DejaVuSans-46"/>
       <use x="95.410156" xlink:href="#DejaVuSans-51"/>
       <use x="159.033203" xlink:href="#DejaVuSans-56"/>
      </g>
     </g>
    </g>
    <g id="ytick_4">
     <g id="line2d_10">
      <g>
       <use style="stroke:#000000;stroke-width:0.8;" x="98.445312" xlink:href="#m7fb7c3917d" y="70.298203"/>
      </g>
     </g>
     <g id="text_11">
      <!-- 2.07 -->
      <defs>
       <path d="M 8.203125 72.90625 
L 55.078125 72.90625 
L 55.078125 68.703125 
L 28.609375 0 
L 18.3125 0 
L 43.21875 64.59375 
L 8.203125 64.59375 
z
" id="DejaVuSans-55"/>
      </defs>
      <g transform="translate(40.234375 79.036406)scale(0.23 -0.23)">
       <use xlink:href="#DejaVuSans-50"/>
       <use x="63.623047" xlink:href="#DejaVuSans-46"/>
       <use x="95.410156" xlink:href="#DejaVuSans-48"/>
       <use x="159.033203" xlink:href="#DejaVuSans-55"/>
      </g>
     </g>
    </g>
    <g id="ytick_5">
     <g id="line2d_11">
      <g>
       <use style="stroke:#000000;stroke-width:0.8;" x="98.445312" xlink:href="#m7fb7c3917d" y="15.938203"/>
      </g>
     </g>
     <g id="text_12">
      <!-- 2.76 -->
      <g transform="translate(40.234375 24.676406)scale(0.23 -0.23)">
       <use xlink:href="#DejaVuSans-50"/>
       <use x="63.623047" xlink:href="#DejaVuSans-46"/>
       <use x="95.410156" xlink:href="#DejaVuSans-55"/>
       <use x="159.033203" xlink:href="#DejaVuSans-54"/>
      </g>
     </g>
    </g>
    <g id="text_13">
     <!-- entropy -->
     <defs>
      <path d="M 56.203125 29.59375 
L 56.203125 25.203125 
L 14.890625 25.203125 
Q 15.484375 15.921875 20.484375 11.0625 
Q 25.484375 6.203125 34.421875 6.203125 
Q 39.59375 6.203125 44.453125 7.46875 
Q 49.3125 8.734375 54.109375 11.28125 
L 54.109375 2.78125 
Q 49.265625 0.734375 44.1875 -0.34375 
Q 39.109375 -1.421875 33.890625 -1.421875 
Q 20.796875 -1.421875 13.15625 6.1875 
Q 5.515625 13.8125 5.515625 26.8125 
Q 5.515625 40.234375 12.765625 48.109375 
Q 20.015625 56 32.328125 56 
Q 43.359375 56 49.78125 48.890625 
Q 56.203125 41.796875 56.203125 29.59375 
z
M 47.21875 32.234375 
Q 47.125 39.59375 43.09375 43.984375 
Q 39.0625 48.390625 32.421875 48.390625 
Q 24.90625 48.390625 20.390625 44.140625 
Q 15.875 39.890625 15.1875 32.171875 
z
" id="DejaVuSans-101"/>
      <path d="M 18.3125 70.21875 
L 18.3125 54.6875 
L 36.8125 54.6875 
L 36.8125 47.703125 
L 18.3125 47.703125 
L 18.3125 18.015625 
Q 18.3125 11.328125 20.140625 9.421875 
Q 21.96875 7.515625 27.59375 7.515625 
L 36.8125 7.515625 
L 36.8125 0 
L 27.59375 0 
Q 17.1875 0 13.234375 3.875 
Q 9.28125 7.765625 9.28125 18.015625 
L 9.28125 47.703125 
L 2.6875 47.703125 
L 2.6875 54.6875 
L 9.28125 54.6875 
L 9.28125 70.21875 
z
" id="DejaVuSans-116"/>
      <path d="M 30.609375 48.390625 
Q 23.390625 48.390625 19.1875 42.75 
Q 14.984375 37.109375 14.984375 27.296875 
Q 14.984375 17.484375 19.15625 11.84375 
Q 23.34375 6.203125 30.609375 6.203125 
Q 37.796875 6.203125 41.984375 11.859375 
Q 46.1875 17.53125 46.1875 27.296875 
Q 46.1875 37.015625 41.984375 42.703125 
Q 37.796875 48.390625 30.609375 48.390625 
z
M 30.609375 56 
Q 42.328125 56 49.015625 48.375 
Q 55.71875 40.765625 55.71875 27.296875 
Q 55.71875 13.875 49.015625 6.21875 
Q 42.328125 -1.421875 30.609375 -1.421875 
Q 18.84375 -1.421875 12.171875 6.21875 
Q 5.515625 13.875 5.515625 27.296875 
Q 5.515625 40.765625 12.171875 48.375 
Q 18.84375 56 30.609375 56 
z
" id="DejaVuSans-111"/>
      <path d="M 18.109375 8.203125 
L 18.109375 -20.796875 
L 9.078125 -20.796875 
L 9.078125 54.6875 
L 18.109375 54.6875 
L 18.109375 46.390625 
Q 20.953125 51.265625 25.265625 53.625 
Q 29.59375 56 35.59375 56 
Q 45.5625 56 51.78125 48.09375 
Q 58.015625 40.1875 58.015625 27.296875 
Q 58.015625 14.40625 51.78125 6.484375 
Q 45.5625 -1.421875 35.59375 -1.421875 
Q 29.59375 -1.421875 25.265625 0.953125 
Q 20.953125 3.328125 18.109375 8.203125 
z
M 48.6875 27.296875 
Q 48.6875 37.203125 44.609375 42.84375 
Q 40.53125 48.484375 33.40625 48.484375 
Q 26.265625 48.484375 22.1875 42.84375 
Q 18.109375 37.203125 18.109375 27.296875 
Q 18.109375 17.390625 22.1875 11.75 
Q 26.265625 6.109375 33.40625 6.109375 
Q 40.53125 6.109375 44.609375 11.75 
Q 48.6875 17.390625 48.6875 27.296875 
z
" id="DejaVuSans-112"/>
      <path d="M 32.171875 -5.078125 
Q 28.375 -14.84375 24.75 -17.8125 
Q 21.140625 -20.796875 15.09375 -20.796875 
L 7.90625 -20.796875 
L 7.90625 -13.28125 
L 13.1875 -13.28125 
Q 16.890625 -13.28125 18.9375 -11.515625 
Q 21 -9.765625 23.484375 -3.21875 
L 25.09375 0.875 
L 2.984375 54.6875 
L 12.5 54.6875 
L 29.59375 11.921875 
L 46.6875 54.6875 
L 56.203125 54.6875 
z
" id="DejaVuSans-121"/>
     </defs>
     <g transform="translate(29.995312 183.015234)rotate(-90)scale(0.3 -0.3)">
      <use xlink:href="#DejaVuSans-101"/>
      <use x="61.523438" xlink:href="#DejaVuSans-110"/>
      <use x="124.902344" xlink:href="#DejaVuSans-116"/>
      <use x="164.111328" xlink:href="#DejaVuSans-114"/>
      <use x="205.193359" xlink:href="#DejaVuSans-111"/>
      <use x="266.375" xlink:href="#DejaVuSans-112"/>
      <use x="329.851562" xlink:href="#DejaVuSans-121"/>
     </g>
    </g>
   </g>
   <g id="line2d_12">
    <path clip-path="url(#p4393b8b112)" d="M 113.314115 28.62257 
L 113.474081 30.6845 
L 113.634046 30.969617 
L 113.794012 32.241342 
L 113.953977 42.158497 
L 114.273909 43.6958 
L 114.433874 43.737124 
L 114.59384 45.168334 
L 114.913771 48.725888 
L 115.073736 50.816744 
L 115.393668 52.016299 
L 115.553633 53.63347 
L 116.193496 54.778153 
L 116.353461 56.149148 
L 116.513427 56.163164 
L 116.833358 56.560694 
L 117.153289 57.340706 
L 117.313255 57.386752 
L 117.633186 57.617232 
L 117.793152 57.673914 
L 118.273048 58.411169 
L 118.59298 58.821053 
L 118.912911 59.911176 
L 119.232842 60.357435 
L 119.712739 62.65775 
L 120.03267 63.243661 
L 120.512567 64.061717 
L 121.312395 64.684633 
L 121.47236 65.10718 
L 121.632326 65.200855 
L 121.952257 65.766434 
L 122.112223 65.86995 
L 122.59212 67.421805 
L 123.072016 67.687248 
L 123.231982 68.236917 
L 123.391948 68.258795 
L 123.551913 68.661183 
L 123.711879 68.721832 
L 123.871844 68.939127 
L 124.191776 69.714722 
L 124.991604 71.177201 
L 125.311535 72.609405 
L 125.4715 72.635747 
L 125.631466 72.803806 
L 125.951397 72.914615 
L 126.271328 72.96538 
L 126.431294 73.215242 
L 126.59126 73.221816 
L 126.911191 73.75389 
L 127.071156 73.790049 
L 127.711019 74.748061 
L 127.870984 74.765035 
L 128.350881 75.273511 
L 128.670812 75.347953 
L 128.990744 75.525521 
L 129.150709 75.854265 
L 129.310675 75.859526 
L 129.630606 76.476658 
L 129.950537 76.675182 
L 130.270468 77.185555 
L 130.750365 77.411623 
L 130.910331 77.675752 
L 131.070296 77.721119 
L 131.870124 78.726873 
L 132.669952 78.988479 
L 132.829918 79.408151 
L 133.309815 79.571268 
L 133.629746 79.608174 
L 133.789712 79.950374 
L 134.109643 80.037556 
L 134.58954 80.654293 
L 134.909471 80.798208 
L 135.229402 81.17454 
L 136.02923 81.811791 
L 136.829058 82.083974 
L 137.148989 82.709493 
L 137.46892 83.01224 
L 137.788852 83.492445 
L 137.948817 83.526559 
L 138.268748 83.823034 
L 138.908611 84.011982 
L 139.228542 84.45909 
L 139.548473 84.624038 
L 139.868404 84.758775 
L 140.668232 84.944889 
L 140.988163 85.135515 
L 141.148129 85.154889 
L 141.308095 85.867055 
L 141.947957 86.013721 
L 142.907751 86.353358 
L 144.02751 87.42048 
L 144.347441 87.489526 
L 144.827338 87.793718 
L 144.987303 88.123886 
L 145.4672 88.33564 
L 145.947097 88.652263 
L 146.107063 89.36371 
L 146.586959 89.652914 
L 147.546753 90.570572 
L 147.866684 90.873536 
L 148.186615 91.071436 
L 148.346581 91.208054 
L 148.666512 91.610886 
L 149.306375 92.056206 
L 149.626306 92.116653 
L 149.946237 92.594827 
L 150.266168 92.776149 
L 150.586099 93.026796 
L 150.906031 93.397733 
L 151.065996 93.413784 
L 151.225962 93.686937 
L 154.265308 94.547609 
L 154.425274 95.0695 
L 154.585239 95.086499 
L 154.745205 95.403617 
L 155.065136 95.525975 
L 155.385067 95.827804 
L 155.545033 95.877998 
L 155.864964 96.178209 
L 156.184895 96.334801 
L 156.504827 96.465385 
L 156.664792 96.598263 
L 156.824758 96.904429 
L 157.46462 97.07275 
L 157.784551 97.182706 
L 158.264448 97.791674 
L 158.744345 97.901558 
L 159.064276 98.066096 
L 160.663932 98.858711 
L 160.823898 98.869718 
L 161.303795 99.372973 
L 162.263588 99.72854 
L 165.302935 100.805159 
L 167.382487 102.304735 
L 168.182315 102.64341 
L 169.142109 103.122771 
L 169.46204 103.168885 
L 170.101902 103.540163 
L 170.421834 103.619082 
L 170.741765 103.827661 
L 170.90173 103.829215 
L 171.221662 104.066389 
L 171.701558 104.102675 
L 172.02149 104.222984 
L 173.141249 104.513861 
L 173.46118 104.653285 
L 173.781111 104.795298 
L 174.261008 105.002195 
L 174.740905 105.237985 
L 175.540733 105.368653 
L 176.02063 105.424479 
L 176.660492 105.544431 
L 177.620286 105.716532 
L 177.780251 105.957804 
L 179.059976 106.216697 
L 179.219942 106.487347 
L 180.339701 106.664656 
L 180.499666 107.080399 
L 182.419254 107.63385 
L 182.739185 107.755823 
L 183.698978 108.083153 
L 184.338841 108.292073 
L 184.818738 108.353321 
L 185.298634 108.498264 
L 186.098462 108.659264 
L 186.258428 108.917164 
L 187.218222 109.018973 
L 187.858084 109.208541 
L 188.178015 109.401322 
L 190.577499 109.985724 
L 190.89743 110.325418 
L 191.217362 110.459359 
L 192.01719 110.718447 
L 193.136949 111.14809 
L 194.256708 111.429204 
L 194.736605 111.676793 
L 196.176295 112.071878 
L 196.496226 112.237387 
L 202.89485 113.810033 
L 203.214781 113.972524 
L 204.334541 114.219972 
L 204.494506 114.244574 
L 204.654472 114.500455 
L 206.414093 115.027733 
L 206.734025 115.15186 
L 208.173715 115.328738 
L 211.373027 116.137244 
L 212.012889 116.208218 
L 212.332821 116.373645 
L 212.812717 116.551448 
L 213.45258 116.757052 
L 213.772511 116.96756 
L 214.412373 117.151648 
L 214.572339 117.178336 
L 214.89227 117.405318 
L 215.372167 117.485585 
L 215.692098 117.686839 
L 216.012029 117.864401 
L 216.651892 118.023225 
L 216.971823 118.12967 
L 217.931617 118.468413 
L 218.571479 118.679877 
L 220.011169 119.184967 
L 220.491066 119.308986 
L 221.130928 119.477451 
L 221.290894 119.64706 
L 221.770791 119.692844 
L 222.250688 120.015776 
L 222.89055 120.170131 
L 223.210481 120.539936 
L 225.929896 121.459661 
L 226.88969 121.643601 
L 227.369587 121.768338 
L 227.849484 121.956127 
L 228.489346 122.059378 
L 231.368727 122.703308 
L 232.488486 122.821469 
L 232.808417 122.9909 
L 233.128348 123.092863 
L 233.608245 123.431875 
L 234.248108 123.562165 
L 234.728004 123.709669 
L 238.087282 124.956721 
L 239.047076 125.099829 
L 241.926456 125.668637 
L 242.566319 125.765468 
L 242.88625 125.816911 
L 243.206181 125.977399 
L 243.846044 126.093063 
L 244.645872 126.377418 
L 245.125768 126.432241 
L 245.605665 126.755685 
L 247.045356 127.032385 
L 247.525252 127.201903 
L 248.005149 127.290437 
L 251.684358 128.264892 
L 252.32422 128.355023 
L 252.804117 128.503165 
L 253.124048 128.662537 
L 253.603945 128.722732 
L 254.243807 129.138638 
L 255.043635 129.224946 
L 255.363567 129.346936 
L 256.163395 129.497189 
L 259.362707 130.313073 
L 259.682638 130.511861 
L 260.3225 130.56631 
L 261.762191 130.822728 
L 263.201881 131.219436 
L 263.521812 131.307259 
L 264.961503 131.62477 
L 266.88109 131.969325 
L 268.160815 132.228421 
L 268.32078 132.239805 
L 268.480746 132.410416 
L 268.960643 132.51284 
L 269.760471 132.641067 
L 270.080402 132.692794 
L 270.720264 132.931774 
L 271.999989 133.169644 
L 272.799817 133.483482 
L 273.599645 133.541864 
L 276.479026 134.588257 
L 276.798957 134.651887 
L 277.278854 134.962299 
L 277.75875 135.050102 
L 278.078682 135.319002 
L 278.238647 135.560466 
L 278.558578 135.676788 
L 278.87851 135.875856 
L 279.198441 136.006491 
L 279.358406 136.197269 
L 279.998269 136.339036 
L 280.3182 136.574671 
L 280.958062 136.753674 
L 282.077822 137.072993 
L 282.397753 137.165208 
L 282.557718 137.17314 
L 283.197581 137.634869 
L 283.517512 137.66916 
L 283.837443 137.814303 
L 287.836583 139.191882 
L 288.476446 139.214858 
L 289.276274 139.555908 
L 289.916136 139.662497 
L 293.595345 141.219681 
L 294.075242 141.271132 
L 295.354966 141.820104 
L 295.834863 141.867676 
L 295.994829 142.086285 
L 296.474726 142.140493 
L 296.954622 142.424386 
L 298.074382 142.603038 
L 298.714244 142.750791 
L 299.194141 142.850512 
L 303.193281 144.01632 
L 303.353246 144.017147 
L 303.513212 144.253023 
L 304.153074 144.383309 
L 304.473005 144.454581 
L 304.952902 144.577461 
L 305.432799 144.813817 
L 305.75273 144.906043 
L 306.232627 145.029266 
L 307.032455 145.107977 
L 307.352386 145.331598 
L 307.832283 145.492412 
L 308.792077 145.573178 
L 309.112008 145.75902 
L 309.431939 145.897183 
L 310.231767 146.059173 
L 310.871629 146.531599 
L 311.671457 146.660772 
L 312.471285 146.875296 
L 312.951182 147.14164 
L 313.271113 147.422597 
L 318.070081 148.504066 
L 318.709944 148.58629 
L 320.149634 149.19717 
L 322.709084 149.850668 
L 323.348946 150.26884 
L 323.668877 150.292995 
L 323.988809 150.529001 
L 324.468705 150.63794 
L 325.268533 150.773979 
L 326.228327 151.00585 
L 326.868189 151.206672 
L 327.508052 151.519089 
L 327.827983 151.582946 
L 328.467845 151.96545 
L 329.107708 152.036326 
L 331.347226 152.707611 
L 331.507192 153.001417 
L 332.626951 153.102971 
L 333.426779 153.377627 
L 333.74671 153.551097 
L 335.1864 153.788089 
L 335.506332 153.852188 
L 336.30616 153.930851 
L 336.946022 154.169321 
L 337.425919 154.440534 
L 337.74585 154.564173 
L 338.065781 154.832423 
L 338.385712 155.007292 
L 339.18554 155.302289 
L 339.345506 155.308407 
L 339.505472 155.54457 
L 339.985368 155.673216 
L 340.625231 155.855138 
L 340.945162 156.016778 
L 341.105128 156.04776 
L 341.585024 156.365412 
L 342.224887 156.527661 
L 342.864749 156.92423 
L 343.18468 157.019534 
L 344.144474 157.310911 
L 344.624371 157.469994 
L 344.784336 157.480123 
L 344.944302 157.645135 
L 345.424199 157.75081 
L 345.584164 157.77848 
L 345.904096 157.987174 
L 347.023855 158.219032 
L 347.663717 158.504768 
L 348.143614 158.519185 
L 348.623511 158.83881 
L 350.063201 159.017224 
L 350.543098 159.168977 
L 350.863029 159.627738 
L 351.18296 159.68519 
L 351.342926 160.006031 
L 351.982788 160.215142 
L 352.30272 160.463194 
L 352.622651 160.564734 
L 353.102548 160.771261 
L 353.582444 160.942579 
L 353.902375 161.015479 
L 354.702203 161.74787 
L 354.862169 161.845835 
L 355.022135 162.101649 
L 355.1821 162.143967 
L 355.342066 162.307045 
L 355.981928 162.411561 
L 357.581584 162.855693 
L 359.821103 163.89687 
L 360.300999 164.768777 
L 360.620931 164.801072 
L 360.940862 165.251722 
L 361.260793 165.503333 
L 361.74069 165.583974 
L 361.900655 166.081116 
L 362.540518 166.158033 
L 362.860449 166.360926 
L 363.500311 166.634355 
L 364.460105 166.954553 
L 364.940002 167.186333 
L 365.099967 167.190227 
L 365.259933 167.354535 
L 366.059761 167.471417 
L 366.379692 167.715556 
L 367.659417 168.384829 
L 368.139314 168.71903 
L 368.459245 168.737025 
L 368.619211 168.9386 
L 368.779176 168.950097 
L 369.099107 169.198384 
L 371.338626 169.779747 
L 371.658557 170.2987 
L 371.978488 170.559145 
L 372.138454 170.609831 
L 372.298419 171.071482 
L 372.778316 171.26971 
L 372.938282 171.523499 
L 373.578144 171.639892 
L 374.218007 171.962694 
L 374.697903 172.226351 
L 375.337766 172.32207 
L 375.657697 172.469455 
L 375.977628 172.481879 
L 376.297559 172.857872 
L 376.617491 172.912445 
L 376.777456 173.357194 
L 377.097387 173.473941 
L 377.257353 173.522061 
L 377.417319 173.777044 
L 377.577284 173.782057 
L 377.897215 173.970709 
L 378.377112 174.139159 
L 378.857009 174.476188 
L 379.336906 174.679056 
L 379.976768 175.052943 
L 380.456665 175.313526 
L 380.776596 175.525689 
L 381.576424 175.813774 
L 382.216286 176.361258 
L 383.655977 176.839318 
L 384.135874 177.241989 
L 385.575564 177.509017 
L 386.055461 178.176567 
L 386.535358 178.299361 
L 386.695323 178.77026 
L 388.454945 178.868779 
L 392.134154 179.47264 
L 392.454085 179.610455 
L 394.053741 179.869586 
L 396.293259 180.163341 
L 396.773156 180.356588 
L 397.73295 180.426332 
L 399.492571 181.124481 
L 399.812502 181.381074 
L 400.452365 181.492622 
L 400.772296 181.595284 
L 400.932262 181.6056 
L 401.252193 181.925585 
L 401.73209 182.031121 
L 402.211986 182.18565 
L 402.531918 182.809682 
L 402.691883 182.809682 
L 402.851849 183.231956 
L 403.17178 183.333261 
L 403.331746 183.731478 
L 403.811642 183.870565 
L 404.451505 184.100362 
L 405.251333 185.606103 
L 405.411298 185.651896 
L 405.571264 187.131368 
L 405.73123 187.267069 
L 406.051161 188.056208 
L 406.211126 188.110205 
L 406.371092 188.879757 
L 406.531058 189.075973 
L 406.850989 189.082186 
L 407.010954 189.406845 
L 407.17092 189.411983 
L 407.490851 190.196047 
L 407.970748 190.204483 
L 408.130713 191.720293 
L 408.290679 191.81976 
L 408.770576 194.449491 
L 409.090507 197.881816 
L 409.250473 199.354007 
L 409.410438 199.555015 
L 409.570404 199.970132 
L 409.730369 203.763692 
L 409.890335 203.990476 
L 410.050301 206.86819 
L 410.210266 207.175563 
L 410.690163 210.039626 
L 410.690163 210.039626 
" style="fill:none;stroke:#0000ff;stroke-linecap:square;stroke-width:4;"/>
   </g>
   <g id="patch_3">
    <path d="M 98.445312 233.378203 
L 98.445312 15.938203 
" style="fill:none;stroke:#000000;stroke-linecap:square;stroke-linejoin:miter;stroke-width:0.8;"/>
   </g>
   <g id="patch_4">
    <path d="M 433.245313 233.378203 
L 433.245313 15.938203 
" style="fill:none;stroke:#000000;stroke-linecap:square;stroke-linejoin:miter;stroke-width:0.8;"/>
   </g>
   <g id="patch_5">
    <path d="M 98.445312 233.378203 
L 433.245313 233.378203 
" style="fill:none;stroke:#000000;stroke-linecap:square;stroke-linejoin:miter;stroke-width:0.8;"/>
   </g>
   <g id="patch_6">
    <path d="M 98.445312 15.938203 
L 433.245313 15.938203 
" style="fill:none;stroke:#000000;stroke-linecap:square;stroke-linejoin:miter;stroke-width:0.8;"/>
   </g>
  </g>
 </g>
 <defs>
  <clipPath id="p4393b8b112">
   <rect height="217.44" width="334.8" x="98.445312" y="15.938203"/>
  </clipPath>
 </defs>
</svg>
