<?xml version="1.0" encoding="utf-8" standalone="no"?>
<!DOCTYPE svg PUBLIC "-//W3C//DTD SVG 1.1//EN"
  "http://www.w3.org/Graphics/SVG/1.1/DTD/svg11.dtd">
<!-- Created with matplotlib (https://matplotlib.org/) -->
<svg height="297.634062pt" version="1.1" viewBox="0 0 458.981875 297.634062" width="458.981875pt" xmlns="http://www.w3.org/2000/svg" xmlns:xlink="http://www.w3.org/1999/xlink">
 <defs>
  <style type="text/css">
*{stroke-linecap:butt;stroke-linejoin:round;}
  </style>
 </defs>
 <g id="figure_1">
  <g id="patch_1">
   <path d="M 0 297.634062 
L 458.981875 297.634062 
L 458.981875 0 
L 0 0 
z
" style="fill:#ffffff;"/>
  </g>
  <g id="axes_1">
   <g id="patch_2">
    <path d="M 87.714375 228.14 
L 422.514375 228.14 
L 422.514375 10.7 
L 87.714375 10.7 
z
" style="fill:#ffffff;"/>
   </g>
   <g id="matplotlib.axis_1">
    <g id="xtick_1">
     <g id="line2d_1">
      <defs>
       <path d="M 0 0 
L 0 3.5 
" id="mfee5110553" style="stroke:#000000;stroke-width:0.8;"/>
      </defs>
      <g>
       <use style="stroke:#000000;stroke-width:0.8;" x="102.850461" xlink:href="#mfee5110553" y="228.14"/>
      </g>
     </g>
     <g id="text_1">
      <!-- 0 -->
      <defs>
       <path d="M 31.78125 66.40625 
Q 24.171875 66.40625 20.328125 58.90625 
Q 16.5 51.421875 16.5 36.375 
Q 16.5 21.390625 20.328125 13.890625 
Q 24.171875 6.390625 31.78125 6.390625 
Q 39.453125 6.390625 43.28125 13.890625 
Q 47.125 21.390625 47.125 36.375 
Q 47.125 51.421875 43.28125 58.90625 
Q 39.453125 66.40625 31.78125 66.40625 
z
M 31.78125 74.21875 
Q 44.046875 74.21875 50.515625 64.515625 
Q 56.984375 54.828125 56.984375 36.375 
Q 56.984375 17.96875 50.515625 8.265625 
Q 44.046875 -1.421875 31.78125 -1.421875 
Q 19.53125 -1.421875 13.0625 8.265625 
Q 6.59375 17.96875 6.59375 36.375 
Q 6.59375 54.828125 13.0625 64.515625 
Q 19.53125 74.21875 31.78125 74.21875 
z
" id="DejaVuSans-48"/>
      </defs>
      <g transform="translate(95.533586 252.616406)scale(0.23 -0.23)">
       <use xlink:href="#DejaVuSans-48"/>
      </g>
     </g>
    </g>
    <g id="xtick_2">
     <g id="line2d_2">
      <g>
       <use style="stroke:#000000;stroke-width:0.8;" x="166.783244" xlink:href="#mfee5110553" y="228.14"/>
      </g>
     </g>
     <g id="text_2">
      <!-- 400 -->
      <defs>
       <path d="M 37.796875 64.3125 
L 12.890625 25.390625 
L 37.796875 25.390625 
z
M 35.203125 72.90625 
L 47.609375 72.90625 
L 47.609375 25.390625 
L 58.015625 25.390625 
L 58.015625 17.1875 
L 47.609375 17.1875 
L 47.609375 0 
L 37.796875 0 
L 37.796875 17.1875 
L 4.890625 17.1875 
L 4.890625 26.703125 
z
" id="DejaVuSans-52"/>
      </defs>
      <g transform="translate(144.832619 252.616406)scale(0.23 -0.23)">
       <use xlink:href="#DejaVuSans-52"/>
       <use x="63.623047" xlink:href="#DejaVuSans-48"/>
       <use x="127.246094" xlink:href="#DejaVuSans-48"/>
      </g>
     </g>
    </g>
    <g id="xtick_3">
     <g id="line2d_3">
      <g>
       <use style="stroke:#000000;stroke-width:0.8;" x="230.716027" xlink:href="#mfee5110553" y="228.14"/>
      </g>
     </g>
     <g id="text_3">
      <!-- 800 -->
      <defs>
       <path d="M 31.78125 34.625 
Q 24.75 34.625 20.71875 30.859375 
Q 16.703125 27.09375 16.703125 20.515625 
Q 16.703125 13.921875 20.71875 10.15625 
Q 24.75 6.390625 31.78125 6.390625 
Q 38.8125 6.390625 42.859375 10.171875 
Q 46.921875 13.96875 46.921875 20.515625 
Q 46.921875 27.09375 42.890625 30.859375 
Q 38.875 34.625 31.78125 34.625 
z
M 21.921875 38.8125 
Q 15.578125 40.375 12.03125 44.71875 
Q 8.5 49.078125 8.5 55.328125 
Q 8.5 64.0625 14.71875 69.140625 
Q 20.953125 74.21875 31.78125 74.21875 
Q 42.671875 74.21875 48.875 69.140625 
Q 55.078125 64.0625 55.078125 55.328125 
Q 55.078125 49.078125 51.53125 44.71875 
Q 48 40.375 41.703125 38.8125 
Q 48.828125 37.15625 52.796875 32.3125 
Q 56.78125 27.484375 56.78125 20.515625 
Q 56.78125 9.90625 50.3125 4.234375 
Q 43.84375 -1.421875 31.78125 -1.421875 
Q 19.734375 -1.421875 13.25 4.234375 
Q 6.78125 9.90625 6.78125 20.515625 
Q 6.78125 27.484375 10.78125 32.3125 
Q 14.796875 37.15625 21.921875 38.8125 
z
M 18.3125 54.390625 
Q 18.3125 48.734375 21.84375 45.5625 
Q 25.390625 42.390625 31.78125 42.390625 
Q 38.140625 42.390625 41.71875 45.5625 
Q 45.3125 48.734375 45.3125 54.390625 
Q 45.3125 60.0625 41.71875 63.234375 
Q 38.140625 66.40625 31.78125 66.40625 
Q 25.390625 66.40625 21.84375 63.234375 
Q 18.3125 60.0625 18.3125 54.390625 
z
" id="DejaVuSans-56"/>
      </defs>
      <g transform="translate(208.765402 252.616406)scale(0.23 -0.23)">
       <use xlink:href="#DejaVuSans-56"/>
       <use x="63.623047" xlink:href="#DejaVuSans-48"/>
       <use x="127.246094" xlink:href="#DejaVuSans-48"/>
      </g>
     </g>
    </g>
    <g id="xtick_4">
     <g id="line2d_4">
      <g>
       <use style="stroke:#000000;stroke-width:0.8;" x="294.64881" xlink:href="#mfee5110553" y="228.14"/>
      </g>
     </g>
     <g id="text_4">
      <!-- 1200 -->
      <defs>
       <path d="M 12.40625 8.296875 
L 28.515625 8.296875 
L 28.515625 63.921875 
L 10.984375 60.40625 
L 10.984375 69.390625 
L 28.421875 72.90625 
L 38.28125 72.90625 
L 38.28125 8.296875 
L 54.390625 8.296875 
L 54.390625 0 
L 12.40625 0 
z
" id="DejaVuSans-49"/>
       <path d="M 19.1875 8.296875 
L 53.609375 8.296875 
L 53.609375 0 
L 7.328125 0 
L 7.328125 8.296875 
Q 12.9375 14.109375 22.625 23.890625 
Q 32.328125 33.6875 34.8125 36.53125 
Q 39.546875 41.84375 41.421875 45.53125 
Q 43.3125 49.21875 43.3125 52.78125 
Q 43.3125 58.59375 39.234375 62.25 
Q 35.15625 65.921875 28.609375 65.921875 
Q 23.96875 65.921875 18.8125 64.3125 
Q 13.671875 62.703125 7.8125 59.421875 
L 7.8125 69.390625 
Q 13.765625 71.78125 18.9375 73 
Q 24.125 74.21875 28.421875 74.21875 
Q 39.75 74.21875 46.484375 68.546875 
Q 53.21875 62.890625 53.21875 53.421875 
Q 53.21875 48.921875 51.53125 44.890625 
Q 49.859375 40.875 45.40625 35.40625 
Q 44.1875 33.984375 37.640625 27.21875 
Q 31.109375 20.453125 19.1875 8.296875 
z
" id="DejaVuSans-50"/>
      </defs>
      <g transform="translate(265.38131 252.616406)scale(0.23 -0.23)">
       <use xlink:href="#DejaVuSans-49"/>
       <use x="63.623047" xlink:href="#DejaVuSans-50"/>
       <use x="127.246094" xlink:href="#DejaVuSans-48"/>
       <use x="190.869141" xlink:href="#DejaVuSans-48"/>
      </g>
     </g>
    </g>
    <g id="xtick_5">
     <g id="line2d_5">
      <g>
       <use style="stroke:#000000;stroke-width:0.8;" x="358.581592" xlink:href="#mfee5110553" y="228.14"/>
      </g>
     </g>
     <g id="text_5">
      <!-- 1600 -->
      <defs>
       <path d="M 33.015625 40.375 
Q 26.375 40.375 22.484375 35.828125 
Q 18.609375 31.296875 18.609375 23.390625 
Q 18.609375 15.53125 22.484375 10.953125 
Q 26.375 6.390625 33.015625 6.390625 
Q 39.65625 6.390625 43.53125 10.953125 
Q 47.40625 15.53125 47.40625 23.390625 
Q 47.40625 31.296875 43.53125 35.828125 
Q 39.65625 40.375 33.015625 40.375 
z
M 52.59375 71.296875 
L 52.59375 62.3125 
Q 48.875 64.0625 45.09375 64.984375 
Q 41.3125 65.921875 37.59375 65.921875 
Q 27.828125 65.921875 22.671875 59.328125 
Q 17.53125 52.734375 16.796875 39.40625 
Q 19.671875 43.65625 24.015625 45.921875 
Q 28.375 48.1875 33.59375 48.1875 
Q 44.578125 48.1875 50.953125 41.515625 
Q 57.328125 34.859375 57.328125 23.390625 
Q 57.328125 12.15625 50.6875 5.359375 
Q 44.046875 -1.421875 33.015625 -1.421875 
Q 20.359375 -1.421875 13.671875 8.265625 
Q 6.984375 17.96875 6.984375 36.375 
Q 6.984375 53.65625 15.1875 63.9375 
Q 23.390625 74.21875 37.203125 74.21875 
Q 40.921875 74.21875 44.703125 73.484375 
Q 48.484375 72.75 52.59375 71.296875 
z
" id="DejaVuSans-54"/>
      </defs>
      <g transform="translate(329.314092 252.616406)scale(0.23 -0.23)">
       <use xlink:href="#DejaVuSans-49"/>
       <use x="63.623047" xlink:href="#DejaVuSans-54"/>
       <use x="127.246094" xlink:href="#DejaVuSans-48"/>
       <use x="190.869141" xlink:href="#DejaVuSans-48"/>
      </g>
     </g>
    </g>
    <g id="xtick_6">
     <g id="line2d_6">
      <g>
       <use style="stroke:#000000;stroke-width:0.8;" x="422.514375" xlink:href="#mfee5110553" y="228.14"/>
      </g>
     </g>
     <g id="text_6">
      <!-- 2000 -->
      <g transform="translate(393.246875 252.616406)scale(0.23 -0.23)">
       <use xlink:href="#DejaVuSans-50"/>
       <use x="63.623047" xlink:href="#DejaVuSans-48"/>
       <use x="127.246094" xlink:href="#DejaVuSans-48"/>
       <use x="190.869141" xlink:href="#DejaVuSans-48"/>
      </g>
     </g>
    </g>
    <g id="text_7">
     <!-- rank -->
     <defs>
      <path d="M 41.109375 46.296875 
Q 39.59375 47.171875 37.8125 47.578125 
Q 36.03125 48 33.890625 48 
Q 26.265625 48 22.1875 43.046875 
Q 18.109375 38.09375 18.109375 28.8125 
L 18.109375 0 
L 9.078125 0 
L 9.078125 54.6875 
L 18.109375 54.6875 
L 18.109375 46.1875 
Q 20.953125 51.171875 25.484375 53.578125 
Q 30.03125 56 36.53125 56 
Q 37.453125 56 38.578125 55.875 
Q 39.703125 55.765625 41.0625 55.515625 
z
" id="DejaVuSans-114"/>
      <path d="M 34.28125 27.484375 
Q 23.390625 27.484375 19.1875 25 
Q 14.984375 22.515625 14.984375 16.5 
Q 14.984375 11.71875 18.140625 8.90625 
Q 21.296875 6.109375 26.703125 6.109375 
Q 34.1875 6.109375 38.703125 11.40625 
Q 43.21875 16.703125 43.21875 25.484375 
L 43.21875 27.484375 
z
M 52.203125 31.203125 
L 52.203125 0 
L 43.21875 0 
L 43.21875 8.296875 
Q 40.140625 3.328125 35.546875 0.953125 
Q 30.953125 -1.421875 24.3125 -1.421875 
Q 15.921875 -1.421875 10.953125 3.296875 
Q 6 8.015625 6 15.921875 
Q 6 25.140625 12.171875 29.828125 
Q 18.359375 34.515625 30.609375 34.515625 
L 43.21875 34.515625 
L 43.21875 35.40625 
Q 43.21875 41.609375 39.140625 45 
Q 35.0625 48.390625 27.6875 48.390625 
Q 23 48.390625 18.546875 47.265625 
Q 14.109375 46.140625 10.015625 43.890625 
L 10.015625 52.203125 
Q 14.9375 54.109375 19.578125 55.046875 
Q 24.21875 56 28.609375 56 
Q 40.484375 56 46.34375 49.84375 
Q 52.203125 43.703125 52.203125 31.203125 
z
" id="DejaVuSans-97"/>
      <path d="M 54.890625 33.015625 
L 54.890625 0 
L 45.90625 0 
L 45.90625 32.71875 
Q 45.90625 40.484375 42.875 44.328125 
Q 39.84375 48.1875 33.796875 48.1875 
Q 26.515625 48.1875 22.3125 43.546875 
Q 18.109375 38.921875 18.109375 30.90625 
L 18.109375 0 
L 9.078125 0 
L 9.078125 54.6875 
L 18.109375 54.6875 
L 18.109375 46.1875 
Q 21.34375 51.125 25.703125 53.5625 
Q 30.078125 56 35.796875 56 
Q 45.21875 56 50.046875 50.171875 
Q 54.890625 44.34375 54.890625 33.015625 
z
" id="DejaVuSans-110"/>
      <path d="M 9.078125 75.984375 
L 18.109375 75.984375 
L 18.109375 31.109375 
L 44.921875 54.6875 
L 56.390625 54.6875 
L 27.390625 29.109375 
L 57.625 0 
L 45.90625 0 
L 18.109375 26.703125 
L 18.109375 0 
L 9.078125 0 
z
" id="DejaVuSans-107"/>
     </defs>
     <g transform="translate(221.563594 284.195)scale(0.3 -0.3)">
      <use xlink:href="#DejaVuSans-114"/>
      <use x="41.113281" xlink:href="#DejaVuSans-97"/>
      <use x="102.392578" xlink:href="#DejaVuSans-110"/>
      <use x="165.771484" xlink:href="#DejaVuSans-107"/>
     </g>
    </g>
   </g>
   <g id="matplotlib.axis_2">
    <g id="ytick_1">
     <g id="line2d_7">
      <defs>
       <path d="M 0 0 
L -3.5 0 
" id="m1625a53d55" style="stroke:#000000;stroke-width:0.8;"/>
      </defs>
      <g>
       <use style="stroke:#000000;stroke-width:0.8;" x="87.714375" xlink:href="#m1625a53d55" y="228.14"/>
      </g>
     </g>
     <g id="text_8">
      <!-- $\mathdefault{10^{0}}$ -->
      <g transform="translate(40.234375 236.878203)scale(0.23 -0.23)">
       <use transform="translate(0 0.765625)" xlink:href="#DejaVuSans-49"/>
       <use transform="translate(63.623047 0.765625)" xlink:href="#DejaVuSans-48"/>
       <use transform="translate(128.203125 39.046875)scale(0.7)" xlink:href="#DejaVuSans-48"/>
      </g>
     </g>
    </g>
    <g id="ytick_2">
     <g id="line2d_8">
      <g>
       <use style="stroke:#000000;stroke-width:0.8;" x="87.714375" xlink:href="#m1625a53d55" y="159.226139"/>
      </g>
     </g>
     <g id="text_9">
      <!-- $\mathdefault{10^{2}}$ -->
      <g transform="translate(40.234375 167.964343)scale(0.23 -0.23)">
       <use transform="translate(0 0.765625)" xlink:href="#DejaVuSans-49"/>
       <use transform="translate(63.623047 0.765625)" xlink:href="#DejaVuSans-48"/>
       <use transform="translate(128.203125 39.046875)scale(0.7)" xlink:href="#DejaVuSans-50"/>
      </g>
     </g>
    </g>
    <g id="ytick_3">
     <g id="line2d_9">
      <g>
       <use style="stroke:#000000;stroke-width:0.8;" x="87.714375" xlink:href="#m1625a53d55" y="90.312279"/>
      </g>
     </g>
     <g id="text_10">
      <!-- $\mathdefault{10^{4}}$ -->
      <g transform="translate(40.234375 99.050482)scale(0.23 -0.23)">
       <use transform="translate(0 0.684375)" xlink:href="#DejaVuSans-49"/>
       <use transform="translate(63.623047 0.684375)" xlink:href="#DejaVuSans-48"/>
       <use transform="translate(128.203125 38.965625)scale(0.7)" xlink:href="#DejaVuSans-52"/>
      </g>
     </g>
    </g>
    <g id="ytick_4">
     <g id="line2d_10">
      <g>
       <use style="stroke:#000000;stroke-width:0.8;" x="87.714375" xlink:href="#m1625a53d55" y="21.398418"/>
      </g>
     </g>
     <g id="text_11">
      <!-- $\mathdefault{10^{6}}$ -->
      <g transform="translate(40.234375 30.136621)scale(0.23 -0.23)">
       <use transform="translate(0 0.765625)" xlink:href="#DejaVuSans-49"/>
       <use transform="translate(63.623047 0.765625)" xlink:href="#DejaVuSans-48"/>
       <use transform="translate(128.203125 39.046875)scale(0.7)" xlink:href="#DejaVuSans-54"/>
      </g>
     </g>
    </g>
    <g id="text_12">
     <!-- #updates -->
     <defs>
      <path d="M 51.125 44 
L 36.921875 44 
L 32.8125 27.6875 
L 47.125 27.6875 
z
M 43.796875 71.78125 
L 38.71875 51.515625 
L 52.984375 51.515625 
L 58.109375 71.78125 
L 65.921875 71.78125 
L 60.890625 51.515625 
L 76.125 51.515625 
L 76.125 44 
L 58.984375 44 
L 54.984375 27.6875 
L 70.515625 27.6875 
L 70.515625 20.21875 
L 53.078125 20.21875 
L 48 0 
L 40.1875 0 
L 45.21875 20.21875 
L 30.90625 20.21875 
L 25.875 0 
L 18.015625 0 
L 23.09375 20.21875 
L 7.71875 20.21875 
L 7.71875 27.6875 
L 24.90625 27.6875 
L 29 44 
L 13.28125 44 
L 13.28125 51.515625 
L 30.90625 51.515625 
L 35.890625 71.78125 
z
" id="DejaVuSans-35"/>
      <path d="M 8.5 21.578125 
L 8.5 54.6875 
L 17.484375 54.6875 
L 17.484375 21.921875 
Q 17.484375 14.15625 20.5 10.265625 
Q 23.53125 6.390625 29.59375 6.390625 
Q 36.859375 6.390625 41.078125 11.03125 
Q 45.3125 15.671875 45.3125 23.6875 
L 45.3125 54.6875 
L 54.296875 54.6875 
L 54.296875 0 
L 45.3125 0 
L 45.3125 8.40625 
Q 42.046875 3.421875 37.71875 1 
Q 33.40625 -1.421875 27.6875 -1.421875 
Q 18.265625 -1.421875 13.375 4.4375 
Q 8.5 10.296875 8.5 21.578125 
z
M 31.109375 56 
z
" id="DejaVuSans-117"/>
      <path d="M 18.109375 8.203125 
L 18.109375 -20.796875 
L 9.078125 -20.796875 
L 9.078125 54.6875 
L 18.109375 54.6875 
L 18.109375 46.390625 
Q 20.953125 51.265625 25.265625 53.625 
Q 29.59375 56 35.59375 56 
Q 45.5625 56 51.78125 48.09375 
Q 58.015625 40.1875 58.015625 27.296875 
Q 58.015625 14.40625 51.78125 6.484375 
Q 45.5625 -1.421875 35.59375 -1.421875 
Q 29.59375 -1.421875 25.265625 0.953125 
Q 20.953125 3.328125 18.109375 8.203125 
z
M 48.6875 27.296875 
Q 48.6875 37.203125 44.609375 42.84375 
Q 40.53125 48.484375 33.40625 48.484375 
Q 26.265625 48.484375 22.1875 42.84375 
Q 18.109375 37.203125 18.109375 27.296875 
Q 18.109375 17.390625 22.1875 11.75 
Q 26.265625 6.109375 33.40625 6.109375 
Q 40.53125 6.109375 44.609375 11.75 
Q 48.6875 17.390625 48.6875 27.296875 
z
" id="DejaVuSans-112"/>
      <path d="M 45.40625 46.390625 
L 45.40625 75.984375 
L 54.390625 75.984375 
L 54.390625 0 
L 45.40625 0 
L 45.40625 8.203125 
Q 42.578125 3.328125 38.25 0.953125 
Q 33.9375 -1.421875 27.875 -1.421875 
Q 17.96875 -1.421875 11.734375 6.484375 
Q 5.515625 14.40625 5.515625 27.296875 
Q 5.515625 40.1875 11.734375 48.09375 
Q 17.96875 56 27.875 56 
Q 33.9375 56 38.25 53.625 
Q 42.578125 51.265625 45.40625 46.390625 
z
M 14.796875 27.296875 
Q 14.796875 17.390625 18.875 11.75 
Q 22.953125 6.109375 30.078125 6.109375 
Q 37.203125 6.109375 41.296875 11.75 
Q 45.40625 17.390625 45.40625 27.296875 
Q 45.40625 37.203125 41.296875 42.84375 
Q 37.203125 48.484375 30.078125 48.484375 
Q 22.953125 48.484375 18.875 42.84375 
Q 14.796875 37.203125 14.796875 27.296875 
z
" id="DejaVuSans-100"/>
      <path d="M 18.3125 70.21875 
L 18.3125 54.6875 
L 36.8125 54.6875 
L 36.8125 47.703125 
L 18.3125 47.703125 
L 18.3125 18.015625 
Q 18.3125 11.328125 20.140625 9.421875 
Q 21.96875 7.515625 27.59375 7.515625 
L 36.8125 7.515625 
L 36.8125 0 
L 27.59375 0 
Q 17.1875 0 13.234375 3.875 
Q 9.28125 7.765625 9.28125 18.015625 
L 9.28125 47.703125 
L 2.6875 47.703125 
L 2.6875 54.6875 
L 9.28125 54.6875 
L 9.28125 70.21875 
z
" id="DejaVuSans-116"/>
      <path d="M 56.203125 29.59375 
L 56.203125 25.203125 
L 14.890625 25.203125 
Q 15.484375 15.921875 20.484375 11.0625 
Q 25.484375 6.203125 34.421875 6.203125 
Q 39.59375 6.203125 44.453125 7.46875 
Q 49.3125 8.734375 54.109375 11.28125 
L 54.109375 2.78125 
Q 49.265625 0.734375 44.1875 -0.34375 
Q 39.109375 -1.421875 33.890625 -1.421875 
Q 20.796875 -1.421875 13.15625 6.1875 
Q 5.515625 13.8125 5.515625 26.8125 
Q 5.515625 40.234375 12.765625 48.109375 
Q 20.015625 56 32.328125 56 
Q 43.359375 56 49.78125 48.890625 
Q 56.203125 41.796875 56.203125 29.59375 
z
M 47.21875 32.234375 
Q 47.125 39.59375 43.09375 43.984375 
Q 39.0625 48.390625 32.421875 48.390625 
Q 24.90625 48.390625 20.390625 44.140625 
Q 15.875 39.890625 15.1875 32.171875 
z
" id="DejaVuSans-101"/>
      <path d="M 44.28125 53.078125 
L 44.28125 44.578125 
Q 40.484375 46.53125 36.375 47.5 
Q 32.28125 48.484375 27.875 48.484375 
Q 21.1875 48.484375 17.84375 46.4375 
Q 14.5 44.390625 14.5 40.28125 
Q 14.5 37.15625 16.890625 35.375 
Q 19.28125 33.59375 26.515625 31.984375 
L 29.59375 31.296875 
Q 39.15625 29.25 43.1875 25.515625 
Q 47.21875 21.78125 47.21875 15.09375 
Q 47.21875 7.46875 41.1875 3.015625 
Q 35.15625 -1.421875 24.609375 -1.421875 
Q 20.21875 -1.421875 15.453125 -0.5625 
Q 10.6875 0.296875 5.421875 2 
L 5.421875 11.28125 
Q 10.40625 8.6875 15.234375 7.390625 
Q 20.0625 6.109375 24.8125 6.109375 
Q 31.15625 6.109375 34.5625 8.28125 
Q 37.984375 10.453125 37.984375 14.40625 
Q 37.984375 18.0625 35.515625 20.015625 
Q 33.0625 21.96875 24.703125 23.78125 
L 21.578125 24.515625 
Q 13.234375 26.265625 9.515625 29.90625 
Q 5.8125 33.546875 5.8125 39.890625 
Q 5.8125 47.609375 11.28125 51.796875 
Q 16.75 56 26.8125 56 
Q 31.78125 56 36.171875 55.265625 
Q 40.578125 54.546875 44.28125 53.078125 
z
" id="DejaVuSans-115"/>
     </defs>
     <g transform="translate(29.995313 192.6575)rotate(-90)scale(0.3 -0.3)">
      <use xlink:href="#DejaVuSans-35"/>
      <use x="83.789062" xlink:href="#DejaVuSans-117"/>
      <use x="147.167969" xlink:href="#DejaVuSans-112"/>
      <use x="210.644531" xlink:href="#DejaVuSans-100"/>
      <use x="274.121094" xlink:href="#DejaVuSans-97"/>
      <use x="335.400391" xlink:href="#DejaVuSans-116"/>
      <use x="374.609375" xlink:href="#DejaVuSans-101"/>
      <use x="436.132812" xlink:href="#DejaVuSans-115"/>
     </g>
    </g>
   </g>
   <g id="line2d_11">
    <path clip-path="url(#p76a6461c5b)" d="M 102.850461 20.271422 
L 103.010293 27.077963 
L 103.329957 29.346037 
L 103.489789 30.605237 
L 103.809453 35.029061 
L 103.969285 36.577079 
L 104.288949 36.976094 
L 104.928277 38.850666 
L 105.088109 38.950188 
L 105.567605 40.747579 
L 105.727437 41.120905 
L 105.887268 43.721417 
L 106.366764 43.991492 
L 106.526596 45.038414 
L 106.84626 45.320475 
L 107.165924 46.571254 
L 107.805252 47.376787 
L 108.124916 47.984224 
L 108.284748 48.114524 
L 108.44458 49.031466 
L 108.604412 49.120124 
L 108.924076 50.595424 
L 109.563404 50.711806 
L 110.042899 52.087866 
L 110.202731 52.827125 
L 110.522395 55.457395 
L 110.842059 56.850371 
L 111.321555 57.369789 
L 111.481387 57.430847 
L 111.801051 57.731959 
L 111.960883 57.766775 
L 114.358362 60.386521 
L 114.518194 60.398477 
L 114.99769 60.719363 
L 115.637018 60.885774 
L 115.956682 61.077797 
L 116.116514 61.153085 
L 116.436178 61.464173 
L 116.755842 61.53684 
L 116.915674 61.963972 
L 117.235337 62.030519 
L 117.395169 62.110314 
L 117.555001 62.357136 
L 118.673825 62.542212 
L 118.993489 63.234326 
L 119.153321 63.324275 
L 119.792649 64.281598 
L 120.272145 64.436655 
L 120.431977 64.614279 
L 120.75164 65.271771 
L 120.911472 65.298748 
L 121.071304 65.526045 
L 121.231136 66.227918 
L 121.710632 66.609241 
L 122.030296 67.001166 
L 122.34996 67.107436 
L 122.829456 67.625419 
L 123.788448 68.017925 
L 124.267944 68.387082 
L 124.747439 68.934608 
L 124.907271 68.978784 
L 125.546599 69.533507 
L 126.026095 69.681681 
L 127.464583 70.295387 
L 127.784247 70.696225 
L 128.10391 70.773074 
L 128.583406 71.232605 
L 129.382566 71.673067 
L 129.542398 71.915317 
L 129.70223 71.93152 
L 129.862062 72.757923 
L 132.259541 73.87913 
L 133.058701 74.342871 
L 134.017693 74.613491 
L 134.177525 75.150299 
L 134.657021 75.424994 
L 135.456181 75.61545 
L 135.775844 75.999189 
L 135.935676 76.011845 
L 136.095508 76.216384 
L 136.415172 76.352351 
L 137.0545 76.509779 
L 137.374164 76.586727 
L 138.013492 77.043956 
L 138.65282 77.262583 
L 139.132316 77.658818 
L 139.931475 77.842393 
L 143.128114 78.574105 
L 143.927274 78.727877 
L 144.246938 78.840775 
L 145.845258 79.427803 
L 146.324754 79.727971 
L 147.603409 79.949439 
L 148.882065 80.563064 
L 149.361561 80.704135 
L 151.119712 81.440082 
L 151.75904 81.544665 
L 152.398368 81.638245 
L 153.517192 81.802585 
L 153.677024 81.981608 
L 154.156519 82.039179 
L 154.795847 82.297081 
L 156.234335 82.536347 
L 157.512991 82.901209 
L 157.992486 83.210811 
L 158.951478 83.474744 
L 160.070302 83.72028 
L 160.230134 83.954249 
L 161.189126 84.207848 
L 161.508789 84.477973 
L 162.307949 84.63177 
L 162.627613 84.844167 
L 164.705429 85.476218 
L 165.504588 85.569665 
L 165.824252 85.692244 
L 166.303748 85.78816 
L 166.783244 85.909204 
L 167.102908 86.050358 
L 168.541396 86.193993 
L 169.020891 86.282898 
L 169.340555 86.562141 
L 169.979883 86.623999 
L 170.299547 86.807571 
L 170.938875 86.96109 
L 171.738035 87.046263 
L 176.21333 88.106743 
L 176.852657 88.114493 
L 177.172321 88.33708 
L 177.651817 88.38305 
L 177.971481 88.553711 
L 179.250137 88.683332 
L 179.569801 88.777575 
L 180.528792 88.939164 
L 180.848456 89.170301 
L 181.96728 89.324999 
L 182.286944 89.43467 
L 184.364759 90.190071 
L 185.163919 90.322758 
L 185.803247 90.599339 
L 186.922071 90.769627 
L 188.999886 91.043669 
L 189.479382 91.122446 
L 190.11871 91.321222 
L 190.438374 91.407917 
L 192.196525 91.932235 
L 192.676021 92.017522 
L 194.753836 92.539709 
L 195.393164 92.572742 
L 195.712828 92.731967 
L 196.352156 92.860934 
L 196.831652 93.037629 
L 197.630812 93.183766 
L 198.110308 93.298422 
L 198.429972 93.541543 
L 199.229131 93.619735 
L 201.466779 94.318993 
L 202.106107 94.440751 
L 210.5772 96.043948 
L 210.896864 96.249474 
L 212.335352 96.487223 
L 212.655016 96.632621 
L 213.614007 96.724217 
L 214.732831 96.869627 
L 216.011487 96.96269 
L 216.331151 97.032869 
L 219.208126 97.398395 
L 219.52779 97.59673 
L 222.244933 97.951518 
L 223.044093 98.061625 
L 225.28174 98.734587 
L 225.601404 98.879784 
L 227.199724 99.367814 
L 228.957875 99.852467 
L 229.437371 100.178727 
L 231.515187 100.530022 
L 232.314346 100.690835 
L 233.593002 100.95971 
L 234.23233 101.045309 
L 236.469977 101.455575 
L 236.789641 101.51873 
L 237.269137 101.665005 
L 237.748633 101.838564 
L 238.547793 102.040349 
L 239.506784 102.201773 
L 239.826448 102.278147 
L 240.78544 102.469122 
L 241.105104 102.638673 
L 242.064096 102.768829 
L 242.223928 102.806718 
L 242.543592 102.994124 
L 242.703424 102.994124 
L 243.023087 103.190981 
L 243.502583 103.351068 
L 243.822247 103.426366 
L 244.301743 103.512886 
L 245.420567 103.643613 
L 246.699222 103.841869 
L 247.018886 103.941991 
L 248.13771 104.129189 
L 248.93687 104.242643 
L 249.895862 104.514627 
L 251.174517 104.787709 
L 251.654013 104.946022 
L 252.293341 105.013816 
L 252.932669 105.162438 
L 254.211324 105.435378 
L 254.530988 105.634024 
L 255.170316 105.721768 
L 255.969476 105.932776 
L 257.727627 106.311534 
L 258.366955 106.588702 
L 258.846451 106.695655 
L 259.166115 107.117473 
L 259.965275 107.279352 
L 261.243931 107.410129 
L 261.563594 107.722986 
L 262.04309 107.848051 
L 262.522586 108.047418 
L 262.84225 108.214785 
L 263.801242 108.444245 
L 264.600402 108.59581 
L 265.559393 108.697714 
L 267.317545 109.039005 
L 267.956873 109.260314 
L 268.436369 109.350831 
L 268.756033 109.436526 
L 269.555192 109.598539 
L 269.874856 109.778803 
L 270.034688 109.795299 
L 270.19452 110.000256 
L 270.833848 110.123467 
L 271.313344 110.225037 
L 271.952672 110.310207 
L 272.591999 110.551297 
L 273.231327 110.825775 
L 273.550991 111.003643 
L 274.989479 111.329232 
L 275.149311 111.335329 
L 275.468975 111.52557 
L 276.74763 111.837601 
L 277.067294 112.072766 
L 277.54679 112.156277 
L 277.866454 112.259703 
L 278.505782 112.383458 
L 279.944269 112.80801 
L 281.862253 113.018065 
L 282.181917 113.203449 
L 283.300741 113.595431 
L 283.780236 113.737951 
L 284.89906 113.961574 
L 285.378556 114.03443 
L 286.49738 114.434098 
L 287.136708 114.698962 
L 287.616203 114.806235 
L 291.931666 115.539044 
L 292.411162 115.603791 
L 292.730826 115.816172 
L 293.689818 115.857362 
L 294.009482 115.948382 
L 294.64881 116.014928 
L 295.128305 116.081771 
L 296.087297 116.182599 
L 297.046289 116.437681 
L 299.6036 116.899234 
L 299.923264 117.041415 
L 300.882256 117.166941 
L 301.361752 117.212029 
L 301.521584 117.375477 
L 302.640407 117.457876 
L 304.718223 117.829682 
L 308.55419 118.572512 
L 308.873854 118.701645 
L 309.992677 118.87221 
L 313.988476 119.712723 
L 314.30814 119.87369 
L 316.865452 120.12392 
L 317.185115 120.200915 
L 317.824443 120.256154 
L 318.463771 120.467945 
L 320.86125 120.900738 
L 321.340746 121.075083 
L 322.939066 121.441964 
L 327.574193 122.216478 
L 328.053689 122.305063 
L 329.172512 122.483821 
L 329.81184 122.561091 
L 330.451168 122.651745 
L 331.090496 122.795322 
L 331.729824 123.221006 
L 335.246127 123.576019 
L 335.725622 123.68697 
L 336.844446 123.869038 
L 337.803438 124.024846 
L 338.76243 124.11052 
L 339.241925 124.254411 
L 340.840245 124.487552 
L 342.118901 124.73931 
L 343.71722 124.93473 
L 344.036884 125.05627 
L 346.274532 125.380088 
L 346.754027 125.473909 
L 347.553187 125.647458 
L 348.352347 125.806995 
L 348.831843 125.839108 
L 349.311339 125.968252 
L 350.270331 126.049536 
L 350.749826 126.395837 
L 351.229322 126.54674 
L 351.708818 126.716215 
L 352.66781 126.784546 
L 352.987474 126.974081 
L 353.46697 127.095956 
L 354.585793 127.503539 
L 354.905457 127.521514 
L 355.384953 127.720681 
L 357.942264 128.525718 
L 358.741424 128.6222 
L 359.380752 128.797453 
L 359.700416 128.935194 
L 361.778231 129.234693 
L 362.737223 129.726719 
L 362.897055 129.726719 
L 363.216719 129.957754 
L 364.335543 130.300303 
L 364.974871 130.474563 
L 365.294534 130.606604 
L 369.609997 131.7309 
L 369.929661 131.754747 
L 370.249325 131.94691 
L 370.568989 132.190636 
L 371.048485 132.438398 
L 371.847645 132.715759 
L 373.286132 132.972445 
L 373.605796 133.102458 
L 373.92546 133.207289 
L 374.564788 133.526259 
L 375.204116 133.742747 
L 375.683612 133.824744 
L 376.163108 133.879659 
L 376.482771 134.045625 
L 376.642603 134.045625 
L 376.802435 134.269816 
L 377.601595 134.468777 
L 377.921259 134.583668 
L 378.560587 134.699447 
L 378.720419 134.728533 
L 379.519579 135.413593 
L 380.318738 135.505306 
L 380.47857 135.81514 
L 380.958066 135.877884 
L 381.27773 136.163534 
L 381.757226 136.259976 
L 382.87605 136.852053 
L 383.195714 136.953051 
L 383.515378 137.191398 
L 383.835041 137.2602 
L 384.634201 137.715295 
L 385.273529 138.111489 
L 385.433361 138.111489 
L 385.912857 138.443636 
L 386.712017 138.481 
L 387.83084 139.014142 
L 388.150504 139.248576 
L 388.470168 139.288008 
L 389.42916 139.892308 
L 389.588992 139.933476 
L 389.748824 140.099289 
L 390.22832 140.141031 
L 390.547984 140.309172 
L 391.02748 140.781547 
L 391.986471 141.134707 
L 392.146303 141.542236 
L 392.465967 141.58821 
L 392.625799 141.867059 
L 392.945463 141.914043 
L 393.424959 142.247129 
L 394.863446 142.786006 
L 395.342942 143.396884 
L 396.142102 144.142599 
L 396.301934 144.142599 
L 396.461766 144.586022 
L 396.78143 144.586022 
L 397.101094 144.927432 
L 397.420758 144.985098 
L 397.58059 145.218013 
L 397.900254 146.063005 
L 398.060086 146.063005 
L 398.859245 146.827313 
L 399.178909 146.958581 
L 399.498573 147.911186 
L 399.658405 148.123452 
L 399.818237 148.123452 
L 399.978069 148.557234 
L 400.617397 148.63077 
L 400.777229 149.003968 
L 401.096893 149.155892 
L 401.416557 149.939551 
L 401.736221 150.597435 
L 401.896053 151.552013 
L 402.215716 151.64189 
L 402.375548 153.158575 
L 402.695212 153.359443 
L 403.014876 154.735238 
L 403.174708 155.649382 
L 403.33454 155.649382 
L 403.494372 155.767679 
L 403.654204 157.799875 
L 403.814036 158.213665 
L 403.973868 160.152071 
L 404.1337 160.31212 
L 404.453364 162.195849 
L 404.773028 162.195849 
L 405.412356 168.172444 
L 405.572188 211.699866 
L 405.572188 211.699866 
" style="fill:none;stroke:#0000ff;stroke-linecap:square;stroke-width:4;"/>
   </g>
   <g id="patch_3">
    <path d="M 87.714375 228.14 
L 87.714375 10.7 
" style="fill:none;stroke:#000000;stroke-linecap:square;stroke-linejoin:miter;stroke-width:0.8;"/>
   </g>
   <g id="patch_4">
    <path d="M 422.514375 228.14 
L 422.514375 10.7 
" style="fill:none;stroke:#000000;stroke-linecap:square;stroke-linejoin:miter;stroke-width:0.8;"/>
   </g>
   <g id="patch_5">
    <path d="M 87.714375 228.14 
L 422.514375 228.14 
" style="fill:none;stroke:#000000;stroke-linecap:square;stroke-linejoin:miter;stroke-width:0.8;"/>
   </g>
   <g id="patch_6">
    <path d="M 87.714375 10.7 
L 422.514375 10.7 
" style="fill:none;stroke:#000000;stroke-linecap:square;stroke-linejoin:miter;stroke-width:0.8;"/>
   </g>
  </g>
 </g>
 <defs>
  <clipPath id="p76a6461c5b">
   <rect height="217.44" width="334.8" x="87.714375" y="10.7"/>
  </clipPath>
 </defs>
</svg>
