<?xml version="1.0" encoding="utf-8" standalone="no"?>
<!DOCTYPE svg PUBLIC "-//W3C//DTD SVG 1.1//EN"
  "http://www.w3.org/Graphics/SVG/1.1/DTD/svg11.dtd">
<!-- Created with matplotlib (https://matplotlib.org/) -->
<svg height="297.634062pt" version="1.1" viewBox="0 0 429.311562 297.634062" width="429.311562pt" xmlns="http://www.w3.org/2000/svg" xmlns:xlink="http://www.w3.org/1999/xlink">
 <defs>
  <style type="text/css">
*{stroke-linecap:butt;stroke-linejoin:round;}
  </style>
 </defs>
 <g id="figure_1">
  <g id="patch_1">
   <path d="M 0 297.634062 
L 429.311562 297.634062 
L 429.311562 0 
L 0 0 
z
" style="fill:#ffffff;"/>
  </g>
  <g id="axes_1">
   <g id="patch_2">
    <path d="M 83.811563 228.14 
L 418.611562 228.14 
L 418.611562 10.7 
L 83.811563 10.7 
z
" style="fill:#ffffff;"/>
   </g>
   <g id="matplotlib.axis_1">
    <g id="xtick_1">
     <g id="line2d_1">
      <defs>
       <path d="M 0 0 
L 0 3.5 
" id="m6f7ac8afd6" style="stroke:#000000;stroke-width:0.8;"/>
      </defs>
      <g>
       <use style="stroke:#000000;stroke-width:0.8;" x="149.48199" xlink:href="#m6f7ac8afd6" y="228.14"/>
      </g>
     </g>
     <g id="text_1">
      <!-- $\mathdefault{10^{1}}$ -->
      <defs>
       <path d="M 12.40625 8.296875 
L 28.515625 8.296875 
L 28.515625 63.921875 
L 10.984375 60.40625 
L 10.984375 69.390625 
L 28.421875 72.90625 
L 38.28125 72.90625 
L 38.28125 8.296875 
L 54.390625 8.296875 
L 54.390625 0 
L 12.40625 0 
z
" id="DejaVuSans-49"/>
       <path d="M 31.78125 66.40625 
Q 24.171875 66.40625 20.328125 58.90625 
Q 16.5 51.421875 16.5 36.375 
Q 16.5 21.390625 20.328125 13.890625 
Q 24.171875 6.390625 31.78125 6.390625 
Q 39.453125 6.390625 43.28125 13.890625 
Q 47.125 21.390625 47.125 36.375 
Q 47.125 51.421875 43.28125 58.90625 
Q 39.453125 66.40625 31.78125 66.40625 
z
M 31.78125 74.21875 
Q 44.046875 74.21875 50.515625 64.515625 
Q 56.984375 54.828125 56.984375 36.375 
Q 56.984375 17.96875 50.515625 8.265625 
Q 44.046875 -1.421875 31.78125 -1.421875 
Q 19.53125 -1.421875 13.0625 8.265625 
Q 6.59375 17.96875 6.59375 36.375 
Q 6.59375 54.828125 13.0625 64.515625 
Q 19.53125 74.21875 31.78125 74.21875 
z
" id="DejaVuSans-48"/>
      </defs>
      <g transform="translate(129.24199 252.616406)scale(0.23 -0.23)">
       <use transform="translate(0 0.684375)" xlink:href="#DejaVuSans-49"/>
       <use transform="translate(63.623047 0.684375)" xlink:href="#DejaVuSans-48"/>
       <use transform="translate(128.203125 38.965625)scale(0.7)" xlink:href="#DejaVuSans-49"/>
      </g>
     </g>
    </g>
    <g id="xtick_2">
     <g id="line2d_2">
      <g>
       <use style="stroke:#000000;stroke-width:0.8;" x="250.386482" xlink:href="#m6f7ac8afd6" y="228.14"/>
      </g>
     </g>
     <g id="text_2">
      <!-- $\mathdefault{10^{3}}$ -->
      <defs>
       <path d="M 40.578125 39.3125 
Q 47.65625 37.796875 51.625 33 
Q 55.609375 28.21875 55.609375 21.1875 
Q 55.609375 10.40625 48.1875 4.484375 
Q 40.765625 -1.421875 27.09375 -1.421875 
Q 22.515625 -1.421875 17.65625 -0.515625 
Q 12.796875 0.390625 7.625 2.203125 
L 7.625 11.71875 
Q 11.71875 9.328125 16.59375 8.109375 
Q 21.484375 6.890625 26.8125 6.890625 
Q 36.078125 6.890625 40.9375 10.546875 
Q 45.796875 14.203125 45.796875 21.1875 
Q 45.796875 27.640625 41.28125 31.265625 
Q 36.765625 34.90625 28.71875 34.90625 
L 20.21875 34.90625 
L 20.21875 43.015625 
L 29.109375 43.015625 
Q 36.375 43.015625 40.234375 45.921875 
Q 44.09375 48.828125 44.09375 54.296875 
Q 44.09375 59.90625 40.109375 62.90625 
Q 36.140625 65.921875 28.71875 65.921875 
Q 24.65625 65.921875 20.015625 65.03125 
Q 15.375 64.15625 9.8125 62.3125 
L 9.8125 71.09375 
Q 15.4375 72.65625 20.34375 73.4375 
Q 25.25 74.21875 29.59375 74.21875 
Q 40.828125 74.21875 47.359375 69.109375 
Q 53.90625 64.015625 53.90625 55.328125 
Q 53.90625 49.265625 50.4375 45.09375 
Q 46.96875 40.921875 40.578125 39.3125 
z
" id="DejaVuSans-51"/>
      </defs>
      <g transform="translate(230.146482 252.616406)scale(0.23 -0.23)">
       <use transform="translate(0 0.765625)" xlink:href="#DejaVuSans-49"/>
       <use transform="translate(63.623047 0.765625)" xlink:href="#DejaVuSans-48"/>
       <use transform="translate(128.203125 39.046875)scale(0.7)" xlink:href="#DejaVuSans-51"/>
      </g>
     </g>
    </g>
    <g id="xtick_3">
     <g id="line2d_3">
      <g>
       <use style="stroke:#000000;stroke-width:0.8;" x="351.290974" xlink:href="#m6f7ac8afd6" y="228.14"/>
      </g>
     </g>
     <g id="text_3">
      <!-- $\mathdefault{10^{5}}$ -->
      <defs>
       <path d="M 10.796875 72.90625 
L 49.515625 72.90625 
L 49.515625 64.59375 
L 19.828125 64.59375 
L 19.828125 46.734375 
Q 21.96875 47.46875 24.109375 47.828125 
Q 26.265625 48.1875 28.421875 48.1875 
Q 40.625 48.1875 47.75 41.5 
Q 54.890625 34.8125 54.890625 23.390625 
Q 54.890625 11.625 47.5625 5.09375 
Q 40.234375 -1.421875 26.90625 -1.421875 
Q 22.3125 -1.421875 17.546875 -0.640625 
Q 12.796875 0.140625 7.71875 1.703125 
L 7.71875 11.625 
Q 12.109375 9.234375 16.796875 8.0625 
Q 21.484375 6.890625 26.703125 6.890625 
Q 35.15625 6.890625 40.078125 11.328125 
Q 45.015625 15.765625 45.015625 23.390625 
Q 45.015625 31 40.078125 35.4375 
Q 35.15625 39.890625 26.703125 39.890625 
Q 22.75 39.890625 18.8125 39.015625 
Q 14.890625 38.140625 10.796875 36.28125 
z
" id="DejaVuSans-53"/>
      </defs>
      <g transform="translate(331.050974 252.616406)scale(0.23 -0.23)">
       <use transform="translate(0 0.684375)" xlink:href="#DejaVuSans-49"/>
       <use transform="translate(63.623047 0.684375)" xlink:href="#DejaVuSans-48"/>
       <use transform="translate(128.203125 38.965625)scale(0.7)" xlink:href="#DejaVuSans-53"/>
      </g>
     </g>
    </g>
    <g id="text_4">
     <!-- #updates -->
     <defs>
      <path d="M 51.125 44 
L 36.921875 44 
L 32.8125 27.6875 
L 47.125 27.6875 
z
M 43.796875 71.78125 
L 38.71875 51.515625 
L 52.984375 51.515625 
L 58.109375 71.78125 
L 65.921875 71.78125 
L 60.890625 51.515625 
L 76.125 51.515625 
L 76.125 44 
L 58.984375 44 
L 54.984375 27.6875 
L 70.515625 27.6875 
L 70.515625 20.21875 
L 53.078125 20.21875 
L 48 0 
L 40.1875 0 
L 45.21875 20.21875 
L 30.90625 20.21875 
L 25.875 0 
L 18.015625 0 
L 23.09375 20.21875 
L 7.71875 20.21875 
L 7.71875 27.6875 
L 24.90625 27.6875 
L 29 44 
L 13.28125 44 
L 13.28125 51.515625 
L 30.90625 51.515625 
L 35.890625 71.78125 
z
" id="DejaVuSans-35"/>
      <path d="M 8.5 21.578125 
L 8.5 54.6875 
L 17.484375 54.6875 
L 17.484375 21.921875 
Q 17.484375 14.15625 20.5 10.265625 
Q 23.53125 6.390625 29.59375 6.390625 
Q 36.859375 6.390625 41.078125 11.03125 
Q 45.3125 15.671875 45.3125 23.6875 
L 45.3125 54.6875 
L 54.296875 54.6875 
L 54.296875 0 
L 45.3125 0 
L 45.3125 8.40625 
Q 42.046875 3.421875 37.71875 1 
Q 33.40625 -1.421875 27.6875 -1.421875 
Q 18.265625 -1.421875 13.375 4.4375 
Q 8.5 10.296875 8.5 21.578125 
z
M 31.109375 56 
z
" id="DejaVuSans-117"/>
      <path d="M 18.109375 8.203125 
L 18.109375 -20.796875 
L 9.078125 -20.796875 
L 9.078125 54.6875 
L 18.109375 54.6875 
L 18.109375 46.390625 
Q 20.953125 51.265625 25.265625 53.625 
Q 29.59375 56 35.59375 56 
Q 45.5625 56 51.78125 48.09375 
Q 58.015625 40.1875 58.015625 27.296875 
Q 58.015625 14.40625 51.78125 6.484375 
Q 45.5625 -1.421875 35.59375 -1.421875 
Q 29.59375 -1.421875 25.265625 0.953125 
Q 20.953125 3.328125 18.109375 8.203125 
z
M 48.6875 27.296875 
Q 48.6875 37.203125 44.609375 42.84375 
Q 40.53125 48.484375 33.40625 48.484375 
Q 26.265625 48.484375 22.1875 42.84375 
Q 18.109375 37.203125 18.109375 27.296875 
Q 18.109375 17.390625 22.1875 11.75 
Q 26.265625 6.109375 33.40625 6.109375 
Q 40.53125 6.109375 44.609375 11.75 
Q 48.6875 17.390625 48.6875 27.296875 
z
" id="DejaVuSans-112"/>
      <path d="M 45.40625 46.390625 
L 45.40625 75.984375 
L 54.390625 75.984375 
L 54.390625 0 
L 45.40625 0 
L 45.40625 8.203125 
Q 42.578125 3.328125 38.25 0.953125 
Q 33.9375 -1.421875 27.875 -1.421875 
Q 17.96875 -1.421875 11.734375 6.484375 
Q 5.515625 14.40625 5.515625 27.296875 
Q 5.515625 40.1875 11.734375 48.09375 
Q 17.96875 56 27.875 56 
Q 33.9375 56 38.25 53.625 
Q 42.578125 51.265625 45.40625 46.390625 
z
M 14.796875 27.296875 
Q 14.796875 17.390625 18.875 11.75 
Q 22.953125 6.109375 30.078125 6.109375 
Q 37.203125 6.109375 41.296875 11.75 
Q 45.40625 17.390625 45.40625 27.296875 
Q 45.40625 37.203125 41.296875 42.84375 
Q 37.203125 48.484375 30.078125 48.484375 
Q 22.953125 48.484375 18.875 42.84375 
Q 14.796875 37.203125 14.796875 27.296875 
z
" id="DejaVuSans-100"/>
      <path d="M 34.28125 27.484375 
Q 23.390625 27.484375 19.1875 25 
Q 14.984375 22.515625 14.984375 16.5 
Q 14.984375 11.71875 18.140625 8.90625 
Q 21.296875 6.109375 26.703125 6.109375 
Q 34.1875 6.109375 38.703125 11.40625 
Q 43.21875 16.703125 43.21875 25.484375 
L 43.21875 27.484375 
z
M 52.203125 31.203125 
L 52.203125 0 
L 43.21875 0 
L 43.21875 8.296875 
Q 40.140625 3.328125 35.546875 0.953125 
Q 30.953125 -1.421875 24.3125 -1.421875 
Q 15.921875 -1.421875 10.953125 3.296875 
Q 6 8.015625 6 15.921875 
Q 6 25.140625 12.171875 29.828125 
Q 18.359375 34.515625 30.609375 34.515625 
L 43.21875 34.515625 
L 43.21875 35.40625 
Q 43.21875 41.609375 39.140625 45 
Q 35.0625 48.390625 27.6875 48.390625 
Q 23 48.390625 18.546875 47.265625 
Q 14.109375 46.140625 10.015625 43.890625 
L 10.015625 52.203125 
Q 14.9375 54.109375 19.578125 55.046875 
Q 24.21875 56 28.609375 56 
Q 40.484375 56 46.34375 49.84375 
Q 52.203125 43.703125 52.203125 31.203125 
z
" id="DejaVuSans-97"/>
      <path d="M 18.3125 70.21875 
L 18.3125 54.6875 
L 36.8125 54.6875 
L 36.8125 47.703125 
L 18.3125 47.703125 
L 18.3125 18.015625 
Q 18.3125 11.328125 20.140625 9.421875 
Q 21.96875 7.515625 27.59375 7.515625 
L 36.8125 7.515625 
L 36.8125 0 
L 27.59375 0 
Q 17.1875 0 13.234375 3.875 
Q 9.28125 7.765625 9.28125 18.015625 
L 9.28125 47.703125 
L 2.6875 47.703125 
L 2.6875 54.6875 
L 9.28125 54.6875 
L 9.28125 70.21875 
z
" id="DejaVuSans-116"/>
      <path d="M 56.203125 29.59375 
L 56.203125 25.203125 
L 14.890625 25.203125 
Q 15.484375 15.921875 20.484375 11.0625 
Q 25.484375 6.203125 34.421875 6.203125 
Q 39.59375 6.203125 44.453125 7.46875 
Q 49.3125 8.734375 54.109375 11.28125 
L 54.109375 2.78125 
Q 49.265625 0.734375 44.1875 -0.34375 
Q 39.109375 -1.421875 33.890625 -1.421875 
Q 20.796875 -1.421875 13.15625 6.1875 
Q 5.515625 13.8125 5.515625 26.8125 
Q 5.515625 40.234375 12.765625 48.109375 
Q 20.015625 56 32.328125 56 
Q 43.359375 56 49.78125 48.890625 
Q 56.203125 41.796875 56.203125 29.59375 
z
M 47.21875 32.234375 
Q 47.125 39.59375 43.09375 43.984375 
Q 39.0625 48.390625 32.421875 48.390625 
Q 24.90625 48.390625 20.390625 44.140625 
Q 15.875 39.890625 15.1875 32.171875 
z
" id="DejaVuSans-101"/>
      <path d="M 44.28125 53.078125 
L 44.28125 44.578125 
Q 40.484375 46.53125 36.375 47.5 
Q 32.28125 48.484375 27.875 48.484375 
Q 21.1875 48.484375 17.84375 46.4375 
Q 14.5 44.390625 14.5 40.28125 
Q 14.5 37.15625 16.890625 35.375 
Q 19.28125 33.59375 26.515625 31.984375 
L 29.59375 31.296875 
Q 39.15625 29.25 43.1875 25.515625 
Q 47.21875 21.78125 47.21875 15.09375 
Q 47.21875 7.46875 41.1875 3.015625 
Q 35.15625 -1.421875 24.609375 -1.421875 
Q 20.21875 -1.421875 15.453125 -0.5625 
Q 10.6875 0.296875 5.421875 2 
L 5.421875 11.28125 
Q 10.40625 8.6875 15.234375 7.390625 
Q 20.0625 6.109375 24.8125 6.109375 
Q 31.15625 6.109375 34.5625 8.28125 
Q 37.984375 10.453125 37.984375 14.40625 
Q 37.984375 18.0625 35.515625 20.015625 
Q 33.0625 21.96875 24.703125 23.78125 
L 21.578125 24.515625 
Q 13.234375 26.265625 9.515625 29.90625 
Q 5.8125 33.546875 5.8125 39.890625 
Q 5.8125 47.609375 11.28125 51.796875 
Q 16.75 56 26.8125 56 
Q 31.78125 56 36.171875 55.265625 
Q 40.578125 54.546875 44.28125 53.078125 
z
" id="DejaVuSans-115"/>
     </defs>
     <g transform="translate(177.974063 284.195)scale(0.3 -0.3)">
      <use xlink:href="#DejaVuSans-35"/>
      <use x="83.789062" xlink:href="#DejaVuSans-117"/>
      <use x="147.167969" xlink:href="#DejaVuSans-112"/>
      <use x="210.644531" xlink:href="#DejaVuSans-100"/>
      <use x="274.121094" xlink:href="#DejaVuSans-97"/>
      <use x="335.400391" xlink:href="#DejaVuSans-116"/>
      <use x="374.609375" xlink:href="#DejaVuSans-101"/>
      <use x="436.132812" xlink:href="#DejaVuSans-115"/>
     </g>
    </g>
   </g>
   <g id="matplotlib.axis_2">
    <g id="ytick_1">
     <g id="line2d_4">
      <defs>
       <path d="M 0 0 
L -3.5 0 
" id="mb663113f92" style="stroke:#000000;stroke-width:0.8;"/>
      </defs>
      <g>
       <use style="stroke:#000000;stroke-width:0.8;" x="83.811563" xlink:href="#mb663113f92" y="218.360621"/>
      </g>
     </g>
     <g id="text_5">
      <!-- 0.0 -->
      <defs>
       <path d="M 10.6875 12.40625 
L 21 12.40625 
L 21 0 
L 10.6875 0 
z
" id="DejaVuSans-46"/>
      </defs>
      <g transform="translate(40.234375 227.098825)scale(0.23 -0.23)">
       <use xlink:href="#DejaVuSans-48"/>
       <use x="63.623047" xlink:href="#DejaVuSans-46"/>
       <use x="95.410156" xlink:href="#DejaVuSans-48"/>
      </g>
     </g>
    </g>
    <g id="ytick_2">
     <g id="line2d_5">
      <g>
       <use style="stroke:#000000;stroke-width:0.8;" x="83.811563" xlink:href="#mb663113f92" y="178.805224"/>
      </g>
     </g>
     <g id="text_6">
      <!-- 0.2 -->
      <defs>
       <path d="M 19.1875 8.296875 
L 53.609375 8.296875 
L 53.609375 0 
L 7.328125 0 
L 7.328125 8.296875 
Q 12.9375 14.109375 22.625 23.890625 
Q 32.328125 33.6875 34.8125 36.53125 
Q 39.546875 41.84375 41.421875 45.53125 
Q 43.3125 49.21875 43.3125 52.78125 
Q 43.3125 58.59375 39.234375 62.25 
Q 35.15625 65.921875 28.609375 65.921875 
Q 23.96875 65.921875 18.8125 64.3125 
Q 13.671875 62.703125 7.8125 59.421875 
L 7.8125 69.390625 
Q 13.765625 71.78125 18.9375 73 
Q 24.125 74.21875 28.421875 74.21875 
Q 39.75 74.21875 46.484375 68.546875 
Q 53.21875 62.890625 53.21875 53.421875 
Q 53.21875 48.921875 51.53125 44.890625 
Q 49.859375 40.875 45.40625 35.40625 
Q 44.1875 33.984375 37.640625 27.21875 
Q 31.109375 20.453125 19.1875 8.296875 
z
" id="DejaVuSans-50"/>
      </defs>
      <g transform="translate(40.234375 187.543428)scale(0.23 -0.23)">
       <use xlink:href="#DejaVuSans-48"/>
       <use x="63.623047" xlink:href="#DejaVuSans-46"/>
       <use x="95.410156" xlink:href="#DejaVuSans-50"/>
      </g>
     </g>
    </g>
    <g id="ytick_3">
     <g id="line2d_6">
      <g>
       <use style="stroke:#000000;stroke-width:0.8;" x="83.811563" xlink:href="#mb663113f92" y="139.249827"/>
      </g>
     </g>
     <g id="text_7">
      <!-- 0.4 -->
      <defs>
       <path d="M 37.796875 64.3125 
L 12.890625 25.390625 
L 37.796875 25.390625 
z
M 35.203125 72.90625 
L 47.609375 72.90625 
L 47.609375 25.390625 
L 58.015625 25.390625 
L 58.015625 17.1875 
L 47.609375 17.1875 
L 47.609375 0 
L 37.796875 0 
L 37.796875 17.1875 
L 4.890625 17.1875 
L 4.890625 26.703125 
z
" id="DejaVuSans-52"/>
      </defs>
      <g transform="translate(40.234375 147.988031)scale(0.23 -0.23)">
       <use xlink:href="#DejaVuSans-48"/>
       <use x="63.623047" xlink:href="#DejaVuSans-46"/>
       <use x="95.410156" xlink:href="#DejaVuSans-52"/>
      </g>
     </g>
    </g>
    <g id="ytick_4">
     <g id="line2d_7">
      <g>
       <use style="stroke:#000000;stroke-width:0.8;" x="83.811563" xlink:href="#mb663113f92" y="99.69443"/>
      </g>
     </g>
     <g id="text_8">
      <!-- 0.6 -->
      <defs>
       <path d="M 33.015625 40.375 
Q 26.375 40.375 22.484375 35.828125 
Q 18.609375 31.296875 18.609375 23.390625 
Q 18.609375 15.53125 22.484375 10.953125 
Q 26.375 6.390625 33.015625 6.390625 
Q 39.65625 6.390625 43.53125 10.953125 
Q 47.40625 15.53125 47.40625 23.390625 
Q 47.40625 31.296875 43.53125 35.828125 
Q 39.65625 40.375 33.015625 40.375 
z
M 52.59375 71.296875 
L 52.59375 62.3125 
Q 48.875 64.0625 45.09375 64.984375 
Q 41.3125 65.921875 37.59375 65.921875 
Q 27.828125 65.921875 22.671875 59.328125 
Q 17.53125 52.734375 16.796875 39.40625 
Q 19.671875 43.65625 24.015625 45.921875 
Q 28.375 48.1875 33.59375 48.1875 
Q 44.578125 48.1875 50.953125 41.515625 
Q 57.328125 34.859375 57.328125 23.390625 
Q 57.328125 12.15625 50.6875 5.359375 
Q 44.046875 -1.421875 33.015625 -1.421875 
Q 20.359375 -1.421875 13.671875 8.265625 
Q 6.984375 17.96875 6.984375 36.375 
Q 6.984375 53.65625 15.1875 63.9375 
Q 23.390625 74.21875 37.203125 74.21875 
Q 40.921875 74.21875 44.703125 73.484375 
Q 48.484375 72.75 52.59375 71.296875 
z
" id="DejaVuSans-54"/>
      </defs>
      <g transform="translate(40.234375 108.432634)scale(0.23 -0.23)">
       <use xlink:href="#DejaVuSans-48"/>
       <use x="63.623047" xlink:href="#DejaVuSans-46"/>
       <use x="95.410156" xlink:href="#DejaVuSans-54"/>
      </g>
     </g>
    </g>
    <g id="ytick_5">
     <g id="line2d_8">
      <g>
       <use style="stroke:#000000;stroke-width:0.8;" x="83.811563" xlink:href="#mb663113f92" y="60.139033"/>
      </g>
     </g>
     <g id="text_9">
      <!-- 0.8 -->
      <defs>
       <path d="M 31.78125 34.625 
Q 24.75 34.625 20.71875 30.859375 
Q 16.703125 27.09375 16.703125 20.515625 
Q 16.703125 13.921875 20.71875 10.15625 
Q 24.75 6.390625 31.78125 6.390625 
Q 38.8125 6.390625 42.859375 10.171875 
Q 46.921875 13.96875 46.921875 20.515625 
Q 46.921875 27.09375 42.890625 30.859375 
Q 38.875 34.625 31.78125 34.625 
z
M 21.921875 38.8125 
Q 15.578125 40.375 12.03125 44.71875 
Q 8.5 49.078125 8.5 55.328125 
Q 8.5 64.0625 14.71875 69.140625 
Q 20.953125 74.21875 31.78125 74.21875 
Q 42.671875 74.21875 48.875 69.140625 
Q 55.078125 64.0625 55.078125 55.328125 
Q 55.078125 49.078125 51.53125 44.71875 
Q 48 40.375 41.703125 38.8125 
Q 48.828125 37.15625 52.796875 32.3125 
Q 56.78125 27.484375 56.78125 20.515625 
Q 56.78125 9.90625 50.3125 4.234375 
Q 43.84375 -1.421875 31.78125 -1.421875 
Q 19.734375 -1.421875 13.25 4.234375 
Q 6.78125 9.90625 6.78125 20.515625 
Q 6.78125 27.484375 10.78125 32.3125 
Q 14.796875 37.15625 21.921875 38.8125 
z
M 18.3125 54.390625 
Q 18.3125 48.734375 21.84375 45.5625 
Q 25.390625 42.390625 31.78125 42.390625 
Q 38.140625 42.390625 41.71875 45.5625 
Q 45.3125 48.734375 45.3125 54.390625 
Q 45.3125 60.0625 41.71875 63.234375 
Q 38.140625 66.40625 31.78125 66.40625 
Q 25.390625 66.40625 21.84375 63.234375 
Q 18.3125 60.0625 18.3125 54.390625 
z
" id="DejaVuSans-56"/>
      </defs>
      <g transform="translate(40.234375 68.877236)scale(0.23 -0.23)">
       <use xlink:href="#DejaVuSans-48"/>
       <use x="63.623047" xlink:href="#DejaVuSans-46"/>
       <use x="95.410156" xlink:href="#DejaVuSans-56"/>
      </g>
     </g>
    </g>
    <g id="ytick_6">
     <g id="line2d_9">
      <g>
       <use style="stroke:#000000;stroke-width:0.8;" x="83.811563" xlink:href="#mb663113f92" y="20.583636"/>
      </g>
     </g>
     <g id="text_10">
      <!-- 1.0 -->
      <g transform="translate(40.234375 29.321839)scale(0.23 -0.23)">
       <use xlink:href="#DejaVuSans-49"/>
       <use x="63.623047" xlink:href="#DejaVuSans-46"/>
       <use x="95.410156" xlink:href="#DejaVuSans-48"/>
      </g>
     </g>
    </g>
    <g id="text_11">
     <!-- ICDF -->
     <defs>
      <path d="M 9.8125 72.90625 
L 19.671875 72.90625 
L 19.671875 0 
L 9.8125 0 
z
" id="DejaVuSans-73"/>
      <path d="M 64.40625 67.28125 
L 64.40625 56.890625 
Q 59.421875 61.53125 53.78125 63.8125 
Q 48.140625 66.109375 41.796875 66.109375 
Q 29.296875 66.109375 22.65625 58.46875 
Q 16.015625 50.828125 16.015625 36.375 
Q 16.015625 21.96875 22.65625 14.328125 
Q 29.296875 6.6875 41.796875 6.6875 
Q 48.140625 6.6875 53.78125 8.984375 
Q 59.421875 11.28125 64.40625 15.921875 
L 64.40625 5.609375 
Q 59.234375 2.09375 53.4375 0.328125 
Q 47.65625 -1.421875 41.21875 -1.421875 
Q 24.65625 -1.421875 15.125 8.703125 
Q 5.609375 18.84375 5.609375 36.375 
Q 5.609375 53.953125 15.125 64.078125 
Q 24.65625 74.21875 41.21875 74.21875 
Q 47.75 74.21875 53.53125 72.484375 
Q 59.328125 70.75 64.40625 67.28125 
z
" id="DejaVuSans-67"/>
      <path d="M 19.671875 64.796875 
L 19.671875 8.109375 
L 31.59375 8.109375 
Q 46.6875 8.109375 53.6875 14.9375 
Q 60.6875 21.78125 60.6875 36.53125 
Q 60.6875 51.171875 53.6875 57.984375 
Q 46.6875 64.796875 31.59375 64.796875 
z
M 9.8125 72.90625 
L 30.078125 72.90625 
Q 51.265625 72.90625 61.171875 64.09375 
Q 71.09375 55.28125 71.09375 36.53125 
Q 71.09375 17.671875 61.125 8.828125 
Q 51.171875 0 30.078125 0 
L 9.8125 0 
z
" id="DejaVuSans-68"/>
      <path d="M 9.8125 72.90625 
L 51.703125 72.90625 
L 51.703125 64.59375 
L 19.671875 64.59375 
L 19.671875 43.109375 
L 48.578125 43.109375 
L 48.578125 34.8125 
L 19.671875 34.8125 
L 19.671875 0 
L 9.8125 0 
z
" id="DejaVuSans-70"/>
     </defs>
     <g transform="translate(29.995313 154.496562)rotate(-90)scale(0.3 -0.3)">
      <use xlink:href="#DejaVuSans-73"/>
      <use x="29.492188" xlink:href="#DejaVuSans-67"/>
      <use x="99.316406" xlink:href="#DejaVuSans-68"/>
      <use x="176.318359" xlink:href="#DejaVuSans-70"/>
     </g>
    </g>
   </g>
   <g id="line2d_10">
    <path clip-path="url(#pec4f2f18ff)" d="M -1 20.687687 
L 161.108656 20.792152 
L 163.545735 20.89641 
L 189.103644 21.000667 
L 189.810516 21.104925 
L 193.630796 21.209183 
L 194.207438 21.313441 
L 195.585951 21.313441 
L 195.851544 21.626214 
L 198.34413 21.730472 
L 199.03978 21.938987 
L 202.02259 22.043245 
L 202.417396 22.147503 
L 205.171367 22.251761 
L 205.34322 22.460276 
L 207.771288 22.564534 
L 208.075614 22.668792 
L 208.671872 22.773049 
L 209.108654 22.981565 
L 211.170782 23.085823 
L 211.431632 23.294338 
L 213.175483 23.398596 
L 213.41365 23.502854 
L 213.997981 23.607112 
L 214.227419 23.711369 
L 214.790719 23.815627 
L 215.121875 24.024143 
L 215.448102 24.024143 
L 215.769542 24.545432 
L 216.190923 24.545432 
L 216.398613 24.753947 
L 216.909385 24.858205 
L 217.110406 24.962463 
L 217.89654 24.962463 
L 218.088744 25.170978 
L 218.373926 25.379494 
L 218.655443 25.483751 
L 218.841132 25.588009 
L 219.207854 25.692267 
L 219.388939 25.900783 
L 220.445101 26.00504 
L 220.616283 26.109298 
L 220.870574 26.213556 
L 221.038476 26.422071 
L 221.370469 26.526329 
L 221.534598 26.839102 
L 222.019735 26.839102 
L 222.17909 27.047618 
L 222.494363 27.151876 
L 222.650315 27.256133 
L 222.882181 27.360391 
L 223.035406 27.464649 
L 223.563411 27.568907 
L 223.785861 27.777422 
L 224.078991 27.88168 
L 224.368251 28.194453 
L 224.582717 28.298711 
L 224.795104 28.715742 
L 224.935561 28.924258 
L 225.282813 29.028516 
L 225.556705 29.341289 
L 225.827217 29.445547 
L 225.96123 29.654062 
L 226.489235 29.75832 
L 226.748541 29.966835 
L 226.877053 29.966835 
L 227.068417 30.383867 
L 227.320998 30.488124 
L 227.508541 30.592382 
L 227.756127 30.69664 
L 228.363122 31.530702 
L 228.660429 31.63496 
L 228.895403 31.843475 
L 229.127884 31.947733 
L 229.472045 32.364764 
L 229.528883 32.364764 
L 229.698518 32.57328 
L 229.810884 32.677537 
L 230.033899 32.886053 
L 230.199684 32.990311 
L 230.364224 33.407342 
L 230.527538 33.824373 
L 230.850558 33.928631 
L 231.0103 34.137146 
L 231.168885 34.241404 
L 231.378563 34.449919 
L 231.740738 34.554177 
L 232.04648 34.971208 
L 232.197766 35.075466 
L 232.348014 35.388239 
L 232.645455 35.492497 
L 233.035864 36.118044 
L 233.419438 36.222301 
L 233.655807 36.535075 
L 233.702776 36.535075 
L 233.843083 36.74359 
L 233.982496 36.847848 
L 234.167012 36.952106 
L 234.395493 37.264879 
L 234.666562 37.264879 
L 234.889919 37.890426 
L 235.329917 37.994684 
L 235.503471 38.203199 
L 235.803922 38.307457 
L 236.226115 39.141519 
L 236.309586 39.141519 
L 236.516883 39.662808 
L 236.803843 39.662808 
L 236.966149 39.975581 
L 237.087094 40.079839 
L 237.603608 41.122417 
L 237.876769 41.226674 
L 238.108227 41.539448 
L 238.18484 41.539448 
L 238.299258 41.852221 
L 238.413083 41.956479 
L 238.936582 43.103314 
L 239.047151 43.103314 
L 239.193714 43.416087 
L 239.339304 43.416087 
L 239.483932 43.624603 
L 239.770356 43.728861 
L 239.982744 44.041634 
L 240.193092 44.145892 
L 240.401441 44.771438 
L 240.607826 45.084212 
L 240.642036 45.084212 
L 240.812286 45.501243 
L 241.115443 46.126789 
L 241.414462 46.231047 
L 241.644244 46.648078 
L 241.741989 46.752336 
L 241.903935 47.273625 
L 242.032635 47.273625 
L 242.160583 47.48214 
L 242.256057 47.586398 
L 242.540006 48.211945 
L 242.69618 48.316203 
L 242.851249 48.524718 
L 243.127637 48.628976 
L 243.249366 48.941749 
L 243.490813 49.046007 
L 243.610547 49.150265 
L 243.699919 49.254522 
L 243.818518 49.35878 
L 243.877578 49.463038 
L 244.112238 49.984327 
L 244.141394 49.984327 
L 244.37326 50.922647 
L 244.602698 51.026904 
L 245.08242 52.382255 
L 245.165997 52.486513 
L 245.304588 52.590771 
L 245.332201 52.590771 
L 245.497154 53.007802 
L 245.579167 53.007802 
L 245.715177 53.320575 
L 245.98469 53.424833 
L 246.171396 53.737606 
L 246.356524 53.841864 
L 246.566202 54.258895 
L 246.696239 54.363153 
L 246.851271 54.571669 
L 246.877003 54.571669 
L 247.005214 54.884442 
L 247.132679 54.9887 
L 247.309893 55.301473 
L 247.485685 55.405731 
L 247.684879 56.239793 
L 247.980314 56.344051 
L 248.126551 56.761082 
L 248.511812 56.865339 
L 248.937284 58.324948 
L 249.0074 58.324948 
L 249.146962 58.741979 
L 249.239511 58.741979 
L 249.423446 59.471784 
L 249.537627 59.576041 
L 249.921448 60.827135 
L 249.966165 60.931392 
L 250.121958 61.139908 
L 250.166268 61.244166 
L 250.539326 62.495259 
L 250.647851 62.599517 
L 250.863301 63.120806 
L 250.991562 63.225063 
L 251.329964 64.371899 
L 251.350942 64.371899 
L 251.497226 65.101703 
L 251.58038 65.205961 
L 251.827966 65.935765 
L 251.86896 66.040023 
L 252.093064 66.66557 
L 252.153788 66.769827 
L 252.454908 67.812405 
L 252.534512 67.916663 
L 252.751945 69.063498 
L 253.04501 69.167756 
L 253.180443 69.376272 
L 253.295866 69.480529 
L 253.429763 69.689045 
L 253.486898 69.793303 
L 253.638532 70.418849 
L 253.676278 70.523107 
L 253.92005 71.252911 
L 253.994514 71.357169 
L 254.142688 71.7742 
L 254.363087 72.399747 
L 254.436063 72.504005 
L 254.689583 73.338067 
L 254.797343 73.338067 
L 254.957996 73.963613 
L 255.046741 74.067871 
L 255.27581 74.797675 
L 255.31084 74.901933 
L 255.467784 75.214707 
L 255.485153 75.214707 
L 255.623613 75.631738 
L 255.795466 75.735995 
L 255.931984 76.048769 
L 256.219292 76.153026 
L 256.353203 76.778573 
L 256.453102 76.882831 
L 256.585596 77.091346 
L 256.618595 77.195604 
L 256.831883 77.925409 
L 256.99455 78.029666 
L 257.139925 78.655213 
L 257.236309 78.759471 
L 257.617658 80.531853 
L 257.852674 80.63611 
L 257.992483 80.844626 
L 258.208206 80.948884 
L 258.467332 81.991461 
L 258.558062 82.095719 
L 258.783255 82.929781 
L 258.976568 83.034039 
L 259.153509 83.555328 
L 259.212174 83.659586 
L 259.372696 84.076617 
L 259.517611 84.180875 
L 259.70458 84.806421 
L 259.875761 84.910679 
L 260.003275 85.119194 
L 260.059711 85.223452 
L 260.228151 85.640483 
L 260.339729 85.744741 
L 260.478408 86.474545 
L 260.547419 86.578803 
L 260.725838 87.100092 
L 260.794076 87.20435 
L 260.929918 87.412865 
L 260.970506 87.517123 
L 261.158932 88.14267 
L 261.199099 88.14267 
L 261.345752 88.768216 
L 261.451795 88.768216 
L 261.596772 89.498021 
L 261.649253 89.602278 
L 261.792933 89.915052 
L 262.03891 90.01931 
L 262.180066 90.644856 
L 262.282156 90.749114 
L 262.447046 91.270403 
L 262.522732 91.374661 
L 262.673324 91.791692 
L 262.748234 91.895949 
L 262.89729 92.208723 
L 262.959099 92.208723 
L 263.094467 92.730012 
L 263.106732 92.730012 
L 263.253377 93.459816 
L 263.302041 93.459816 
L 263.423232 93.772589 
L 263.447389 93.876847 
L 263.59178 94.502394 
L 263.806596 94.606651 
L 263.995792 95.336456 
L 264.078055 95.440713 
L 264.253298 96.06626 
L 264.346191 96.06626 
L 264.484796 96.587549 
L 264.496307 96.587549 
L 264.633969 97.108838 
L 264.79349 97.630127 
L 264.974387 97.734384 
L 265.097894 97.9429 
L 265.131457 97.9429 
L 265.254084 98.255673 
L 265.387081 98.359931 
L 265.508289 98.464189 
L 265.6179 98.568446 
L 265.737842 98.672704 
L 265.83549 98.776962 
L 265.965014 98.985478 
L 266.040218 99.089735 
L 266.179201 99.402509 
L 266.211149 99.402509 
L 266.349056 100.028055 
L 266.475588 100.132313 
L 266.611845 100.445086 
L 266.74726 100.549344 
L 266.87152 100.75786 
L 266.98481 100.862117 
L 267.117946 101.174891 
L 267.321205 101.279148 
L 267.452319 101.487664 
L 267.612621 101.591922 
L 267.751929 101.904695 
L 267.771758 102.008953 
L 267.919907 102.843015 
L 268.047497 102.947273 
L 268.184076 103.260046 
L 268.31981 103.364304 
L 268.454707 103.677077 
L 268.588779 103.781335 
L 268.741006 104.302624 
L 268.939213 104.406881 
L 269.070362 104.719655 
L 269.321096 104.823913 
L 269.477506 105.345201 
L 269.72365 105.449459 
L 269.8502 105.86649 
L 270.065456 105.970748 
L 270.198925 106.283521 
L 270.322767 106.387779 
L 270.463449 106.80481 
L 270.542188 106.909068 
L 270.66411 107.117583 
L 270.811252 107.221841 
L 270.92311 107.326099 
L 271.128128 107.430357 
L 271.255297 107.638872 
L 271.356503 107.74313 
L 271.482357 107.951646 
L 271.640741 108.055903 
L 271.797989 108.68145 
L 271.847413 108.785708 
L 271.970486 108.994223 
L 272.011358 109.098481 
L 272.125393 109.202739 
L 272.335613 109.306997 
L 272.455982 109.515512 
L 272.71058 109.61977 
L 272.844642 110.245316 
L 272.993511 110.349574 
L 273.125858 110.662348 
L 273.195602 110.766605 
L 273.319045 110.975121 
L 273.457093 111.079379 
L 273.586677 111.392152 
L 273.662547 111.49641 
L 273.798453 111.913441 
L 273.881095 112.017699 
L 274.015657 112.43473 
L 274.052889 112.538987 
L 274.193797 112.956018 
L 274.208577 112.956018 
L 274.333805 113.373049 
L 274.465623 113.685823 
L 274.596654 113.790081 
L 274.726905 114.102854 
L 274.927992 114.207112 
L 275.042076 114.311369 
L 275.162642 114.415627 
L 275.282549 114.624143 
L 275.345764 114.7284 
L 275.457699 114.832658 
L 275.803853 114.936916 
L 275.933972 115.562463 
L 275.981716 115.66672 
L 276.110785 115.979494 
L 276.137861 116.083751 
L 276.266016 116.396525 
L 276.849994 116.500783 
L 276.980573 116.813556 
L 277.162086 116.917814 
L 277.290824 117.230587 
L 277.444318 117.334845 
L 277.577748 117.751876 
L 277.691474 117.856133 
L 277.804613 117.960391 
L 277.867216 118.064649 
L 277.998104 118.48168 
L 278.047761 118.585938 
L 278.171413 118.794453 
L 278.275971 118.898711 
L 278.416644 119.42 
L 278.695307 119.524258 
L 278.815368 119.837031 
L 278.857235 119.941289 
L 278.976415 120.149804 
L 279.053535 120.254062 
L 279.171655 120.462578 
L 279.183432 120.566835 
L 279.300855 120.775351 
L 279.33596 120.879609 
L 279.470009 121.29664 
L 279.510644 121.400898 
L 279.626331 121.505155 
L 279.712698 121.609413 
L 279.833042 121.817929 
L 279.90721 121.922186 
L 280.03782 122.339217 
L 280.088717 122.443475 
L 280.207019 122.651991 
L 280.347027 122.756249 
L 280.463946 123.069022 
L 280.530477 123.17328 
L 280.66844 123.694568 
L 280.67944 123.798826 
L 280.800072 124.007342 
L 280.821934 124.1116 
L 280.941786 124.320115 
L 281.028541 124.424373 
L 281.152654 125.049919 
L 281.265363 125.154177 
L 281.393467 125.571208 
L 281.451932 125.675466 
L 281.59478 126.301013 
L 281.741941 126.40527 
L 281.867297 126.718044 
L 281.98158 126.822301 
L 282.100424 127.030817 
L 282.269821 127.030817 
L 282.387115 127.34359 
L 282.599699 127.447848 
L 282.735279 127.969137 
L 282.790275 128.073395 
L 282.909791 128.28191 
L 283.058274 128.386168 
L 283.181247 128.698941 
L 283.298654 128.803199 
L 283.420288 129.115972 
L 283.478434 129.22023 
L 283.6087 129.637261 
L 283.666348 129.741519 
L 283.785964 129.950035 
L 283.866931 130.054292 
L 283.990187 130.367066 
L 284.183155 130.471323 
L 284.30465 130.784097 
L 284.430109 130.888354 
L 284.564066 131.409643 
L 284.660561 131.513901 
L 284.784004 131.826674 
L 284.961092 131.930932 
L 285.096347 132.556479 
L 285.127786 132.660736 
L 285.244168 132.869252 
L 285.248632 132.869252 
L 285.368816 133.494799 
L 285.545662 133.599056 
L 285.66861 133.91183 
L 285.69924 134.016087 
L 285.816984 134.224603 
L 285.877788 134.328861 
L 286.011827 134.954407 
L 286.041981 135.058665 
L 286.166465 135.475696 
L 286.34126 135.579954 
L 286.459836 135.78847 
L 286.657443 135.892727 
L 286.770162 135.996985 
L 286.97738 136.101243 
L 287.096675 136.309758 
L 287.211244 136.414016 
L 287.329275 136.622532 
L 287.369829 136.726789 
L 287.491042 137.039563 
L 287.579507 137.14382 
L 287.703559 137.560852 
L 287.902174 137.665109 
L 288.024418 137.977883 
L 288.208464 138.08214 
L 288.329015 138.394914 
L 288.506684 138.394914 
L 288.617957 138.603429 
L 288.732476 138.707687 
L 288.853973 139.02046 
L 289.038719 139.124718 
L 289.162267 139.541749 
L 289.262837 139.646007 
L 289.374043 139.750265 
L 289.492043 139.854522 
L 289.613069 140.167296 
L 289.653263 140.167296 
L 289.769773 140.8971 
L 289.838659 141.001358 
L 289.96499 141.522647 
L 290.022499 141.626904 
L 290.151347 142.148193 
L 290.20837 142.252451 
L 290.321973 142.356709 
L 290.529897 142.460967 
L 290.645338 142.669482 
L 290.652315 142.669482 
L 290.767115 143.295029 
L 290.774054 143.399287 
L 290.895119 144.024833 
L 290.970877 144.129091 
L 291.090863 144.441864 
L 291.131851 144.546122 
L 291.254354 145.380184 
L 291.311966 145.484442 
L 291.436836 146.005731 
L 291.473822 146.109988 
L 291.604455 146.735535 
L 291.797301 146.839793 
L 291.919443 147.256824 
L 292.050726 147.361082 
L 292.177974 147.882371 
L 292.44635 147.986628 
L 292.571328 148.507917 
L 292.686063 148.612175 
L 292.812845 149.133464 
L 293.029836 149.237722 
L 293.15465 149.75901 
L 293.288037 149.863268 
L 293.405243 150.071784 
L 293.485076 150.176041 
L 293.616473 150.905846 
L 293.719813 151.010104 
L 293.834737 151.218619 
L 293.900998 151.322877 
L 294.026941 151.844166 
L 294.095605 151.948423 
L 294.217474 152.365455 
L 294.288499 152.469712 
L 294.409303 152.886743 
L 294.517752 152.991001 
L 294.637302 153.303774 
L 294.750418 153.408032 
L 294.871586 153.825063 
L 294.97205 153.929321 
L 295.086305 154.137837 
L 295.120465 154.242094 
L 295.233951 154.346352 
L 295.349666 154.45061 
L 295.467574 154.763383 
L 295.615462 154.867641 
L 295.731952 155.076157 
L 295.773406 155.180414 
L 295.886315 155.284672 
L 295.995912 155.38893 
L 296.121274 156.014476 
L 296.466381 156.118734 
L 296.578445 156.222992 
L 296.597067 156.32725 
L 296.713757 156.640023 
L 296.792963 156.744281 
L 296.91386 157.161312 
L 297.106957 157.26557 
L 297.223554 157.578343 
L 297.295791 157.682601 
L 297.41139 157.891116 
L 297.549309 157.995374 
L 297.681304 158.933694 
L 297.820055 159.037952 
L 297.93543 159.246467 
L 298.065126 159.350725 
L 298.176747 159.454983 
L 298.270564 159.559241 
L 298.388498 159.872014 
L 298.466769 159.976272 
L 298.581226 160.184787 
L 298.755413 160.289045 
L 298.87317 160.601818 
L 298.911484 160.706076 
L 299.026028 160.914591 
L 299.154177 161.018849 
L 299.269816 161.227365 
L 299.361421 161.331623 
L 299.478305 161.644396 
L 299.652471 161.748654 
L 299.772419 162.165685 
L 299.788516 162.269942 
L 299.905436 162.582716 
L 299.964804 162.686974 
L 300.078522 163.104005 
L 300.12158 163.208262 
L 300.245749 163.833809 
L 300.304202 163.938067 
L 300.420644 164.25084 
L 300.500897 164.355098 
L 300.614087 164.459356 
L 300.823385 164.563613 
L 300.941469 164.980644 
L 301.017667 165.084902 
L 301.132549 165.293418 
L 301.276922 165.397675 
L 301.392593 165.710449 
L 301.592502 165.814707 
L 301.704418 165.918964 
L 301.75701 166.023222 
L 301.872272 166.231738 
L 302.030551 166.335995 
L 302.144386 166.544511 
L 302.284315 166.544511 
L 302.398883 167.0658 
L 302.411123 167.170058 
L 302.52706 167.482831 
L 302.849259 167.587089 
L 302.964896 167.899862 
L 303.054195 168.00412 
L 303.172698 168.421151 
L 303.249383 168.525409 
L 303.366838 168.94244 
L 303.388303 169.046697 
L 303.506957 169.463728 
L 303.700093 169.567986 
L 303.817076 169.985017 
L 304.062427 170.089275 
L 304.183139 170.714822 
L 304.252624 170.819079 
L 304.368566 171.131853 
L 304.548737 171.23611 
L 304.664967 171.548884 
L 304.720099 171.653142 
L 304.835425 171.965915 
L 305.011814 172.070173 
L 305.129223 172.487204 
L 305.150829 172.591461 
L 305.262127 172.695719 
L 305.394229 172.799977 
L 305.511382 173.217008 
L 305.620868 173.321266 
L 305.736818 173.634039 
L 305.743826 173.634039 
L 305.85913 174.155328 
L 305.970363 174.259586 
L 306.084484 174.468101 
L 306.281921 174.572359 
L 306.399535 174.98939 
L 306.738596 175.093648 
L 306.85379 175.406421 
L 306.89704 175.510679 
L 307.019671 176.240483 
L 307.079083 176.344741 
L 307.192506 176.553257 
L 307.42085 176.657514 
L 307.538979 177.178803 
L 307.621131 177.283061 
L 307.733389 177.387319 
L 307.798874 177.491577 
L 307.914987 177.908608 
L 307.93877 178.012865 
L 308.054146 178.325639 
L 308.212781 178.429896 
L 308.326726 178.638412 
L 308.47413 178.74267 
L 308.588267 178.951185 
L 308.67578 179.055443 
L 308.788874 179.263959 
L 308.877109 179.368216 
L 308.989171 179.472474 
L 309.159195 179.576732 
L 309.2743 179.889505 
L 309.381387 179.993763 
L 309.493858 180.098021 
L 309.776908 180.202278 
L 309.890272 180.410794 
L 309.982852 180.515052 
L 310.096594 180.723567 
L 310.148231 180.827825 
L 310.259695 180.932083 
L 310.528859 181.036341 
L 310.644011 181.349114 
L 310.702758 181.453372 
L 310.815613 181.661887 
L 310.878059 181.766145 
L 310.992774 182.078918 
L 311.143886 182.183176 
L 311.257221 182.391692 
L 311.464615 182.495949 
L 311.576307 182.600207 
L 311.819248 182.704465 
L 311.933113 183.017238 
L 312.043762 183.121496 
L 312.155163 183.225754 
L 312.165619 183.330012 
L 312.280303 183.642785 
L 312.374985 183.747043 
L 312.489869 184.059816 
L 312.528458 184.164074 
L 312.642542 184.476847 
L 312.808122 184.581105 
L 312.920763 184.78962 
L 313.017751 184.893878 
L 313.131823 185.206651 
L 313.321046 185.310909 
L 313.436019 185.72794 
L 313.519706 185.832198 
L 313.636089 186.353487 
L 313.691002 186.457745 
L 313.804056 186.66626 
L 313.829504 186.770518 
L 313.943052 187.083291 
L 314.194618 187.187549 
L 314.30748 187.396064 
L 314.352462 187.500322 
L 314.465692 187.708838 
L 314.793802 187.813096 
L 314.905933 187.917353 
L 315.04157 188.021611 
L 315.155863 188.334384 
L 315.246871 188.438642 
L 315.358972 188.5429 
L 315.630605 188.647158 
L 315.742985 188.855673 
L 315.880172 188.959931 
L 315.992379 189.064189 
L 316.174859 189.168446 
L 316.289901 189.585478 
L 316.30505 189.689735 
L 316.418336 190.002509 
L 316.573822 190.106766 
L 316.685731 190.211024 
L 316.883631 190.315282 
L 316.996068 190.523797 
L 317.234785 190.628055 
L 317.349565 191.045086 
L 317.563044 191.149344 
L 317.677138 191.462117 
L 317.824981 191.566375 
L 317.937723 191.774891 
L 318.008894 191.879148 
L 318.124679 192.400437 
L 318.291289 192.504695 
L 318.405594 192.921726 
L 318.540806 193.025984 
L 318.652849 193.130242 
L 318.717863 193.234499 
L 318.831898 193.65153 
L 318.927116 193.755788 
L 319.041025 194.068562 
L 319.122027 194.172819 
L 319.23493 194.381335 
L 319.342546 194.485593 
L 319.456195 194.798366 
L 319.946248 194.902624 
L 320.057727 195.006881 
L 320.194019 195.111139 
L 320.306952 195.423913 
L 320.643186 195.52817 
L 320.755599 195.736686 
L 321.04067 195.840944 
L 321.154535 196.257975 
L 321.27902 196.362232 
L 321.390799 196.46649 
L 321.478104 196.570748 
L 321.589725 196.675006 
L 321.796124 196.779264 
L 321.907815 196.883521 
L 322.358 196.987779 
L 322.469319 197.092037 
L 322.532096 197.196295 
L 322.644157 197.613326 
L 322.844113 197.717583 
L 322.955392 197.821841 
L 323.82508 197.926099 
L 323.939135 198.34313 
L 324.128421 198.447388 
L 324.240912 198.655903 
L 324.577927 198.760161 
L 324.690353 198.968677 
L 324.900339 199.072934 
L 325.011854 199.177192 
L 325.112675 199.28145 
L 325.223837 199.385708 
L 325.439493 199.489965 
L 325.55256 199.802739 
L 325.885508 199.906997 
L 325.998387 200.21977 
L 326.34179 200.324028 
L 326.454391 200.636801 
L 327.752053 200.741059 
L 327.864036 200.949574 
L 328.327587 201.053832 
L 328.439783 201.262348 
L 328.677231 201.366605 
L 328.78949 201.575121 
L 329.135511 201.679379 
L 329.246651 201.783636 
L 329.553105 201.887894 
L 329.665093 202.09641 
L 330.147698 202.200667 
L 330.258983 202.304925 
L 330.525706 202.409183 
L 330.638467 202.721956 
L 330.831069 202.826214 
L 330.942829 203.03473 
L 331.046294 203.138987 
L 331.158611 203.451761 
L 331.380989 203.556018 
L 331.492148 203.660276 
L 331.817488 203.764534 
L 331.929111 203.868792 
L 332.140167 203.973049 
L 332.25173 204.077307 
L 332.577391 204.181565 
L 332.688804 204.285823 
L 333.058492 204.390081 
L 333.169997 204.494338 
L 333.482386 204.598596 
L 333.594217 204.807112 
L 333.807422 204.911369 
L 333.919063 205.119885 
L 334.057097 205.224143 
L 334.168912 205.432658 
L 334.815533 205.536916 
L 334.927253 205.745432 
L 335.186499 205.849689 
L 335.297712 205.953947 
L 335.595287 206.058205 
L 335.70668 206.162463 
L 336.103334 206.26672 
L 336.214797 206.370978 
L 337.463836 206.475236 
L 337.575571 206.683751 
L 338.466044 206.788009 
L 338.577493 206.892267 
L 338.905781 206.996525 
L 339.017323 207.309298 
L 339.879099 207.413556 
L 339.990578 207.517814 
L 340.354883 207.622071 
L 340.466128 207.726329 
L 340.945986 207.830587 
L 341.057423 207.934845 
L 341.554047 208.039102 
L 341.666522 208.456133 
L 341.738475 208.560391 
L 341.85001 208.768907 
L 342.249216 208.873165 
L 342.361152 209.185938 
L 342.985835 209.290196 
L 343.097583 209.498711 
L 343.533966 209.602969 
L 343.645445 209.811484 
L 343.925365 209.915742 
L 344.036706 210.02 
L 344.085164 210.124258 
L 344.196909 210.437031 
L 344.44118 210.541289 
L 344.552321 210.645547 
L 344.656377 210.749804 
L 344.76791 210.95832 
L 345.389903 211.062578 
L 345.501483 211.271093 
L 346.24497 211.375351 
L 346.356133 211.479609 
L 346.893735 211.583867 
L 347.005127 211.792382 
L 347.433361 211.89664 
L 347.544649 212.000898 
L 347.941897 212.105155 
L 348.053179 212.209413 
L 348.492241 212.313671 
L 348.603742 212.522186 
L 348.98411 212.626444 
L 349.095564 212.83496 
L 349.492074 212.939217 
L 349.603347 213.043475 
L 350.645704 213.147733 
L 350.756897 213.251991 
L 352.940322 213.356249 
L 353.051608 213.460506 
L 356.807367 213.564764 
L 356.918489 213.669022 
L 358.222235 213.77328 
L 358.333417 213.877537 
L 358.855126 213.981795 
L 358.966701 214.294568 
L 360.072389 214.398826 
L 360.183644 214.503084 
L 361.282584 214.607342 
L 361.393818 214.7116 
L 362.815968 214.815857 
L 362.927175 214.920115 
L 363.705384 215.024373 
L 363.816508 215.128631 
L 364.436104 215.232888 
L 364.547302 215.337146 
L 364.884855 215.441404 
L 364.996032 215.545662 
L 366.716261 215.649919 
L 366.827387 215.754177 
L 367.129258 215.858435 
L 367.240431 215.962693 
L 368.763285 216.066951 
L 368.874444 216.171208 
L 369.05762 216.275466 
L 369.168752 216.379724 
L 373.41195 216.483982 
L 373.523121 216.588239 
L 374.905835 216.692497 
L 375.016969 216.796755 
L 376.189432 216.901013 
L 376.300557 217.00527 
L 377.544654 217.109528 
L 377.655775 217.213786 
L 378.934203 217.318044 
L 379.045366 217.422301 
L 379.518444 217.526559 
L 379.629575 217.630817 
L 383.674135 217.735075 
L 383.785261 217.839333 
L 390.106223 217.94359 
L 390.217367 218.047848 
L 393.427163 218.152106 
L 393.538297 218.256364 
L 403.393381 218.256364 
L 403.393381 218.256364 
" style="fill:none;stroke:#ff0000;stroke-linecap:square;stroke-width:1.5;"/>
   </g>
   <g id="patch_3">
    <path d="M 83.811563 228.14 
L 83.811563 10.7 
" style="fill:none;stroke:#000000;stroke-linecap:square;stroke-linejoin:miter;stroke-width:0.8;"/>
   </g>
   <g id="patch_4">
    <path d="M 418.611562 228.14 
L 418.611562 10.7 
" style="fill:none;stroke:#000000;stroke-linecap:square;stroke-linejoin:miter;stroke-width:0.8;"/>
   </g>
   <g id="patch_5">
    <path d="M 83.811563 228.14 
L 418.611562 228.14 
" style="fill:none;stroke:#000000;stroke-linecap:square;stroke-linejoin:miter;stroke-width:0.8;"/>
   </g>
   <g id="patch_6">
    <path d="M 83.811563 10.7 
L 418.611562 10.7 
" style="fill:none;stroke:#000000;stroke-linecap:square;stroke-linejoin:miter;stroke-width:0.8;"/>
   </g>
  </g>
 </g>
 <defs>
  <clipPath id="pec4f2f18ff">
   <rect height="217.44" width="334.8" x="83.811563" y="10.7"/>
  </clipPath>
 </defs>
</svg>
