<?xml version="1.0" encoding="utf-8" standalone="no"?>
<!DOCTYPE svg PUBLIC "-//W3C//DTD SVG 1.1//EN"
  "http://www.w3.org/Graphics/SVG/1.1/DTD/svg11.dtd">
<!-- Created with matplotlib (https://matplotlib.org/) -->
<svg height="297.634062pt" version="1.1" viewBox="0 0 463.524375 297.634062" width="463.524375pt" xmlns="http://www.w3.org/2000/svg" xmlns:xlink="http://www.w3.org/1999/xlink">
 <defs>
  <style type="text/css">
*{stroke-linecap:butt;stroke-linejoin:round;}
  </style>
 </defs>
 <g id="figure_1">
  <g id="patch_1">
   <path d="M 0 297.634062 
L 463.524375 297.634062 
L 463.524375 0 
L 0 0 
z
" style="fill:#ffffff;"/>
  </g>
  <g id="axes_1">
   <g id="patch_2">
    <path d="M 101.284375 228.14 
L 436.084375 228.14 
L 436.084375 10.7 
L 101.284375 10.7 
z
" style="fill:#ffffff;"/>
   </g>
   <g id="matplotlib.axis_1">
    <g id="xtick_1">
     <g id="line2d_1">
      <defs>
       <path d="M 0 0 
L 0 3.5 
" id="m89d065753e" style="stroke:#000000;stroke-width:0.8;"/>
      </defs>
      <g>
       <use style="stroke:#000000;stroke-width:0.8;" x="101.284375" xlink:href="#m89d065753e" y="228.14"/>
      </g>
     </g>
     <g id="text_1">
      <!-- $\mathdefault{10^{0}}$ -->
      <defs>
       <path d="M 12.40625 8.296875 
L 28.515625 8.296875 
L 28.515625 63.921875 
L 10.984375 60.40625 
L 10.984375 69.390625 
L 28.421875 72.90625 
L 38.28125 72.90625 
L 38.28125 8.296875 
L 54.390625 8.296875 
L 54.390625 0 
L 12.40625 0 
z
" id="DejaVuSans-49"/>
       <path d="M 31.78125 66.40625 
Q 24.171875 66.40625 20.328125 58.90625 
Q 16.5 51.421875 16.5 36.375 
Q 16.5 21.390625 20.328125 13.890625 
Q 24.171875 6.390625 31.78125 6.390625 
Q 39.453125 6.390625 43.28125 13.890625 
Q 47.125 21.390625 47.125 36.375 
Q 47.125 51.421875 43.28125 58.90625 
Q 39.453125 66.40625 31.78125 66.40625 
z
M 31.78125 74.21875 
Q 44.046875 74.21875 50.515625 64.515625 
Q 56.984375 54.828125 56.984375 36.375 
Q 56.984375 17.96875 50.515625 8.265625 
Q 44.046875 -1.421875 31.78125 -1.421875 
Q 19.53125 -1.421875 13.0625 8.265625 
Q 6.59375 17.96875 6.59375 36.375 
Q 6.59375 54.828125 13.0625 64.515625 
Q 19.53125 74.21875 31.78125 74.21875 
z
" id="DejaVuSans-48"/>
      </defs>
      <g transform="translate(81.044375 252.616406)scale(0.23 -0.23)">
       <use transform="translate(0 0.765625)" xlink:href="#DejaVuSans-49"/>
       <use transform="translate(63.623047 0.765625)" xlink:href="#DejaVuSans-48"/>
       <use transform="translate(128.203125 39.046875)scale(0.7)" xlink:href="#DejaVuSans-48"/>
      </g>
     </g>
    </g>
    <g id="xtick_2">
     <g id="line2d_2">
      <g>
       <use style="stroke:#000000;stroke-width:0.8;" x="212.884375" xlink:href="#m89d065753e" y="228.14"/>
      </g>
     </g>
     <g id="text_2">
      <!-- $\mathdefault{10^{2}}$ -->
      <defs>
       <path d="M 19.1875 8.296875 
L 53.609375 8.296875 
L 53.609375 0 
L 7.328125 0 
L 7.328125 8.296875 
Q 12.9375 14.109375 22.625 23.890625 
Q 32.328125 33.6875 34.8125 36.53125 
Q 39.546875 41.84375 41.421875 45.53125 
Q 43.3125 49.21875 43.3125 52.78125 
Q 43.3125 58.59375 39.234375 62.25 
Q 35.15625 65.921875 28.609375 65.921875 
Q 23.96875 65.921875 18.8125 64.3125 
Q 13.671875 62.703125 7.8125 59.421875 
L 7.8125 69.390625 
Q 13.765625 71.78125 18.9375 73 
Q 24.125 74.21875 28.421875 74.21875 
Q 39.75 74.21875 46.484375 68.546875 
Q 53.21875 62.890625 53.21875 53.421875 
Q 53.21875 48.921875 51.53125 44.890625 
Q 49.859375 40.875 45.40625 35.40625 
Q 44.1875 33.984375 37.640625 27.21875 
Q 31.109375 20.453125 19.1875 8.296875 
z
" id="DejaVuSans-50"/>
      </defs>
      <g transform="translate(192.644375 252.616406)scale(0.23 -0.23)">
       <use transform="translate(0 0.765625)" xlink:href="#DejaVuSans-49"/>
       <use transform="translate(63.623047 0.765625)" xlink:href="#DejaVuSans-48"/>
       <use transform="translate(128.203125 39.046875)scale(0.7)" xlink:href="#DejaVuSans-50"/>
      </g>
     </g>
    </g>
    <g id="xtick_3">
     <g id="line2d_3">
      <g>
       <use style="stroke:#000000;stroke-width:0.8;" x="324.484375" xlink:href="#m89d065753e" y="228.14"/>
      </g>
     </g>
     <g id="text_3">
      <!-- $\mathdefault{10^{4}}$ -->
      <defs>
       <path d="M 37.796875 64.3125 
L 12.890625 25.390625 
L 37.796875 25.390625 
z
M 35.203125 72.90625 
L 47.609375 72.90625 
L 47.609375 25.390625 
L 58.015625 25.390625 
L 58.015625 17.1875 
L 47.609375 17.1875 
L 47.609375 0 
L 37.796875 0 
L 37.796875 17.1875 
L 4.890625 17.1875 
L 4.890625 26.703125 
z
" id="DejaVuSans-52"/>
      </defs>
      <g transform="translate(304.244375 252.616406)scale(0.23 -0.23)">
       <use transform="translate(0 0.684375)" xlink:href="#DejaVuSans-49"/>
       <use transform="translate(63.623047 0.684375)" xlink:href="#DejaVuSans-48"/>
       <use transform="translate(128.203125 38.965625)scale(0.7)" xlink:href="#DejaVuSans-52"/>
      </g>
     </g>
    </g>
    <g id="xtick_4">
     <g id="line2d_4">
      <g>
       <use style="stroke:#000000;stroke-width:0.8;" x="436.084375" xlink:href="#m89d065753e" y="228.14"/>
      </g>
     </g>
     <g id="text_4">
      <!-- $\mathdefault{10^{6}}$ -->
      <defs>
       <path d="M 33.015625 40.375 
Q 26.375 40.375 22.484375 35.828125 
Q 18.609375 31.296875 18.609375 23.390625 
Q 18.609375 15.53125 22.484375 10.953125 
Q 26.375 6.390625 33.015625 6.390625 
Q 39.65625 6.390625 43.53125 10.953125 
Q 47.40625 15.53125 47.40625 23.390625 
Q 47.40625 31.296875 43.53125 35.828125 
Q 39.65625 40.375 33.015625 40.375 
z
M 52.59375 71.296875 
L 52.59375 62.3125 
Q 48.875 64.0625 45.09375 64.984375 
Q 41.3125 65.921875 37.59375 65.921875 
Q 27.828125 65.921875 22.671875 59.328125 
Q 17.53125 52.734375 16.796875 39.40625 
Q 19.671875 43.65625 24.015625 45.921875 
Q 28.375 48.1875 33.59375 48.1875 
Q 44.578125 48.1875 50.953125 41.515625 
Q 57.328125 34.859375 57.328125 23.390625 
Q 57.328125 12.15625 50.6875 5.359375 
Q 44.046875 -1.421875 33.015625 -1.421875 
Q 20.359375 -1.421875 13.671875 8.265625 
Q 6.984375 17.96875 6.984375 36.375 
Q 6.984375 53.65625 15.1875 63.9375 
Q 23.390625 74.21875 37.203125 74.21875 
Q 40.921875 74.21875 44.703125 73.484375 
Q 48.484375 72.75 52.59375 71.296875 
z
" id="DejaVuSans-54"/>
      </defs>
      <g transform="translate(415.844375 252.616406)scale(0.23 -0.23)">
       <use transform="translate(0 0.765625)" xlink:href="#DejaVuSans-49"/>
       <use transform="translate(63.623047 0.765625)" xlink:href="#DejaVuSans-48"/>
       <use transform="translate(128.203125 39.046875)scale(0.7)" xlink:href="#DejaVuSans-54"/>
      </g>
     </g>
    </g>
    <g id="text_5">
     <!-- #users -->
     <defs>
      <path d="M 51.125 44 
L 36.921875 44 
L 32.8125 27.6875 
L 47.125 27.6875 
z
M 43.796875 71.78125 
L 38.71875 51.515625 
L 52.984375 51.515625 
L 58.109375 71.78125 
L 65.921875 71.78125 
L 60.890625 51.515625 
L 76.125 51.515625 
L 76.125 44 
L 58.984375 44 
L 54.984375 27.6875 
L 70.515625 27.6875 
L 70.515625 20.21875 
L 53.078125 20.21875 
L 48 0 
L 40.1875 0 
L 45.21875 20.21875 
L 30.90625 20.21875 
L 25.875 0 
L 18.015625 0 
L 23.09375 20.21875 
L 7.71875 20.21875 
L 7.71875 27.6875 
L 24.90625 27.6875 
L 29 44 
L 13.28125 44 
L 13.28125 51.515625 
L 30.90625 51.515625 
L 35.890625 71.78125 
z
" id="DejaVuSans-35"/>
      <path d="M 8.5 21.578125 
L 8.5 54.6875 
L 17.484375 54.6875 
L 17.484375 21.921875 
Q 17.484375 14.15625 20.5 10.265625 
Q 23.53125 6.390625 29.59375 6.390625 
Q 36.859375 6.390625 41.078125 11.03125 
Q 45.3125 15.671875 45.3125 23.6875 
L 45.3125 54.6875 
L 54.296875 54.6875 
L 54.296875 0 
L 45.3125 0 
L 45.3125 8.40625 
Q 42.046875 3.421875 37.71875 1 
Q 33.40625 -1.421875 27.6875 -1.421875 
Q 18.265625 -1.421875 13.375 4.4375 
Q 8.5 10.296875 8.5 21.578125 
z
M 31.109375 56 
z
" id="DejaVuSans-117"/>
      <path d="M 44.28125 53.078125 
L 44.28125 44.578125 
Q 40.484375 46.53125 36.375 47.5 
Q 32.28125 48.484375 27.875 48.484375 
Q 21.1875 48.484375 17.84375 46.4375 
Q 14.5 44.390625 14.5 40.28125 
Q 14.5 37.15625 16.890625 35.375 
Q 19.28125 33.59375 26.515625 31.984375 
L 29.59375 31.296875 
Q 39.15625 29.25 43.1875 25.515625 
Q 47.21875 21.78125 47.21875 15.09375 
Q 47.21875 7.46875 41.1875 3.015625 
Q 35.15625 -1.421875 24.609375 -1.421875 
Q 20.21875 -1.421875 15.453125 -0.5625 
Q 10.6875 0.296875 5.421875 2 
L 5.421875 11.28125 
Q 10.40625 8.6875 15.234375 7.390625 
Q 20.0625 6.109375 24.8125 6.109375 
Q 31.15625 6.109375 34.5625 8.28125 
Q 37.984375 10.453125 37.984375 14.40625 
Q 37.984375 18.0625 35.515625 20.015625 
Q 33.0625 21.96875 24.703125 23.78125 
L 21.578125 24.515625 
Q 13.234375 26.265625 9.515625 29.90625 
Q 5.8125 33.546875 5.8125 39.890625 
Q 5.8125 47.609375 11.28125 51.796875 
Q 16.75 56 26.8125 56 
Q 31.78125 56 36.171875 55.265625 
Q 40.578125 54.546875 44.28125 53.078125 
z
" id="DejaVuSans-115"/>
      <path d="M 56.203125 29.59375 
L 56.203125 25.203125 
L 14.890625 25.203125 
Q 15.484375 15.921875 20.484375 11.0625 
Q 25.484375 6.203125 34.421875 6.203125 
Q 39.59375 6.203125 44.453125 7.46875 
Q 49.3125 8.734375 54.109375 11.28125 
L 54.109375 2.78125 
Q 49.265625 0.734375 44.1875 -0.34375 
Q 39.109375 -1.421875 33.890625 -1.421875 
Q 20.796875 -1.421875 13.15625 6.1875 
Q 5.515625 13.8125 5.515625 26.8125 
Q 5.515625 40.234375 12.765625 48.109375 
Q 20.015625 56 32.328125 56 
Q 43.359375 56 49.78125 48.890625 
Q 56.203125 41.796875 56.203125 29.59375 
z
M 47.21875 32.234375 
Q 47.125 39.59375 43.09375 43.984375 
Q 39.0625 48.390625 32.421875 48.390625 
Q 24.90625 48.390625 20.390625 44.140625 
Q 15.875 39.890625 15.1875 32.171875 
z
" id="DejaVuSans-101"/>
      <path d="M 41.109375 46.296875 
Q 39.59375 47.171875 37.8125 47.578125 
Q 36.03125 48 33.890625 48 
Q 26.265625 48 22.1875 43.046875 
Q 18.109375 38.09375 18.109375 28.8125 
L 18.109375 0 
L 9.078125 0 
L 9.078125 54.6875 
L 18.109375 54.6875 
L 18.109375 46.1875 
Q 20.953125 51.171875 25.484375 53.578125 
Q 30.03125 56 36.53125 56 
Q 37.453125 56 38.578125 55.875 
Q 39.703125 55.765625 41.0625 55.515625 
z
" id="DejaVuSans-114"/>
     </defs>
     <g transform="translate(215.584375 284.195)scale(0.3 -0.3)">
      <use xlink:href="#DejaVuSans-35"/>
      <use x="83.789062" xlink:href="#DejaVuSans-117"/>
      <use x="147.167969" xlink:href="#DejaVuSans-115"/>
      <use x="199.267578" xlink:href="#DejaVuSans-101"/>
      <use x="260.791016" xlink:href="#DejaVuSans-114"/>
      <use x="301.904297" xlink:href="#DejaVuSans-115"/>
     </g>
    </g>
   </g>
   <g id="matplotlib.axis_2">
    <g id="ytick_1">
     <g id="line2d_5">
      <defs>
       <path d="M 0 0 
L -3.5 0 
" id="m1df4da7cfe" style="stroke:#000000;stroke-width:0.8;"/>
      </defs>
      <g>
       <use style="stroke:#000000;stroke-width:0.8;" x="101.284375" xlink:href="#m1df4da7cfe" y="201.513742"/>
      </g>
     </g>
     <g id="text_6">
      <!-- $\mathdefault{10^{-3}}$ -->
      <defs>
       <path d="M 10.59375 35.5 
L 73.1875 35.5 
L 73.1875 27.203125 
L 10.59375 27.203125 
z
" id="DejaVuSans-8722"/>
       <path d="M 40.578125 39.3125 
Q 47.65625 37.796875 51.625 33 
Q 55.609375 28.21875 55.609375 21.1875 
Q 55.609375 10.40625 48.1875 4.484375 
Q 40.765625 -1.421875 27.09375 -1.421875 
Q 22.515625 -1.421875 17.65625 -0.515625 
Q 12.796875 0.390625 7.625 2.203125 
L 7.625 11.71875 
Q 11.71875 9.328125 16.59375 8.109375 
Q 21.484375 6.890625 26.8125 6.890625 
Q 36.078125 6.890625 40.9375 10.546875 
Q 45.796875 14.203125 45.796875 21.1875 
Q 45.796875 27.640625 41.28125 31.265625 
Q 36.765625 34.90625 28.71875 34.90625 
L 20.21875 34.90625 
L 20.21875 43.015625 
L 29.109375 43.015625 
Q 36.375 43.015625 40.234375 45.921875 
Q 44.09375 48.828125 44.09375 54.296875 
Q 44.09375 59.90625 40.109375 62.90625 
Q 36.140625 65.921875 28.71875 65.921875 
Q 24.65625 65.921875 20.015625 65.03125 
Q 15.375 64.15625 9.8125 62.3125 
L 9.8125 71.09375 
Q 15.4375 72.65625 20.34375 73.4375 
Q 25.25 74.21875 29.59375 74.21875 
Q 40.828125 74.21875 47.359375 69.109375 
Q 53.90625 64.015625 53.90625 55.328125 
Q 53.90625 49.265625 50.4375 45.09375 
Q 46.96875 40.921875 40.578125 39.3125 
z
" id="DejaVuSans-51"/>
      </defs>
      <g transform="translate(40.234375 210.251945)scale(0.23 -0.23)">
       <use transform="translate(0 0.765625)" xlink:href="#DejaVuSans-49"/>
       <use transform="translate(63.623047 0.765625)" xlink:href="#DejaVuSans-48"/>
       <use transform="translate(128.203125 39.046875)scale(0.7)" xlink:href="#DejaVuSans-8722"/>
       <use transform="translate(186.855469 39.046875)scale(0.7)" xlink:href="#DejaVuSans-51"/>
      </g>
     </g>
    </g>
    <g id="ytick_2">
     <g id="line2d_6">
      <g>
       <use style="stroke:#000000;stroke-width:0.8;" x="101.284375" xlink:href="#m1df4da7cfe" y="141.203707"/>
      </g>
     </g>
     <g id="text_7">
      <!-- $\mathdefault{10^{-2}}$ -->
      <g transform="translate(40.234375 149.94191)scale(0.23 -0.23)">
       <use transform="translate(0 0.765625)" xlink:href="#DejaVuSans-49"/>
       <use transform="translate(63.623047 0.765625)" xlink:href="#DejaVuSans-48"/>
       <use transform="translate(128.203125 39.046875)scale(0.7)" xlink:href="#DejaVuSans-8722"/>
       <use transform="translate(186.855469 39.046875)scale(0.7)" xlink:href="#DejaVuSans-50"/>
      </g>
     </g>
    </g>
    <g id="ytick_3">
     <g id="line2d_7">
      <g>
       <use style="stroke:#000000;stroke-width:0.8;" x="101.284375" xlink:href="#m1df4da7cfe" y="80.893672"/>
      </g>
     </g>
     <g id="text_8">
      <!-- $\mathdefault{10^{-1}}$ -->
      <g transform="translate(40.234375 89.631875)scale(0.23 -0.23)">
       <use transform="translate(0 0.684375)" xlink:href="#DejaVuSans-49"/>
       <use transform="translate(63.623047 0.684375)" xlink:href="#DejaVuSans-48"/>
       <use transform="translate(128.203125 38.965625)scale(0.7)" xlink:href="#DejaVuSans-8722"/>
       <use transform="translate(186.855469 38.965625)scale(0.7)" xlink:href="#DejaVuSans-49"/>
      </g>
     </g>
    </g>
    <g id="ytick_4">
     <g id="line2d_8">
      <g>
       <use style="stroke:#000000;stroke-width:0.8;" x="101.284375" xlink:href="#m1df4da7cfe" y="20.583636"/>
      </g>
     </g>
     <g id="text_9">
      <!-- $\mathdefault{10^{0}}$ -->
      <g transform="translate(53.804375 29.321839)scale(0.23 -0.23)">
       <use transform="translate(0 0.765625)" xlink:href="#DejaVuSans-49"/>
       <use transform="translate(63.623047 0.765625)" xlink:href="#DejaVuSans-48"/>
       <use transform="translate(128.203125 39.046875)scale(0.7)" xlink:href="#DejaVuSans-48"/>
      </g>
     </g>
    </g>
    <g id="ytick_5">
     <g id="line2d_9">
      <defs>
       <path d="M 0 0 
L -2 0 
" id="mceb95824f6" style="stroke:#000000;stroke-width:0.6;"/>
      </defs>
      <g>
       <use style="stroke:#000000;stroke-width:0.6;" x="101.284375" xlink:href="#mceb95824f6" y="225.513518"/>
      </g>
     </g>
    </g>
    <g id="ytick_6">
     <g id="line2d_10">
      <g>
       <use style="stroke:#000000;stroke-width:0.6;" x="101.284375" xlink:href="#mceb95824f6" y="219.668872"/>
      </g>
     </g>
    </g>
    <g id="ytick_7">
     <g id="line2d_11">
      <g>
       <use style="stroke:#000000;stroke-width:0.6;" x="101.284375" xlink:href="#mceb95824f6" y="214.893448"/>
      </g>
     </g>
    </g>
    <g id="ytick_8">
     <g id="line2d_12">
      <g>
       <use style="stroke:#000000;stroke-width:0.6;" x="101.284375" xlink:href="#mceb95824f6" y="210.855885"/>
      </g>
     </g>
    </g>
    <g id="ytick_9">
     <g id="line2d_13">
      <g>
       <use style="stroke:#000000;stroke-width:0.6;" x="101.284375" xlink:href="#mceb95824f6" y="207.358388"/>
      </g>
     </g>
    </g>
    <g id="ytick_10">
     <g id="line2d_14">
      <g>
       <use style="stroke:#000000;stroke-width:0.6;" x="101.284375" xlink:href="#mceb95824f6" y="204.273378"/>
      </g>
     </g>
    </g>
    <g id="ytick_11">
     <g id="line2d_15">
      <g>
       <use style="stroke:#000000;stroke-width:0.6;" x="101.284375" xlink:href="#mceb95824f6" y="183.358612"/>
      </g>
     </g>
    </g>
    <g id="ytick_12">
     <g id="line2d_16">
      <g>
       <use style="stroke:#000000;stroke-width:0.6;" x="101.284375" xlink:href="#mceb95824f6" y="172.738542"/>
      </g>
     </g>
    </g>
    <g id="ytick_13">
     <g id="line2d_17">
      <g>
       <use style="stroke:#000000;stroke-width:0.6;" x="101.284375" xlink:href="#mceb95824f6" y="165.203483"/>
      </g>
     </g>
    </g>
    <g id="ytick_14">
     <g id="line2d_18">
      <g>
       <use style="stroke:#000000;stroke-width:0.6;" x="101.284375" xlink:href="#mceb95824f6" y="159.358837"/>
      </g>
     </g>
    </g>
    <g id="ytick_15">
     <g id="line2d_19">
      <g>
       <use style="stroke:#000000;stroke-width:0.6;" x="101.284375" xlink:href="#mceb95824f6" y="154.583413"/>
      </g>
     </g>
    </g>
    <g id="ytick_16">
     <g id="line2d_20">
      <g>
       <use style="stroke:#000000;stroke-width:0.6;" x="101.284375" xlink:href="#mceb95824f6" y="150.54585"/>
      </g>
     </g>
    </g>
    <g id="ytick_17">
     <g id="line2d_21">
      <g>
       <use style="stroke:#000000;stroke-width:0.6;" x="101.284375" xlink:href="#mceb95824f6" y="147.048353"/>
      </g>
     </g>
    </g>
    <g id="ytick_18">
     <g id="line2d_22">
      <g>
       <use style="stroke:#000000;stroke-width:0.6;" x="101.284375" xlink:href="#mceb95824f6" y="143.963343"/>
      </g>
     </g>
    </g>
    <g id="ytick_19">
     <g id="line2d_23">
      <g>
       <use style="stroke:#000000;stroke-width:0.6;" x="101.284375" xlink:href="#mceb95824f6" y="123.048577"/>
      </g>
     </g>
    </g>
    <g id="ytick_20">
     <g id="line2d_24">
      <g>
       <use style="stroke:#000000;stroke-width:0.6;" x="101.284375" xlink:href="#mceb95824f6" y="112.428507"/>
      </g>
     </g>
    </g>
    <g id="ytick_21">
     <g id="line2d_25">
      <g>
       <use style="stroke:#000000;stroke-width:0.6;" x="101.284375" xlink:href="#mceb95824f6" y="104.893448"/>
      </g>
     </g>
    </g>
    <g id="ytick_22">
     <g id="line2d_26">
      <g>
       <use style="stroke:#000000;stroke-width:0.6;" x="101.284375" xlink:href="#mceb95824f6" y="99.048801"/>
      </g>
     </g>
    </g>
    <g id="ytick_23">
     <g id="line2d_27">
      <g>
       <use style="stroke:#000000;stroke-width:0.6;" x="101.284375" xlink:href="#mceb95824f6" y="94.273378"/>
      </g>
     </g>
    </g>
    <g id="ytick_24">
     <g id="line2d_28">
      <g>
       <use style="stroke:#000000;stroke-width:0.6;" x="101.284375" xlink:href="#mceb95824f6" y="90.235814"/>
      </g>
     </g>
    </g>
    <g id="ytick_25">
     <g id="line2d_29">
      <g>
       <use style="stroke:#000000;stroke-width:0.6;" x="101.284375" xlink:href="#mceb95824f6" y="86.738318"/>
      </g>
     </g>
    </g>
    <g id="ytick_26">
     <g id="line2d_30">
      <g>
       <use style="stroke:#000000;stroke-width:0.6;" x="101.284375" xlink:href="#mceb95824f6" y="83.653307"/>
      </g>
     </g>
    </g>
    <g id="ytick_27">
     <g id="line2d_31">
      <g>
       <use style="stroke:#000000;stroke-width:0.6;" x="101.284375" xlink:href="#mceb95824f6" y="62.738542"/>
      </g>
     </g>
    </g>
    <g id="ytick_28">
     <g id="line2d_32">
      <g>
       <use style="stroke:#000000;stroke-width:0.6;" x="101.284375" xlink:href="#mceb95824f6" y="52.118472"/>
      </g>
     </g>
    </g>
    <g id="ytick_29">
     <g id="line2d_33">
      <g>
       <use style="stroke:#000000;stroke-width:0.6;" x="101.284375" xlink:href="#mceb95824f6" y="44.583412"/>
      </g>
     </g>
    </g>
    <g id="ytick_30">
     <g id="line2d_34">
      <g>
       <use style="stroke:#000000;stroke-width:0.6;" x="101.284375" xlink:href="#mceb95824f6" y="38.738766"/>
      </g>
     </g>
    </g>
    <g id="ytick_31">
     <g id="line2d_35">
      <g>
       <use style="stroke:#000000;stroke-width:0.6;" x="101.284375" xlink:href="#mceb95824f6" y="33.963342"/>
      </g>
     </g>
    </g>
    <g id="ytick_32">
     <g id="line2d_36">
      <g>
       <use style="stroke:#000000;stroke-width:0.6;" x="101.284375" xlink:href="#mceb95824f6" y="29.925779"/>
      </g>
     </g>
    </g>
    <g id="ytick_33">
     <g id="line2d_37">
      <g>
       <use style="stroke:#000000;stroke-width:0.6;" x="101.284375" xlink:href="#mceb95824f6" y="26.428283"/>
      </g>
     </g>
    </g>
    <g id="ytick_34">
     <g id="line2d_38">
      <g>
       <use style="stroke:#000000;stroke-width:0.6;" x="101.284375" xlink:href="#mceb95824f6" y="23.343272"/>
      </g>
     </g>
    </g>
    <g id="text_10">
     <!-- ICDF -->
     <defs>
      <path d="M 9.8125 72.90625 
L 19.671875 72.90625 
L 19.671875 0 
L 9.8125 0 
z
" id="DejaVuSans-73"/>
      <path d="M 64.40625 67.28125 
L 64.40625 56.890625 
Q 59.421875 61.53125 53.78125 63.8125 
Q 48.140625 66.109375 41.796875 66.109375 
Q 29.296875 66.109375 22.65625 58.46875 
Q 16.015625 50.828125 16.015625 36.375 
Q 16.015625 21.96875 22.65625 14.328125 
Q 29.296875 6.6875 41.796875 6.6875 
Q 48.140625 6.6875 53.78125 8.984375 
Q 59.421875 11.28125 64.40625 15.921875 
L 64.40625 5.609375 
Q 59.234375 2.09375 53.4375 0.328125 
Q 47.65625 -1.421875 41.21875 -1.421875 
Q 24.65625 -1.421875 15.125 8.703125 
Q 5.609375 18.84375 5.609375 36.375 
Q 5.609375 53.953125 15.125 64.078125 
Q 24.65625 74.21875 41.21875 74.21875 
Q 47.75 74.21875 53.53125 72.484375 
Q 59.328125 70.75 64.40625 67.28125 
z
" id="DejaVuSans-67"/>
      <path d="M 19.671875 64.796875 
L 19.671875 8.109375 
L 31.59375 8.109375 
Q 46.6875 8.109375 53.6875 14.9375 
Q 60.6875 21.78125 60.6875 36.53125 
Q 60.6875 51.171875 53.6875 57.984375 
Q 46.6875 64.796875 31.59375 64.796875 
z
M 9.8125 72.90625 
L 30.078125 72.90625 
Q 51.265625 72.90625 61.171875 64.09375 
Q 71.09375 55.28125 71.09375 36.53125 
Q 71.09375 17.671875 61.125 8.828125 
Q 51.171875 0 30.078125 0 
L 9.8125 0 
z
" id="DejaVuSans-68"/>
      <path d="M 9.8125 72.90625 
L 51.703125 72.90625 
L 51.703125 64.59375 
L 19.671875 64.59375 
L 19.671875 43.109375 
L 48.578125 43.109375 
L 48.578125 34.8125 
L 19.671875 34.8125 
L 19.671875 0 
L 9.8125 0 
z
" id="DejaVuSans-70"/>
     </defs>
     <g transform="translate(29.995313 154.496562)rotate(-90)scale(0.3 -0.3)">
      <use xlink:href="#DejaVuSans-73"/>
      <use x="29.492188" xlink:href="#DejaVuSans-67"/>
      <use x="99.316406" xlink:href="#DejaVuSans-68"/>
      <use x="176.318359" xlink:href="#DejaVuSans-70"/>
     </g>
    </g>
   </g>
   <g id="line2d_39">
    <path clip-path="url(#pec44b64354)" d="M 127.907741 20.583636 
L 193.533633 20.708329 
L 203.538372 20.875514 
L 216.481131 21.497823 
L 216.481131 21.51214 
L 223.660728 22.105964 
L 223.660728 22.120617 
L 225.166406 22.370981 
L 225.166406 22.385784 
L 227.262839 22.698576 
L 227.262839 22.713564 
L 228.818473 22.909199 
L 232.857139 23.505025 
L 232.963195 23.535949 
L 234.200926 23.815917 
L 234.200926 23.831559 
L 234.796865 23.988493 
L 234.796865 24.067315 
L 236.317906 24.289285 
L 236.409874 24.400979 
L 237.222251 24.641941 
L 237.310856 24.6904 
L 238.935588 25.097754 
L 238.935588 25.11418 
L 240.535749 25.378418 
L 242.326123 25.86425 
L 242.326123 25.881165 
L 243.312512 26.102055 
L 243.312512 26.119124 
L 243.723261 26.256077 
L 244.458683 26.549504 
L 244.524446 26.619025 
L 244.979857 26.846254 
L 245.044222 26.898973 
L 246.539831 27.414131 
L 246.600189 27.521993 
L 247.077714 27.702755 
L 248.118937 27.921329 
L 249.11726 28.178659 
L 249.225688 28.271179 
L 251.643345 29.004273 
L 252.128034 29.157221 
L 252.175974 29.25327 
L 252.650228 29.427049 
L 258.761354 32.053565 
L 258.761354 32.07499 
L 259.195401 32.247026 
L 260.040846 32.660197 
L 260.891236 32.946695 
L 261.905891 33.393674 
L 262.601037 33.756831 
L 263.124861 33.986389 
L 263.786366 34.381314 
L 265.029389 34.734792 
L 265.08568 34.782284 
L 266.637381 35.554121 
L 267.262127 35.998488 
L 268.708597 36.577486 
L 269.751064 36.910498 
L 270.096442 37.14355 
L 270.391839 37.378695 
L 270.772774 37.563056 
L 270.883683 37.642467 
L 271.986877 38.232288 
L 272.530536 38.422778 
L 272.674845 38.532255 
L 273.243641 38.724948 
L 273.26371 38.752591 
L 274.188695 39.002706 
L 274.836488 39.255231 
L 274.911573 39.31168 
L 275.228113 39.510215 
L 275.849054 39.710267 
L 276.224777 40.027753 
L 276.401666 40.144164 
L 276.855623 40.290408 
L 276.959186 40.407994 
L 277.385995 40.763954 
L 277.588224 40.943765 
L 278.135807 41.307132 
L 278.315619 41.429384 
L 278.78337 41.613838 
L 279.907088 42.460342 
L 279.907088 42.492225 
L 280.300402 42.652228 
L 280.4798 42.780937 
L 280.805288 42.975195 
L 281.256633 43.170904 
L 281.557676 43.533547 
L 281.571918 43.566765 
L 282.370209 43.800478 
L 282.589643 44.138012 
L 284.021023 44.756757 
L 284.277059 44.931257 
L 284.693694 45.177526 
L 284.992264 45.426133 
L 285.274982 45.569261 
L 285.914175 46.076459 
L 286.256914 46.260007 
L 286.256914 46.296872 
L 286.664212 46.519156 
L 286.973801 46.8185 
L 287.436483 47.007342 
L 287.603573 47.197556 
L 287.956229 47.504801 
L 288.368449 47.698675 
L 288.454346 47.776629 
L 289.255531 48.130319 
L 289.276261 48.169914 
L 289.523651 48.328897 
L 289.625989 48.60946 
L 289.727897 48.811718 
L 291.140156 50.359041 
L 291.388316 50.662346 
L 292.219052 51.413907 
L 292.310638 51.503761 
L 292.592375 51.639122 
L 293.031126 51.957712 
L 293.435909 52.141518 
L 293.505621 52.233908 
L 293.557774 52.280225 
L 293.979538 52.466317 
L 294.611207 53.176179 
L 294.957879 53.36877 
L 294.957879 53.41714 
L 295.234931 53.611518 
L 295.668546 54.153617 
L 295.961236 54.403785 
L 296.133607 54.55504 
L 296.382159 54.758082 
L 297.0453 55.324703 
L 297.894912 55.957144 
L 298.205096 56.171397 
L 298.348025 56.387418 
L 298.397852 56.4961 
L 298.589087 56.659973 
L 298.61729 56.769794 
L 298.883597 56.990827 
L 300.13324 58.009231 
L 300.383481 58.182883 
L 300.64413 58.416223 
L 301.409668 59.06884 
L 301.882291 59.310246 
L 302.060232 59.676578 
L 302.249012 59.861683 
L 302.315646 60.110543 
L 302.574381 60.361791 
L 302.59233 60.424981 
L 302.919053 60.615471 
L 303.183135 61.195399 
L 303.502041 61.391597 
L 303.685674 61.721895 
L 304.312076 61.922092 
L 304.401047 62.191424 
L 304.693454 62.395256 
L 304.890077 62.738542 
L 304.906391 62.807742 
L 305.385427 63.156513 
L 305.713629 63.509991 
L 305.787128 63.652729 
L 305.964703 63.796249 
L 306.151316 64.08567 
L 306.712777 64.525887 
L 306.813478 64.674286 
L 306.943767 64.898472 
L 307.147809 65.276435 
L 307.536185 65.659931 
L 307.638385 65.892753 
L 307.913633 66.127663 
L 308.55333 66.76459 
L 308.786035 67.088957 
L 309.855206 68.948547 
L 312.121365 71.331309 
L 312.17378 71.620729 
L 312.45806 72.011667 
L 314.458948 73.32408 
L 314.60511 73.636517 
L 315.569298 74.924924 
L 315.833921 75.145957 
L 316.584037 76.280001 
L 317.082484 77.104097 
L 317.61597 77.344395 
L 317.868823 77.586918 
L 317.964156 77.709027 
L 318.39169 77.954966 
L 318.824059 78.58011 
L 319.251856 78.834407 
L 319.529943 79.091196 
L 319.529943 79.220541 
L 320.056366 79.612454 
L 320.146384 79.877025 
L 320.673908 80.278961 
L 321.611276 80.687161 
L 321.67939 81.101824 
L 321.769009 81.381958 
L 322.105499 81.523157 
L 322.150903 81.665121 
L 322.495324 81.951379 
L 322.587223 82.095689 
L 323.251554 82.533454 
L 323.57827 82.97866 
L 323.585816 83.128759 
L 323.853428 83.431564 
L 324.435859 85.162617 
L 324.802166 85.490025 
L 324.866659 85.655277 
L 325.629782 85.988942 
L 326.096797 86.842187 
L 326.300005 87.016223 
L 326.302254 87.191423 
L 326.875463 87.545379 
L 327.321447 87.904183 
L 327.71063 88.267971 
L 328.532329 88.823306 
L 328.872378 89.582557 
L 329.571904 89.970598 
L 329.6092 90.166796 
L 330.263262 90.563657 
L 331.175655 90.966624 
L 331.208728 91.375887 
L 331.751613 92.002028 
L 332.090376 92.214113 
L 332.097458 92.427929 
L 333.635338 92.643505 
L 333.683465 92.860869 
L 333.998074 93.080053 
L 334.378027 93.74883 
L 334.640811 93.975604 
L 334.677438 94.20436 
L 335.313487 94.902863 
L 335.809054 95.139899 
L 336.245518 96.110095 
L 336.820361 96.358366 
L 336.949654 96.86208 
L 338.029275 97.117616 
L 339.341416 98.165449 
L 339.341416 98.43409 
L 339.815874 98.979783 
L 339.916072 99.537088 
L 340.400888 99.820251 
L 340.596119 100.395929 
L 341.082314 100.688584 
L 341.498976 101.586694 
L 341.79735 101.89304 
L 342.277705 102.203012 
L 343.101976 104.82443 
L 343.290077 105.522933 
L 343.813054 105.879296 
L 343.869746 106.240575 
L 344.507043 107.35531 
L 344.588579 107.737687 
L 344.791751 108.125728 
L 345.710258 108.519605 
L 345.903275 108.919495 
L 347.512795 110.157158 
L 347.768172 110.583058 
L 348.914394 111.903959 
L 348.928539 112.359489 
L 349.228054 112.823082 
L 349.428868 113.775635 
L 349.698339 114.265225 
L 350.213373 114.764141 
L 350.466843 115.272746 
L 351.478094 116.320578 
L 352.114061 116.860645 
L 352.355408 117.412083 
L 352.379948 117.97538 
L 353.026579 118.551059 
L 353.419656 119.741823 
L 353.471001 120.358142 
L 353.94122 121.636069 
L 354.147313 123.678062 
L 354.541697 124.395705 
L 355.609383 125.133565 
L 355.982174 125.892816 
L 356.163163 127.480715 
L 357.402317 128.312287 
L 359.055983 130.059089 
L 361.435687 130.978212 
L 362.519336 132.919271 
L 365.489776 133.946552 
L 366.786442 135.015775 
L 366.926886 136.13051 
L 367.520087 137.294804 
L 367.806869 139.791199 
L 369.050237 141.134689 
L 369.274187 142.550835 
L 370.93766 144.047946 
L 371.63773 147.326258 
L 374.370514 149.133341 
L 374.828584 151.074401 
L 376.267993 153.170905 
L 377.419732 155.449934 
L 377.532658 160.705964 
L 378.563738 163.790975 
L 381.676544 167.288471 
L 382.050715 176.101458 
L 390.154494 181.946104 
L 390.427739 189.481164 
L 391.387992 200.101234 
L 404.062456 218.256364 
L 404.062456 218.256364 
" style="fill:none;stroke:#ff0000;stroke-linecap:square;stroke-width:4;"/>
   </g>
   <g id="patch_3">
    <path d="M 101.284375 228.14 
L 101.284375 10.7 
" style="fill:none;stroke:#000000;stroke-linecap:square;stroke-linejoin:miter;stroke-width:0.8;"/>
   </g>
   <g id="patch_4">
    <path d="M 436.084375 228.14 
L 436.084375 10.7 
" style="fill:none;stroke:#000000;stroke-linecap:square;stroke-linejoin:miter;stroke-width:0.8;"/>
   </g>
   <g id="patch_5">
    <path d="M 101.284375 228.14 
L 436.084375 228.14 
" style="fill:none;stroke:#000000;stroke-linecap:square;stroke-linejoin:miter;stroke-width:0.8;"/>
   </g>
   <g id="patch_6">
    <path d="M 101.284375 10.7 
L 436.084375 10.7 
" style="fill:none;stroke:#000000;stroke-linecap:square;stroke-linejoin:miter;stroke-width:0.8;"/>
   </g>
  </g>
 </g>
 <defs>
  <clipPath id="pec44b64354">
   <rect height="217.44" width="334.8" x="101.284375" y="10.7"/>
  </clipPath>
 </defs>
</svg>
