<?xml version="1.0" encoding="utf-8" standalone="no"?>
<!DOCTYPE svg PUBLIC "-//W3C//DTD SVG 1.1//EN"
  "http://www.w3.org/Graphics/SVG/1.1/DTD/svg11.dtd">
<!-- Created with matplotlib (https://matplotlib.org/) -->
<svg height="297.634062pt" version="1.1" viewBox="0 0 463.524375 297.634062" width="463.524375pt" xmlns="http://www.w3.org/2000/svg" xmlns:xlink="http://www.w3.org/1999/xlink">
 <defs>
  <style type="text/css">
*{stroke-linecap:butt;stroke-linejoin:round;}
  </style>
 </defs>
 <g id="figure_1">
  <g id="patch_1">
   <path d="M 0 297.634062 
L 463.524375 297.634062 
L 463.524375 0 
L 0 0 
z
" style="fill:#ffffff;"/>
  </g>
  <g id="axes_1">
   <g id="patch_2">
    <path d="M 101.284375 228.14 
L 436.084375 228.14 
L 436.084375 10.7 
L 101.284375 10.7 
z
" style="fill:#ffffff;"/>
   </g>
   <g id="matplotlib.axis_1">
    <g id="xtick_1">
     <g id="line2d_1">
      <defs>
       <path d="M 0 0 
L 0 3.5 
" id="mf33c1a8fb1" style="stroke:#000000;stroke-width:0.8;"/>
      </defs>
      <g>
       <use style="stroke:#000000;stroke-width:0.8;" x="101.284375" xlink:href="#mf33c1a8fb1" y="228.14"/>
      </g>
     </g>
     <g id="text_1">
      <!-- $\mathdefault{10^{0}}$ -->
      <defs>
       <path d="M 12.40625 8.296875 
L 28.515625 8.296875 
L 28.515625 63.921875 
L 10.984375 60.40625 
L 10.984375 69.390625 
L 28.421875 72.90625 
L 38.28125 72.90625 
L 38.28125 8.296875 
L 54.390625 8.296875 
L 54.390625 0 
L 12.40625 0 
z
" id="DejaVuSans-49"/>
       <path d="M 31.78125 66.40625 
Q 24.171875 66.40625 20.328125 58.90625 
Q 16.5 51.421875 16.5 36.375 
Q 16.5 21.390625 20.328125 13.890625 
Q 24.171875 6.390625 31.78125 6.390625 
Q 39.453125 6.390625 43.28125 13.890625 
Q 47.125 21.390625 47.125 36.375 
Q 47.125 51.421875 43.28125 58.90625 
Q 39.453125 66.40625 31.78125 66.40625 
z
M 31.78125 74.21875 
Q 44.046875 74.21875 50.515625 64.515625 
Q 56.984375 54.828125 56.984375 36.375 
Q 56.984375 17.96875 50.515625 8.265625 
Q 44.046875 -1.421875 31.78125 -1.421875 
Q 19.53125 -1.421875 13.0625 8.265625 
Q 6.59375 17.96875 6.59375 36.375 
Q 6.59375 54.828125 13.0625 64.515625 
Q 19.53125 74.21875 31.78125 74.21875 
z
" id="DejaVuSans-48"/>
      </defs>
      <g transform="translate(81.044375 252.616406)scale(0.23 -0.23)">
       <use transform="translate(0 0.765625)" xlink:href="#DejaVuSans-49"/>
       <use transform="translate(63.623047 0.765625)" xlink:href="#DejaVuSans-48"/>
       <use transform="translate(128.203125 39.046875)scale(0.7)" xlink:href="#DejaVuSans-48"/>
      </g>
     </g>
    </g>
    <g id="xtick_2">
     <g id="line2d_2">
      <g>
       <use style="stroke:#000000;stroke-width:0.8;" x="212.884375" xlink:href="#mf33c1a8fb1" y="228.14"/>
      </g>
     </g>
     <g id="text_2">
      <!-- $\mathdefault{10^{2}}$ -->
      <defs>
       <path d="M 19.1875 8.296875 
L 53.609375 8.296875 
L 53.609375 0 
L 7.328125 0 
L 7.328125 8.296875 
Q 12.9375 14.109375 22.625 23.890625 
Q 32.328125 33.6875 34.8125 36.53125 
Q 39.546875 41.84375 41.421875 45.53125 
Q 43.3125 49.21875 43.3125 52.78125 
Q 43.3125 58.59375 39.234375 62.25 
Q 35.15625 65.921875 28.609375 65.921875 
Q 23.96875 65.921875 18.8125 64.3125 
Q 13.671875 62.703125 7.8125 59.421875 
L 7.8125 69.390625 
Q 13.765625 71.78125 18.9375 73 
Q 24.125 74.21875 28.421875 74.21875 
Q 39.75 74.21875 46.484375 68.546875 
Q 53.21875 62.890625 53.21875 53.421875 
Q 53.21875 48.921875 51.53125 44.890625 
Q 49.859375 40.875 45.40625 35.40625 
Q 44.1875 33.984375 37.640625 27.21875 
Q 31.109375 20.453125 19.1875 8.296875 
z
" id="DejaVuSans-50"/>
      </defs>
      <g transform="translate(192.644375 252.616406)scale(0.23 -0.23)">
       <use transform="translate(0 0.765625)" xlink:href="#DejaVuSans-49"/>
       <use transform="translate(63.623047 0.765625)" xlink:href="#DejaVuSans-48"/>
       <use transform="translate(128.203125 39.046875)scale(0.7)" xlink:href="#DejaVuSans-50"/>
      </g>
     </g>
    </g>
    <g id="xtick_3">
     <g id="line2d_3">
      <g>
       <use style="stroke:#000000;stroke-width:0.8;" x="324.484375" xlink:href="#mf33c1a8fb1" y="228.14"/>
      </g>
     </g>
     <g id="text_3">
      <!-- $\mathdefault{10^{4}}$ -->
      <defs>
       <path d="M 37.796875 64.3125 
L 12.890625 25.390625 
L 37.796875 25.390625 
z
M 35.203125 72.90625 
L 47.609375 72.90625 
L 47.609375 25.390625 
L 58.015625 25.390625 
L 58.015625 17.1875 
L 47.609375 17.1875 
L 47.609375 0 
L 37.796875 0 
L 37.796875 17.1875 
L 4.890625 17.1875 
L 4.890625 26.703125 
z
" id="DejaVuSans-52"/>
      </defs>
      <g transform="translate(304.244375 252.616406)scale(0.23 -0.23)">
       <use transform="translate(0 0.684375)" xlink:href="#DejaVuSans-49"/>
       <use transform="translate(63.623047 0.684375)" xlink:href="#DejaVuSans-48"/>
       <use transform="translate(128.203125 38.965625)scale(0.7)" xlink:href="#DejaVuSans-52"/>
      </g>
     </g>
    </g>
    <g id="xtick_4">
     <g id="line2d_4">
      <g>
       <use style="stroke:#000000;stroke-width:0.8;" x="436.084375" xlink:href="#mf33c1a8fb1" y="228.14"/>
      </g>
     </g>
     <g id="text_4">
      <!-- $\mathdefault{10^{6}}$ -->
      <defs>
       <path d="M 33.015625 40.375 
Q 26.375 40.375 22.484375 35.828125 
Q 18.609375 31.296875 18.609375 23.390625 
Q 18.609375 15.53125 22.484375 10.953125 
Q 26.375 6.390625 33.015625 6.390625 
Q 39.65625 6.390625 43.53125 10.953125 
Q 47.40625 15.53125 47.40625 23.390625 
Q 47.40625 31.296875 43.53125 35.828125 
Q 39.65625 40.375 33.015625 40.375 
z
M 52.59375 71.296875 
L 52.59375 62.3125 
Q 48.875 64.0625 45.09375 64.984375 
Q 41.3125 65.921875 37.59375 65.921875 
Q 27.828125 65.921875 22.671875 59.328125 
Q 17.53125 52.734375 16.796875 39.40625 
Q 19.671875 43.65625 24.015625 45.921875 
Q 28.375 48.1875 33.59375 48.1875 
Q 44.578125 48.1875 50.953125 41.515625 
Q 57.328125 34.859375 57.328125 23.390625 
Q 57.328125 12.15625 50.6875 5.359375 
Q 44.046875 -1.421875 33.015625 -1.421875 
Q 20.359375 -1.421875 13.671875 8.265625 
Q 6.984375 17.96875 6.984375 36.375 
Q 6.984375 53.65625 15.1875 63.9375 
Q 23.390625 74.21875 37.203125 74.21875 
Q 40.921875 74.21875 44.703125 73.484375 
Q 48.484375 72.75 52.59375 71.296875 
z
" id="DejaVuSans-54"/>
      </defs>
      <g transform="translate(415.844375 252.616406)scale(0.23 -0.23)">
       <use transform="translate(0 0.765625)" xlink:href="#DejaVuSans-49"/>
       <use transform="translate(63.623047 0.765625)" xlink:href="#DejaVuSans-48"/>
       <use transform="translate(128.203125 39.046875)scale(0.7)" xlink:href="#DejaVuSans-54"/>
      </g>
     </g>
    </g>
    <g id="text_5">
     <!-- #users -->
     <defs>
      <path d="M 51.125 44 
L 36.921875 44 
L 32.8125 27.6875 
L 47.125 27.6875 
z
M 43.796875 71.78125 
L 38.71875 51.515625 
L 52.984375 51.515625 
L 58.109375 71.78125 
L 65.921875 71.78125 
L 60.890625 51.515625 
L 76.125 51.515625 
L 76.125 44 
L 58.984375 44 
L 54.984375 27.6875 
L 70.515625 27.6875 
L 70.515625 20.21875 
L 53.078125 20.21875 
L 48 0 
L 40.1875 0 
L 45.21875 20.21875 
L 30.90625 20.21875 
L 25.875 0 
L 18.015625 0 
L 23.09375 20.21875 
L 7.71875 20.21875 
L 7.71875 27.6875 
L 24.90625 27.6875 
L 29 44 
L 13.28125 44 
L 13.28125 51.515625 
L 30.90625 51.515625 
L 35.890625 71.78125 
z
" id="DejaVuSans-35"/>
      <path d="M 8.5 21.578125 
L 8.5 54.6875 
L 17.484375 54.6875 
L 17.484375 21.921875 
Q 17.484375 14.15625 20.5 10.265625 
Q 23.53125 6.390625 29.59375 6.390625 
Q 36.859375 6.390625 41.078125 11.03125 
Q 45.3125 15.671875 45.3125 23.6875 
L 45.3125 54.6875 
L 54.296875 54.6875 
L 54.296875 0 
L 45.3125 0 
L 45.3125 8.40625 
Q 42.046875 3.421875 37.71875 1 
Q 33.40625 -1.421875 27.6875 -1.421875 
Q 18.265625 -1.421875 13.375 4.4375 
Q 8.5 10.296875 8.5 21.578125 
z
M 31.109375 56 
z
" id="DejaVuSans-117"/>
      <path d="M 44.28125 53.078125 
L 44.28125 44.578125 
Q 40.484375 46.53125 36.375 47.5 
Q 32.28125 48.484375 27.875 48.484375 
Q 21.1875 48.484375 17.84375 46.4375 
Q 14.5 44.390625 14.5 40.28125 
Q 14.5 37.15625 16.890625 35.375 
Q 19.28125 33.59375 26.515625 31.984375 
L 29.59375 31.296875 
Q 39.15625 29.25 43.1875 25.515625 
Q 47.21875 21.78125 47.21875 15.09375 
Q 47.21875 7.46875 41.1875 3.015625 
Q 35.15625 -1.421875 24.609375 -1.421875 
Q 20.21875 -1.421875 15.453125 -0.5625 
Q 10.6875 0.296875 5.421875 2 
L 5.421875 11.28125 
Q 10.40625 8.6875 15.234375 7.390625 
Q 20.0625 6.109375 24.8125 6.109375 
Q 31.15625 6.109375 34.5625 8.28125 
Q 37.984375 10.453125 37.984375 14.40625 
Q 37.984375 18.0625 35.515625 20.015625 
Q 33.0625 21.96875 24.703125 23.78125 
L 21.578125 24.515625 
Q 13.234375 26.265625 9.515625 29.90625 
Q 5.8125 33.546875 5.8125 39.890625 
Q 5.8125 47.609375 11.28125 51.796875 
Q 16.75 56 26.8125 56 
Q 31.78125 56 36.171875 55.265625 
Q 40.578125 54.546875 44.28125 53.078125 
z
" id="DejaVuSans-115"/>
      <path d="M 56.203125 29.59375 
L 56.203125 25.203125 
L 14.890625 25.203125 
Q 15.484375 15.921875 20.484375 11.0625 
Q 25.484375 6.203125 34.421875 6.203125 
Q 39.59375 6.203125 44.453125 7.46875 
Q 49.3125 8.734375 54.109375 11.28125 
L 54.109375 2.78125 
Q 49.265625 0.734375 44.1875 -0.34375 
Q 39.109375 -1.421875 33.890625 -1.421875 
Q 20.796875 -1.421875 13.15625 6.1875 
Q 5.515625 13.8125 5.515625 26.8125 
Q 5.515625 40.234375 12.765625 48.109375 
Q 20.015625 56 32.328125 56 
Q 43.359375 56 49.78125 48.890625 
Q 56.203125 41.796875 56.203125 29.59375 
z
M 47.21875 32.234375 
Q 47.125 39.59375 43.09375 43.984375 
Q 39.0625 48.390625 32.421875 48.390625 
Q 24.90625 48.390625 20.390625 44.140625 
Q 15.875 39.890625 15.1875 32.171875 
z
" id="DejaVuSans-101"/>
      <path d="M 41.109375 46.296875 
Q 39.59375 47.171875 37.8125 47.578125 
Q 36.03125 48 33.890625 48 
Q 26.265625 48 22.1875 43.046875 
Q 18.109375 38.09375 18.109375 28.8125 
L 18.109375 0 
L 9.078125 0 
L 9.078125 54.6875 
L 18.109375 54.6875 
L 18.109375 46.1875 
Q 20.953125 51.171875 25.484375 53.578125 
Q 30.03125 56 36.53125 56 
Q 37.453125 56 38.578125 55.875 
Q 39.703125 55.765625 41.0625 55.515625 
z
" id="DejaVuSans-114"/>
     </defs>
     <g transform="translate(215.584375 284.195)scale(0.3 -0.3)">
      <use xlink:href="#DejaVuSans-35"/>
      <use x="83.789062" xlink:href="#DejaVuSans-117"/>
      <use x="147.167969" xlink:href="#DejaVuSans-115"/>
      <use x="199.267578" xlink:href="#DejaVuSans-101"/>
      <use x="260.791016" xlink:href="#DejaVuSans-114"/>
      <use x="301.904297" xlink:href="#DejaVuSans-115"/>
     </g>
    </g>
   </g>
   <g id="matplotlib.axis_2">
    <g id="ytick_1">
     <g id="line2d_5">
      <defs>
       <path d="M 0 0 
L -3.5 0 
" id="m6425f838ac" style="stroke:#000000;stroke-width:0.8;"/>
      </defs>
      <g>
       <use style="stroke:#000000;stroke-width:0.8;" x="101.284375" xlink:href="#m6425f838ac" y="209.093663"/>
      </g>
     </g>
     <g id="text_6">
      <!-- $\mathdefault{10^{-3}}$ -->
      <defs>
       <path d="M 10.59375 35.5 
L 73.1875 35.5 
L 73.1875 27.203125 
L 10.59375 27.203125 
z
" id="DejaVuSans-8722"/>
       <path d="M 40.578125 39.3125 
Q 47.65625 37.796875 51.625 33 
Q 55.609375 28.21875 55.609375 21.1875 
Q 55.609375 10.40625 48.1875 4.484375 
Q 40.765625 -1.421875 27.09375 -1.421875 
Q 22.515625 -1.421875 17.65625 -0.515625 
Q 12.796875 0.390625 7.625 2.203125 
L 7.625 11.71875 
Q 11.71875 9.328125 16.59375 8.109375 
Q 21.484375 6.890625 26.8125 6.890625 
Q 36.078125 6.890625 40.9375 10.546875 
Q 45.796875 14.203125 45.796875 21.1875 
Q 45.796875 27.640625 41.28125 31.265625 
Q 36.765625 34.90625 28.71875 34.90625 
L 20.21875 34.90625 
L 20.21875 43.015625 
L 29.109375 43.015625 
Q 36.375 43.015625 40.234375 45.921875 
Q 44.09375 48.828125 44.09375 54.296875 
Q 44.09375 59.90625 40.109375 62.90625 
Q 36.140625 65.921875 28.71875 65.921875 
Q 24.65625 65.921875 20.015625 65.03125 
Q 15.375 64.15625 9.8125 62.3125 
L 9.8125 71.09375 
Q 15.4375 72.65625 20.34375 73.4375 
Q 25.25 74.21875 29.59375 74.21875 
Q 40.828125 74.21875 47.359375 69.109375 
Q 53.90625 64.015625 53.90625 55.328125 
Q 53.90625 49.265625 50.4375 45.09375 
Q 46.96875 40.921875 40.578125 39.3125 
z
" id="DejaVuSans-51"/>
      </defs>
      <g transform="translate(40.234375 217.831866)scale(0.23 -0.23)">
       <use transform="translate(0 0.765625)" xlink:href="#DejaVuSans-49"/>
       <use transform="translate(63.623047 0.765625)" xlink:href="#DejaVuSans-48"/>
       <use transform="translate(128.203125 39.046875)scale(0.7)" xlink:href="#DejaVuSans-8722"/>
       <use transform="translate(186.855469 39.046875)scale(0.7)" xlink:href="#DejaVuSans-51"/>
      </g>
     </g>
    </g>
    <g id="ytick_2">
     <g id="line2d_6">
      <g>
       <use style="stroke:#000000;stroke-width:0.8;" x="101.284375" xlink:href="#m6425f838ac" y="146.256988"/>
      </g>
     </g>
     <g id="text_7">
      <!-- $\mathdefault{10^{-2}}$ -->
      <g transform="translate(40.234375 154.995191)scale(0.23 -0.23)">
       <use transform="translate(0 0.765625)" xlink:href="#DejaVuSans-49"/>
       <use transform="translate(63.623047 0.765625)" xlink:href="#DejaVuSans-48"/>
       <use transform="translate(128.203125 39.046875)scale(0.7)" xlink:href="#DejaVuSans-8722"/>
       <use transform="translate(186.855469 39.046875)scale(0.7)" xlink:href="#DejaVuSans-50"/>
      </g>
     </g>
    </g>
    <g id="ytick_3">
     <g id="line2d_7">
      <g>
       <use style="stroke:#000000;stroke-width:0.8;" x="101.284375" xlink:href="#m6425f838ac" y="83.420312"/>
      </g>
     </g>
     <g id="text_8">
      <!-- $\mathdefault{10^{-1}}$ -->
      <g transform="translate(40.234375 92.158515)scale(0.23 -0.23)">
       <use transform="translate(0 0.684375)" xlink:href="#DejaVuSans-49"/>
       <use transform="translate(63.623047 0.684375)" xlink:href="#DejaVuSans-48"/>
       <use transform="translate(128.203125 38.965625)scale(0.7)" xlink:href="#DejaVuSans-8722"/>
       <use transform="translate(186.855469 38.965625)scale(0.7)" xlink:href="#DejaVuSans-49"/>
      </g>
     </g>
    </g>
    <g id="ytick_4">
     <g id="line2d_8">
      <g>
       <use style="stroke:#000000;stroke-width:0.8;" x="101.284375" xlink:href="#m6425f838ac" y="20.583636"/>
      </g>
     </g>
     <g id="text_9">
      <!-- $\mathdefault{10^{0}}$ -->
      <g transform="translate(53.804375 29.321839)scale(0.23 -0.23)">
       <use transform="translate(0 0.765625)" xlink:href="#DejaVuSans-49"/>
       <use transform="translate(63.623047 0.765625)" xlink:href="#DejaVuSans-48"/>
       <use transform="translate(128.203125 39.046875)scale(0.7)" xlink:href="#DejaVuSans-48"/>
      </g>
     </g>
    </g>
    <g id="ytick_5">
     <g id="line2d_9">
      <defs>
       <path d="M 0 0 
L -2 0 
" id="mb2d9c5baea" style="stroke:#000000;stroke-width:0.6;"/>
      </defs>
      <g>
       <use style="stroke:#000000;stroke-width:0.6;" x="101.284375" xlink:href="#mb2d9c5baea" y="228.009387"/>
      </g>
     </g>
    </g>
    <g id="ytick_6">
     <g id="line2d_10">
      <g>
       <use style="stroke:#000000;stroke-width:0.6;" x="101.284375" xlink:href="#mb2d9c5baea" y="223.033901"/>
      </g>
     </g>
    </g>
    <g id="ytick_7">
     <g id="line2d_11">
      <g>
       <use style="stroke:#000000;stroke-width:0.6;" x="101.284375" xlink:href="#mb2d9c5baea" y="218.827187"/>
      </g>
     </g>
    </g>
    <g id="ytick_8">
     <g id="line2d_12">
      <g>
       <use style="stroke:#000000;stroke-width:0.6;" x="101.284375" xlink:href="#mb2d9c5baea" y="215.183166"/>
      </g>
     </g>
    </g>
    <g id="ytick_9">
     <g id="line2d_13">
      <g>
       <use style="stroke:#000000;stroke-width:0.6;" x="101.284375" xlink:href="#mb2d9c5baea" y="211.968912"/>
      </g>
     </g>
    </g>
    <g id="ytick_10">
     <g id="line2d_14">
      <g>
       <use style="stroke:#000000;stroke-width:0.6;" x="101.284375" xlink:href="#mb2d9c5baea" y="190.177939"/>
      </g>
     </g>
    </g>
    <g id="ytick_11">
     <g id="line2d_15">
      <g>
       <use style="stroke:#000000;stroke-width:0.6;" x="101.284375" xlink:href="#mb2d9c5baea" y="179.11295"/>
      </g>
     </g>
    </g>
    <g id="ytick_12">
     <g id="line2d_16">
      <g>
       <use style="stroke:#000000;stroke-width:0.6;" x="101.284375" xlink:href="#mb2d9c5baea" y="171.262215"/>
      </g>
     </g>
    </g>
    <g id="ytick_13">
     <g id="line2d_17">
      <g>
       <use style="stroke:#000000;stroke-width:0.6;" x="101.284375" xlink:href="#mb2d9c5baea" y="165.172712"/>
      </g>
     </g>
    </g>
    <g id="ytick_14">
     <g id="line2d_18">
      <g>
       <use style="stroke:#000000;stroke-width:0.6;" x="101.284375" xlink:href="#mb2d9c5baea" y="160.197226"/>
      </g>
     </g>
    </g>
    <g id="ytick_15">
     <g id="line2d_19">
      <g>
       <use style="stroke:#000000;stroke-width:0.6;" x="101.284375" xlink:href="#mb2d9c5baea" y="155.990512"/>
      </g>
     </g>
    </g>
    <g id="ytick_16">
     <g id="line2d_20">
      <g>
       <use style="stroke:#000000;stroke-width:0.6;" x="101.284375" xlink:href="#mb2d9c5baea" y="152.346491"/>
      </g>
     </g>
    </g>
    <g id="ytick_17">
     <g id="line2d_21">
      <g>
       <use style="stroke:#000000;stroke-width:0.6;" x="101.284375" xlink:href="#mb2d9c5baea" y="149.132236"/>
      </g>
     </g>
    </g>
    <g id="ytick_18">
     <g id="line2d_22">
      <g>
       <use style="stroke:#000000;stroke-width:0.6;" x="101.284375" xlink:href="#mb2d9c5baea" y="127.341263"/>
      </g>
     </g>
    </g>
    <g id="ytick_19">
     <g id="line2d_23">
      <g>
       <use style="stroke:#000000;stroke-width:0.6;" x="101.284375" xlink:href="#mb2d9c5baea" y="116.276274"/>
      </g>
     </g>
    </g>
    <g id="ytick_20">
     <g id="line2d_24">
      <g>
       <use style="stroke:#000000;stroke-width:0.6;" x="101.284375" xlink:href="#mb2d9c5baea" y="108.425539"/>
      </g>
     </g>
    </g>
    <g id="ytick_21">
     <g id="line2d_25">
      <g>
       <use style="stroke:#000000;stroke-width:0.6;" x="101.284375" xlink:href="#mb2d9c5baea" y="102.336036"/>
      </g>
     </g>
    </g>
    <g id="ytick_22">
     <g id="line2d_26">
      <g>
       <use style="stroke:#000000;stroke-width:0.6;" x="101.284375" xlink:href="#mb2d9c5baea" y="97.36055"/>
      </g>
     </g>
    </g>
    <g id="ytick_23">
     <g id="line2d_27">
      <g>
       <use style="stroke:#000000;stroke-width:0.6;" x="101.284375" xlink:href="#mb2d9c5baea" y="93.153836"/>
      </g>
     </g>
    </g>
    <g id="ytick_24">
     <g id="line2d_28">
      <g>
       <use style="stroke:#000000;stroke-width:0.6;" x="101.284375" xlink:href="#mb2d9c5baea" y="89.509815"/>
      </g>
     </g>
    </g>
    <g id="ytick_25">
     <g id="line2d_29">
      <g>
       <use style="stroke:#000000;stroke-width:0.6;" x="101.284375" xlink:href="#mb2d9c5baea" y="86.295561"/>
      </g>
     </g>
    </g>
    <g id="ytick_26">
     <g id="line2d_30">
      <g>
       <use style="stroke:#000000;stroke-width:0.6;" x="101.284375" xlink:href="#mb2d9c5baea" y="64.504588"/>
      </g>
     </g>
    </g>
    <g id="ytick_27">
     <g id="line2d_31">
      <g>
       <use style="stroke:#000000;stroke-width:0.6;" x="101.284375" xlink:href="#mb2d9c5baea" y="53.439598"/>
      </g>
     </g>
    </g>
    <g id="ytick_28">
     <g id="line2d_32">
      <g>
       <use style="stroke:#000000;stroke-width:0.6;" x="101.284375" xlink:href="#mb2d9c5baea" y="45.588864"/>
      </g>
     </g>
    </g>
    <g id="ytick_29">
     <g id="line2d_33">
      <g>
       <use style="stroke:#000000;stroke-width:0.6;" x="101.284375" xlink:href="#mb2d9c5baea" y="39.499361"/>
      </g>
     </g>
    </g>
    <g id="ytick_30">
     <g id="line2d_34">
      <g>
       <use style="stroke:#000000;stroke-width:0.6;" x="101.284375" xlink:href="#mb2d9c5baea" y="34.523874"/>
      </g>
     </g>
    </g>
    <g id="ytick_31">
     <g id="line2d_35">
      <g>
       <use style="stroke:#000000;stroke-width:0.6;" x="101.284375" xlink:href="#mb2d9c5baea" y="30.317161"/>
      </g>
     </g>
    </g>
    <g id="ytick_32">
     <g id="line2d_36">
      <g>
       <use style="stroke:#000000;stroke-width:0.6;" x="101.284375" xlink:href="#mb2d9c5baea" y="26.673139"/>
      </g>
     </g>
    </g>
    <g id="ytick_33">
     <g id="line2d_37">
      <g>
       <use style="stroke:#000000;stroke-width:0.6;" x="101.284375" xlink:href="#mb2d9c5baea" y="23.458885"/>
      </g>
     </g>
    </g>
    <g id="text_10">
     <!-- ICDF -->
     <defs>
      <path d="M 9.8125 72.90625 
L 19.671875 72.90625 
L 19.671875 0 
L 9.8125 0 
z
" id="DejaVuSans-73"/>
      <path d="M 64.40625 67.28125 
L 64.40625 56.890625 
Q 59.421875 61.53125 53.78125 63.8125 
Q 48.140625 66.109375 41.796875 66.109375 
Q 29.296875 66.109375 22.65625 58.46875 
Q 16.015625 50.828125 16.015625 36.375 
Q 16.015625 21.96875 22.65625 14.328125 
Q 29.296875 6.6875 41.796875 6.6875 
Q 48.140625 6.6875 53.78125 8.984375 
Q 59.421875 11.28125 64.40625 15.921875 
L 64.40625 5.609375 
Q 59.234375 2.09375 53.4375 0.328125 
Q 47.65625 -1.421875 41.21875 -1.421875 
Q 24.65625 -1.421875 15.125 8.703125 
Q 5.609375 18.84375 5.609375 36.375 
Q 5.609375 53.953125 15.125 64.078125 
Q 24.65625 74.21875 41.21875 74.21875 
Q 47.75 74.21875 53.53125 72.484375 
Q 59.328125 70.75 64.40625 67.28125 
z
" id="DejaVuSans-67"/>
      <path d="M 19.671875 64.796875 
L 19.671875 8.109375 
L 31.59375 8.109375 
Q 46.6875 8.109375 53.6875 14.9375 
Q 60.6875 21.78125 60.6875 36.53125 
Q 60.6875 51.171875 53.6875 57.984375 
Q 46.6875 64.796875 31.59375 64.796875 
z
M 9.8125 72.90625 
L 30.078125 72.90625 
Q 51.265625 72.90625 61.171875 64.09375 
Q 71.09375 55.28125 71.09375 36.53125 
Q 71.09375 17.671875 61.125 8.828125 
Q 51.171875 0 30.078125 0 
L 9.8125 0 
z
" id="DejaVuSans-68"/>
      <path d="M 9.8125 72.90625 
L 51.703125 72.90625 
L 51.703125 64.59375 
L 19.671875 64.59375 
L 19.671875 43.109375 
L 48.578125 43.109375 
L 48.578125 34.8125 
L 19.671875 34.8125 
L 19.671875 0 
L 9.8125 0 
z
" id="DejaVuSans-70"/>
     </defs>
     <g transform="translate(29.995313 154.496562)rotate(-90)scale(0.3 -0.3)">
      <use xlink:href="#DejaVuSans-73"/>
      <use x="29.492188" xlink:href="#DejaVuSans-67"/>
      <use x="99.316406" xlink:href="#DejaVuSans-68"/>
      <use x="176.318359" xlink:href="#DejaVuSans-70"/>
     </g>
    </g>
   </g>
   <g id="line2d_38">
    <path clip-path="url(#pcb6b50a582)" d="M -1 20.583636 
L 163.442414 20.681344 
L 175.064212 20.897539 
L 184.502358 21.335137 
L 189.4363 21.637574 
L 191.277714 21.739136 
L 192.431915 21.922905 
L 197.037362 22.356575 
L 202.069218 23.159268 
L 206.233773 23.722408 
L 207.777839 24.052661 
L 210.331107 24.521835 
L 210.863736 24.748119 
L 211.384909 24.793601 
L 211.89511 24.930506 
L 213.364265 25.298979 
L 214.066738 25.531827 
L 214.749421 25.766679 
L 215.194087 26.00357 
L 216.689146 26.266547 
L 217.503799 26.556351 
L 218.097305 26.726835 
L 219.055281 26.972247 
L 220.335846 27.170178 
L 220.864601 27.469793 
L 221.210801 27.59561 
L 227.529146 30.269829 
L 227.792557 30.381329 
L 228.053137 30.605705 
L 228.310944 30.746883 
L 233.48662 33.141987 
L 234.301272 33.735602 
L 234.599843 33.830523 
L 234.796865 33.925775 
L 234.992299 33.989461 
L 235.758643 34.374733 
L 236.225587 34.634636 
L 236.409874 34.8312 
L 236.864552 35.095509 
L 237.222251 35.262011 
L 237.662075 35.362402 
L 237.835793 35.598094 
L 238.179538 35.631931 
L 238.434185 35.83584 
L 240.066696 36.491789 
L 240.380405 36.949857 
L 240.843482 37.056665 
L 241.743906 37.379623 
L 241.96388 37.488131 
L 242.254107 37.524396 
L 242.753787 37.633482 
L 243.655285 38.000284 
L 243.858645 38.074239 
L 244.127165 38.222755 
L 244.458683 38.297316 
L 247.077714 39.872524 
L 247.254388 39.991433 
L 247.487967 40.070995 
L 248.005431 40.311081 
L 248.231915 40.351302 
L 248.456302 40.675218 
L 248.567721 40.756801 
L 249.008345 41.251491 
L 249.062864 41.251491 
L 249.279721 41.586337 
L 249.654613 41.628483 
L 250.023794 42.010756 
L 250.180309 42.053564 
L 250.33582 42.225467 
L 250.387435 42.225467 
L 250.541627 42.398461 
L 250.897636 42.485371 
L 251.098746 42.660025 
L 251.298201 42.747773 
L 251.496028 42.791753 
L 251.789772 42.879926 
L 252.079999 43.012723 
L 252.223819 43.101614 
L 252.930389 43.64113 
L 253.207348 43.732095 
L 253.526516 43.914941 
L 253.930794 44.006825 
L 254.196613 44.145235 
L 254.459548 44.237899 
L 254.719661 44.564725 
L 255.019639 44.753255 
L 255.273841 44.84801 
L 255.60868 45.086349 
L 255.774381 45.182271 
L 256.061659 45.375131 
L 256.586304 45.472075 
L 256.745475 45.618139 
L 256.942979 45.715951 
L 257.138886 45.912634 
L 257.410523 46.01151 
L 257.564388 46.160498 
L 257.679149 46.160498 
L 257.907053 46.612406 
L 258.057807 46.764721 
L 258.132834 46.866738 
L 258.282194 46.917891 
L 258.467609 47.020483 
L 258.688251 47.175099 
L 258.834237 47.278665 
L 259.015492 47.486984 
L 259.266992 47.591743 
L 259.44505 47.696905 
L 259.62181 47.802474 
L 259.762295 47.855412 
L 260.006201 47.961598 
L 260.178929 48.068198 
L 260.316231 48.175216 
L 260.554652 48.39052 
L 260.723528 48.498813 
L 260.924638 48.662061 
L 261.057791 48.771438 
L 261.190215 48.826292 
L 261.387505 48.881256 
L 261.583202 49.157749 
L 261.745083 49.269135 
L 261.905891 49.324999 
L 262.033773 49.437072 
L 262.476121 49.493281 
L 262.601037 49.719284 
L 262.971967 49.776078 
L 263.094359 49.890022 
L 263.124861 49.890022 
L 263.307069 50.176982 
L 263.427785 50.234738 
L 263.697217 50.525365 
L 263.875188 50.583863 
L 264.022505 50.642488 
L 264.285441 50.701238 
L 264.430292 50.760116 
L 264.574284 50.81912 
L 264.802904 51.056423 
L 265.029389 51.116072 
L 265.169874 51.175852 
L 265.253776 51.235764 
L 265.420713 51.355983 
L 265.531369 51.416291 
L 265.778513 51.71985 
L 265.833093 51.780969 
L 265.969009 51.965151 
L 266.265366 52.026823 
L 266.4255 52.150585 
L 266.478644 52.212678 
L 266.663736 52.399807 
L 266.847424 52.46247 
L 266.977783 52.525277 
L 267.055663 52.588229 
L 267.184909 52.71457 
L 267.568563 52.777961 
L 267.72034 52.905185 
L 267.846099 52.969021 
L 268.045965 53.225866 
L 268.318117 53.290457 
L 268.684375 53.944916 
L 268.781116 54.011233 
L 269.021293 54.412558 
L 269.140494 54.480023 
L 269.282767 54.615456 
L 269.541449 54.683425 
L 269.681394 54.888354 
L 270.004822 54.957008 
L 270.233227 55.302888 
L 270.32399 55.372594 
L 270.504502 55.582784 
L 270.639009 55.653209 
L 270.794996 55.794606 
L 270.861542 55.865581 
L 271.060089 56.151339 
L 271.147812 56.223248 
L 271.278805 56.295348 
L 271.344037 56.367638 
L 271.538686 56.65873 
L 272.071314 56.731991 
L 272.239313 56.952961 
L 272.385362 57.027017 
L 272.571855 57.325267 
L 272.633702 57.400341 
L 272.797859 57.626813 
L 273.203452 57.702723 
L 273.343821 57.855179 
L 273.463494 57.931728 
L 273.641902 58.240088 
L 273.858187 58.317726 
L 274.033723 58.630504 
L 274.304277 58.709262 
L 274.41931 58.788248 
L 274.742303 58.867464 
L 274.874059 59.106498 
L 275.098273 59.186644 
L 275.283547 59.509602 
L 275.558828 59.590942 
L 275.740626 59.918749 
L 276.313383 60.00132 
L 276.436889 60.167215 
L 276.577272 60.250542 
L 276.716847 60.417964 
L 276.803675 60.502061 
L 276.924714 60.586419 
L 276.959186 60.671038 
L 277.096584 60.926481 
L 277.250232 61.184337 
L 277.554637 61.270834 
L 277.705417 61.53198 
L 277.822045 61.619588 
L 277.987689 61.972856 
L 278.234051 62.061893 
L 278.380675 62.330758 
L 278.671289 62.420972 
L 278.831247 62.693416 
L 278.974313 62.784839 
L 279.148031 63.153623 
L 279.429639 63.246603 
L 279.584685 63.527459 
L 279.861293 63.621724 
L 280.028789 64.002073 
L 280.449993 64.097995 
L 280.613483 64.485088 
L 280.716951 64.485088 
L 280.849335 64.779055 
L 280.937192 64.877751 
L 281.068381 65.076222 
L 281.472044 65.176002 
L 281.586152 65.276147 
L 281.742179 65.376662 
L 281.869093 65.578808 
L 282.411504 65.578808 
L 282.534971 65.884863 
L 282.73936 65.987649 
L 282.874668 66.194389 
L 283.102972 66.29835 
L 283.222974 66.402708 
L 283.421666 66.507467 
L 283.566345 66.824178 
L 283.762252 66.93057 
L 283.917846 67.360337 
L 284.123762 67.468844 
L 284.28979 68.01795 
L 284.467327 68.01795 
L 284.631026 68.578331 
L 284.718716 68.578331 
L 284.843439 68.805746 
L 285.016979 68.805746 
L 285.177019 69.266342 
L 285.274982 69.266342 
L 285.409039 69.499588 
L 285.493963 69.499588 
L 285.614769 69.734844 
L 285.638858 69.734844 
L 285.770921 69.972147 
L 285.878441 69.972147 
L 285.99735 70.091577 
L 286.032909 70.091577 
L 286.186399 70.574591 
L 286.245176 70.574591 
L 286.408996 71.190636 
L 286.478867 71.190636 
L 286.641121 71.820909 
L 286.813767 71.820909 
L 286.928185 71.94873 
L 287.144101 71.94873 
L 287.268232 72.206181 
L 287.369322 72.206181 
L 287.492308 72.466084 
L 287.879523 72.466084 
L 288.010871 72.728486 
L 288.119786 72.728486 
L 288.249842 73.260984 
L 288.357691 73.260984 
L 288.486479 73.53118 
L 288.529257 73.53118 
L 288.646508 73.667288 
L 288.657139 73.667288 
L 288.78435 73.941558 
L 288.879322 73.941558 
L 289.005375 74.218612 
L 289.068157 74.218612 
L 289.214017 74.781305 
L 289.317669 74.781305 
L 289.431175 75.067063 
L 289.513393 75.067063 
L 289.625989 75.211072 
L 289.636199 75.211072 
L 289.758386 75.50139 
L 289.76854 75.50139 
L 289.890063 75.647715 
L 290.131296 75.647715 
L 290.251017 76.091458 
L 290.350336 76.091458 
L 290.468983 76.240991 
L 290.889427 76.240991 
L 291.005471 76.391347 
L 291.044029 76.391347 
L 291.159335 76.542537 
L 291.255007 76.542537 
L 291.388316 77.001197 
L 291.473629 77.001197 
L 291.586915 77.155813 
L 292.016336 77.155813 
L 292.136327 77.311309 
L 292.173129 77.311309 
L 292.328914 78.102368 
L 292.429185 78.102368 
L 292.547154 78.263369 
L 292.583337 78.263369 
L 292.700561 78.425326 
L 292.888732 78.425326 
L 293.004491 78.58825 
L 293.146208 78.58825 
L 293.27832 79.082939 
L 293.722188 79.082939 
L 293.834042 79.249849 
L 294.005124 79.249849 
L 294.132647 79.586762 
L 294.410859 79.586762 
L 294.527929 79.756791 
L 294.619519 79.756791 
L 294.743858 80.100061 
L 294.776907 80.100061 
L 294.892227 80.273329 
L 294.974264 80.273329 
L 295.121234 81.156566 
L 295.2025 81.156566 
L 295.315818 81.336696 
L 295.636691 81.336696 
L 295.76386 81.700563 
L 295.866696 81.700563 
L 295.984813 81.884332 
L 296.234889 81.884332 
L 296.351229 82.069347 
L 296.420766 82.069347 
L 296.551572 82.63204 
L 296.582247 82.63204 
L 296.696936 82.822212 
L 296.704562 82.822212 
L 296.818675 83.013719 
L 296.894452 83.013719 
L 297.015205 83.400812 
L 297.33678 83.400812 
L 297.470135 83.991946 
L 297.632135 83.991946 
L 297.76388 84.596169 
L 297.996339 84.596169 
L 298.118931 85.006547 
L 298.553787 85.006547 
L 298.666567 85.214074 
L 298.701704 85.214074 
L 298.813799 85.423191 
L 299.119415 85.423191 
L 299.23647 85.633923 
L 299.414407 85.633923 
L 299.550399 86.493509 
L 299.77313 86.493509 
L 299.887076 86.712704 
L 300.232328 86.712704 
L 300.34414 86.933674 
L 300.46197 86.933674 
L 300.57923 87.156448 
L 300.71532 87.156448 
L 300.831363 87.381055 
L 300.908417 87.381055 
L 301.023542 87.607526 
L 301.099989 87.607526 
L 301.214209 87.835892 
L 301.397105 87.835892 
L 301.509936 88.066186 
L 301.516189 88.066186 
L 301.634691 88.532687 
L 301.888449 88.532687 
L 302.011276 89.007301 
L 302.345874 89.007301 
L 302.460397 89.247739 
L 302.782959 89.247739 
L 302.89544 89.490315 
L 303.030906 89.490315 
L 303.14809 89.982034 
L 303.565322 89.982034 
L 303.679956 90.231256 
L 303.697105 90.231256 
L 303.811119 90.482775 
L 303.822491 90.482775 
L 303.935918 90.736633 
L 303.941575 90.736633 
L 304.060077 91.251547 
L 304.300931 91.251547 
L 304.423239 91.776364 
L 304.578017 91.776364 
L 304.70442 92.583012 
L 304.731812 92.583012 
L 304.846521 92.857282 
L 304.879195 92.857282 
L 304.993211 93.134337 
L 305.020278 93.134337 
L 305.133633 93.414233 
L 305.321388 93.414233 
L 305.438665 93.982787 
L 305.881301 93.982787 
L 306.001102 94.563439 
L 306.24923 94.563439 
L 306.362112 94.858465 
L 306.397919 94.858465 
L 306.515199 95.458261 
L 306.55078 95.458261 
L 306.66227 95.763176 
L 307.516669 95.763176 
L 307.628671 96.071537 
L 307.633529 96.071537 
L 307.749827 96.698912 
L 308.109703 96.698912 
L 308.223744 97.018092 
L 308.252171 97.018092 
L 308.370257 97.667876 
L 308.576702 97.667876 
L 308.688571 97.998663 
L 308.702518 97.998663 
L 308.818436 98.672515 
L 309.03487 98.672515 
L 309.149213 99.015786 
L 309.565406 99.015786 
L 309.677278 99.363429 
L 309.819724 99.363429 
L 309.934849 99.715558 
L 309.970162 99.715558 
L 310.093354 100.800056 
L 310.14596 100.800056 
L 310.263907 101.547764 
L 310.567047 101.547764 
L 310.678684 101.929443 
L 311.153785 101.929443 
L 311.271119 102.7092 
L 311.279478 102.7092 
L 311.392048 103.107596 
L 311.433608 103.107596 
L 311.549598 103.922272 
L 313.778778 103.922272 
L 313.891598 104.338915 
L 314.059849 104.338915 
L 314.17137 104.762019 
L 314.772114 104.762019 
L 314.887616 105.628428 
L 315.273419 105.628428 
L 315.390088 106.52325 
L 315.418287 106.52325 
L 315.534263 107.448411 
L 315.537769 107.448411 
L 315.653176 108.40604 
L 315.989254 108.40604 
L 316.112808 110.428418 
L 317.144895 110.428418 
L 317.259444 111.498737 
L 318.122216 111.498737 
L 318.23852 112.612753 
L 318.70131 112.612753 
L 318.817936 113.774189 
L 319.326925 113.774189 
L 319.440586 114.373985 
L 319.589332 114.373985 
L 319.704723 115.614636 
L 320.676744 115.614636 
L 320.789906 116.256775 
L 320.902543 116.256775 
L 321.014658 116.914388 
L 321.877195 116.914388 
L 321.990273 117.58824 
L 323.585816 117.58824 
L 323.698723 118.279153 
L 325.082767 118.279153 
L 325.195986 118.988014 
L 325.564974 118.988014 
L 325.678275 119.715781 
L 326.037773 119.715781 
L 326.155677 122.02332 
L 326.185063 122.02332 
L 326.297757 122.837996 
L 326.523812 122.837996 
L 326.634945 123.677743 
L 327.174419 123.677743 
L 327.286932 124.544153 
L 327.54033 124.544153 
L 327.653288 125.438975 
L 327.725475 125.438975 
L 327.837575 126.364135 
L 328.181201 126.364135 
L 328.293288 127.321764 
L 328.43576 127.321764 
L 328.548728 128.314223 
L 329.089775 128.314223 
L 329.201737 129.344142 
L 329.348897 129.344142 
L 329.461644 130.414461 
L 330.025356 130.414461 
L 330.136925 131.528478 
L 330.377545 131.528478 
L 330.4894 132.689913 
L 330.519644 132.689913 
L 330.630847 133.902985 
L 332.008793 133.902985 
L 332.120457 135.172499 
L 333.718256 135.172499 
L 333.832219 137.903738 
L 334.117247 137.903738 
L 334.229354 139.379212 
L 335.697936 139.379212 
L 335.812092 142.593467 
L 335.81361 142.593467 
L 335.925712 144.354699 
L 337.346276 144.354699 
L 337.458617 146.237488 
L 337.465709 146.237488 
L 337.577499 148.259867 
L 338.284288 148.259867 
L 338.396469 150.444202 
L 340.158423 150.444202 
L 340.269854 152.818709 
L 340.829328 152.818709 
L 340.941409 155.419688 
L 341.489367 155.419688 
L 341.600836 158.294937 
L 341.610401 158.294937 
L 341.722505 161.509191 
L 343.952366 161.509191 
L 344.063889 165.153212 
L 344.169525 165.153212 
L 344.281127 169.359926 
L 345.591879 169.359926 
L 345.703191 174.335412 
L 347.174068 174.335412 
L 347.285928 180.424915 
L 348.508655 180.424915 
L 348.619905 188.27565 
L 358.082352 188.27565 
L 358.193557 199.340639 
L 362.359414 199.340639 
L 362.470863 218.256364 
L 365.579746 218.256364 
L 365.579746 218.256364 
" style="fill:none;stroke:#ff0000;stroke-linecap:square;stroke-width:4;"/>
   </g>
   <g id="patch_3">
    <path d="M 101.284375 228.14 
L 101.284375 10.7 
" style="fill:none;stroke:#000000;stroke-linecap:square;stroke-linejoin:miter;stroke-width:0.8;"/>
   </g>
   <g id="patch_4">
    <path d="M 436.084375 228.14 
L 436.084375 10.7 
" style="fill:none;stroke:#000000;stroke-linecap:square;stroke-linejoin:miter;stroke-width:0.8;"/>
   </g>
   <g id="patch_5">
    <path d="M 101.284375 228.14 
L 436.084375 228.14 
" style="fill:none;stroke:#000000;stroke-linecap:square;stroke-linejoin:miter;stroke-width:0.8;"/>
   </g>
   <g id="patch_6">
    <path d="M 101.284375 10.7 
L 436.084375 10.7 
" style="fill:none;stroke:#000000;stroke-linecap:square;stroke-linejoin:miter;stroke-width:0.8;"/>
   </g>
  </g>
 </g>
 <defs>
  <clipPath id="pcb6b50a582">
   <rect height="217.44" width="334.8" x="101.284375" y="10.7"/>
  </clipPath>
 </defs>
</svg>
