<?xml version="1.0" encoding="utf-8" standalone="no"?>
<!DOCTYPE svg PUBLIC "-//W3C//DTD SVG 1.1//EN"
  "http://www.w3.org/Graphics/SVG/1.1/DTD/svg11.dtd">
<!-- Created with matplotlib (https://matplotlib.org/) -->
<svg height="529.812463pt" version="1.1" viewBox="0 0 972.999375 529.812463" width="972.999375pt" xmlns="http://www.w3.org/2000/svg" xmlns:xlink="http://www.w3.org/1999/xlink">
 <defs>
  <style type="text/css">
*{stroke-linecap:butt;stroke-linejoin:round;}
  </style>
 </defs>
 <g id="figure_1">
  <g id="patch_1">
   <path d="M 0 529.812463 
L 972.999375 529.812463 
L 972.999375 0 
L 0 0 
z
" style="fill:#ffffff;"/>
  </g>
  <g id="axes_1">
   <g id="patch_2">
    <path d="M 105.769375 460.3184 
L 962.299375 460.3184 
L 962.299375 10.7 
L 105.769375 10.7 
z
" style="fill:#ffffff;"/>
   </g>
   <g id="matplotlib.axis_1">
    <g id="xtick_1">
     <g id="line2d_1">
      <defs>
       <path d="M 0 0 
L 0 3.5 
" id="m9eac505063" style="stroke:#000000;stroke-width:0.8;"/>
      </defs>
      <g>
       <use style="stroke:#000000;stroke-width:0.8;" x="144.702557" xlink:href="#m9eac505063" y="460.3184"/>
      </g>
     </g>
     <g id="text_1">
      <!-- $\mathdefault{10^{0}}$ -->
      <defs>
       <path d="M 12.40625 8.296875 
L 28.515625 8.296875 
L 28.515625 63.921875 
L 10.984375 60.40625 
L 10.984375 69.390625 
L 28.421875 72.90625 
L 38.28125 72.90625 
L 38.28125 8.296875 
L 54.390625 8.296875 
L 54.390625 0 
L 12.40625 0 
z
" id="DejaVuSans-49"/>
       <path d="M 31.78125 66.40625 
Q 24.171875 66.40625 20.328125 58.90625 
Q 16.5 51.421875 16.5 36.375 
Q 16.5 21.390625 20.328125 13.890625 
Q 24.171875 6.390625 31.78125 6.390625 
Q 39.453125 6.390625 43.28125 13.890625 
Q 47.125 21.390625 47.125 36.375 
Q 47.125 51.421875 43.28125 58.90625 
Q 39.453125 66.40625 31.78125 66.40625 
z
M 31.78125 74.21875 
Q 44.046875 74.21875 50.515625 64.515625 
Q 56.984375 54.828125 56.984375 36.375 
Q 56.984375 17.96875 50.515625 8.265625 
Q 44.046875 -1.421875 31.78125 -1.421875 
Q 19.53125 -1.421875 13.0625 8.265625 
Q 6.59375 17.96875 6.59375 36.375 
Q 6.59375 54.828125 13.0625 64.515625 
Q 19.53125 74.21875 31.78125 74.21875 
z
" id="DejaVuSans-48"/>
      </defs>
      <g transform="translate(124.462557 484.794806)scale(0.23 -0.23)">
       <use transform="translate(0 0.765625)" xlink:href="#DejaVuSans-49"/>
       <use transform="translate(63.623047 0.765625)" xlink:href="#DejaVuSans-48"/>
       <use transform="translate(128.203125 39.046875)scale(0.7)" xlink:href="#DejaVuSans-48"/>
      </g>
     </g>
    </g>
    <g id="xtick_2">
     <g id="line2d_2">
      <g>
       <use style="stroke:#000000;stroke-width:0.8;" x="273.776219" xlink:href="#m9eac505063" y="460.3184"/>
      </g>
     </g>
     <g id="text_2">
      <!-- $\mathdefault{10^{1}}$ -->
      <g transform="translate(253.536219 484.794806)scale(0.23 -0.23)">
       <use transform="translate(0 0.684375)" xlink:href="#DejaVuSans-49"/>
       <use transform="translate(63.623047 0.684375)" xlink:href="#DejaVuSans-48"/>
       <use transform="translate(128.203125 38.965625)scale(0.7)" xlink:href="#DejaVuSans-49"/>
      </g>
     </g>
    </g>
    <g id="xtick_3">
     <g id="line2d_3">
      <g>
       <use style="stroke:#000000;stroke-width:0.8;" x="402.849882" xlink:href="#m9eac505063" y="460.3184"/>
      </g>
     </g>
     <g id="text_3">
      <!-- $\mathdefault{10^{2}}$ -->
      <defs>
       <path d="M 19.1875 8.296875 
L 53.609375 8.296875 
L 53.609375 0 
L 7.328125 0 
L 7.328125 8.296875 
Q 12.9375 14.109375 22.625 23.890625 
Q 32.328125 33.6875 34.8125 36.53125 
Q 39.546875 41.84375 41.421875 45.53125 
Q 43.3125 49.21875 43.3125 52.78125 
Q 43.3125 58.59375 39.234375 62.25 
Q 35.15625 65.921875 28.609375 65.921875 
Q 23.96875 65.921875 18.8125 64.3125 
Q 13.671875 62.703125 7.8125 59.421875 
L 7.8125 69.390625 
Q 13.765625 71.78125 18.9375 73 
Q 24.125 74.21875 28.421875 74.21875 
Q 39.75 74.21875 46.484375 68.546875 
Q 53.21875 62.890625 53.21875 53.421875 
Q 53.21875 48.921875 51.53125 44.890625 
Q 49.859375 40.875 45.40625 35.40625 
Q 44.1875 33.984375 37.640625 27.21875 
Q 31.109375 20.453125 19.1875 8.296875 
z
" id="DejaVuSans-50"/>
      </defs>
      <g transform="translate(382.609882 484.794806)scale(0.23 -0.23)">
       <use transform="translate(0 0.765625)" xlink:href="#DejaVuSans-49"/>
       <use transform="translate(63.623047 0.765625)" xlink:href="#DejaVuSans-48"/>
       <use transform="translate(128.203125 39.046875)scale(0.7)" xlink:href="#DejaVuSans-50"/>
      </g>
     </g>
    </g>
    <g id="xtick_4">
     <g id="line2d_4">
      <g>
       <use style="stroke:#000000;stroke-width:0.8;" x="531.923544" xlink:href="#m9eac505063" y="460.3184"/>
      </g>
     </g>
     <g id="text_4">
      <!-- $\mathdefault{10^{3}}$ -->
      <defs>
       <path d="M 40.578125 39.3125 
Q 47.65625 37.796875 51.625 33 
Q 55.609375 28.21875 55.609375 21.1875 
Q 55.609375 10.40625 48.1875 4.484375 
Q 40.765625 -1.421875 27.09375 -1.421875 
Q 22.515625 -1.421875 17.65625 -0.515625 
Q 12.796875 0.390625 7.625 2.203125 
L 7.625 11.71875 
Q 11.71875 9.328125 16.59375 8.109375 
Q 21.484375 6.890625 26.8125 6.890625 
Q 36.078125 6.890625 40.9375 10.546875 
Q 45.796875 14.203125 45.796875 21.1875 
Q 45.796875 27.640625 41.28125 31.265625 
Q 36.765625 34.90625 28.71875 34.90625 
L 20.21875 34.90625 
L 20.21875 43.015625 
L 29.109375 43.015625 
Q 36.375 43.015625 40.234375 45.921875 
Q 44.09375 48.828125 44.09375 54.296875 
Q 44.09375 59.90625 40.109375 62.90625 
Q 36.140625 65.921875 28.71875 65.921875 
Q 24.65625 65.921875 20.015625 65.03125 
Q 15.375 64.15625 9.8125 62.3125 
L 9.8125 71.09375 
Q 15.4375 72.65625 20.34375 73.4375 
Q 25.25 74.21875 29.59375 74.21875 
Q 40.828125 74.21875 47.359375 69.109375 
Q 53.90625 64.015625 53.90625 55.328125 
Q 53.90625 49.265625 50.4375 45.09375 
Q 46.96875 40.921875 40.578125 39.3125 
z
" id="DejaVuSans-51"/>
      </defs>
      <g transform="translate(511.683544 484.794806)scale(0.23 -0.23)">
       <use transform="translate(0 0.765625)" xlink:href="#DejaVuSans-49"/>
       <use transform="translate(63.623047 0.765625)" xlink:href="#DejaVuSans-48"/>
       <use transform="translate(128.203125 39.046875)scale(0.7)" xlink:href="#DejaVuSans-51"/>
      </g>
     </g>
    </g>
    <g id="xtick_5">
     <g id="line2d_5">
      <g>
       <use style="stroke:#000000;stroke-width:0.8;" x="660.997207" xlink:href="#m9eac505063" y="460.3184"/>
      </g>
     </g>
     <g id="text_5">
      <!-- $\mathdefault{10^{4}}$ -->
      <defs>
       <path d="M 37.796875 64.3125 
L 12.890625 25.390625 
L 37.796875 25.390625 
z
M 35.203125 72.90625 
L 47.609375 72.90625 
L 47.609375 25.390625 
L 58.015625 25.390625 
L 58.015625 17.1875 
L 47.609375 17.1875 
L 47.609375 0 
L 37.796875 0 
L 37.796875 17.1875 
L 4.890625 17.1875 
L 4.890625 26.703125 
z
" id="DejaVuSans-52"/>
      </defs>
      <g transform="translate(640.757207 484.794806)scale(0.23 -0.23)">
       <use transform="translate(0 0.684375)" xlink:href="#DejaVuSans-49"/>
       <use transform="translate(63.623047 0.684375)" xlink:href="#DejaVuSans-48"/>
       <use transform="translate(128.203125 38.965625)scale(0.7)" xlink:href="#DejaVuSans-52"/>
      </g>
     </g>
    </g>
    <g id="xtick_6">
     <g id="line2d_6">
      <g>
       <use style="stroke:#000000;stroke-width:0.8;" x="790.070869" xlink:href="#m9eac505063" y="460.3184"/>
      </g>
     </g>
     <g id="text_6">
      <!-- $\mathdefault{10^{5}}$ -->
      <defs>
       <path d="M 10.796875 72.90625 
L 49.515625 72.90625 
L 49.515625 64.59375 
L 19.828125 64.59375 
L 19.828125 46.734375 
Q 21.96875 47.46875 24.109375 47.828125 
Q 26.265625 48.1875 28.421875 48.1875 
Q 40.625 48.1875 47.75 41.5 
Q 54.890625 34.8125 54.890625 23.390625 
Q 54.890625 11.625 47.5625 5.09375 
Q 40.234375 -1.421875 26.90625 -1.421875 
Q 22.3125 -1.421875 17.546875 -0.640625 
Q 12.796875 0.140625 7.71875 1.703125 
L 7.71875 11.625 
Q 12.109375 9.234375 16.796875 8.0625 
Q 21.484375 6.890625 26.703125 6.890625 
Q 35.15625 6.890625 40.078125 11.328125 
Q 45.015625 15.765625 45.015625 23.390625 
Q 45.015625 31 40.078125 35.4375 
Q 35.15625 39.890625 26.703125 39.890625 
Q 22.75 39.890625 18.8125 39.015625 
Q 14.890625 38.140625 10.796875 36.28125 
z
" id="DejaVuSans-53"/>
      </defs>
      <g transform="translate(769.830869 484.794806)scale(0.23 -0.23)">
       <use transform="translate(0 0.684375)" xlink:href="#DejaVuSans-49"/>
       <use transform="translate(63.623047 0.684375)" xlink:href="#DejaVuSans-48"/>
       <use transform="translate(128.203125 38.965625)scale(0.7)" xlink:href="#DejaVuSans-53"/>
      </g>
     </g>
    </g>
    <g id="xtick_7">
     <g id="line2d_7">
      <g>
       <use style="stroke:#000000;stroke-width:0.8;" x="919.144531" xlink:href="#m9eac505063" y="460.3184"/>
      </g>
     </g>
     <g id="text_7">
      <!-- $\mathdefault{10^{6}}$ -->
      <defs>
       <path d="M 33.015625 40.375 
Q 26.375 40.375 22.484375 35.828125 
Q 18.609375 31.296875 18.609375 23.390625 
Q 18.609375 15.53125 22.484375 10.953125 
Q 26.375 6.390625 33.015625 6.390625 
Q 39.65625 6.390625 43.53125 10.953125 
Q 47.40625 15.53125 47.40625 23.390625 
Q 47.40625 31.296875 43.53125 35.828125 
Q 39.65625 40.375 33.015625 40.375 
z
M 52.59375 71.296875 
L 52.59375 62.3125 
Q 48.875 64.0625 45.09375 64.984375 
Q 41.3125 65.921875 37.59375 65.921875 
Q 27.828125 65.921875 22.671875 59.328125 
Q 17.53125 52.734375 16.796875 39.40625 
Q 19.671875 43.65625 24.015625 45.921875 
Q 28.375 48.1875 33.59375 48.1875 
Q 44.578125 48.1875 50.953125 41.515625 
Q 57.328125 34.859375 57.328125 23.390625 
Q 57.328125 12.15625 50.6875 5.359375 
Q 44.046875 -1.421875 33.015625 -1.421875 
Q 20.359375 -1.421875 13.671875 8.265625 
Q 6.984375 17.96875 6.984375 36.375 
Q 6.984375 53.65625 15.1875 63.9375 
Q 23.390625 74.21875 37.203125 74.21875 
Q 40.921875 74.21875 44.703125 73.484375 
Q 48.484375 72.75 52.59375 71.296875 
z
" id="DejaVuSans-54"/>
      </defs>
      <g transform="translate(898.904531 484.794806)scale(0.23 -0.23)">
       <use transform="translate(0 0.765625)" xlink:href="#DejaVuSans-49"/>
       <use transform="translate(63.623047 0.765625)" xlink:href="#DejaVuSans-48"/>
       <use transform="translate(128.203125 39.046875)scale(0.7)" xlink:href="#DejaVuSans-54"/>
      </g>
     </g>
    </g>
    <g id="xtick_8">
     <g id="line2d_8">
      <defs>
       <path d="M 0 0 
L 0 2 
" id="mcbe8f0ddb4" style="stroke:#000000;stroke-width:0.6;"/>
      </defs>
      <g>
       <use style="stroke:#000000;stroke-width:0.6;" x="105.847513" xlink:href="#mcbe8f0ddb4" y="460.3184"/>
      </g>
     </g>
    </g>
    <g id="xtick_9">
     <g id="line2d_9">
      <g>
       <use style="stroke:#000000;stroke-width:0.6;" x="116.067726" xlink:href="#mcbe8f0ddb4" y="460.3184"/>
      </g>
     </g>
    </g>
    <g id="xtick_10">
     <g id="line2d_10">
      <g>
       <use style="stroke:#000000;stroke-width:0.6;" x="124.708794" xlink:href="#mcbe8f0ddb4" y="460.3184"/>
      </g>
     </g>
    </g>
    <g id="xtick_11">
     <g id="line2d_11">
      <g>
       <use style="stroke:#000000;stroke-width:0.6;" x="132.194027" xlink:href="#mcbe8f0ddb4" y="460.3184"/>
      </g>
     </g>
    </g>
    <g id="xtick_12">
     <g id="line2d_12">
      <g>
       <use style="stroke:#000000;stroke-width:0.6;" x="138.79647" xlink:href="#mcbe8f0ddb4" y="460.3184"/>
      </g>
     </g>
    </g>
    <g id="xtick_13">
     <g id="line2d_13">
      <g>
       <use style="stroke:#000000;stroke-width:0.6;" x="183.557601" xlink:href="#mcbe8f0ddb4" y="460.3184"/>
      </g>
     </g>
    </g>
    <g id="xtick_14">
     <g id="line2d_14">
      <g>
       <use style="stroke:#000000;stroke-width:0.6;" x="206.286345" xlink:href="#mcbe8f0ddb4" y="460.3184"/>
      </g>
     </g>
    </g>
    <g id="xtick_15">
     <g id="line2d_15">
      <g>
       <use style="stroke:#000000;stroke-width:0.6;" x="222.412645" xlink:href="#mcbe8f0ddb4" y="460.3184"/>
      </g>
     </g>
    </g>
    <g id="xtick_16">
     <g id="line2d_16">
      <g>
       <use style="stroke:#000000;stroke-width:0.6;" x="234.921175" xlink:href="#mcbe8f0ddb4" y="460.3184"/>
      </g>
     </g>
    </g>
    <g id="xtick_17">
     <g id="line2d_17">
      <g>
       <use style="stroke:#000000;stroke-width:0.6;" x="245.141389" xlink:href="#mcbe8f0ddb4" y="460.3184"/>
      </g>
     </g>
    </g>
    <g id="xtick_18">
     <g id="line2d_18">
      <g>
       <use style="stroke:#000000;stroke-width:0.6;" x="253.782456" xlink:href="#mcbe8f0ddb4" y="460.3184"/>
      </g>
     </g>
    </g>
    <g id="xtick_19">
     <g id="line2d_19">
      <g>
       <use style="stroke:#000000;stroke-width:0.6;" x="261.267689" xlink:href="#mcbe8f0ddb4" y="460.3184"/>
      </g>
     </g>
    </g>
    <g id="xtick_20">
     <g id="line2d_20">
      <g>
       <use style="stroke:#000000;stroke-width:0.6;" x="267.870132" xlink:href="#mcbe8f0ddb4" y="460.3184"/>
      </g>
     </g>
    </g>
    <g id="xtick_21">
     <g id="line2d_21">
      <g>
       <use style="stroke:#000000;stroke-width:0.6;" x="312.631263" xlink:href="#mcbe8f0ddb4" y="460.3184"/>
      </g>
     </g>
    </g>
    <g id="xtick_22">
     <g id="line2d_22">
      <g>
       <use style="stroke:#000000;stroke-width:0.6;" x="335.360007" xlink:href="#mcbe8f0ddb4" y="460.3184"/>
      </g>
     </g>
    </g>
    <g id="xtick_23">
     <g id="line2d_23">
      <g>
       <use style="stroke:#000000;stroke-width:0.6;" x="351.486307" xlink:href="#mcbe8f0ddb4" y="460.3184"/>
      </g>
     </g>
    </g>
    <g id="xtick_24">
     <g id="line2d_24">
      <g>
       <use style="stroke:#000000;stroke-width:0.6;" x="363.994838" xlink:href="#mcbe8f0ddb4" y="460.3184"/>
      </g>
     </g>
    </g>
    <g id="xtick_25">
     <g id="line2d_25">
      <g>
       <use style="stroke:#000000;stroke-width:0.6;" x="374.215051" xlink:href="#mcbe8f0ddb4" y="460.3184"/>
      </g>
     </g>
    </g>
    <g id="xtick_26">
     <g id="line2d_26">
      <g>
       <use style="stroke:#000000;stroke-width:0.6;" x="382.856118" xlink:href="#mcbe8f0ddb4" y="460.3184"/>
      </g>
     </g>
    </g>
    <g id="xtick_27">
     <g id="line2d_27">
      <g>
       <use style="stroke:#000000;stroke-width:0.6;" x="390.341351" xlink:href="#mcbe8f0ddb4" y="460.3184"/>
      </g>
     </g>
    </g>
    <g id="xtick_28">
     <g id="line2d_28">
      <g>
       <use style="stroke:#000000;stroke-width:0.6;" x="396.943795" xlink:href="#mcbe8f0ddb4" y="460.3184"/>
      </g>
     </g>
    </g>
    <g id="xtick_29">
     <g id="line2d_29">
      <g>
       <use style="stroke:#000000;stroke-width:0.6;" x="441.704926" xlink:href="#mcbe8f0ddb4" y="460.3184"/>
      </g>
     </g>
    </g>
    <g id="xtick_30">
     <g id="line2d_30">
      <g>
       <use style="stroke:#000000;stroke-width:0.6;" x="464.433669" xlink:href="#mcbe8f0ddb4" y="460.3184"/>
      </g>
     </g>
    </g>
    <g id="xtick_31">
     <g id="line2d_31">
      <g>
       <use style="stroke:#000000;stroke-width:0.6;" x="480.55997" xlink:href="#mcbe8f0ddb4" y="460.3184"/>
      </g>
     </g>
    </g>
    <g id="xtick_32">
     <g id="line2d_32">
      <g>
       <use style="stroke:#000000;stroke-width:0.6;" x="493.0685" xlink:href="#mcbe8f0ddb4" y="460.3184"/>
      </g>
     </g>
    </g>
    <g id="xtick_33">
     <g id="line2d_33">
      <g>
       <use style="stroke:#000000;stroke-width:0.6;" x="503.288714" xlink:href="#mcbe8f0ddb4" y="460.3184"/>
      </g>
     </g>
    </g>
    <g id="xtick_34">
     <g id="line2d_34">
      <g>
       <use style="stroke:#000000;stroke-width:0.6;" x="511.929781" xlink:href="#mcbe8f0ddb4" y="460.3184"/>
      </g>
     </g>
    </g>
    <g id="xtick_35">
     <g id="line2d_35">
      <g>
       <use style="stroke:#000000;stroke-width:0.6;" x="519.415014" xlink:href="#mcbe8f0ddb4" y="460.3184"/>
      </g>
     </g>
    </g>
    <g id="xtick_36">
     <g id="line2d_36">
      <g>
       <use style="stroke:#000000;stroke-width:0.6;" x="526.017457" xlink:href="#mcbe8f0ddb4" y="460.3184"/>
      </g>
     </g>
    </g>
    <g id="xtick_37">
     <g id="line2d_37">
      <g>
       <use style="stroke:#000000;stroke-width:0.6;" x="570.778588" xlink:href="#mcbe8f0ddb4" y="460.3184"/>
      </g>
     </g>
    </g>
    <g id="xtick_38">
     <g id="line2d_38">
      <g>
       <use style="stroke:#000000;stroke-width:0.6;" x="593.507332" xlink:href="#mcbe8f0ddb4" y="460.3184"/>
      </g>
     </g>
    </g>
    <g id="xtick_39">
     <g id="line2d_39">
      <g>
       <use style="stroke:#000000;stroke-width:0.6;" x="609.633632" xlink:href="#mcbe8f0ddb4" y="460.3184"/>
      </g>
     </g>
    </g>
    <g id="xtick_40">
     <g id="line2d_40">
      <g>
       <use style="stroke:#000000;stroke-width:0.6;" x="622.142163" xlink:href="#mcbe8f0ddb4" y="460.3184"/>
      </g>
     </g>
    </g>
    <g id="xtick_41">
     <g id="line2d_41">
      <g>
       <use style="stroke:#000000;stroke-width:0.6;" x="632.362376" xlink:href="#mcbe8f0ddb4" y="460.3184"/>
      </g>
     </g>
    </g>
    <g id="xtick_42">
     <g id="line2d_42">
      <g>
       <use style="stroke:#000000;stroke-width:0.6;" x="641.003443" xlink:href="#mcbe8f0ddb4" y="460.3184"/>
      </g>
     </g>
    </g>
    <g id="xtick_43">
     <g id="line2d_43">
      <g>
       <use style="stroke:#000000;stroke-width:0.6;" x="648.488676" xlink:href="#mcbe8f0ddb4" y="460.3184"/>
      </g>
     </g>
    </g>
    <g id="xtick_44">
     <g id="line2d_44">
      <g>
       <use style="stroke:#000000;stroke-width:0.6;" x="655.09112" xlink:href="#mcbe8f0ddb4" y="460.3184"/>
      </g>
     </g>
    </g>
    <g id="xtick_45">
     <g id="line2d_45">
      <g>
       <use style="stroke:#000000;stroke-width:0.6;" x="699.852251" xlink:href="#mcbe8f0ddb4" y="460.3184"/>
      </g>
     </g>
    </g>
    <g id="xtick_46">
     <g id="line2d_46">
      <g>
       <use style="stroke:#000000;stroke-width:0.6;" x="722.580994" xlink:href="#mcbe8f0ddb4" y="460.3184"/>
      </g>
     </g>
    </g>
    <g id="xtick_47">
     <g id="line2d_47">
      <g>
       <use style="stroke:#000000;stroke-width:0.6;" x="738.707295" xlink:href="#mcbe8f0ddb4" y="460.3184"/>
      </g>
     </g>
    </g>
    <g id="xtick_48">
     <g id="line2d_48">
      <g>
       <use style="stroke:#000000;stroke-width:0.6;" x="751.215825" xlink:href="#mcbe8f0ddb4" y="460.3184"/>
      </g>
     </g>
    </g>
    <g id="xtick_49">
     <g id="line2d_49">
      <g>
       <use style="stroke:#000000;stroke-width:0.6;" x="761.436038" xlink:href="#mcbe8f0ddb4" y="460.3184"/>
      </g>
     </g>
    </g>
    <g id="xtick_50">
     <g id="line2d_50">
      <g>
       <use style="stroke:#000000;stroke-width:0.6;" x="770.077106" xlink:href="#mcbe8f0ddb4" y="460.3184"/>
      </g>
     </g>
    </g>
    <g id="xtick_51">
     <g id="line2d_51">
      <g>
       <use style="stroke:#000000;stroke-width:0.6;" x="777.562339" xlink:href="#mcbe8f0ddb4" y="460.3184"/>
      </g>
     </g>
    </g>
    <g id="xtick_52">
     <g id="line2d_52">
      <g>
       <use style="stroke:#000000;stroke-width:0.6;" x="784.164782" xlink:href="#mcbe8f0ddb4" y="460.3184"/>
      </g>
     </g>
    </g>
    <g id="xtick_53">
     <g id="line2d_53">
      <g>
       <use style="stroke:#000000;stroke-width:0.6;" x="828.925913" xlink:href="#mcbe8f0ddb4" y="460.3184"/>
      </g>
     </g>
    </g>
    <g id="xtick_54">
     <g id="line2d_54">
      <g>
       <use style="stroke:#000000;stroke-width:0.6;" x="851.654657" xlink:href="#mcbe8f0ddb4" y="460.3184"/>
      </g>
     </g>
    </g>
    <g id="xtick_55">
     <g id="line2d_55">
      <g>
       <use style="stroke:#000000;stroke-width:0.6;" x="867.780957" xlink:href="#mcbe8f0ddb4" y="460.3184"/>
      </g>
     </g>
    </g>
    <g id="xtick_56">
     <g id="line2d_56">
      <g>
       <use style="stroke:#000000;stroke-width:0.6;" x="880.289487" xlink:href="#mcbe8f0ddb4" y="460.3184"/>
      </g>
     </g>
    </g>
    <g id="xtick_57">
     <g id="line2d_57">
      <g>
       <use style="stroke:#000000;stroke-width:0.6;" x="890.509701" xlink:href="#mcbe8f0ddb4" y="460.3184"/>
      </g>
     </g>
    </g>
    <g id="xtick_58">
     <g id="line2d_58">
      <g>
       <use style="stroke:#000000;stroke-width:0.6;" x="899.150768" xlink:href="#mcbe8f0ddb4" y="460.3184"/>
      </g>
     </g>
    </g>
    <g id="xtick_59">
     <g id="line2d_59">
      <g>
       <use style="stroke:#000000;stroke-width:0.6;" x="906.636001" xlink:href="#mcbe8f0ddb4" y="460.3184"/>
      </g>
     </g>
    </g>
    <g id="xtick_60">
     <g id="line2d_60">
      <g>
       <use style="stroke:#000000;stroke-width:0.6;" x="913.238445" xlink:href="#mcbe8f0ddb4" y="460.3184"/>
      </g>
     </g>
    </g>
    <g id="xtick_61">
     <g id="line2d_61">
      <g>
       <use style="stroke:#000000;stroke-width:0.6;" x="957.999575" xlink:href="#mcbe8f0ddb4" y="460.3184"/>
      </g>
     </g>
    </g>
    <g id="text_8">
     <!-- #updates -->
     <defs>
      <path d="M 51.125 44 
L 36.921875 44 
L 32.8125 27.6875 
L 47.125 27.6875 
z
M 43.796875 71.78125 
L 38.71875 51.515625 
L 52.984375 51.515625 
L 58.109375 71.78125 
L 65.921875 71.78125 
L 60.890625 51.515625 
L 76.125 51.515625 
L 76.125 44 
L 58.984375 44 
L 54.984375 27.6875 
L 70.515625 27.6875 
L 70.515625 20.21875 
L 53.078125 20.21875 
L 48 0 
L 40.1875 0 
L 45.21875 20.21875 
L 30.90625 20.21875 
L 25.875 0 
L 18.015625 0 
L 23.09375 20.21875 
L 7.71875 20.21875 
L 7.71875 27.6875 
L 24.90625 27.6875 
L 29 44 
L 13.28125 44 
L 13.28125 51.515625 
L 30.90625 51.515625 
L 35.890625 71.78125 
z
" id="DejaVuSans-35"/>
      <path d="M 8.5 21.578125 
L 8.5 54.6875 
L 17.484375 54.6875 
L 17.484375 21.921875 
Q 17.484375 14.15625 20.5 10.265625 
Q 23.53125 6.390625 29.59375 6.390625 
Q 36.859375 6.390625 41.078125 11.03125 
Q 45.3125 15.671875 45.3125 23.6875 
L 45.3125 54.6875 
L 54.296875 54.6875 
L 54.296875 0 
L 45.3125 0 
L 45.3125 8.40625 
Q 42.046875 3.421875 37.71875 1 
Q 33.40625 -1.421875 27.6875 -1.421875 
Q 18.265625 -1.421875 13.375 4.4375 
Q 8.5 10.296875 8.5 21.578125 
z
M 31.109375 56 
z
" id="DejaVuSans-117"/>
      <path d="M 18.109375 8.203125 
L 18.109375 -20.796875 
L 9.078125 -20.796875 
L 9.078125 54.6875 
L 18.109375 54.6875 
L 18.109375 46.390625 
Q 20.953125 51.265625 25.265625 53.625 
Q 29.59375 56 35.59375 56 
Q 45.5625 56 51.78125 48.09375 
Q 58.015625 40.1875 58.015625 27.296875 
Q 58.015625 14.40625 51.78125 6.484375 
Q 45.5625 -1.421875 35.59375 -1.421875 
Q 29.59375 -1.421875 25.265625 0.953125 
Q 20.953125 3.328125 18.109375 8.203125 
z
M 48.6875 27.296875 
Q 48.6875 37.203125 44.609375 42.84375 
Q 40.53125 48.484375 33.40625 48.484375 
Q 26.265625 48.484375 22.1875 42.84375 
Q 18.109375 37.203125 18.109375 27.296875 
Q 18.109375 17.390625 22.1875 11.75 
Q 26.265625 6.109375 33.40625 6.109375 
Q 40.53125 6.109375 44.609375 11.75 
Q 48.6875 17.390625 48.6875 27.296875 
z
" id="DejaVuSans-112"/>
      <path d="M 45.40625 46.390625 
L 45.40625 75.984375 
L 54.390625 75.984375 
L 54.390625 0 
L 45.40625 0 
L 45.40625 8.203125 
Q 42.578125 3.328125 38.25 0.953125 
Q 33.9375 -1.421875 27.875 -1.421875 
Q 17.96875 -1.421875 11.734375 6.484375 
Q 5.515625 14.40625 5.515625 27.296875 
Q 5.515625 40.1875 11.734375 48.09375 
Q 17.96875 56 27.875 56 
Q 33.9375 56 38.25 53.625 
Q 42.578125 51.265625 45.40625 46.390625 
z
M 14.796875 27.296875 
Q 14.796875 17.390625 18.875 11.75 
Q 22.953125 6.109375 30.078125 6.109375 
Q 37.203125 6.109375 41.296875 11.75 
Q 45.40625 17.390625 45.40625 27.296875 
Q 45.40625 37.203125 41.296875 42.84375 
Q 37.203125 48.484375 30.078125 48.484375 
Q 22.953125 48.484375 18.875 42.84375 
Q 14.796875 37.203125 14.796875 27.296875 
z
" id="DejaVuSans-100"/>
      <path d="M 34.28125 27.484375 
Q 23.390625 27.484375 19.1875 25 
Q 14.984375 22.515625 14.984375 16.5 
Q 14.984375 11.71875 18.140625 8.90625 
Q 21.296875 6.109375 26.703125 6.109375 
Q 34.1875 6.109375 38.703125 11.40625 
Q 43.21875 16.703125 43.21875 25.484375 
L 43.21875 27.484375 
z
M 52.203125 31.203125 
L 52.203125 0 
L 43.21875 0 
L 43.21875 8.296875 
Q 40.140625 3.328125 35.546875 0.953125 
Q 30.953125 -1.421875 24.3125 -1.421875 
Q 15.921875 -1.421875 10.953125 3.296875 
Q 6 8.015625 6 15.921875 
Q 6 25.140625 12.171875 29.828125 
Q 18.359375 34.515625 30.609375 34.515625 
L 43.21875 34.515625 
L 43.21875 35.40625 
Q 43.21875 41.609375 39.140625 45 
Q 35.0625 48.390625 27.6875 48.390625 
Q 23 48.390625 18.546875 47.265625 
Q 14.109375 46.140625 10.015625 43.890625 
L 10.015625 52.203125 
Q 14.9375 54.109375 19.578125 55.046875 
Q 24.21875 56 28.609375 56 
Q 40.484375 56 46.34375 49.84375 
Q 52.203125 43.703125 52.203125 31.203125 
z
" id="DejaVuSans-97"/>
      <path d="M 18.3125 70.21875 
L 18.3125 54.6875 
L 36.8125 54.6875 
L 36.8125 47.703125 
L 18.3125 47.703125 
L 18.3125 18.015625 
Q 18.3125 11.328125 20.140625 9.421875 
Q 21.96875 7.515625 27.59375 7.515625 
L 36.8125 7.515625 
L 36.8125 0 
L 27.59375 0 
Q 17.1875 0 13.234375 3.875 
Q 9.28125 7.765625 9.28125 18.015625 
L 9.28125 47.703125 
L 2.6875 47.703125 
L 2.6875 54.6875 
L 9.28125 54.6875 
L 9.28125 70.21875 
z
" id="DejaVuSans-116"/>
      <path d="M 56.203125 29.59375 
L 56.203125 25.203125 
L 14.890625 25.203125 
Q 15.484375 15.921875 20.484375 11.0625 
Q 25.484375 6.203125 34.421875 6.203125 
Q 39.59375 6.203125 44.453125 7.46875 
Q 49.3125 8.734375 54.109375 11.28125 
L 54.109375 2.78125 
Q 49.265625 0.734375 44.1875 -0.34375 
Q 39.109375 -1.421875 33.890625 -1.421875 
Q 20.796875 -1.421875 13.15625 6.1875 
Q 5.515625 13.8125 5.515625 26.8125 
Q 5.515625 40.234375 12.765625 48.109375 
Q 20.015625 56 32.328125 56 
Q 43.359375 56 49.78125 48.890625 
Q 56.203125 41.796875 56.203125 29.59375 
z
M 47.21875 32.234375 
Q 47.125 39.59375 43.09375 43.984375 
Q 39.0625 48.390625 32.421875 48.390625 
Q 24.90625 48.390625 20.390625 44.140625 
Q 15.875 39.890625 15.1875 32.171875 
z
" id="DejaVuSans-101"/>
      <path d="M 44.28125 53.078125 
L 44.28125 44.578125 
Q 40.484375 46.53125 36.375 47.5 
Q 32.28125 48.484375 27.875 48.484375 
Q 21.1875 48.484375 17.84375 46.4375 
Q 14.5 44.390625 14.5 40.28125 
Q 14.5 37.15625 16.890625 35.375 
Q 19.28125 33.59375 26.515625 31.984375 
L 29.59375 31.296875 
Q 39.15625 29.25 43.1875 25.515625 
Q 47.21875 21.78125 47.21875 15.09375 
Q 47.21875 7.46875 41.1875 3.015625 
Q 35.15625 -1.421875 24.609375 -1.421875 
Q 20.21875 -1.421875 15.453125 -0.5625 
Q 10.6875 0.296875 5.421875 2 
L 5.421875 11.28125 
Q 10.40625 8.6875 15.234375 7.390625 
Q 20.0625 6.109375 24.8125 6.109375 
Q 31.15625 6.109375 34.5625 8.28125 
Q 37.984375 10.453125 37.984375 14.40625 
Q 37.984375 18.0625 35.515625 20.015625 
Q 33.0625 21.96875 24.703125 23.78125 
L 21.578125 24.515625 
Q 13.234375 26.265625 9.515625 29.90625 
Q 5.8125 33.546875 5.8125 39.890625 
Q 5.8125 47.609375 11.28125 51.796875 
Q 16.75 56 26.8125 56 
Q 31.78125 56 36.171875 55.265625 
Q 40.578125 54.546875 44.28125 53.078125 
z
" id="DejaVuSans-115"/>
     </defs>
     <g transform="translate(460.796875 516.3734)scale(0.3 -0.3)">
      <use xlink:href="#DejaVuSans-35"/>
      <use x="83.789062" xlink:href="#DejaVuSans-117"/>
      <use x="147.167969" xlink:href="#DejaVuSans-112"/>
      <use x="210.644531" xlink:href="#DejaVuSans-100"/>
      <use x="274.121094" xlink:href="#DejaVuSans-97"/>
      <use x="335.400391" xlink:href="#DejaVuSans-116"/>
      <use x="374.609375" xlink:href="#DejaVuSans-101"/>
      <use x="436.132812" xlink:href="#DejaVuSans-115"/>
     </g>
    </g>
   </g>
   <g id="matplotlib.axis_2">
    <g id="ytick_1">
     <g id="line2d_62">
      <defs>
       <path d="M 0 0 
L -3.5 0 
" id="m51cfbb23b3" style="stroke:#000000;stroke-width:0.8;"/>
      </defs>
      <g>
       <use style="stroke:#000000;stroke-width:0.8;" x="105.769375" xlink:href="#m51cfbb23b3" y="440.096782"/>
      </g>
     </g>
     <g id="text_9">
      <!-- 0 -->
      <g transform="translate(84.135625 448.834985)scale(0.23 -0.23)">
       <use xlink:href="#DejaVuSans-48"/>
      </g>
     </g>
    </g>
    <g id="ytick_2">
     <g id="line2d_63">
      <g>
       <use style="stroke:#000000;stroke-width:0.8;" x="105.769375" xlink:href="#m51cfbb23b3" y="386.201213"/>
      </g>
     </g>
     <g id="text_10">
      <!-- 250 -->
      <g transform="translate(54.868125 394.939416)scale(0.23 -0.23)">
       <use xlink:href="#DejaVuSans-50"/>
       <use x="63.623047" xlink:href="#DejaVuSans-53"/>
       <use x="127.246094" xlink:href="#DejaVuSans-48"/>
      </g>
     </g>
    </g>
    <g id="ytick_3">
     <g id="line2d_64">
      <g>
       <use style="stroke:#000000;stroke-width:0.8;" x="105.769375" xlink:href="#m51cfbb23b3" y="332.305643"/>
      </g>
     </g>
     <g id="text_11">
      <!-- 500 -->
      <g transform="translate(54.868125 341.043846)scale(0.23 -0.23)">
       <use xlink:href="#DejaVuSans-53"/>
       <use x="63.623047" xlink:href="#DejaVuSans-48"/>
       <use x="127.246094" xlink:href="#DejaVuSans-48"/>
      </g>
     </g>
    </g>
    <g id="ytick_4">
     <g id="line2d_65">
      <g>
       <use style="stroke:#000000;stroke-width:0.8;" x="105.769375" xlink:href="#m51cfbb23b3" y="278.410073"/>
      </g>
     </g>
     <g id="text_12">
      <!-- 750 -->
      <defs>
       <path d="M 8.203125 72.90625 
L 55.078125 72.90625 
L 55.078125 68.703125 
L 28.609375 0 
L 18.3125 0 
L 43.21875 64.59375 
L 8.203125 64.59375 
z
" id="DejaVuSans-55"/>
      </defs>
      <g transform="translate(54.868125 287.148277)scale(0.23 -0.23)">
       <use xlink:href="#DejaVuSans-55"/>
       <use x="63.623047" xlink:href="#DejaVuSans-53"/>
       <use x="127.246094" xlink:href="#DejaVuSans-48"/>
      </g>
     </g>
    </g>
    <g id="ytick_5">
     <g id="line2d_66">
      <g>
       <use style="stroke:#000000;stroke-width:0.8;" x="105.769375" xlink:href="#m51cfbb23b3" y="224.514504"/>
      </g>
     </g>
     <g id="text_13">
      <!-- 1000 -->
      <g transform="translate(40.234375 233.252707)scale(0.23 -0.23)">
       <use xlink:href="#DejaVuSans-49"/>
       <use x="63.623047" xlink:href="#DejaVuSans-48"/>
       <use x="127.246094" xlink:href="#DejaVuSans-48"/>
       <use x="190.869141" xlink:href="#DejaVuSans-48"/>
      </g>
     </g>
    </g>
    <g id="ytick_6">
     <g id="line2d_67">
      <g>
       <use style="stroke:#000000;stroke-width:0.8;" x="105.769375" xlink:href="#m51cfbb23b3" y="170.618934"/>
      </g>
     </g>
     <g id="text_14">
      <!-- 1250 -->
      <g transform="translate(40.234375 179.357137)scale(0.23 -0.23)">
       <use xlink:href="#DejaVuSans-49"/>
       <use x="63.623047" xlink:href="#DejaVuSans-50"/>
       <use x="127.246094" xlink:href="#DejaVuSans-53"/>
       <use x="190.869141" xlink:href="#DejaVuSans-48"/>
      </g>
     </g>
    </g>
    <g id="ytick_7">
     <g id="line2d_68">
      <g>
       <use style="stroke:#000000;stroke-width:0.8;" x="105.769375" xlink:href="#m51cfbb23b3" y="116.723365"/>
      </g>
     </g>
     <g id="text_15">
      <!-- 1500 -->
      <g transform="translate(40.234375 125.461568)scale(0.23 -0.23)">
       <use xlink:href="#DejaVuSans-49"/>
       <use x="63.623047" xlink:href="#DejaVuSans-53"/>
       <use x="127.246094" xlink:href="#DejaVuSans-48"/>
       <use x="190.869141" xlink:href="#DejaVuSans-48"/>
      </g>
     </g>
    </g>
    <g id="ytick_8">
     <g id="line2d_69">
      <g>
       <use style="stroke:#000000;stroke-width:0.8;" x="105.769375" xlink:href="#m51cfbb23b3" y="62.827795"/>
      </g>
     </g>
     <g id="text_16">
      <!-- 1750 -->
      <g transform="translate(40.234375 71.565998)scale(0.23 -0.23)">
       <use xlink:href="#DejaVuSans-49"/>
       <use x="63.623047" xlink:href="#DejaVuSans-55"/>
       <use x="127.246094" xlink:href="#DejaVuSans-53"/>
       <use x="190.869141" xlink:href="#DejaVuSans-48"/>
      </g>
     </g>
    </g>
    <g id="text_17">
     <!-- count -->
     <defs>
      <path d="M 48.78125 52.59375 
L 48.78125 44.1875 
Q 44.96875 46.296875 41.140625 47.34375 
Q 37.3125 48.390625 33.40625 48.390625 
Q 24.65625 48.390625 19.8125 42.84375 
Q 14.984375 37.3125 14.984375 27.296875 
Q 14.984375 17.28125 19.8125 11.734375 
Q 24.65625 6.203125 33.40625 6.203125 
Q 37.3125 6.203125 41.140625 7.25 
Q 44.96875 8.296875 48.78125 10.40625 
L 48.78125 2.09375 
Q 45.015625 0.34375 40.984375 -0.53125 
Q 36.96875 -1.421875 32.421875 -1.421875 
Q 20.0625 -1.421875 12.78125 6.34375 
Q 5.515625 14.109375 5.515625 27.296875 
Q 5.515625 40.671875 12.859375 48.328125 
Q 20.21875 56 33.015625 56 
Q 37.15625 56 41.109375 55.140625 
Q 45.0625 54.296875 48.78125 52.59375 
z
" id="DejaVuSans-99"/>
      <path d="M 30.609375 48.390625 
Q 23.390625 48.390625 19.1875 42.75 
Q 14.984375 37.109375 14.984375 27.296875 
Q 14.984375 17.484375 19.15625 11.84375 
Q 23.34375 6.203125 30.609375 6.203125 
Q 37.796875 6.203125 41.984375 11.859375 
Q 46.1875 17.53125 46.1875 27.296875 
Q 46.1875 37.015625 41.984375 42.703125 
Q 37.796875 48.390625 30.609375 48.390625 
z
M 30.609375 56 
Q 42.328125 56 49.015625 48.375 
Q 55.71875 40.765625 55.71875 27.296875 
Q 55.71875 13.875 49.015625 6.21875 
Q 42.328125 -1.421875 30.609375 -1.421875 
Q 18.84375 -1.421875 12.171875 6.21875 
Q 5.515625 13.875 5.515625 27.296875 
Q 5.515625 40.765625 12.171875 48.375 
Q 18.84375 56 30.609375 56 
z
" id="DejaVuSans-111"/>
      <path d="M 54.890625 33.015625 
L 54.890625 0 
L 45.90625 0 
L 45.90625 32.71875 
Q 45.90625 40.484375 42.875 44.328125 
Q 39.84375 48.1875 33.796875 48.1875 
Q 26.515625 48.1875 22.3125 43.546875 
Q 18.109375 38.921875 18.109375 30.90625 
L 18.109375 0 
L 9.078125 0 
L 9.078125 54.6875 
L 18.109375 54.6875 
L 18.109375 46.1875 
Q 21.34375 51.125 25.703125 53.5625 
Q 30.078125 56 35.796875 56 
Q 45.21875 56 50.046875 50.171875 
Q 54.890625 44.34375 54.890625 33.015625 
z
" id="DejaVuSans-110"/>
     </defs>
     <g transform="translate(29.995312 277.82795)rotate(-90)scale(0.3 -0.3)">
      <use xlink:href="#DejaVuSans-99"/>
      <use x="54.980469" xlink:href="#DejaVuSans-111"/>
      <use x="116.162109" xlink:href="#DejaVuSans-117"/>
      <use x="179.541016" xlink:href="#DejaVuSans-110"/>
      <use x="242.919922" xlink:href="#DejaVuSans-116"/>
     </g>
    </g>
   </g>
   <g id="line2d_70">
    <path clip-path="url(#p32b29eb0bd)" d="M -1 31.352539 
L 206.286345 31.352782 
L 222.412645 31.568365 
L 303.521106 31.568365 
L 306.725176 31.783947 
L 369.337543 31.783947 
L 370.347588 31.999529 
L 375.141617 31.999529 
L 376.053117 32.215111 
L 379.557757 32.215111 
L 380.400719 32.430694 
L 386.723581 32.430694 
L 387.466056 32.646276 
L 391.72552 32.646276 
L 392.404995 33.293023 
L 394.395357 33.293023 
L 395.04341 33.508605 
L 398.78186 33.508605 
L 399.974586 33.93977 
L 406.642553 33.93977 
L 407.164008 34.155352 
L 408.192587 34.155352 
L 408.699885 34.370934 
L 415.805076 34.370934 
L 416.248208 34.586516 
L 416.687865 35.017681 
L 419.672539 35.017681 
L 420.086238 35.233263 
L 422.899673 35.233263 
L 423.290309 35.448846 
L 424.826185 35.448846 
L 425.951092 36.095592 
L 431.260039 36.095592 
L 431.596712 36.311175 
L 431.931376 36.742339 
L 435.172509 36.742339 
L 435.486548 36.957922 
L 436.725405 36.957922 
L 437.030888 37.173504 
L 437.636904 37.173504 
L 437.937473 37.389086 
L 438.82963 37.389086 
L 439.123888 37.604668 
L 440.572443 37.604668 
L 441.423943 38.251415 
L 442.539521 38.251415 
L 442.814981 38.68258 
L 443.089094 39.329327 
L 444.439906 39.329327 
L 444.706206 39.760491 
L 445.23504 39.760491 
L 445.497598 39.976073 
L 446.277972 39.976073 
L 446.535701 40.191656 
L 448.803443 40.191656 
L 449.049843 40.62282 
L 449.295165 40.62282 
L 449.539418 40.838403 
L 449.782612 40.838403 
L 450.024754 41.053985 
L 450.265856 41.053985 
L 450.505925 41.269567 
L 450.74497 41.269567 
L 450.983 41.485149 
L 451.691085 41.485149 
L 451.925139 41.700732 
L 452.15822 41.700732 
L 452.390337 42.131896 
L 453.080973 42.131896 
L 453.309308 42.347478 
L 455.323512 42.347478 
L 455.542909 42.563061 
L 456.195996 42.563061 
L 456.412012 42.778643 
L 456.627198 43.209808 
L 457.055108 43.209808 
L 457.267845 43.42539 
L 457.690911 43.42539 
L 457.901252 44.072137 
L 459.35195 44.072137 
L 459.556162 44.503301 
L 459.962366 44.503301 
L 460.16437 44.718884 
L 460.566206 44.718884 
L 460.76605 44.934466 
L 461.163612 44.934466 
L 461.36134 45.150048 
L 461.558374 45.150048 
L 461.754717 45.36563 
L 462.145353 45.36563 
L 462.339654 45.581213 
L 463.301187 45.581213 
L 463.681229 46.012377 
L 464.433669 46.012377 
L 465.176144 46.874706 
L 465.726616 46.874706 
L 466.090617 47.305871 
L 466.632225 48.383782 
L 467.16865 48.383782 
L 467.346324 48.599365 
L 467.69999 48.599365 
L 467.87599 48.814947 
L 468.051439 49.246111 
L 468.920542 49.246111 
L 469.092757 49.461694 
L 469.264445 49.892858 
L 470.619338 49.892858 
L 470.953005 50.324023 
L 471.119097 50.324023 
L 471.284699 50.539605 
L 471.778587 50.539605 
L 472.105445 51.401934 
L 472.753498 51.401934 
L 473.074737 51.833099 
L 473.711743 51.833099 
L 473.86987 52.048681 
L 474.027553 52.048681 
L 474.184792 52.264263 
L 474.341592 52.264263 
L 474.497955 52.479846 
L 474.653883 53.126592 
L 475.11908 53.126592 
L 475.273292 53.342175 
L 475.427081 53.773339 
L 475.885932 53.773339 
L 476.038051 53.988922 
L 476.341057 53.988922 
L 476.491949 54.204504 
L 476.642434 54.204504 
L 476.792517 54.420086 
L 477.091483 54.420086 
L 477.240371 54.635668 
L 477.536964 54.635668 
L 477.684674 54.851251 
L 477.978932 55.497997 
L 478.562853 55.497997 
L 478.707888 55.929162 
L 479.140755 55.929162 
L 479.570305 56.575909 
L 479.996588 56.575909 
L 480.137965 56.791491 
L 480.278987 56.791491 
L 480.419654 57.007073 
L 480.55997 57.007073 
L 480.839551 58.300567 
L 480.978821 58.300567 
L 481.117745 58.516149 
L 481.394566 58.516149 
L 481.532465 58.731732 
L 481.944138 58.731732 
L 482.080694 59.162896 
L 482.488375 59.162896 
L 482.623613 59.378478 
L 482.758525 59.378478 
L 482.893114 59.594061 
L 483.027379 59.594061 
L 483.161324 59.809643 
L 483.428258 59.809643 
L 483.56125 60.025225 
L 484.221516 60.025225 
L 484.352642 60.240808 
L 484.483461 60.671972 
L 484.874096 60.671972 
L 485.262029 61.103137 
L 485.390745 61.103137 
L 485.647294 61.749884 
L 486.283578 61.749884 
L 486.787455 62.39663 
L 486.91272 62.39663 
L 487.162413 63.043377 
L 487.410999 63.043377 
L 487.658487 63.258959 
L 488.394462 63.258959 
L 488.758858 63.690124 
L 488.879799 63.690124 
L 489.480619 64.552453 
L 489.600014 64.552453 
L 489.838044 64.768035 
L 490.311093 64.768035 
L 490.896845 65.630365 
L 491.706749 65.630365 
L 491.936018 66.061529 
L 492.050301 66.061529 
L 492.164352 66.923858 
L 492.39176 66.923858 
L 492.618249 67.139441 
L 493.403831 67.139441 
L 493.737168 67.570605 
L 494.068534 67.570605 
L 494.288362 67.786187 
L 494.616495 67.786187 
L 495.482242 69.295263 
L 495.589526 69.295263 
L 495.803481 69.510846 
L 495.910152 69.510846 
L 496.122889 69.94201 
L 496.228955 69.94201 
L 496.440487 70.588757 
L 497.174626 70.588757 
L 497.382627 71.235504 
L 497.796326 71.235504 
L 498.002036 71.666668 
L 498.206994 72.528997 
L 498.309193 72.528997 
L 498.513033 72.74458 
L 498.614676 72.74458 
L 498.81741 73.175744 
L 499.019414 73.391327 
L 499.120143 73.391327 
L 499.321061 73.606909 
L 499.521261 73.606909 
L 499.720749 73.822491 
L 499.919529 73.822491 
L 500.216384 74.253656 
L 500.314987 74.253656 
L 500.511675 74.469238 
L 500.707675 74.469238 
L 500.902993 75.115985 
L 501.194698 75.115985 
L 501.484894 75.547149 
L 501.581293 75.547149 
L 501.869499 76.193896 
L 502.060817 76.840643 
L 502.346574 77.271808 
L 502.441504 77.271808 
L 502.725332 77.702972 
L 502.913756 77.702972 
L 503.101548 78.134137 
L 503.195209 78.134137 
L 503.382062 78.349719 
L 503.66118 78.349719 
L 503.846489 78.780884 
L 504.123309 78.780884 
L 504.3071 78.996466 
L 504.763956 78.996466 
L 504.945661 79.212048 
L 505.036293 79.212048 
L 505.307314 79.643213 
L 505.756123 79.643213 
L 506.555034 81.367871 
L 506.643103 81.367871 
L 506.818828 81.799035 
L 506.994003 81.799035 
L 507.168632 82.445782 
L 507.342719 82.445782 
L 507.775586 83.308111 
L 507.86176 83.308111 
L 508.033711 83.739276 
L 508.205136 83.954858 
L 508.885642 83.954858 
L 509.390654 85.03277 
L 509.724819 85.03277 
L 510.304856 86.326263 
L 510.551618 86.326263 
L 510.715524 86.757428 
L 511.041907 86.757428 
L 511.689025 88.266504 
L 512.169507 88.266504 
L 512.408213 88.697668 
L 512.487556 88.697668 
L 512.645907 88.913251 
L 512.724914 88.913251 
L 512.882597 89.128833 
L 513.352999 89.128833 
L 513.508927 89.77558 
L 513.896859 89.77558 
L 514.051283 89.991162 
L 514.282125 89.991162 
L 514.435493 90.206744 
L 514.740976 90.206744 
L 514.969001 90.637909 
L 515.196102 90.637909 
L 515.722453 91.931403 
L 515.946527 91.931403 
L 516.318006 93.440478 
L 516.539718 93.871643 
L 516.833976 93.871643 
L 516.980527 94.087225 
L 517.126697 94.087225 
L 517.272486 94.302808 
L 517.345239 94.302808 
L 518.282531 96.889795 
L 518.425349 96.889795 
L 518.638896 97.320959 
L 518.993009 97.320959 
L 519.204409 97.967706 
L 519.3449 97.967706 
L 519.48504 98.183289 
L 519.624831 98.183289 
L 519.764273 98.614453 
L 519.90337 98.614453 
L 520.042123 98.830035 
L 520.318602 98.830035 
L 520.456331 99.045618 
L 520.662293 99.045618 
L 520.799182 99.2612 
L 520.867502 99.2612 
L 521.003891 99.692365 
L 521.207855 99.692365 
L 521.343419 99.907947 
L 521.613569 99.907947 
L 521.882423 100.554694 
L 522.083221 100.554694 
L 522.216688 100.770276 
L 522.283302 100.770276 
L 522.416294 100.985858 
L 522.482672 100.985858 
L 522.615192 101.201441 
L 522.681335 101.201441 
L 522.813386 101.417023 
L 522.945128 101.417023 
L 523.07656 101.848187 
L 523.207686 101.848187 
L 523.338505 102.06377 
L 523.534163 102.06377 
L 523.85875 102.926099 
L 524.374211 102.926099 
L 524.566293 103.572846 
L 524.757719 104.435175 
L 524.884975 104.650757 
L 524.948494 104.650757 
L 525.075318 104.866339 
L 525.265017 104.866339 
L 525.391127 105.081922 
L 525.767764 105.081922 
L 525.955138 105.728668 
L 526.079707 105.728668 
L 526.204 105.944251 
L 526.636867 105.944251 
L 526.759931 106.159833 
L 527.127513 106.159833 
L 527.734843 108.100073 
L 527.915766 108.100073 
L 528.27587 109.177985 
L 528.395392 109.177985 
L 528.574199 109.824732 
L 528.633675 109.824732 
L 528.752438 110.040314 
L 528.989211 110.040314 
L 529.107224 110.471478 
L 529.224988 110.471478 
L 529.459778 111.54939 
L 529.635227 111.54939 
L 529.810129 111.980554 
L 529.926428 111.980554 
L 530.619198 114.136377 
L 530.676545 114.136377 
L 531.019396 114.998706 
L 531.303512 114.998706 
L 531.698871 116.076618 
L 531.755123 116.076618 
L 531.923544 116.938947 
L 531.979572 116.938947 
L 532.314569 117.801276 
L 532.370208 117.801276 
L 532.536793 118.016858 
L 532.592212 118.016858 
L 532.923578 118.879187 
L 532.978616 118.879187 
L 533.143406 119.09477 
L 533.362375 119.09477 
L 533.634889 119.741516 
L 533.689233 119.741516 
L 533.797763 120.603846 
L 534.014196 121.466175 
L 534.068174 121.466175 
L 534.229796 121.681757 
L 534.390954 121.681757 
L 534.551649 122.328504 
L 534.605112 122.328504 
L 535.189865 124.268744 
L 535.295531 124.268744 
L 535.558829 124.915491 
L 535.663803 124.915491 
L 536.02967 125.993403 
L 536.081743 125.993403 
L 536.28955 126.424567 
L 536.393166 126.424567 
L 537.062038 128.795972 
L 537.317186 128.795972 
L 537.672454 130.089466 
L 537.824025 131.382959 
L 538.176105 131.382959 
L 538.326322 131.598542 
L 538.724944 131.598542 
L 538.923197 132.029706 
L 539.317612 132.029706 
L 539.513784 132.460871 
L 539.611613 132.460871 
L 539.80676 132.892035 
L 539.855441 132.892035 
L 540.00123 133.3232 
L 540.146641 133.538782 
L 540.195028 133.538782 
L 540.339938 134.401111 
L 540.628639 135.263441 
L 540.724543 135.263441 
L 540.963588 135.910187 
L 541.106527 135.910187 
L 541.391317 136.772516 
L 541.485926 136.772516 
L 541.674667 137.203681 
L 541.7688 137.203681 
L 542.097025 138.281592 
L 542.237106 138.281592 
L 542.469801 138.928339 
L 542.608955 138.928339 
L 542.978353 140.221833 
L 543.207997 140.221833 
L 543.345333 140.86858 
L 543.436704 140.86858 
L 543.664482 141.515327 
L 543.800705 141.515327 
L 544.072163 142.377656 
L 544.117279 142.377656 
L 544.342313 143.024403 
L 544.387212 143.024403 
L 544.655851 143.886732 
L 544.78969 143.886732 
L 544.923209 144.102314 
L 544.967645 144.102314 
L 545.100742 144.533478 
L 545.277715 144.533478 
L 545.410078 144.964643 
L 545.586078 144.964643 
L 545.717717 145.180225 
L 545.761528 145.180225 
L 545.892755 145.61139 
L 546.067248 145.61139 
L 546.197763 145.826972 
L 546.414614 145.826972 
L 546.544324 146.042554 
L 546.845816 146.042554 
L 546.974533 146.689301 
L 547.188405 147.336048 
L 547.401465 147.336048 
L 547.613718 147.982795 
L 547.825171 147.982795 
L 548.161844 149.276289 
L 548.203787 149.276289 
L 548.329426 149.491871 
L 548.371243 149.491871 
L 548.496508 149.707453 
L 548.538201 149.707453 
L 548.663093 149.923035 
L 548.829185 149.923035 
L 548.994787 150.569782 
L 549.036111 150.569782 
L 549.201103 151.216529 
L 549.324529 151.216529 
L 549.488675 151.647694 
L 549.529637 151.647694 
L 549.77478 153.15677 
L 549.815533 153.15677 
L 549.937615 153.372352 
L 550.099979 153.372352 
L 550.503842 155.09701 
L 550.864848 155.09701 
L 550.984668 155.312592 
L 551.024551 155.312592 
L 551.144031 155.528175 
L 551.302943 155.528175 
L 551.421831 155.743757 
L 551.855612 155.743757 
L 552.051681 156.390504 
L 552.090812 156.390504 
L 552.247066 157.252833 
L 552.286061 157.252833 
L 552.441772 157.683997 
L 552.480633 157.683997 
L 552.635805 158.115162 
L 552.751903 158.115162 
L 553.060327 159.408656 
L 553.137169 159.408656 
L 553.290537 159.83982 
L 553.367064 159.83982 
L 553.481659 160.055403 
L 553.786105 160.055403 
L 553.93771 160.486567 
L 554.013359 160.486567 
L 554.202037 161.133314 
L 554.27733 161.133314 
L 554.465122 161.564478 
L 554.502606 161.564478 
L 554.726979 162.211225 
L 554.801572 162.211225 
L 554.950459 162.426808 
L 555.136013 162.426808 
L 555.320956 162.857972 
L 555.50529 162.857972 
L 555.835571 164.151466 
L 556.200283 164.151466 
L 556.381753 164.58263 
L 556.634828 164.58263 
L 556.850843 165.229377 
L 556.994393 165.229377 
L 557.173314 165.660542 
L 557.244723 165.660542 
L 557.600409 167.169618 
L 557.706676 167.169618 
L 557.883342 167.600782 
L 557.918609 167.600782 
L 558.129742 168.247529 
L 558.164854 168.247529 
L 558.340084 168.678694 
L 558.410023 168.678694 
L 558.584489 169.109858 
L 558.758414 169.109858 
L 558.897167 169.325441 
L 558.966414 169.325441 
L 559.242553 170.403352 
L 559.311375 170.403352 
L 559.483063 170.834516 
L 559.585824 170.834516 
L 559.790782 172.12801 
L 560.232304 172.12801 
L 560.36746 172.559175 
L 560.670375 173.852668 
L 560.737467 173.852668 
L 560.904849 174.283833 
L 561.005038 174.283833 
L 561.138346 174.499415 
L 561.404015 174.499415 
L 561.536379 174.714997 
L 561.73434 174.714997 
L 561.898775 175.577327 
L 561.964415 175.577327 
L 562.128177 176.008491 
L 562.226206 176.008491 
L 562.389207 176.439656 
L 562.42175 176.439656 
L 562.616615 177.086403 
L 562.746149 177.086403 
L 562.907647 177.517567 
L 562.972117 177.517567 
L 563.165081 178.164314 
L 563.197177 178.164314 
L 563.325378 178.379896 
L 563.453287 178.379896 
L 563.612763 178.811061 
L 563.644604 178.811061 
L 563.771787 179.026643 
L 563.866986 179.026643 
L 563.993666 179.242225 
L 564.088489 179.242225 
L 564.246171 179.888972 
L 564.340568 179.888972 
L 564.528886 180.966884 
L 564.654081 181.182466 
L 564.716574 181.182466 
L 564.903635 181.829213 
L 564.96585 181.829213 
L 565.121087 182.475959 
L 565.306805 182.475959 
L 565.614975 183.985035 
L 565.737771 183.985035 
L 565.860297 184.200618 
L 566.25667 184.200618 
L 566.378069 184.4162 
L 566.468946 184.4162 
L 566.740696 185.709694 
L 566.921134 185.709694 
L 567.071057 186.140858 
L 567.100993 186.140858 
L 567.310102 187.003187 
L 567.339911 187.003187 
L 567.458989 187.21877 
L 567.637133 187.21877 
L 567.814713 188.296681 
L 568.021181 188.296681 
L 568.168194 188.943428 
L 568.285527 188.943428 
L 568.431849 189.805757 
L 568.490271 189.805757 
L 568.665173 190.452504 
L 569.128927 190.452504 
L 569.273067 190.883668 
L 569.33062 190.883668 
L 569.445547 191.099251 
L 569.646106 191.099251 
L 569.760389 191.530415 
L 569.817443 191.530415 
L 569.931378 191.745997 
L 570.243511 191.745997 
L 570.384816 192.177162 
L 570.638273 192.177162 
L 570.750553 192.392744 
L 570.890588 192.392744 
L 571.030274 192.608327 
L 571.308606 192.608327 
L 571.474945 193.039491 
L 571.530281 193.039491 
L 571.668384 193.255073 
L 571.806148 193.255073 
L 571.943574 193.470656 
L 571.971019 193.470656 
L 572.108041 193.686238 
L 572.135406 193.686238 
L 572.299312 194.117403 
L 572.408318 194.117403 
L 572.598568 195.410896 
L 572.788176 195.410896 
L 572.923218 195.626478 
L 573.08484 195.626478 
L 573.21917 195.842061 
L 573.245998 195.842061 
L 573.406693 196.273225 
L 573.726709 196.273225 
L 573.886035 196.70439 
L 573.939043 196.70439 
L 574.071344 196.919972 
L 574.335013 196.919972 
L 574.518847 197.566719 
L 574.649788 197.566719 
L 574.780424 197.782301 
L 574.988811 197.782301 
L 575.118661 197.997884 
L 575.24821 197.997884 
L 575.403275 198.429048 
L 575.942649 198.429048 
L 576.095808 198.860213 
L 576.223121 198.860213 
L 576.451559 199.938124 
L 576.552788 199.938124 
L 576.805066 201.231618 
L 576.90566 201.231618 
L 577.031149 201.4472 
L 577.106308 201.4472 
L 577.256324 201.878365 
L 577.430837 201.878365 
L 577.579988 202.309529 
L 577.802974 202.309529 
L 577.926472 202.525111 
L 578.098914 202.525111 
L 578.221763 202.956276 
L 578.319849 202.956276 
L 578.442215 203.171858 
L 578.491087 203.171858 
L 578.637448 203.603023 
L 578.734809 203.603023 
L 578.904786 204.24977 
L 579.170856 204.24977 
L 579.291381 204.465352 
L 579.387614 204.465352 
L 579.555626 205.112099 
L 579.770905 205.112099 
L 579.890147 205.327681 
L 580.364598 205.327681 
L 580.529711 205.974428 
L 580.647352 205.974428 
L 580.788197 206.405592 
L 581.301619 206.405592 
L 581.463999 207.052339 
L 581.533447 207.052339 
L 581.649003 207.267922 
L 581.672085 207.267922 
L 581.787355 207.483504 
L 582.246081 207.483504 
L 582.38297 207.914668 
L 582.405753 207.914668 
L 582.519526 208.130251 
L 582.587679 208.130251 
L 582.701084 208.345833 
L 582.746381 208.345833 
L 582.859466 208.561415 
L 582.927207 208.561415 
L 583.039928 208.776997 
L 583.107452 208.776997 
L 583.242256 209.423744 
L 583.309536 209.423744 
L 583.421492 209.639327 
L 583.488558 209.639327 
L 583.644734 210.070491 
L 584.154841 210.070491 
L 584.309174 210.501656 
L 584.900511 210.501656 
L 585.052807 210.93282 
L 585.183018 210.93282 
L 585.312928 211.148403 
L 585.528777 211.148403 
L 585.679379 211.579567 
L 585.743799 211.579567 
L 585.872417 211.795149 
L 586.086126 211.795149 
L 586.213962 212.010732 
L 586.299024 212.010732 
L 586.532282 213.304225 
L 586.785643 213.304225 
L 586.953916 213.950972 
L 587.18447 213.950972 
L 587.330694 214.382137 
L 588.014944 214.382137 
L 588.159021 214.813301 
L 588.282221 214.813301 
L 588.40515 215.028884 
L 588.751995 215.028884 
L 588.8739 215.244466 
L 589.036028 215.244466 
L 589.157318 215.67563 
L 589.19769 215.67563 
L 589.338762 216.106795 
L 589.358886 216.106795 
L 589.47948 216.537959 
L 589.679895 216.537959 
L 589.81976 216.969124 
L 589.97918 216.969124 
L 590.118301 217.400289 
L 590.138148 217.400289 
L 590.257078 217.615871 
L 590.276876 217.615871 
L 590.395513 217.831453 
L 590.553306 217.831453 
L 590.67136 218.047035 
L 590.847976 218.047035 
L 590.98496 218.4782 
L 591.063087 218.4782 
L 591.199548 218.909365 
L 591.296817 218.909365 
L 591.413317 219.124947 
L 591.471476 219.124947 
L 591.587614 219.340529 
L 591.645593 219.340529 
L 591.799911 219.987276 
L 591.992213 219.987276 
L 592.145581 220.634023 
L 592.202986 220.634023 
L 592.336703 221.065187 
L 592.43202 221.065187 
L 592.603184 221.927516 
L 592.792754 221.927516 
L 592.962821 222.789846 
L 593.075913 222.789846 
L 593.207567 223.22101 
L 593.301416 223.22101 
L 593.432541 223.652175 
L 593.731109 223.652175 
L 593.879798 224.083339 
L 593.935455 224.083339 
L 594.083605 224.514504 
L 594.562404 224.514504 
L 594.690616 224.730086 
L 594.708908 224.730086 
L 594.836785 224.945668 
L 595.16428 224.945668 
L 595.291124 225.161251 
L 595.309221 225.161251 
L 595.435738 225.376833 
L 595.543954 225.376833 
L 595.669943 225.592415 
L 595.741809 225.592415 
L 595.885267 226.02358 
L 596.081923 226.02358 
L 596.20671 226.239162 
L 596.949653 226.239162 
L 597.072525 226.670327 
L 597.17763 226.670327 
L 597.352368 227.532656 
L 597.369812 227.532656 
L 597.526563 228.179403 
L 597.630821 228.179403 
L 597.752211 228.394985 
L 597.769531 228.394985 
L 597.92517 229.041732 
L 598.045924 229.041732 
L 598.166419 229.257314 
L 598.543441 229.257314 
L 598.662872 229.472896 
L 599.626028 229.472896 
L 599.743177 229.688478 
L 599.776604 229.688478 
L 599.893439 229.904061 
L 599.926776 229.904061 
L 600.059926 230.335225 
L 600.424465 230.335225 
L 600.539959 230.550808 
L 600.589384 230.550808 
L 600.704539 230.76639 
L 600.720971 230.76639 
L 600.835856 230.981972 
L 601.064924 230.981972 
L 601.1954 231.413137 
L 601.211689 231.413137 
L 601.341824 231.844301 
L 601.390548 231.844301 
L 601.504071 232.059884 
L 601.536463 232.059884 
L 601.649692 232.275466 
L 601.778816 232.275466 
L 601.891556 232.491048 
L 602.148399 232.491048 
L 602.276381 232.922213 
L 602.292358 232.922213 
L 602.420012 233.353377 
L 602.48373 233.353377 
L 602.610949 233.568959 
L 602.626832 233.568959 
L 602.769569 234.000124 
L 602.785406 234.000124 
L 602.911943 234.215706 
L 603.038195 234.215706 
L 603.164164 234.431289 
L 603.274155 234.431289 
L 603.415255 234.862453 
L 603.446562 234.862453 
L 603.571618 235.078035 
L 603.58723 235.078035 
L 603.727545 235.5092 
L 603.789795 235.5092 
L 603.914088 235.724782 
L 604.346955 235.724782 
L 604.470019 236.155947 
L 604.500743 236.155947 
L 604.623471 236.371529 
L 604.730638 236.371529 
L 604.868124 236.802694 
L 604.990051 236.802694 
L 605.111714 237.018276 
L 605.187619 237.018276 
L 605.32399 237.449441 
L 605.369373 237.449441 
L 605.490216 237.665023 
L 605.580678 237.665023 
L 605.716097 238.096187 
L 605.881166 238.096187 
L 606.060689 239.174099 
L 606.180052 239.174099 
L 606.299162 239.389681 
L 606.343763 239.389681 
L 606.477353 239.820846 
L 606.773086 239.820846 
L 606.890944 240.036428 
L 606.94978 240.036428 
L 607.081935 240.467592 
L 607.330716 240.467592 
L 607.461977 240.898757 
L 607.549314 240.898757 
L 607.665553 241.114339 
L 607.680066 241.114339 
L 607.824988 241.761086 
L 607.911762 241.761086 
L 608.027252 241.976668 
L 608.084908 241.976668 
L 608.200043 242.192251 
L 608.228789 242.192251 
L 608.343629 242.407833 
L 608.572604 242.407833 
L 608.686742 242.838997 
L 608.81487 242.838997 
L 608.942706 243.270162 
L 609.041933 243.270162 
L 609.15512 243.485744 
L 609.197506 243.485744 
L 609.338563 244.132491 
L 609.352649 244.132491 
L 609.493317 244.779238 
L 609.521408 244.779238 
L 609.633632 244.99482 
L 609.759616 244.99482 
L 609.885318 245.425985 
L 609.941095 245.425985 
L 610.052483 245.641567 
L 610.3023 245.641567 
L 610.509633 247.150643 
L 610.826063 247.150643 
L 610.963085 247.581808 
L 611.058802 247.581808 
L 611.195258 248.012972 
L 611.222509 248.012972 
L 611.358568 248.444137 
L 611.399321 248.444137 
L 611.562038 249.306466 
L 611.589112 249.306466 
L 611.724284 249.73763 
L 611.872598 249.73763 
L 611.993655 249.953213 
L 612.141259 249.953213 
L 612.275108 250.384377 
L 612.448635 250.384377 
L 612.581754 250.815542 
L 612.754336 250.815542 
L 612.886731 251.246706 
L 613.491752 251.246706 
L 613.622418 251.893453 
L 614.193761 251.893453 
L 614.309912 252.109035 
L 614.335691 252.109035 
L 614.451549 252.324618 
L 614.464407 252.324618 
L 614.605655 252.971365 
L 614.65693 252.971365 
L 614.772126 253.186947 
L 614.797693 253.186947 
L 614.938105 253.833694 
L 615.458379 253.833694 
L 615.597147 254.480441 
L 615.723002 254.480441 
L 615.836031 254.696023 
L 616.111368 254.696023 
L 616.260984 255.558352 
L 616.459852 255.558352 
L 616.571407 255.773934 
L 616.583788 255.773934 
L 616.732149 256.420681 
L 616.793851 256.420681 
L 616.917051 256.636263 
L 617.0277 256.636263 
L 617.162642 257.067428 
L 617.309481 257.067428 
L 617.431555 257.28301 
L 617.516848 257.28301 
L 617.662764 257.929757 
L 617.820412 257.929757 
L 617.941379 258.145339 
L 618.062085 258.145339 
L 618.182532 258.360922 
L 618.3867 258.360922 
L 618.518413 258.792086 
L 618.673676 258.792086 
L 618.804718 259.223251 
L 619.018491 259.223251 
L 619.136902 259.438833 
L 619.255064 259.438833 
L 619.372977 260.301162 
L 619.584598 260.301162 
L 619.736941 261.163491 
L 620.086927 261.163491 
L 620.203105 261.379073 
L 620.376922 261.379073 
L 620.527129 262.241403 
L 620.607843 262.241403 
L 620.734445 262.672567 
L 620.791898 262.672567 
L 620.918085 263.103732 
L 621.078278 263.103732 
L 621.22662 263.966061 
L 621.260797 263.966061 
L 621.397297 264.612808 
L 621.510793 264.612808 
L 621.624061 264.82839 
L 621.872446 264.82839 
L 621.996227 265.259554 
L 622.119736 265.259554 
L 622.23178 265.475137 
L 622.254163 265.475137 
L 622.388268 266.121884 
L 622.666628 266.121884 
L 622.81083 266.76863 
L 622.87726 266.76863 
L 623.009885 267.199795 
L 623.020923 267.199795 
L 623.175226 268.062124 
L 623.307148 268.062124 
L 623.449714 268.708871 
L 623.668342 268.708871 
L 623.788224 268.924453 
L 623.907851 268.924453 
L 624.027223 269.140035 
L 624.038063 269.140035 
L 624.157158 269.355618 
L 624.523679 269.355618 
L 624.641748 269.5712 
L 624.716754 269.5712 
L 624.834417 269.786782 
L 625.260215 269.786782 
L 625.376744 270.002365 
L 625.535259 270.002365 
L 625.651219 270.217947 
L 625.756429 270.217947 
L 625.871933 270.433529 
L 626.102228 270.433529 
L 626.227446 270.864694 
L 626.289951 270.864694 
L 626.404361 271.080276 
L 626.508169 271.080276 
L 626.642832 271.727023 
L 626.756525 271.727023 
L 626.869988 271.942605 
L 626.942073 271.942605 
L 627.055161 272.158187 
L 627.075698 272.158187 
L 627.209006 272.804934 
L 627.280657 272.804934 
L 627.393065 273.020516 
L 627.525621 273.020516 
L 627.63754 273.236099 
L 627.90119 273.236099 
L 628.032552 273.667263 
L 628.103157 273.667263 
L 628.223989 273.882846 
L 628.484902 273.882846 
L 628.604915 274.098428 
L 628.684781 274.098428 
L 628.804367 274.31401 
L 628.903828 274.31401 
L 629.022948 274.745175 
L 629.447729 274.745175 
L 629.5657 275.176339 
L 630.005894 275.176339 
L 630.142141 275.823086 
L 630.161578 275.823086 
L 630.278058 276.038668 
L 630.442658 276.038668 
L 630.558556 276.254251 
L 630.80885 276.254251 
L 630.933578 276.685415 
L 631.05803 276.685415 
L 631.182206 277.11658 
L 631.363201 277.11658 
L 631.486704 277.547744 
L 631.798995 277.547744 
L 631.912125 277.763327 
L 631.968604 277.763327 
L 632.081393 277.978909 
L 632.109555 277.978909 
L 632.231426 278.410073 
L 632.381058 278.410073 
L 632.502341 279.487985 
L 632.632661 279.487985 
L 632.753401 279.919149 
L 632.762678 279.919149 
L 632.892394 280.350314 
L 632.95714 280.350314 
L 633.09563 280.997061 
L 633.123287 280.997061 
L 633.242976 281.212643 
L 633.288942 281.212643 
L 633.426616 281.85939 
L 633.54566 281.85939 
L 633.682705 282.506137 
L 633.710073 282.506137 
L 633.837618 282.937301 
L 634.453028 282.937301 
L 634.569914 283.152884 
L 634.623779 283.152884 
L 634.740311 283.368466 
L 634.802958 283.368466 
L 634.919118 283.584048 
L 634.936967 283.584048 
L 635.061754 284.661959 
L 635.195147 284.661959 
L 635.345942 285.739871 
L 635.363656 285.739871 
L 635.496333 286.386618 
L 635.672749 286.386618 
L 635.79591 286.817782 
L 635.822266 286.817782 
L 635.936335 287.248947 
L 636.085152 287.248947 
L 636.242294 288.542441 
L 636.311994 288.542441 
L 636.442448 289.189187 
L 636.485865 289.189187 
L 636.598593 289.40477 
L 636.624575 289.40477 
L 636.754304 290.051516 
L 636.788848 290.051516 
L 636.909584 290.482681 
L 636.978459 290.482681 
L 637.098788 290.913846 
L 637.184579 290.913846 
L 637.330124 291.991757 
L 637.389944 291.991757 
L 637.509394 292.207339 
L 637.866223 292.207339 
L 638.001563 292.854086 
L 638.15343 292.854086 
L 638.271266 293.069668 
L 638.355282 293.069668 
L 638.472695 293.285251 
L 638.514568 293.285251 
L 638.648353 293.931997 
L 638.68175 293.931997 
L 638.80681 294.363162 
L 638.91497 294.363162 
L 639.031217 294.578744 
L 639.526706 294.578744 
L 639.666302 295.441073 
L 639.756444 295.441073 
L 639.870961 295.656656 
L 639.993398 295.656656 
L 640.107433 295.872238 
L 640.139971 295.872238 
L 640.27805 296.734567 
L 640.367215 296.734567 
L 640.480492 296.950149 
L 640.971402 296.950149 
L 641.091462 297.381314 
L 641.139414 297.381314 
L 641.275056 298.243643 
L 641.521561 298.243643 
L 641.64045 298.459225 
L 641.680023 298.459225 
L 641.806472 298.89039 
L 642.034934 298.89039 
L 642.15274 299.105972 
L 642.184113 299.105972 
L 642.325076 299.968301 
L 642.371984 299.968301 
L 642.50468 300.615048 
L 642.691481 300.615048 
L 642.815671 301.046213 
L 642.978253 301.046213 
L 643.094095 301.261795 
L 643.225094 301.261795 
L 643.371143 302.339706 
L 643.417185 302.339706 
L 643.532125 302.555289 
L 643.730797 302.555289 
L 643.852707 302.986453 
L 643.898355 302.986453 
L 644.02749 303.6332 
L 644.080577 303.6332 
L 644.194166 303.848782 
L 644.239537 303.848782 
L 644.367889 304.495529 
L 644.38297 304.495529 
L 644.495948 304.711111 
L 644.818563 304.711111 
L 644.953061 305.573441 
L 645.243373 305.573441 
L 645.354632 305.789023 
L 645.421281 305.789023 
L 645.554343 306.43577 
L 645.650247 306.43577 
L 645.768058 306.651352 
L 645.966305 306.651352 
L 646.098081 307.298099 
L 646.353428 307.298099 
L 646.477036 307.729263 
L 646.853446 307.729263 
L 646.975957 308.160428 
L 647.105384 308.160428 
L 647.227346 308.591592 
L 647.370492 308.591592 
L 647.484746 308.807175 
L 647.634352 308.807175 
L 647.748071 309.022757 
L 647.762269 309.022757 
L 647.875728 309.238339 
L 647.967745 309.238339 
L 648.087848 309.669504 
L 648.397511 309.669504 
L 648.509693 309.885086 
L 648.607669 309.885086 
L 648.733386 310.531833 
L 648.865783 310.531833 
L 648.990923 311.17858 
L 649.20579 311.17858 
L 649.323272 311.394162 
L 649.811286 311.394162 
L 649.927507 311.609744 
L 650.125211 311.609744 
L 650.254365 312.256491 
L 650.322221 312.256491 
L 650.437388 312.472073 
L 650.579328 312.472073 
L 650.700705 312.903238 
L 650.754566 312.903238 
L 650.882279 313.549985 
L 651.150202 313.549985 
L 651.263682 313.765567 
L 651.450092 313.765567 
L 651.5696 314.196732 
L 651.589494 314.196732 
L 651.702089 314.412314 
L 651.867261 314.412314 
L 651.985884 314.843478 
L 652.031947 314.843478 
L 652.143659 315.059061 
L 652.529644 315.059061 
L 652.679396 316.352554 
L 652.711898 316.352554 
L 652.8482 317.214884 
L 653.094003 317.214884 
L 653.210061 317.430466 
L 653.274434 317.430466 
L 653.39654 317.86163 
L 653.761268 317.86163 
L 653.875954 318.077213 
L 653.901408 318.077213 
L 654.015808 318.292795 
L 654.224937 318.292795 
L 654.338679 318.508377 
L 654.426986 318.508377 
L 654.54032 318.723959 
L 654.609466 318.723959 
L 654.728701 319.155124 
L 654.910203 319.155124 
L 655.028801 319.586289 
L 655.053737 319.586289 
L 655.165811 319.801871 
L 655.38929 319.801871 
L 655.500697 320.017453 
L 655.667392 320.017453 
L 655.790552 320.448618 
L 655.931851 320.448618 
L 656.054432 320.879782 
L 656.066675 320.879782 
L 656.182853 321.095365 
L 656.250005 321.095365 
L 656.365804 321.310947 
L 656.578494 321.310947 
L 656.69967 321.742111 
L 656.893008 321.742111 
L 657.007488 321.957694 
L 657.181771 321.957694 
L 657.301652 322.388858 
L 657.385416 322.388858 
L 657.504862 322.820023 
L 657.677607 322.820023 
L 657.790498 323.035605 
L 657.962367 323.035605 
L 658.074686 323.251187 
L 658.13961 323.251187 
L 658.263347 323.897934 
L 658.304532 323.897934 
L 658.422038 324.329099 
L 658.486561 324.329099 
L 658.603686 324.760263 
L 658.726404 324.760263 
L 658.866326 325.838175 
L 659.098755 325.838175 
L 659.226181 326.484922 
L 659.284007 326.484922 
L 659.416779 327.347251 
L 659.485927 327.347251 
L 659.600985 327.562833 
L 659.629712 327.562833 
L 659.744475 327.778415 
L 659.887599 327.778415 
L 660.007542 328.20958 
L 660.053167 328.20958 
L 660.172756 328.640744 
L 660.603435 328.640744 
L 660.716224 328.856327 
L 660.957954 328.856327 
L 661.081228 329.503073 
L 661.209816 329.503073 
L 661.321392 329.718656 
L 661.404929 329.718656 
L 661.527225 330.365403 
L 661.837325 330.365403 
L 661.953171 330.580985 
L 662.118253 330.580985 
L 662.239004 331.012149 
L 662.403246 331.012149 
L 662.517931 331.227732 
L 662.588808 331.227732 
L 662.703114 331.443314 
L 662.925612 331.443314 
L 663.039234 331.658896 
L 663.281936 331.658896 
L 663.400209 332.090061 
L 663.443155 332.090061 
L 663.555734 332.305643 
L 663.806879 332.305643 
L 663.91873 332.521225 
L 664.046287 332.521225 
L 664.157661 332.736808 
L 664.284676 332.736808 
L 664.400855 332.95239 
L 664.695499 332.95239 
L 664.816067 333.814719 
L 664.978161 333.814719 
L 665.103333 334.461466 
L 665.139789 334.461466 
L 665.25421 334.677048 
L 665.274989 334.677048 
L 665.394318 335.108213 
L 666.140815 335.108213 
L 666.258317 335.539377 
L 666.288929 335.539377 
L 666.401031 335.754959 
L 666.446826 335.754959 
L 666.558613 335.970542 
L 666.665111 335.970542 
L 666.786576 336.617289 
L 666.80174 336.617289 
L 666.917866 336.832871 
L 667.099147 336.832871 
L 667.229708 337.6952 
L 667.359966 337.6952 
L 667.474943 337.910782 
L 667.504898 337.910782 
L 667.634518 338.773111 
L 667.674341 338.773111 
L 667.788676 338.988694 
L 668.223987 338.988694 
L 668.342124 339.419858 
L 668.386361 339.419858 
L 668.504157 339.851023 
L 668.548267 339.851023 
L 668.660834 340.066605 
L 669.229984 340.066605 
L 669.365339 341.360099 
L 669.534073 341.360099 
L 669.654288 341.791263 
L 669.73109 341.791263 
L 669.850883 342.222428 
L 669.898729 342.222428 
L 670.013392 342.43801 
L 670.21349 342.43801 
L 670.327512 342.653592 
L 670.488647 342.653592 
L 670.606834 343.084757 
L 670.658757 343.084757 
L 670.771878 343.300339 
L 670.818944 343.300339 
L 670.936437 343.731504 
L 670.964599 343.731504 
L 671.077105 343.947086 
L 671.133273 343.947086 
L 671.245441 344.162668 
L 671.529529 344.162668 
L 671.640907 344.378251 
L 671.673351 344.378251 
L 671.798316 345.024997 
L 671.826048 345.024997 
L 671.941452 345.24058 
L 671.978331 345.24058 
L 672.09802 345.671744 
L 672.569678 345.671744 
L 672.692662 346.318491 
L 672.733598 346.318491 
L 672.851687 346.749656 
L 673.078084 346.749656 
L 673.190941 346.965238 
L 673.231514 346.965238 
L 673.344063 347.18082 
L 673.406991 347.18082 
L 673.523672 347.611985 
L 673.546083 347.611985 
L 673.662474 348.258732 
L 673.68483 348.258732 
L 673.796473 348.474314 
L 673.814315 348.474314 
L 673.930152 348.905478 
L 674.125639 348.905478 
L 674.245261 349.336643 
L 674.813289 349.336643 
L 674.931454 349.767808 
L 674.948938 349.767808 
L 675.071179 350.414554 
L 675.362605 350.414554 
L 675.475289 350.630137 
L 676.091035 350.630137 
L 676.202266 350.845719 
L 676.240717 350.845719 
L 676.360176 351.276884 
L 676.424067 351.276884 
L 676.543136 351.708048 
L 676.568618 351.708048 
L 676.700091 352.785959 
L 676.738202 352.785959 
L 676.852382 353.001542 
L 676.945246 353.001542 
L 677.067423 353.648289 
L 677.490869 353.648289 
L 677.603527 353.863871 
L 677.83647 353.863871 
L 677.956722 354.510618 
L 678.006406 354.510618 
L 678.122164 354.941782 
L 678.303589 354.941782 
L 678.422844 355.372947 
L 678.762764 355.372947 
L 678.881047 355.804111 
L 678.929919 355.804111 
L 679.04785 356.235276 
L 679.092518 356.235276 
L 679.218209 357.097605 
L 679.287016 357.097605 
L 679.400163 357.313187 
L 679.637834 357.313187 
L 679.750275 357.52877 
L 679.862491 357.52877 
L 679.974483 357.744352 
L 680.090239 357.744352 
L 680.205757 358.175516 
L 680.531111 358.175516 
L 680.645725 358.391099 
L 680.653621 358.391099 
L 680.767985 358.606681 
L 680.917488 358.606681 
L 681.031316 358.822263 
L 681.046998 358.822263 
L 681.160563 359.037846 
L 681.277802 359.037846 
L 681.390901 359.253428 
L 681.480438 359.253428 
L 681.59701 359.684592 
L 682.276064 359.684592 
L 682.394823 360.115757 
L 682.513331 360.115757 
L 682.631588 360.546922 
L 682.711557 360.546922 
L 682.8256 360.762504 
L 682.852176 360.762504 
L 682.965934 360.978086 
L 683.219162 360.978086 
L 683.332179 361.193668 
L 683.864051 361.193668 
L 683.975776 361.409251 
L 684.06871 361.409251 
L 684.180028 361.624833 
L 684.183735 361.624833 
L 684.298524 361.840415 
L 684.390925 361.840415 
L 684.508977 362.27158 
L 684.700282 362.27158 
L 684.817684 362.702744 
L 685.690451 362.702744 
L 685.8058 363.133909 
L 685.831001 363.133909 
L 685.94247 363.565073 
L 686.100303 363.565073 
L 686.214813 363.780656 
L 686.232684 363.780656 
L 686.346923 363.996238 
L 686.50718 363.996238 
L 686.624411 364.427403 
L 686.681162 364.427403 
L 686.801568 365.074149 
L 687.189354 365.074149 
L 687.301663 365.289732 
L 687.361235 365.289732 
L 687.4732 365.505314 
L 687.598894 365.505314 
L 687.710386 365.720896 
L 688.012388 365.720896 
L 688.126516 365.936478 
L 688.181768 365.936478 
L 688.295552 366.152061 
L 688.758643 366.152061 
L 688.871263 366.367643 
L 689.089036 366.367643 
L 689.204385 366.798808 
L 689.349927 366.798808 
L 689.461367 367.01439 
L 689.508578 367.01439 
L 689.623068 367.229972 
L 689.66342 367.229972 
L 689.777594 367.445554 
L 689.961796 367.445554 
L 690.078701 367.876719 
L 690.125395 367.876719 
L 690.241959 368.307884 
L 690.451167 368.307884 
L 690.570365 368.95463 
L 690.70581 368.95463 
L 690.817882 369.170213 
L 690.840928 369.170213 
L 690.956016 369.601377 
L 690.96587 369.601377 
L 691.080701 370.032542 
L 691.498666 370.032542 
L 691.612413 370.248124 
L 691.618906 370.248124 
L 691.735648 370.679289 
L 691.98776 370.679289 
L 692.10052 370.894871 
L 692.155207 370.894871 
L 692.274048 371.541618 
L 692.874026 371.541618 
L 692.991355 371.972782 
L 693.03885 371.972782 
L 693.158993 372.619529 
L 693.354464 372.619529 
L 693.470792 373.050694 
L 693.489633 373.050694 
L 693.605682 373.481858 
L 693.624478 373.481858 
L 693.740247 373.913023 
L 693.84018 373.913023 
L 693.955506 374.344187 
L 694.163736 374.344187 
L 694.281495 374.990934 
L 694.346466 374.990934 
L 694.460755 375.422099 
L 694.796098 375.422099 
L 694.909476 375.637681 
L 695.166025 375.637681 
L 695.278658 375.853263 
L 695.421406 375.853263 
L 695.533527 376.068846 
L 695.548662 376.068846 
L 695.663549 376.50001 
L 695.720905 376.50001 
L 695.832429 376.715592 
L 696.476121 376.715592 
L 696.589125 376.931175 
L 696.698937 376.931175 
L 696.811493 377.146757 
L 696.988755 377.146757 
L 697.100731 377.362339 
L 697.332811 377.362339 
L 697.444103 377.577922 
L 697.476278 377.577922 
L 697.593122 378.009086 
L 697.660197 378.009086 
L 697.77375 378.224668 
L 697.858039 378.224668 
L 697.971192 378.440251 
L 698.254523 378.440251 
L 698.36688 378.655833 
L 698.839759 378.655833 
L 698.953799 379.086997 
L 699.359602 379.086997 
L 699.47259 379.30258 
L 699.478233 379.30258 
L 699.590982 379.518162 
L 699.815802 379.518162 
L 699.927875 379.733744 
L 700.232141 379.733744 
L 700.343385 379.949327 
L 700.357275 379.949327 
L 700.473816 380.380491 
L 700.498757 380.380491 
L 700.620534 381.24282 
L 700.64541 381.24282 
L 700.758596 381.458403 
L 701.105012 381.458403 
L 701.217275 381.673985 
L 701.252823 381.673985 
L 701.364791 381.889567 
L 701.769823 381.889567 
L 701.883467 382.105149 
L 702.045416 382.105149 
L 702.158503 382.320732 
L 702.209586 382.320732 
L 702.322342 382.536314 
L 702.744501 382.536314 
L 702.856187 382.751896 
L 702.943785 382.751896 
L 703.057723 383.183061 
L 703.139721 383.183061 
L 703.255899 383.614225 
L 703.728682 383.614225 
L 703.843647 384.04539 
L 703.968795 384.04539 
L 704.08327 384.476554 
L 704.391705 384.476554 
L 704.507899 384.907719 
L 704.649588 384.907719 
L 704.762682 385.123301 
L 704.778086 385.123301 
L 704.890921 385.338884 
L 704.924215 385.338884 
L 705.044422 386.201213 
L 705.105705 386.201213 
L 705.217883 386.416795 
L 705.479608 386.416795 
L 705.591041 386.632377 
L 705.646675 386.632377 
L 705.762822 387.063542 
L 705.828364 387.063542 
L 705.944135 387.494706 
L 706.267529 387.494706 
L 706.382397 387.925871 
L 706.63627 387.925871 
L 706.750387 388.357035 
L 706.787548 388.357035 
L 706.901358 388.7882 
L 706.903829 388.7882 
L 707.017403 389.003782 
L 707.182415 389.003782 
L 707.29788 389.434947 
L 707.371457 389.434947 
L 707.484088 389.650529 
L 707.552536 389.650529 
L 707.664804 389.866111 
L 707.708674 389.866111 
L 707.823061 390.297276 
L 707.905665 390.297276 
L 708.017228 390.512858 
L 708.097127 390.512858 
L 708.208311 390.728441 
L 708.336141 390.728441 
L 708.451661 391.159605 
L 708.552546 391.159605 
L 708.665226 391.375187 
L 709.260811 391.375187 
L 709.372078 391.59077 
L 709.880611 391.59077 
L 709.992995 391.806352 
L 710.48436 391.806352 
L 710.600168 392.453099 
L 710.699573 392.453099 
L 710.812633 392.668681 
L 710.96226 392.668681 
L 711.074792 392.884263 
L 711.663612 392.884263 
L 711.774746 393.099846 
L 711.899227 393.099846 
L 712.012152 393.315428 
L 712.412329 393.315428 
L 712.524226 393.53101 
L 712.680508 393.53101 
L 712.796321 394.177757 
L 712.900793 394.177757 
L 713.013937 394.393339 
L 713.036095 394.393339 
L 713.148966 394.608922 
L 713.290288 394.608922 
L 713.402649 394.824504 
L 713.734011 394.824504 
L 713.84767 395.255668 
L 714.565804 395.255668 
L 714.679943 395.686833 
L 715.12565 395.686833 
L 715.238655 395.902415 
L 716.050677 395.902415 
L 716.161834 396.117997 
L 716.464823 396.117997 
L 716.581403 396.764744 
L 716.625058 396.764744 
L 716.737157 396.980327 
L 716.764111 396.980327 
L 716.875933 397.195909 
L 716.983403 397.195909 
L 717.094789 397.411491 
L 717.294317 397.411491 
L 717.407137 397.627073 
L 717.793104 397.627073 
L 717.904926 397.842656 
L 719.803956 397.842656 
L 719.91772 398.27382 
L 719.958853 398.27382 
L 720.072303 398.704985 
L 720.535449 398.704985 
L 720.649674 399.136149 
L 720.817682 399.136149 
L 720.929409 399.351732 
L 721.110012 399.351732 
L 721.221158 399.567314 
L 721.72999 399.567314 
L 721.843702 399.998478 
L 722.11002 399.998478 
L 722.222964 400.214061 
L 722.554829 400.214061 
L 722.666881 400.429643 
L 722.864294 400.429643 
L 722.97573 400.645225 
L 723.098054 400.645225 
L 723.210875 400.860808 
L 723.524099 400.860808 
L 723.636066 401.07639 
L 723.934164 401.07639 
L 724.045316 401.291972 
L 724.067156 401.291972 
L 724.17986 401.507554 
L 724.216168 401.507554 
L 724.328574 401.723137 
L 724.379264 401.723137 
L 724.491344 401.938719 
L 725.075219 401.938719 
L 725.189484 402.369884 
L 725.289275 402.369884 
L 725.403105 402.801048 
L 726.242541 402.801048 
L 726.354454 403.01663 
L 726.501001 403.01663 
L 726.612399 403.447795 
L 726.754805 403.447795 
L 726.867432 403.663377 
L 729.850464 403.663377 
L 729.963598 404.094542 
L 730.818612 404.094542 
L 730.92981 404.310124 
L 731.322872 404.310124 
L 731.436266 404.741289 
L 731.773494 404.741289 
L 731.885981 404.956871 
L 732.217376 404.956871 
L 732.328977 405.172453 
L 732.468558 405.172453 
L 732.581224 405.388035 
L 733.049793 405.388035 
L 733.161298 405.603618 
L 733.389809 405.603618 
L 733.502178 405.8192 
L 734.189934 405.8192 
L 734.302228 406.034782 
L 734.458155 406.034782 
L 734.571423 406.465947 
L 734.891859 406.465947 
L 735.004255 406.681529 
L 735.979321 406.681529 
L 736.091027 406.897111 
L 736.268417 406.897111 
L 736.37955 407.112694 
L 736.946393 407.112694 
L 737.059077 407.543858 
L 737.100915 407.543858 
L 737.213289 407.759441 
L 737.428762 407.759441 
L 737.540482 407.975023 
L 737.727614 407.975023 
L 737.83874 408.190605 
L 737.88 408.190605 
L 737.992244 408.406187 
L 738.046155 408.406187 
L 738.158067 408.62177 
L 738.27823 408.62177 
L 738.38968 408.837352 
L 738.460104 408.837352 
L 738.574003 409.268516 
L 738.833279 409.268516 
L 738.945028 409.484099 
L 739.134491 409.484099 
L 739.245641 409.699681 
L 739.446542 409.699681 
L 739.558456 409.915263 
L 740.2512 409.915263 
L 740.362882 410.130846 
L 740.91124 410.130846 
L 741.02296 410.346428 
L 741.076722 410.346428 
L 741.188113 410.56201 
L 741.835951 410.56201 
L 741.947168 410.777592 
L 742.195285 410.777592 
L 742.307106 410.993175 
L 743.127723 410.993175 
L 743.238994 411.208757 
L 743.426103 411.208757 
L 743.53807 411.424339 
L 744.163272 411.424339 
L 744.275046 411.639922 
L 744.510565 411.639922 
L 744.62291 411.855504 
L 744.785349 411.855504 
L 744.897146 412.071086 
L 745.310984 412.071086 
L 745.424224 412.502251 
L 745.611626 412.502251 
L 745.723025 412.717833 
L 745.800873 412.717833 
L 745.913129 412.933415 
L 745.980868 412.933415 
L 746.092764 413.148997 
L 746.095221 413.148997 
L 746.20689 413.36458 
L 747.053695 413.36458 
L 747.165883 413.580162 
L 747.9212 413.580162 
L 748.032854 413.795744 
L 748.153758 413.795744 
L 748.26495 414.011327 
L 748.319283 414.011327 
L 748.431325 414.226909 
L 748.870255 414.226909 
L 748.982369 414.442491 
L 749.787411 414.442491 
L 749.898855 414.658073 
L 749.916069 414.658073 
L 750.027258 414.873656 
L 750.776874 414.873656 
L 750.888626 415.089238 
L 751.215825 415.089238 
L 751.327825 415.30482 
L 753.845 415.30482 
L 753.956144 415.520403 
L 754.696441 415.520403 
L 754.809065 415.951567 
L 755.581831 415.951567 
L 755.693728 416.167149 
L 757.260423 416.167149 
L 757.372035 416.382732 
L 757.925793 416.382732 
L 758.037082 416.598314 
L 758.385417 416.598314 
L 758.496783 417.029478 
L 758.506627 417.029478 
L 758.617753 417.245061 
L 759.91036 417.245061 
L 760.021615 417.460643 
L 760.875488 417.460643 
L 760.986729 417.676225 
L 761.199169 417.676225 
L 761.310707 417.891808 
L 762.092703 417.891808 
L 762.204322 418.10739 
L 762.429648 418.10739 
L 762.541514 418.322972 
L 763.604941 418.322972 
L 763.716283 418.538554 
L 765.022268 418.538554 
L 765.133456 418.754137 
L 765.160563 418.754137 
L 765.274095 419.400884 
L 765.384786 419.400884 
L 765.496127 419.616466 
L 765.550847 419.616466 
L 765.663592 420.04763 
L 765.715552 420.04763 
L 765.827103 420.263213 
L 766.640131 420.263213 
L 766.751559 420.478795 
L 766.939038 420.478795 
L 767.050719 420.694377 
L 767.182419 420.694377 
L 767.294457 421.125542 
L 768.788331 421.125542 
L 768.90048 421.556706 
L 769.060537 421.556706 
L 769.172144 421.772289 
L 769.390638 421.772289 
L 769.502399 421.987871 
L 770.225857 421.987871 
L 770.33756 422.203453 
L 770.507878 422.203453 
L 770.619022 422.419035 
L 770.680849 422.419035 
L 770.792441 422.634618 
L 771.227187 422.634618 
L 771.338481 422.8502 
L 771.519839 422.8502 
L 771.631332 423.065782 
L 771.636006 423.065782 
L 771.747269 423.281365 
L 771.772914 423.281365 
L 771.885456 423.712529 
L 771.963715 423.712529 
L 772.075103 423.928111 
L 772.546814 423.928111 
L 772.65858 424.143694 
L 773.052572 424.143694 
L 773.164851 424.574858 
L 773.298836 424.574858 
L 773.410623 424.790441 
L 774.314065 424.790441 
L 774.42533 425.006023 
L 774.973963 425.006023 
L 775.085392 425.221605 
L 775.087589 425.221605 
L 775.198792 425.437187 
L 776.364753 425.437187 
L 776.476312 425.65277 
L 777.16151 425.65277 
L 777.272904 425.868352 
L 777.509762 425.868352 
L 777.621167 426.083934 
L 778.821267 426.083934 
L 778.932833 426.299516 
L 778.948558 426.299516 
L 779.059872 426.515099 
L 780.008958 426.515099 
L 780.120196 426.730681 
L 780.201809 426.730681 
L 780.313333 426.946263 
L 781.291453 426.946263 
L 781.402795 427.161846 
L 781.502814 427.161846 
L 781.614389 427.377428 
L 782.245064 427.377428 
L 782.35646 427.59301 
L 782.910777 427.59301 
L 783.02213 427.808592 
L 783.041197 427.808592 
L 783.152925 428.024175 
L 783.464081 428.024175 
L 783.5756 428.239757 
L 784.169142 428.239757 
L 784.280512 428.455339 
L 784.397863 428.455339 
L 784.509399 428.670922 
L 784.944737 428.670922 
L 785.056417 428.886504 
L 785.468683 428.886504 
L 785.579932 429.102086 
L 786.343571 429.102086 
L 786.454893 429.317668 
L 788.420054 429.317668 
L 788.531364 429.533251 
L 791.561579 429.533251 
L 791.672822 429.748833 
L 794.290451 429.748833 
L 794.401602 429.964415 
L 801.414418 429.964415 
L 801.525569 430.179997 
L 804.18364 430.179997 
L 804.295093 430.39558 
L 805.168551 430.39558 
L 805.279775 430.611162 
L 807.803344 430.611162 
L 807.914766 430.826744 
L 809.338282 430.826744 
L 809.449871 431.257909 
L 809.59053 431.257909 
L 809.702408 431.689073 
L 809.77424 431.689073 
L 809.885359 431.904656 
L 812.536655 431.904656 
L 812.648057 432.120238 
L 815.300628 432.120238 
L 815.412026 432.33582 
L 815.632739 432.33582 
L 815.744188 432.551403 
L 819.067548 432.551403 
L 819.178717 432.766985 
L 819.555647 432.766985 
L 819.666844 432.982567 
L 820.234606 432.982567 
L 820.345773 433.198149 
L 821.831069 433.198149 
L 821.942292 433.413732 
L 823.287321 433.413732 
L 823.398479 433.629314 
L 823.700494 433.629314 
L 823.811758 433.844896 
L 824.22445 433.844896 
L 824.335592 434.060478 
L 824.848548 434.060478 
L 824.959664 434.276061 
L 826.866898 434.276061 
L 826.978151 434.491643 
L 829.533894 434.491643 
L 829.645241 434.707225 
L 830.106818 434.707225 
L 830.218129 434.922808 
L 830.590479 434.922808 
L 830.70165 435.13839 
L 834.512187 435.13839 
L 834.623449 435.353972 
L 834.770866 435.353972 
L 834.88212 435.569554 
L 835.074589 435.569554 
L 835.185744 435.785137 
L 835.523872 435.785137 
L 835.635135 436.000719 
L 845.265241 436.000719 
L 845.376538 436.216301 
L 846.663699 436.216301 
L 846.774907 436.431884 
L 847.074171 436.431884 
L 847.185377 436.647466 
L 850.485554 436.647466 
L 850.596675 436.863048 
L 853.396622 436.863048 
L 853.50791 437.07863 
L 853.769425 437.07863 
L 853.880695 437.294213 
L 856.013576 437.294213 
L 856.124796 437.509795 
L 857.236533 437.509795 
L 857.347719 437.725377 
L 858.97941 437.725377 
L 859.090632 437.940959 
L 860.791463 437.940959 
L 860.902636 438.156542 
L 861.651135 438.156542 
L 861.762334 438.372124 
L 862.286148 438.372124 
L 862.39733 438.587706 
L 868.084936 438.587706 
L 868.196052 438.803289 
L 872.917789 438.803289 
L 873.028924 439.018871 
L 884.656323 439.018871 
L 884.767494 439.234453 
L 889.373214 439.234453 
L 889.484366 439.450035 
L 891.694448 439.450035 
L 891.805569 439.665618 
L 897.869286 439.665618 
L 897.980439 439.8812 
L 923.366193 439.8812 
L 923.366193 439.8812 
" style="fill:none;stroke:#ff0000;stroke-linecap:square;stroke-width:1.5;"/>
   </g>
   <g id="patch_3">
    <path d="M 105.769375 460.3184 
L 105.769375 10.7 
" style="fill:none;stroke:#000000;stroke-linecap:square;stroke-linejoin:miter;stroke-width:0.8;"/>
   </g>
   <g id="patch_4">
    <path d="M 962.299375 460.3184 
L 962.299375 10.7 
" style="fill:none;stroke:#000000;stroke-linecap:square;stroke-linejoin:miter;stroke-width:0.8;"/>
   </g>
   <g id="patch_5">
    <path d="M 105.769375 460.3184 
L 962.299375 460.3184 
" style="fill:none;stroke:#000000;stroke-linecap:square;stroke-linejoin:miter;stroke-width:0.8;"/>
   </g>
   <g id="patch_6">
    <path d="M 105.769375 10.7 
L 962.299375 10.7 
" style="fill:none;stroke:#000000;stroke-linecap:square;stroke-linejoin:miter;stroke-width:0.8;"/>
   </g>
  </g>
 </g>
 <defs>
  <clipPath id="p32b29eb0bd">
   <rect height="449.6184" width="856.53" x="105.769375" y="10.7"/>
  </clipPath>
 </defs>
</svg>
