<?xml version="1.0" encoding="utf-8" standalone="no"?>
<!DOCTYPE svg PUBLIC "-//W3C//DTD SVG 1.1//EN"
  "http://www.w3.org/Graphics/SVG/1.1/DTD/svg11.dtd">
<!-- Created with matplotlib (https://matplotlib.org/) -->
<svg height="297.634062pt" version="1.1" viewBox="0 0 458.981875 297.634062" width="458.981875pt" xmlns="http://www.w3.org/2000/svg" xmlns:xlink="http://www.w3.org/1999/xlink">
 <defs>
  <style type="text/css">
*{stroke-linecap:butt;stroke-linejoin:round;}
  </style>
 </defs>
 <g id="figure_1">
  <g id="patch_1">
   <path d="M 0 297.634062 
L 458.981875 297.634062 
L 458.981875 0 
L 0 0 
z
" style="fill:#ffffff;"/>
  </g>
  <g id="axes_1">
   <g id="patch_2">
    <path d="M 87.714375 228.14 
L 422.514375 228.14 
L 422.514375 10.7 
L 87.714375 10.7 
z
" style="fill:#ffffff;"/>
   </g>
   <g id="matplotlib.axis_1">
    <g id="xtick_1">
     <g id="line2d_1">
      <defs>
       <path d="M 0 0 
L 0 3.5 
" id="m30cd437c29" style="stroke:#000000;stroke-width:0.8;"/>
      </defs>
      <g>
       <use style="stroke:#000000;stroke-width:0.8;" x="102.667229" xlink:href="#m30cd437c29" y="228.14"/>
      </g>
     </g>
     <g id="text_1">
      <!-- 0 -->
      <defs>
       <path d="M 31.78125 66.40625 
Q 24.171875 66.40625 20.328125 58.90625 
Q 16.5 51.421875 16.5 36.375 
Q 16.5 21.390625 20.328125 13.890625 
Q 24.171875 6.390625 31.78125 6.390625 
Q 39.453125 6.390625 43.28125 13.890625 
Q 47.125 21.390625 47.125 36.375 
Q 47.125 51.421875 43.28125 58.90625 
Q 39.453125 66.40625 31.78125 66.40625 
z
M 31.78125 74.21875 
Q 44.046875 74.21875 50.515625 64.515625 
Q 56.984375 54.828125 56.984375 36.375 
Q 56.984375 17.96875 50.515625 8.265625 
Q 44.046875 -1.421875 31.78125 -1.421875 
Q 19.53125 -1.421875 13.0625 8.265625 
Q 6.59375 17.96875 6.59375 36.375 
Q 6.59375 54.828125 13.0625 64.515625 
Q 19.53125 74.21875 31.78125 74.21875 
z
" id="DejaVuSans-48"/>
      </defs>
      <g transform="translate(95.350354 252.616406)scale(0.23 -0.23)">
       <use xlink:href="#DejaVuSans-48"/>
      </g>
     </g>
    </g>
    <g id="xtick_2">
     <g id="line2d_2">
      <g>
       <use style="stroke:#000000;stroke-width:0.8;" x="166.636658" xlink:href="#m30cd437c29" y="228.14"/>
      </g>
     </g>
     <g id="text_2">
      <!-- 400 -->
      <defs>
       <path d="M 37.796875 64.3125 
L 12.890625 25.390625 
L 37.796875 25.390625 
z
M 35.203125 72.90625 
L 47.609375 72.90625 
L 47.609375 25.390625 
L 58.015625 25.390625 
L 58.015625 17.1875 
L 47.609375 17.1875 
L 47.609375 0 
L 37.796875 0 
L 37.796875 17.1875 
L 4.890625 17.1875 
L 4.890625 26.703125 
z
" id="DejaVuSans-52"/>
      </defs>
      <g transform="translate(144.686033 252.616406)scale(0.23 -0.23)">
       <use xlink:href="#DejaVuSans-52"/>
       <use x="63.623047" xlink:href="#DejaVuSans-48"/>
       <use x="127.246094" xlink:href="#DejaVuSans-48"/>
      </g>
     </g>
    </g>
    <g id="xtick_3">
     <g id="line2d_3">
      <g>
       <use style="stroke:#000000;stroke-width:0.8;" x="230.606087" xlink:href="#m30cd437c29" y="228.14"/>
      </g>
     </g>
     <g id="text_3">
      <!-- 800 -->
      <defs>
       <path d="M 31.78125 34.625 
Q 24.75 34.625 20.71875 30.859375 
Q 16.703125 27.09375 16.703125 20.515625 
Q 16.703125 13.921875 20.71875 10.15625 
Q 24.75 6.390625 31.78125 6.390625 
Q 38.8125 6.390625 42.859375 10.171875 
Q 46.921875 13.96875 46.921875 20.515625 
Q 46.921875 27.09375 42.890625 30.859375 
Q 38.875 34.625 31.78125 34.625 
z
M 21.921875 38.8125 
Q 15.578125 40.375 12.03125 44.71875 
Q 8.5 49.078125 8.5 55.328125 
Q 8.5 64.0625 14.71875 69.140625 
Q 20.953125 74.21875 31.78125 74.21875 
Q 42.671875 74.21875 48.875 69.140625 
Q 55.078125 64.0625 55.078125 55.328125 
Q 55.078125 49.078125 51.53125 44.71875 
Q 48 40.375 41.703125 38.8125 
Q 48.828125 37.15625 52.796875 32.3125 
Q 56.78125 27.484375 56.78125 20.515625 
Q 56.78125 9.90625 50.3125 4.234375 
Q 43.84375 -1.421875 31.78125 -1.421875 
Q 19.734375 -1.421875 13.25 4.234375 
Q 6.78125 9.90625 6.78125 20.515625 
Q 6.78125 27.484375 10.78125 32.3125 
Q 14.796875 37.15625 21.921875 38.8125 
z
M 18.3125 54.390625 
Q 18.3125 48.734375 21.84375 45.5625 
Q 25.390625 42.390625 31.78125 42.390625 
Q 38.140625 42.390625 41.71875 45.5625 
Q 45.3125 48.734375 45.3125 54.390625 
Q 45.3125 60.0625 41.71875 63.234375 
Q 38.140625 66.40625 31.78125 66.40625 
Q 25.390625 66.40625 21.84375 63.234375 
Q 18.3125 60.0625 18.3125 54.390625 
z
" id="DejaVuSans-56"/>
      </defs>
      <g transform="translate(208.655462 252.616406)scale(0.23 -0.23)">
       <use xlink:href="#DejaVuSans-56"/>
       <use x="63.623047" xlink:href="#DejaVuSans-48"/>
       <use x="127.246094" xlink:href="#DejaVuSans-48"/>
      </g>
     </g>
    </g>
    <g id="xtick_4">
     <g id="line2d_4">
      <g>
       <use style="stroke:#000000;stroke-width:0.8;" x="294.575517" xlink:href="#m30cd437c29" y="228.14"/>
      </g>
     </g>
     <g id="text_4">
      <!-- 1200 -->
      <defs>
       <path d="M 12.40625 8.296875 
L 28.515625 8.296875 
L 28.515625 63.921875 
L 10.984375 60.40625 
L 10.984375 69.390625 
L 28.421875 72.90625 
L 38.28125 72.90625 
L 38.28125 8.296875 
L 54.390625 8.296875 
L 54.390625 0 
L 12.40625 0 
z
" id="DejaVuSans-49"/>
       <path d="M 19.1875 8.296875 
L 53.609375 8.296875 
L 53.609375 0 
L 7.328125 0 
L 7.328125 8.296875 
Q 12.9375 14.109375 22.625 23.890625 
Q 32.328125 33.6875 34.8125 36.53125 
Q 39.546875 41.84375 41.421875 45.53125 
Q 43.3125 49.21875 43.3125 52.78125 
Q 43.3125 58.59375 39.234375 62.25 
Q 35.15625 65.921875 28.609375 65.921875 
Q 23.96875 65.921875 18.8125 64.3125 
Q 13.671875 62.703125 7.8125 59.421875 
L 7.8125 69.390625 
Q 13.765625 71.78125 18.9375 73 
Q 24.125 74.21875 28.421875 74.21875 
Q 39.75 74.21875 46.484375 68.546875 
Q 53.21875 62.890625 53.21875 53.421875 
Q 53.21875 48.921875 51.53125 44.890625 
Q 49.859375 40.875 45.40625 35.40625 
Q 44.1875 33.984375 37.640625 27.21875 
Q 31.109375 20.453125 19.1875 8.296875 
z
" id="DejaVuSans-50"/>
      </defs>
      <g transform="translate(265.308017 252.616406)scale(0.23 -0.23)">
       <use xlink:href="#DejaVuSans-49"/>
       <use x="63.623047" xlink:href="#DejaVuSans-50"/>
       <use x="127.246094" xlink:href="#DejaVuSans-48"/>
       <use x="190.869141" xlink:href="#DejaVuSans-48"/>
      </g>
     </g>
    </g>
    <g id="xtick_5">
     <g id="line2d_5">
      <g>
       <use style="stroke:#000000;stroke-width:0.8;" x="358.544946" xlink:href="#m30cd437c29" y="228.14"/>
      </g>
     </g>
     <g id="text_5">
      <!-- 1600 -->
      <defs>
       <path d="M 33.015625 40.375 
Q 26.375 40.375 22.484375 35.828125 
Q 18.609375 31.296875 18.609375 23.390625 
Q 18.609375 15.53125 22.484375 10.953125 
Q 26.375 6.390625 33.015625 6.390625 
Q 39.65625 6.390625 43.53125 10.953125 
Q 47.40625 15.53125 47.40625 23.390625 
Q 47.40625 31.296875 43.53125 35.828125 
Q 39.65625 40.375 33.015625 40.375 
z
M 52.59375 71.296875 
L 52.59375 62.3125 
Q 48.875 64.0625 45.09375 64.984375 
Q 41.3125 65.921875 37.59375 65.921875 
Q 27.828125 65.921875 22.671875 59.328125 
Q 17.53125 52.734375 16.796875 39.40625 
Q 19.671875 43.65625 24.015625 45.921875 
Q 28.375 48.1875 33.59375 48.1875 
Q 44.578125 48.1875 50.953125 41.515625 
Q 57.328125 34.859375 57.328125 23.390625 
Q 57.328125 12.15625 50.6875 5.359375 
Q 44.046875 -1.421875 33.015625 -1.421875 
Q 20.359375 -1.421875 13.671875 8.265625 
Q 6.984375 17.96875 6.984375 36.375 
Q 6.984375 53.65625 15.1875 63.9375 
Q 23.390625 74.21875 37.203125 74.21875 
Q 40.921875 74.21875 44.703125 73.484375 
Q 48.484375 72.75 52.59375 71.296875 
z
" id="DejaVuSans-54"/>
      </defs>
      <g transform="translate(329.277446 252.616406)scale(0.23 -0.23)">
       <use xlink:href="#DejaVuSans-49"/>
       <use x="63.623047" xlink:href="#DejaVuSans-54"/>
       <use x="127.246094" xlink:href="#DejaVuSans-48"/>
       <use x="190.869141" xlink:href="#DejaVuSans-48"/>
      </g>
     </g>
    </g>
    <g id="xtick_6">
     <g id="line2d_6">
      <g>
       <use style="stroke:#000000;stroke-width:0.8;" x="422.514375" xlink:href="#m30cd437c29" y="228.14"/>
      </g>
     </g>
     <g id="text_6">
      <!-- 2000 -->
      <g transform="translate(393.246875 252.616406)scale(0.23 -0.23)">
       <use xlink:href="#DejaVuSans-50"/>
       <use x="63.623047" xlink:href="#DejaVuSans-48"/>
       <use x="127.246094" xlink:href="#DejaVuSans-48"/>
       <use x="190.869141" xlink:href="#DejaVuSans-48"/>
      </g>
     </g>
    </g>
    <g id="text_7">
     <!-- rank -->
     <defs>
      <path d="M 41.109375 46.296875 
Q 39.59375 47.171875 37.8125 47.578125 
Q 36.03125 48 33.890625 48 
Q 26.265625 48 22.1875 43.046875 
Q 18.109375 38.09375 18.109375 28.8125 
L 18.109375 0 
L 9.078125 0 
L 9.078125 54.6875 
L 18.109375 54.6875 
L 18.109375 46.1875 
Q 20.953125 51.171875 25.484375 53.578125 
Q 30.03125 56 36.53125 56 
Q 37.453125 56 38.578125 55.875 
Q 39.703125 55.765625 41.0625 55.515625 
z
" id="DejaVuSans-114"/>
      <path d="M 34.28125 27.484375 
Q 23.390625 27.484375 19.1875 25 
Q 14.984375 22.515625 14.984375 16.5 
Q 14.984375 11.71875 18.140625 8.90625 
Q 21.296875 6.109375 26.703125 6.109375 
Q 34.1875 6.109375 38.703125 11.40625 
Q 43.21875 16.703125 43.21875 25.484375 
L 43.21875 27.484375 
z
M 52.203125 31.203125 
L 52.203125 0 
L 43.21875 0 
L 43.21875 8.296875 
Q 40.140625 3.328125 35.546875 0.953125 
Q 30.953125 -1.421875 24.3125 -1.421875 
Q 15.921875 -1.421875 10.953125 3.296875 
Q 6 8.015625 6 15.921875 
Q 6 25.140625 12.171875 29.828125 
Q 18.359375 34.515625 30.609375 34.515625 
L 43.21875 34.515625 
L 43.21875 35.40625 
Q 43.21875 41.609375 39.140625 45 
Q 35.0625 48.390625 27.6875 48.390625 
Q 23 48.390625 18.546875 47.265625 
Q 14.109375 46.140625 10.015625 43.890625 
L 10.015625 52.203125 
Q 14.9375 54.109375 19.578125 55.046875 
Q 24.21875 56 28.609375 56 
Q 40.484375 56 46.34375 49.84375 
Q 52.203125 43.703125 52.203125 31.203125 
z
" id="DejaVuSans-97"/>
      <path d="M 54.890625 33.015625 
L 54.890625 0 
L 45.90625 0 
L 45.90625 32.71875 
Q 45.90625 40.484375 42.875 44.328125 
Q 39.84375 48.1875 33.796875 48.1875 
Q 26.515625 48.1875 22.3125 43.546875 
Q 18.109375 38.921875 18.109375 30.90625 
L 18.109375 0 
L 9.078125 0 
L 9.078125 54.6875 
L 18.109375 54.6875 
L 18.109375 46.1875 
Q 21.34375 51.125 25.703125 53.5625 
Q 30.078125 56 35.796875 56 
Q 45.21875 56 50.046875 50.171875 
Q 54.890625 44.34375 54.890625 33.015625 
z
" id="DejaVuSans-110"/>
      <path d="M 9.078125 75.984375 
L 18.109375 75.984375 
L 18.109375 31.109375 
L 44.921875 54.6875 
L 56.390625 54.6875 
L 27.390625 29.109375 
L 57.625 0 
L 45.90625 0 
L 18.109375 26.703125 
L 18.109375 0 
L 9.078125 0 
z
" id="DejaVuSans-107"/>
     </defs>
     <g transform="translate(221.563594 284.195)scale(0.3 -0.3)">
      <use xlink:href="#DejaVuSans-114"/>
      <use x="41.113281" xlink:href="#DejaVuSans-97"/>
      <use x="102.392578" xlink:href="#DejaVuSans-110"/>
      <use x="165.771484" xlink:href="#DejaVuSans-107"/>
     </g>
    </g>
   </g>
   <g id="matplotlib.axis_2">
    <g id="ytick_1">
     <g id="line2d_7">
      <defs>
       <path d="M 0 0 
L -3.5 0 
" id="m89a6cb9e8a" style="stroke:#000000;stroke-width:0.8;"/>
      </defs>
      <g>
       <use style="stroke:#000000;stroke-width:0.8;" x="87.714375" xlink:href="#m89a6cb9e8a" y="228.14"/>
      </g>
     </g>
     <g id="text_8">
      <!-- $\mathdefault{10^{0}}$ -->
      <g transform="translate(40.234375 236.878203)scale(0.23 -0.23)">
       <use transform="translate(0 0.765625)" xlink:href="#DejaVuSans-49"/>
       <use transform="translate(63.623047 0.765625)" xlink:href="#DejaVuSans-48"/>
       <use transform="translate(128.203125 39.046875)scale(0.7)" xlink:href="#DejaVuSans-48"/>
      </g>
     </g>
    </g>
    <g id="ytick_2">
     <g id="line2d_8">
      <g>
       <use style="stroke:#000000;stroke-width:0.8;" x="87.714375" xlink:href="#m89a6cb9e8a" y="158.812333"/>
      </g>
     </g>
     <g id="text_9">
      <!-- $\mathdefault{10^{2}}$ -->
      <g transform="translate(40.234375 167.550536)scale(0.23 -0.23)">
       <use transform="translate(0 0.765625)" xlink:href="#DejaVuSans-49"/>
       <use transform="translate(63.623047 0.765625)" xlink:href="#DejaVuSans-48"/>
       <use transform="translate(128.203125 39.046875)scale(0.7)" xlink:href="#DejaVuSans-50"/>
      </g>
     </g>
    </g>
    <g id="ytick_3">
     <g id="line2d_9">
      <g>
       <use style="stroke:#000000;stroke-width:0.8;" x="87.714375" xlink:href="#m89a6cb9e8a" y="89.484665"/>
      </g>
     </g>
     <g id="text_10">
      <!-- $\mathdefault{10^{4}}$ -->
      <g transform="translate(40.234375 98.222868)scale(0.23 -0.23)">
       <use transform="translate(0 0.684375)" xlink:href="#DejaVuSans-49"/>
       <use transform="translate(63.623047 0.684375)" xlink:href="#DejaVuSans-48"/>
       <use transform="translate(128.203125 38.965625)scale(0.7)" xlink:href="#DejaVuSans-52"/>
      </g>
     </g>
    </g>
    <g id="ytick_4">
     <g id="line2d_10">
      <g>
       <use style="stroke:#000000;stroke-width:0.8;" x="87.714375" xlink:href="#m89a6cb9e8a" y="20.156998"/>
      </g>
     </g>
     <g id="text_11">
      <!-- $\mathdefault{10^{6}}$ -->
      <g transform="translate(40.234375 28.895201)scale(0.23 -0.23)">
       <use transform="translate(0 0.765625)" xlink:href="#DejaVuSans-49"/>
       <use transform="translate(63.623047 0.765625)" xlink:href="#DejaVuSans-48"/>
       <use transform="translate(128.203125 39.046875)scale(0.7)" xlink:href="#DejaVuSans-54"/>
      </g>
     </g>
    </g>
    <g id="text_12">
     <!-- #updates -->
     <defs>
      <path d="M 51.125 44 
L 36.921875 44 
L 32.8125 27.6875 
L 47.125 27.6875 
z
M 43.796875 71.78125 
L 38.71875 51.515625 
L 52.984375 51.515625 
L 58.109375 71.78125 
L 65.921875 71.78125 
L 60.890625 51.515625 
L 76.125 51.515625 
L 76.125 44 
L 58.984375 44 
L 54.984375 27.6875 
L 70.515625 27.6875 
L 70.515625 20.21875 
L 53.078125 20.21875 
L 48 0 
L 40.1875 0 
L 45.21875 20.21875 
L 30.90625 20.21875 
L 25.875 0 
L 18.015625 0 
L 23.09375 20.21875 
L 7.71875 20.21875 
L 7.71875 27.6875 
L 24.90625 27.6875 
L 29 44 
L 13.28125 44 
L 13.28125 51.515625 
L 30.90625 51.515625 
L 35.890625 71.78125 
z
" id="DejaVuSans-35"/>
      <path d="M 8.5 21.578125 
L 8.5 54.6875 
L 17.484375 54.6875 
L 17.484375 21.921875 
Q 17.484375 14.15625 20.5 10.265625 
Q 23.53125 6.390625 29.59375 6.390625 
Q 36.859375 6.390625 41.078125 11.03125 
Q 45.3125 15.671875 45.3125 23.6875 
L 45.3125 54.6875 
L 54.296875 54.6875 
L 54.296875 0 
L 45.3125 0 
L 45.3125 8.40625 
Q 42.046875 3.421875 37.71875 1 
Q 33.40625 -1.421875 27.6875 -1.421875 
Q 18.265625 -1.421875 13.375 4.4375 
Q 8.5 10.296875 8.5 21.578125 
z
M 31.109375 56 
z
" id="DejaVuSans-117"/>
      <path d="M 18.109375 8.203125 
L 18.109375 -20.796875 
L 9.078125 -20.796875 
L 9.078125 54.6875 
L 18.109375 54.6875 
L 18.109375 46.390625 
Q 20.953125 51.265625 25.265625 53.625 
Q 29.59375 56 35.59375 56 
Q 45.5625 56 51.78125 48.09375 
Q 58.015625 40.1875 58.015625 27.296875 
Q 58.015625 14.40625 51.78125 6.484375 
Q 45.5625 -1.421875 35.59375 -1.421875 
Q 29.59375 -1.421875 25.265625 0.953125 
Q 20.953125 3.328125 18.109375 8.203125 
z
M 48.6875 27.296875 
Q 48.6875 37.203125 44.609375 42.84375 
Q 40.53125 48.484375 33.40625 48.484375 
Q 26.265625 48.484375 22.1875 42.84375 
Q 18.109375 37.203125 18.109375 27.296875 
Q 18.109375 17.390625 22.1875 11.75 
Q 26.265625 6.109375 33.40625 6.109375 
Q 40.53125 6.109375 44.609375 11.75 
Q 48.6875 17.390625 48.6875 27.296875 
z
" id="DejaVuSans-112"/>
      <path d="M 45.40625 46.390625 
L 45.40625 75.984375 
L 54.390625 75.984375 
L 54.390625 0 
L 45.40625 0 
L 45.40625 8.203125 
Q 42.578125 3.328125 38.25 0.953125 
Q 33.9375 -1.421875 27.875 -1.421875 
Q 17.96875 -1.421875 11.734375 6.484375 
Q 5.515625 14.40625 5.515625 27.296875 
Q 5.515625 40.1875 11.734375 48.09375 
Q 17.96875 56 27.875 56 
Q 33.9375 56 38.25 53.625 
Q 42.578125 51.265625 45.40625 46.390625 
z
M 14.796875 27.296875 
Q 14.796875 17.390625 18.875 11.75 
Q 22.953125 6.109375 30.078125 6.109375 
Q 37.203125 6.109375 41.296875 11.75 
Q 45.40625 17.390625 45.40625 27.296875 
Q 45.40625 37.203125 41.296875 42.84375 
Q 37.203125 48.484375 30.078125 48.484375 
Q 22.953125 48.484375 18.875 42.84375 
Q 14.796875 37.203125 14.796875 27.296875 
z
" id="DejaVuSans-100"/>
      <path d="M 18.3125 70.21875 
L 18.3125 54.6875 
L 36.8125 54.6875 
L 36.8125 47.703125 
L 18.3125 47.703125 
L 18.3125 18.015625 
Q 18.3125 11.328125 20.140625 9.421875 
Q 21.96875 7.515625 27.59375 7.515625 
L 36.8125 7.515625 
L 36.8125 0 
L 27.59375 0 
Q 17.1875 0 13.234375 3.875 
Q 9.28125 7.765625 9.28125 18.015625 
L 9.28125 47.703125 
L 2.6875 47.703125 
L 2.6875 54.6875 
L 9.28125 54.6875 
L 9.28125 70.21875 
z
" id="DejaVuSans-116"/>
      <path d="M 56.203125 29.59375 
L 56.203125 25.203125 
L 14.890625 25.203125 
Q 15.484375 15.921875 20.484375 11.0625 
Q 25.484375 6.203125 34.421875 6.203125 
Q 39.59375 6.203125 44.453125 7.46875 
Q 49.3125 8.734375 54.109375 11.28125 
L 54.109375 2.78125 
Q 49.265625 0.734375 44.1875 -0.34375 
Q 39.109375 -1.421875 33.890625 -1.421875 
Q 20.796875 -1.421875 13.15625 6.1875 
Q 5.515625 13.8125 5.515625 26.8125 
Q 5.515625 40.234375 12.765625 48.109375 
Q 20.015625 56 32.328125 56 
Q 43.359375 56 49.78125 48.890625 
Q 56.203125 41.796875 56.203125 29.59375 
z
M 47.21875 32.234375 
Q 47.125 39.59375 43.09375 43.984375 
Q 39.0625 48.390625 32.421875 48.390625 
Q 24.90625 48.390625 20.390625 44.140625 
Q 15.875 39.890625 15.1875 32.171875 
z
" id="DejaVuSans-101"/>
      <path d="M 44.28125 53.078125 
L 44.28125 44.578125 
Q 40.484375 46.53125 36.375 47.5 
Q 32.28125 48.484375 27.875 48.484375 
Q 21.1875 48.484375 17.84375 46.4375 
Q 14.5 44.390625 14.5 40.28125 
Q 14.5 37.15625 16.890625 35.375 
Q 19.28125 33.59375 26.515625 31.984375 
L 29.59375 31.296875 
Q 39.15625 29.25 43.1875 25.515625 
Q 47.21875 21.78125 47.21875 15.09375 
Q 47.21875 7.46875 41.1875 3.015625 
Q 35.15625 -1.421875 24.609375 -1.421875 
Q 20.21875 -1.421875 15.453125 -0.5625 
Q 10.6875 0.296875 5.421875 2 
L 5.421875 11.28125 
Q 10.40625 8.6875 15.234375 7.390625 
Q 20.0625 6.109375 24.8125 6.109375 
Q 31.15625 6.109375 34.5625 8.28125 
Q 37.984375 10.453125 37.984375 14.40625 
Q 37.984375 18.0625 35.515625 20.015625 
Q 33.0625 21.96875 24.703125 23.78125 
L 21.578125 24.515625 
Q 13.234375 26.265625 9.515625 29.90625 
Q 5.8125 33.546875 5.8125 39.890625 
Q 5.8125 47.609375 11.28125 51.796875 
Q 16.75 56 26.8125 56 
Q 31.78125 56 36.171875 55.265625 
Q 40.578125 54.546875 44.28125 53.078125 
z
" id="DejaVuSans-115"/>
     </defs>
     <g transform="translate(29.995313 192.6575)rotate(-90)scale(0.3 -0.3)">
      <use xlink:href="#DejaVuSans-35"/>
      <use x="83.789062" xlink:href="#DejaVuSans-117"/>
      <use x="147.167969" xlink:href="#DejaVuSans-112"/>
      <use x="210.644531" xlink:href="#DejaVuSans-100"/>
      <use x="274.121094" xlink:href="#DejaVuSans-97"/>
      <use x="335.400391" xlink:href="#DejaVuSans-116"/>
      <use x="374.609375" xlink:href="#DejaVuSans-101"/>
      <use x="436.132812" xlink:href="#DejaVuSans-115"/>
     </g>
    </g>
   </g>
   <g id="line2d_11">
    <path clip-path="url(#p12871a3c71)" d="M 102.667229 19.023234 
L 102.987076 29.4191 
L 103.306923 33.96434 
L 103.466847 35.59734 
L 103.626771 35.828212 
L 103.946618 36.782919 
L 104.106541 37.714041 
L 104.266465 37.81416 
L 104.426388 39.622344 
L 104.586312 40.052902 
L 104.746236 42.61404 
L 105.066083 42.885736 
L 105.226006 42.935965 
L 105.38593 43.938944 
L 105.705777 44.222699 
L 106.025624 45.648596 
L 106.345471 45.90027 
L 106.825242 46.902443 
L 106.985166 47.033526 
L 107.145089 47.955973 
L 107.305013 48.045164 
L 107.62486 49.529323 
L 108.264554 49.646403 
L 108.744325 51.030726 
L 108.904248 51.774425 
L 109.224096 54.420488 
L 109.384019 55.821829 
L 109.703866 56.344366 
L 110.023713 56.405791 
L 110.343561 56.70871 
L 110.503484 56.743735 
L 113.222185 59.683662 
L 114.021803 59.881463 
L 114.34165 60.07464 
L 114.501573 60.150379 
L 114.821421 60.463335 
L 115.141268 60.536439 
L 115.301191 60.966135 
L 115.621038 61.033082 
L 115.780962 61.113356 
L 115.940886 61.36166 
L 116.900427 61.510707 
L 117.700045 62.574573 
L 117.859969 62.6615 
L 118.339739 63.33023 
L 118.499663 63.33023 
L 118.81951 63.632357 
L 119.139357 64.293796 
L 119.299281 64.320936 
L 119.459204 64.549598 
L 119.619128 65.255685 
L 120.098899 65.639298 
L 120.418746 66.033576 
L 120.738593 66.140485 
L 121.218364 66.661578 
L 122.177905 67.05644 
L 122.657676 67.427814 
L 123.137446 67.978628 
L 123.29737 68.023069 
L 123.937064 68.581124 
L 124.416835 68.730187 
L 125.856147 69.347578 
L 126.175994 69.750823 
L 126.495841 69.828134 
L 126.975612 70.290424 
L 127.77523 70.733531 
L 127.935154 70.977235 
L 128.095077 70.993535 
L 128.255001 71.824901 
L 130.653854 72.95284 
L 131.453472 73.419366 
L 132.25309 73.691611 
L 132.413014 74.231642 
L 132.892784 74.507987 
L 133.692402 74.699586 
L 134.012249 75.08563 
L 134.172173 75.098361 
L 134.332097 75.304129 
L 134.651944 75.440912 
L 135.291638 75.599286 
L 135.611485 75.676695 
L 136.251179 76.13667 
L 136.890874 76.35661 
L 137.370644 76.755224 
L 138.170262 76.939902 
L 141.368734 77.676007 
L 142.168352 77.830702 
L 142.488199 77.944278 
L 144.087434 78.534831 
L 144.567205 78.836802 
L 145.846594 79.0596 
L 147.125982 79.676909 
L 147.605753 79.818828 
L 149.364912 80.559193 
L 150.004607 80.664404 
L 150.644301 80.758547 
L 151.603842 80.923873 
L 151.763766 81.103971 
L 152.243537 81.161888 
L 152.883231 81.421338 
L 154.322543 81.662042 
L 155.442008 82.029094 
L 155.921779 82.340555 
L 157.361091 82.815338 
L 157.840862 82.853084 
L 158.000785 83.088457 
L 158.480556 83.180279 
L 159.12025 83.343579 
L 159.440097 83.615326 
L 160.239715 83.770046 
L 160.559562 84.038138 
L 162.318722 84.606494 
L 163.278263 84.713573 
L 163.59811 84.836889 
L 164.077881 84.93338 
L 164.557652 85.055151 
L 164.877499 85.197153 
L 166.316811 85.34165 
L 166.796582 85.431089 
L 167.116429 85.712009 
L 167.756123 85.774238 
L 168.07597 85.958913 
L 168.715665 86.113354 
L 169.515283 86.199037 
L 173.993143 87.265886 
L 174.632837 87.273682 
L 174.952684 87.497606 
L 175.432455 87.543852 
L 175.752302 87.715538 
L 177.031691 87.845937 
L 177.351538 87.940746 
L 178.151156 88.103305 
L 178.471003 88.33583 
L 179.590468 88.491457 
L 180.070238 88.601787 
L 182.149245 89.361723 
L 182.948863 89.495207 
L 183.588557 89.773449 
L 184.388175 89.921495 
L 187.426723 90.376172 
L 188.386264 90.642056 
L 189.505729 90.916032 
L 190.305347 91.186656 
L 190.785118 91.303416 
L 191.424812 91.558682 
L 192.22443 91.709756 
L 193.663742 91.93659 
L 194.46336 92.202918 
L 195.902672 92.48874 
L 196.222519 92.73332 
L 197.022137 92.811981 
L 199.261067 93.515438 
L 199.900761 93.637928 
L 208.376711 95.250751 
L 208.696558 95.457511 
L 210.13587 95.696688 
L 210.455717 95.842959 
L 211.415259 95.935105 
L 212.534724 96.081388 
L 213.814112 96.17501 
L 214.133959 96.24561 
L 216.85266 96.613331 
L 217.332431 96.812858 
L 220.051132 97.169776 
L 220.850749 97.280544 
L 223.08968 97.957547 
L 223.409527 98.103616 
L 225.008762 98.594576 
L 226.767922 99.082139 
L 227.247692 99.410359 
L 229.326699 99.763763 
L 230.126317 99.925542 
L 231.405705 100.196031 
L 232.0454 100.282144 
L 234.28433 100.694874 
L 234.604177 100.758408 
L 235.083947 100.905561 
L 235.563718 101.080162 
L 236.363336 101.283159 
L 237.322878 101.445552 
L 237.642725 101.522385 
L 238.282419 101.687393 
L 238.602266 101.714506 
L 238.922113 101.885076 
L 239.561808 102.016013 
L 239.721731 102.05413 
L 240.041578 102.242661 
L 240.201502 102.242661 
L 240.521349 102.4407 
L 241.320967 102.735469 
L 244.199591 103.099215 
L 244.519438 103.237449 
L 245.798827 103.395917 
L 249.477069 104.258406 
L 250.596534 104.472806 
L 252.355693 104.974042 
L 252.835464 105.117941 
L 254.274776 105.453355 
L 256.193859 105.966419 
L 256.513706 106.390769 
L 257.313324 106.553621 
L 258.592713 106.685182 
L 258.91256 106.999918 
L 259.392331 107.125734 
L 259.872101 107.326298 
L 260.191948 107.494671 
L 261.15149 107.725508 
L 261.951108 107.877984 
L 262.910649 107.980499 
L 264.669808 108.32384 
L 265.309503 108.546478 
L 265.789273 108.637538 
L 266.109121 108.723748 
L 266.748815 108.886733 
L 267.068662 109.06808 
L 267.228586 109.084675 
L 267.388509 109.290863 
L 268.028204 109.414814 
L 268.507974 109.516993 
L 269.147669 109.602675 
L 269.787363 109.845212 
L 270.427057 110.121338 
L 270.746904 110.300274 
L 277.143847 112.129021 
L 278.583159 112.251469 
L 281.30186 113.232162 
L 282.261402 113.341915 
L 282.741172 113.437685 
L 284.180484 114.017783 
L 284.660255 114.1257 
L 288.978192 114.86291 
L 289.298039 114.928045 
L 289.617886 115.141701 
L 290.577427 115.183139 
L 290.897274 115.274706 
L 291.536969 115.341651 
L 292.016739 115.408895 
L 292.816357 115.510328 
L 293.775899 115.766942 
L 296.334676 116.231267 
L 296.654523 116.374302 
L 297.614065 116.500582 
L 298.093835 116.54594 
L 298.253759 116.71037 
L 299.373224 116.793263 
L 301.45223 117.167302 
L 305.290396 117.914592 
L 305.610243 118.044501 
L 306.729708 118.21609 
L 310.727797 119.06165 
L 311.047645 119.223584 
L 313.606422 119.475316 
L 313.926269 119.552773 
L 314.565963 119.608345 
L 315.205658 119.821407 
L 317.604511 120.256798 
L 318.084282 120.43219 
L 319.683518 120.801275 
L 323.041913 121.378704 
L 323.36176 121.466631 
L 324.321301 121.64404 
L 327.519773 122.162759 
L 328.159467 122.590999 
L 331.677786 122.948144 
L 332.157556 123.059761 
L 333.277021 123.242923 
L 334.236563 123.399666 
L 335.356028 123.601547 
L 336.155646 123.659728 
L 336.955263 123.762089 
L 337.275111 123.909537 
L 338.554499 124.133452 
L 341.752971 124.638113 
L 342.392665 124.731715 
L 346.870525 125.717911 
L 347.98999 126.107196 
L 348.949531 126.175937 
L 349.269379 126.36661 
L 349.749149 126.489217 
L 350.868614 126.899247 
L 351.188461 126.917331 
L 351.668232 127.117693 
L 354.227009 127.927564 
L 355.026627 128.024626 
L 355.666322 128.200931 
L 355.986169 128.339499 
L 358.065175 128.640796 
L 359.024717 129.135777 
L 359.18464 129.135777 
L 359.504487 129.368199 
L 360.623952 129.712805 
L 361.263647 129.888112 
L 361.583494 130.020945 
L 365.90143 131.151992 
L 366.221277 131.175983 
L 366.541124 131.3693 
L 366.860972 131.614489 
L 367.340742 131.863738 
L 368.14036 132.142765 
L 369.579672 132.400993 
L 369.899519 132.531787 
L 370.219367 132.637247 
L 370.859061 132.958132 
L 371.498755 133.17592 
L 371.978526 133.258409 
L 372.458297 133.313655 
L 372.778144 133.480617 
L 372.938067 133.480617 
L 373.097991 133.706154 
L 373.897609 133.90631 
L 374.217456 134.02189 
L 374.85715 134.138365 
L 375.017074 134.167625 
L 375.816692 134.856799 
L 376.61631 134.949062 
L 376.776233 135.260757 
L 377.256004 135.323878 
L 377.575851 135.611244 
L 378.055622 135.708264 
L 379.175087 136.303897 
L 379.494934 136.405501 
L 379.814781 136.645279 
L 380.134628 136.714495 
L 380.934246 137.172322 
L 381.57394 137.570895 
L 381.733864 137.570895 
L 382.213635 137.905036 
L 383.013252 137.942625 
L 384.132717 138.478968 
L 384.452565 138.71481 
L 384.772412 138.754479 
L 385.731953 139.362408 
L 385.891877 139.403822 
L 386.0518 139.570631 
L 386.531571 139.612623 
L 386.851418 139.781775 
L 387.331189 140.256986 
L 388.29073 140.612267 
L 388.450654 141.022243 
L 388.770501 141.068493 
L 388.930425 141.349016 
L 389.250272 141.396282 
L 389.730043 141.731368 
L 391.169355 142.273481 
L 391.649125 142.888028 
L 392.448743 143.63822 
L 392.608667 144.084306 
L 392.928514 144.084306 
L 393.248361 144.427765 
L 393.568208 144.485778 
L 393.728132 144.720091 
L 394.047979 145.570157 
L 394.207903 145.570157 
L 394.847597 146.208147 
L 395.327368 146.471111 
L 395.647215 147.429437 
L 395.807138 147.642977 
L 395.967062 147.642977 
L 396.126985 148.079364 
L 396.76668 148.153341 
L 396.926603 148.52878 
L 397.24645 148.681617 
L 397.566298 149.469981 
L 397.886145 150.131815 
L 398.046068 151.092126 
L 398.365915 151.182542 
L 398.525839 152.708334 
L 398.845686 152.910409 
L 399.165533 154.294465 
L 399.325457 155.214098 
L 399.48538 155.214098 
L 399.645304 155.333105 
L 399.805228 157.377503 
L 399.965151 157.793778 
L 400.125075 159.743824 
L 400.284998 159.904834 
L 400.604846 161.799875 
L 400.924693 161.799875 
L 401.564387 167.812357 
L 401.724311 185.487923 
L 401.724311 185.487923 
" style="fill:none;stroke:#0000ff;stroke-linecap:square;stroke-width:4;"/>
   </g>
   <g id="patch_3">
    <path d="M 87.714375 228.14 
L 87.714375 10.7 
" style="fill:none;stroke:#000000;stroke-linecap:square;stroke-linejoin:miter;stroke-width:0.8;"/>
   </g>
   <g id="patch_4">
    <path d="M 422.514375 228.14 
L 422.514375 10.7 
" style="fill:none;stroke:#000000;stroke-linecap:square;stroke-linejoin:miter;stroke-width:0.8;"/>
   </g>
   <g id="patch_5">
    <path d="M 87.714375 228.14 
L 422.514375 228.14 
" style="fill:none;stroke:#000000;stroke-linecap:square;stroke-linejoin:miter;stroke-width:0.8;"/>
   </g>
   <g id="patch_6">
    <path d="M 87.714375 10.7 
L 422.514375 10.7 
" style="fill:none;stroke:#000000;stroke-linecap:square;stroke-linejoin:miter;stroke-width:0.8;"/>
   </g>
  </g>
 </g>
 <defs>
  <clipPath id="p12871a3c71">
   <rect height="217.44" width="334.8" x="87.714375" y="10.7"/>
  </clipPath>
 </defs>
</svg>
