<?xml version="1.0" encoding="utf-8" standalone="no"?>
<!DOCTYPE svg PUBLIC "-//W3C//DTD SVG 1.1//EN"
  "http://www.w3.org/Graphics/SVG/1.1/DTD/svg11.dtd">
<!-- Created with matplotlib (https://matplotlib.org/) -->
<svg height="297.634062pt" version="1.1" viewBox="0 0 446.784375 297.634062" width="446.784375pt" xmlns="http://www.w3.org/2000/svg" xmlns:xlink="http://www.w3.org/1999/xlink">
 <defs>
  <style type="text/css">
*{stroke-linecap:butt;stroke-linejoin:round;}
  </style>
 </defs>
 <g id="figure_1">
  <g id="patch_1">
   <path d="M 0 297.634062 
L 446.784375 297.634062 
L 446.784375 0 
L 0 0 
z
" style="fill:#ffffff;"/>
  </g>
  <g id="axes_1">
   <g id="patch_2">
    <path d="M 101.284375 228.14 
L 436.084375 228.14 
L 436.084375 10.7 
L 101.284375 10.7 
z
" style="fill:#ffffff;"/>
   </g>
   <g id="matplotlib.axis_1">
    <g id="xtick_1">
     <g id="line2d_1">
      <defs>
       <path d="M 0 0 
L 0 3.5 
" id="mc7b0419d7c" style="stroke:#000000;stroke-width:0.8;"/>
      </defs>
      <g>
       <use style="stroke:#000000;stroke-width:0.8;" x="101.284375" xlink:href="#mc7b0419d7c" y="228.14"/>
      </g>
     </g>
     <g id="text_1">
      <!-- $\mathdefault{10^{0}}$ -->
      <defs>
       <path d="M 12.40625 8.296875 
L 28.515625 8.296875 
L 28.515625 63.921875 
L 10.984375 60.40625 
L 10.984375 69.390625 
L 28.421875 72.90625 
L 38.28125 72.90625 
L 38.28125 8.296875 
L 54.390625 8.296875 
L 54.390625 0 
L 12.40625 0 
z
" id="DejaVuSans-49"/>
       <path d="M 31.78125 66.40625 
Q 24.171875 66.40625 20.328125 58.90625 
Q 16.5 51.421875 16.5 36.375 
Q 16.5 21.390625 20.328125 13.890625 
Q 24.171875 6.390625 31.78125 6.390625 
Q 39.453125 6.390625 43.28125 13.890625 
Q 47.125 21.390625 47.125 36.375 
Q 47.125 51.421875 43.28125 58.90625 
Q 39.453125 66.40625 31.78125 66.40625 
z
M 31.78125 74.21875 
Q 44.046875 74.21875 50.515625 64.515625 
Q 56.984375 54.828125 56.984375 36.375 
Q 56.984375 17.96875 50.515625 8.265625 
Q 44.046875 -1.421875 31.78125 -1.421875 
Q 19.53125 -1.421875 13.0625 8.265625 
Q 6.59375 17.96875 6.59375 36.375 
Q 6.59375 54.828125 13.0625 64.515625 
Q 19.53125 74.21875 31.78125 74.21875 
z
" id="DejaVuSans-48"/>
      </defs>
      <g transform="translate(81.044375 252.616406)scale(0.23 -0.23)">
       <use transform="translate(0 0.765625)" xlink:href="#DejaVuSans-49"/>
       <use transform="translate(63.623047 0.765625)" xlink:href="#DejaVuSans-48"/>
       <use transform="translate(128.203125 39.046875)scale(0.7)" xlink:href="#DejaVuSans-48"/>
      </g>
     </g>
    </g>
    <g id="xtick_2">
     <g id="line2d_2">
      <g>
       <use style="stroke:#000000;stroke-width:0.8;" x="196.941518" xlink:href="#mc7b0419d7c" y="228.14"/>
      </g>
     </g>
     <g id="text_2">
      <!-- $\mathdefault{10^{2}}$ -->
      <defs>
       <path d="M 19.1875 8.296875 
L 53.609375 8.296875 
L 53.609375 0 
L 7.328125 0 
L 7.328125 8.296875 
Q 12.9375 14.109375 22.625 23.890625 
Q 32.328125 33.6875 34.8125 36.53125 
Q 39.546875 41.84375 41.421875 45.53125 
Q 43.3125 49.21875 43.3125 52.78125 
Q 43.3125 58.59375 39.234375 62.25 
Q 35.15625 65.921875 28.609375 65.921875 
Q 23.96875 65.921875 18.8125 64.3125 
Q 13.671875 62.703125 7.8125 59.421875 
L 7.8125 69.390625 
Q 13.765625 71.78125 18.9375 73 
Q 24.125 74.21875 28.421875 74.21875 
Q 39.75 74.21875 46.484375 68.546875 
Q 53.21875 62.890625 53.21875 53.421875 
Q 53.21875 48.921875 51.53125 44.890625 
Q 49.859375 40.875 45.40625 35.40625 
Q 44.1875 33.984375 37.640625 27.21875 
Q 31.109375 20.453125 19.1875 8.296875 
z
" id="DejaVuSans-50"/>
      </defs>
      <g transform="translate(176.701518 252.616406)scale(0.23 -0.23)">
       <use transform="translate(0 0.765625)" xlink:href="#DejaVuSans-49"/>
       <use transform="translate(63.623047 0.765625)" xlink:href="#DejaVuSans-48"/>
       <use transform="translate(128.203125 39.046875)scale(0.7)" xlink:href="#DejaVuSans-50"/>
      </g>
     </g>
    </g>
    <g id="xtick_3">
     <g id="line2d_3">
      <g>
       <use style="stroke:#000000;stroke-width:0.8;" x="292.598661" xlink:href="#mc7b0419d7c" y="228.14"/>
      </g>
     </g>
     <g id="text_3">
      <!-- $\mathdefault{10^{4}}$ -->
      <defs>
       <path d="M 37.796875 64.3125 
L 12.890625 25.390625 
L 37.796875 25.390625 
z
M 35.203125 72.90625 
L 47.609375 72.90625 
L 47.609375 25.390625 
L 58.015625 25.390625 
L 58.015625 17.1875 
L 47.609375 17.1875 
L 47.609375 0 
L 37.796875 0 
L 37.796875 17.1875 
L 4.890625 17.1875 
L 4.890625 26.703125 
z
" id="DejaVuSans-52"/>
      </defs>
      <g transform="translate(272.358661 252.616406)scale(0.23 -0.23)">
       <use transform="translate(0 0.684375)" xlink:href="#DejaVuSans-49"/>
       <use transform="translate(63.623047 0.684375)" xlink:href="#DejaVuSans-48"/>
       <use transform="translate(128.203125 38.965625)scale(0.7)" xlink:href="#DejaVuSans-52"/>
      </g>
     </g>
    </g>
    <g id="xtick_4">
     <g id="line2d_4">
      <g>
       <use style="stroke:#000000;stroke-width:0.8;" x="388.255804" xlink:href="#mc7b0419d7c" y="228.14"/>
      </g>
     </g>
     <g id="text_4">
      <!-- $\mathdefault{10^{6}}$ -->
      <defs>
       <path d="M 33.015625 40.375 
Q 26.375 40.375 22.484375 35.828125 
Q 18.609375 31.296875 18.609375 23.390625 
Q 18.609375 15.53125 22.484375 10.953125 
Q 26.375 6.390625 33.015625 6.390625 
Q 39.65625 6.390625 43.53125 10.953125 
Q 47.40625 15.53125 47.40625 23.390625 
Q 47.40625 31.296875 43.53125 35.828125 
Q 39.65625 40.375 33.015625 40.375 
z
M 52.59375 71.296875 
L 52.59375 62.3125 
Q 48.875 64.0625 45.09375 64.984375 
Q 41.3125 65.921875 37.59375 65.921875 
Q 27.828125 65.921875 22.671875 59.328125 
Q 17.53125 52.734375 16.796875 39.40625 
Q 19.671875 43.65625 24.015625 45.921875 
Q 28.375 48.1875 33.59375 48.1875 
Q 44.578125 48.1875 50.953125 41.515625 
Q 57.328125 34.859375 57.328125 23.390625 
Q 57.328125 12.15625 50.6875 5.359375 
Q 44.046875 -1.421875 33.015625 -1.421875 
Q 20.359375 -1.421875 13.671875 8.265625 
Q 6.984375 17.96875 6.984375 36.375 
Q 6.984375 53.65625 15.1875 63.9375 
Q 23.390625 74.21875 37.203125 74.21875 
Q 40.921875 74.21875 44.703125 73.484375 
Q 48.484375 72.75 52.59375 71.296875 
z
" id="DejaVuSans-54"/>
      </defs>
      <g transform="translate(368.015804 252.616406)scale(0.23 -0.23)">
       <use transform="translate(0 0.765625)" xlink:href="#DejaVuSans-49"/>
       <use transform="translate(63.623047 0.765625)" xlink:href="#DejaVuSans-48"/>
       <use transform="translate(128.203125 39.046875)scale(0.7)" xlink:href="#DejaVuSans-54"/>
      </g>
     </g>
    </g>
    <g id="text_5">
     <!-- #updates -->
     <defs>
      <path d="M 51.125 44 
L 36.921875 44 
L 32.8125 27.6875 
L 47.125 27.6875 
z
M 43.796875 71.78125 
L 38.71875 51.515625 
L 52.984375 51.515625 
L 58.109375 71.78125 
L 65.921875 71.78125 
L 60.890625 51.515625 
L 76.125 51.515625 
L 76.125 44 
L 58.984375 44 
L 54.984375 27.6875 
L 70.515625 27.6875 
L 70.515625 20.21875 
L 53.078125 20.21875 
L 48 0 
L 40.1875 0 
L 45.21875 20.21875 
L 30.90625 20.21875 
L 25.875 0 
L 18.015625 0 
L 23.09375 20.21875 
L 7.71875 20.21875 
L 7.71875 27.6875 
L 24.90625 27.6875 
L 29 44 
L 13.28125 44 
L 13.28125 51.515625 
L 30.90625 51.515625 
L 35.890625 71.78125 
z
" id="DejaVuSans-35"/>
      <path d="M 8.5 21.578125 
L 8.5 54.6875 
L 17.484375 54.6875 
L 17.484375 21.921875 
Q 17.484375 14.15625 20.5 10.265625 
Q 23.53125 6.390625 29.59375 6.390625 
Q 36.859375 6.390625 41.078125 11.03125 
Q 45.3125 15.671875 45.3125 23.6875 
L 45.3125 54.6875 
L 54.296875 54.6875 
L 54.296875 0 
L 45.3125 0 
L 45.3125 8.40625 
Q 42.046875 3.421875 37.71875 1 
Q 33.40625 -1.421875 27.6875 -1.421875 
Q 18.265625 -1.421875 13.375 4.4375 
Q 8.5 10.296875 8.5 21.578125 
z
M 31.109375 56 
z
" id="DejaVuSans-117"/>
      <path d="M 18.109375 8.203125 
L 18.109375 -20.796875 
L 9.078125 -20.796875 
L 9.078125 54.6875 
L 18.109375 54.6875 
L 18.109375 46.390625 
Q 20.953125 51.265625 25.265625 53.625 
Q 29.59375 56 35.59375 56 
Q 45.5625 56 51.78125 48.09375 
Q 58.015625 40.1875 58.015625 27.296875 
Q 58.015625 14.40625 51.78125 6.484375 
Q 45.5625 -1.421875 35.59375 -1.421875 
Q 29.59375 -1.421875 25.265625 0.953125 
Q 20.953125 3.328125 18.109375 8.203125 
z
M 48.6875 27.296875 
Q 48.6875 37.203125 44.609375 42.84375 
Q 40.53125 48.484375 33.40625 48.484375 
Q 26.265625 48.484375 22.1875 42.84375 
Q 18.109375 37.203125 18.109375 27.296875 
Q 18.109375 17.390625 22.1875 11.75 
Q 26.265625 6.109375 33.40625 6.109375 
Q 40.53125 6.109375 44.609375 11.75 
Q 48.6875 17.390625 48.6875 27.296875 
z
" id="DejaVuSans-112"/>
      <path d="M 45.40625 46.390625 
L 45.40625 75.984375 
L 54.390625 75.984375 
L 54.390625 0 
L 45.40625 0 
L 45.40625 8.203125 
Q 42.578125 3.328125 38.25 0.953125 
Q 33.9375 -1.421875 27.875 -1.421875 
Q 17.96875 -1.421875 11.734375 6.484375 
Q 5.515625 14.40625 5.515625 27.296875 
Q 5.515625 40.1875 11.734375 48.09375 
Q 17.96875 56 27.875 56 
Q 33.9375 56 38.25 53.625 
Q 42.578125 51.265625 45.40625 46.390625 
z
M 14.796875 27.296875 
Q 14.796875 17.390625 18.875 11.75 
Q 22.953125 6.109375 30.078125 6.109375 
Q 37.203125 6.109375 41.296875 11.75 
Q 45.40625 17.390625 45.40625 27.296875 
Q 45.40625 37.203125 41.296875 42.84375 
Q 37.203125 48.484375 30.078125 48.484375 
Q 22.953125 48.484375 18.875 42.84375 
Q 14.796875 37.203125 14.796875 27.296875 
z
" id="DejaVuSans-100"/>
      <path d="M 34.28125 27.484375 
Q 23.390625 27.484375 19.1875 25 
Q 14.984375 22.515625 14.984375 16.5 
Q 14.984375 11.71875 18.140625 8.90625 
Q 21.296875 6.109375 26.703125 6.109375 
Q 34.1875 6.109375 38.703125 11.40625 
Q 43.21875 16.703125 43.21875 25.484375 
L 43.21875 27.484375 
z
M 52.203125 31.203125 
L 52.203125 0 
L 43.21875 0 
L 43.21875 8.296875 
Q 40.140625 3.328125 35.546875 0.953125 
Q 30.953125 -1.421875 24.3125 -1.421875 
Q 15.921875 -1.421875 10.953125 3.296875 
Q 6 8.015625 6 15.921875 
Q 6 25.140625 12.171875 29.828125 
Q 18.359375 34.515625 30.609375 34.515625 
L 43.21875 34.515625 
L 43.21875 35.40625 
Q 43.21875 41.609375 39.140625 45 
Q 35.0625 48.390625 27.6875 48.390625 
Q 23 48.390625 18.546875 47.265625 
Q 14.109375 46.140625 10.015625 43.890625 
L 10.015625 52.203125 
Q 14.9375 54.109375 19.578125 55.046875 
Q 24.21875 56 28.609375 56 
Q 40.484375 56 46.34375 49.84375 
Q 52.203125 43.703125 52.203125 31.203125 
z
" id="DejaVuSans-97"/>
      <path d="M 18.3125 70.21875 
L 18.3125 54.6875 
L 36.8125 54.6875 
L 36.8125 47.703125 
L 18.3125 47.703125 
L 18.3125 18.015625 
Q 18.3125 11.328125 20.140625 9.421875 
Q 21.96875 7.515625 27.59375 7.515625 
L 36.8125 7.515625 
L 36.8125 0 
L 27.59375 0 
Q 17.1875 0 13.234375 3.875 
Q 9.28125 7.765625 9.28125 18.015625 
L 9.28125 47.703125 
L 2.6875 47.703125 
L 2.6875 54.6875 
L 9.28125 54.6875 
L 9.28125 70.21875 
z
" id="DejaVuSans-116"/>
      <path d="M 56.203125 29.59375 
L 56.203125 25.203125 
L 14.890625 25.203125 
Q 15.484375 15.921875 20.484375 11.0625 
Q 25.484375 6.203125 34.421875 6.203125 
Q 39.59375 6.203125 44.453125 7.46875 
Q 49.3125 8.734375 54.109375 11.28125 
L 54.109375 2.78125 
Q 49.265625 0.734375 44.1875 -0.34375 
Q 39.109375 -1.421875 33.890625 -1.421875 
Q 20.796875 -1.421875 13.15625 6.1875 
Q 5.515625 13.8125 5.515625 26.8125 
Q 5.515625 40.234375 12.765625 48.109375 
Q 20.015625 56 32.328125 56 
Q 43.359375 56 49.78125 48.890625 
Q 56.203125 41.796875 56.203125 29.59375 
z
M 47.21875 32.234375 
Q 47.125 39.59375 43.09375 43.984375 
Q 39.0625 48.390625 32.421875 48.390625 
Q 24.90625 48.390625 20.390625 44.140625 
Q 15.875 39.890625 15.1875 32.171875 
z
" id="DejaVuSans-101"/>
      <path d="M 44.28125 53.078125 
L 44.28125 44.578125 
Q 40.484375 46.53125 36.375 47.5 
Q 32.28125 48.484375 27.875 48.484375 
Q 21.1875 48.484375 17.84375 46.4375 
Q 14.5 44.390625 14.5 40.28125 
Q 14.5 37.15625 16.890625 35.375 
Q 19.28125 33.59375 26.515625 31.984375 
L 29.59375 31.296875 
Q 39.15625 29.25 43.1875 25.515625 
Q 47.21875 21.78125 47.21875 15.09375 
Q 47.21875 7.46875 41.1875 3.015625 
Q 35.15625 -1.421875 24.609375 -1.421875 
Q 20.21875 -1.421875 15.453125 -0.5625 
Q 10.6875 0.296875 5.421875 2 
L 5.421875 11.28125 
Q 10.40625 8.6875 15.234375 7.390625 
Q 20.0625 6.109375 24.8125 6.109375 
Q 31.15625 6.109375 34.5625 8.28125 
Q 37.984375 10.453125 37.984375 14.40625 
Q 37.984375 18.0625 35.515625 20.015625 
Q 33.0625 21.96875 24.703125 23.78125 
L 21.578125 24.515625 
Q 13.234375 26.265625 9.515625 29.90625 
Q 5.8125 33.546875 5.8125 39.890625 
Q 5.8125 47.609375 11.28125 51.796875 
Q 16.75 56 26.8125 56 
Q 31.78125 56 36.171875 55.265625 
Q 40.578125 54.546875 44.28125 53.078125 
z
" id="DejaVuSans-115"/>
     </defs>
     <g transform="translate(195.446875 284.195)scale(0.3 -0.3)">
      <use xlink:href="#DejaVuSans-35"/>
      <use x="83.789062" xlink:href="#DejaVuSans-117"/>
      <use x="147.167969" xlink:href="#DejaVuSans-112"/>
      <use x="210.644531" xlink:href="#DejaVuSans-100"/>
      <use x="274.121094" xlink:href="#DejaVuSans-97"/>
      <use x="335.400391" xlink:href="#DejaVuSans-116"/>
      <use x="374.609375" xlink:href="#DejaVuSans-101"/>
      <use x="436.132812" xlink:href="#DejaVuSans-115"/>
     </g>
    </g>
   </g>
   <g id="matplotlib.axis_2">
    <g id="ytick_1">
     <g id="line2d_5">
      <defs>
       <path d="M 0 0 
L -3.5 0 
" id="mf8364e4e2f" style="stroke:#000000;stroke-width:0.8;"/>
      </defs>
      <g>
       <use style="stroke:#000000;stroke-width:0.8;" x="101.284375" xlink:href="#mf8364e4e2f" y="202.039656"/>
      </g>
     </g>
     <g id="text_6">
      <!-- $\mathdefault{10^{-3}}$ -->
      <defs>
       <path d="M 10.59375 35.5 
L 73.1875 35.5 
L 73.1875 27.203125 
L 10.59375 27.203125 
z
" id="DejaVuSans-8722"/>
       <path d="M 40.578125 39.3125 
Q 47.65625 37.796875 51.625 33 
Q 55.609375 28.21875 55.609375 21.1875 
Q 55.609375 10.40625 48.1875 4.484375 
Q 40.765625 -1.421875 27.09375 -1.421875 
Q 22.515625 -1.421875 17.65625 -0.515625 
Q 12.796875 0.390625 7.625 2.203125 
L 7.625 11.71875 
Q 11.71875 9.328125 16.59375 8.109375 
Q 21.484375 6.890625 26.8125 6.890625 
Q 36.078125 6.890625 40.9375 10.546875 
Q 45.796875 14.203125 45.796875 21.1875 
Q 45.796875 27.640625 41.28125 31.265625 
Q 36.765625 34.90625 28.71875 34.90625 
L 20.21875 34.90625 
L 20.21875 43.015625 
L 29.109375 43.015625 
Q 36.375 43.015625 40.234375 45.921875 
Q 44.09375 48.828125 44.09375 54.296875 
Q 44.09375 59.90625 40.109375 62.90625 
Q 36.140625 65.921875 28.71875 65.921875 
Q 24.65625 65.921875 20.015625 65.03125 
Q 15.375 64.15625 9.8125 62.3125 
L 9.8125 71.09375 
Q 15.4375 72.65625 20.34375 73.4375 
Q 25.25 74.21875 29.59375 74.21875 
Q 40.828125 74.21875 47.359375 69.109375 
Q 53.90625 64.015625 53.90625 55.328125 
Q 53.90625 49.265625 50.4375 45.09375 
Q 46.96875 40.921875 40.578125 39.3125 
z
" id="DejaVuSans-51"/>
      </defs>
      <g transform="translate(40.234375 210.777859)scale(0.23 -0.23)">
       <use transform="translate(0 0.765625)" xlink:href="#DejaVuSans-49"/>
       <use transform="translate(63.623047 0.765625)" xlink:href="#DejaVuSans-48"/>
       <use transform="translate(128.203125 39.046875)scale(0.7)" xlink:href="#DejaVuSans-8722"/>
       <use transform="translate(186.855469 39.046875)scale(0.7)" xlink:href="#DejaVuSans-51"/>
      </g>
     </g>
    </g>
    <g id="ytick_2">
     <g id="line2d_6">
      <g>
       <use style="stroke:#000000;stroke-width:0.8;" x="101.284375" xlink:href="#mf8364e4e2f" y="141.554316"/>
      </g>
     </g>
     <g id="text_7">
      <!-- $\mathdefault{10^{-2}}$ -->
      <g transform="translate(40.234375 150.292519)scale(0.23 -0.23)">
       <use transform="translate(0 0.765625)" xlink:href="#DejaVuSans-49"/>
       <use transform="translate(63.623047 0.765625)" xlink:href="#DejaVuSans-48"/>
       <use transform="translate(128.203125 39.046875)scale(0.7)" xlink:href="#DejaVuSans-8722"/>
       <use transform="translate(186.855469 39.046875)scale(0.7)" xlink:href="#DejaVuSans-50"/>
      </g>
     </g>
    </g>
    <g id="ytick_3">
     <g id="line2d_7">
      <g>
       <use style="stroke:#000000;stroke-width:0.8;" x="101.284375" xlink:href="#mf8364e4e2f" y="81.068976"/>
      </g>
     </g>
     <g id="text_8">
      <!-- $\mathdefault{10^{-1}}$ -->
      <g transform="translate(40.234375 89.807179)scale(0.23 -0.23)">
       <use transform="translate(0 0.684375)" xlink:href="#DejaVuSans-49"/>
       <use transform="translate(63.623047 0.684375)" xlink:href="#DejaVuSans-48"/>
       <use transform="translate(128.203125 38.965625)scale(0.7)" xlink:href="#DejaVuSans-8722"/>
       <use transform="translate(186.855469 38.965625)scale(0.7)" xlink:href="#DejaVuSans-49"/>
      </g>
     </g>
    </g>
    <g id="ytick_4">
     <g id="line2d_8">
      <g>
       <use style="stroke:#000000;stroke-width:0.8;" x="101.284375" xlink:href="#mf8364e4e2f" y="20.583636"/>
      </g>
     </g>
     <g id="text_9">
      <!-- $\mathdefault{10^{0}}$ -->
      <g transform="translate(53.804375 29.321839)scale(0.23 -0.23)">
       <use transform="translate(0 0.765625)" xlink:href="#DejaVuSans-49"/>
       <use transform="translate(63.623047 0.765625)" xlink:href="#DejaVuSans-48"/>
       <use transform="translate(128.203125 39.046875)scale(0.7)" xlink:href="#DejaVuSans-48"/>
      </g>
     </g>
    </g>
    <g id="ytick_5">
     <g id="line2d_9">
      <defs>
       <path d="M 0 0 
L -2 0 
" id="mc207522574" style="stroke:#000000;stroke-width:0.6;"/>
      </defs>
      <g>
       <use style="stroke:#000000;stroke-width:0.6;" x="101.284375" xlink:href="#mc207522574" y="226.109192"/>
      </g>
     </g>
    </g>
    <g id="ytick_6">
     <g id="line2d_10">
      <g>
       <use style="stroke:#000000;stroke-width:0.6;" x="101.284375" xlink:href="#mc207522574" y="220.247557"/>
      </g>
     </g>
    </g>
    <g id="ytick_7">
     <g id="line2d_11">
      <g>
       <use style="stroke:#000000;stroke-width:0.6;" x="101.284375" xlink:href="#mc207522574" y="215.458253"/>
      </g>
     </g>
    </g>
    <g id="ytick_8">
     <g id="line2d_12">
      <g>
       <use style="stroke:#000000;stroke-width:0.6;" x="101.284375" xlink:href="#mc207522574" y="211.408953"/>
      </g>
     </g>
    </g>
    <g id="ytick_9">
     <g id="line2d_13">
      <g>
       <use style="stroke:#000000;stroke-width:0.6;" x="101.284375" xlink:href="#mc207522574" y="207.901291"/>
      </g>
     </g>
    </g>
    <g id="ytick_10">
     <g id="line2d_14">
      <g>
       <use style="stroke:#000000;stroke-width:0.6;" x="101.284375" xlink:href="#mc207522574" y="204.807313"/>
      </g>
     </g>
    </g>
    <g id="ytick_11">
     <g id="line2d_15">
      <g>
       <use style="stroke:#000000;stroke-width:0.6;" x="101.284375" xlink:href="#mc207522574" y="183.831754"/>
      </g>
     </g>
    </g>
    <g id="ytick_12">
     <g id="line2d_16">
      <g>
       <use style="stroke:#000000;stroke-width:0.6;" x="101.284375" xlink:href="#mc207522574" y="173.180814"/>
      </g>
     </g>
    </g>
    <g id="ytick_13">
     <g id="line2d_17">
      <g>
       <use style="stroke:#000000;stroke-width:0.6;" x="101.284375" xlink:href="#mc207522574" y="165.623852"/>
      </g>
     </g>
    </g>
    <g id="ytick_14">
     <g id="line2d_18">
      <g>
       <use style="stroke:#000000;stroke-width:0.6;" x="101.284375" xlink:href="#mc207522574" y="159.762217"/>
      </g>
     </g>
    </g>
    <g id="ytick_15">
     <g id="line2d_19">
      <g>
       <use style="stroke:#000000;stroke-width:0.6;" x="101.284375" xlink:href="#mc207522574" y="154.972913"/>
      </g>
     </g>
    </g>
    <g id="ytick_16">
     <g id="line2d_20">
      <g>
       <use style="stroke:#000000;stroke-width:0.6;" x="101.284375" xlink:href="#mc207522574" y="150.923613"/>
      </g>
     </g>
    </g>
    <g id="ytick_17">
     <g id="line2d_21">
      <g>
       <use style="stroke:#000000;stroke-width:0.6;" x="101.284375" xlink:href="#mc207522574" y="147.415951"/>
      </g>
     </g>
    </g>
    <g id="ytick_18">
     <g id="line2d_22">
      <g>
       <use style="stroke:#000000;stroke-width:0.6;" x="101.284375" xlink:href="#mc207522574" y="144.321973"/>
      </g>
     </g>
    </g>
    <g id="ytick_19">
     <g id="line2d_23">
      <g>
       <use style="stroke:#000000;stroke-width:0.6;" x="101.284375" xlink:href="#mc207522574" y="123.346414"/>
      </g>
     </g>
    </g>
    <g id="ytick_20">
     <g id="line2d_24">
      <g>
       <use style="stroke:#000000;stroke-width:0.6;" x="101.284375" xlink:href="#mc207522574" y="112.695475"/>
      </g>
     </g>
    </g>
    <g id="ytick_21">
     <g id="line2d_25">
      <g>
       <use style="stroke:#000000;stroke-width:0.6;" x="101.284375" xlink:href="#mc207522574" y="105.138513"/>
      </g>
     </g>
    </g>
    <g id="ytick_22">
     <g id="line2d_26">
      <g>
       <use style="stroke:#000000;stroke-width:0.6;" x="101.284375" xlink:href="#mc207522574" y="99.276878"/>
      </g>
     </g>
    </g>
    <g id="ytick_23">
     <g id="line2d_27">
      <g>
       <use style="stroke:#000000;stroke-width:0.6;" x="101.284375" xlink:href="#mc207522574" y="94.487573"/>
      </g>
     </g>
    </g>
    <g id="ytick_24">
     <g id="line2d_28">
      <g>
       <use style="stroke:#000000;stroke-width:0.6;" x="101.284375" xlink:href="#mc207522574" y="90.438274"/>
      </g>
     </g>
    </g>
    <g id="ytick_25">
     <g id="line2d_29">
      <g>
       <use style="stroke:#000000;stroke-width:0.6;" x="101.284375" xlink:href="#mc207522574" y="86.930611"/>
      </g>
     </g>
    </g>
    <g id="ytick_26">
     <g id="line2d_30">
      <g>
       <use style="stroke:#000000;stroke-width:0.6;" x="101.284375" xlink:href="#mc207522574" y="83.836633"/>
      </g>
     </g>
    </g>
    <g id="ytick_27">
     <g id="line2d_31">
      <g>
       <use style="stroke:#000000;stroke-width:0.6;" x="101.284375" xlink:href="#mc207522574" y="62.861075"/>
      </g>
     </g>
    </g>
    <g id="ytick_28">
     <g id="line2d_32">
      <g>
       <use style="stroke:#000000;stroke-width:0.6;" x="101.284375" xlink:href="#mc207522574" y="52.210135"/>
      </g>
     </g>
    </g>
    <g id="ytick_29">
     <g id="line2d_33">
      <g>
       <use style="stroke:#000000;stroke-width:0.6;" x="101.284375" xlink:href="#mc207522574" y="44.653173"/>
      </g>
     </g>
    </g>
    <g id="ytick_30">
     <g id="line2d_34">
      <g>
       <use style="stroke:#000000;stroke-width:0.6;" x="101.284375" xlink:href="#mc207522574" y="38.791538"/>
      </g>
     </g>
    </g>
    <g id="ytick_31">
     <g id="line2d_35">
      <g>
       <use style="stroke:#000000;stroke-width:0.6;" x="101.284375" xlink:href="#mc207522574" y="34.002233"/>
      </g>
     </g>
    </g>
    <g id="ytick_32">
     <g id="line2d_36">
      <g>
       <use style="stroke:#000000;stroke-width:0.6;" x="101.284375" xlink:href="#mc207522574" y="29.952934"/>
      </g>
     </g>
    </g>
    <g id="ytick_33">
     <g id="line2d_37">
      <g>
       <use style="stroke:#000000;stroke-width:0.6;" x="101.284375" xlink:href="#mc207522574" y="26.445271"/>
      </g>
     </g>
    </g>
    <g id="ytick_34">
     <g id="line2d_38">
      <g>
       <use style="stroke:#000000;stroke-width:0.6;" x="101.284375" xlink:href="#mc207522574" y="23.351294"/>
      </g>
     </g>
    </g>
    <g id="text_10">
     <!-- ICDF -->
     <defs>
      <path d="M 9.8125 72.90625 
L 19.671875 72.90625 
L 19.671875 0 
L 9.8125 0 
z
" id="DejaVuSans-73"/>
      <path d="M 64.40625 67.28125 
L 64.40625 56.890625 
Q 59.421875 61.53125 53.78125 63.8125 
Q 48.140625 66.109375 41.796875 66.109375 
Q 29.296875 66.109375 22.65625 58.46875 
Q 16.015625 50.828125 16.015625 36.375 
Q 16.015625 21.96875 22.65625 14.328125 
Q 29.296875 6.6875 41.796875 6.6875 
Q 48.140625 6.6875 53.78125 8.984375 
Q 59.421875 11.28125 64.40625 15.921875 
L 64.40625 5.609375 
Q 59.234375 2.09375 53.4375 0.328125 
Q 47.65625 -1.421875 41.21875 -1.421875 
Q 24.65625 -1.421875 15.125 8.703125 
Q 5.609375 18.84375 5.609375 36.375 
Q 5.609375 53.953125 15.125 64.078125 
Q 24.65625 74.21875 41.21875 74.21875 
Q 47.75 74.21875 53.53125 72.484375 
Q 59.328125 70.75 64.40625 67.28125 
z
" id="DejaVuSans-67"/>
      <path d="M 19.671875 64.796875 
L 19.671875 8.109375 
L 31.59375 8.109375 
Q 46.6875 8.109375 53.6875 14.9375 
Q 60.6875 21.78125 60.6875 36.53125 
Q 60.6875 51.171875 53.6875 57.984375 
Q 46.6875 64.796875 31.59375 64.796875 
z
M 9.8125 72.90625 
L 30.078125 72.90625 
Q 51.265625 72.90625 61.171875 64.09375 
Q 71.09375 55.28125 71.09375 36.53125 
Q 71.09375 17.671875 61.125 8.828125 
Q 51.171875 0 30.078125 0 
L 9.8125 0 
z
" id="DejaVuSans-68"/>
      <path d="M 9.8125 72.90625 
L 51.703125 72.90625 
L 51.703125 64.59375 
L 19.671875 64.59375 
L 19.671875 43.109375 
L 48.578125 43.109375 
L 48.578125 34.8125 
L 19.671875 34.8125 
L 19.671875 0 
L 9.8125 0 
z
" id="DejaVuSans-70"/>
     </defs>
     <g transform="translate(29.995313 154.496562)rotate(-90)scale(0.3 -0.3)">
      <use xlink:href="#DejaVuSans-73"/>
      <use x="29.492188" xlink:href="#DejaVuSans-67"/>
      <use x="99.316406" xlink:href="#DejaVuSans-68"/>
      <use x="176.318359" xlink:href="#DejaVuSans-70"/>
     </g>
    </g>
   </g>
   <g id="line2d_39">
    <path clip-path="url(#p20b6bb9907)" d="M -1 20.583636 
L 205.50173 20.683004 
L 206.704285 20.69723 
L 211.85226 20.797029 
L 212.744737 20.811317 
L 216.304136 20.911551 
L 217.340942 20.983381 
L 219.271129 21.084275 
L 219.83067 21.09872 
L 220.708953 21.200059 
L 221.741299 21.316356 
L 223.548672 21.41854 
L 223.892013 21.477109 
L 225.211294 21.579921 
L 225.528425 21.638852 
L 226.601739 21.7423 
L 226.996463 21.757112 
L 228.275853 21.846158 
L 228.504367 21.965357 
L 228.99842 22.02516 
L 229.567542 22.130144 
L 229.994958 22.175266 
L 230.413757 22.280852 
L 231.026535 22.386865 
L 232.276337 22.493308 
L 232.947652 22.646121 
L 233.166688 22.722862 
L 233.311439 22.769014 
L 234.055262 22.87702 
L 234.468642 22.954439 
L 235.007322 23.047645 
L 235.172834 23.109966 
L 235.981173 23.219386 
L 236.667387 23.439602 
L 237.092554 23.550406 
L 237.450181 23.613933 
L 237.830786 23.709513 
L 238.004126 23.757433 
L 238.318205 23.853537 
L 238.54368 23.966105 
L 239.205782 24.062977 
L 239.394985 24.127758 
L 239.873739 24.290411 
L 240.109041 24.388489 
L 240.367399 24.421263 
L 241.09896 24.519831 
L 241.369846 24.569255 
L 241.925078 24.668381 
L 242.302755 24.801134 
L 242.833911 24.901141 
L 242.992908 24.951287 
L 243.329571 25.051869 
L 243.55102 25.085482 
L 243.900499 25.169702 
L 244.051567 25.220365 
L 244.519321 25.321984 
L 245.181423 25.715206 
L 245.604733 25.784197 
L 245.74394 25.888025 
L 245.842806 25.992265 
L 246.194877 26.166923 
L 246.40713 26.254689 
L 246.579193 26.34275 
L 246.919101 26.448814 
L 247.124117 26.502007 
L 247.400463 26.590902 
L 247.546358 26.644384 
L 247.977993 26.751675 
L 248.295933 26.931473 
L 248.557215 27.021836 
L 248.729595 27.130683 
L 249.137563 27.404791 
L 249.554177 27.515241 
L 249.783882 27.607638 
L 249.962599 27.68179 
L 250.139792 27.830726 
L 250.219837 27.924241 
L 250.379008 28.036901 
L 250.709348 28.131154 
L 250.895782 28.187869 
L 251.095881 28.282667 
L 251.218068 28.320682 
L 251.53543 28.396878 
L 251.684867 28.492434 
L 251.936469 28.58834 
L 252.097661 28.70389 
L 252.41634 28.956007 
L 252.659286 29.053623 
L 252.913464 29.230252 
L 253.081204 29.328894 
L 253.31654 29.487496 
L 253.590036 29.587111 
L 253.725445 29.667076 
L 254.073432 29.767376 
L 254.284716 29.888243 
L 254.493873 29.989393 
L 254.726684 30.152046 
L 254.982339 30.254218 
L 255.134235 30.295199 
L 255.447161 30.39793 
L 255.595708 30.439136 
L 255.7432 30.521741 
L 255.865315 30.583866 
L 255.962492 30.687735 
L 256.203466 30.896713 
L 256.465347 31.001829 
L 256.618558 31.065102 
L 256.74732 31.170895 
L 256.886884 31.298412 
L 257.10596 31.383768 
L 257.231746 31.447968 
L 257.559756 31.555318 
L 257.682832 31.641515 
L 257.948855 31.74966 
L 258.124329 31.858252 
L 258.309161 31.967296 
L 258.46015 32.142712 
L 258.620715 32.252944 
L 258.822332 32.430285 
L 258.96965 32.497097 
L 259.095096 32.56408 
L 259.292182 32.653657 
L 259.436216 32.811156 
L 259.589438 32.901581 
L 259.741537 32.969605 
L 260.240641 33.060578 
L 260.397854 33.151867 
L 260.756916 33.243475 
L 260.900731 33.404561 
L 261.166552 33.497055 
L 261.345012 33.659709 
L 261.586762 33.753108 
L 261.752494 33.870326 
L 261.907814 33.964478 
L 262.02581 34.035314 
L 262.331281 34.130061 
L 262.464633 34.177562 
L 262.746287 34.272824 
L 262.859627 34.320585 
L 263.44261 34.416368 
L 263.611007 34.560701 
L 263.761406 34.657365 
L 263.885912 34.681586 
L 264.22247 34.754386 
L 264.34425 34.851767 
L 264.585691 34.94951 
L 264.729219 35.047618 
L 265.146162 35.146094 
L 265.285882 35.220194 
L 265.699491 35.319321 
L 265.850613 35.443757 
L 266.216282 35.543732 
L 266.341658 35.593863 
L 266.749387 35.669238 
L 266.878761 35.795347 
L 267.113874 35.896672 
L 267.262118 36.023881 
L 267.513814 36.126093 
L 267.638528 36.177348 
L 267.776226 36.28016 
L 267.906199 36.357534 
L 268.271217 36.461055 
L 268.398139 36.512969 
L 268.787393 36.617106 
L 268.924199 36.721657 
L 269.098779 36.826626 
L 269.246347 36.98487 
L 269.638994 37.090898 
L 269.789016 37.250747 
L 269.950326 37.357856 
L 270.073564 37.411575 
L 270.649162 37.519343 
L 270.780214 37.600461 
L 271.174308 37.709008 
L 271.296307 37.76345 
L 271.498059 37.872675 
L 271.623879 37.954892 
L 271.850709 38.064917 
L 271.980023 38.14774 
L 272.214104 38.258577 
L 272.346689 38.369884 
L 272.472961 38.425715 
L 272.587587 38.481665 
L 273.050514 38.565814 
L 273.177883 38.650233 
L 273.257094 38.734925 
L 273.377967 38.791538 
L 273.45642 38.876687 
L 273.576142 38.933607 
L 273.777585 39.019218 
L 273.915909 39.162527 
L 274.033019 39.248889 
L 274.149473 39.27774 
L 274.310416 39.364482 
L 274.430311 39.42247 
L 274.598986 39.509692 
L 274.727054 39.626441 
L 275.024459 39.714345 
L 275.15956 39.861507 
L 275.403401 39.950202 
L 275.521894 40.06893 
L 275.705403 40.158329 
L 275.831505 40.248033 
L 276.044597 40.308007 
L 276.164081 40.428367 
L 276.401005 40.519 
L 276.518462 40.579596 
L 276.80923 40.670753 
L 276.937655 40.79279 
L 277.32257 40.884692 
L 277.447871 41.007729 
L 277.62801 41.100387 
L 277.747241 41.162341 
L 277.857346 41.255547 
L 277.979471 41.349084 
L 278.155078 41.442956 
L 278.279609 41.537165 
L 278.391052 41.631712 
L 278.522363 41.790052 
L 278.77444 41.885516 
L 278.89934 42.013343 
L 279.007516 42.109623 
L 279.131027 42.206258 
L 279.289318 42.303249 
L 279.40725 42.368109 
L 279.508919 42.465701 
L 279.63337 42.59639 
L 279.726222 42.66198 
L 279.841706 42.793651 
L 280.173024 42.89284 
L 280.297327 43.025677 
L 280.432087 43.125747 
L 280.554854 43.2262 
L 280.798232 43.327039 
L 280.915214 43.394481 
L 281.125581 43.495969 
L 281.251503 43.631899 
L 281.486899 43.73431 
L 281.614181 43.905888 
L 281.949836 44.009375 
L 282.067425 44.078593 
L 282.184352 44.182765 
L 282.300624 44.252442 
L 282.480584 44.357306 
L 282.605299 44.49778 
L 282.849183 44.60363 
L 282.961803 44.639008 
L 283.126319 44.74543 
L 283.24071 44.781 
L 283.38039 44.888 
L 283.503052 45.031348 
L 283.586562 45.139375 
L 283.708016 45.284105 
L 283.942512 45.393178 
L 284.074436 45.649458 
L 284.193078 45.760062 
L 284.304854 45.797034 
L 284.440658 45.871134 
L 284.560291 45.982677 
L 284.664028 46.057304 
L 284.785411 46.207195 
L 284.900072 46.282463 
L 285.020088 46.395771 
L 285.091766 46.471582 
L 285.237345 46.9311 
L 285.272842 47.008474 
L 285.387791 47.086076 
L 285.449423 47.163909 
L 285.575056 47.359505 
L 285.633232 47.438153 
L 285.751985 47.556569 
L 286.05305 47.63581 
L 286.180754 47.874978 
L 286.197722 47.955187 
L 286.316112 48.075962 
L 286.509156 48.156788 
L 286.625789 48.237863 
L 286.791279 48.31919 
L 286.909075 48.441654 
L 286.963637 48.523615 
L 287.085879 48.688308 
L 287.2773 48.771043 
L 287.38971 48.85404 
L 287.668101 48.937299 
L 287.791516 49.146611 
L 287.940212 49.230805 
L 288.056856 49.357604 
L 288.428315 49.442478 
L 288.547307 49.613052 
L 288.683186 49.698757 
L 288.800731 49.827841 
L 288.850549 49.91425 
L 288.969627 50.087926 
L 289.014106 50.175197 
L 289.127344 50.218941 
L 289.274124 50.306649 
L 289.388381 50.394651 
L 289.460984 50.482948 
L 289.58383 50.704999 
L 289.777456 50.794348 
L 289.893718 50.928943 
L 290.121968 51.019058 
L 290.233995 51.064231 
L 290.373185 51.154812 
L 290.497663 51.428444 
L 290.637386 51.520292 
L 290.748946 51.566337 
L 290.839573 51.658669 
L 290.954552 51.890929 
L 290.992737 51.984411 
L 291.104642 52.031277 
L 291.253655 52.125261 
L 291.368575 52.219582 
L 291.489437 52.314243 
L 291.603063 52.409247 
L 291.867232 52.504595 
L 291.985235 52.696337 
L 292.094061 52.792735 
L 292.217134 53.08407 
L 292.322649 53.181904 
L 292.436006 53.280104 
L 292.538335 53.329342 
L 292.652597 53.477612 
L 292.842332 53.576926 
L 292.959021 53.87714 
L 293.202561 53.977979 
L 293.31725 54.079206 
L 293.427317 54.180825 
L 293.546729 54.436605 
L 293.685181 54.539619 
L 293.801164 54.694901 
L 293.861846 54.746866 
L 293.974905 54.903382 
L 294.181879 55.008246 
L 294.297043 55.166331 
L 294.542504 55.272253 
L 294.655692 55.378603 
L 294.721434 55.485385 
L 294.837383 55.646377 
L 295.089479 55.754256 
L 295.205229 55.91691 
L 295.349471 56.025907 
L 295.461977 56.080577 
L 295.6296 56.190257 
L 295.749528 56.466479 
L 295.842132 56.522073 
L 295.957309 56.689567 
L 296.061304 56.745636 
L 296.180521 57.027792 
L 296.321642 57.084588 
L 296.435924 57.198552 
L 296.580471 57.255719 
L 296.701869 57.601362 
L 296.735937 57.659413 
L 296.856432 58.010445 
L 296.94761 58.069409 
L 297.063536 58.247099 
L 297.165485 58.306597 
L 297.280205 58.485905 
L 297.333194 58.545947 
L 297.445349 58.606127 
L 297.470007 58.666445 
L 297.587963 58.970129 
L 297.897668 59.03129 
L 298.024427 59.650858 
L 298.051604 59.713626 
L 298.163134 59.839614 
L 298.186956 59.902835 
L 298.304078 60.157253 
L 298.453475 60.221244 
L 298.56755 60.349697 
L 298.838492 60.414159 
L 298.953537 60.608501 
L 298.956596 60.673603 
L 299.06947 60.804292 
L 299.105946 60.869881 
L 299.222543 61.133888 
L 299.483637 61.200306 
L 299.599622 61.467672 
L 299.706113 61.534941 
L 299.822333 61.805752 
L 299.882395 61.873893 
L 300.000544 62.217276 
L 300.326687 62.286495 
L 300.440919 62.495252 
L 300.519091 62.565208 
L 300.630862 62.635351 
L 300.715352 62.705681 
L 300.830268 62.91781 
L 300.987593 62.988902 
L 301.102396 63.203339 
L 301.198727 63.275209 
L 301.312372 63.419542 
L 301.545917 63.492006 
L 301.661712 63.783881 
L 301.852837 63.857359 
L 301.965615 64.004935 
L 302.163154 64.079035 
L 302.279478 64.377544 
L 302.297717 64.452704 
L 302.413292 64.755514 
L 302.496007 64.831764 
L 302.607922 64.908237 
L 302.866734 64.984934 
L 302.977935 65.061855 
L 303.264549 65.139001 
L 303.379827 65.449874 
L 303.506758 65.528171 
L 303.61826 65.606701 
L 303.657327 65.606701 
L 303.770452 65.923192 
L 303.789852 66.002915 
L 303.902259 66.163089 
L 304.003268 66.243543 
L 304.115722 66.405196 
L 304.246549 66.486397 
L 304.358876 66.649555 
L 304.444781 66.731516 
L 304.559548 67.061941 
L 304.688778 67.145201 
L 304.801055 67.228726 
L 304.83681 67.312517 
L 304.951729 67.650379 
L 305.083106 67.735528 
L 305.195542 67.906659 
L 305.311878 67.992644 
L 305.424207 68.165463 
L 305.616002 68.252301 
L 305.730013 68.514551 
L 305.743256 68.514551 
L 305.855476 68.779445 
L 306.038998 68.86834 
L 306.150717 68.957537 
L 306.288721 69.047038 
L 306.401247 69.226959 
L 306.420476 69.317384 
L 306.535479 69.68223 
L 306.588505 69.774238 
L 306.700477 69.86657 
L 306.825465 69.959228 
L 306.939295 70.239179 
L 307.162008 70.333163 
L 307.275037 70.522145 
L 307.313941 70.617149 
L 307.426149 70.808193 
L 307.504336 70.904238 
L 307.615523 71.000636 
L 307.63366 71.09739 
L 307.746162 71.291972 
L 307.883949 71.389806 
L 307.995107 71.488006 
L 308.234255 71.586574 
L 308.346479 71.784827 
L 308.380514 71.884518 
L 308.495819 72.388726 
L 308.748403 72.49074 
L 308.860739 72.695963 
L 309.059169 72.799179 
L 309.171713 73.006836 
L 309.207225 73.111283 
L 309.319899 73.321432 
L 309.543432 73.42714 
L 309.65613 73.639841 
L 309.667092 73.746841 
L 309.783665 74.398159 
L 309.885131 74.508299 
L 309.999591 74.953538 
L 310.062411 74.953538 
L 310.177683 75.520913 
L 310.261278 75.520913 
L 310.373689 75.751339 
L 310.386926 75.751339 
L 310.498661 75.867315 
L 310.583599 75.867315 
L 310.695153 75.983805 
L 310.742036 75.983805 
L 310.855333 76.336407 
L 310.901856 76.336407 
L 311.015998 76.814028 
L 311.09203 76.814028 
L 311.204287 77.056135 
L 311.260188 77.056135 
L 311.373225 77.423532 
L 311.388362 77.423532 
L 311.499869 77.547149 
L 311.831666 77.547149 
L 311.94328 77.67135 
L 312.176059 77.67135 
L 312.289868 78.17411 
L 312.385437 78.17411 
L 312.497311 78.301319 
L 312.502092 78.301319 
L 312.614925 78.686682 
L 312.621264 78.686682 
L 312.732666 78.816403 
L 312.899829 78.816403 
L 313.012084 79.077783 
L 313.060229 79.077783 
L 313.171622 79.341789 
L 313.503021 79.341789 
L 313.614337 79.474794 
L 313.64377 79.474794 
L 313.755086 79.742842 
L 313.926158 79.742842 
L 314.038195 80.013653 
L 314.042634 80.013653 
L 314.154782 80.287285 
L 314.563533 80.287285 
L 314.675782 80.563798 
L 314.902025 80.563798 
L 315.01317 80.703154 
L 315.136361 80.703154 
L 315.248357 80.984102 
L 315.287413 80.984102 
L 315.399293 81.268088 
L 315.548452 81.268088 
L 315.660991 81.699908 
L 315.726586 81.699908 
L 315.838167 81.84544 
L 315.859869 81.84544 
L 315.972087 82.138945 
L 316.048802 82.138945 
L 316.160674 82.435767 
L 316.259317 82.435767 
L 316.372049 82.887385 
L 316.381305 82.887385 
L 316.492721 83.039666 
L 316.509152 83.039666 
L 316.620539 83.192835 
L 316.694249 83.192835 
L 316.805946 83.346903 
L 317.04997 83.346903 
L 317.162322 83.657776 
L 317.185228 83.657776 
L 317.298118 84.131094 
L 317.402847 84.131094 
L 317.514564 84.451445 
L 317.838143 84.451445 
L 317.949388 84.613097 
L 318.482513 84.613097 
L 318.593934 84.775751 
L 318.815 84.775751 
L 318.926996 85.104111 
L 319.185033 85.104111 
L 319.296205 85.269843 
L 319.525306 85.269843 
L 319.636938 85.436627 
L 319.658967 85.436627 
L 319.771007 85.773407 
L 319.821481 85.773407 
L 319.933208 86.11456 
L 319.980511 86.11456 
L 320.092494 86.460203 
L 320.234649 86.460203 
L 320.34582 86.634745 
L 320.450423 86.634745 
L 320.56315 87.165438 
L 320.645143 87.165438 
L 320.756287 87.344746 
L 320.975746 87.344746 
L 321.087774 87.707075 
L 321.247371 87.707075 
L 321.360549 88.44708 
L 321.580439 88.44708 
L 321.691821 88.635385 
L 321.765915 88.635385 
L 321.877325 88.82505 
L 321.996213 88.82505 
L 322.108404 89.402402 
L 322.374126 89.402402 
L 322.485778 89.794476 
L 322.490705 89.794476 
L 322.602714 90.19249 
L 322.620344 90.19249 
L 322.731658 90.393782 
L 322.844316 90.393782 
L 322.955884 90.596628 
L 323.333444 90.596628 
L 323.444775 90.801053 
L 323.565338 90.801053 
L 323.677763 91.424049 
L 324.003647 91.424049 
L 324.115097 91.635042 
L 324.128758 91.635042 
L 324.240899 92.278383 
L 324.375844 92.278383 
L 324.48711 92.49638 
L 324.504106 92.49638 
L 324.616023 92.937877 
L 324.628915 92.937877 
L 324.740605 93.386921 
L 325.014178 93.386921 
L 325.125991 93.843775 
L 325.20265 93.843775 
L 325.313885 94.075216 
L 325.325062 94.075216 
L 325.436501 94.308715 
L 325.754648 94.308715 
L 325.866324 94.782034 
L 325.91066 94.782034 
L 326.021918 95.02193 
L 326.351343 95.02193 
L 326.46312 95.508396 
L 326.810896 95.508396 
L 326.922224 95.75505 
L 327.209541 95.75505 
L 327.32071 96.004042 
L 327.451082 96.004042 
L 327.562898 96.50922 
L 327.888704 96.50922 
L 328.000085 96.7655 
L 328.015192 96.7655 
L 328.12665 97.024304 
L 328.878955 97.024304 
L 328.990568 97.549691 
L 329.144896 97.549691 
L 329.256515 98.358015 
L 329.611607 98.358015 
L 329.72284 98.633079 
L 329.957293 98.633079 
L 330.068747 98.911055 
L 330.503653 98.911055 
L 330.615219 99.47599 
L 331.043517 99.47599 
L 331.154825 99.763079 
L 331.481382 99.763079 
L 331.5926 100.053342 
L 331.789351 100.053342 
L 331.900502 100.346847 
L 331.913337 100.346847 
L 332.025074 100.943883 
L 332.094993 100.943883 
L 332.206685 101.554804 
L 332.370808 101.554804 
L 332.482553 102.498683 
L 332.608233 102.498683 
L 332.719915 103.147319 
L 332.76412 103.147319 
L 332.875269 103.477744 
L 332.87736 103.477744 
L 332.9885 103.812379 
L 333.184888 103.812379 
L 333.296742 104.842646 
L 333.738228 104.842646 
L 333.84943 105.195248 
L 333.858266 105.195248 
L 333.969396 105.552647 
L 334.072602 105.552647 
L 334.183716 105.914977 
L 334.24087 105.914977 
L 334.352203 106.282373 
L 334.353316 106.282373 
L 334.464604 106.654982 
L 334.500002 106.654982 
L 334.611607 107.416439 
L 334.612432 107.416439 
L 334.72371 107.805609 
L 334.731636 107.805609 
L 334.843094 108.601683 
L 335.043247 108.601683 
L 335.154657 109.422639 
L 335.267869 109.422639 
L 335.379408 110.270082 
L 335.48877 110.270082 
L 335.599919 110.704281 
L 335.832371 110.704281 
L 335.94402 112.051676 
L 335.950979 112.051676 
L 336.062251 112.516617 
L 336.460027 112.516617 
L 336.571363 112.989935 
L 337.162333 112.989935 
L 337.273605 113.471939 
L 337.362387 113.471939 
L 337.473552 113.962952 
L 337.709035 113.962952 
L 337.82025 114.463318 
L 337.917516 114.463318 
L 338.029022 115.493586 
L 338.155695 115.493586 
L 338.266855 116.02428 
L 338.376047 116.02428 
L 338.487405 117.118957 
L 338.79189 117.118957 
L 338.903282 118.261243 
L 339.126723 118.261243 
L 339.237878 118.85157 
L 339.462555 118.85157 
L 339.574097 120.073579 
L 341.281022 120.073579 
L 341.392162 120.706584 
L 342.863072 120.706584 
L 342.974352 121.355221 
L 345.565477 121.355221 
L 345.676608 122.02028 
L 346.189704 122.02028 
L 346.300842 122.702616 
L 346.716074 122.702616 
L 346.827338 123.40315 
L 347.606406 123.40315 
L 347.717548 124.122878 
L 347.846562 124.122878 
L 347.957731 124.862883 
L 348.089864 124.862883 
L 348.201027 125.624341 
L 348.206598 125.624341 
L 348.31785 126.408532 
L 348.392585 126.408532 
L 348.503834 127.216856 
L 349.026612 127.216856 
L 349.137939 128.912183 
L 349.97035 128.912183 
L 350.081574 129.802724 
L 351.160134 129.802724 
L 351.271345 130.724518 
L 351.335821 130.724518 
L 351.446953 131.67984 
L 351.892688 131.67984 
L 352.003862 132.67122 
L 352.337021 132.67122 
L 352.448178 133.701487 
L 353.086655 133.701487 
L 353.197813 134.773818 
L 353.623502 134.773818 
L 353.734678 135.891793 
L 353.863436 135.891793 
L 353.974637 137.059472 
L 354.368403 137.059472 
L 354.479581 138.28148 
L 354.566098 138.28148 
L 354.677271 139.563122 
L 355.778691 139.563122 
L 355.889892 140.910518 
L 356.172617 140.910518 
L 356.283864 143.832243 
L 357.509997 143.832243 
L 357.621225 147.120084 
L 357.872246 147.120084 
L 357.983429 148.93242 
L 358.554645 148.93242 
L 358.665784 150.879122 
L 361.645226 150.879122 
L 361.756366 152.981719 
L 361.761945 152.981719 
L 361.873129 155.267373 
L 364.292079 155.267373 
L 364.403252 157.771024 
L 365.104097 157.771024 
L 365.215239 160.538681 
L 365.89233 160.538681 
L 366.003468 163.632659 
L 366.07719 163.632659 
L 366.188308 167.140322 
L 367.215348 167.140322 
L 367.326473 171.189621 
L 367.717887 171.189621 
L 367.829028 175.978925 
L 369.419095 175.978925 
L 369.530219 181.840561 
L 371.608943 181.840561 
L 371.720075 189.397522 
L 375.629417 189.397522 
L 375.740548 200.048462 
L 380.655859 200.048462 
L 380.766998 218.256364 
L 390.204054 218.256364 
L 390.204054 218.256364 
" style="fill:none;stroke:#ff0000;stroke-linecap:square;stroke-width:4;"/>
   </g>
   <g id="patch_3">
    <path d="M 101.284375 228.14 
L 101.284375 10.7 
" style="fill:none;stroke:#000000;stroke-linecap:square;stroke-linejoin:miter;stroke-width:0.8;"/>
   </g>
   <g id="patch_4">
    <path d="M 436.084375 228.14 
L 436.084375 10.7 
" style="fill:none;stroke:#000000;stroke-linecap:square;stroke-linejoin:miter;stroke-width:0.8;"/>
   </g>
   <g id="patch_5">
    <path d="M 101.284375 228.14 
L 436.084375 228.14 
" style="fill:none;stroke:#000000;stroke-linecap:square;stroke-linejoin:miter;stroke-width:0.8;"/>
   </g>
   <g id="patch_6">
    <path d="M 101.284375 10.7 
L 436.084375 10.7 
" style="fill:none;stroke:#000000;stroke-linecap:square;stroke-linejoin:miter;stroke-width:0.8;"/>
   </g>
  </g>
 </g>
 <defs>
  <clipPath id="p20b6bb9907">
   <rect height="217.44" width="334.8" x="101.284375" y="10.7"/>
  </clipPath>
 </defs>
</svg>
