<?xml version="1.0" encoding="utf-8" standalone="no"?>
<!DOCTYPE svg PUBLIC "-//W3C//DTD SVG 1.1//EN"
  "http://www.w3.org/Graphics/SVG/1.1/DTD/svg11.dtd">
<!-- Created with matplotlib (https://matplotlib.org/) -->
<svg height="302.872266pt" version="1.1" viewBox="0 0 458.981875 302.872266" width="458.981875pt" xmlns="http://www.w3.org/2000/svg" xmlns:xlink="http://www.w3.org/1999/xlink">
 <defs>
  <style type="text/css">
*{stroke-linecap:butt;stroke-linejoin:round;}
  </style>
 </defs>
 <g id="figure_1">
  <g id="patch_1">
   <path d="M 0 302.872266 
L 458.981875 302.872266 
L 458.981875 0 
L 0 0 
z
" style="fill:#ffffff;"/>
  </g>
  <g id="axes_1">
   <g id="patch_2">
    <path d="M 87.714375 233.378203 
L 422.514375 233.378203 
L 422.514375 15.938203 
L 87.714375 15.938203 
z
" style="fill:#ffffff;"/>
   </g>
   <g id="matplotlib.axis_1">
    <g id="xtick_1">
     <g id="line2d_1">
      <defs>
       <path d="M 0 0 
L 0 3.5 
" id="m580853a77d" style="stroke:#000000;stroke-width:0.8;"/>
      </defs>
      <g>
       <use style="stroke:#000000;stroke-width:0.8;" x="102.850461" xlink:href="#m580853a77d" y="233.378203"/>
      </g>
     </g>
     <g id="text_1">
      <!-- 0 -->
      <defs>
       <path d="M 31.78125 66.40625 
Q 24.171875 66.40625 20.328125 58.90625 
Q 16.5 51.421875 16.5 36.375 
Q 16.5 21.390625 20.328125 13.890625 
Q 24.171875 6.390625 31.78125 6.390625 
Q 39.453125 6.390625 43.28125 13.890625 
Q 47.125 21.390625 47.125 36.375 
Q 47.125 51.421875 43.28125 58.90625 
Q 39.453125 66.40625 31.78125 66.40625 
z
M 31.78125 74.21875 
Q 44.046875 74.21875 50.515625 64.515625 
Q 56.984375 54.828125 56.984375 36.375 
Q 56.984375 17.96875 50.515625 8.265625 
Q 44.046875 -1.421875 31.78125 -1.421875 
Q 19.53125 -1.421875 13.0625 8.265625 
Q 6.59375 17.96875 6.59375 36.375 
Q 6.59375 54.828125 13.0625 64.515625 
Q 19.53125 74.21875 31.78125 74.21875 
z
" id="DejaVuSans-48"/>
      </defs>
      <g transform="translate(95.533586 257.854609)scale(0.23 -0.23)">
       <use xlink:href="#DejaVuSans-48"/>
      </g>
     </g>
    </g>
    <g id="xtick_2">
     <g id="line2d_2">
      <g>
       <use style="stroke:#000000;stroke-width:0.8;" x="182.76644" xlink:href="#m580853a77d" y="233.378203"/>
      </g>
     </g>
     <g id="text_2">
      <!-- 500 -->
      <defs>
       <path d="M 10.796875 72.90625 
L 49.515625 72.90625 
L 49.515625 64.59375 
L 19.828125 64.59375 
L 19.828125 46.734375 
Q 21.96875 47.46875 24.109375 47.828125 
Q 26.265625 48.1875 28.421875 48.1875 
Q 40.625 48.1875 47.75 41.5 
Q 54.890625 34.8125 54.890625 23.390625 
Q 54.890625 11.625 47.5625 5.09375 
Q 40.234375 -1.421875 26.90625 -1.421875 
Q 22.3125 -1.421875 17.546875 -0.640625 
Q 12.796875 0.140625 7.71875 1.703125 
L 7.71875 11.625 
Q 12.109375 9.234375 16.796875 8.0625 
Q 21.484375 6.890625 26.703125 6.890625 
Q 35.15625 6.890625 40.078125 11.328125 
Q 45.015625 15.765625 45.015625 23.390625 
Q 45.015625 31 40.078125 35.4375 
Q 35.15625 39.890625 26.703125 39.890625 
Q 22.75 39.890625 18.8125 39.015625 
Q 14.890625 38.140625 10.796875 36.28125 
z
" id="DejaVuSans-53"/>
      </defs>
      <g transform="translate(160.815815 257.854609)scale(0.23 -0.23)">
       <use xlink:href="#DejaVuSans-53"/>
       <use x="63.623047" xlink:href="#DejaVuSans-48"/>
       <use x="127.246094" xlink:href="#DejaVuSans-48"/>
      </g>
     </g>
    </g>
    <g id="xtick_3">
     <g id="line2d_3">
      <g>
       <use style="stroke:#000000;stroke-width:0.8;" x="262.682418" xlink:href="#m580853a77d" y="233.378203"/>
      </g>
     </g>
     <g id="text_3">
      <!-- 1000 -->
      <defs>
       <path d="M 12.40625 8.296875 
L 28.515625 8.296875 
L 28.515625 63.921875 
L 10.984375 60.40625 
L 10.984375 69.390625 
L 28.421875 72.90625 
L 38.28125 72.90625 
L 38.28125 8.296875 
L 54.390625 8.296875 
L 54.390625 0 
L 12.40625 0 
z
" id="DejaVuSans-49"/>
      </defs>
      <g transform="translate(233.414918 257.854609)scale(0.23 -0.23)">
       <use xlink:href="#DejaVuSans-49"/>
       <use x="63.623047" xlink:href="#DejaVuSans-48"/>
       <use x="127.246094" xlink:href="#DejaVuSans-48"/>
       <use x="190.869141" xlink:href="#DejaVuSans-48"/>
      </g>
     </g>
    </g>
    <g id="xtick_4">
     <g id="line2d_4">
      <g>
       <use style="stroke:#000000;stroke-width:0.8;" x="342.598397" xlink:href="#m580853a77d" y="233.378203"/>
      </g>
     </g>
     <g id="text_4">
      <!-- 1500 -->
      <g transform="translate(313.330897 257.854609)scale(0.23 -0.23)">
       <use xlink:href="#DejaVuSans-49"/>
       <use x="63.623047" xlink:href="#DejaVuSans-53"/>
       <use x="127.246094" xlink:href="#DejaVuSans-48"/>
       <use x="190.869141" xlink:href="#DejaVuSans-48"/>
      </g>
     </g>
    </g>
    <g id="xtick_5">
     <g id="line2d_5">
      <g>
       <use style="stroke:#000000;stroke-width:0.8;" x="422.514375" xlink:href="#m580853a77d" y="233.378203"/>
      </g>
     </g>
     <g id="text_5">
      <!-- 2000 -->
      <defs>
       <path d="M 19.1875 8.296875 
L 53.609375 8.296875 
L 53.609375 0 
L 7.328125 0 
L 7.328125 8.296875 
Q 12.9375 14.109375 22.625 23.890625 
Q 32.328125 33.6875 34.8125 36.53125 
Q 39.546875 41.84375 41.421875 45.53125 
Q 43.3125 49.21875 43.3125 52.78125 
Q 43.3125 58.59375 39.234375 62.25 
Q 35.15625 65.921875 28.609375 65.921875 
Q 23.96875 65.921875 18.8125 64.3125 
Q 13.671875 62.703125 7.8125 59.421875 
L 7.8125 69.390625 
Q 13.765625 71.78125 18.9375 73 
Q 24.125 74.21875 28.421875 74.21875 
Q 39.75 74.21875 46.484375 68.546875 
Q 53.21875 62.890625 53.21875 53.421875 
Q 53.21875 48.921875 51.53125 44.890625 
Q 49.859375 40.875 45.40625 35.40625 
Q 44.1875 33.984375 37.640625 27.21875 
Q 31.109375 20.453125 19.1875 8.296875 
z
" id="DejaVuSans-50"/>
      </defs>
      <g transform="translate(393.246875 257.854609)scale(0.23 -0.23)">
       <use xlink:href="#DejaVuSans-50"/>
       <use x="63.623047" xlink:href="#DejaVuSans-48"/>
       <use x="127.246094" xlink:href="#DejaVuSans-48"/>
       <use x="190.869141" xlink:href="#DejaVuSans-48"/>
      </g>
     </g>
    </g>
    <g id="text_6">
     <!-- rank -->
     <defs>
      <path d="M 41.109375 46.296875 
Q 39.59375 47.171875 37.8125 47.578125 
Q 36.03125 48 33.890625 48 
Q 26.265625 48 22.1875 43.046875 
Q 18.109375 38.09375 18.109375 28.8125 
L 18.109375 0 
L 9.078125 0 
L 9.078125 54.6875 
L 18.109375 54.6875 
L 18.109375 46.1875 
Q 20.953125 51.171875 25.484375 53.578125 
Q 30.03125 56 36.53125 56 
Q 37.453125 56 38.578125 55.875 
Q 39.703125 55.765625 41.0625 55.515625 
z
" id="DejaVuSans-114"/>
      <path d="M 34.28125 27.484375 
Q 23.390625 27.484375 19.1875 25 
Q 14.984375 22.515625 14.984375 16.5 
Q 14.984375 11.71875 18.140625 8.90625 
Q 21.296875 6.109375 26.703125 6.109375 
Q 34.1875 6.109375 38.703125 11.40625 
Q 43.21875 16.703125 43.21875 25.484375 
L 43.21875 27.484375 
z
M 52.203125 31.203125 
L 52.203125 0 
L 43.21875 0 
L 43.21875 8.296875 
Q 40.140625 3.328125 35.546875 0.953125 
Q 30.953125 -1.421875 24.3125 -1.421875 
Q 15.921875 -1.421875 10.953125 3.296875 
Q 6 8.015625 6 15.921875 
Q 6 25.140625 12.171875 29.828125 
Q 18.359375 34.515625 30.609375 34.515625 
L 43.21875 34.515625 
L 43.21875 35.40625 
Q 43.21875 41.609375 39.140625 45 
Q 35.0625 48.390625 27.6875 48.390625 
Q 23 48.390625 18.546875 47.265625 
Q 14.109375 46.140625 10.015625 43.890625 
L 10.015625 52.203125 
Q 14.9375 54.109375 19.578125 55.046875 
Q 24.21875 56 28.609375 56 
Q 40.484375 56 46.34375 49.84375 
Q 52.203125 43.703125 52.203125 31.203125 
z
" id="DejaVuSans-97"/>
      <path d="M 54.890625 33.015625 
L 54.890625 0 
L 45.90625 0 
L 45.90625 32.71875 
Q 45.90625 40.484375 42.875 44.328125 
Q 39.84375 48.1875 33.796875 48.1875 
Q 26.515625 48.1875 22.3125 43.546875 
Q 18.109375 38.921875 18.109375 30.90625 
L 18.109375 0 
L 9.078125 0 
L 9.078125 54.6875 
L 18.109375 54.6875 
L 18.109375 46.1875 
Q 21.34375 51.125 25.703125 53.5625 
Q 30.078125 56 35.796875 56 
Q 45.21875 56 50.046875 50.171875 
Q 54.890625 44.34375 54.890625 33.015625 
z
" id="DejaVuSans-110"/>
      <path d="M 9.078125 75.984375 
L 18.109375 75.984375 
L 18.109375 31.109375 
L 44.921875 54.6875 
L 56.390625 54.6875 
L 27.390625 29.109375 
L 57.625 0 
L 45.90625 0 
L 18.109375 26.703125 
L 18.109375 0 
L 9.078125 0 
z
" id="DejaVuSans-107"/>
     </defs>
     <g transform="translate(221.563594 289.433203)scale(0.3 -0.3)">
      <use xlink:href="#DejaVuSans-114"/>
      <use x="41.113281" xlink:href="#DejaVuSans-97"/>
      <use x="102.392578" xlink:href="#DejaVuSans-110"/>
      <use x="165.771484" xlink:href="#DejaVuSans-107"/>
     </g>
    </g>
   </g>
   <g id="matplotlib.axis_2">
    <g id="ytick_1">
     <g id="line2d_6">
      <defs>
       <path d="M 0 0 
L -3.5 0 
" id="m9adfbcf9ca" style="stroke:#000000;stroke-width:0.8;"/>
      </defs>
      <g>
       <use style="stroke:#000000;stroke-width:0.8;" x="87.714375" xlink:href="#m9adfbcf9ca" y="233.378203"/>
      </g>
     </g>
     <g id="text_7">
      <!-- $\mathdefault{10^{0}}$ -->
      <g transform="translate(40.234375 242.116406)scale(0.23 -0.23)">
       <use transform="translate(0 0.765625)" xlink:href="#DejaVuSans-49"/>
       <use transform="translate(63.623047 0.765625)" xlink:href="#DejaVuSans-48"/>
       <use transform="translate(128.203125 39.046875)scale(0.7)" xlink:href="#DejaVuSans-48"/>
      </g>
     </g>
    </g>
    <g id="ytick_2">
     <g id="line2d_7">
      <g>
       <use style="stroke:#000000;stroke-width:0.8;" x="87.714375" xlink:href="#m9adfbcf9ca" y="160.898203"/>
      </g>
     </g>
     <g id="text_8">
      <!-- $\mathdefault{10^{2}}$ -->
      <g transform="translate(40.234375 169.636406)scale(0.23 -0.23)">
       <use transform="translate(0 0.765625)" xlink:href="#DejaVuSans-49"/>
       <use transform="translate(63.623047 0.765625)" xlink:href="#DejaVuSans-48"/>
       <use transform="translate(128.203125 39.046875)scale(0.7)" xlink:href="#DejaVuSans-50"/>
      </g>
     </g>
    </g>
    <g id="ytick_3">
     <g id="line2d_8">
      <g>
       <use style="stroke:#000000;stroke-width:0.8;" x="87.714375" xlink:href="#m9adfbcf9ca" y="88.418203"/>
      </g>
     </g>
     <g id="text_9">
      <!-- $\mathdefault{10^{4}}$ -->
      <defs>
       <path d="M 37.796875 64.3125 
L 12.890625 25.390625 
L 37.796875 25.390625 
z
M 35.203125 72.90625 
L 47.609375 72.90625 
L 47.609375 25.390625 
L 58.015625 25.390625 
L 58.015625 17.1875 
L 47.609375 17.1875 
L 47.609375 0 
L 37.796875 0 
L 37.796875 17.1875 
L 4.890625 17.1875 
L 4.890625 26.703125 
z
" id="DejaVuSans-52"/>
      </defs>
      <g transform="translate(40.234375 97.156406)scale(0.23 -0.23)">
       <use transform="translate(0 0.684375)" xlink:href="#DejaVuSans-49"/>
       <use transform="translate(63.623047 0.684375)" xlink:href="#DejaVuSans-48"/>
       <use transform="translate(128.203125 38.965625)scale(0.7)" xlink:href="#DejaVuSans-52"/>
      </g>
     </g>
    </g>
    <g id="ytick_4">
     <g id="line2d_9">
      <g>
       <use style="stroke:#000000;stroke-width:0.8;" x="87.714375" xlink:href="#m9adfbcf9ca" y="15.938203"/>
      </g>
     </g>
     <g id="text_10">
      <!-- $\mathdefault{10^{6}}$ -->
      <defs>
       <path d="M 33.015625 40.375 
Q 26.375 40.375 22.484375 35.828125 
Q 18.609375 31.296875 18.609375 23.390625 
Q 18.609375 15.53125 22.484375 10.953125 
Q 26.375 6.390625 33.015625 6.390625 
Q 39.65625 6.390625 43.53125 10.953125 
Q 47.40625 15.53125 47.40625 23.390625 
Q 47.40625 31.296875 43.53125 35.828125 
Q 39.65625 40.375 33.015625 40.375 
z
M 52.59375 71.296875 
L 52.59375 62.3125 
Q 48.875 64.0625 45.09375 64.984375 
Q 41.3125 65.921875 37.59375 65.921875 
Q 27.828125 65.921875 22.671875 59.328125 
Q 17.53125 52.734375 16.796875 39.40625 
Q 19.671875 43.65625 24.015625 45.921875 
Q 28.375 48.1875 33.59375 48.1875 
Q 44.578125 48.1875 50.953125 41.515625 
Q 57.328125 34.859375 57.328125 23.390625 
Q 57.328125 12.15625 50.6875 5.359375 
Q 44.046875 -1.421875 33.015625 -1.421875 
Q 20.359375 -1.421875 13.671875 8.265625 
Q 6.984375 17.96875 6.984375 36.375 
Q 6.984375 53.65625 15.1875 63.9375 
Q 23.390625 74.21875 37.203125 74.21875 
Q 40.921875 74.21875 44.703125 73.484375 
Q 48.484375 72.75 52.59375 71.296875 
z
" id="DejaVuSans-54"/>
      </defs>
      <g transform="translate(40.234375 24.676406)scale(0.23 -0.23)">
       <use transform="translate(0 0.765625)" xlink:href="#DejaVuSans-49"/>
       <use transform="translate(63.623047 0.765625)" xlink:href="#DejaVuSans-48"/>
       <use transform="translate(128.203125 39.046875)scale(0.7)" xlink:href="#DejaVuSans-54"/>
      </g>
     </g>
    </g>
    <g id="text_11">
     <!-- #users -->
     <defs>
      <path d="M 51.125 44 
L 36.921875 44 
L 32.8125 27.6875 
L 47.125 27.6875 
z
M 43.796875 71.78125 
L 38.71875 51.515625 
L 52.984375 51.515625 
L 58.109375 71.78125 
L 65.921875 71.78125 
L 60.890625 51.515625 
L 76.125 51.515625 
L 76.125 44 
L 58.984375 44 
L 54.984375 27.6875 
L 70.515625 27.6875 
L 70.515625 20.21875 
L 53.078125 20.21875 
L 48 0 
L 40.1875 0 
L 45.21875 20.21875 
L 30.90625 20.21875 
L 25.875 0 
L 18.015625 0 
L 23.09375 20.21875 
L 7.71875 20.21875 
L 7.71875 27.6875 
L 24.90625 27.6875 
L 29 44 
L 13.28125 44 
L 13.28125 51.515625 
L 30.90625 51.515625 
L 35.890625 71.78125 
z
" id="DejaVuSans-35"/>
      <path d="M 8.5 21.578125 
L 8.5 54.6875 
L 17.484375 54.6875 
L 17.484375 21.921875 
Q 17.484375 14.15625 20.5 10.265625 
Q 23.53125 6.390625 29.59375 6.390625 
Q 36.859375 6.390625 41.078125 11.03125 
Q 45.3125 15.671875 45.3125 23.6875 
L 45.3125 54.6875 
L 54.296875 54.6875 
L 54.296875 0 
L 45.3125 0 
L 45.3125 8.40625 
Q 42.046875 3.421875 37.71875 1 
Q 33.40625 -1.421875 27.6875 -1.421875 
Q 18.265625 -1.421875 13.375 4.4375 
Q 8.5 10.296875 8.5 21.578125 
z
M 31.109375 56 
z
" id="DejaVuSans-117"/>
      <path d="M 44.28125 53.078125 
L 44.28125 44.578125 
Q 40.484375 46.53125 36.375 47.5 
Q 32.28125 48.484375 27.875 48.484375 
Q 21.1875 48.484375 17.84375 46.4375 
Q 14.5 44.390625 14.5 40.28125 
Q 14.5 37.15625 16.890625 35.375 
Q 19.28125 33.59375 26.515625 31.984375 
L 29.59375 31.296875 
Q 39.15625 29.25 43.1875 25.515625 
Q 47.21875 21.78125 47.21875 15.09375 
Q 47.21875 7.46875 41.1875 3.015625 
Q 35.15625 -1.421875 24.609375 -1.421875 
Q 20.21875 -1.421875 15.453125 -0.5625 
Q 10.6875 0.296875 5.421875 2 
L 5.421875 11.28125 
Q 10.40625 8.6875 15.234375 7.390625 
Q 20.0625 6.109375 24.8125 6.109375 
Q 31.15625 6.109375 34.5625 8.28125 
Q 37.984375 10.453125 37.984375 14.40625 
Q 37.984375 18.0625 35.515625 20.015625 
Q 33.0625 21.96875 24.703125 23.78125 
L 21.578125 24.515625 
Q 13.234375 26.265625 9.515625 29.90625 
Q 5.8125 33.546875 5.8125 39.890625 
Q 5.8125 47.609375 11.28125 51.796875 
Q 16.75 56 26.8125 56 
Q 31.78125 56 36.171875 55.265625 
Q 40.578125 54.546875 44.28125 53.078125 
z
" id="DejaVuSans-115"/>
      <path d="M 56.203125 29.59375 
L 56.203125 25.203125 
L 14.890625 25.203125 
Q 15.484375 15.921875 20.484375 11.0625 
Q 25.484375 6.203125 34.421875 6.203125 
Q 39.59375 6.203125 44.453125 7.46875 
Q 49.3125 8.734375 54.109375 11.28125 
L 54.109375 2.78125 
Q 49.265625 0.734375 44.1875 -0.34375 
Q 39.109375 -1.421875 33.890625 -1.421875 
Q 20.796875 -1.421875 13.15625 6.1875 
Q 5.515625 13.8125 5.515625 26.8125 
Q 5.515625 40.234375 12.765625 48.109375 
Q 20.015625 56 32.328125 56 
Q 43.359375 56 49.78125 48.890625 
Q 56.203125 41.796875 56.203125 29.59375 
z
M 47.21875 32.234375 
Q 47.125 39.59375 43.09375 43.984375 
Q 39.0625 48.390625 32.421875 48.390625 
Q 24.90625 48.390625 20.390625 44.140625 
Q 15.875 39.890625 15.1875 32.171875 
z
" id="DejaVuSans-101"/>
     </defs>
     <g transform="translate(29.995312 177.758203)rotate(-90)scale(0.3 -0.3)">
      <use xlink:href="#DejaVuSans-35"/>
      <use x="83.789062" xlink:href="#DejaVuSans-117"/>
      <use x="147.167969" xlink:href="#DejaVuSans-115"/>
      <use x="199.267578" xlink:href="#DejaVuSans-101"/>
      <use x="260.791016" xlink:href="#DejaVuSans-114"/>
      <use x="301.904297" xlink:href="#DejaVuSans-115"/>
     </g>
    </g>
   </g>
   <g id="line2d_10">
    <path clip-path="url(#pa8aa7bae7d)" d="M 102.850461 36.735235 
L 103.010293 44.966822 
L 103.329957 45.767933 
L 103.489789 51.031032 
L 103.809453 51.274042 
L 104.129117 53.96534 
L 104.448781 54.038681 
L 104.928277 56.019033 
L 105.088109 57.793874 
L 105.407773 58.248543 
L 105.567605 59.328906 
L 105.727437 59.474353 
L 105.887268 60.281874 
L 106.206932 60.468128 
L 106.366764 60.85339 
L 106.526596 60.944602 
L 106.686428 61.786739 
L 106.84626 63.715928 
L 107.165924 64.419716 
L 107.485588 66.543383 
L 107.965084 67.930279 
L 108.124916 67.961568 
L 108.284748 68.203682 
L 108.604412 69.153242 
L 109.723235 69.753675 
L 109.883067 69.881116 
L 110.042899 70.301078 
L 110.202731 70.317016 
L 110.362563 70.473762 
L 110.842059 71.543568 
L 111.001891 71.708187 
L 111.321555 72.217694 
L 111.960883 72.551825 
L 112.919875 74.157582 
L 113.559202 75.361279 
L 113.878866 75.441813 
L 114.19853 75.828134 
L 114.358362 75.864953 
L 114.518194 76.204607 
L 115.79685 76.655022 
L 116.276346 77.174078 
L 116.59601 77.539597 
L 116.915674 77.638467 
L 117.235337 78.028885 
L 117.395169 78.081027 
L 117.555001 78.395897 
L 118.034497 78.566663 
L 118.194329 78.769114 
L 118.354161 78.769114 
L 118.673825 79.140918 
L 118.993489 79.6213 
L 119.153321 80.322474 
L 119.472985 80.406445 
L 119.632817 80.779783 
L 120.272145 81.06325 
L 120.591809 81.515506 
L 120.911472 81.798192 
L 121.071304 81.82198 
L 121.390968 82.044002 
L 122.030296 82.474997 
L 122.190128 83.473793 
L 122.34996 83.478392 
L 122.669624 83.894359 
L 123.308952 84.072469 
L 124.108112 85.114044 
L 124.587607 85.665839 
L 125.067103 85.789209 
L 125.546599 86.322872 
L 126.185927 86.865281 
L 126.345759 86.981214 
L 126.505591 87.237559 
L 126.665423 87.23902 
L 127.144919 87.535306 
L 127.624415 87.674304 
L 127.784247 87.840311 
L 127.944079 88.169924 
L 128.263742 88.25848 
L 128.583406 88.584335 
L 129.542398 88.712099 
L 129.862062 88.784424 
L 130.341558 88.858702 
L 130.661222 89.006684 
L 130.821054 89.013221 
L 132.579205 90.185253 
L 133.058701 90.284173 
L 133.378365 90.373023 
L 133.698029 90.892958 
L 134.017693 91.139854 
L 134.337357 91.280808 
L 134.657021 91.384983 
L 136.575004 92.375173 
L 136.734836 92.440067 
L 137.0545 92.714755 
L 137.214332 92.72096 
L 138.013492 93.377852 
L 138.65282 93.499104 
L 141.849459 94.573952 
L 142.169123 94.733002 
L 142.648619 94.834414 
L 143.447778 95.12093 
L 143.767442 95.273465 
L 144.246938 95.632747 
L 144.886266 96.079609 
L 147.443577 96.813487 
L 147.763241 96.959043 
L 148.722233 97.284639 
L 149.041897 97.49056 
L 150.160721 97.76463 
L 150.640216 98.000099 
L 152.718032 98.333425 
L 153.996688 98.613684 
L 154.476183 98.701164 
L 155.914671 99.180276 
L 156.234335 99.2647 
L 156.553999 99.390612 
L 157.512991 99.607 
L 157.832654 99.680869 
L 158.31215 99.790705 
L 159.590806 99.97658 
L 160.230134 100.324835 
L 164.225933 101.339478 
L 164.385765 101.339478 
L 164.705429 101.486823 
L 165.504588 101.67936 
L 165.824252 101.970794 
L 168.701228 102.50475 
L 169.020891 102.64792 
L 170.139715 102.855296 
L 170.779043 102.98184 
L 171.897867 103.137454 
L 173.656018 103.779944 
L 173.975682 103.863706 
L 175.574002 104.315244 
L 176.053498 104.445425 
L 176.532993 104.607479 
L 178.930473 105.231637 
L 179.569801 105.360418 
L 181.008288 105.583668 
L 181.327952 105.73901 
L 181.647616 105.843429 
L 181.807448 106.025438 
L 182.606608 106.14634 
L 184.364759 106.619427 
L 185.323751 106.750041 
L 185.803247 106.927596 
L 186.602407 107.060803 
L 187.241735 107.273178 
L 188.999886 107.493746 
L 189.31955 107.594551 
L 190.758038 108.004355 
L 192.036693 108.158067 
L 196.511988 109.474954 
L 197.311148 109.613517 
L 198.110308 109.765525 
L 199.868459 110.074019 
L 200.667619 110.148966 
L 201.147115 110.274676 
L 202.745434 110.426866 
L 203.384762 110.541981 
L 203.704426 110.729235 
L 204.82325 110.879348 
L 205.142914 110.964831 
L 206.901065 111.070684 
L 208.179721 111.177252 
L 208.499385 111.298011 
L 208.978881 111.406136 
L 209.298545 111.494538 
L 209.618208 111.707367 
L 210.896864 112.014476 
L 211.216528 112.170307 
L 212.015688 112.277447 
L 212.495184 112.406986 
L 213.773839 112.63261 
L 214.093503 112.794715 
L 215.372159 113.010983 
L 215.691823 113.146729 
L 216.970478 113.352568 
L 217.290142 113.475829 
L 217.609806 113.561134 
L 218.089302 113.670378 
L 218.408966 113.756747 
L 219.687622 113.89911 
L 220.007286 114.066843 
L 220.32695 114.147349 
L 220.966277 114.236383 
L 222.244933 114.531341 
L 222.724429 114.647557 
L 223.523589 114.756245 
L 223.843253 115.009966 
L 225.441572 115.293867 
L 225.921068 115.627255 
L 227.519388 115.769769 
L 227.839052 116.076966 
L 228.478379 116.168471 
L 228.798043 116.297479 
L 230.716027 116.568121 
L 231.035691 116.662535 
L 231.515187 116.786127 
L 233.752834 117.201985 
L 233.912666 117.369473 
L 234.871658 117.43896 
L 235.670817 117.609003 
L 235.990481 117.709894 
L 238.867457 118.151246 
L 239.346952 118.403073 
L 240.78544 118.605333 
L 241.105104 118.712839 
L 243.822247 119.150361 
L 244.621407 119.250502 
L 248.777038 120.016728 
L 249.256534 120.110762 
L 249.73603 120.408291 
L 251.334349 120.69931 
L 251.654013 120.896356 
L 252.293341 120.970889 
L 253.252333 121.298007 
L 253.571997 121.438476 
L 253.891661 121.567273 
L 254.211324 121.697132 
L 261.243931 123.330772 
L 262.04309 123.461506 
L 262.362754 123.549269 
L 262.84225 123.637525 
L 263.321746 123.711451 
L 265.399561 124.010677 
L 265.879057 124.223573 
L 266.678217 124.315703 
L 266.838049 124.548415 
L 267.477377 124.721285 
L 267.797041 124.960118 
L 268.596201 125.056676 
L 268.915864 125.235251 
L 269.39536 125.267939 
L 269.874856 125.415876 
L 271.633008 125.665572 
L 272.272336 125.902251 
L 273.071495 125.970532 
L 274.669815 126.073513 
L 275.309143 126.211877 
L 276.108303 126.474635 
L 278.186118 126.759831 
L 278.34595 126.940739 
L 279.304942 127.050291 
L 282.022085 127.897175 
L 282.821245 127.994149 
L 284.259732 128.268898 
L 287.29654 128.915514 
L 290.493179 129.418529 
L 294.968473 130.521139 
L 295.447969 130.589817 
L 295.767633 130.681857 
L 302.00108 131.657668 
L 302.800239 131.905139 
L 304.398559 132.207334 
L 304.718223 132.309369 
L 305.357551 132.386332 
L 305.837047 132.43785 
L 306.636206 132.515445 
L 306.95587 132.698002 
L 307.75503 132.856182 
L 308.394358 133.069594 
L 308.873854 133.20446 
L 314.30814 134.182342 
L 314.467972 134.414653 
L 316.066292 134.620778 
L 317.025283 134.70995 
L 322.299738 135.725711 
L 322.619402 135.949869 
L 323.098898 136.079407 
L 323.578394 136.144578 
L 324.377553 136.374827 
L 326.934865 137.017317 
L 327.414361 137.121204 
L 327.734025 137.225782 
L 328.533184 137.295888 
L 329.652008 137.401636 
L 330.770832 137.651181 
L 331.090496 137.904747 
L 331.569992 138.014681 
L 332.049487 138.199628 
L 332.528983 138.462261 
L 333.168311 138.538111 
L 333.487975 138.690916 
L 333.967471 138.767879 
L 334.446967 138.884033 
L 335.405959 139.040251 
L 336.684614 139.118945 
L 340.041085 139.845482 
L 340.200917 139.845482 
L 340.520581 139.9699 
L 341.159909 140.053396 
L 342.118901 140.137336 
L 342.598397 140.179475 
L 342.91806 140.221727 
L 343.237724 140.349168 
L 344.356548 140.434705 
L 344.836044 140.650605 
L 346.1147 140.7378 
L 347.073691 140.913655 
L 347.713019 141.002325 
L 348.032683 141.136273 
L 348.512179 141.181177 
L 349.151507 141.453325 
L 351.389154 142.012159 
L 352.507978 142.107258 
L 352.66781 142.155024 
L 352.827642 142.34755 
L 353.307138 142.444704 
L 354.106297 142.591568 
L 354.585793 142.640829 
L 354.905457 142.939676 
L 356.823441 143.659879 
L 357.143105 143.871853 
L 357.782432 143.978921 
L 358.741424 144.195265 
L 359.061088 144.195265 
L 359.380752 144.469946 
L 359.700416 144.469946 
L 360.02008 144.581175 
L 360.499576 144.637086 
L 362.257727 145.149426 
L 362.737223 145.207396 
L 363.216719 145.26558 
L 363.536383 145.32398 
L 364.815039 145.679007 
L 366.093694 145.738964 
L 367.052686 146.042227 
L 367.37235 146.476857 
L 368.011678 146.666866 
L 368.810838 146.730715 
L 369.130501 146.794824 
L 369.609997 146.859196 
L 369.929661 146.923832 
L 370.089493 146.923832 
L 370.409157 147.053906 
L 370.888653 147.185063 
L 371.847645 147.251054 
L 372.486973 147.51782 
L 372.646804 147.720905 
L 373.1263 147.789186 
L 373.92546 148.065313 
L 374.245124 148.135109 
L 374.884452 148.417427 
L 375.044284 148.63254 
L 375.363948 148.63254 
L 376.003276 149.071792 
L 376.482771 149.146207 
L 376.802435 149.296102 
L 377.601595 149.371588 
L 378.081091 149.754547 
L 378.400755 149.832269 
L 380.158906 150.631367 
L 380.47857 150.631367 
L 380.638402 150.796173 
L 380.798234 150.796173 
L 381.117898 151.046663 
L 381.27773 151.046663 
L 381.437562 151.2159 
L 381.597394 151.2159 
L 381.917058 151.559932 
L 382.556386 151.647128 
L 383.195714 151.911652 
L 383.675209 151.911652 
L 383.835041 152.180698 
L 384.314537 152.271412 
L 384.634201 152.546734 
L 384.794033 152.732995 
L 385.273529 152.826958 
L 385.753025 153.016585 
L 386.392353 153.112262 
L 386.712017 153.208524 
L 386.871849 153.208524 
L 387.031681 153.402833 
L 387.191513 153.402833 
L 387.511176 153.69887 
L 388.150504 153.7988 
L 388.63 154.000582 
L 388.949664 154.102452 
L 389.42916 154.621933 
L 389.588992 154.621933 
L 389.908656 154.942056 
L 390.388152 155.159146 
L 390.547984 155.159146 
L 390.707816 155.379274 
L 390.867648 155.379274 
L 391.187311 155.490502 
L 391.347143 155.94345 
L 391.506975 155.94345 
L 392.945463 156.890432 
L 393.265127 156.890432 
L 393.424959 157.260775 
L 393.584791 157.260775 
L 394.064287 157.898061 
L 395.023278 158.562246 
L 395.18311 158.562246 
L 395.98227 159.114542 
L 396.301934 159.833335 
L 396.461766 159.833335 
L 396.78143 160.130303 
L 396.941262 160.432982 
L 397.260926 160.432982 
L 397.58059 160.898203 
L 397.900254 160.898203 
L 398.060086 161.056384 
L 398.37975 161.7055 
L 398.539581 161.7055 
L 398.699413 161.87205 
L 398.859245 161.87205 
L 399.019077 162.210532 
L 399.178909 162.210532 
L 399.338741 162.910151 
L 399.498573 163.090025 
L 399.658405 163.456061 
L 399.818237 163.456061 
L 399.978069 163.642322 
L 400.137901 164.021589 
L 400.297733 164.021589 
L 400.617397 164.410222 
L 400.937061 164.410222 
L 401.416557 165.851383 
L 401.576389 166.068473 
L 401.736221 166.51185 
L 401.896053 166.51185 
L 402.215716 166.96808 
L 402.375548 167.437931 
L 402.53538 168.421928 
L 402.855044 168.938002 
L 403.014876 168.938002 
L 403.174708 169.202526 
L 403.814036 172.125497 
L 403.973868 172.125497 
L 404.1337 173.465782 
L 404.453364 174.181306 
L 404.773028 176.126846 
L 405.092692 178.831568 
L 405.252524 182.099569 
L 405.412356 182.716857 
L 405.572188 216.087329 
L 405.572188 216.087329 
" style="fill:none;stroke:#0000ff;stroke-linecap:square;stroke-width:4;"/>
   </g>
   <g id="patch_3">
    <path d="M 87.714375 233.378203 
L 87.714375 15.938203 
" style="fill:none;stroke:#000000;stroke-linecap:square;stroke-linejoin:miter;stroke-width:0.8;"/>
   </g>
   <g id="patch_4">
    <path d="M 422.514375 233.378203 
L 422.514375 15.938203 
" style="fill:none;stroke:#000000;stroke-linecap:square;stroke-linejoin:miter;stroke-width:0.8;"/>
   </g>
   <g id="patch_5">
    <path d="M 87.714375 233.378203 
L 422.514375 233.378203 
" style="fill:none;stroke:#000000;stroke-linecap:square;stroke-linejoin:miter;stroke-width:0.8;"/>
   </g>
   <g id="patch_6">
    <path d="M 87.714375 15.938203 
L 422.514375 15.938203 
" style="fill:none;stroke:#000000;stroke-linecap:square;stroke-linejoin:miter;stroke-width:0.8;"/>
   </g>
  </g>
 </g>
 <defs>
  <clipPath id="pa8aa7bae7d">
   <rect height="217.44" width="334.8" x="87.714375" y="15.938203"/>
  </clipPath>
 </defs>
</svg>
