<?xml version="1.0" encoding="utf-8" standalone="no"?>
<!DOCTYPE svg PUBLIC "-//W3C//DTD SVG 1.1//EN"
  "http://www.w3.org/Graphics/SVG/1.1/DTD/svg11.dtd">
<!-- Created with matplotlib (https://matplotlib.org/) -->
<svg height="297.634062pt" version="1.1" viewBox="0 0 443.945312 297.634062" width="443.945312pt" xmlns="http://www.w3.org/2000/svg" xmlns:xlink="http://www.w3.org/1999/xlink">
 <defs>
  <style type="text/css">
*{stroke-linecap:butt;stroke-linejoin:round;}
  </style>
 </defs>
 <g id="figure_1">
  <g id="patch_1">
   <path d="M 0 297.634062 
L 443.945312 297.634062 
L 443.945312 0 
L 0 0 
z
" style="fill:#ffffff;"/>
  </g>
  <g id="axes_1">
   <g id="patch_2">
    <path d="M 98.445312 228.14 
L 433.245313 228.14 
L 433.245313 10.7 
L 98.445312 10.7 
z
" style="fill:#ffffff;"/>
   </g>
   <g id="matplotlib.axis_1">
    <g id="xtick_1">
     <g id="line2d_1">
      <defs>
       <path d="M 0 0 
L 0 3.5 
" id="mcf35c352ed" style="stroke:#000000;stroke-width:0.8;"/>
      </defs>
      <g>
       <use style="stroke:#000000;stroke-width:0.8;" x="98.445312" xlink:href="#mcf35c352ed" y="228.14"/>
      </g>
     </g>
     <g id="text_1">
      <!-- $\mathdefault{10^{0}}$ -->
      <defs>
       <path d="M 12.40625 8.296875 
L 28.515625 8.296875 
L 28.515625 63.921875 
L 10.984375 60.40625 
L 10.984375 69.390625 
L 28.421875 72.90625 
L 38.28125 72.90625 
L 38.28125 8.296875 
L 54.390625 8.296875 
L 54.390625 0 
L 12.40625 0 
z
" id="DejaVuSans-49"/>
       <path d="M 31.78125 66.40625 
Q 24.171875 66.40625 20.328125 58.90625 
Q 16.5 51.421875 16.5 36.375 
Q 16.5 21.390625 20.328125 13.890625 
Q 24.171875 6.390625 31.78125 6.390625 
Q 39.453125 6.390625 43.28125 13.890625 
Q 47.125 21.390625 47.125 36.375 
Q 47.125 51.421875 43.28125 58.90625 
Q 39.453125 66.40625 31.78125 66.40625 
z
M 31.78125 74.21875 
Q 44.046875 74.21875 50.515625 64.515625 
Q 56.984375 54.828125 56.984375 36.375 
Q 56.984375 17.96875 50.515625 8.265625 
Q 44.046875 -1.421875 31.78125 -1.421875 
Q 19.53125 -1.421875 13.0625 8.265625 
Q 6.59375 17.96875 6.59375 36.375 
Q 6.59375 54.828125 13.0625 64.515625 
Q 19.53125 74.21875 31.78125 74.21875 
z
" id="DejaVuSans-48"/>
      </defs>
      <g transform="translate(78.205312 252.616406)scale(0.23 -0.23)">
       <use transform="translate(0 0.765625)" xlink:href="#DejaVuSans-49"/>
       <use transform="translate(63.623047 0.765625)" xlink:href="#DejaVuSans-48"/>
       <use transform="translate(128.203125 39.046875)scale(0.7)" xlink:href="#DejaVuSans-48"/>
      </g>
     </g>
    </g>
    <g id="xtick_2">
     <g id="line2d_2">
      <g>
       <use style="stroke:#000000;stroke-width:0.8;" x="194.102455" xlink:href="#mcf35c352ed" y="228.14"/>
      </g>
     </g>
     <g id="text_2">
      <!-- $\mathdefault{10^{2}}$ -->
      <defs>
       <path d="M 19.1875 8.296875 
L 53.609375 8.296875 
L 53.609375 0 
L 7.328125 0 
L 7.328125 8.296875 
Q 12.9375 14.109375 22.625 23.890625 
Q 32.328125 33.6875 34.8125 36.53125 
Q 39.546875 41.84375 41.421875 45.53125 
Q 43.3125 49.21875 43.3125 52.78125 
Q 43.3125 58.59375 39.234375 62.25 
Q 35.15625 65.921875 28.609375 65.921875 
Q 23.96875 65.921875 18.8125 64.3125 
Q 13.671875 62.703125 7.8125 59.421875 
L 7.8125 69.390625 
Q 13.765625 71.78125 18.9375 73 
Q 24.125 74.21875 28.421875 74.21875 
Q 39.75 74.21875 46.484375 68.546875 
Q 53.21875 62.890625 53.21875 53.421875 
Q 53.21875 48.921875 51.53125 44.890625 
Q 49.859375 40.875 45.40625 35.40625 
Q 44.1875 33.984375 37.640625 27.21875 
Q 31.109375 20.453125 19.1875 8.296875 
z
" id="DejaVuSans-50"/>
      </defs>
      <g transform="translate(173.862455 252.616406)scale(0.23 -0.23)">
       <use transform="translate(0 0.765625)" xlink:href="#DejaVuSans-49"/>
       <use transform="translate(63.623047 0.765625)" xlink:href="#DejaVuSans-48"/>
       <use transform="translate(128.203125 39.046875)scale(0.7)" xlink:href="#DejaVuSans-50"/>
      </g>
     </g>
    </g>
    <g id="xtick_3">
     <g id="line2d_3">
      <g>
       <use style="stroke:#000000;stroke-width:0.8;" x="289.759598" xlink:href="#mcf35c352ed" y="228.14"/>
      </g>
     </g>
     <g id="text_3">
      <!-- $\mathdefault{10^{4}}$ -->
      <defs>
       <path d="M 37.796875 64.3125 
L 12.890625 25.390625 
L 37.796875 25.390625 
z
M 35.203125 72.90625 
L 47.609375 72.90625 
L 47.609375 25.390625 
L 58.015625 25.390625 
L 58.015625 17.1875 
L 47.609375 17.1875 
L 47.609375 0 
L 37.796875 0 
L 37.796875 17.1875 
L 4.890625 17.1875 
L 4.890625 26.703125 
z
" id="DejaVuSans-52"/>
      </defs>
      <g transform="translate(269.519598 252.616406)scale(0.23 -0.23)">
       <use transform="translate(0 0.684375)" xlink:href="#DejaVuSans-49"/>
       <use transform="translate(63.623047 0.684375)" xlink:href="#DejaVuSans-48"/>
       <use transform="translate(128.203125 38.965625)scale(0.7)" xlink:href="#DejaVuSans-52"/>
      </g>
     </g>
    </g>
    <g id="xtick_4">
     <g id="line2d_4">
      <g>
       <use style="stroke:#000000;stroke-width:0.8;" x="385.416741" xlink:href="#mcf35c352ed" y="228.14"/>
      </g>
     </g>
     <g id="text_4">
      <!-- $\mathdefault{10^{6}}$ -->
      <defs>
       <path d="M 33.015625 40.375 
Q 26.375 40.375 22.484375 35.828125 
Q 18.609375 31.296875 18.609375 23.390625 
Q 18.609375 15.53125 22.484375 10.953125 
Q 26.375 6.390625 33.015625 6.390625 
Q 39.65625 6.390625 43.53125 10.953125 
Q 47.40625 15.53125 47.40625 23.390625 
Q 47.40625 31.296875 43.53125 35.828125 
Q 39.65625 40.375 33.015625 40.375 
z
M 52.59375 71.296875 
L 52.59375 62.3125 
Q 48.875 64.0625 45.09375 64.984375 
Q 41.3125 65.921875 37.59375 65.921875 
Q 27.828125 65.921875 22.671875 59.328125 
Q 17.53125 52.734375 16.796875 39.40625 
Q 19.671875 43.65625 24.015625 45.921875 
Q 28.375 48.1875 33.59375 48.1875 
Q 44.578125 48.1875 50.953125 41.515625 
Q 57.328125 34.859375 57.328125 23.390625 
Q 57.328125 12.15625 50.6875 5.359375 
Q 44.046875 -1.421875 33.015625 -1.421875 
Q 20.359375 -1.421875 13.671875 8.265625 
Q 6.984375 17.96875 6.984375 36.375 
Q 6.984375 53.65625 15.1875 63.9375 
Q 23.390625 74.21875 37.203125 74.21875 
Q 40.921875 74.21875 44.703125 73.484375 
Q 48.484375 72.75 52.59375 71.296875 
z
" id="DejaVuSans-54"/>
      </defs>
      <g transform="translate(365.176741 252.616406)scale(0.23 -0.23)">
       <use transform="translate(0 0.765625)" xlink:href="#DejaVuSans-49"/>
       <use transform="translate(63.623047 0.765625)" xlink:href="#DejaVuSans-48"/>
       <use transform="translate(128.203125 39.046875)scale(0.7)" xlink:href="#DejaVuSans-54"/>
      </g>
     </g>
    </g>
    <g id="text_5">
     <!-- #updates -->
     <defs>
      <path d="M 51.125 44 
L 36.921875 44 
L 32.8125 27.6875 
L 47.125 27.6875 
z
M 43.796875 71.78125 
L 38.71875 51.515625 
L 52.984375 51.515625 
L 58.109375 71.78125 
L 65.921875 71.78125 
L 60.890625 51.515625 
L 76.125 51.515625 
L 76.125 44 
L 58.984375 44 
L 54.984375 27.6875 
L 70.515625 27.6875 
L 70.515625 20.21875 
L 53.078125 20.21875 
L 48 0 
L 40.1875 0 
L 45.21875 20.21875 
L 30.90625 20.21875 
L 25.875 0 
L 18.015625 0 
L 23.09375 20.21875 
L 7.71875 20.21875 
L 7.71875 27.6875 
L 24.90625 27.6875 
L 29 44 
L 13.28125 44 
L 13.28125 51.515625 
L 30.90625 51.515625 
L 35.890625 71.78125 
z
" id="DejaVuSans-35"/>
      <path d="M 8.5 21.578125 
L 8.5 54.6875 
L 17.484375 54.6875 
L 17.484375 21.921875 
Q 17.484375 14.15625 20.5 10.265625 
Q 23.53125 6.390625 29.59375 6.390625 
Q 36.859375 6.390625 41.078125 11.03125 
Q 45.3125 15.671875 45.3125 23.6875 
L 45.3125 54.6875 
L 54.296875 54.6875 
L 54.296875 0 
L 45.3125 0 
L 45.3125 8.40625 
Q 42.046875 3.421875 37.71875 1 
Q 33.40625 -1.421875 27.6875 -1.421875 
Q 18.265625 -1.421875 13.375 4.4375 
Q 8.5 10.296875 8.5 21.578125 
z
M 31.109375 56 
z
" id="DejaVuSans-117"/>
      <path d="M 18.109375 8.203125 
L 18.109375 -20.796875 
L 9.078125 -20.796875 
L 9.078125 54.6875 
L 18.109375 54.6875 
L 18.109375 46.390625 
Q 20.953125 51.265625 25.265625 53.625 
Q 29.59375 56 35.59375 56 
Q 45.5625 56 51.78125 48.09375 
Q 58.015625 40.1875 58.015625 27.296875 
Q 58.015625 14.40625 51.78125 6.484375 
Q 45.5625 -1.421875 35.59375 -1.421875 
Q 29.59375 -1.421875 25.265625 0.953125 
Q 20.953125 3.328125 18.109375 8.203125 
z
M 48.6875 27.296875 
Q 48.6875 37.203125 44.609375 42.84375 
Q 40.53125 48.484375 33.40625 48.484375 
Q 26.265625 48.484375 22.1875 42.84375 
Q 18.109375 37.203125 18.109375 27.296875 
Q 18.109375 17.390625 22.1875 11.75 
Q 26.265625 6.109375 33.40625 6.109375 
Q 40.53125 6.109375 44.609375 11.75 
Q 48.6875 17.390625 48.6875 27.296875 
z
" id="DejaVuSans-112"/>
      <path d="M 45.40625 46.390625 
L 45.40625 75.984375 
L 54.390625 75.984375 
L 54.390625 0 
L 45.40625 0 
L 45.40625 8.203125 
Q 42.578125 3.328125 38.25 0.953125 
Q 33.9375 -1.421875 27.875 -1.421875 
Q 17.96875 -1.421875 11.734375 6.484375 
Q 5.515625 14.40625 5.515625 27.296875 
Q 5.515625 40.1875 11.734375 48.09375 
Q 17.96875 56 27.875 56 
Q 33.9375 56 38.25 53.625 
Q 42.578125 51.265625 45.40625 46.390625 
z
M 14.796875 27.296875 
Q 14.796875 17.390625 18.875 11.75 
Q 22.953125 6.109375 30.078125 6.109375 
Q 37.203125 6.109375 41.296875 11.75 
Q 45.40625 17.390625 45.40625 27.296875 
Q 45.40625 37.203125 41.296875 42.84375 
Q 37.203125 48.484375 30.078125 48.484375 
Q 22.953125 48.484375 18.875 42.84375 
Q 14.796875 37.203125 14.796875 27.296875 
z
" id="DejaVuSans-100"/>
      <path d="M 34.28125 27.484375 
Q 23.390625 27.484375 19.1875 25 
Q 14.984375 22.515625 14.984375 16.5 
Q 14.984375 11.71875 18.140625 8.90625 
Q 21.296875 6.109375 26.703125 6.109375 
Q 34.1875 6.109375 38.703125 11.40625 
Q 43.21875 16.703125 43.21875 25.484375 
L 43.21875 27.484375 
z
M 52.203125 31.203125 
L 52.203125 0 
L 43.21875 0 
L 43.21875 8.296875 
Q 40.140625 3.328125 35.546875 0.953125 
Q 30.953125 -1.421875 24.3125 -1.421875 
Q 15.921875 -1.421875 10.953125 3.296875 
Q 6 8.015625 6 15.921875 
Q 6 25.140625 12.171875 29.828125 
Q 18.359375 34.515625 30.609375 34.515625 
L 43.21875 34.515625 
L 43.21875 35.40625 
Q 43.21875 41.609375 39.140625 45 
Q 35.0625 48.390625 27.6875 48.390625 
Q 23 48.390625 18.546875 47.265625 
Q 14.109375 46.140625 10.015625 43.890625 
L 10.015625 52.203125 
Q 14.9375 54.109375 19.578125 55.046875 
Q 24.21875 56 28.609375 56 
Q 40.484375 56 46.34375 49.84375 
Q 52.203125 43.703125 52.203125 31.203125 
z
" id="DejaVuSans-97"/>
      <path d="M 18.3125 70.21875 
L 18.3125 54.6875 
L 36.8125 54.6875 
L 36.8125 47.703125 
L 18.3125 47.703125 
L 18.3125 18.015625 
Q 18.3125 11.328125 20.140625 9.421875 
Q 21.96875 7.515625 27.59375 7.515625 
L 36.8125 7.515625 
L 36.8125 0 
L 27.59375 0 
Q 17.1875 0 13.234375 3.875 
Q 9.28125 7.765625 9.28125 18.015625 
L 9.28125 47.703125 
L 2.6875 47.703125 
L 2.6875 54.6875 
L 9.28125 54.6875 
L 9.28125 70.21875 
z
" id="DejaVuSans-116"/>
      <path d="M 56.203125 29.59375 
L 56.203125 25.203125 
L 14.890625 25.203125 
Q 15.484375 15.921875 20.484375 11.0625 
Q 25.484375 6.203125 34.421875 6.203125 
Q 39.59375 6.203125 44.453125 7.46875 
Q 49.3125 8.734375 54.109375 11.28125 
L 54.109375 2.78125 
Q 49.265625 0.734375 44.1875 -0.34375 
Q 39.109375 -1.421875 33.890625 -1.421875 
Q 20.796875 -1.421875 13.15625 6.1875 
Q 5.515625 13.8125 5.515625 26.8125 
Q 5.515625 40.234375 12.765625 48.109375 
Q 20.015625 56 32.328125 56 
Q 43.359375 56 49.78125 48.890625 
Q 56.203125 41.796875 56.203125 29.59375 
z
M 47.21875 32.234375 
Q 47.125 39.59375 43.09375 43.984375 
Q 39.0625 48.390625 32.421875 48.390625 
Q 24.90625 48.390625 20.390625 44.140625 
Q 15.875 39.890625 15.1875 32.171875 
z
" id="DejaVuSans-101"/>
      <path d="M 44.28125 53.078125 
L 44.28125 44.578125 
Q 40.484375 46.53125 36.375 47.5 
Q 32.28125 48.484375 27.875 48.484375 
Q 21.1875 48.484375 17.84375 46.4375 
Q 14.5 44.390625 14.5 40.28125 
Q 14.5 37.15625 16.890625 35.375 
Q 19.28125 33.59375 26.515625 31.984375 
L 29.59375 31.296875 
Q 39.15625 29.25 43.1875 25.515625 
Q 47.21875 21.78125 47.21875 15.09375 
Q 47.21875 7.46875 41.1875 3.015625 
Q 35.15625 -1.421875 24.609375 -1.421875 
Q 20.21875 -1.421875 15.453125 -0.5625 
Q 10.6875 0.296875 5.421875 2 
L 5.421875 11.28125 
Q 10.40625 8.6875 15.234375 7.390625 
Q 20.0625 6.109375 24.8125 6.109375 
Q 31.15625 6.109375 34.5625 8.28125 
Q 37.984375 10.453125 37.984375 14.40625 
Q 37.984375 18.0625 35.515625 20.015625 
Q 33.0625 21.96875 24.703125 23.78125 
L 21.578125 24.515625 
Q 13.234375 26.265625 9.515625 29.90625 
Q 5.8125 33.546875 5.8125 39.890625 
Q 5.8125 47.609375 11.28125 51.796875 
Q 16.75 56 26.8125 56 
Q 31.78125 56 36.171875 55.265625 
Q 40.578125 54.546875 44.28125 53.078125 
z
" id="DejaVuSans-115"/>
     </defs>
     <g transform="translate(192.607812 284.195)scale(0.3 -0.3)">
      <use xlink:href="#DejaVuSans-35"/>
      <use x="83.789062" xlink:href="#DejaVuSans-117"/>
      <use x="147.167969" xlink:href="#DejaVuSans-112"/>
      <use x="210.644531" xlink:href="#DejaVuSans-100"/>
      <use x="274.121094" xlink:href="#DejaVuSans-97"/>
      <use x="335.400391" xlink:href="#DejaVuSans-116"/>
      <use x="374.609375" xlink:href="#DejaVuSans-101"/>
      <use x="436.132812" xlink:href="#DejaVuSans-115"/>
     </g>
    </g>
   </g>
   <g id="matplotlib.axis_2">
    <g id="ytick_1">
     <g id="line2d_5">
      <defs>
       <path d="M 0 0 
L -3.5 0 
" id="m835c43da75" style="stroke:#000000;stroke-width:0.8;"/>
      </defs>
      <g>
       <use style="stroke:#000000;stroke-width:0.8;" x="98.445312" xlink:href="#m835c43da75" y="218.360731"/>
      </g>
     </g>
     <g id="text_6">
      <!-- 0.00 -->
      <defs>
       <path d="M 10.6875 12.40625 
L 21 12.40625 
L 21 0 
L 10.6875 0 
z
" id="DejaVuSans-46"/>
      </defs>
      <g transform="translate(40.234375 227.098935)scale(0.23 -0.23)">
       <use xlink:href="#DejaVuSans-48"/>
       <use x="63.623047" xlink:href="#DejaVuSans-46"/>
       <use x="95.410156" xlink:href="#DejaVuSans-48"/>
       <use x="159.033203" xlink:href="#DejaVuSans-48"/>
      </g>
     </g>
    </g>
    <g id="ytick_2">
     <g id="line2d_6">
      <g>
       <use style="stroke:#000000;stroke-width:0.8;" x="98.445312" xlink:href="#m835c43da75" y="168.916458"/>
      </g>
     </g>
     <g id="text_7">
      <!-- 0.25 -->
      <defs>
       <path d="M 10.796875 72.90625 
L 49.515625 72.90625 
L 49.515625 64.59375 
L 19.828125 64.59375 
L 19.828125 46.734375 
Q 21.96875 47.46875 24.109375 47.828125 
Q 26.265625 48.1875 28.421875 48.1875 
Q 40.625 48.1875 47.75 41.5 
Q 54.890625 34.8125 54.890625 23.390625 
Q 54.890625 11.625 47.5625 5.09375 
Q 40.234375 -1.421875 26.90625 -1.421875 
Q 22.3125 -1.421875 17.546875 -0.640625 
Q 12.796875 0.140625 7.71875 1.703125 
L 7.71875 11.625 
Q 12.109375 9.234375 16.796875 8.0625 
Q 21.484375 6.890625 26.703125 6.890625 
Q 35.15625 6.890625 40.078125 11.328125 
Q 45.015625 15.765625 45.015625 23.390625 
Q 45.015625 31 40.078125 35.4375 
Q 35.15625 39.890625 26.703125 39.890625 
Q 22.75 39.890625 18.8125 39.015625 
Q 14.890625 38.140625 10.796875 36.28125 
z
" id="DejaVuSans-53"/>
      </defs>
      <g transform="translate(40.234375 177.654661)scale(0.23 -0.23)">
       <use xlink:href="#DejaVuSans-48"/>
       <use x="63.623047" xlink:href="#DejaVuSans-46"/>
       <use x="95.410156" xlink:href="#DejaVuSans-50"/>
       <use x="159.033203" xlink:href="#DejaVuSans-53"/>
      </g>
     </g>
    </g>
    <g id="ytick_3">
     <g id="line2d_7">
      <g>
       <use style="stroke:#000000;stroke-width:0.8;" x="98.445312" xlink:href="#m835c43da75" y="119.472184"/>
      </g>
     </g>
     <g id="text_8">
      <!-- 0.50 -->
      <g transform="translate(40.234375 128.210387)scale(0.23 -0.23)">
       <use xlink:href="#DejaVuSans-48"/>
       <use x="63.623047" xlink:href="#DejaVuSans-46"/>
       <use x="95.410156" xlink:href="#DejaVuSans-53"/>
       <use x="159.033203" xlink:href="#DejaVuSans-48"/>
      </g>
     </g>
    </g>
    <g id="ytick_4">
     <g id="line2d_8">
      <g>
       <use style="stroke:#000000;stroke-width:0.8;" x="98.445312" xlink:href="#m835c43da75" y="70.02791"/>
      </g>
     </g>
     <g id="text_9">
      <!-- 0.75 -->
      <defs>
       <path d="M 8.203125 72.90625 
L 55.078125 72.90625 
L 55.078125 68.703125 
L 28.609375 0 
L 18.3125 0 
L 43.21875 64.59375 
L 8.203125 64.59375 
z
" id="DejaVuSans-55"/>
      </defs>
      <g transform="translate(40.234375 78.766113)scale(0.23 -0.23)">
       <use xlink:href="#DejaVuSans-48"/>
       <use x="63.623047" xlink:href="#DejaVuSans-46"/>
       <use x="95.410156" xlink:href="#DejaVuSans-55"/>
       <use x="159.033203" xlink:href="#DejaVuSans-53"/>
      </g>
     </g>
    </g>
    <g id="ytick_5">
     <g id="line2d_9">
      <g>
       <use style="stroke:#000000;stroke-width:0.8;" x="98.445312" xlink:href="#m835c43da75" y="20.583636"/>
      </g>
     </g>
     <g id="text_10">
      <!-- 1.00 -->
      <g transform="translate(40.234375 29.321839)scale(0.23 -0.23)">
       <use xlink:href="#DejaVuSans-49"/>
       <use x="63.623047" xlink:href="#DejaVuSans-46"/>
       <use x="95.410156" xlink:href="#DejaVuSans-48"/>
       <use x="159.033203" xlink:href="#DejaVuSans-48"/>
      </g>
     </g>
    </g>
    <g id="text_11">
     <!-- ICDF -->
     <defs>
      <path d="M 9.8125 72.90625 
L 19.671875 72.90625 
L 19.671875 0 
L 9.8125 0 
z
" id="DejaVuSans-73"/>
      <path d="M 64.40625 67.28125 
L 64.40625 56.890625 
Q 59.421875 61.53125 53.78125 63.8125 
Q 48.140625 66.109375 41.796875 66.109375 
Q 29.296875 66.109375 22.65625 58.46875 
Q 16.015625 50.828125 16.015625 36.375 
Q 16.015625 21.96875 22.65625 14.328125 
Q 29.296875 6.6875 41.796875 6.6875 
Q 48.140625 6.6875 53.78125 8.984375 
Q 59.421875 11.28125 64.40625 15.921875 
L 64.40625 5.609375 
Q 59.234375 2.09375 53.4375 0.328125 
Q 47.65625 -1.421875 41.21875 -1.421875 
Q 24.65625 -1.421875 15.125 8.703125 
Q 5.609375 18.84375 5.609375 36.375 
Q 5.609375 53.953125 15.125 64.078125 
Q 24.65625 74.21875 41.21875 74.21875 
Q 47.75 74.21875 53.53125 72.484375 
Q 59.328125 70.75 64.40625 67.28125 
z
" id="DejaVuSans-67"/>
      <path d="M 19.671875 64.796875 
L 19.671875 8.109375 
L 31.59375 8.109375 
Q 46.6875 8.109375 53.6875 14.9375 
Q 60.6875 21.78125 60.6875 36.53125 
Q 60.6875 51.171875 53.6875 57.984375 
Q 46.6875 64.796875 31.59375 64.796875 
z
M 9.8125 72.90625 
L 30.078125 72.90625 
Q 51.265625 72.90625 61.171875 64.09375 
Q 71.09375 55.28125 71.09375 36.53125 
Q 71.09375 17.671875 61.125 8.828125 
Q 51.171875 0 30.078125 0 
L 9.8125 0 
z
" id="DejaVuSans-68"/>
      <path d="M 9.8125 72.90625 
L 51.703125 72.90625 
L 51.703125 64.59375 
L 19.671875 64.59375 
L 19.671875 43.109375 
L 48.578125 43.109375 
L 48.578125 34.8125 
L 19.671875 34.8125 
L 19.671875 0 
L 9.8125 0 
z
" id="DejaVuSans-70"/>
     </defs>
     <g transform="translate(29.995312 154.496562)rotate(-90)scale(0.3 -0.3)">
      <use xlink:href="#DejaVuSans-73"/>
      <use x="29.492188" xlink:href="#DejaVuSans-67"/>
      <use x="99.316406" xlink:href="#DejaVuSans-68"/>
      <use x="176.318359" xlink:href="#DejaVuSans-70"/>
     </g>
    </g>
   </g>
   <g id="line2d_10">
    <path clip-path="url(#p42bcfda66a)" d="M -1 20.583636 
L 181.684374 20.688004 
L 182.426298 20.792372 
L 185.4715 20.89674 
L 186.091596 21.001108 
L 189.980295 21.105476 
L 190.232076 21.418579 
L 192.59504 21.522947 
L 193.254514 21.731683 
L 196.082208 21.836051 
L 196.456483 21.940419 
L 199.067239 22.044786 
L 199.230155 22.253522 
L 201.531956 22.35789 
L 201.820456 22.462258 
L 202.385707 22.566626 
L 202.799774 22.775361 
L 204.754666 22.879729 
L 205.001951 23.088465 
L 206.655116 23.192833 
L 206.880897 23.297201 
L 207.434842 23.401569 
L 207.652348 23.505936 
L 208.186354 23.610304 
L 208.50029 23.81904 
L 208.809552 23.81904 
L 209.114276 24.340879 
L 209.513744 24.340879 
L 209.710633 24.549615 
L 210.194844 24.653983 
L 210.385411 24.758351 
L 211.130663 24.758351 
L 211.312872 24.967086 
L 211.583224 25.175822 
L 211.850101 25.28019 
L 212.026133 25.384558 
L 212.373785 25.488926 
L 212.545453 25.697662 
L 213.546691 25.802029 
L 213.708971 25.906397 
L 213.950038 26.010765 
L 214.109209 26.219501 
L 214.423937 26.323869 
L 214.579531 26.636972 
L 215.039439 26.636972 
L 215.190507 26.845708 
L 215.489385 26.950076 
L 215.637227 27.054444 
L 215.857035 27.158812 
L 216.002292 27.263179 
L 216.502839 27.367547 
L 216.713721 27.576283 
L 216.991607 27.680651 
L 217.265825 27.993754 
L 217.469138 28.098122 
L 217.670481 28.515594 
L 217.803633 28.724329 
L 218.132827 28.828697 
L 218.456885 29.141801 
L 218.64892 29.246169 
L 218.775964 29.454904 
L 219.276511 29.559272 
L 219.522333 29.768008 
L 219.644161 29.768008 
L 219.825574 30.18548 
L 220.06502 30.289847 
L 220.24281 30.394215 
L 220.477521 30.498583 
L 221.052951 31.333526 
L 221.334796 31.437894 
L 221.557551 31.64663 
L 221.777942 31.750997 
L 222.104206 32.168469 
L 222.158088 32.168469 
L 222.318902 32.377205 
L 222.425424 32.481572 
L 222.636842 32.690308 
L 222.794006 32.794676 
L 222.949989 33.212147 
L 223.10481 33.629619 
L 223.411032 33.733987 
L 223.562466 33.942722 
L 223.712805 34.04709 
L 223.911579 34.255826 
L 224.25492 34.360194 
L 224.544762 34.777665 
L 224.688181 34.882033 
L 224.830616 35.195137 
L 225.112588 35.299505 
L 225.482695 35.925712 
L 225.846322 36.03008 
L 226.070399 36.343183 
L 226.114926 36.343183 
L 226.292084 36.656287 
L 226.55502 36.760655 
L 226.771619 37.073758 
L 227.028592 37.073758 
L 227.240334 37.699965 
L 227.65745 37.804333 
L 227.821979 38.013069 
L 228.106806 38.117437 
L 228.546646 38.95238 
L 228.586174 38.95238 
L 228.78269 39.474219 
L 229.054728 39.474219 
L 229.208593 39.787323 
L 229.323248 39.891691 
L 229.812902 40.935369 
L 230.071858 41.039737 
L 230.29128 41.352841 
L 230.363908 41.352841 
L 230.508407 41.665944 
L 230.580282 41.770312 
L 231.076557 42.918358 
L 231.181376 42.918358 
L 231.320318 43.231462 
L 231.458336 43.231462 
L 231.595444 43.440198 
L 231.866973 43.544566 
L 232.068315 43.857669 
L 232.267725 43.962037 
L 232.465239 44.588244 
L 232.660892 44.901348 
L 232.693322 44.901348 
L 232.854719 45.318819 
L 233.142111 45.945026 
L 233.42558 46.049394 
L 233.643412 46.466866 
L 233.736074 46.571234 
L 233.920167 47.093073 
L 234.011606 47.093073 
L 234.1329 47.301809 
L 234.223409 47.406176 
L 234.492592 48.032384 
L 234.640645 48.136751 
L 234.78765 48.345487 
L 235.049664 48.449855 
L 235.165063 48.762959 
L 235.393954 48.867326 
L 235.535741 48.971694 
L 235.592186 49.076062 
L 235.872132 49.702269 
L 236.010703 49.806637 
L 236.230511 50.745948 
L 236.448018 50.850316 
L 236.902793 52.207098 
L 236.982024 52.311466 
L 237.113407 52.415834 
L 237.139585 52.415834 
L 237.295959 52.833305 
L 237.373707 52.833305 
L 237.502644 53.146409 
L 237.758142 53.250777 
L 237.935138 53.56388 
L 238.11064 53.668248 
L 238.309413 54.085719 
L 238.432688 54.190087 
L 238.579658 54.398823 
L 238.604052 54.398823 
L 238.749819 54.711927 
L 238.846431 54.816295 
L 239.01443 55.129398 
L 239.18108 55.233766 
L 239.369915 56.068709 
L 239.649987 56.173077 
L 239.788619 56.590548 
L 240.153845 56.694916 
L 240.579372 58.156066 
L 240.623661 58.156066 
L 240.777934 58.573537 
L 240.843702 58.573537 
L 241.018072 59.304113 
L 241.126315 59.40848 
L 241.490176 60.660895 
L 241.532567 60.765263 
L 241.680259 60.973998 
L 241.722264 61.078366 
L 242.075922 62.33078 
L 242.178803 62.435148 
L 242.38305 62.956988 
L 242.50464 63.061355 
L 242.825445 64.209402 
L 242.845332 64.209402 
L 242.984008 64.939977 
L 243.062838 65.044345 
L 243.297549 65.77492 
L 243.336411 65.879288 
L 243.548861 66.505495 
L 243.606427 66.609863 
L 243.91078 67.653541 
L 243.967353 67.757909 
L 244.173478 68.905956 
L 244.451303 69.010324 
L 244.59797 69.219059 
L 244.689114 69.323427 
L 244.852172 69.636531 
L 244.870211 69.636531 
L 245.031859 70.262738 
L 245.280838 71.097681 
L 245.35143 71.202049 
L 245.491898 71.61952 
L 245.700836 72.245727 
L 245.770017 72.350095 
L 246.010353 73.185038 
L 246.112509 73.185038 
L 246.264807 73.811245 
L 246.348938 73.915613 
L 246.566094 74.646188 
L 246.599302 74.750556 
L 246.748085 75.063659 
L 246.764551 75.063659 
L 246.89581 75.481131 
L 247.058726 75.585499 
L 247.188145 75.898602 
L 247.460512 76.00297 
L 247.603274 76.629177 
L 247.682164 76.733545 
L 247.917051 77.568488 
L 248.025763 77.672856 
L 248.164705 77.881592 
L 248.195455 77.881592 
L 248.348526 78.507799 
L 248.424641 78.612167 
L 248.786159 80.38642 
L 249.008953 80.490788 
L 249.141492 80.699524 
L 249.345997 80.803892 
L 249.591647 81.84757 
L 249.677659 81.951938 
L 249.891141 82.786881 
L 250.074401 82.891249 
L 250.269967 83.517456 
L 250.339368 83.621824 
L 250.491238 83.934928 
L 250.587309 84.039295 
L 250.791689 84.76987 
L 250.953757 84.874238 
L 251.074484 84.978606 
L 251.101218 85.082974 
L 251.260898 85.500445 
L 251.366674 85.604813 
L 251.498141 86.335388 
L 251.563564 86.439756 
L 251.732704 86.961595 
L 251.797394 87.065963 
L 251.926171 87.274699 
L 251.964649 87.379067 
L 252.143276 88.005274 
L 252.181354 88.005274 
L 252.32038 88.631481 
L 252.420909 88.631481 
L 252.570796 89.362056 
L 252.731961 89.779528 
L 252.977492 89.883896 
L 253.12343 90.510103 
L 253.208089 90.614471 
L 253.388348 91.240678 
L 253.460015 91.345046 
L 253.602613 91.658149 
L 253.649929 91.762517 
L 253.791234 92.075621 
L 253.849828 92.075621 
L 254.001404 92.806196 
L 254.163413 93.328035 
L 254.174937 93.328035 
L 254.301279 93.641139 
L 254.495035 94.476081 
L 254.731913 94.580449 
L 254.932822 95.415392 
L 254.977206 95.51976 
L 255.131808 95.937231 
L 255.164787 95.937231 
L 255.296185 96.459071 
L 255.307097 96.459071 
L 255.448439 97.085278 
L 255.599585 97.502749 
L 255.760316 97.607117 
L 255.888011 97.815853 
L 255.909217 97.815853 
L 256.036003 98.128957 
L 256.151547 98.233324 
L 256.266453 98.337692 
L 256.370363 98.44206 
L 256.484068 98.546428 
L 256.576638 98.650796 
L 256.699427 98.859532 
L 256.77072 98.963899 
L 256.912575 99.277003 
L 256.932762 99.277003 
L 257.073519 99.90321 
L 257.203374 100.111946 
L 257.253103 100.216314 
L 257.371968 100.320682 
L 257.440993 100.425049 
L 257.568578 100.633785 
L 257.666189 100.738153 
L 257.802079 101.051257 
L 257.985091 101.155624 
L 258.109387 101.36436 
L 258.261352 101.468728 
L 258.393416 101.781832 
L 258.412214 101.886199 
L 258.552659 102.721142 
L 258.673614 102.82551 
L 258.821522 103.242982 
L 259.041427 103.34735 
L 259.159577 103.660453 
L 259.213882 103.764821 
L 259.358006 104.182292 
L 259.518958 104.28666 
L 259.652139 104.599764 
L 259.880981 104.704132 
L 260.029258 105.225971 
L 260.262601 105.330339 
L 260.38257 105.74781 
L 260.586633 105.852178 
L 260.721569 106.165282 
L 260.830563 106.26965 
L 260.98054 106.791489 
L 261.071662 106.895857 
L 261.18706 107.000225 
L 261.293645 107.104592 
L 261.40782 107.20896 
L 261.594042 107.313328 
L 261.714598 107.522064 
L 261.810541 107.626432 
L 261.93778 107.835168 
L 262.079998 107.939535 
L 262.236885 108.565743 
L 262.275922 108.67011 
L 262.40035 108.878846 
L 262.431341 108.983214 
L 262.547147 109.087582 
L 262.738734 109.19195 
L 262.860429 109.400685 
L 263.094202 109.505053 
L 263.221292 110.13126 
L 263.36242 110.235628 
L 263.495241 110.548732 
L 263.554001 110.6531 
L 263.678317 110.861835 
L 263.801894 110.966203 
L 263.939144 111.383675 
L 264.061183 111.488043 
L 264.196736 111.905514 
L 264.239359 112.009882 
L 264.3949 112.740457 
L 264.514298 112.844825 
L 264.639976 113.366664 
L 264.716406 113.471032 
L 264.840871 113.679768 
L 264.909697 113.784136 
L 265.033012 113.992871 
L 265.196302 114.097239 
L 265.311193 114.201607 
L 265.418749 114.305975 
L 265.539088 114.514711 
L 265.592348 114.619078 
L 265.711688 114.827814 
L 266.026615 114.827814 
L 266.156439 115.454021 
L 266.195228 115.558389 
L 266.324005 115.871493 
L 266.343253 115.975861 
L 266.471119 116.288964 
L 267.018353 116.393332 
L 267.142142 116.706436 
L 267.314216 116.810803 
L 267.442342 117.123907 
L 267.581771 117.228275 
L 267.714266 117.645746 
L 267.816074 117.750114 
L 267.929271 117.854482 
L 267.982677 117.95885 
L 268.112648 118.376321 
L 268.153832 118.480689 
L 268.271054 118.689425 
L 268.370176 118.793793 
L 268.509311 119.315632 
L 268.767704 119.42 
L 268.887197 119.733104 
L 268.921211 119.837471 
L 269.039826 120.046207 
L 269.107304 120.150575 
L 269.236025 120.568046 
L 269.352861 120.672414 
L 269.4911 121.194254 
L 269.540641 121.298621 
L 269.655781 121.402989 
L 269.732188 121.507357 
L 269.85169 121.716093 
L 269.916585 121.820461 
L 270.051135 122.3423 
L 270.152813 122.446668 
L 270.269926 122.655404 
L 270.333529 122.655404 
L 270.449632 122.968507 
L 270.50744 123.072875 
L 270.653868 123.80345 
L 270.77338 123.907818 
L 270.897359 124.220922 
L 270.979603 124.325289 
L 271.102362 124.951497 
L 271.204109 125.055864 
L 271.33564 125.473336 
L 271.380976 125.577704 
L 271.521394 126.203911 
L 271.655904 126.308279 
L 271.784613 126.72575 
L 271.91253 126.830118 
L 272.025034 126.934486 
L 272.156332 126.934486 
L 272.272348 127.24759 
L 272.469056 127.351957 
L 272.60233 127.873797 
L 272.649722 127.978165 
L 272.767729 128.1869 
L 272.903784 128.291268 
L 273.025011 128.604372 
L 273.131663 128.70874 
L 273.260766 129.126211 
L 273.33876 129.230579 
L 273.462035 129.543682 
L 273.480236 129.64805 
L 273.598154 129.856786 
L 273.670388 129.961154 
L 273.791715 130.274257 
L 273.970167 130.378625 
L 274.094178 130.691729 
L 274.204279 130.796097 
L 274.335635 131.317936 
L 274.422746 131.422304 
L 274.544092 131.735408 
L 274.707649 131.839775 
L 274.84439 132.465983 
L 274.865675 132.57035 
L 274.997155 133.09219 
L 275.04361 133.196558 
L 275.165586 133.509661 
L 275.286851 133.614029 
L 275.411556 134.0315 
L 275.556105 134.135868 
L 275.69148 134.762075 
L 275.707829 134.866443 
L 275.838162 135.388283 
L 276.016044 135.49265 
L 276.132457 135.701386 
L 276.315785 135.805754 
L 276.430535 135.910122 
L 276.619084 136.01449 
L 276.736064 136.223225 
L 276.840786 136.327593 
L 276.956527 136.536329 
L 276.991124 136.640697 
L 277.113671 136.953801 
L 277.189898 137.058168 
L 277.315063 137.47564 
L 277.495786 137.580008 
L 277.6154 137.893111 
L 277.786147 137.997479 
L 277.907781 138.310583 
L 278.06886 138.310583 
L 278.181601 138.519318 
L 278.282909 138.623686 
L 278.401677 138.93679 
L 278.573226 139.041158 
L 278.697427 139.458629 
L 278.78569 139.562997 
L 278.898122 139.667365 
L 279.002976 139.771733 
L 279.121175 140.084836 
L 279.155812 140.084836 
L 279.273147 140.815411 
L 279.331567 140.919779 
L 279.458151 141.441619 
L 279.505847 141.545986 
L 279.631377 142.067826 
L 279.682052 142.172194 
L 279.79646 142.276561 
L 279.986858 142.380929 
L 280.112828 142.902769 
L 280.139251 143.007136 
L 280.270863 143.737711 
L 280.297086 143.842079 
L 280.417938 144.155183 
L 280.430961 144.155183 
L 280.544565 144.468286 
L 280.557509 144.468286 
L 280.680075 145.407597 
L 280.734674 145.511965 
L 280.856202 145.929436 
L 280.881697 146.033804 
L 281.015032 146.764379 
L 281.194629 146.868747 
L 281.313504 147.181851 
L 281.4286 147.286219 
L 281.552315 147.808058 
L 281.80365 147.912426 
L 281.928186 148.434265 
L 282.030897 148.538633 
L 282.157078 149.060472 
L 282.356793 149.16484 
L 282.481015 149.686679 
L 282.601567 149.791047 
L 282.718509 149.999783 
L 282.788359 150.104151 
L 282.918698 150.834726 
L 283.010889 150.939094 
L 283.125555 151.14783 
L 283.182652 151.252197 
L 283.307714 151.774037 
L 283.367139 151.878405 
L 283.488289 152.295876 
L 283.550001 152.400244 
L 283.670094 152.817715 
L 283.767333 152.922083 
L 283.886179 153.235187 
L 283.9879 153.339555 
L 284.108221 153.757026 
L 284.198006 153.861394 
L 284.31442 154.07013 
L 284.338703 154.174497 
L 284.451651 154.278865 
L 284.555985 154.383233 
L 284.673069 154.696337 
L 284.807959 154.800705 
L 284.923635 155.00944 
L 284.957689 155.113808 
L 285.069933 155.218176 
L 285.168624 155.322544 
L 285.295194 155.948751 
L 285.614627 156.053119 
L 285.725909 156.157487 
L 285.738517 156.261855 
L 285.85666 156.574958 
L 285.924226 156.679326 
L 286.043804 157.096798 
L 286.221891 157.201165 
L 286.339773 157.514269 
L 286.400905 157.618637 
L 286.51535 157.827373 
L 286.64124 157.93174 
L 286.773567 158.871051 
L 286.897905 158.975419 
L 287.012023 159.184155 
L 287.130232 159.288523 
L 287.243084 159.39289 
L 287.324986 159.497258 
L 287.441433 159.810362 
L 287.510989 159.91473 
L 287.6264 160.123465 
L 287.784622 160.227833 
L 287.900799 160.540937 
L 287.932577 160.645305 
L 288.047932 160.854041 
L 288.162649 160.958408 
L 288.276737 161.167144 
L 288.359116 161.271512 
L 288.476551 161.584616 
L 288.635031 161.688983 
L 288.753102 162.106455 
L 288.764 162.210823 
L 288.881342 162.523926 
L 288.931121 162.628294 
L 289.045376 163.045766 
L 289.079745 163.150133 
L 289.203857 163.880708 
L 289.34843 163.985076 
L 289.46674 164.402548 
L 289.745053 164.506916 
L 289.863198 164.924387 
L 289.929231 165.028755 
L 290.044288 165.237491 
L 290.175005 165.341859 
L 290.290736 165.654962 
L 290.474174 165.75933 
L 290.586259 165.863698 
L 290.630127 165.968066 
L 290.743357 166.176801 
L 290.889443 166.281169 
L 291.003228 166.489905 
L 291.13001 166.489905 
L 291.246356 167.116112 
L 291.294642 167.22048 
L 291.410073 167.533584 
L 291.697766 167.637951 
L 291.812866 167.951055 
L 291.872992 168.055423 
L 291.988994 168.368526 
L 292.044892 168.472894 
L 292.16179 168.890366 
L 292.176587 168.994734 
L 292.294588 169.412205 
L 292.472164 169.516573 
L 292.590314 169.934044 
L 292.815654 170.038412 
L 292.937221 170.664619 
L 292.995961 170.768987 
L 293.111177 171.082091 
L 293.276675 171.186459 
L 293.392093 171.499562 
L 293.439126 171.60393 
L 293.555377 171.917034 
L 293.715671 172.021402 
L 293.833804 172.543241 
L 294.047807 172.647609 
L 294.165751 173.169448 
L 294.293052 173.273816 
L 294.407955 173.586919 
L 294.409616 173.586919 
L 294.523878 174.108759 
L 294.624372 174.213127 
L 294.737462 174.421862 
L 294.919728 174.52623 
L 295.03606 174.943702 
L 295.352654 175.04807 
L 295.468172 175.361173 
L 295.502859 175.465541 
L 295.623813 176.196116 
L 295.675435 176.300484 
L 295.789176 176.50922 
L 295.99943 176.613587 
L 296.117534 177.135427 
L 296.189295 177.239795 
L 296.30178 177.344162 
L 296.357795 177.44853 
L 296.475388 177.97037 
L 296.496424 178.074737 
L 296.61025 178.283473 
L 296.750177 178.387841 
L 296.865576 178.700945 
L 297.043332 178.805312 
L 297.157118 179.014048 
L 297.274624 179.118416 
L 297.390031 179.43152 
L 297.647375 179.535887 
L 297.762147 179.848991 
L 297.858012 179.953359 
L 297.970231 180.057727 
L 298.232965 180.162095 
L 298.34593 180.37083 
L 298.4282 180.475198 
L 298.541472 180.683934 
L 298.584978 180.788302 
L 298.697401 180.89267 
L 298.945812 180.997038 
L 299.060287 181.310141 
L 299.110668 181.414509 
L 299.22424 181.623245 
L 299.276853 181.727613 
L 299.390829 182.040716 
L 299.528856 182.145084 
L 299.641461 182.35382 
L 299.832906 182.458188 
L 299.945151 182.562555 
L 300.169097 182.666923 
L 300.283299 182.980027 
L 300.381936 183.084395 
L 300.494978 183.29313 
L 300.553122 183.397498 
L 300.666467 183.606234 
L 300.695934 183.710602 
L 300.809725 184.023705 
L 300.841426 184.128073 
L 300.955637 184.441177 
L 301.106546 184.545545 
L 301.219312 184.754281 
L 301.305274 184.858648 
L 301.419339 185.171752 
L 301.592796 185.27612 
L 301.707635 185.693591 
L 301.781126 185.797959 
L 301.897247 186.319798 
L 301.943514 186.424166 
L 302.056435 186.632902 
L 302.074813 186.73727 
L 302.189309 187.050373 
L 302.42094 187.154741 
L 302.533549 187.363477 
L 302.570576 187.467845 
L 302.683493 187.676581 
L 302.988965 187.780948 
L 303.101822 187.989684 
L 303.27701 188.094052 
L 303.390473 188.407156 
L 303.565391 188.511523 
L 303.677293 188.615891 
L 303.795995 188.720259 
L 303.907716 188.824627 
L 304.01884 188.928995 
L 304.130412 189.033363 
L 304.298202 189.137731 
L 304.414444 189.65957 
L 304.427775 189.763938 
L 304.540237 189.972674 
L 304.676419 190.077041 
L 304.787546 190.181409 
L 304.970116 190.285777 
L 305.082667 190.494513 
L 305.303009 190.598881 
L 305.417686 191.016352 
L 305.614197 191.12072 
L 305.728137 191.433824 
L 305.862513 191.538191 
L 305.975102 191.746927 
L 306.036862 191.851295 
L 306.152287 192.373134 
L 306.304571 192.477502 
L 306.418522 192.894974 
L 306.541113 192.999341 
L 306.652856 193.103709 
L 306.708962 193.208077 
L 306.823463 193.625549 
L 306.907334 193.729916 
L 307.020749 194.04302 
L 307.092109 194.147388 
L 307.204522 194.356124 
L 307.30116 194.460492 
L 307.414226 194.773595 
L 307.873467 194.877963 
L 307.985197 194.982331 
L 308.108354 195.086699 
L 308.221393 195.399802 
L 308.534162 195.50417 
L 308.646587 195.712906 
L 308.910976 195.817274 
L 309.024672 196.234745 
L 309.136931 196.339113 
L 309.248588 196.443481 
L 309.325663 196.547849 
L 309.437117 196.652217 
L 309.627144 196.756584 
L 309.738584 196.860952 
L 310.1598 196.96532 
L 310.271522 197.069688 
L 310.324844 197.174056 
L 310.437219 197.591527 
L 310.620635 197.695895 
L 310.732182 197.800263 
L 311.550588 197.904631 
L 311.664501 198.322102 
L 311.838155 198.42647 
L 311.950506 198.635206 
L 312.264285 198.739574 
L 312.376458 198.948309 
L 312.569931 199.052677 
L 312.681159 199.157045 
L 312.771224 199.261413 
L 312.882747 199.365781 
L 313.081047 199.470149 
L 313.193612 199.783252 
L 313.503867 199.88762 
L 313.616806 200.200724 
L 313.936422 200.305092 
L 314.048974 200.618195 
L 315.273347 200.722563 
L 315.385556 200.931299 
L 315.818951 201.035667 
L 315.931205 201.244402 
L 316.150412 201.34877 
L 316.262633 201.557506 
L 316.58486 201.661874 
L 316.696468 201.766242 
L 316.980738 201.87061 
L 317.092474 202.079345 
L 317.54441 202.183713 
L 317.656416 202.392449 
L 317.937563 202.496817 
L 318.049603 202.705552 
L 318.192244 202.80992 
L 318.303974 203.018656 
L 318.396276 203.123024 
L 318.508479 203.436127 
L 318.713566 203.540495 
L 318.825097 203.644863 
L 319.127366 203.749231 
L 319.238712 203.853599 
L 319.433265 203.957967 
L 319.544474 204.062335 
L 319.847751 204.166703 
L 319.959196 204.27107 
L 320.303834 204.375438 
L 320.415239 204.479806 
L 320.705684 204.584174 
L 320.817288 204.79291 
L 321.013818 204.897278 
L 321.125618 205.106013 
L 321.250508 205.210381 
L 321.362407 205.419117 
L 321.969503 205.523485 
L 322.081111 205.73222 
L 322.321178 205.836588 
L 322.43264 205.940956 
L 322.708707 206.045324 
L 322.820229 206.149692 
L 323.190335 206.25406 
L 323.301787 206.358428 
L 324.480086 206.462795 
L 324.591836 206.671531 
L 325.430176 206.775899 
L 325.541395 206.880267 
L 325.847045 206.984635 
L 325.958606 207.297738 
L 326.769748 207.402106 
L 326.880995 207.506474 
L 327.22079 207.610842 
L 327.332036 207.71521 
L 327.781153 207.819578 
L 327.892428 207.923945 
L 328.357593 208.028313 
L 328.469697 208.445785 
L 328.532431 208.550153 
L 328.643917 208.758888 
L 329.016611 208.863256 
L 329.128658 209.17636 
L 329.714924 209.280728 
L 329.826596 209.489463 
L 330.23455 209.593831 
L 330.34612 209.802567 
L 330.605596 209.906935 
L 330.71722 210.115671 
L 330.807816 210.220038 
L 330.919507 210.533142 
L 331.281997 210.63751 
L 331.393692 210.950613 
L 331.993973 211.054981 
L 332.105431 211.263717 
L 332.804574 211.368085 
L 332.91594 211.472453 
L 333.419601 211.576821 
L 333.531009 211.785556 
L 333.931165 211.889924 
L 334.042333 211.994292 
L 334.413255 212.09866 
L 334.524528 212.203028 
L 334.934979 212.307396 
L 335.046552 212.516131 
L 335.40127 212.620499 
L 335.512667 212.829235 
L 335.882818 212.933603 
L 335.994137 213.037971 
L 336.976456 213.142338 
L 337.087613 213.246706 
L 339.151746 213.351074 
L 339.262995 213.455442 
L 342.817693 213.55981 
L 342.92882 213.664178 
L 344.158983 213.768546 
L 344.270106 213.872914 
L 344.758962 213.977281 
L 344.870441 214.290385 
L 345.912923 214.394753 
L 346.024068 214.499121 
L 347.060185 214.603489 
L 347.171397 214.707856 
L 348.513828 214.812224 
L 348.624992 214.916592 
L 349.356992 215.02096 
L 349.4682 215.125328 
L 350.049712 215.229696 
L 350.160911 215.334064 
L 350.475127 215.438431 
L 350.586299 215.542799 
L 352.211293 215.647167 
L 352.322466 215.751535 
L 352.602814 215.855903 
L 352.714022 215.960271 
L 354.151866 216.064639 
L 354.263016 216.169006 
L 354.430895 216.273374 
L 354.542034 216.377742 
L 358.558786 216.48211 
L 358.669898 216.586478 
L 359.974984 216.690846 
L 360.086106 216.795214 
L 361.19183 216.899581 
L 361.302947 217.003949 
L 362.476576 217.108317 
L 362.587717 217.212685 
L 363.793864 217.317053 
L 363.904981 217.421421 
L 364.347723 217.525789 
L 364.458887 217.630156 
L 368.287305 217.734524 
L 368.39845 217.838892 
L 374.384904 217.94326 
L 374.496033 218.047628 
L 377.533145 218.151996 
L 377.644269 218.256364 
L 386.981088 218.256364 
L 386.981088 218.256364 
" style="fill:none;stroke:#ff0000;stroke-linecap:square;stroke-width:4;"/>
   </g>
   <g id="patch_3">
    <path d="M 98.445312 228.14 
L 98.445312 10.7 
" style="fill:none;stroke:#000000;stroke-linecap:square;stroke-linejoin:miter;stroke-width:0.8;"/>
   </g>
   <g id="patch_4">
    <path d="M 433.245313 228.14 
L 433.245313 10.7 
" style="fill:none;stroke:#000000;stroke-linecap:square;stroke-linejoin:miter;stroke-width:0.8;"/>
   </g>
   <g id="patch_5">
    <path d="M 98.445312 228.14 
L 433.245313 228.14 
" style="fill:none;stroke:#000000;stroke-linecap:square;stroke-linejoin:miter;stroke-width:0.8;"/>
   </g>
   <g id="patch_6">
    <path d="M 98.445312 10.7 
L 433.245313 10.7 
" style="fill:none;stroke:#000000;stroke-linecap:square;stroke-linejoin:miter;stroke-width:0.8;"/>
   </g>
  </g>
 </g>
 <defs>
  <clipPath id="p42bcfda66a">
   <rect height="217.44" width="334.8" x="98.445312" y="10.7"/>
  </clipPath>
 </defs>
</svg>
