<?xml version="1.0" encoding="utf-8" standalone="no"?>
<!DOCTYPE svg PUBLIC "-//W3C//DTD SVG 1.1//EN"
  "http://www.w3.org/Graphics/SVG/1.1/DTD/svg11.dtd">
<!-- Created with matplotlib (https://matplotlib.org/) -->
<svg height="297.634062pt" version="1.1" viewBox="0 0 462.395938 297.634062" width="462.395938pt" xmlns="http://www.w3.org/2000/svg" xmlns:xlink="http://www.w3.org/1999/xlink">
 <defs>
  <style type="text/css">
*{stroke-linecap:butt;stroke-linejoin:round;}
  </style>
 </defs>
 <g id="figure_1">
  <g id="patch_1">
   <path d="M 0 297.634062 
L 462.395938 297.634062 
L 462.395938 0 
L 0 0 
z
" style="fill:#ffffff;"/>
  </g>
  <g id="axes_1">
   <g id="patch_2">
    <path d="M 98.445312 228.14 
L 433.245313 228.14 
L 433.245313 10.7 
L 98.445312 10.7 
z
" style="fill:#ffffff;"/>
   </g>
   <g id="matplotlib.axis_1">
    <g id="xtick_1">
     <g id="line2d_1">
      <defs>
       <path d="M 0 0 
L 0 3.5 
" id="ma638710831" style="stroke:#000000;stroke-width:0.8;"/>
      </defs>
      <g>
       <use style="stroke:#000000;stroke-width:0.8;" x="112.015188" xlink:href="#ma638710831" y="228.14"/>
      </g>
     </g>
     <g id="text_1">
      <!-- 0 -->
      <defs>
       <path d="M 31.78125 66.40625 
Q 24.171875 66.40625 20.328125 58.90625 
Q 16.5 51.421875 16.5 36.375 
Q 16.5 21.390625 20.328125 13.890625 
Q 24.171875 6.390625 31.78125 6.390625 
Q 39.453125 6.390625 43.28125 13.890625 
Q 47.125 21.390625 47.125 36.375 
Q 47.125 51.421875 43.28125 58.90625 
Q 39.453125 66.40625 31.78125 66.40625 
z
M 31.78125 74.21875 
Q 44.046875 74.21875 50.515625 64.515625 
Q 56.984375 54.828125 56.984375 36.375 
Q 56.984375 17.96875 50.515625 8.265625 
Q 44.046875 -1.421875 31.78125 -1.421875 
Q 19.53125 -1.421875 13.0625 8.265625 
Q 6.59375 17.96875 6.59375 36.375 
Q 6.59375 54.828125 13.0625 64.515625 
Q 19.53125 74.21875 31.78125 74.21875 
z
" id="DejaVuSans-48"/>
      </defs>
      <g transform="translate(104.698313 252.616406)scale(0.23 -0.23)">
       <use xlink:href="#DejaVuSans-48"/>
      </g>
     </g>
    </g>
    <g id="xtick_2">
     <g id="line2d_2">
      <g>
       <use style="stroke:#000000;stroke-width:0.8;" x="192.322719" xlink:href="#ma638710831" y="228.14"/>
      </g>
     </g>
     <g id="text_2">
      <!-- 25 -->
      <defs>
       <path d="M 19.1875 8.296875 
L 53.609375 8.296875 
L 53.609375 0 
L 7.328125 0 
L 7.328125 8.296875 
Q 12.9375 14.109375 22.625 23.890625 
Q 32.328125 33.6875 34.8125 36.53125 
Q 39.546875 41.84375 41.421875 45.53125 
Q 43.3125 49.21875 43.3125 52.78125 
Q 43.3125 58.59375 39.234375 62.25 
Q 35.15625 65.921875 28.609375 65.921875 
Q 23.96875 65.921875 18.8125 64.3125 
Q 13.671875 62.703125 7.8125 59.421875 
L 7.8125 69.390625 
Q 13.765625 71.78125 18.9375 73 
Q 24.125 74.21875 28.421875 74.21875 
Q 39.75 74.21875 46.484375 68.546875 
Q 53.21875 62.890625 53.21875 53.421875 
Q 53.21875 48.921875 51.53125 44.890625 
Q 49.859375 40.875 45.40625 35.40625 
Q 44.1875 33.984375 37.640625 27.21875 
Q 31.109375 20.453125 19.1875 8.296875 
z
" id="DejaVuSans-50"/>
       <path d="M 10.796875 72.90625 
L 49.515625 72.90625 
L 49.515625 64.59375 
L 19.828125 64.59375 
L 19.828125 46.734375 
Q 21.96875 47.46875 24.109375 47.828125 
Q 26.265625 48.1875 28.421875 48.1875 
Q 40.625 48.1875 47.75 41.5 
Q 54.890625 34.8125 54.890625 23.390625 
Q 54.890625 11.625 47.5625 5.09375 
Q 40.234375 -1.421875 26.90625 -1.421875 
Q 22.3125 -1.421875 17.546875 -0.640625 
Q 12.796875 0.140625 7.71875 1.703125 
L 7.71875 11.625 
Q 12.109375 9.234375 16.796875 8.0625 
Q 21.484375 6.890625 26.703125 6.890625 
Q 35.15625 6.890625 40.078125 11.328125 
Q 45.015625 15.765625 45.015625 23.390625 
Q 45.015625 31 40.078125 35.4375 
Q 35.15625 39.890625 26.703125 39.890625 
Q 22.75 39.890625 18.8125 39.015625 
Q 14.890625 38.140625 10.796875 36.28125 
z
" id="DejaVuSans-53"/>
      </defs>
      <g transform="translate(177.688969 252.616406)scale(0.23 -0.23)">
       <use xlink:href="#DejaVuSans-50"/>
       <use x="63.623047" xlink:href="#DejaVuSans-53"/>
      </g>
     </g>
    </g>
    <g id="xtick_3">
     <g id="line2d_3">
      <g>
       <use style="stroke:#000000;stroke-width:0.8;" x="272.63025" xlink:href="#ma638710831" y="228.14"/>
      </g>
     </g>
     <g id="text_3">
      <!-- 50 -->
      <g transform="translate(257.9965 252.616406)scale(0.23 -0.23)">
       <use xlink:href="#DejaVuSans-53"/>
       <use x="63.623047" xlink:href="#DejaVuSans-48"/>
      </g>
     </g>
    </g>
    <g id="xtick_4">
     <g id="line2d_4">
      <g>
       <use style="stroke:#000000;stroke-width:0.8;" x="352.937781" xlink:href="#ma638710831" y="228.14"/>
      </g>
     </g>
     <g id="text_4">
      <!-- 75 -->
      <defs>
       <path d="M 8.203125 72.90625 
L 55.078125 72.90625 
L 55.078125 68.703125 
L 28.609375 0 
L 18.3125 0 
L 43.21875 64.59375 
L 8.203125 64.59375 
z
" id="DejaVuSans-55"/>
      </defs>
      <g transform="translate(338.304031 252.616406)scale(0.23 -0.23)">
       <use xlink:href="#DejaVuSans-55"/>
       <use x="63.623047" xlink:href="#DejaVuSans-53"/>
      </g>
     </g>
    </g>
    <g id="xtick_5">
     <g id="line2d_5">
      <g>
       <use style="stroke:#000000;stroke-width:0.8;" x="433.245313" xlink:href="#ma638710831" y="228.14"/>
      </g>
     </g>
     <g id="text_5">
      <!-- 100 -->
      <defs>
       <path d="M 12.40625 8.296875 
L 28.515625 8.296875 
L 28.515625 63.921875 
L 10.984375 60.40625 
L 10.984375 69.390625 
L 28.421875 72.90625 
L 38.28125 72.90625 
L 38.28125 8.296875 
L 54.390625 8.296875 
L 54.390625 0 
L 12.40625 0 
z
" id="DejaVuSans-49"/>
      </defs>
      <g transform="translate(411.294688 252.616406)scale(0.23 -0.23)">
       <use xlink:href="#DejaVuSans-49"/>
       <use x="63.623047" xlink:href="#DejaVuSans-48"/>
       <use x="127.246094" xlink:href="#DejaVuSans-48"/>
      </g>
     </g>
    </g>
    <g id="text_6">
     <!-- time (hours) -->
     <defs>
      <path d="M 18.3125 70.21875 
L 18.3125 54.6875 
L 36.8125 54.6875 
L 36.8125 47.703125 
L 18.3125 47.703125 
L 18.3125 18.015625 
Q 18.3125 11.328125 20.140625 9.421875 
Q 21.96875 7.515625 27.59375 7.515625 
L 36.8125 7.515625 
L 36.8125 0 
L 27.59375 0 
Q 17.1875 0 13.234375 3.875 
Q 9.28125 7.765625 9.28125 18.015625 
L 9.28125 47.703125 
L 2.6875 47.703125 
L 2.6875 54.6875 
L 9.28125 54.6875 
L 9.28125 70.21875 
z
" id="DejaVuSans-116"/>
      <path d="M 9.421875 54.6875 
L 18.40625 54.6875 
L 18.40625 0 
L 9.421875 0 
z
M 9.421875 75.984375 
L 18.40625 75.984375 
L 18.40625 64.59375 
L 9.421875 64.59375 
z
" id="DejaVuSans-105"/>
      <path d="M 52 44.1875 
Q 55.375 50.25 60.0625 53.125 
Q 64.75 56 71.09375 56 
Q 79.640625 56 84.28125 50.015625 
Q 88.921875 44.046875 88.921875 33.015625 
L 88.921875 0 
L 79.890625 0 
L 79.890625 32.71875 
Q 79.890625 40.578125 77.09375 44.375 
Q 74.3125 48.1875 68.609375 48.1875 
Q 61.625 48.1875 57.5625 43.546875 
Q 53.515625 38.921875 53.515625 30.90625 
L 53.515625 0 
L 44.484375 0 
L 44.484375 32.71875 
Q 44.484375 40.625 41.703125 44.40625 
Q 38.921875 48.1875 33.109375 48.1875 
Q 26.21875 48.1875 22.15625 43.53125 
Q 18.109375 38.875 18.109375 30.90625 
L 18.109375 0 
L 9.078125 0 
L 9.078125 54.6875 
L 18.109375 54.6875 
L 18.109375 46.1875 
Q 21.1875 51.21875 25.484375 53.609375 
Q 29.78125 56 35.6875 56 
Q 41.65625 56 45.828125 52.96875 
Q 50 49.953125 52 44.1875 
z
" id="DejaVuSans-109"/>
      <path d="M 56.203125 29.59375 
L 56.203125 25.203125 
L 14.890625 25.203125 
Q 15.484375 15.921875 20.484375 11.0625 
Q 25.484375 6.203125 34.421875 6.203125 
Q 39.59375 6.203125 44.453125 7.46875 
Q 49.3125 8.734375 54.109375 11.28125 
L 54.109375 2.78125 
Q 49.265625 0.734375 44.1875 -0.34375 
Q 39.109375 -1.421875 33.890625 -1.421875 
Q 20.796875 -1.421875 13.15625 6.1875 
Q 5.515625 13.8125 5.515625 26.8125 
Q 5.515625 40.234375 12.765625 48.109375 
Q 20.015625 56 32.328125 56 
Q 43.359375 56 49.78125 48.890625 
Q 56.203125 41.796875 56.203125 29.59375 
z
M 47.21875 32.234375 
Q 47.125 39.59375 43.09375 43.984375 
Q 39.0625 48.390625 32.421875 48.390625 
Q 24.90625 48.390625 20.390625 44.140625 
Q 15.875 39.890625 15.1875 32.171875 
z
" id="DejaVuSans-101"/>
      <path id="DejaVuSans-32"/>
      <path d="M 31 75.875 
Q 24.46875 64.65625 21.28125 53.65625 
Q 18.109375 42.671875 18.109375 31.390625 
Q 18.109375 20.125 21.3125 9.0625 
Q 24.515625 -2 31 -13.1875 
L 23.1875 -13.1875 
Q 15.875 -1.703125 12.234375 9.375 
Q 8.59375 20.453125 8.59375 31.390625 
Q 8.59375 42.28125 12.203125 53.3125 
Q 15.828125 64.359375 23.1875 75.875 
z
" id="DejaVuSans-40"/>
      <path d="M 54.890625 33.015625 
L 54.890625 0 
L 45.90625 0 
L 45.90625 32.71875 
Q 45.90625 40.484375 42.875 44.328125 
Q 39.84375 48.1875 33.796875 48.1875 
Q 26.515625 48.1875 22.3125 43.546875 
Q 18.109375 38.921875 18.109375 30.90625 
L 18.109375 0 
L 9.078125 0 
L 9.078125 75.984375 
L 18.109375 75.984375 
L 18.109375 46.1875 
Q 21.34375 51.125 25.703125 53.5625 
Q 30.078125 56 35.796875 56 
Q 45.21875 56 50.046875 50.171875 
Q 54.890625 44.34375 54.890625 33.015625 
z
" id="DejaVuSans-104"/>
      <path d="M 30.609375 48.390625 
Q 23.390625 48.390625 19.1875 42.75 
Q 14.984375 37.109375 14.984375 27.296875 
Q 14.984375 17.484375 19.15625 11.84375 
Q 23.34375 6.203125 30.609375 6.203125 
Q 37.796875 6.203125 41.984375 11.859375 
Q 46.1875 17.53125 46.1875 27.296875 
Q 46.1875 37.015625 41.984375 42.703125 
Q 37.796875 48.390625 30.609375 48.390625 
z
M 30.609375 56 
Q 42.328125 56 49.015625 48.375 
Q 55.71875 40.765625 55.71875 27.296875 
Q 55.71875 13.875 49.015625 6.21875 
Q 42.328125 -1.421875 30.609375 -1.421875 
Q 18.84375 -1.421875 12.171875 6.21875 
Q 5.515625 13.875 5.515625 27.296875 
Q 5.515625 40.765625 12.171875 48.375 
Q 18.84375 56 30.609375 56 
z
" id="DejaVuSans-111"/>
      <path d="M 8.5 21.578125 
L 8.5 54.6875 
L 17.484375 54.6875 
L 17.484375 21.921875 
Q 17.484375 14.15625 20.5 10.265625 
Q 23.53125 6.390625 29.59375 6.390625 
Q 36.859375 6.390625 41.078125 11.03125 
Q 45.3125 15.671875 45.3125 23.6875 
L 45.3125 54.6875 
L 54.296875 54.6875 
L 54.296875 0 
L 45.3125 0 
L 45.3125 8.40625 
Q 42.046875 3.421875 37.71875 1 
Q 33.40625 -1.421875 27.6875 -1.421875 
Q 18.265625 -1.421875 13.375 4.4375 
Q 8.5 10.296875 8.5 21.578125 
z
M 31.109375 56 
z
" id="DejaVuSans-117"/>
      <path d="M 41.109375 46.296875 
Q 39.59375 47.171875 37.8125 47.578125 
Q 36.03125 48 33.890625 48 
Q 26.265625 48 22.1875 43.046875 
Q 18.109375 38.09375 18.109375 28.8125 
L 18.109375 0 
L 9.078125 0 
L 9.078125 54.6875 
L 18.109375 54.6875 
L 18.109375 46.1875 
Q 20.953125 51.171875 25.484375 53.578125 
Q 30.03125 56 36.53125 56 
Q 37.453125 56 38.578125 55.875 
Q 39.703125 55.765625 41.0625 55.515625 
z
" id="DejaVuSans-114"/>
      <path d="M 44.28125 53.078125 
L 44.28125 44.578125 
Q 40.484375 46.53125 36.375 47.5 
Q 32.28125 48.484375 27.875 48.484375 
Q 21.1875 48.484375 17.84375 46.4375 
Q 14.5 44.390625 14.5 40.28125 
Q 14.5 37.15625 16.890625 35.375 
Q 19.28125 33.59375 26.515625 31.984375 
L 29.59375 31.296875 
Q 39.15625 29.25 43.1875 25.515625 
Q 47.21875 21.78125 47.21875 15.09375 
Q 47.21875 7.46875 41.1875 3.015625 
Q 35.15625 -1.421875 24.609375 -1.421875 
Q 20.21875 -1.421875 15.453125 -0.5625 
Q 10.6875 0.296875 5.421875 2 
L 5.421875 11.28125 
Q 10.40625 8.6875 15.234375 7.390625 
Q 20.0625 6.109375 24.8125 6.109375 
Q 31.15625 6.109375 34.5625 8.28125 
Q 37.984375 10.453125 37.984375 14.40625 
Q 37.984375 18.0625 35.515625 20.015625 
Q 33.0625 21.96875 24.703125 23.78125 
L 21.578125 24.515625 
Q 13.234375 26.265625 9.515625 29.90625 
Q 5.8125 33.546875 5.8125 39.890625 
Q 5.8125 47.609375 11.28125 51.796875 
Q 16.75 56 26.8125 56 
Q 31.78125 56 36.171875 55.265625 
Q 40.578125 54.546875 44.28125 53.078125 
z
" id="DejaVuSans-115"/>
      <path d="M 8.015625 75.875 
L 15.828125 75.875 
Q 23.140625 64.359375 26.78125 53.3125 
Q 30.421875 42.28125 30.421875 31.390625 
Q 30.421875 20.453125 26.78125 9.375 
Q 23.140625 -1.703125 15.828125 -13.1875 
L 8.015625 -13.1875 
Q 14.5 -2 17.703125 9.0625 
Q 20.90625 20.125 20.90625 31.390625 
Q 20.90625 42.671875 17.703125 53.65625 
Q 14.5 64.65625 8.015625 75.875 
z
" id="DejaVuSans-41"/>
     </defs>
     <g transform="translate(173.314062 284.195)scale(0.3 -0.3)">
      <use xlink:href="#DejaVuSans-116"/>
      <use x="39.208984" xlink:href="#DejaVuSans-105"/>
      <use x="66.992188" xlink:href="#DejaVuSans-109"/>
      <use x="164.404297" xlink:href="#DejaVuSans-101"/>
      <use x="225.927734" xlink:href="#DejaVuSans-32"/>
      <use x="257.714844" xlink:href="#DejaVuSans-40"/>
      <use x="296.728516" xlink:href="#DejaVuSans-104"/>
      <use x="360.107422" xlink:href="#DejaVuSans-111"/>
      <use x="421.289062" xlink:href="#DejaVuSans-117"/>
      <use x="484.667969" xlink:href="#DejaVuSans-114"/>
      <use x="525.78125" xlink:href="#DejaVuSans-115"/>
      <use x="577.880859" xlink:href="#DejaVuSans-41"/>
     </g>
    </g>
   </g>
   <g id="matplotlib.axis_2">
    <g id="ytick_1">
     <g id="line2d_6">
      <defs>
       <path d="M 0 0 
L -3.5 0 
" id="mfa02f88941" style="stroke:#000000;stroke-width:0.8;"/>
      </defs>
      <g>
       <use style="stroke:#000000;stroke-width:0.8;" x="98.445312" xlink:href="#mfa02f88941" y="218.360731"/>
      </g>
     </g>
     <g id="text_7">
      <!-- 0.00 -->
      <defs>
       <path d="M 10.6875 12.40625 
L 21 12.40625 
L 21 0 
L 10.6875 0 
z
" id="DejaVuSans-46"/>
      </defs>
      <g transform="translate(40.234375 227.098935)scale(0.23 -0.23)">
       <use xlink:href="#DejaVuSans-48"/>
       <use x="63.623047" xlink:href="#DejaVuSans-46"/>
       <use x="95.410156" xlink:href="#DejaVuSans-48"/>
       <use x="159.033203" xlink:href="#DejaVuSans-48"/>
      </g>
     </g>
    </g>
    <g id="ytick_2">
     <g id="line2d_7">
      <g>
       <use style="stroke:#000000;stroke-width:0.8;" x="98.445312" xlink:href="#mfa02f88941" y="168.916458"/>
      </g>
     </g>
     <g id="text_8">
      <!-- 0.25 -->
      <g transform="translate(40.234375 177.654661)scale(0.23 -0.23)">
       <use xlink:href="#DejaVuSans-48"/>
       <use x="63.623047" xlink:href="#DejaVuSans-46"/>
       <use x="95.410156" xlink:href="#DejaVuSans-50"/>
       <use x="159.033203" xlink:href="#DejaVuSans-53"/>
      </g>
     </g>
    </g>
    <g id="ytick_3">
     <g id="line2d_8">
      <g>
       <use style="stroke:#000000;stroke-width:0.8;" x="98.445312" xlink:href="#mfa02f88941" y="119.472184"/>
      </g>
     </g>
     <g id="text_9">
      <!-- 0.50 -->
      <g transform="translate(40.234375 128.210387)scale(0.23 -0.23)">
       <use xlink:href="#DejaVuSans-48"/>
       <use x="63.623047" xlink:href="#DejaVuSans-46"/>
       <use x="95.410156" xlink:href="#DejaVuSans-53"/>
       <use x="159.033203" xlink:href="#DejaVuSans-48"/>
      </g>
     </g>
    </g>
    <g id="ytick_4">
     <g id="line2d_9">
      <g>
       <use style="stroke:#000000;stroke-width:0.8;" x="98.445312" xlink:href="#mfa02f88941" y="70.02791"/>
      </g>
     </g>
     <g id="text_10">
      <!-- 0.75 -->
      <g transform="translate(40.234375 78.766113)scale(0.23 -0.23)">
       <use xlink:href="#DejaVuSans-48"/>
       <use x="63.623047" xlink:href="#DejaVuSans-46"/>
       <use x="95.410156" xlink:href="#DejaVuSans-55"/>
       <use x="159.033203" xlink:href="#DejaVuSans-53"/>
      </g>
     </g>
    </g>
    <g id="ytick_5">
     <g id="line2d_10">
      <g>
       <use style="stroke:#000000;stroke-width:0.8;" x="98.445312" xlink:href="#mfa02f88941" y="20.583636"/>
      </g>
     </g>
     <g id="text_11">
      <!-- 1.00 -->
      <g transform="translate(40.234375 29.321839)scale(0.23 -0.23)">
       <use xlink:href="#DejaVuSans-49"/>
       <use x="63.623047" xlink:href="#DejaVuSans-46"/>
       <use x="95.410156" xlink:href="#DejaVuSans-48"/>
       <use x="159.033203" xlink:href="#DejaVuSans-48"/>
      </g>
     </g>
    </g>
    <g id="text_12">
     <!-- ICDF -->
     <defs>
      <path d="M 9.8125 72.90625 
L 19.671875 72.90625 
L 19.671875 0 
L 9.8125 0 
z
" id="DejaVuSans-73"/>
      <path d="M 64.40625 67.28125 
L 64.40625 56.890625 
Q 59.421875 61.53125 53.78125 63.8125 
Q 48.140625 66.109375 41.796875 66.109375 
Q 29.296875 66.109375 22.65625 58.46875 
Q 16.015625 50.828125 16.015625 36.375 
Q 16.015625 21.96875 22.65625 14.328125 
Q 29.296875 6.6875 41.796875 6.6875 
Q 48.140625 6.6875 53.78125 8.984375 
Q 59.421875 11.28125 64.40625 15.921875 
L 64.40625 5.609375 
Q 59.234375 2.09375 53.4375 0.328125 
Q 47.65625 -1.421875 41.21875 -1.421875 
Q 24.65625 -1.421875 15.125 8.703125 
Q 5.609375 18.84375 5.609375 36.375 
Q 5.609375 53.953125 15.125 64.078125 
Q 24.65625 74.21875 41.21875 74.21875 
Q 47.75 74.21875 53.53125 72.484375 
Q 59.328125 70.75 64.40625 67.28125 
z
" id="DejaVuSans-67"/>
      <path d="M 19.671875 64.796875 
L 19.671875 8.109375 
L 31.59375 8.109375 
Q 46.6875 8.109375 53.6875 14.9375 
Q 60.6875 21.78125 60.6875 36.53125 
Q 60.6875 51.171875 53.6875 57.984375 
Q 46.6875 64.796875 31.59375 64.796875 
z
M 9.8125 72.90625 
L 30.078125 72.90625 
Q 51.265625 72.90625 61.171875 64.09375 
Q 71.09375 55.28125 71.09375 36.53125 
Q 71.09375 17.671875 61.125 8.828125 
Q 51.171875 0 30.078125 0 
L 9.8125 0 
z
" id="DejaVuSans-68"/>
      <path d="M 9.8125 72.90625 
L 51.703125 72.90625 
L 51.703125 64.59375 
L 19.671875 64.59375 
L 19.671875 43.109375 
L 48.578125 43.109375 
L 48.578125 34.8125 
L 19.671875 34.8125 
L 19.671875 0 
L 9.8125 0 
z
" id="DejaVuSans-70"/>
     </defs>
     <g transform="translate(29.995312 154.496562)rotate(-90)scale(0.3 -0.3)">
      <use xlink:href="#DejaVuSans-73"/>
      <use x="29.492188" xlink:href="#DejaVuSans-67"/>
      <use x="99.316406" xlink:href="#DejaVuSans-68"/>
      <use x="176.318359" xlink:href="#DejaVuSans-70"/>
     </g>
    </g>
   </g>
   <g id="line2d_11">
    <path clip-path="url(#p99ef85976c)" d="M 112.015188 20.583636 
L 114.147799 20.89674 
L 114.699244 21.001108 
L 116.603425 21.209844 
L 116.81044 21.314211 
L 118.864528 21.522947 
L 119.289266 21.627315 
L 120.608094 21.836051 
L 120.874894 21.940419 
L 127.62608 22.462258 
L 128.328325 22.670994 
L 128.885124 22.879729 
L 129.2822 23.088465 
L 132.308009 23.505936 
L 132.308009 23.610304 
L 135.418587 23.81904 
L 135.522987 24.027776 
L 136.116371 24.236511 
L 138.313228 24.653983 
L 138.416735 24.967086 
L 140.699254 25.175822 
L 141.571929 25.384558 
L 142.236697 25.593294 
L 142.673034 25.802029 
L 144.089124 26.010765 
L 144.240816 26.115133 
L 147.149733 26.323869 
L 147.213979 26.74134 
L 151.560401 27.680651 
L 151.660339 27.785019 
L 152.4188 27.993754 
L 152.4188 28.098122 
L 152.75163 28.306858 
L 152.943475 28.411226 
L 153.970519 28.724329 
L 154.115073 28.828697 
L 156.162915 29.037433 
L 156.286946 29.141801 
L 157.154267 29.350537 
L 157.329159 29.66364 
L 157.947527 30.081112 
L 158.282142 30.602951 
L 158.893371 30.916055 
L 161.305274 31.229158 
L 161.535489 31.437894 
L 161.538166 31.64663 
L 162.642841 32.064101 
L 163.735023 32.272837 
L 164.900374 32.58594 
L 164.992282 32.899044 
L 165.384897 33.10778 
L 165.557112 33.316515 
L 167.68883 33.525251 
L 169.656365 33.838355 
L 169.998118 34.04709 
L 170.891316 34.255826 
L 172.674143 34.882033 
L 172.800851 34.986401 
L 174.663986 35.299505 
L 174.850478 35.50824 
L 174.868324 35.612608 
L 175.44743 35.821344 
L 175.473307 35.925712 
L 176.344198 36.238815 
L 176.765366 36.656287 
L 176.765366 36.760655 
L 176.991119 36.96939 
L 177.259703 37.178126 
L 179.814375 38.43054 
L 181.064496 38.639276 
L 181.144803 38.743644 
L 181.942525 38.95238 
L 182.039786 39.056748 
L 182.465416 39.265483 
L 182.901754 39.578587 
L 182.9312 39.682955 
L 183.715537 40.204794 
L 184.742581 40.41353 
L 184.864827 40.517898 
L 186.313931 40.726633 
L 186.356762 40.831001 
L 186.750269 41.039737 
L 186.762761 41.248473 
L 186.966207 41.457208 
L 187.813005 41.770312 
L 187.970943 41.87468 
L 189.189833 42.187783 
L 189.242479 42.292151 
L 190.197247 42.605255 
L 192.072874 43.022726 
L 192.129981 43.127094 
L 192.475304 43.33583 
L 192.544011 43.440198 
L 193.971701 43.753301 
L 194.059147 43.962037 
L 194.420531 44.275141 
L 194.482992 44.379508 
L 195.220037 44.588244 
L 195.941912 44.79698 
L 196.062373 44.901348 
L 196.604895 45.110084 
L 196.637018 45.214451 
L 197.634616 45.736291 
L 197.634616 46.153762 
L 198.670584 46.362498 
L 199.165813 47.093073 
L 200.320457 47.301809 
L 200.400765 47.406176 
L 201.827562 47.928016 
L 201.9391 48.136751 
L 202.88316 48.554223 
L 202.88316 48.658591 
L 203.865588 48.971694 
L 203.867373 49.076062 
L 205.506539 49.493534 
L 205.562754 49.597902 
L 206.287307 49.911005 
L 206.306045 50.015373 
L 208.038011 50.328477 
L 208.093334 50.432844 
L 208.603733 50.64158 
L 209.631669 50.850316 
L 209.943084 51.059052 
L 209.959145 51.163419 
L 210.468652 51.267787 
L 212.489725 51.476523 
L 213.216954 51.789627 
L 213.222308 51.893994 
L 214.345721 52.10273 
L 214.727628 52.207098 
L 216.718363 52.520202 
L 216.728178 52.624569 
L 217.413469 52.937673 
L 218.783159 53.250777 
L 218.971435 53.668248 
L 219.226635 53.772616 
L 220.364325 53.981352 
L 220.473186 54.294455 
L 221.561799 54.607559 
L 221.601953 54.816295 
L 222.399674 55.129398 
L 222.462136 55.233766 
L 222.856535 55.442502 
L 222.88955 55.54687 
L 224.988254 55.859973 
L 225.028408 56.068709 
L 225.775268 56.277445 
L 226.010836 56.48618 
L 226.021544 56.590548 
L 227.128003 56.903652 
L 227.922156 57.321123 
L 227.980155 57.425491 
L 228.401324 57.634227 
L 228.496801 57.738595 
L 229.422122 58.156066 
L 229.530983 58.364802 
L 229.863813 58.573537 
L 229.863813 58.677905 
L 230.287659 58.991009 
L 230.570519 59.40848 
L 230.584796 59.721584 
L 230.755227 59.825952 
L 231.194241 60.034688 
L 231.444979 60.347791 
L 231.511902 60.452159 
L 232.4051 60.765263 
L 232.727223 61.287102 
L 232.944945 61.495838 
L 234.733127 61.704573 
L 235.645063 62.017677 
L 235.645063 62.122045 
L 235.985924 62.33078 
L 236.021616 62.435148 
L 237.006722 62.748252 
L 237.228014 62.956988 
L 238.655703 63.270091 
L 239.309763 63.896298 
L 239.411486 64.418138 
L 240.701761 64.731241 
L 240.701761 65.044345 
L 240.94536 65.357448 
L 241.044406 65.77492 
L 241.551236 65.983656 
L 241.553021 66.192391 
L 243.535724 66.922966 
L 243.923877 67.131702 
L 243.963139 67.23607 
L 244.986614 67.549173 
L 245.106183 67.757909 
L 245.387259 68.175381 
L 245.466674 68.488484 
L 246.036858 69.219059 
L 246.038642 69.323427 
L 246.21175 69.532163 
L 246.267965 69.740899 
L 246.561534 69.949634 
L 246.561534 70.054002 
L 246.872948 70.367106 
L 246.890794 70.575841 
L 247.668885 70.993313 
L 247.76347 71.306416 
L 247.914269 71.515152 
L 248.218546 72.350095 
L 248.45233 72.767566 
L 248.841375 72.976302 
L 249.610543 73.706877 
L 250.311895 75.376763 
L 250.312788 75.481131 
L 251.450478 76.420442 
L 252.292814 76.629177 
L 252.458783 77.046649 
L 253.35912 77.672856 
L 253.35912 77.881592 
L 254.213949 78.612167 
L 255.338254 79.134006 
L 255.462285 79.238374 
L 255.883453 79.44711 
L 255.925392 79.551477 
L 258.690648 80.90826 
L 259.097539 81.116995 
L 259.442862 81.325731 
L 259.702523 81.534467 
L 259.739999 81.951938 
L 260.05766 82.160674 
L 260.235229 82.36941 
L 260.858951 82.786881 
L 260.858951 82.891249 
L 261.490704 83.30872 
L 261.708426 83.83056 
L 262.157256 84.143663 
L 263.241408 84.352399 
L 263.387746 84.561135 
L 263.476976 84.76987 
L 263.530515 85.709181 
L 263.684884 85.813549 
L 264.075714 86.022285 
L 264.154237 86.335388 
L 264.651251 86.75286 
L 264.729774 86.961595 
L 264.729774 87.065963 
L 264.951066 87.274699 
L 265.392757 87.483435 
L 265.392757 87.587803 
L 265.988818 88.109642 
L 266.16371 88.631481 
L 266.716047 88.840217 
L 266.807954 89.153321 
L 267.43703 89.466424 
L 267.43703 89.67516 
L 267.613707 89.883896 
L 267.613707 89.988263 
L 268.879889 90.823206 
L 269.028011 90.927574 
L 269.493795 91.13631 
L 269.599087 91.240678 
L 269.939948 91.449413 
L 269.939948 91.553781 
L 270.244224 91.866885 
L 270.318286 92.075621 
L 270.700193 92.284356 
L 270.8849 92.493092 
L 271.366745 92.701828 
L 271.366745 92.806196 
L 271.687083 93.119299 
L 271.716529 93.223667 
L 271.965483 93.432403 
L 272.004744 93.641139 
L 272.23139 93.849874 
L 272.23139 93.954242 
L 272.663266 94.162978 
L 272.976465 94.476081 
L 273.519879 94.997921 
L 273.557356 95.102289 
L 273.761694 95.311024 
L 273.761694 95.415392 
L 274.547816 95.624128 
L 275.088553 96.041599 
L 275.112645 96.354703 
L 276.362766 96.667806 
L 276.606366 96.876542 
L 276.606366 96.98091 
L 277.41301 97.189646 
L 278.472177 98.233324 
L 279.323437 98.546428 
L 279.323437 98.650796 
L 280.075651 98.859532 
L 280.165774 99.068267 
L 281.000972 99.694474 
L 281.83974 99.90321 
L 282.163647 100.111946 
L 282.163647 100.320682 
L 282.969399 100.842521 
L 283.063091 101.259992 
L 283.431613 101.677464 
L 283.616321 101.781832 
L 284.764718 101.990567 
L 285.277794 102.721142 
L 286.308408 103.034246 
L 288.04305 104.077925 
L 288.87111 104.391028 
L 288.988002 104.599764 
L 289.094187 104.8085 
L 289.996308 105.330339 
L 290.759229 105.539075 
L 290.881475 105.643442 
L 291.521259 105.852178 
L 291.54892 105.956546 
L 291.926366 106.165282 
L 293.36387 106.374017 
L 293.583378 106.582753 
L 293.908177 106.791489 
L 293.941192 107.104592 
L 294.20353 107.313328 
L 294.498883 107.626432 
L 295.162759 107.939535 
L 295.486666 108.252639 
L 297.416724 109.713789 
L 297.729031 109.922525 
L 297.742415 110.026893 
L 298.19303 110.235628 
L 299.338751 111.801146 
L 299.572535 112.009882 
L 299.572535 112.11425 
L 299.797396 112.322986 
L 299.894657 112.531721 
L 300.050811 112.740457 
L 300.436287 112.949193 
L 301.019855 113.262296 
L 301.267916 113.471032 
L 301.70693 113.679768 
L 301.808653 113.888503 
L 302.116499 114.097239 
L 302.939205 115.140918 
L 303.863634 115.454021 
L 304.598894 115.975861 
L 304.614955 116.4977 
L 305.406431 116.706436 
L 306.003383 117.228275 
L 306.003383 117.332643 
L 306.500398 117.750114 
L 306.536982 117.854482 
L 306.900151 118.063218 
L 306.933166 118.271954 
L 307.613996 118.585057 
L 307.616672 118.898161 
L 308.129748 119.106896 
L 308.214517 119.211264 
L 308.746332 119.42 
L 308.746332 119.524368 
L 310.335529 120.463679 
L 310.574667 120.776782 
L 311.316173 120.985518 
L 311.360788 121.089886 
L 312.544878 121.402989 
L 312.607339 121.716093 
L 313.353307 122.133564 
L 313.588876 122.551036 
L 313.96989 122.759772 
L 314.945181 123.490347 
L 315.325303 124.429657 
L 315.724164 124.638393 
L 315.807148 124.951497 
L 315.960625 125.577704 
L 316.163178 125.786439 
L 316.212255 125.995175 
L 316.312193 126.099543 
L 316.608439 126.308279 
L 316.612008 126.412647 
L 317.016223 126.621382 
L 317.016223 126.72575 
L 317.260715 126.934486 
L 317.353514 127.143222 
L 317.715791 127.560693 
L 317.732744 127.665061 
L 318.18782 128.082532 
L 318.383235 128.500004 
L 319.018557 128.70874 
L 319.144372 129.021843 
L 319.17828 129.126211 
L 319.54591 129.334947 
L 319.565541 129.543682 
L 319.689571 129.752418 
L 320.154463 130.378625 
L 320.391816 130.587361 
L 320.433754 130.796097 
L 320.546185 131.004832 
L 320.609539 131.422304 
L 321.073538 131.735408 
L 321.08603 132.152879 
L 321.382276 132.57035 
L 321.67406 133.718397 
L 321.915875 133.927133 
L 321.973874 134.448972 
L 323.38461 137.162536 
L 323.469379 137.47564 
L 323.745994 138.310583 
L 323.820948 138.519318 
L 324.278701 138.93679 
L 324.458946 139.354261 
L 325.33876 140.919779 
L 325.537744 141.128515 
L 325.775098 141.441619 
L 325.782236 141.545986 
L 326.264973 142.067826 
L 326.44165 142.589665 
L 326.707557 142.798401 
L 326.935095 143.111504 
L 327.056449 143.32024 
L 327.176018 143.946447 
L 327.262571 144.259551 
L 327.442817 144.468286 
L 327.594509 145.198861 
L 327.737278 145.616333 
L 327.825616 146.033804 
L 327.979985 146.555644 
L 328.095985 146.973115 
L 328.158447 147.077483 
L 328.376169 147.286219 
L 328.479677 147.808058 
L 328.860691 148.225529 
L 329.108752 148.434265 
L 329.383583 148.851737 
L 329.479059 149.269208 
L 329.734259 150.208519 
L 329.973397 150.62599 
L 330.177735 151.14783 
L 330.217889 151.460933 
L 330.486473 151.982772 
L 330.622995 153.026451 
L 331.037918 154.383233 
L 331.061118 154.591969 
L 331.186933 154.800705 
L 331.304717 155.53128 
L 331.436778 156.157487 
L 331.683947 156.47059 
L 331.857055 157.514269 
L 331.961454 158.45358 
L 332.02927 158.766683 
L 332.624438 162.523926 
L 332.778807 162.941398 
L 332.886776 163.880708 
L 332.951914 164.29818 
L 333.294559 166.594273 
L 333.429298 168.055423 
L 334.187758 171.395194 
L 334.249327 172.021402 
L 334.464372 172.438873 
L 334.559849 172.960712 
L 334.662464 173.169448 
L 334.752587 173.900023 
L 334.815049 174.52623 
L 334.882864 175.465541 
L 335.08274 175.674277 
L 335.191602 176.196116 
L 335.320986 176.717955 
L 335.428955 177.44853 
L 335.745724 179.640255 
L 335.820677 179.953359 
L 335.966123 181.310141 
L 336.271292 182.771291 
L 336.367661 184.232441 
L 336.474738 184.441177 
L 336.63803 185.067384 
L 336.847721 186.215431 
L 336.969967 187.467845 
L 337.092213 187.676581 
L 337.16449 188.302788 
L 337.288521 189.242098 
L 337.473228 190.390145 
L 337.81052 192.373134 
L 337.903319 192.790606 
L 338.247749 196.130377 
L 338.422641 196.339113 
L 338.532395 198.322102 
L 338.986579 199.574517 
L 339.955623 206.045324 
L 340.027007 206.358428 
L 340.131407 207.297738 
L 340.379468 208.550153 
L 340.379468 208.758888 
L 340.552576 208.967624 
L 340.735498 210.220038 
L 340.803314 210.63751 
L 340.959467 211.681188 
L 341.399374 213.351074 
L 341.531435 213.872914 
L 341.646543 214.290385 
L 341.729527 214.603489 
L 341.893711 214.812224 
L 342.571864 217.108317 
L 342.675371 217.317053 
L 342.74051 217.630156 
L 343.221463 217.94326 
L 343.264293 218.151996 
L 383.412705 218.256364 
L 383.412705 218.256364 
" style="fill:none;stroke:#ff0000;stroke-linecap:square;stroke-width:4;"/>
   </g>
   <g id="patch_3">
    <path d="M 98.445312 228.14 
L 98.445312 10.7 
" style="fill:none;stroke:#000000;stroke-linecap:square;stroke-linejoin:miter;stroke-width:0.8;"/>
   </g>
   <g id="patch_4">
    <path d="M 433.245313 228.14 
L 433.245313 10.7 
" style="fill:none;stroke:#000000;stroke-linecap:square;stroke-linejoin:miter;stroke-width:0.8;"/>
   </g>
   <g id="patch_5">
    <path d="M 98.445312 228.14 
L 433.245313 228.14 
" style="fill:none;stroke:#000000;stroke-linecap:square;stroke-linejoin:miter;stroke-width:0.8;"/>
   </g>
   <g id="patch_6">
    <path d="M 98.445312 10.7 
L 433.245313 10.7 
" style="fill:none;stroke:#000000;stroke-linecap:square;stroke-linejoin:miter;stroke-width:0.8;"/>
   </g>
  </g>
 </g>
 <defs>
  <clipPath id="p99ef85976c">
   <rect height="217.44" width="334.8" x="98.445312" y="10.7"/>
  </clipPath>
 </defs>
</svg>
