<?xml version="1.0" encoding="utf-8" standalone="no"?>
<!DOCTYPE svg PUBLIC "-//W3C//DTD SVG 1.1//EN"
  "http://www.w3.org/Graphics/SVG/1.1/DTD/svg11.dtd">
<!-- Created with matplotlib (https://matplotlib.org/) -->
<svg height="302.872266pt" version="1.1" viewBox="0 0 462.403125 302.872266" width="462.403125pt" xmlns="http://www.w3.org/2000/svg" xmlns:xlink="http://www.w3.org/1999/xlink">
 <defs>
  <style type="text/css">
*{stroke-linecap:butt;stroke-linejoin:round;}
  </style>
 </defs>
 <g id="figure_1">
  <g id="patch_1">
   <path d="M 0 302.872266 
L 462.403125 302.872266 
L 462.403125 0 
L 0 0 
z
" style="fill:#ffffff;"/>
  </g>
  <g id="axes_1">
   <g id="patch_2">
    <path d="M 91.135625 233.378203 
L 425.935625 233.378203 
L 425.935625 15.938203 
L 91.135625 15.938203 
z
" style="fill:#ffffff;"/>
   </g>
   <g id="matplotlib.axis_1">
    <g id="xtick_1">
     <g id="line2d_1">
      <defs>
       <path d="M 0 0 
L 0 3.5 
" id="m0eb6b6cf9b" style="stroke:#000000;stroke-width:0.8;"/>
      </defs>
      <g>
       <use style="stroke:#000000;stroke-width:0.8;" x="106.271711" xlink:href="#m0eb6b6cf9b" y="233.378203"/>
      </g>
     </g>
     <g id="text_1">
      <!-- 0 -->
      <defs>
       <path d="M 31.78125 66.40625 
Q 24.171875 66.40625 20.328125 58.90625 
Q 16.5 51.421875 16.5 36.375 
Q 16.5 21.390625 20.328125 13.890625 
Q 24.171875 6.390625 31.78125 6.390625 
Q 39.453125 6.390625 43.28125 13.890625 
Q 47.125 21.390625 47.125 36.375 
Q 47.125 51.421875 43.28125 58.90625 
Q 39.453125 66.40625 31.78125 66.40625 
z
M 31.78125 74.21875 
Q 44.046875 74.21875 50.515625 64.515625 
Q 56.984375 54.828125 56.984375 36.375 
Q 56.984375 17.96875 50.515625 8.265625 
Q 44.046875 -1.421875 31.78125 -1.421875 
Q 19.53125 -1.421875 13.0625 8.265625 
Q 6.59375 17.96875 6.59375 36.375 
Q 6.59375 54.828125 13.0625 64.515625 
Q 19.53125 74.21875 31.78125 74.21875 
z
" id="DejaVuSans-48"/>
      </defs>
      <g transform="translate(98.954836 257.854609)scale(0.23 -0.23)">
       <use xlink:href="#DejaVuSans-48"/>
      </g>
     </g>
    </g>
    <g id="xtick_2">
     <g id="line2d_2">
      <g>
       <use style="stroke:#000000;stroke-width:0.8;" x="186.18769" xlink:href="#m0eb6b6cf9b" y="233.378203"/>
      </g>
     </g>
     <g id="text_2">
      <!-- 500 -->
      <defs>
       <path d="M 10.796875 72.90625 
L 49.515625 72.90625 
L 49.515625 64.59375 
L 19.828125 64.59375 
L 19.828125 46.734375 
Q 21.96875 47.46875 24.109375 47.828125 
Q 26.265625 48.1875 28.421875 48.1875 
Q 40.625 48.1875 47.75 41.5 
Q 54.890625 34.8125 54.890625 23.390625 
Q 54.890625 11.625 47.5625 5.09375 
Q 40.234375 -1.421875 26.90625 -1.421875 
Q 22.3125 -1.421875 17.546875 -0.640625 
Q 12.796875 0.140625 7.71875 1.703125 
L 7.71875 11.625 
Q 12.109375 9.234375 16.796875 8.0625 
Q 21.484375 6.890625 26.703125 6.890625 
Q 35.15625 6.890625 40.078125 11.328125 
Q 45.015625 15.765625 45.015625 23.390625 
Q 45.015625 31 40.078125 35.4375 
Q 35.15625 39.890625 26.703125 39.890625 
Q 22.75 39.890625 18.8125 39.015625 
Q 14.890625 38.140625 10.796875 36.28125 
z
" id="DejaVuSans-53"/>
      </defs>
      <g transform="translate(164.237065 257.854609)scale(0.23 -0.23)">
       <use xlink:href="#DejaVuSans-53"/>
       <use x="63.623047" xlink:href="#DejaVuSans-48"/>
       <use x="127.246094" xlink:href="#DejaVuSans-48"/>
      </g>
     </g>
    </g>
    <g id="xtick_3">
     <g id="line2d_3">
      <g>
       <use style="stroke:#000000;stroke-width:0.8;" x="266.103668" xlink:href="#m0eb6b6cf9b" y="233.378203"/>
      </g>
     </g>
     <g id="text_3">
      <!-- 1000 -->
      <defs>
       <path d="M 12.40625 8.296875 
L 28.515625 8.296875 
L 28.515625 63.921875 
L 10.984375 60.40625 
L 10.984375 69.390625 
L 28.421875 72.90625 
L 38.28125 72.90625 
L 38.28125 8.296875 
L 54.390625 8.296875 
L 54.390625 0 
L 12.40625 0 
z
" id="DejaVuSans-49"/>
      </defs>
      <g transform="translate(236.836168 257.854609)scale(0.23 -0.23)">
       <use xlink:href="#DejaVuSans-49"/>
       <use x="63.623047" xlink:href="#DejaVuSans-48"/>
       <use x="127.246094" xlink:href="#DejaVuSans-48"/>
       <use x="190.869141" xlink:href="#DejaVuSans-48"/>
      </g>
     </g>
    </g>
    <g id="xtick_4">
     <g id="line2d_4">
      <g>
       <use style="stroke:#000000;stroke-width:0.8;" x="346.019647" xlink:href="#m0eb6b6cf9b" y="233.378203"/>
      </g>
     </g>
     <g id="text_4">
      <!-- 1500 -->
      <g transform="translate(316.752147 257.854609)scale(0.23 -0.23)">
       <use xlink:href="#DejaVuSans-49"/>
       <use x="63.623047" xlink:href="#DejaVuSans-53"/>
       <use x="127.246094" xlink:href="#DejaVuSans-48"/>
       <use x="190.869141" xlink:href="#DejaVuSans-48"/>
      </g>
     </g>
    </g>
    <g id="xtick_5">
     <g id="line2d_5">
      <g>
       <use style="stroke:#000000;stroke-width:0.8;" x="425.935625" xlink:href="#m0eb6b6cf9b" y="233.378203"/>
      </g>
     </g>
     <g id="text_5">
      <!-- 2000 -->
      <defs>
       <path d="M 19.1875 8.296875 
L 53.609375 8.296875 
L 53.609375 0 
L 7.328125 0 
L 7.328125 8.296875 
Q 12.9375 14.109375 22.625 23.890625 
Q 32.328125 33.6875 34.8125 36.53125 
Q 39.546875 41.84375 41.421875 45.53125 
Q 43.3125 49.21875 43.3125 52.78125 
Q 43.3125 58.59375 39.234375 62.25 
Q 35.15625 65.921875 28.609375 65.921875 
Q 23.96875 65.921875 18.8125 64.3125 
Q 13.671875 62.703125 7.8125 59.421875 
L 7.8125 69.390625 
Q 13.765625 71.78125 18.9375 73 
Q 24.125 74.21875 28.421875 74.21875 
Q 39.75 74.21875 46.484375 68.546875 
Q 53.21875 62.890625 53.21875 53.421875 
Q 53.21875 48.921875 51.53125 44.890625 
Q 49.859375 40.875 45.40625 35.40625 
Q 44.1875 33.984375 37.640625 27.21875 
Q 31.109375 20.453125 19.1875 8.296875 
z
" id="DejaVuSans-50"/>
      </defs>
      <g transform="translate(396.668125 257.854609)scale(0.23 -0.23)">
       <use xlink:href="#DejaVuSans-50"/>
       <use x="63.623047" xlink:href="#DejaVuSans-48"/>
       <use x="127.246094" xlink:href="#DejaVuSans-48"/>
       <use x="190.869141" xlink:href="#DejaVuSans-48"/>
      </g>
     </g>
    </g>
    <g id="text_6">
     <!-- rank -->
     <defs>
      <path d="M 41.109375 46.296875 
Q 39.59375 47.171875 37.8125 47.578125 
Q 36.03125 48 33.890625 48 
Q 26.265625 48 22.1875 43.046875 
Q 18.109375 38.09375 18.109375 28.8125 
L 18.109375 0 
L 9.078125 0 
L 9.078125 54.6875 
L 18.109375 54.6875 
L 18.109375 46.1875 
Q 20.953125 51.171875 25.484375 53.578125 
Q 30.03125 56 36.53125 56 
Q 37.453125 56 38.578125 55.875 
Q 39.703125 55.765625 41.0625 55.515625 
z
" id="DejaVuSans-114"/>
      <path d="M 34.28125 27.484375 
Q 23.390625 27.484375 19.1875 25 
Q 14.984375 22.515625 14.984375 16.5 
Q 14.984375 11.71875 18.140625 8.90625 
Q 21.296875 6.109375 26.703125 6.109375 
Q 34.1875 6.109375 38.703125 11.40625 
Q 43.21875 16.703125 43.21875 25.484375 
L 43.21875 27.484375 
z
M 52.203125 31.203125 
L 52.203125 0 
L 43.21875 0 
L 43.21875 8.296875 
Q 40.140625 3.328125 35.546875 0.953125 
Q 30.953125 -1.421875 24.3125 -1.421875 
Q 15.921875 -1.421875 10.953125 3.296875 
Q 6 8.015625 6 15.921875 
Q 6 25.140625 12.171875 29.828125 
Q 18.359375 34.515625 30.609375 34.515625 
L 43.21875 34.515625 
L 43.21875 35.40625 
Q 43.21875 41.609375 39.140625 45 
Q 35.0625 48.390625 27.6875 48.390625 
Q 23 48.390625 18.546875 47.265625 
Q 14.109375 46.140625 10.015625 43.890625 
L 10.015625 52.203125 
Q 14.9375 54.109375 19.578125 55.046875 
Q 24.21875 56 28.609375 56 
Q 40.484375 56 46.34375 49.84375 
Q 52.203125 43.703125 52.203125 31.203125 
z
" id="DejaVuSans-97"/>
      <path d="M 54.890625 33.015625 
L 54.890625 0 
L 45.90625 0 
L 45.90625 32.71875 
Q 45.90625 40.484375 42.875 44.328125 
Q 39.84375 48.1875 33.796875 48.1875 
Q 26.515625 48.1875 22.3125 43.546875 
Q 18.109375 38.921875 18.109375 30.90625 
L 18.109375 0 
L 9.078125 0 
L 9.078125 54.6875 
L 18.109375 54.6875 
L 18.109375 46.1875 
Q 21.34375 51.125 25.703125 53.5625 
Q 30.078125 56 35.796875 56 
Q 45.21875 56 50.046875 50.171875 
Q 54.890625 44.34375 54.890625 33.015625 
z
" id="DejaVuSans-110"/>
      <path d="M 9.078125 75.984375 
L 18.109375 75.984375 
L 18.109375 31.109375 
L 44.921875 54.6875 
L 56.390625 54.6875 
L 27.390625 29.109375 
L 57.625 0 
L 45.90625 0 
L 18.109375 26.703125 
L 18.109375 0 
L 9.078125 0 
z
" id="DejaVuSans-107"/>
     </defs>
     <g transform="translate(224.984844 289.433203)scale(0.3 -0.3)">
      <use xlink:href="#DejaVuSans-114"/>
      <use x="41.113281" xlink:href="#DejaVuSans-97"/>
      <use x="102.392578" xlink:href="#DejaVuSans-110"/>
      <use x="165.771484" xlink:href="#DejaVuSans-107"/>
     </g>
    </g>
   </g>
   <g id="matplotlib.axis_2">
    <g id="ytick_1">
     <g id="line2d_6">
      <defs>
       <path d="M 0 0 
L -3.5 0 
" id="ma396ab1987" style="stroke:#000000;stroke-width:0.8;"/>
      </defs>
      <g>
       <use style="stroke:#000000;stroke-width:0.8;" x="91.135625" xlink:href="#ma396ab1987" y="233.378203"/>
      </g>
     </g>
     <g id="text_7">
      <!-- 0 -->
      <g transform="translate(69.501875 242.116406)scale(0.23 -0.23)">
       <use xlink:href="#DejaVuSans-48"/>
      </g>
     </g>
    </g>
    <g id="ytick_2">
     <g id="line2d_7">
      <g>
       <use style="stroke:#000000;stroke-width:0.8;" x="91.135625" xlink:href="#ma396ab1987" y="179.018203"/>
      </g>
     </g>
     <g id="text_8">
      <!-- 25 -->
      <g transform="translate(54.868125 187.756406)scale(0.23 -0.23)">
       <use xlink:href="#DejaVuSans-50"/>
       <use x="63.623047" xlink:href="#DejaVuSans-53"/>
      </g>
     </g>
    </g>
    <g id="ytick_3">
     <g id="line2d_8">
      <g>
       <use style="stroke:#000000;stroke-width:0.8;" x="91.135625" xlink:href="#ma396ab1987" y="124.658203"/>
      </g>
     </g>
     <g id="text_9">
      <!-- 50 -->
      <g transform="translate(54.868125 133.396406)scale(0.23 -0.23)">
       <use xlink:href="#DejaVuSans-53"/>
       <use x="63.623047" xlink:href="#DejaVuSans-48"/>
      </g>
     </g>
    </g>
    <g id="ytick_4">
     <g id="line2d_9">
      <g>
       <use style="stroke:#000000;stroke-width:0.8;" x="91.135625" xlink:href="#ma396ab1987" y="70.298203"/>
      </g>
     </g>
     <g id="text_10">
      <!-- 75 -->
      <defs>
       <path d="M 8.203125 72.90625 
L 55.078125 72.90625 
L 55.078125 68.703125 
L 28.609375 0 
L 18.3125 0 
L 43.21875 64.59375 
L 8.203125 64.59375 
z
" id="DejaVuSans-55"/>
      </defs>
      <g transform="translate(54.868125 79.036406)scale(0.23 -0.23)">
       <use xlink:href="#DejaVuSans-55"/>
       <use x="63.623047" xlink:href="#DejaVuSans-53"/>
      </g>
     </g>
    </g>
    <g id="ytick_5">
     <g id="line2d_10">
      <g>
       <use style="stroke:#000000;stroke-width:0.8;" x="91.135625" xlink:href="#ma396ab1987" y="15.938203"/>
      </g>
     </g>
     <g id="text_11">
      <!-- 100 -->
      <g transform="translate(40.234375 24.676406)scale(0.23 -0.23)">
       <use xlink:href="#DejaVuSans-49"/>
       <use x="63.623047" xlink:href="#DejaVuSans-48"/>
       <use x="127.246094" xlink:href="#DejaVuSans-48"/>
      </g>
     </g>
    </g>
    <g id="text_12">
     <!-- #hours -->
     <defs>
      <path d="M 51.125 44 
L 36.921875 44 
L 32.8125 27.6875 
L 47.125 27.6875 
z
M 43.796875 71.78125 
L 38.71875 51.515625 
L 52.984375 51.515625 
L 58.109375 71.78125 
L 65.921875 71.78125 
L 60.890625 51.515625 
L 76.125 51.515625 
L 76.125 44 
L 58.984375 44 
L 54.984375 27.6875 
L 70.515625 27.6875 
L 70.515625 20.21875 
L 53.078125 20.21875 
L 48 0 
L 40.1875 0 
L 45.21875 20.21875 
L 30.90625 20.21875 
L 25.875 0 
L 18.015625 0 
L 23.09375 20.21875 
L 7.71875 20.21875 
L 7.71875 27.6875 
L 24.90625 27.6875 
L 29 44 
L 13.28125 44 
L 13.28125 51.515625 
L 30.90625 51.515625 
L 35.890625 71.78125 
z
" id="DejaVuSans-35"/>
      <path d="M 54.890625 33.015625 
L 54.890625 0 
L 45.90625 0 
L 45.90625 32.71875 
Q 45.90625 40.484375 42.875 44.328125 
Q 39.84375 48.1875 33.796875 48.1875 
Q 26.515625 48.1875 22.3125 43.546875 
Q 18.109375 38.921875 18.109375 30.90625 
L 18.109375 0 
L 9.078125 0 
L 9.078125 75.984375 
L 18.109375 75.984375 
L 18.109375 46.1875 
Q 21.34375 51.125 25.703125 53.5625 
Q 30.078125 56 35.796875 56 
Q 45.21875 56 50.046875 50.171875 
Q 54.890625 44.34375 54.890625 33.015625 
z
" id="DejaVuSans-104"/>
      <path d="M 30.609375 48.390625 
Q 23.390625 48.390625 19.1875 42.75 
Q 14.984375 37.109375 14.984375 27.296875 
Q 14.984375 17.484375 19.15625 11.84375 
Q 23.34375 6.203125 30.609375 6.203125 
Q 37.796875 6.203125 41.984375 11.859375 
Q 46.1875 17.53125 46.1875 27.296875 
Q 46.1875 37.015625 41.984375 42.703125 
Q 37.796875 48.390625 30.609375 48.390625 
z
M 30.609375 56 
Q 42.328125 56 49.015625 48.375 
Q 55.71875 40.765625 55.71875 27.296875 
Q 55.71875 13.875 49.015625 6.21875 
Q 42.328125 -1.421875 30.609375 -1.421875 
Q 18.84375 -1.421875 12.171875 6.21875 
Q 5.515625 13.875 5.515625 27.296875 
Q 5.515625 40.765625 12.171875 48.375 
Q 18.84375 56 30.609375 56 
z
" id="DejaVuSans-111"/>
      <path d="M 8.5 21.578125 
L 8.5 54.6875 
L 17.484375 54.6875 
L 17.484375 21.921875 
Q 17.484375 14.15625 20.5 10.265625 
Q 23.53125 6.390625 29.59375 6.390625 
Q 36.859375 6.390625 41.078125 11.03125 
Q 45.3125 15.671875 45.3125 23.6875 
L 45.3125 54.6875 
L 54.296875 54.6875 
L 54.296875 0 
L 45.3125 0 
L 45.3125 8.40625 
Q 42.046875 3.421875 37.71875 1 
Q 33.40625 -1.421875 27.6875 -1.421875 
Q 18.265625 -1.421875 13.375 4.4375 
Q 8.5 10.296875 8.5 21.578125 
z
M 31.109375 56 
z
" id="DejaVuSans-117"/>
      <path d="M 44.28125 53.078125 
L 44.28125 44.578125 
Q 40.484375 46.53125 36.375 47.5 
Q 32.28125 48.484375 27.875 48.484375 
Q 21.1875 48.484375 17.84375 46.4375 
Q 14.5 44.390625 14.5 40.28125 
Q 14.5 37.15625 16.890625 35.375 
Q 19.28125 33.59375 26.515625 31.984375 
L 29.59375 31.296875 
Q 39.15625 29.25 43.1875 25.515625 
Q 47.21875 21.78125 47.21875 15.09375 
Q 47.21875 7.46875 41.1875 3.015625 
Q 35.15625 -1.421875 24.609375 -1.421875 
Q 20.21875 -1.421875 15.453125 -0.5625 
Q 10.6875 0.296875 5.421875 2 
L 5.421875 11.28125 
Q 10.40625 8.6875 15.234375 7.390625 
Q 20.0625 6.109375 24.8125 6.109375 
Q 31.15625 6.109375 34.5625 8.28125 
Q 37.984375 10.453125 37.984375 14.40625 
Q 37.984375 18.0625 35.515625 20.015625 
Q 33.0625 21.96875 24.703125 23.78125 
L 21.578125 24.515625 
Q 13.234375 26.265625 9.515625 29.90625 
Q 5.8125 33.546875 5.8125 39.890625 
Q 5.8125 47.609375 11.28125 51.796875 
Q 16.75 56 26.8125 56 
Q 31.78125 56 36.171875 55.265625 
Q 40.578125 54.546875 44.28125 53.078125 
z
" id="DejaVuSans-115"/>
     </defs>
     <g transform="translate(29.995312 179.398828)rotate(-90)scale(0.3 -0.3)">
      <use xlink:href="#DejaVuSans-35"/>
      <use x="83.789062" xlink:href="#DejaVuSans-104"/>
      <use x="147.167969" xlink:href="#DejaVuSans-111"/>
      <use x="208.349609" xlink:href="#DejaVuSans-117"/>
      <use x="271.728516" xlink:href="#DejaVuSans-114"/>
      <use x="312.841797" xlink:href="#DejaVuSans-115"/>
     </g>
    </g>
   </g>
   <g id="line2d_11">
    <path clip-path="url(#p1844df1a75)" d="M 106.271711 49.669791 
L 106.431543 76.846167 
L 106.751207 76.875159 
L 106.911039 77.055755 
L 107.070871 77.055755 
L 107.390535 77.205547 
L 110.747006 77.704451 
L 112.025662 77.906187 
L 113.304317 78.068663 
L 114.423141 78.167115 
L 116.021461 78.366435 
L 119.058268 78.603203 
L 120.656587 78.699239 
L 120.976251 78.798899 
L 122.414739 78.865943 
L 123.054067 78.966811 
L 124.97205 79.085799 
L 125.77121 79.178815 
L 135.361127 79.802143 
L 136.000455 79.944083 
L 149.586172 80.777603 
L 150.065667 80.843439 
L 151.504155 80.948535 
L 156.299114 81.254763 
L 158.057265 81.442003 
L 158.376929 81.514483 
L 161.413736 81.647967 
L 161.893232 81.702327 
L 164.610376 81.881715 
L 166.528359 82.005535 
L 171.48315 82.384243 
L 172.601973 82.556383 
L 174.999453 82.645171 
L 178.03626 82.990055 
L 181.232899 83.242527 
L 181.872227 83.363327 
L 182.991051 83.485335 
L 184.58937 83.562647 
L 187.626177 83.723915 
L 188.425337 83.803039 
L 191.302312 83.959475 
L 191.94164 84.090543 
L 193.699792 84.193223 
L 194.498951 84.293487 
L 197.056263 84.386503 
L 197.535759 84.451131 
L 200.89223 84.684879 
L 201.531558 84.852791 
L 207.44534 85.493031 
L 208.2445 85.560075 
L 208.723996 85.698995 
L 209.842819 85.842747 
L 211.760803 86.164679 
L 213.039458 86.360979 
L 214.477946 86.908203 
L 215.117274 86.940819 
L 215.436938 87.113563 
L 216.236098 87.192083 
L 217.035257 87.296575 
L 218.633577 87.508579 
L 219.432737 87.588911 
L 219.752401 87.704275 
L 221.670384 87.965203 
L 222.469544 88.302235 
L 223.108872 88.410351 
L 223.428536 88.574639 
L 224.227695 88.749799 
L 224.707191 88.979923 
L 225.186687 89.069919 
L 225.506351 89.240851 
L 226.145679 89.315143 
L 227.743999 89.697475 
L 228.063662 89.754251 
L 228.383326 90.007327 
L 229.661982 90.211479 
L 230.940638 90.309327 
L 231.260302 90.479655 
L 233.018453 90.849303 
L 233.338117 90.985807 
L 235.575764 91.351831 
L 235.895428 91.476859 
L 237.65358 91.658663 
L 237.973244 91.781879 
L 238.292908 91.858587 
L 238.772404 91.867043 
L 239.251899 92.181123 
L 240.530555 92.328499 
L 241.329715 92.650431 
L 241.649379 92.759755 
L 242.448539 92.901091 
L 242.608371 92.901091 
L 242.768202 93.149939 
L 243.567362 93.258055 
L 243.727194 93.688103 
L 244.686186 93.866283 
L 245.00585 94.128419 
L 245.485346 94.226267 
L 246.124674 94.447935 
L 246.284506 94.447935 
L 246.444337 94.613431 
L 246.764001 94.695575 
L 246.923833 94.887043 
L 247.243497 94.889459 
L 247.563161 95.157635 
L 249.321313 95.440911 
L 249.640977 95.488023 
L 250.440136 95.812975 
L 251.718792 96.118599 
L 252.517952 96.675487 
L 252.677784 96.698439 
L 252.997448 97.014331 
L 253.796607 97.141775 
L 254.116271 97.597795 
L 254.595767 97.640075 
L 255.554759 98.973707 
L 256.034255 99.135579 
L 256.513751 99.417043 
L 256.833415 99.691259 
L 257.153079 100.080839 
L 257.312911 100.080839 
L 257.632574 100.211303 
L 257.792406 100.211303 
L 257.952238 100.571287 
L 258.271902 100.754299 
L 258.431734 100.975967 
L 258.91123 100.977779 
L 259.071062 101.186159 
L 259.230894 101.210319 
L 259.390726 101.438631 
L 259.71039 101.460979 
L 260.989046 102.067999 
L 261.148877 102.110883 
L 261.468541 102.348255 
L 261.788205 102.472075 
L 261.948037 102.651463 
L 262.107869 103.007823 
L 263.066861 103.160635 
L 263.546357 103.404047 
L 264.025853 103.821411 
L 264.345517 104.358971 
L 265.624172 104.651911 
L 266.103668 104.907403 
L 266.583164 104.980487 
L 266.902828 105.397247 
L 267.222492 105.550663 
L 268.341316 106.268819 
L 268.660979 106.268819 
L 268.980643 106.421027 
L 269.140475 106.421027 
L 269.460139 106.638467 
L 270.738795 107.008719 
L 271.218291 107.229179 
L 271.857619 107.381387 
L 272.017451 107.659831 
L 272.337114 107.668891 
L 272.976442 108.348391 
L 273.455938 108.437179 
L 273.61577 108.650995 
L 273.775602 108.657035 
L 274.095266 108.849107 
L 274.574762 109.100975 
L 275.533754 109.633703 
L 275.853418 109.947783 
L 276.332913 110.064355 
L 276.652577 110.250387 
L 277.132073 110.255219 
L 277.451737 110.578963 
L 277.611569 110.623659 
L 277.771401 110.854387 
L 277.931233 111.596703 
L 278.091065 111.621467 
L 278.250897 111.852195 
L 278.570561 111.876959 
L 278.730393 112.303987 
L 279.050057 112.483375 
L 279.369721 113.020935 
L 280.009048 113.513799 
L 280.328712 113.585675 
L 280.808208 113.707079 
L 281.287704 114.462079 
L 281.927032 114.715759 
L 282.086864 114.936823 
L 282.246696 114.956755 
L 282.726192 115.399487 
L 282.886024 115.511227 
L 283.365519 116.138179 
L 283.845015 116.220927 
L 284.164679 116.390651 
L 284.324511 116.444407 
L 284.484343 116.657619 
L 284.644175 117.221755 
L 285.123671 117.504427 
L 286.562159 117.905483 
L 286.881823 118.205067 
L 287.361318 118.289627 
L 287.680982 118.594647 
L 288.000646 119.106235 
L 288.639974 119.468031 
L 289.11947 119.618427 
L 289.279302 119.618427 
L 289.439134 120.127599 
L 289.598966 120.127599 
L 290.557958 120.958099 
L 290.877621 121.054135 
L 291.357117 121.232315 
L 291.836613 121.467271 
L 291.996445 121.966779 
L 292.316109 122.013891 
L 292.635773 122.160059 
L 292.955437 122.977875 
L 293.594765 123.007471 
L 294.234093 123.545635 
L 294.393925 123.892331 
L 294.713588 123.900787 
L 295.033252 124.056015 
L 295.512748 124.145407 
L 295.832412 124.423851 
L 296.311908 124.635855 
L 296.47174 124.647935 
L 296.631572 124.928191 
L 296.951236 124.928191 
L 297.2709 125.108183 
L 297.590564 125.108183 
L 297.910228 125.296631 
L 298.229891 125.401123 
L 298.549555 125.513467 
L 298.709387 125.528567 
L 299.029051 125.929623 
L 299.348715 125.996667 
L 299.508547 126.223167 
L 300.147875 126.376583 
L 300.467539 126.479263 
L 300.627371 126.479263 
L 300.947035 126.781263 
L 301.106867 126.818711 
L 301.426531 127.196815 
L 301.906026 127.321239 
L 302.385522 127.861215 
L 303.344514 128.173483 
L 303.664178 128.229051 
L 303.983842 128.599303 
L 304.463338 128.661515 
L 304.62317 128.743055 
L 304.783002 129.035391 
L 305.901825 129.278803 
L 306.061657 129.461815 
L 306.700985 129.557247 
L 306.860817 129.856227 
L 308.938633 130.465663 
L 309.258297 130.817795 
L 311.17628 130.915039 
L 311.495944 131.013491 
L 311.655776 131.747351 
L 311.815608 131.747351 
L 312.135272 132.051163 
L 312.454936 132.165923 
L 313.094263 132.198539 
L 313.573759 132.626171 
L 313.733591 132.626171 
L 314.053255 132.894951 
L 314.213087 132.909447 
L 314.532751 133.138363 
L 314.852415 133.217487 
L 315.172079 133.402311 
L 315.811407 133.458483 
L 316.290903 133.818467 
L 316.450735 133.818467 
L 316.93023 134.423675 
L 317.090062 134.428507 
L 317.889222 135.379203 
L 318.368718 135.585771 
L 318.688382 135.965687 
L 319.008046 136.017631 
L 319.32771 136.363119 
L 320.286702 137.313815 
L 320.606365 137.388107 
L 320.766197 137.573535 
L 321.885021 137.757755 
L 322.204685 138.115927 
L 322.844013 138.380479 
L 323.323509 138.521211 
L 323.483341 138.994747 
L 324.2825 139.412111 
L 324.602164 139.635591 
L 328.438131 140.572999 
L 329.397123 141.143779 
L 329.876619 141.223507 
L 330.515947 141.359407 
L 331.155275 141.395043 
L 331.474939 141.526715 
L 331.954434 141.657783 
L 332.753594 142.093267 
L 333.392922 142.304063 
L 333.552754 142.332451 
L 333.872418 142.511235 
L 334.991242 142.830147 
L 336.110065 143.098927 
L 336.429729 143.128523 
L 337.388721 143.708967 
L 337.548553 144.062911 
L 337.868217 144.170423 
L 338.187881 144.689259 
L 338.827209 145.496203 
L 338.98704 145.528819 
L 339.146872 145.694315 
L 339.626368 145.752299 
L 339.7862 146.038595 
L 340.58536 146.116511 
L 341.224688 146.270531 
L 341.544352 146.299523 
L 341.864016 147.143915 
L 342.663175 147.212771 
L 343.142671 147.393971 
L 343.622167 147.655503 
L 343.781999 148.066827 
L 343.941831 148.150179 
L 344.101663 148.621903 
L 344.581159 148.782567 
L 344.900823 149.438511 
L 345.220487 149.516427 
L 345.380319 149.693399 
L 345.699983 149.757423 
L 346.179479 150.446587 
L 346.33931 151.521103 
L 346.499142 151.529559 
L 346.818806 151.668479 
L 347.617966 151.997055 
L 347.93763 152.491127 
L 348.73679 152.724271 
L 349.056454 153.118683 
L 349.855614 153.180895 
L 350.974437 153.677987 
L 351.294101 153.905695 
L 351.453933 153.905695 
L 352.093261 154.532043 
L 352.412925 154.687875 
L 352.732589 154.921019 
L 353.691581 155.857823 
L 353.851412 156.207539 
L 354.171076 156.252839 
L 354.49074 156.388135 
L 354.650572 156.879791 
L 355.130068 156.986095 
L 355.449732 158.327579 
L 355.769396 158.395831 
L 356.248892 158.894131 
L 356.408724 158.926747 
L 356.568556 159.199151 
L 357.048052 159.292167 
L 357.367716 159.963211 
L 357.847211 160.036899 
L 358.007043 160.196959 
L 358.326707 160.979743 
L 358.806203 161.074571 
L 359.125867 161.123495 
L 359.445531 162.034327 
L 359.925027 162.498199 
L 360.084859 162.504843 
L 361.043851 164.871315 
L 361.203682 164.874939 
L 361.683178 165.367199 
L 361.84301 165.506119 
L 362.002842 166.735259 
L 362.162674 167.080143 
L 362.482338 167.142959 
L 362.802002 167.321139 
L 362.961834 167.997619 
L 363.601162 168.767115 
L 364.080658 169.565603 
L 364.24049 169.602447 
L 364.560154 170.056051 
L 364.719986 170.094103 
L 365.039649 170.666091 
L 365.998641 171.869863 
L 366.318305 171.955027 
L 366.478137 172.007575 
L 366.797801 172.508895 
L 367.437129 172.856195 
L 367.916625 173.550191 
L 368.236289 173.688507 
L 368.396121 174.386127 
L 369.035448 174.511759 
L 369.19528 174.667591 
L 369.514944 174.721347 
L 369.674776 174.819799 
L 369.834608 175.422591 
L 370.633768 175.422591 
L 370.7936 175.768079 
L 371.59276 176.197523 
L 371.912424 176.568379 
L 372.072256 176.646295 
L 372.232088 177.057015 
L 372.391919 177.067283 
L 372.551751 177.555919 
L 373.031247 177.729871 
L 373.350911 177.902011 
L 373.510743 177.902011 
L 373.830407 178.452859 
L 373.990239 178.868411 
L 374.309903 178.926395 
L 374.629567 179.187323 
L 374.789399 179.228999 
L 375.109063 180.081847 
L 375.428727 180.630883 
L 375.748391 181.103211 
L 375.908223 181.138847 
L 376.227886 181.624463 
L 376.54755 182.070819 
L 376.707382 182.070819 
L 377.027046 182.644015 
L 377.826206 182.842127 
L 378.14587 183.085539 
L 378.305702 183.141711 
L 378.465534 184.066435 
L 378.625366 184.149183 
L 378.785198 184.373267 
L 378.94503 184.844387 
L 379.264694 185.041895 
L 379.744189 185.375303 
L 380.063853 185.395235 
L 381.502341 186.881075 
L 381.662173 187.485075 
L 382.461333 188.251551 
L 382.621165 188.517311 
L 383.260493 188.812667 
L 383.580156 189.214327 
L 383.89982 189.396131 
L 384.059652 189.399151 
L 384.379316 189.548943 
L 385.178476 189.950603 
L 385.657972 190.441051 
L 385.817804 190.510511 
L 385.977636 190.833047 
L 386.457132 190.971363 
L 386.616964 191.109679 
L 386.936628 192.232515 
L 387.256291 192.521831 
L 387.416123 192.823831 
L 387.735787 192.934363 
L 388.055451 193.525075 
L 388.215283 193.619299 
L 388.534947 194.286719 
L 388.854611 194.472147 
L 389.493939 197.135787 
L 389.973435 197.270479 
L 390.293099 197.580331 
L 390.772594 197.642543 
L 391.092258 198.369155 
L 391.25209 198.494183 
L 391.571754 199.300523 
L 391.731586 199.352467 
L 392.05125 199.856203 
L 392.530746 199.886403 
L 392.85041 200.167867 
L 393.329906 201.862691 
L 393.64957 202.060199 
L 393.969234 202.183415 
L 394.44873 202.286699 
L 394.768393 202.419579 
L 395.247889 202.769295 
L 395.567553 202.823655 
L 395.727385 203.006667 
L 395.887217 203.410743 
L 396.047049 203.494699 
L 396.206881 203.969443 
L 396.366713 204.880879 
L 396.686377 204.978727 
L 397.006041 205.673931 
L 397.485537 206.029083 
L 397.805201 206.059283 
L 397.965033 206.542483 
L 398.124865 206.610131 
L 398.284696 206.809451 
L 398.60436 207.784307 
L 398.924024 207.824171 
L 399.083856 208.472867 
L 399.243688 208.648631 
L 399.563352 209.552215 
L 400.042848 209.595703 
L 400.362512 209.666371 
L 400.522344 211.564743 
L 400.842008 211.834127 
L 401.00184 212.625971 
L 401.321504 212.921327 
L 401.481336 212.921327 
L 401.641168 213.371307 
L 401.801 213.409359 
L 401.960831 213.962019 
L 402.120663 213.962019 
L 402.280495 215.507051 
L 402.759991 215.577115 
L 402.919823 216.046423 
L 403.079655 216.069979 
L 403.559151 217.291267 
L 403.878815 217.500251 
L 404.038647 217.536491 
L 404.198479 217.914595 
L 404.358311 219.642035 
L 404.518143 219.642035 
L 404.677975 219.892695 
L 405.317303 221.798315 
L 405.95663 222.355807 
L 406.276294 223.288383 
L 406.595958 226.313215 
L 406.75579 226.313215 
L 406.915622 227.381087 
L 407.235286 227.640807 
L 407.55495 228.741899 
L 407.714782 229.249863 
L 407.874614 230.132307 
L 408.034446 230.272435 
L 408.194278 230.602219 
L 408.513942 231.934643 
L 408.833606 232.710783 
L 408.993438 233.378203 
L 408.993438 233.378203 
" style="fill:none;stroke:#0000ff;stroke-linecap:square;stroke-width:4;"/>
   </g>
   <g id="patch_3">
    <path d="M 91.135625 233.378203 
L 91.135625 15.938203 
" style="fill:none;stroke:#000000;stroke-linecap:square;stroke-linejoin:miter;stroke-width:0.8;"/>
   </g>
   <g id="patch_4">
    <path d="M 425.935625 233.378203 
L 425.935625 15.938203 
" style="fill:none;stroke:#000000;stroke-linecap:square;stroke-linejoin:miter;stroke-width:0.8;"/>
   </g>
   <g id="patch_5">
    <path d="M 91.135625 233.378203 
L 425.935625 233.378203 
" style="fill:none;stroke:#000000;stroke-linecap:square;stroke-linejoin:miter;stroke-width:0.8;"/>
   </g>
   <g id="patch_6">
    <path d="M 91.135625 15.938203 
L 425.935625 15.938203 
" style="fill:none;stroke:#000000;stroke-linecap:square;stroke-linejoin:miter;stroke-width:0.8;"/>
   </g>
  </g>
 </g>
 <defs>
  <clipPath id="p1844df1a75">
   <rect height="217.44" width="334.8" x="91.135625" y="15.938203"/>
  </clipPath>
 </defs>
</svg>
